<?xml version="1.0" ?>
<svg xmlns="http://www.w3.org/2000/svg" version="1.1" width="600" height="600">
  <defs/>
  <g>
    <path stroke-width="0" fill="rgb(0, 0, 0)" opacity="1.0" d="M 158.74810791015625 401.7373046875 C 149.1710205078125 404.1000061035156 136.89926147460938 403.566162109375 126.55364227294922 402.8538818359375 C 113.36721801757812 401.10076904296875 104.05720520019531 401.6148681640625 95.94129180908203 405.3004150390625 C 90.90702819824219 407.98211669921875 87.1299819946289 413.4400329589844 83.83650207519531 422.4277038574219 C 82.92957305908203 426.09356689453125 83.43663787841797 433.06341552734375 85.44355773925781 441.23724365234375 C 87.03997039794922 449.69964599609375 90.06173706054688 457.3495178222656 92.48146057128906 462.4922180175781 C 95.9954833984375 468.45733642578125 99.92164611816406 474.6636657714844 104.60708618164062 480.5651550292969 C 111.38663482666016 489.7976379394531 119.90756225585938 500.1626892089844 128.4682159423828 508.6953125 C 132.7327117919922 512.9480590820312 136.9462432861328 516.89697265625 140.5603485107422 519.4964599609375 C 145.7294464111328 522.9889526367188 151.18441772460938 525.6441040039062 157.83009338378906 528.7581176757812 C 167.18519592285156 533.8964233398438 177.47618103027344 537.6283569335938 183.04391479492188 536.9740600585938 C 175.95054626464844 544.6050415039062 178.53842163085938 539.5645751953125 180.33497619628906 536.8532104492188 C 181.87374877929688 534.2339477539062 183.4517822265625 532.0377197265625 184.75411987304688 530.0198974609375 C 187.02328491210938 532.5699462890625 189.0611114501953 535.0408325195312 191.930419921875 537.878173828125 C 198.20387268066406 542.59033203125 201.83853149414062 546.0308837890625 206.83102416992188 550.685546875 C 204.70620727539062 555.2633666992188 202.5615692138672 559.5890502929688 199.7901611328125 564.2169799804688 C 191.15733337402344 567.2606201171875 182.90367126464844 568.0263671875 175.86817932128906 567.0379028320312 C 167.91061401367188 565.4509887695312 160.56430053710938 562.3646240234375 154.55677795410156 559.9244384765625 C 149.60549926757812 557.5881958007812 144.81430053710938 555.4843139648438 140.37901306152344 552.8933715820312 C 136.05938720703125 550.9589233398438 131.73489379882812 549.2244873046875 127.84434509277344 547.09765625 C 123.75962829589844 544.836669921875 120.28578186035156 542.6173095703125 116.2198257446289 539.8675537109375 C 110.27069091796875 535.7586669921875 104.58678436279297 531.1045532226562 99.93628692626953 524.52685546875 C 96.4642562866211 521.3645629882812 92.81251525878906 516.9925537109375 89.66806030273438 512.6071166992188 C 86.46835327148438 508.81256103515625 83.02566528320312 504.70965576171875 78.65979766845703 498.29547119140625 C 74.34563446044922 492.6966552734375 71.23407745361328 486.74603271484375 67.91694641113281 479.31292724609375 C 64.69611358642578 474.4064025878906 62.16483688354492 469.09735107421875 60.22431564331055 464.11395263671875 C 58.521854400634766 458.94830322265625 57.284454345703125 452.5310363769531 55.90638732910156 448.56378173828125 C 52.976524353027344 443.04913330078125 51.517822265625 439.1388854980469 50.83131408691406 429.9226989746094 C 51.32246017456055 423.94952392578125 52.34388732910156 417.6378173828125 55.07863998413086 412.68475341796875 C 57.78436279296875 406.3265686035156 59.51325988769531 400.8583679199219 63.325172424316406 393.4185791015625 C 66.54998779296875 388.8771057128906 73.46170043945312 382.71588134765625 79.91952514648438 379.3501281738281 C 87.6556625366211 375.88482666015625 91.8729019165039 374.3512878417969 97.69356536865234 373.0235900878906 C 106.39147186279297 371.5813293457031 111.65701293945312 371.02935791015625 117.55204772949219 371.2524108886719 C 124.48194122314453 369.960205078125 134.03656005859375 369.92291259765625 138.2548370361328 370.2976989746094 C 144.08963012695312 368.5388488769531 148.6891326904297 368.23748779296875 157.09951782226562 367.4552001953125 C 159.93370056152344 366.712890625 163.0320281982422 365.1735534667969 167.20187377929688 363.8305358886719 C 172.0323944091797 361.6095275878906 175.2479248046875 360.0858154296875 178.62477111816406 357.9424133300781 C 191.0955810546875 351.18389892578125 204.9442138671875 348.2857360839844 207.4322509765625 349.7786560058594 C 211.85604858398438 352.6894836425781 217.7186737060547 356.876708984375 223.04998779296875 361.2679138183594 C 217.50045776367188 368.94036865234375 211.89874267578125 377.0188293457031 207.654296875 382.6634216308594 C 205.5647735595703 385.776123046875 202.72018432617188 388.60687255859375 200.72120666503906 390.4960632324219 C 198.40467834472656 388.2094421386719 196.60337829589844 387.2178649902344 192.3997802734375 387.76806640625 C 186.30819702148438 390.3388671875 173.57020568847656 395.35302734375 158.74810791015625 401.7373046875"/>
    <path stroke-width="0" fill="rgb(0, 0, 0)" opacity="1.0" d="M 356.5694885253906 553.8341064453125 C 350.7384033203125 546.4207763671875 350.02984619140625 543.3707275390625 349.2717590332031 539.6282958984375 C 344.60394287109375 528.9417724609375 340.3351135253906 519.4839477539062 336.06439208984375 505.4494323730469 C 333.8218994140625 505.2984619140625 332.5860595703125 505.42724609375 327.3231506347656 507.3307189941406 C 316.9813537597656 508.9822998046875 313.8275146484375 508.7117004394531 309.4317932128906 507.89300537109375 C 307.8687744140625 507.8543395996094 298.2191162109375 509.9797668457031 288.60223388671875 509.88409423828125 C 282.503662109375 508.32421875 279.932373046875 507.62396240234375 285.122314453125 509.8592224121094 C 281.3030090332031 522.3087158203125 277.1955261230469 533.5161743164062 273.634033203125 542.8880615234375 C 272.0335388183594 549.9603271484375 266.3398132324219 556.8922729492188 260.9701232910156 562.3665771484375 C 254.71560668945312 559.064453125 252.9440155029297 567.3331909179688 247.93508911132812 567.1195068359375 C 244.68788146972656 567.3641967773438 237.66868591308594 567.2806396484375 233.04226684570312 559.3609619140625 C 236.28326416015625 558.5372924804688 237.9813232421875 557.6416015625 231.40415954589844 552.2899780273438 C 233.1171417236328 547.876953125 227.00404357910156 547.3909301757812 228.51124572753906 542.2603759765625 C 230.22471618652344 535.088623046875 222.44564819335938 536.0895385742188 223.38851928710938 528.268798828125 C 224.74810791015625 521.2853393554688 226.00938415527344 513.6483764648438 228.71734619140625 509.83612060546875 C 229.38905334472656 503.4747619628906 231.30758666992188 497.88104248046875 231.71197509765625 492.8791198730469 C 233.78489685058594 489.6713562011719 234.79806518554688 482.73919677734375 235.5465545654297 480.6575927734375 C 237.37469482421875 475.0238342285156 237.74560546875 471.9435119628906 238.29624938964844 466.51751708984375 C 241.13963317871094 458.0296325683594 242.99560546875 451.7127380371094 245.57716369628906 443.4521179199219 C 246.23281860351562 441.463623046875 245.03700256347656 452.0190124511719 246.55804443359375 443.90802001953125 C 249.1106719970703 439.685302734375 250.04119873046875 436.8984680175781 251.2630157470703 433.3551025390625 C 253.8919219970703 427.88970947265625 254.2303466796875 427.0859375 256.1819152832031 422.8189392089844 C 257.0735168457031 420.2684631347656 258.36663818359375 416.0870666503906 260.1889343261719 412.70623779296875 C 262.31378173828125 407.89227294921875 263.2115173339844 405.31585693359375 264.89111328125 401.1485290527344 C 267.0980529785156 397.7742919921875 268.11517333984375 394.5049743652344 269.64593505859375 390.6668701171875 C 270.9746398925781 385.5988464355469 272.5233154296875 380.93255615234375 272.9866638183594 379.4288330078125 C 288.41168212890625 373.8937072753906 290.44134521484375 369.0242614746094 283.6878356933594 364.19940185546875 C 285.4855041503906 353.2944030761719 293.2307434082031 344.0601501464844 303.232666015625 340.4880065917969 C 310.4562683105469 343.7868957519531 315.8212890625 347.0155334472656 320.48284912109375 349.92169189453125 C 327.2313537597656 357.32598876953125 327.8927001953125 357.4766845703125 330.56805419921875 358.3399963378906 C 327.124267578125 367.6141052246094 327.18487548828125 368.159423828125 330.5647277832031 369.42193603515625 C 330.1291809082031 373.3732604980469 329.9229736328125 378.25592041015625 339.3199462890625 384.3760986328125 C 339.22906494140625 385.6762390136719 339.4672546386719 386.4508972167969 341.258544921875 390.1455078125 C 341.9759216308594 392.2408142089844 343.613525390625 395.6833801269531 345.1784362792969 398.6200256347656 C 346.58831787109375 401.2502746582031 348.0694885253906 404.05078125 350.22491455078125 408.2771911621094 C 352.2046813964844 412.1630554199219 353.89678955078125 415.80535888671875 355.39459228515625 418.212158203125 C 357.7335510253906 421.5625 359.4546203613281 424.2991638183594 360.9302062988281 428.27215576171875 C 361.5609436035156 433.2857971191406 362.08184814453125 434.84033203125 365.1902770996094 437.51727294921875 C 366.49896240234375 439.79254150390625 367.94476318359375 443.09564208984375 367.6382751464844 448.3490295410156 C 370.2580871582031 451.0776672363281 371.9042663574219 455.6808776855469 371.6789855957031 461.5328674316406 C 374.63848876953125 465.3327941894531 376.4375 469.65399169921875 378.99407958984375 478.1639099121094 C 379.8659973144531 482.0860290527344 380.2737121582031 490.6445007324219 381.1182556152344 494.4639587402344 C 382.4865417480469 499.3902893066406 382.85333251953125 503.6713562011719 384.0916748046875 506.1653137207031 C 385.6947021484375 515.910400390625 386.42120361328125 518.547119140625 389.2648620605469 526.8887939453125 C 391.2637634277344 534.5542602539062 391.7660217285156 538.088623046875 392.2923278808594 540.9058227539062 C 392.9584655761719 542.95556640625 393.24664306640625 543.9764404296875 394.1262512207031 545.861083984375 C 387.7111511230469 551.732177734375 390.7177734375 552.7117919921875 394.7142639160156 553.2236938476562 C 390.7178955078125 562.0145263671875 381.4601135253906 563.56201171875 374.85748291015625 563.5501098632812 C 370.535888671875 563.4796752929688 367.748046875 563.221435546875 367.04595947265625 558.279052734375 C 364.91552734375 554.6810913085938 362.629638671875 550.16845703125 356.5694885253906 553.8341064453125M 317.7742614746094 437.566650390625 C 316.4795837402344 434.7947998046875 315.1236267089844 430.6835021972656 313.98406982421875 425.6183166503906 C 312.2293395996094 420.9205322265625 310.74603271484375 416.0486145019531 309.61322021484375 410.4759826660156 C 308.3141784667969 405.57281494140625 307.3214416503906 400.6310119628906 305.7000732421875 393.5539855957031 C 304.95843505859375 400.66650390625 304.3122253417969 405.6597900390625 303.49835205078125 411.3694152832031 C 302.823974609375 416.4159851074219 301.8995056152344 421.5627746582031 301.04974365234375 426.56280517578125 C 300.644775390625 431.8665466308594 300.3125305175781 436.3070983886719 299.9815673828125 439.18115234375 C 298.6127624511719 445.40777587890625 298.16082763671875 447.34417724609375 297.7510070800781 452.44903564453125 C 296.99017333984375 456.1446533203125 296.2264404296875 458.5759582519531 295.32147216796875 461.7264709472656 C 298.8923034667969 461.9701843261719 302.9346618652344 461.8594970703125 311.4354553222656 462.23712158203125 C 317.6042785644531 461.986572265625 321.3057556152344 462.5363464355469 326.2220153808594 462.84771728515625 C 325.2059020996094 458.9735412597656 324.2754211425781 455.88641357421875 322.8307189941406 451.52130126953125 C 321.0285339355469 445.3709411621094 319.9391174316406 441.95770263671875 317.7742614746094 437.566650390625"/>
    <path stroke-width="0" fill="rgb(0, 0, 0)" opacity="1.0" d="M 492.2670593261719 544.237060546875 C 489.1741943359375 545.1967163085938 485.7478942871094 546.5289916992188 481.9292297363281 548.2315673828125 C 482.79925537109375 554.5982666015625 482.854248046875 554.9208984375 482.2967834472656 555.0132446289062 C 481.9205627441406 551.4061889648438 479.6689147949219 552.0413818359375 473.77178955078125 552.5133056640625 C 470.477783203125 550.9092407226562 470.64959716796875 550.1588745117188 465.4369812011719 550.2225952148438 C 466.1511535644531 545.7572631835938 466.2734680175781 542.526611328125 468.19793701171875 538.8556518554688 C 462.8030090332031 537.1979370117188 456.1353759765625 538.2820434570312 455.7195129394531 536.6532592773438 C 455.0125732421875 534.9591674804688 454.86114501953125 534.2615966796875 456.13214111328125 527.3744506835938 C 456.20306396484375 526.0286254882812 456.7217712402344 521.5977783203125 457.67724609375 514.81787109375 C 458.85467529296875 507.894775390625 461.25262451171875 502.57012939453125 463.7643737792969 494.55419921875 C 466.6498107910156 488.69970703125 466.02862548828125 499.8211364746094 467.1944885253906 493.2203674316406 C 467.59869384765625 490.4446716308594 467.8110046386719 487.00750732421875 467.42919921875 484.53704833984375 C 466.4151611328125 480.28985595703125 465.7225341796875 478.6520080566406 464.2355041503906 474.7366943359375 C 461.4853515625 468.1270446777344 461.3815612792969 466.72161865234375 461.41168212890625 465.7337951660156 C 461.2850036621094 460.06005859375 461.39520263671875 455.42352294921875 467.15277099609375 467.4713439941406 C 466.32501220703125 454.10400390625 465.94195556640625 451.1751403808594 464.0924987792969 445.1313171386719 C 463.2772216796875 442.3663330078125 464.5951843261719 450.95404052734375 458.0975036621094 442.1484069824219 C 456.7900695800781 437.83758544921875 452.87579345703125 429.9648132324219 448.70123291015625 422.055419921875 C 448.83953857421875 412.2874450683594 449.70819091796875 408.2071228027344 451.25494384765625 401.8985290527344 C 457.1714172363281 392.2712707519531 454.66851806640625 402.3811340332031 455.2261962890625 396.0263977050781 C 455.79473876953125 392.331298828125 457.7731018066406 404.4768981933594 459.0506286621094 398.5050048828125 C 456.0936279296875 398.7215881347656 452.2166442871094 398.8468933105469 447.50775146484375 399.78533935546875 C 445.91973876953125 400.1051940917969 435.5448913574219 399.96417236328125 440.295166015625 398.4236755371094 C 435.7183532714844 399.2844543457031 431.672607421875 399.79437255859375 428.72021484375 386.1580810546875 C 425.4906005859375 387.7441101074219 421.93597412109375 386.57177734375 417.6148986816406 384.84002685546875 C 419.4408264160156 378.9590759277344 410.8310546875 380.074462890625 410.69073486328125 379.58917236328125 C 411.4178466796875 376.6749267578125 416.93695068359375 371.5799865722656 422.2903137207031 366.2369384765625 C 426.6649475097656 371.5198059082031 428.0224914550781 363.4273986816406 430.4799499511719 363.7565612792969 C 432.7080993652344 363.3772277832031 436.6099548339844 363.29119873046875 443.294677734375 361.0894775390625 C 448.64556884765625 359.5035400390625 455.20660400390625 358.68829345703125 463.8298645019531 359.3866882324219 C 473.9129333496094 361.0319519042969 477.75384521484375 361.5140380859375 481.8647155761719 361.47161865234375 C 488.3569641113281 363.02984619140625 496.3691101074219 364.41815185546875 502.12640380859375 366.860595703125 C 507.99505615234375 369.5770568847656 511.4540710449219 371.5219421386719 515.302001953125 372.32354736328125 C 520.7210693359375 371.78289794921875 521.8827514648438 371.8498840332031 524.124755859375 372.28082275390625 C 527.8995971679688 371.5884094238281 531.5822143554688 372.9175109863281 536.1124877929688 377.6060485839844 C 532.2427368164062 381.52752685546875 531.1871948242188 383.1573181152344 542.9705200195312 385.2046203613281 C 542.380859375 385.71514892578125 544.6175537109375 388.024169921875 547.0437622070312 390.3049621582031 C 545.5195922851562 392.2100524902344 543.8109130859375 394.5747985839844 540.71533203125 396.9826354980469 C 534.89990234375 399.49530029296875 529.7291259765625 402.0433654785156 526.446533203125 402.67791748046875 C 524.0999755859375 403.34686279296875 515.15234375 404.7738952636719 512.8204956054688 404.4410705566406 C 504.3486633300781 405.3742980957031 497.9117126464844 404.5015869140625 495.6343078613281 403.7799987792969 C 495.3141174316406 405.9996337890625 494.7716369628906 396.71038818359375 492.6654357910156 406.99749755859375 C 494.29302978515625 401.5750427246094 494.8752746582031 408.96148681640625 494.6993408203125 409.7513427734375 C 495.1875915527344 415.0267333984375 494.4354248046875 408.3529357910156 503.0333251953125 420.83453369140625 C 505.8044738769531 425.5702819824219 508.2840881347656 430.5358581542969 509.0116882324219 433.4794616699219 C 511.10382080078125 438.3013916015625 512.6840209960938 443.535888671875 513.3721923828125 449.9106750488281 C 512.3473510742188 461.1939392089844 512.6378784179688 464.102294921875 511.74090576171875 452.516845703125 C 514.8339233398438 459.2050476074219 516.1542358398438 463.2088317871094 517.4837646484375 472.1449890136719 C 516.1505126953125 485.757568359375 514.7122802734375 494.508056640625 513.8631591796875 499.711181640625 C 513.0712280273438 502.4464416503906 510.48931884765625 509.06689453125 507.3245849609375 515.20947265625 C 505.3155212402344 519.1390380859375 505.822509765625 514.551513671875 504.2641906738281 521.9015502929688 C 503.5409851074219 524.3711547851562 503.4742736816406 526.1380004882812 503.4581604003906 527.163330078125 C 503.4564208984375 529.0520629882812 503.8000793457031 530.6980590820312 497.2543640136719 530.8018188476562 C 494.4137268066406 531.5385131835938 494.92987060546875 533.2512817382812 489.1552734375 534.27392578125 C 490.57745361328125 538.7435913085938 491.5094909667969 541.807373046875 492.2670593261719 544.237060546875"/>
    <path stroke-width="0" fill="rgb(0, 0, 0)" opacity="1.0" d="M 278.06103515625 273.3037414550781 C 268.3982849121094 274.6185302734375 257.76220703125 275.6418762207031 248.72299194335938 274.98931884765625 C 238.88563537597656 274.52862548828125 230.09304809570312 272.85528564453125 222.80674743652344 270.41650390625 C 212.7593231201172 262.7720031738281 210.009033203125 257.58856201171875 209.1205596923828 253.4286346435547 C 218.9175567626953 246.3181915283203 228.83355712890625 238.30763244628906 239.01568603515625 230.7156219482422 C 239.52145385742188 227.17263793945312 246.39688110351562 228.8004913330078 249.27587890625 232.52476501464844 C 256.9613342285156 233.1064453125 265.8360900878906 232.88694763183594 277.140869140625 231.87567138671875 C 285.58868408203125 231.43411254882812 291.62066650390625 233.20550537109375 295.40106201171875 237.22645568847656 C 299.0205078125 241.04385375976562 300.8896789550781 245.79580688476562 300.9717102050781 251.6299591064453 C 300.9184265136719 257.9341125488281 298.7745666503906 262.79217529296875 294.8723449707031 266.3578186035156 C 290.9617614746094 270.12738037109375 285.0436096191406 272.16656494140625 278.06103515625 273.3037414550781M 164.42922973632812 274.03656005859375 C 148.30142211914062 267.473388671875 133.96607971191406 257.83209228515625 128.90000915527344 249.1576385498047 C 131.79534912109375 252.16456604003906 131.4860076904297 256.9510192871094 106.07623291015625 263.30938720703125 C 90.34162139892578 267.5201416015625 101.6311264038086 269.33782958984375 87.14784240722656 266.22430419921875 C 72.87113189697266 268.7499694824219 63.33966827392578 266.527099609375 57.460323333740234 260.8840026855469 C 54.99568557739258 260.75494384765625 53.021034240722656 256.8666076660156 69.18952941894531 245.45260620117188 C 76.09199523925781 239.99615478515625 80.51737976074219 244.36241149902344 97.67150115966797 242.25889587402344 C 95.22525024414062 239.60894775390625 104.80200958251953 242.46392822265625 117.7328109741211 242.3229217529297 C 114.5176773071289 238.4057159423828 125.22520446777344 232.29441833496094 124.72814178466797 237.42648315429688 C 113.39028930664062 239.3561248779297 126.2441635131836 234.95233154296875 136.638671875 222.11619567871094 C 162.6706085205078 222.8668212890625 172.01937866210938 225.9842529296875 167.2121124267578 228.38938903808594 C 168.5866241455078 226.41714477539062 171.79563903808594 231.5765380859375 182.43707275390625 240.31585693359375 C 203.97491455078125 248.59295654296875 217.0174560546875 242.129150390625 225.81207275390625 230.34353637695312 C 227.61126708984375 226.43104553222656 228.2611083984375 220.2264404296875 228.8759307861328 215.35665893554688 C 229.0885467529297 202.2591094970703 209.6537628173828 196.21533203125 209.3531036376953 187.1478729248047 C 223.7670135498047 190.80804443359375 228.23268127441406 202.77491760253906 216.68666076660156 198.33840942382812 C 200.2570343017578 189.9696044921875 195.06581115722656 188.181396484375 185.33436584472656 194.76345825195312 C 177.99514770507812 195.34002685546875 164.6979522705078 204.9818878173828 170.24319458007812 222.9680633544922 C 184.71133422851562 242.99237060546875 192.10231018066406 241.5667724609375 193.46243286132812 246.3587188720703 C 176.13038635253906 239.20651245117188 167.79637145996094 241.3645782470703 153.5558319091797 239.7379608154297 C 125.13159942626953 229.34780883789062 127.92948150634766 232.47251892089844 132.9151611328125 243.669677734375 C 121.14862823486328 247.906982421875 108.3759994506836 250.31216430664062 88.9095687866211 244.21250915527344 C 111.97306060791016 240.90467834472656 128.23963928222656 239.0789794921875 125.25116729736328 219.63552856445312 C 124.29037475585938 202.2589874267578 131.77349853515625 189.757568359375 138.91900634765625 181.3687286376953 C 147.85211181640625 168.30177307128906 158.02906799316406 162.03382873535156 165.14735412597656 158.8650665283203 C 177.0943145751953 152.75498962402344 179.1685028076172 157.25706481933594 187.49697875976562 151.1049041748047 C 211.19532775878906 148.51585388183594 218.1090850830078 151.7521514892578 225.20452880859375 153.8306884765625 C 239.38938903808594 160.61895751953125 249.8047332763672 164.13743591308594 257.578125 172.44485473632812 C 264.72216796875 181.05743408203125 270.3395690917969 185.1539306640625 284.8036193847656 210.1646728515625 C 296.5635986328125 238.82260131835938 288.35626220703125 252.89915466308594 244.6573028564453 243.36109924316406 C 237.87193298339844 255.96255493164062 226.28298950195312 265.93536376953125 247.89366149902344 275.4642639160156 C 196.26852416992188 276.69110107421875 175.96881103515625 277.7089538574219 164.42922973632812 274.03656005859375M 110.38753509521484 213.8363800048828 C 72.65017700195312 177.08218383789062 82.84146881103516 135.6228790283203 118.94540405273438 85.70862579345703 C 89.07510375976562 43.26594924926758 121.94578552246094 46.452152252197266 136.05848693847656 68.84933471679688 C 153.1684112548828 120.66819763183594 103.78241729736328 127.52906799316406 111.43067932128906 173.24005126953125 C 135.8150634765625 218.47494506835938 145.1803741455078 227.27133178710938 110.38753509521484 213.8363800048828"/>
    <path stroke-width="0" fill="rgb(0, 0, 0)" opacity="1.0" d="M 283.0177307128906 272.3900146484375 C 281.28338623046875 258.8229064941406 280.5766906738281 245.59857177734375 279.82086181640625 231.72271728515625 C 292.5968933105469 230.96768188476562 303.5960998535156 231.028076171875 312.1965026855469 231.06588745117188 C 321.40582275390625 230.9705810546875 326.9259033203125 231.0315704345703 333.0301513671875 230.70989990234375 C 339.8850402832031 230.68634033203125 348.5931091308594 230.2939453125 354.05218505859375 229.83901977539062 C 358.16241455078125 229.6431884765625 361.9042053222656 229.08689880371094 362.7124328613281 228.8638153076172 C 363.9858093261719 228.34278869628906 365.73077392578125 226.88067626953125 369.47723388671875 223.79562377929688 C 372.531005859375 221.4178009033203 374.58056640625 218.6899871826172 375.2024230957031 214.97438049316406 C 375.9530029296875 210.614013671875 375.8777770996094 205.4669189453125 375.60784912109375 199.40737915039062 C 376.5351257324219 191.02357482910156 376.83245849609375 184.60305786132812 375.2045593261719 178.7393035888672 C 374.7552795410156 173.0991668701172 371.1496276855469 163.47561645507812 363.5565490722656 157.01258850097656 C 361.9548645019531 155.78768920898438 360.975830078125 155.40550231933594 353.95574951171875 155.2780303955078 C 346.2801818847656 154.5308074951172 342.862060546875 155.1427764892578 334.7852783203125 155.83563232421875 C 350.13330078125 154.9416961669922 347.07958984375 160.57777404785156 344.626953125 166.4650115966797 C 343.6355285644531 168.6534423828125 343.2878112792969 170.54859924316406 343.48394775390625 174.0134735107422 C 342.66888427734375 163.31787109375 348.1761474609375 170.216064453125 348.8476257324219 171.31570434570312 C 353.28997802734375 179.19692993164062 354.1683654785156 179.95352172851562 359.1982727050781 182.1929473876953 C 365.36358642578125 185.23226928710938 352.25469970703125 187.32347106933594 359.1249694824219 186.6868896484375 C 363.1946105957031 186.99307250976562 369.8027038574219 187.58712768554688 372.8091125488281 187.2984619140625 C 377.5509033203125 186.7285919189453 380.8417053222656 186.1095733642578 383.9202880859375 184.99290466308594 C 383.5308837890625 195.18386840820312 383.4854736328125 205.25767517089844 384.27197265625 215.53213500976562 C 381.51385498046875 218.33489990234375 378.2875061035156 220.45166015625 374.3988952636719 221.55941772460938 C 371.9694519042969 226.21278381347656 365.11236572265625 230.40574645996094 357.52557373046875 232.09677124023438 C 357.12408447265625 248.1829833984375 351.9994201660156 247.806884765625 346.4388122558594 246.98106384277344 C 330.218505859375 246.00216674804688 315.4754333496094 241.9365997314453 303.5153503417969 234.94139099121094 C 299.49078369140625 232.4663848876953 295.2377624511719 220.55380249023438 298.98809814453125 193.262451171875 C 296.8205871582031 185.08816528320312 304.25164794921875 195.0519256591797 303.02386474609375 181.1300048828125 C 302.1407165527344 178.17210388183594 304.9092102050781 169.87130737304688 306.7156066894531 162.7780303955078 C 309.1419982910156 154.34654235839844 311.40179443359375 148.98828125 314.91522216796875 142.65953063964844 C 317.5491943359375 135.24485778808594 327.9156799316406 107.86058044433594 328.3968811035156 107.74327850341797 C 334.114013671875 106.71448516845703 337.024658203125 106.23112487792969 356.7651672363281 107.85657501220703 C 378.6192932128906 99.55924987792969 379.0515441894531 99.60843658447266 384.4049987792969 101.68317413330078 C 398.11260986328125 136.11024475097656 401.9507751464844 149.49066162109375 402.8616943359375 165.66551208496094 C 404.8612976074219 177.39710998535156 405.8769226074219 187.48358154296875 406.7501220703125 198.7811737060547 C 407.8331604003906 209.43565368652344 408.3542785644531 216.83770751953125 408.24493408203125 227.1674041748047 C 407.16290283203125 242.60702514648438 400.3817138671875 256.71673583984375 395.2560119628906 260.9143981933594 C 389.4754333496094 265.4875183105469 383.5233154296875 268.6793212890625 374.7715759277344 270.0649719238281 C 367.0076599121094 272.5509033203125 357.8603515625 272.4146423339844 348.4454650878906 272.24407958984375 C 337.5855712890625 274.417724609375 328.6731262207031 275.1618957519531 318.497314453125 274.0782775878906 C 307.443603515625 272.9311828613281 295.8086853027344 271.95013427734375 283.0177307128906 272.3900146484375M 370.2098083496094 94.12506103515625 C 404.5379943847656 81.51018524169922 374.25384521484375 65.82554626464844 352.7703552246094 102.36827850341797 C 359.8303527832031 70.71721649169922 367.9512023925781 69.39109802246094 359.24078369140625 69.57855224609375 C 353.59490966796875 65.72777557373047 376.2071838378906 70.00662994384766 359.3960266113281 67.78752136230469 C 361.68377685546875 54.81584167480469 369.5010986328125 47.61282730102539 375.5836181640625 36.12828063964844 C 383.88409423828125 31.059995651245117 378.3647766113281 47.84748458862305 384.49481201171875 64.8453369140625 C 387.9312744140625 75.2225570678711 392.256103515625 73.3008041381836 389.9676818847656 88.71212768554688 C 433.94940185546875 85.08656311035156 428.02716064453125 73.68094635009766 390.8594970703125 90.69312286376953 C 398.80841064453125 110.06047058105469 395.0338134765625 100.03112030029297 370.2098083496094 94.12506103515625M 318.2583312988281 102.97454071044922 C 288.7737731933594 111.98304748535156 296.0387878417969 116.20281982421875 344.5440979003906 98.00885009765625 C 268.6671447753906 91.35301208496094 312.7259826660156 103.70413970947266 317.1566467285156 96.44243621826172 C 310.79779052734375 59.20359420776367 315.39501953125 37.7379264831543 313.41107177734375 42.13623046875 C 313.4866027832031 47.29399108886719 314.52752685546875 43.07525634765625 315.85198974609375 41.9680061340332 C 325.0233459472656 49.59675598144531 329.4405517578125 55.04262924194336 339.02545166015625 65.86060333251953 C 339.1250915527344 66.15624237060547 329.44024658203125 61.87871170043945 330.5517578125 61.314022064208984 C 347.53009033203125 58.37700653076172 362.91705322265625 50.21384048461914 383.4220886230469 76.62610626220703 C 346.7219543457031 88.84640502929688 332.42352294921875 79.9781265258789 318.2583312988281 102.97454071044922"/>
  </g>
</svg>
