<?xml version="1.0" ?>
<svg xmlns="http://www.w3.org/2000/svg" version="1.1" width="600" height="600">
  <defs/>
  <g>
    <path stroke-width="0" fill="rgb(0, 0, 0)" opacity="1.0" d="M 155.632568359375 399.1145935058594 C 140.9591827392578 399.5594177246094 133.51878356933594 399.67486572265625 128.8572998046875 401.2720642089844 C 118.52159881591797 403.23419189453125 110.39808654785156 406.18402099609375 105.86174011230469 409.3836669921875 C 99.46845245361328 415.0547790527344 93.99974822998047 423.0074768066406 90.73555755615234 429.20611572265625 C 87.06002044677734 436.4519348144531 84.96114349365234 445.05712890625 84.98094177246094 447.4116516113281 C 87.47203063964844 453.77789306640625 89.77674865722656 459.4560852050781 93.26818084716797 464.6869201660156 C 95.5324935913086 469.74530029296875 98.05996704101562 473.9739685058594 102.02482604980469 479.40576171875 C 109.27149200439453 489.06329345703125 118.63233184814453 498.50445556640625 129.86245727539062 506.60467529296875 C 135.99456787109375 512.5067749023438 139.04026794433594 515.0553588867188 141.50363159179688 516.5181884765625 C 145.74476623535156 519.2730102539062 148.62612915039062 520.7322998046875 152.98731994628906 522.06396484375 C 159.4903564453125 523.5106811523438 166.2474822998047 523.4459228515625 173.0596923828125 520.5385131835938 C 179.22122192382812 518.2474365234375 183.28921508789062 517.7791748046875 184.84608459472656 517.2317504882812 C 187.29617309570312 515.9274291992188 189.24478149414062 514.5971069335938 190.7309112548828 513.27685546875 C 192.023193359375 515.6378784179688 194.15902709960938 519.6605224609375 197.80648803710938 528.6295166015625 C 197.79446411132812 533.9989013671875 197.81170654296875 541.0252685546875 197.84384155273438 544.7697143554688 C 194.44509887695312 546.2017211914062 190.44003295898438 547.130615234375 188.20486450195312 547.8392333984375 C 184.03851318359375 549.6369018554688 180.3358612060547 551.1531982421875 173.77230834960938 553.4217529296875 C 166.0901336669922 555.4534912109375 160.90731811523438 555.1893920898438 155.8988800048828 554.2462158203125 C 150.6984405517578 552.8333129882812 146.42176818847656 551.7210083007812 141.84188842773438 550.6674194335938 C 137.0909881591797 549.5433959960938 133.2193145751953 548.0249633789062 128.42788696289062 545.48291015625 C 126.12580108642578 544.8648071289062 122.73426818847656 543.6293334960938 116.89727020263672 541.313232421875 C 110.0234603881836 536.507080078125 105.80591583251953 533.550537109375 101.0926284790039 528.69287109375 C 96.25727844238281 524.8760986328125 90.48147583007812 521.2931518554688 87.8354721069336 516.420166015625 C 82.3833236694336 511.03155517578125 79.27545928955078 507.0541076660156 75.04957580566406 499.9609680175781 C 69.1878662109375 494.4061279296875 65.51385498046875 489.8983459472656 62.5465087890625 484.55352783203125 C 60.39219665527344 480.7867736816406 57.801204681396484 474.465576171875 56.07365036010742 469.6446228027344 C 54.13276290893555 463.2750244140625 53.77950668334961 457.4136962890625 53.52747344970703 452.0880126953125 C 52.55777359008789 446.06536865234375 53.35075759887695 440.1112365722656 54.73691177368164 432.89422607421875 C 55.54008102416992 425.7595520019531 57.47296142578125 420.74322509765625 60.2755126953125 413.90631103515625 C 63.43916320800781 409.2832336425781 66.40055084228516 403.0840148925781 70.0234603881836 398.98052978515625 C 73.16446685791016 395.13861083984375 76.97322845458984 390.8690490722656 82.26780700683594 386.7703552246094 C 88.04935455322266 382.38201904296875 90.39225006103516 379.37945556640625 93.43875885009766 377.5950012207031 C 101.4441146850586 373.1283874511719 105.08341979980469 372.0345458984375 110.31422424316406 369.77569580078125 C 115.4584732055664 367.1570739746094 123.66681671142578 365.5162048339844 132.28956604003906 364.877685546875 C 138.07997131347656 363.9911193847656 144.12730407714844 363.4051208496094 148.25965881347656 362.3259582519531 C 152.15377807617188 361.4320068359375 157.70602416992188 359.56304931640625 162.24916076660156 358.1208190917969 C 167.228515625 357.0772705078125 175.69271850585938 354.4369201660156 179.41053771972656 353.776611328125 C 190.26107788085938 350.3135986328125 197.34962463378906 351.92974853515625 201.34832763671875 355.6768798828125 C 206.55332946777344 361.7737731933594 210.8986053466797 369.41510009765625 216.6172637939453 377.8149108886719 C 206.61827087402344 383.1946716308594 199.20103454589844 386.9103698730469 196.57302856445312 389.0309753417969 C 191.5478973388672 392.9696350097656 188.74069213867188 394.5365295410156 187.6501007080078 395.6917419433594 C 185.9749755859375 393.90106201171875 183.8740997314453 392.1145935058594 180.01954650878906 391.3436584472656 C 177.4803009033203 391.4702453613281 166.95260620117188 393.47528076171875 155.632568359375 399.1145935058594"/>
    <path stroke-width="0" fill="rgb(0, 0, 0)" opacity="1.0" d="M 352.62847900390625 551.3779296875 C 352.3406066894531 547.3352661132812 351.8260803222656 544.716064453125 348.66290283203125 532.83740234375 C 346.07275390625 523.1001586914062 343.6001281738281 516.5104370117188 344.1568603515625 505.6413269042969 C 338.8369445800781 507.0491027832031 335.5096130371094 507.06646728515625 327.9256591796875 508.3021545410156 C 321.0663146972656 508.2048645019531 317.9990234375 508.679443359375 314.982177734375 509.2933044433594 C 306.4734802246094 510.9839782714844 302.87713623046875 511.6664123535156 295.9771423339844 511.4373474121094 C 281.0415954589844 507.5694274902344 276.036376953125 506.4685363769531 274.0174865722656 506.5204162597656 C 272.4882507324219 516.2643432617188 271.7369384765625 518.8534545898438 267.68768310546875 527.2720336914062 C 269.71527099609375 544.1895141601562 268.5914611816406 551.5838012695312 267.3678894042969 558.8880615234375 C 259.289794921875 559.6970825195312 248.6572723388672 560.6187133789062 240.6846923828125 560.6995849609375 C 232.73780822753906 560.05029296875 223.70135498046875 559.8660888671875 215.8719024658203 556.505615234375 C 219.41322326660156 553.3624267578125 224.0408935546875 548.7356567382812 218.96096801757812 545.634033203125 C 220.62774658203125 540.7950439453125 222.22804260253906 538.2109985351562 224.1038360595703 536.2726440429688 C 223.71261596679688 531.5926513671875 224.50209045410156 529.3224487304688 226.51022338867188 523.092529296875 C 226.07986450195312 511.0843505859375 227.20733642578125 507.9053649902344 228.67625427246094 501.9301452636719 C 228.122802734375 499.183349609375 232.6660614013672 492.5894775390625 233.3065643310547 490.8146057128906 C 232.9442596435547 487.55072021484375 233.3878631591797 485.1269226074219 235.35873413085938 479.7356872558594 C 237.52880859375 474.8506164550781 238.69216918945312 471.52813720703125 240.62002563476562 468.1132507324219 C 240.71847534179688 463.1838073730469 241.52655029296875 461.0347900390625 242.16810607910156 455.4079284667969 C 244.18649291992188 451.81597900390625 244.7943572998047 450.29742431640625 246.42396545410156 445.8095397949219 C 247.68374633789062 441.2629699707031 248.8876953125 436.13043212890625 248.99317932128906 432.78460693359375 C 250.77008056640625 427.2855224609375 253.1247100830078 423.0744323730469 255.3657684326172 419.9269104003906 C 256.2836608886719 415.3616943359375 256.60614013671875 412.96661376953125 257.5272521972656 407.550048828125 C 260.1863098144531 402.2213439941406 260.62481689453125 400.0959167480469 261.6560974121094 397.9176330566406 C 262.40081787109375 391.8247985839844 263.6781005859375 385.5513916015625 266.1044616699219 382.5074462890625 C 267.6377258300781 379.6179504394531 268.8453369140625 375.9849853515625 269.8033447265625 372.5705261230469 C 271.83251953125 368.39251708984375 272.22515869140625 364.3930358886719 272.5976257324219 360.3173828125 C 279.1980895996094 358.9941101074219 284.8359375 359.00872802734375 289.1192626953125 359.1537780761719 C 296.7597351074219 358.4871826171875 303.04833984375 358.70477294921875 309.343505859375 359.2650146484375 C 315.0654296875 359.14251708984375 319.70458984375 359.1713562011719 324.4711608886719 360.0557861328125 C 330.3011474609375 360.0181884765625 336.13299560546875 360.3544616699219 342.3699645996094 361.7090148925781 C 342.9855651855469 366.0591125488281 344.061279296875 369.5718688964844 346.22442626953125 373.39202880859375 C 346.705322265625 376.1519470214844 347.0864562988281 383.58416748046875 348.9715881347656 388.97515869140625 C 349.6874084472656 391.4732971191406 350.5268859863281 395.3962707519531 351.04486083984375 397.1012268066406 C 351.9447021484375 401.3638610839844 352.8794250488281 404.35247802734375 354.5107727050781 408.7183837890625 C 355.52886962890625 411.82171630859375 356.6795959472656 416.73162841796875 358.1875305175781 420.5886535644531 C 359.2018737792969 424.3603515625 360.0545349121094 427.2351989746094 361.3053283691406 433.40936279296875 C 362.2552490234375 436.1784973144531 364.04193115234375 441.5040283203125 364.5102233886719 443.8160705566406 C 365.6011047363281 448.6720886230469 366.1287841796875 450.90362548828125 367.5407409667969 455.3544921875 C 368.7590026855469 460.1733703613281 369.7010803222656 463.50537109375 370.8846130371094 469.4254455566406 C 372.3112487792969 474.73822021484375 373.01806640625 477.4547424316406 374.801513671875 483.39013671875 C 378.06781005859375 489.03009033203125 378.8383483886719 492.2731018066406 379.7702941894531 494.55169677734375 C 381.2020263671875 498.79156494140625 381.4101257324219 506.42803955078125 381.4430236816406 508.62286376953125 C 382.5942687988281 512.8895263671875 384.6417236328125 516.7735595703125 385.2183532714844 522.4508056640625 C 384.9787902832031 531.7618408203125 385.7561950683594 533.316162109375 387.2414855957031 536.6258544921875 C 389.3960876464844 541.0632934570312 390.0487365722656 542.9606323242188 390.7384338378906 546.2702026367188 C 390.9565734863281 546.6217651367188 392.3428955078125 547.8964233398438 394.8686218261719 550.1748657226562 C 389.328369140625 552.48681640625 383.3287353515625 552.9675903320312 380.55572509765625 553.588134765625 C 378.65228271484375 554.72119140625 370.8200378417969 556.9380493164062 363.06353759765625 554.658447265625 C 358.63177490234375 553.2919311523438 355.2196350097656 552.3717041015625 352.62847900390625 551.3779296875M 318.6719665527344 436.71112060546875 C 318.84515380859375 432.93896484375 316.0617980957031 428.2061767578125 314.1307678222656 422.63262939453125 C 312.8211669921875 416.8171691894531 311.6484375 412.4444274902344 310.3614807128906 406.9764709472656 C 309.2742004394531 401.01470947265625 307.83551025390625 394.98883056640625 307.6443786621094 390.3359680175781 C 306.6851501464844 394.8307189941406 305.0712585449219 401.064453125 303.3117980957031 406.9559326171875 C 302.1029052734375 411.95733642578125 300.6935119628906 417.7212829589844 299.59423828125 422.4457092285156 C 298.85992431640625 428.3239440917969 297.490966796875 432.45550537109375 296.3135681152344 435.88714599609375 C 295.16876220703125 440.6850280761719 294.27032470703125 446.7977600097656 292.0982666015625 453.2052917480469 C 291.2234191894531 458.8449401855469 290.1622314453125 465.2484130859375 289.4047546386719 469.583740234375 C 295.15887451171875 469.24285888671875 300.8852233886719 469.0705261230469 310.3114929199219 470.1882629394531 C 317.0443420410156 471.1338806152344 323.74163818359375 471.01898193359375 330.5096740722656 470.83953857421875 C 328.7603454589844 464.957275390625 327.02471923828125 459.0583190917969 325.91058349609375 453.30694580078125 C 322.61688232421875 447.24530029296875 319.99298095703125 440.9028625488281 318.6719665527344 436.71112060546875"/>
    <path stroke-width="0" fill="rgb(0, 0, 0)" opacity="1.0" d="M 503.8483581542969 553.4055786132812 C 499.6975402832031 553.7695922851562 495.70355224609375 553.3899536132812 492.4971008300781 552.5556030273438 C 489.3155517578125 552.395751953125 484.0484924316406 553.4282836914062 480.5458984375 553.5558471679688 C 481.47186279296875 551.6016845703125 478.74468994140625 553.5595092773438 476.4895935058594 554.4794311523438 C 471.3035583496094 553.140625 470.78680419921875 553.5462036132812 467.4033508300781 557.0565185546875 C 464.2637023925781 554.0993041992188 462.04656982421875 551.2513427734375 460.90130615234375 545.6223754882812 C 460.31103515625 543.6076049804688 458.8865966796875 540.0451049804688 458.7473449707031 537.6571655273438 C 460.2478942871094 531.4306030273438 460.18389892578125 528.8554077148438 459.84808349609375 527.0588989257812 C 459.5450134277344 523.6726684570312 459.02667236328125 519.4134521484375 459.63128662109375 513.8565063476562 C 460.6376647949219 509.2697448730469 461.24517822265625 507.28143310546875 459.6346435546875 502.7264099121094 C 459.63812255859375 502.0544738769531 459.4748229980469 495.8758544921875 459.4561462402344 492.21453857421875 C 459.4698181152344 488.4041748046875 459.3446960449219 486.8028869628906 459.3366394042969 484.003662109375 C 459.4797668457031 483.0081787109375 459.03167724609375 480.6897277832031 459.1245422363281 478.2504577636719 C 459.4851379394531 471.383544921875 459.2825927734375 470.07958984375 457.8863220214844 465.25579833984375 C 457.65948486328125 463.44287109375 457.347412109375 461.9325866699219 458.6585388183594 458.1951599121094 C 456.74505615234375 452.4340515136719 456.7436218261719 448.4567565917969 456.7263488769531 445.6583557128906 C 456.9870910644531 439.2337341308594 457.19464111328125 437.2735900878906 457.0740051269531 433.6309814453125 C 456.42822265625 430.9774475097656 456.7249755859375 428.0003662109375 456.7240295410156 425.8465576171875 C 457.06951904296875 423.6607360839844 457.51361083984375 421.67803955078125 460.02294921875 413.4223937988281 C 459.29461669921875 408.1578674316406 459.2730407714844 416.0993957519531 457.0478210449219 409.5921630859375 C 457.0005798339844 406.7027893066406 456.5101318359375 402.1206970214844 456.5986633300781 396.61981201171875 C 455.29046630859375 396.8682556152344 451.2322998046875 397.3242492675781 447.0614318847656 398.3917541503906 C 441.16162109375 397.2933654785156 436.19866943359375 397.0791931152344 441.2267761230469 394.98101806640625 C 434.0113830566406 394.894775390625 428.15570068359375 395.74176025390625 420.8084411621094 397.2537536621094 C 416.05609130859375 396.82489013671875 409.0293273925781 393.9697570800781 403.8136901855469 392.80523681640625 C 406.5978088378906 387.193603515625 407.65155029296875 382.7273864746094 405.2671203613281 376.50994873046875 C 407.5968933105469 372.64202880859375 408.8138732910156 366.1405029296875 410.5582275390625 357.8719177246094 C 417.139404296875 360.454833984375 422.3187561035156 361.7200012207031 427.3114318847656 362.0516052246094 C 435.4087829589844 359.24078369140625 439.4471740722656 359.5008239746094 446.181396484375 359.34332275390625 C 449.4593505859375 359.0682067871094 454.6331481933594 359.4056396484375 461.8590393066406 358.86322021484375 C 470.7508850097656 358.98529052734375 476.3918762207031 359.6750183105469 481.48828125 359.0341491699219 C 485.8600769042969 359.2403564453125 493.2396240234375 359.2515563964844 501.34368896484375 359.0085144042969 C 509.74822998046875 359.5335693359375 517.1522216796875 361.36785888671875 519.6264038085938 361.8861999511719 C 522.4696655273438 362.0445251464844 530.3108520507812 362.3062438964844 535.3075561523438 362.25750732421875 C 543.13525390625 363.2574462890625 549.9949340820312 366.2353820800781 554.6629638671875 369.568603515625 C 551.9126586914062 373.2012939453125 550.0067749023438 376.7091369628906 550.0629272460938 377.7352600097656 C 550.6975708007812 379.05706787109375 553.0260009765625 382.91314697265625 556.7584838867188 387.90740966796875 C 552.554443359375 390.86376953125 547.68115234375 393.989990234375 544.6602783203125 395.7827453613281 C 538.2205200195312 396.18817138671875 533.029052734375 396.46435546875 528.9525146484375 397.3582763671875 C 523.2742919921875 397.40643310546875 519.7392578125 397.5544128417969 514.6464233398438 396.9183654785156 C 512.0526123046875 396.5159606933594 507.9886474609375 395.8405456542969 504.22833251953125 395.6808166503906 C 504.11102294921875 398.7087707519531 504.3155822753906 403.763916015625 504.93463134765625 408.26763916015625 C 505.01385498046875 399.9135437011719 507.2469787597656 408.2115478515625 506.5382385253906 417.9725341796875 C 506.9418029785156 423.9983825683594 507.151123046875 429.76922607421875 506.9944152832031 432.847412109375 C 507.1554870605469 435.1431579589844 506.9898986816406 437.9038391113281 506.75799560546875 446.89239501953125 C 506.84771728515625 450.3706359863281 507.00714111328125 452.38604736328125 506.7215881347656 457.1083679199219 C 507.30120849609375 460.6935119628906 506.6380615234375 466.8386535644531 507.1902160644531 472.1421813964844 C 507.1487731933594 475.1071472167969 507.2565612792969 476.82598876953125 507.6518859863281 484.4522399902344 C 506.9494323730469 489.6547546386719 506.89361572265625 493.584228515625 506.55712890625 495.6896667480469 C 506.3160705566406 497.6500244140625 506.2978820800781 499.5589294433594 506.9278564453125 502.5484619140625 C 506.3202209472656 505.5464172363281 505.91241455078125 507.715087890625 506.7145080566406 517.0950927734375 C 506.5276794433594 519.1737670898438 506.7342224121094 522.3197631835938 506.67889404296875 523.4195556640625 C 506.3356018066406 528.1778564453125 506.5688171386719 531.0718994140625 506.1168212890625 536.5791015625 C 505.0773620605469 540.843505859375 504.52655029296875 543.262451171875 503.6927185058594 546.1937866210938 C 503.59375 547.7014770507812 503.5458679199219 550.904541015625 503.8483581542969 553.4055786132812"/>
    <path stroke-width="0" fill="rgb(0, 0, 0)" opacity="1.0" d="M 277.24505615234375 272.09716796875 C 265.76861572265625 273.15875244140625 256.9571533203125 273.3191223144531 247.81204223632812 273.4532775878906 C 237.26295471191406 272.3177795410156 227.78260803222656 271.8755798339844 219.35789489746094 270.3583679199219 C 209.90127563476562 266.977294921875 207.14456176757812 261.56182861328125 207.2669677734375 253.4470672607422 C 217.13848876953125 244.42352294921875 226.04986572265625 235.5406951904297 234.89540100097656 226.58346557617188 C 239.57073974609375 227.48843383789062 246.51573181152344 229.62303161621094 247.35733032226562 226.54898071289062 C 255.95477294921875 227.54739379882812 265.6489562988281 227.81752014160156 277.310546875 227.76551818847656 C 287.42364501953125 228.88975524902344 292.9662780761719 230.72488403320312 296.5580139160156 234.57545471191406 C 300.5051574707031 238.56719970703125 302.3898010253906 243.5471649169922 302.4769287109375 248.72833251953125 C 302.6361083984375 254.60336303710938 300.7019958496094 259.468017578125 296.62750244140625 263.7379150390625 C 292.9817810058594 267.84063720703125 285.54632568359375 271.0736083984375 277.24505615234375 272.09716796875M 154.59146118164062 272.1971130371094 C 143.1048583984375 267.02178955078125 126.72467041015625 268.97637939453125 114.76959228515625 269.6365966796875 C 109.88925170898438 267.0158386230469 106.85699462890625 264.87811279296875 93.71757507324219 263.685546875 C 86.9868392944336 267.1574401855469 82.76353454589844 264.57275390625 74.4507827758789 261.93780517578125 C 59.06604766845703 267.83258056640625 50.32000732421875 267.6556396484375 49.898685455322266 262.5440673828125 C 37.504180908203125 261.8795166015625 35.91285705566406 247.22665405273438 47.74274444580078 241.14027404785156 C 59.88987350463867 236.40728759765625 65.29949188232422 234.32437133789062 71.70079803466797 235.9323272705078 C 88.50714874267578 236.86959838867188 96.60411834716797 236.66973876953125 105.39400482177734 233.8780517578125 C 105.67933654785156 232.78675842285156 112.42953491210938 233.0001220703125 116.85256958007812 232.23068237304688 C 121.59819030761719 233.37095642089844 127.32609558105469 232.3820343017578 137.68235778808594 230.4256591796875 C 149.37498474121094 232.62535095214844 163.4116668701172 231.72052001953125 179.4281005859375 231.1068878173828 C 196.62303161621094 230.23451232910156 206.68182373046875 228.6269073486328 211.7295379638672 230.65553283691406 C 217.61526489257812 234.0733184814453 225.5771026611328 233.11073303222656 229.77114868164062 231.3013458251953 C 229.23666381835938 223.51513671875 230.57373046875 226.9900360107422 230.54461669921875 215.87930297851562 C 225.14761352539062 197.1897735595703 215.99168395996094 198.36636352539062 214.9084014892578 199.76632690429688 C 216.385009765625 195.6605682373047 215.10752868652344 198.3967742919922 212.940673828125 194.26626586914062 C 206.3526611328125 187.17393493652344 201.39251708984375 183.76873779296875 193.79014587402344 188.4378204345703 C 195.4202880859375 196.9644012451172 194.27392578125 196.82131958007812 187.85687255859375 204.54730224609375 C 180.93399047851562 205.9536895751953 179.05035400390625 214.2638702392578 168.5324249267578 216.0643768310547 C 164.61717224121094 221.8026123046875 154.12973022460938 223.00067138671875 142.28665161132812 227.24935913085938 C 126.24077606201172 221.74900817871094 125.75540161132812 227.38099670410156 126.23084259033203 237.28358459472656 C 115.72261047363281 242.42100524902344 101.85224914550781 241.25807189941406 94.09317016601562 247.5056915283203 C 105.06810760498047 236.3152618408203 111.74925231933594 224.35897827148438 116.0459213256836 209.1396484375 C 117.30648040771484 190.8676300048828 125.14189910888672 179.92263793945312 135.67269897460938 174.15179443359375 C 145.28224182128906 164.2677001953125 156.6666259765625 160.1568145751953 165.0029754638672 156.30589294433594 C 178.72682189941406 152.0765838623047 182.2661895751953 152.1218719482422 193.94386291503906 155.2423095703125 C 206.63966369628906 152.7144775390625 216.12762451171875 156.47357177734375 224.93409729003906 162.4612579345703 C 234.0454864501953 166.85235595703125 241.05006408691406 173.7871856689453 248.53810119628906 180.07424926757812 C 257.1606750488281 184.83450317382812 260.5145568847656 195.75204467773438 263.8583679199219 208.70774841308594 C 265.263916015625 223.68569946289062 261.17510986328125 235.0243377685547 241.78689575195312 238.71121215820312 C 234.73870849609375 252.01278686523438 222.70042419433594 264.56707763671875 225.03318786621094 273.85797119140625 C 190.9954833984375 270.3725891113281 168.13192749023438 273.1839294433594 154.59146118164062 272.1971130371094M 102.70515441894531 247.3983917236328 C 104.04704284667969 186.6211395263672 103.63433837890625 128.8651885986328 108.44768524169922 74.72006225585938 C 108.1937255859375 64.94898223876953 120.65613555908203 68.21350860595703 127.34508514404297 73.72583770751953 C 128.27224731445312 99.72169494628906 123.7396240234375 149.38491821289062 121.92822265625 193.5352020263672 C 121.90365600585938 212.00341796875 107.9467544555664 228.50326538085938 102.70515441894531 247.3983917236328"/>
    <path stroke-width="0" fill="rgb(0, 0, 0)" opacity="1.0" d="M 281.8831481933594 271.453369140625 C 280.7950134277344 256.5650329589844 280.61602783203125 242.96441650390625 282.3757019042969 227.73875427246094 C 293.9660339355469 228.31272888183594 304.8659973144531 228.9156951904297 315.06182861328125 230.5773468017578 C 322.20068359375 231.15664672851562 326.1341552734375 230.9373321533203 331.96234130859375 229.9351348876953 C 335.08843994140625 229.9288330078125 339.8470764160156 228.98873901367188 346.2125244140625 227.15316772460938 C 348.7713317871094 226.5939483642578 351.7763671875 225.59933471679688 355.03564453125 224.06764221191406 C 360.9032287597656 221.81385803222656 364.8222351074219 219.240478515625 367.1601867675781 217.19259643554688 C 368.80487060546875 215.18740844726562 370.4001770019531 212.42640686035156 370.9021911621094 208.0453643798828 C 371.6949462890625 202.74615478515625 371.5712890625 196.85409545898438 371.3458557128906 191.8644561767578 C 369.68927001953125 184.45689392089844 368.3842468261719 176.14535522460938 366.86724853515625 171.36837768554688 C 364.9503479003906 165.88229370117188 364.17626953125 164.40321350097656 360.1313171386719 160.70997619628906 C 359.2767639160156 158.06002807617188 358.40264892578125 157.90838623046875 355.0729675292969 158.00875854492188 C 349.8267517089844 158.14068603515625 348.8647766113281 158.27163696289062 347.50421142578125 158.997314453125 C 346.7204284667969 159.3793182373047 342.04730224609375 163.9120330810547 341.2703552246094 165.43783569335938 C 340.5510559082031 166.58200073242188 338.77532958984375 169.22708129882812 339.41754150390625 172.6207733154297 C 339.3688049316406 173.0465850830078 340.66546630859375 174.59786987304688 341.9956359863281 177.16397094726562 C 344.6167907714844 180.29930114746094 345.6817321777344 181.14793395996094 350.6177978515625 183.8291015625 C 352.4255065917969 184.5140838623047 350.986083984375 185.1898651123047 354.73907470703125 183.4783477783203 C 357.0520935058594 187.39898681640625 362.0211486816406 183.9915771484375 365.4445495605469 182.30015563964844 C 369.60797119140625 179.8059844970703 374.1299743652344 178.0105743408203 377.6785888671875 175.95626831054688 C 378.6784973144531 186.78887939453125 380.2135009765625 196.6537628173828 380.802001953125 209.2421417236328 C 376.70111083984375 212.0895538330078 373.78997802734375 213.65269470214844 370.5344543457031 215.09153747558594 C 368.8275146484375 220.8303985595703 359.98590087890625 227.95553588867188 354.24700927734375 230.05679321289062 C 352.8077392578125 230.7545623779297 345.0096435546875 230.85882568359375 338.04119873046875 229.84852600097656 C 329.7436828613281 228.5811004638672 325.9101257324219 227.49099731445312 315.33306884765625 216.7833251953125 C 312.6071472167969 214.60279846191406 309.35870361328125 208.71295166015625 305.33428955078125 203.3843536376953 C 302.5743408203125 196.52565002441406 301.1598205566406 189.76400756835938 301.5255126953125 182.6429443359375 C 302.74627685546875 172.67550659179688 303.1759338378906 170.05836486816406 304.37005615234375 159.94371032714844 C 307.5451354980469 152.80877685546875 310.186279296875 144.8761749267578 312.6532287597656 140.50979614257812 C 315.0138244628906 127.80805969238281 319.44866943359375 111.9642105102539 321.36956787109375 110.140380859375 C 329.4253845214844 110.90606689453125 333.93487548828125 110.75300598144531 353.28912353515625 113.94474792480469 C 375.1958923339844 106.12633514404297 386.3320617675781 108.15772247314453 394.789306640625 116.77298736572266 C 400.133544921875 126.56205749511719 404.6313781738281 136.30226135253906 407.7209167480469 146.4278564453125 C 413.93701171875 157.40350341796875 417.435302734375 170.46466064453125 417.2286071777344 188.60484313964844 C 414.5336608886719 209.0115203857422 408.5765686035156 222.9342803955078 401.9655456542969 231.5763397216797 C 397.1907958984375 240.29583740234375 390.533935546875 246.57376098632812 384.2108459472656 251.5085906982422 C 378.601806640625 254.4430694580078 373.1107177734375 256.8150634765625 368.8674011230469 260.0271911621094 C 361.16229248046875 263.9268493652344 353.6754150390625 265.23785400390625 344.9389343261719 267.8465576171875 C 337.6819763183594 268.4940185546875 329.1251525878906 270.2622375488281 321.1009216308594 269.0526123046875 C 308.57391357421875 267.9420166015625 298.246337890625 268.7568664550781 281.8831481933594 271.453369140625M 374.58819580078125 90.39797973632812 C 372.923095703125 88.4539566040039 361.9762268066406 90.6621322631836 351.4687194824219 89.23200225830078 C 360.2776184082031 72.62664031982422 365.1844787597656 75.90033721923828 368.6675109863281 78.60477447509766 C 365.2264099121094 70.63887023925781 373.74456787109375 71.17532348632812 373.5219421386719 66.8701400756836 C 372.25909423828125 57.30337142944336 377.8651123046875 53.04970169067383 382.67120361328125 47.11491012573242 C 391.4707946777344 36.0055046081543 389.57147216796875 40.7967643737793 392.039794921875 60.34354782104492 C 389.8229064941406 64.4330062866211 388.8145446777344 67.10908508300781 386.99755859375 79.06449127197266 C 401.89007568359375 79.39321899414062 400.8868103027344 78.71073913574219 388.9057922363281 83.24137115478516 C 394.48785400390625 96.80958557128906 388.4221496582031 97.14884185791016 374.58819580078125 90.39797973632812M 322.19793701171875 89.36632537841797 C 309.7536315917969 100.86219787597656 308.0275573730469 99.03063201904297 319.5996398925781 88.05916595458984 C 311.0527648925781 82.25690460205078 315.56988525390625 69.73088836669922 313.521484375 68.66781616210938 C 310.2135009765625 71.172119140625 309.9285583496094 60.63585662841797 311.5727844238281 53.39327621459961 C 310.1365966796875 41.83970260620117 312.8401794433594 40.66101837158203 317.67279052734375 51.01917266845703 C 324.2137451171875 55.866634368896484 327.889404296875 59.7081298828125 330.4178771972656 64.94995880126953 C 332.8326416015625 70.98172760009766 336.7800598144531 73.42684173583984 338.3479309082031 75.89649963378906 C 338.609619140625 78.07953643798828 342.258544921875 76.42317962646484 351.8028259277344 92.25872039794922 C 336.684814453125 87.92923736572266 330.80535888671875 84.28080749511719 322.19793701171875 89.36632537841797"/>
  </g>
</svg>
