<?xml version="1.0" ?>
<svg xmlns="http://www.w3.org/2000/svg" version="1.1" width="600" height="600">
  <defs/>
  <g>
    <path stroke-width="0" fill="rgb(0, 0, 0)" opacity="1.0" d="M 96.28990936279297 558.4385986328125 C 93.24542236328125 558.9036254882812 86.49757385253906 558.9962158203125 81.56199645996094 556.8255004882812 C 74.00312805175781 553.298828125 70.28646850585938 550.8190307617188 67.16414642333984 548.8413696289062 C 70.27037048339844 543.0225219726562 72.41187286376953 538.6886596679688 70.68262481689453 536.3275756835938 C 70.49705505371094 533.7054443359375 70.88186645507812 528.4061889648438 71.63248443603516 523.1390380859375 C 74.19979858398438 524.2556762695312 76.4444580078125 525.09521484375 78.8015365600586 524.9537353515625 C 81.46412658691406 525.796142578125 83.67377471923828 526.6477661132812 88.18373107910156 524.8919067382812 C 93.3106460571289 524.8184204101562 94.92098236083984 524.4667358398438 99.06129455566406 520.9254760742188 C 103.1189193725586 519.2610473632812 109.41585540771484 513.8101806640625 112.6041259765625 506.7198791503906 C 117.61610412597656 501.26715087890625 119.29987335205078 495.38232421875 121.03018188476562 487.5003967285156 C 121.85420989990234 484.7237243652344 123.13330841064453 481.02679443359375 123.8500747680664 477.9537353515625 C 124.05013275146484 482.4664306640625 123.89429473876953 479.87713623046875 123.19393157958984 475.1157531738281 C 122.24340057373047 471.3365478515625 121.95146179199219 467.28692626953125 121.79539489746094 464.77825927734375 C 120.78646087646484 457.3731689453125 120.6087646484375 450.45208740234375 120.74996185302734 456.8416442871094 C 118.9842758178711 449.0169372558594 118.53709411621094 445.6896667480469 118.2890625 442.3979797363281 C 117.60660552978516 439.6784973144531 117.7896957397461 437.50579833984375 118.5543441772461 433.02520751953125 C 118.05693054199219 431.454833984375 117.65794372558594 429.4736633300781 115.8799057006836 426.070068359375 C 115.4426498413086 424.9840087890625 113.10394287109375 420.1085510253906 112.79901885986328 417.32427978515625 C 114.14644622802734 407.2969665527344 114.20194244384766 405.436767578125 113.62125396728516 402.8262939453125 C 111.80845642089844 395.7664794921875 111.23890686035156 388.5946960449219 112.46897888183594 384.1378173828125 C 111.21566009521484 390.6600036621094 110.64887237548828 384.310791015625 110.58056640625 380.6390075683594 C 112.20845031738281 373.7129211425781 114.16035461425781 368.74237060546875 115.04871368408203 365.3188171386719 C 115.12679290771484 361.37554931640625 115.33863830566406 360.0494689941406 117.68831634521484 352.10028076171875 C 118.85507202148438 346.94305419921875 119.65215301513672 344.6309814453125 119.99786376953125 342.00201416015625 C 121.45292663574219 337.9582824707031 121.73112487792969 336.72406005859375 121.83145141601562 334.459228515625 C 125.02460479736328 333.00128173828125 124.32095336914062 330.6282653808594 123.70818328857422 328.76629638671875 C 125.5135269165039 327.9598083496094 127.37752532958984 326.9776611328125 131.2550811767578 326.9432678222656 C 134.67926025390625 327.1136474609375 137.38046264648438 327.3878173828125 140.0615692138672 327.47528076171875 C 142.94931030273438 327.5293884277344 145.7498016357422 327.6403503417969 148.6013946533203 327.6905822753906 C 151.4204864501953 327.7594299316406 154.36318969726562 327.8887939453125 157.46484375 327.9429626464844 C 157.44442749023438 331.1210021972656 157.3007049560547 334.2596130371094 157.27267456054688 337.0434875488281 C 157.1147003173828 340.1827392578125 156.8662567138672 343.3488464355469 156.3118133544922 347.8282775878906 C 154.1020965576172 354.0745849609375 151.85842895507812 359.13079833984375 151.47926330566406 360.1438903808594 C 149.49923706054688 364.15985107421875 149.11080932617188 366.66864013671875 148.84085083007812 368.4132080078125 C 147.6479949951172 373.8622131347656 146.96913146972656 377.15594482421875 146.35459899902344 381.55987548828125 C 145.85252380371094 383.7593994140625 145.89883422851562 386.5064392089844 145.72122192382812 392.945068359375 C 145.27383422851562 395.2709045410156 145.747802734375 400.2362976074219 146.12994384765625 405.0133056640625 C 146.78065490722656 408.0611877441406 147.02931213378906 411.4110412597656 148.9473419189453 417.623291015625 C 148.97422790527344 423.5372619628906 149.21324157714844 424.9442138671875 150.3629913330078 429.69769287109375 C 151.37355041503906 434.23101806640625 152.87521362304688 439.79718017578125 153.00074768066406 444.72369384765625 C 153.56982421875 451.0157470703125 154.46719360351562 455.78570556640625 154.48257446289062 459.3623046875 C 154.6564483642578 463.3670959472656 154.7119140625 465.0077819824219 155.23727416992188 469.4493408203125 C 155.7034149169922 473.8700866699219 155.8625030517578 476.14239501953125 156.6963653564453 481.2412109375 C 155.7701873779297 484.18780517578125 154.34681701660156 488.9013366699219 153.6483612060547 491.97760009765625 C 153.3194580078125 494.61492919921875 152.3771209716797 497.947998046875 151.86260986328125 499.89776611328125 C 151.1091766357422 505.0915222167969 149.78558349609375 509.36077880859375 148.8062286376953 511.5533752441406 C 146.84158325195312 517.3814086914062 142.82225036621094 524.501220703125 141.17913818359375 526.7745971679688 C 139.23104858398438 530.7247314453125 137.34278869628906 533.4696044921875 134.98475646972656 535.8553466796875 C 131.2928009033203 541.0471801757812 129.0865478515625 543.6224975585938 127.47731018066406 544.9558715820312 C 122.74769592285156 549.7425537109375 118.63935852050781 551.6973876953125 114.87185668945312 553.2931518554688 C 109.967529296875 555.9436645507812 102.08367919921875 557.4844360351562 96.28990936279297 558.4385986328125"/>
    <path stroke-width="0" fill="rgb(0, 0, 0)" opacity="1.0" d="M 352.7872619628906 412.32598876953125 C 356.418701171875 418.6376953125 358.1869812011719 426.0388488769531 358.3025817871094 428.49920654296875 C 361.5325927734375 437.5985412597656 361.9649353027344 444.200927734375 359.9566955566406 452.8349914550781 C 358.74652099609375 460.5743408203125 357.5970458984375 466.7553405761719 354.9170837402344 472.3197021484375 C 352.81402587890625 477.2285461425781 350.2776794433594 481.9419860839844 346.8077392578125 486.2540283203125 C 342.8656005859375 490.3634338378906 339.69073486328125 493.4728698730469 334.9047546386719 496.1344909667969 C 326.0374450683594 499.84130859375 318.4451904296875 501.5592956542969 313.8480529785156 501.3423767089844 C 302.8348693847656 500.2948303222656 299.8724060058594 499.32855224609375 293.2439880371094 497.8494567871094 C 288.92669677734375 497.2896728515625 279.3282165527344 496.8748474121094 275.3332824707031 494.769287109375 C 267.62872314453125 494.6416015625 263.63555908203125 494.2687072753906 256.62957763671875 491.7156066894531 C 253.11585998535156 491.2831115722656 247.76036071777344 490.2614440917969 242.12010192871094 488.6134033203125 C 234.3586883544922 487.2751770019531 228.97105407714844 485.77801513671875 223.87937927246094 483.7748107910156 C 216.072509765625 481.05780029296875 213.9103240966797 479.9396057128906 209.44837951660156 476.4270324707031 C 204.6826171875 473.0458984375 201.57369995117188 470.6919250488281 198.03932189941406 466.8180236816406 C 195.8346405029297 464.47991943359375 192.2410125732422 460.2643127441406 189.1692352294922 452.82244873046875 C 185.71482849121094 444.6632995605469 185.51280212402344 437.111083984375 189.10511779785156 427.62847900390625 C 189.81163024902344 420.9811706542969 190.1237030029297 418.7297668457031 193.7515106201172 414.4115905761719 C 193.55978393554688 409.64794921875 193.61148071289062 405.5944519042969 193.86363220214844 398.0524597167969 C 195.2435302734375 396.74786376953125 196.0395965576172 394.11077880859375 197.32916259765625 387.4960632324219 C 200.17034912109375 382.2293701171875 201.3468475341797 376.756103515625 204.51295471191406 368.2332763671875 C 209.56112670898438 360.7535705566406 211.73915100097656 355.2683410644531 214.06768798828125 350.3763122558594 C 219.52540588378906 342.739990234375 225.28652954101562 336.5633544921875 231.9021453857422 331.1778259277344 C 238.8437042236328 326.3045349121094 247.31272888183594 322.16888427734375 256.1888427734375 319.499755859375 C 260.3774719238281 318.212646484375 264.8791198730469 317.2248229980469 268.9019775390625 316.5127258300781 C 272.77899169921875 315.760009765625 277.1861877441406 315.5877685546875 281.47772216796875 316.7435302734375 C 286.25958251953125 317.600830078125 289.638916015625 318.84625244140625 293.4726257324219 320.4287109375 C 298.6730041503906 323.9429931640625 302.5802307128906 326.4259948730469 304.8542175292969 327.49725341796875 C 310.5693359375 331.2744140625 317.1396179199219 336.880859375 321.2826232910156 342.1495666503906 C 324.4080810546875 345.50579833984375 327.06756591796875 348.75408935546875 331.07177734375 355.68841552734375 C 335.16796875 360.9562072753906 337.4267883300781 365.69744873046875 340.1369934082031 371.9883117675781 C 341.62933349609375 375.6956481933594 345.138671875 381.5108337402344 347.8127136230469 388.2516174316406 C 348.3724670410156 390.63134765625 348.1977844238281 395.5498962402344 349.2330322265625 401.7122497558594 C 349.7998352050781 403.8362731933594 352.2642517089844 409.59613037109375 352.7872619628906 412.32598876953125M 222.34176635742188 418.7435607910156 C 220.2777862548828 427.74224853515625 221.05477905273438 422.47943115234375 220.16818237304688 433.6698913574219 C 220.33663940429688 435.783935546875 221.44781494140625 438.4638671875 222.85305786132812 440.59478759765625 C 227.53103637695312 446.0483703613281 232.82296752929688 449.85455322265625 244.5295867919922 453.87762451171875 C 252.82464599609375 455.3204040527344 260.62054443359375 458.3393249511719 264.2767333984375 459.55767822265625 C 269.81085205078125 459.479248046875 275.8189392089844 461.68768310546875 283.24615478515625 462.7508544921875 C 288.7803955078125 464.96112060546875 290.41162109375 465.1098937988281 296.17816162109375 465.6508483886719 C 304.1003112792969 467.0987243652344 309.6479187011719 467.1965637207031 313.903076171875 465.6603698730469 C 319.2889099121094 464.1429443359375 323.0406799316406 460.8057556152344 327.5978088378906 452.0002746582031 C 329.0 448.02008056640625 329.7242431640625 440.2120361328125 329.6057434082031 435.46490478515625 C 328.5833435058594 427.3994140625 328.4493103027344 425.2430114746094 324.8808898925781 415.2734069824219 C 323.3226623535156 406.90020751953125 320.85382080078125 397.2122497558594 317.8746032714844 391.2013854980469 C 314.288818359375 383.52301025390625 310.1683349609375 375.8398132324219 305.6802062988281 369.2743225097656 C 301.17791748046875 363.02093505859375 296.41754150390625 358.1534118652344 290.93707275390625 354.73358154296875 C 285.7440185546875 351.30206298828125 280.6850891113281 349.65753173828125 276.3031921386719 349.0397033691406 C 272.93609619140625 349.1947937011719 270.4378967285156 349.2774353027344 266.7711181640625 349.9897766113281 C 263.9942626953125 350.44024658203125 258.53668212890625 352.2411193847656 253.0077667236328 355.9898681640625 C 246.29232788085938 359.8519592285156 239.026123046875 368.55645751953125 233.50350952148438 380.767333984375 C 230.1728057861328 387.89813232421875 228.7193145751953 392.8389587402344 226.41650390625 399.5711364746094 C 225.1312255859375 404.1398010253906 223.48976135253906 408.7909851074219 222.34176635742188 418.7435607910156"/>
    <path stroke-width="0" fill="rgb(0, 0, 0)" opacity="1.0" d="M 444.5824890136719 393.8957824707031 C 447.0567626953125 387.72735595703125 448.0970458984375 385.8959045410156 449.72686767578125 382.7820739746094 C 450.5669250488281 380.63360595703125 451.4249572753906 379.00634765625 452.97479248046875 376.8211975097656 C 455.356201171875 373.7149353027344 457.37548828125 370.8948669433594 459.36688232421875 366.8333435058594 C 460.8291931152344 364.9384460449219 462.57513427734375 362.63494873046875 464.55950927734375 360.2531433105469 C 465.915771484375 356.89605712890625 467.11199951171875 355.01531982421875 468.6103210449219 352.9300231933594 C 470.07550048828125 350.7330017089844 471.86163330078125 348.5796203613281 473.9082336425781 344.5298767089844 C 474.3760681152344 343.5012512207031 475.5240478515625 340.98388671875 482.5795593261719 338.298583984375 C 482.904541015625 337.0120849609375 485.8835754394531 333.962158203125 485.377197265625 331.7979431152344 C 486.6809387207031 330.03680419921875 488.9525451660156 329.0160827636719 491.98040771484375 327.8245544433594 C 493.3871765136719 327.4160461425781 496.3982238769531 325.7882995605469 496.7996826171875 328.2533874511719 C 504.85455322265625 325.50250244140625 511.3764953613281 326.4117736816406 513.8260498046875 326.0694885253906 C 514.6807861328125 327.1927185058594 515.2845458984375 328.6461181640625 516.127197265625 329.671142578125 C 514.1690063476562 330.0622863769531 512.7825927734375 330.4883117675781 517.3517456054688 333.56695556640625 C 516.7661743164062 336.81817626953125 522.9072265625 352.0583801269531 522.6318969726562 353.79779052734375 C 521.1746215820312 360.3467712402344 520.237060546875 364.5854797363281 519.3042602539062 377.1453857421875 C 518.0507202148438 380.36151123046875 517.3322143554688 381.8507080078125 516.1778564453125 383.6651306152344 C 514.8174438476562 385.7425537109375 513.45361328125 388.4402160644531 512.3892211914062 390.3817443847656 C 510.12109375 399.2366027832031 508.16766357421875 401.9822998046875 505.55828857421875 405.50701904296875 C 502.9266357421875 409.25018310546875 502.1298828125 410.5373229980469 499.6368408203125 414.9145812988281 C 496.82220458984375 418.6683349609375 486.3155517578125 426.5224304199219 473.0639953613281 432.342041015625 C 471.7626953125 434.0502014160156 470.7268371582031 435.3791809082031 470.1889343261719 436.025146484375 C 470.2221374511719 436.4670715332031 470.1196594238281 438.67144775390625 470.1927795410156 445.62091064453125 C 468.92962646484375 451.48834228515625 469.0177917480469 440.2009582519531 469.5707702636719 447.45526123046875 C 469.30706787109375 451.0157165527344 469.438232421875 448.7426452636719 469.6738586425781 459.1058654785156 C 468.9753723144531 467.84246826171875 469.736083984375 459.5885925292969 469.6673889160156 466.7536315917969 C 469.4398498535156 473.74462890625 467.5165100097656 481.2335205078125 467.93939208984375 469.56951904296875 C 467.6258544921875 477.38690185546875 467.7153625488281 481.2564392089844 467.70220947265625 483.4656066894531 C 463.1403503417969 484.7604675292969 464.29486083984375 488.4259033203125 461.4497985839844 488.3825378417969 C 461.7140808105469 490.7005310058594 461.8371887207031 492.8326110839844 462.0396728515625 494.5098876953125 C 459.7217102050781 495.003662109375 457.021240234375 495.5350341796875 455.0515441894531 495.96295166015625 C 454.9518737792969 499.6719055175781 449.1949157714844 499.1575927734375 449.3572692871094 501.6763610839844 C 446.0772705078125 501.67938232421875 446.0511474609375 499.34271240234375 439.5920715332031 499.8959045410156 C 439.9178771972656 497.36993408203125 437.173583984375 497.49859619140625 434.5980529785156 497.4336853027344 C 434.4548034667969 495.44281005859375 434.04742431640625 492.800048828125 433.9341735839844 489.92230224609375 C 429.78790283203125 489.5068359375 428.57489013671875 485.6692810058594 428.33319091796875 482.7425231933594 C 428.6486511230469 482.1769104003906 428.4335021972656 479.7800598144531 427.9882507324219 476.043212890625 C 426.930908203125 469.3841857910156 427.76025390625 468.0162658691406 427.6433410644531 467.4139099121094 C 426.9023742675781 462.65625 427.2943115234375 460.4294128417969 428.2783203125 457.9208984375 C 427.8512878417969 454.10205078125 427.5187072753906 451.5979309082031 427.3928527832031 449.4361267089844 C 427.76776123046875 447.6253967285156 427.3721923828125 445.08612060546875 427.45855712890625 440.38934326171875 C 428.6151123046875 437.838623046875 428.5874938964844 433.285888671875 428.57037353515625 432.8998107910156 C 428.1834411621094 431.7247009277344 427.1660461425781 429.8742370605469 426.3418273925781 428.2052307128906 C 424.5004577636719 424.58648681640625 422.6111755371094 422.4390563964844 421.55755615234375 420.8485107421875 C 419.36322021484375 417.5563659667969 417.3009948730469 414.36663818359375 416.7097473144531 413.1770324707031 C 414.9687805175781 410.32220458984375 414.4597473144531 409.1183776855469 413.16961669921875 405.8464050292969 C 412.2325744628906 404.5210266113281 411.80718994140625 401.4642028808594 410.821044921875 398.8511962890625 C 408.8480529785156 395.3117980957031 408.472900390625 393.571533203125 408.0217590332031 391.3678283691406 C 407.0899353027344 388.5531311035156 406.4562683105469 386.3260192871094 406.10528564453125 385.3262023925781 C 405.39617919921875 383.1571960449219 403.58978271484375 380.1978759765625 402.29705810546875 377.88677978515625 C 401.00372314453125 374.9804382324219 400.8645324707031 373.88885498046875 400.423828125 372.7340393066406 C 399.09014892578125 370.8267822265625 397.4036560058594 368.0380859375 396.20465087890625 366.15185546875 C 393.61688232421875 361.7216491699219 392.0406188964844 358.04742431640625 390.652587890625 355.8310546875 C 389.7998046875 353.69818115234375 388.663330078125 351.312255859375 387.6845397949219 346.3846740722656 C 387.1492614746094 343.2593994140625 386.7618408203125 342.3699035644531 386.3146057128906 341.138427734375 C 385.8542785644531 339.2901916503906 385.19097900390625 337.9924621582031 384.0403137207031 335.98431396484375 C 383.54766845703125 334.69940185546875 383.1621398925781 333.7049255371094 382.5073547363281 332.5418395996094 C 382.0766906738281 331.83380126953125 381.2768859863281 330.6939697265625 380.50067138671875 329.31439208984375 C 382.5284118652344 328.89703369140625 384.64599609375 328.4441223144531 386.06134033203125 328.2647705078125 C 387.9673767089844 328.1626281738281 390.7275390625 327.62542724609375 397.19403076171875 325.56317138671875 C 403.5654296875 325.1529541015625 406.6144104003906 325.2274169921875 408.1205749511719 325.33514404296875 C 408.7966003417969 325.6772766113281 412.45648193359375 327.5874328613281 410.9647521972656 330.92291259765625 C 412.77215576171875 333.56634521484375 416.7258605957031 338.2190856933594 419.28564453125 339.3825988769531 C 420.9684143066406 340.21380615234375 422.5539245605469 344.600830078125 423.2366943359375 347.37103271484375 C 423.4979248046875 348.37298583984375 425.3020935058594 351.2737731933594 427.14007568359375 353.77685546875 C 429.1495361328125 357.4699401855469 431.4046936035156 363.6074523925781 432.1068420410156 365.7740783691406 C 432.80950927734375 368.4097595214844 433.34259033203125 370.18017578125 435.0857238769531 374.01983642578125 C 436.2890930175781 376.9832763671875 437.74755859375 380.0694885253906 438.8608093261719 382.4064636230469 C 440.266845703125 385.28839111328125 442.0343933105469 389.3586120605469 442.32562255859375 390.30096435546875 C 442.9980773925781 391.72442626953125 443.7102355957031 392.5660400390625 444.5824890136719 393.8957824707031"/>
    <path stroke-width="0" fill="rgb(0, 0, 0)" opacity="1.0" d="M 191.27317810058594 345.6153564453125 C 179.3000030517578 345.90863037109375 164.41835021972656 342.8478698730469 153.96412658691406 339.3631286621094 C 144.9659423828125 335.94598388671875 137.62002563476562 331.24896240234375 130.99740600585938 324.8730773925781 C 122.76679992675781 316.6790771484375 115.67073059082031 308.80572509765625 110.69556427001953 299.69061279296875 C 103.82596588134766 292.2220153808594 99.12688446044922 282.1148376464844 96.80052947998047 269.26324462890625 C 95.5896987915039 256.41363525390625 97.47281646728516 244.66033935546875 102.35946655273438 234.01231384277344 C 105.89851379394531 226.6339111328125 110.265869140625 216.62693786621094 117.25651550292969 206.8694610595703 C 120.1020278930664 202.0704803466797 126.42215728759766 193.2362823486328 134.03514099121094 186.14666748046875 C 144.0966339111328 177.4473114013672 157.1123809814453 169.6593780517578 172.08514404296875 165.87869262695312 C 178.603759765625 166.4602508544922 190.44012451171875 167.11666870117188 204.18576049804688 171.1623992919922 C 204.4027099609375 172.31163024902344 204.80848693847656 173.76698303222656 205.42056274414062 175.43399047851562 C 201.91021728515625 173.81459045410156 197.58685302734375 172.43099975585938 190.38275146484375 170.3908233642578 C 182.39938354492188 163.72021484375 176.38278198242188 156.80084228515625 172.37875366210938 151.48110961914062 C 167.81661987304688 147.6620635986328 164.65399169921875 145.60244750976562 162.204833984375 144.65206909179688 C 154.60385131835938 143.79356384277344 152.74513244628906 143.76084899902344 147.90354919433594 146.4569854736328 C 144.3660125732422 148.58251953125 134.1278076171875 155.9744415283203 126.75572967529297 161.32640075683594 C 118.77709197998047 165.8040313720703 113.2039794921875 167.6168670654297 107.7661361694336 169.95179748535156 C 102.22819519042969 155.97866821289062 99.98001098632812 152.5696563720703 104.23731994628906 131.3683624267578 C 106.6059341430664 130.9205322265625 107.48249053955078 130.5701446533203 108.81127166748047 129.7531280517578 C 115.22330474853516 125.28585815429688 117.79499816894531 123.38069152832031 126.05757141113281 115.92394256591797 C 137.59571838378906 108.48370361328125 151.6531524658203 104.19215393066406 163.757080078125 107.1990966796875 C 175.63833618164062 112.21833801269531 185.02215576171875 119.07846069335938 191.37876892089844 129.33212280273438 C 197.19863891601562 140.57920837402344 200.4484100341797 147.23153686523438 203.8201446533203 151.912353515625 C 206.61668395996094 152.8280029296875 208.2488555908203 153.03343200683594 214.56240844726562 153.70309448242188 C 219.18655395507812 154.60963439941406 225.90072631835938 155.4022674560547 228.49671936035156 154.9112091064453 C 232.5692596435547 154.90411376953125 234.59584045410156 154.2312774658203 236.58135986328125 153.3934326171875 C 244.77587890625 163.923828125 247.85165405273438 174.4556884765625 251.48605346679688 183.38717651367188 C 247.984619140625 184.50596618652344 242.7740936279297 186.94876098632812 232.61610412597656 193.7660675048828 C 221.95240783691406 195.82029724121094 210.2619171142578 198.7477264404297 198.62112426757812 200.6813201904297 C 181.81076049804688 203.2007598876953 177.09368896484375 203.96376037597656 174.93084716796875 204.52410888671875 C 167.8707275390625 206.9693145751953 160.5741729736328 211.07460021972656 155.52320861816406 216.2654266357422 C 148.82640075683594 222.0419464111328 141.1243896484375 228.7715301513672 136.03842163085938 236.32130432128906 C 131.40670776367188 244.7474365234375 128.2086944580078 253.7754669189453 128.1106414794922 261.7395324707031 C 129.11814880371094 269.3927917480469 131.63343811035156 275.4039306640625 137.0303955078125 281.9904479980469 C 142.48684692382812 290.1349792480469 151.9828643798828 298.2811584472656 155.2595977783203 300.6231384277344 C 160.27540588378906 304.1770935058594 164.8885040283203 306.428466796875 170.45521545410156 307.4779052734375 C 177.9454345703125 309.365478515625 185.8876495361328 310.1502990722656 191.6670379638672 310.7625427246094 C 203.011474609375 312.9676208496094 211.1942901611328 311.7195739746094 222.07693481445312 306.5631408691406 C 231.2625732421875 301.70013427734375 245.31484985351562 293.5149841308594 254.14683532714844 289.4209289550781 C 258.97320556640625 299.7086486816406 263.0237121582031 308.9716491699219 267.009033203125 320.56231689453125 C 254.1918182373047 328.34344482421875 239.990966796875 334.3306884765625 226.21046447753906 338.6572570800781 C 211.00119018554688 342.99664306640625 198.69349670410156 344.8992919921875 191.27317810058594 345.6153564453125"/>
    <path stroke-width="0" fill="rgb(0, 0, 0)" opacity="1.0" d="M 266.4346923828125 320.8896789550781 C 260.9580383300781 308.1794128417969 257.1648254394531 300.9203796386719 251.1011199951172 290.2167053222656 C 260.76495361328125 286.8149108886719 269.4809875488281 280.3957214355469 280.3118896484375 270.69537353515625 C 289.2705078125 261.6134033203125 296.4217834472656 255.41102600097656 303.71051025390625 247.0365447998047 C 310.69378662109375 241.86502075195312 315.6866760253906 234.93063354492188 319.6202697753906 227.56968688964844 C 322.4557800292969 222.68441772460938 323.88763427734375 218.71566772460938 324.12628173828125 215.94789123535156 C 324.40899658203125 213.16883850097656 319.69427490234375 206.412109375 312.4918212890625 197.13230895996094 C 306.60662841796875 187.11802673339844 308.1509704589844 169.5658721923828 308.84124755859375 161.35743713378906 C 319.1389465332031 162.0212860107422 320.01385498046875 161.8285675048828 327.0234069824219 157.6089630126953 C 329.116455078125 160.6704864501953 331.06414794921875 163.67344665527344 333.0721740722656 166.73941040039062 C 335.7663879394531 171.615478515625 338.0467224121094 176.1425018310547 340.9183349609375 180.31259155273438 C 342.950927734375 183.91624450683594 345.1661682128906 186.63580322265625 347.0672912597656 189.248291015625 C 354.1900634765625 198.199951171875 357.6863098144531 202.9936065673828 363.1261901855469 206.35060119628906 C 368.183837890625 210.06228637695312 373.8849182128906 213.15579223632812 380.8549499511719 214.98397827148438 C 387.41290283203125 216.4585723876953 392.060791015625 218.783203125 393.7432556152344 221.4765167236328 C 396.1099853515625 224.80435180664062 397.24530029296875 228.97398376464844 397.2291564941406 233.0791015625 C 397.5504150390625 238.2522735595703 395.5448303222656 242.97085571289062 391.08453369140625 246.5014190673828 C 386.6346130371094 249.43698120117188 381.1839599609375 250.11099243164062 373.47857666015625 247.8834228515625 C 367.0936584472656 246.26004028320312 361.4185485839844 243.37692260742188 359.1887512207031 241.32315063476562 C 355.40093994140625 239.89364624023438 352.69708251953125 238.35189819335938 349.6898498535156 234.97232055664062 C 347.12005615234375 231.47593688964844 345.7712097167969 227.40960693359375 345.4753112792969 223.01927185058594 C 348.5982666015625 222.34231567382812 351.5265197753906 221.82859802246094 355.4696350097656 221.0831756591797 C 354.6768798828125 229.17816162109375 352.89605712890625 236.7568817138672 348.59063720703125 245.61973571777344 C 344.6641845703125 252.9062042236328 338.89056396484375 260.1608581542969 331.79168701171875 266.75604248046875 C 326.00567626953125 273.7210388183594 318.291748046875 281.78460693359375 308.7457275390625 290.2480773925781 C 298.5472106933594 301.0361328125 282.4015197753906 313.8041687011719 266.4346923828125 320.8896789550781"/>
    <path stroke-width="0" fill="rgb(0, 0, 0)" opacity="1.0" d="M 376.7063903808594 249.34176635742188 C 379.7391357421875 238.01084899902344 380.3966979980469 226.9923858642578 382.77313232421875 215.5549774169922 C 392.7550354003906 216.58865356445312 400.0847473144531 218.55593872070312 404.4905700683594 219.30140686035156 C 410.9624938964844 218.39291381835938 418.2881774902344 215.15281677246094 423.03790283203125 213.63568115234375 C 427.24853515625 211.38429260253906 429.8387145996094 210.04966735839844 433.9282531738281 208.23468017578125 C 438.74298095703125 206.30043029785156 442.78814697265625 205.09666442871094 444.4134826660156 204.3850555419922 C 449.529052734375 202.6463165283203 453.8626708984375 199.8564453125 455.2306823730469 198.86456298828125 C 458.6323547363281 197.86402893066406 458.7406311035156 194.3587188720703 458.83099365234375 190.20343017578125 C 459.314453125 186.04505920410156 459.5132751464844 180.9206085205078 458.8909912109375 174.7572479248047 C 458.24993896484375 166.8115997314453 456.7866516113281 159.51808166503906 455.81036376953125 153.59030151367188 C 455.4324035644531 148.91773986816406 453.3848876953125 145.74209594726562 452.2250671386719 144.20619201660156 C 450.5244140625 141.99462890625 448.14312744140625 140.7624053955078 447.3617858886719 140.89479064941406 C 444.8988952636719 141.22560119628906 442.3912048339844 142.0753936767578 440.2837829589844 143.90875244140625 C 438.911376953125 144.84219360351562 437.4393615722656 147.7611083984375 436.71893310546875 150.1514892578125 C 435.1106872558594 154.1929473876953 434.021484375 157.71908569335938 434.62518310546875 151.1869354248047 C 434.8833923339844 152.93499755859375 435.7393493652344 157.8017120361328 437.65655517578125 161.2482452392578 C 439.5420227050781 164.16558837890625 440.5786437988281 165.1852569580078 441.5795593261719 165.51708984375 C 442.04803466796875 165.66700744628906 443.4483642578125 166.1104278564453 443.44061279296875 166.80404663085938 C 445.4070739746094 166.7405548095703 450.2571105957031 165.5519561767578 453.5164489746094 164.3680877685547 C 457.1853942871094 162.8082733154297 461.09234619140625 161.39569091796875 464.6039123535156 160.05966186523438 C 464.7935485839844 170.25521850585938 465.6240539550781 180.74349975585938 466.3048095703125 191.18040466308594 C 463.7265930175781 193.29539489746094 461.3173522949219 195.01904296875 459.0869445800781 197.45252990722656 C 456.591552734375 200.4253692626953 449.46978759765625 206.47230529785156 442.9957580566406 209.01068115234375 C 438.0171813964844 209.6416015625 434.5873718261719 209.59756469726562 430.45703125 208.7978973388672 C 425.4501037597656 207.72967529296875 422.789306640625 206.76150512695312 414.79840087890625 200.18836975097656 C 411.6646728515625 198.5697784423828 408.43218994140625 186.6687774658203 404.3641052246094 179.8798065185547 C 401.667724609375 175.9046173095703 399.70135498046875 169.0142822265625 399.1623229980469 163.59019470214844 C 398.7406921386719 155.307373046875 399.1029357910156 151.97158813476562 400.1082763671875 144.68060302734375 C 401.4405212402344 139.9205322265625 403.845703125 134.68653869628906 407.5738220214844 128.52825927734375 C 412.3207092285156 118.82772827148438 418.4436340332031 112.36054992675781 423.7948303222656 108.37454223632812 C 432.8125 102.70012664794922 440.6589660644531 100.61628723144531 444.6096496582031 100.26390838623047 C 456.5126647949219 102.16297912597656 466.9438171386719 106.89859008789062 474.3188171386719 116.32647705078125 C 479.8556213378906 121.2591781616211 485.0175476074219 130.24392700195312 489.126220703125 139.15185546875 C 494.0411071777344 149.27671813964844 496.94403076171875 162.29428100585938 496.521728515625 176.2718963623047 C 495.04290771484375 189.29197692871094 490.6766662597656 200.5468292236328 486.4952697753906 207.2406463623047 C 483.2745361328125 214.5297088623047 476.48870849609375 222.7590789794922 470.35968017578125 226.51873779296875 C 466.110595703125 229.94900512695312 461.3712463378906 232.68759155273438 457.2493896484375 234.2877655029297 C 452.8588562011719 236.74061584472656 449.04949951171875 237.996337890625 444.52374267578125 239.85879516601562 C 438.4498596191406 243.2905731201172 430.38916015625 247.51087951660156 416.31085205078125 251.87022399902344 C 404.53692626953125 253.1027069091797 390.9302978515625 252.7799835205078 376.7063903808594 249.34176635742188M 433.6153564453125 72.36375427246094 C 427.60205078125 78.53892517089844 426.8179626464844 73.73932647705078 421.8496398925781 76.48593139648438 C 415.8726501464844 79.61840057373047 404.1549072265625 74.77435302734375 420.8474426269531 57.07757568359375 C 414.9056701660156 54.24126052856445 418.4842834472656 60.44295883178711 431.0575866699219 47.66128158569336 C 440.5505676269531 49.72846221923828 448.8356628417969 50.26823425292969 439.9804382324219 48.58515167236328 C 442.94384765625 51.291866302490234 437.1554260253906 51.89317321777344 445.8341064453125 52.20286560058594 C 454.9697265625 58.90732955932617 464.144775390625 63.141937255859375 467.44964599609375 72.5541763305664 C 472.06854248046875 79.22197723388672 473.9743347167969 86.62510681152344 464.5626525878906 88.48160552978516 C 446.23272705078125 81.4784164428711 445.0981140136719 71.53181457519531 433.6153564453125 72.36375427246094"/>
  </g>
</svg>
