<?xml version="1.0" ?>
<svg xmlns="http://www.w3.org/2000/svg" version="1.1" width="600" height="600">
  <defs/>
  <g>
    <path stroke-width="0" fill="rgb(0, 0, 0)" opacity="1.0" d="M 97.3548812866211 561.212646484375 C 94.39175415039062 561.4672241210938 87.39299774169922 561.0706787109375 80.99895477294922 556.796875 C 81.07363891601562 549.0172729492188 78.89628601074219 548.60986328125 76.48165893554688 548.289794921875 C 75.52845001220703 542.4877319335938 77.79055786132812 538.6303100585938 75.5880126953125 537.647705078125 C 76.64616394042969 532.366455078125 77.68411254882812 527.8099975585938 78.53047180175781 524.03662109375 C 80.19573974609375 524.6727294921875 81.79573822021484 525.1353759765625 84.57946014404297 526.2240600585938 C 87.88961791992188 527.565673828125 90.52188873291016 528.2408447265625 93.10369110107422 528.4270629882812 C 96.34133911132812 528.1286010742188 97.73584747314453 527.7434692382812 101.75944519042969 525.2886352539062 C 105.8605728149414 521.91796875 112.931396484375 516.0565795898438 115.71711730957031 512.1620483398438 C 120.41548919677734 507.03564453125 123.36043548583984 500.4407653808594 125.31370544433594 493.00799560546875 C 126.39192962646484 487.29876708984375 128.11964416503906 482.2942199707031 129.09576416015625 478.58056640625 C 129.2089385986328 482.6516418457031 128.9177703857422 478.0211486816406 128.719482421875 474.69635009765625 C 128.4668731689453 473.7008972167969 127.89952850341797 471.7794494628906 126.065673828125 466.672119140625 C 125.07390594482422 464.09539794921875 124.70747375488281 462.3931884765625 127.06982421875 469.6877136230469 C 121.13831329345703 464.55816650390625 118.26111602783203 460.3946228027344 115.63139343261719 456.0209045410156 C 113.40999603271484 451.42962646484375 112.34733581542969 448.3134460449219 111.57231140136719 443.8759765625 C 110.07095336914062 438.62396240234375 109.04933166503906 434.6146545410156 108.99254608154297 431.1817321777344 C 109.0475082397461 420.8818359375 109.05692291259766 417.149169921875 108.6614761352539 411.37591552734375 C 109.0231704711914 405.5488586425781 109.27008819580078 399.36468505859375 110.09180450439453 394.24212646484375 C 110.22774505615234 390.8171691894531 110.10343933105469 387.2874755859375 110.66156768798828 382.3398742675781 C 109.95258331298828 391.77044677734375 109.46429443359375 387.395751953125 109.41756439208984 382.7113342285156 C 111.75674438476562 375.560302734375 113.70687103271484 369.3098449707031 116.29055786132812 364.1873474121094 C 118.92627716064453 358.2268371582031 121.37583923339844 353.2373046875 123.3807144165039 348.699951171875 C 123.54219818115234 347.8057861328125 123.63422393798828 347.403564453125 123.7071533203125 342.8053894042969 C 123.83638763427734 341.8687438964844 129.20590209960938 344.7308044433594 128.31771850585938 342.17877197265625 C 128.88201904296875 340.37872314453125 133.8293914794922 337.95306396484375 131.6314239501953 334.4629211425781 C 135.5563507080078 331.9264831542969 140.89053344726562 332.9620056152344 140.0503387451172 326.0372619628906 C 144.0349578857422 325.5654296875 146.32557678222656 325.4341125488281 148.48304748535156 325.14849853515625 C 151.09153747558594 324.9049377441406 153.60360717773438 324.7666931152344 155.97227478027344 324.6961669921875 C 158.82437133789062 324.674560546875 161.3746337890625 324.6640319824219 163.808349609375 324.6225280761719 C 163.8855743408203 327.0183410644531 163.98753356933594 329.6342468261719 164.014892578125 332.2656555175781 C 163.9539337158203 335.19482421875 163.91673278808594 338.2023010253906 163.29197692871094 342.350341796875 C 160.98358154296875 348.8421936035156 158.0628204345703 354.2890930175781 155.4243621826172 358.58709716796875 C 150.66387939453125 366.1977233886719 147.2633514404297 371.8690490722656 145.11302185058594 375.59625244140625 C 143.35435485839844 379.6253967285156 142.09173583984375 382.94580078125 140.8842315673828 387.5791015625 C 141.300048828125 384.8089904785156 141.354248046875 389.9831237792969 140.916015625 386.46942138671875 C 138.88954162597656 393.6767272949219 137.58023071289062 401.25042724609375 136.8760223388672 410.9095458984375 C 136.66110229492188 413.07861328125 136.52195739746094 418.4894104003906 136.0017547607422 424.6247863769531 C 137.19479370117188 429.6759948730469 137.67626953125 433.0176086425781 138.41754150390625 436.2745666503906 C 139.3568572998047 439.05230712890625 141.12979125976562 442.6991271972656 144.00062561035156 446.4653625488281 C 153.3225555419922 454.3909606933594 153.69581604003906 455.9588928222656 154.2112274169922 457.9358825683594 C 154.4075927734375 458.6132507324219 156.11367797851562 463.0137939453125 157.88589477539062 467.5370788574219 C 158.377197265625 472.6208801269531 158.3858184814453 477.3546447753906 158.53988647460938 479.95062255859375 C 157.09056091308594 485.76031494140625 155.99835205078125 489.7579650878906 154.11383056640625 494.4009704589844 C 153.24899291992188 498.78662109375 152.36972045898438 502.4471130371094 151.90110778808594 504.4378356933594 C 151.1132354736328 507.7416687011719 150.2197723388672 510.8101806640625 148.70718383789062 514.4052124023438 C 146.76144409179688 520.0745239257812 144.17652893066406 525.0394897460938 141.148193359375 529.6687622070312 C 138.9961700439453 533.23681640625 137.09588623046875 535.685791015625 134.32785034179688 538.4863891601562 C 131.98944091796875 542.0493774414062 130.4656524658203 543.458251953125 129.2642364501953 544.3379516601562 C 125.04502868652344 549.5513916015625 120.0159683227539 552.6589965820312 115.80908203125 554.7657470703125 C 109.87030792236328 557.6680908203125 102.18122100830078 560.6846923828125 97.3548812866211 561.212646484375"/>
    <path stroke-width="0" fill="rgb(0, 0, 0)" opacity="1.0" d="M 354.2836608886719 418.45013427734375 C 357.61737060546875 425.3574523925781 358.6528625488281 430.0580749511719 358.3509826660156 436.7953796386719 C 359.83251953125 440.15826416015625 359.2496032714844 443.5996398925781 358.77813720703125 451.2486572265625 C 358.29974365234375 459.84844970703125 356.20819091796875 468.33477783203125 353.7023010253906 472.22808837890625 C 350.3142395019531 476.9921569824219 346.8425598144531 480.79913330078125 341.7867126464844 484.28662109375 C 338.2608947753906 486.8572998046875 333.4552001953125 489.3947448730469 327.3140869140625 491.1717834472656 C 322.4490966796875 492.62847900390625 318.4231262207031 494.8717346191406 313.5406799316406 496.2932434082031 C 308.2430114746094 497.20220947265625 306.6200866699219 497.17352294921875 300.3441467285156 495.684326171875 C 294.1751708984375 494.8770751953125 287.3652648925781 494.7234802246094 280.11370849609375 493.9536437988281 C 273.8573303222656 494.36517333984375 265.6221923828125 494.29278564453125 258.11383056640625 494.99615478515625 C 250.28460693359375 494.102783203125 246.88243103027344 493.6444091796875 241.3741455078125 492.8810729980469 C 233.92616271972656 491.6167907714844 226.16036987304688 490.8211975097656 219.7211151123047 489.7133483886719 C 212.66311645507812 487.6911315917969 209.3024444580078 485.98052978515625 204.50152587890625 483.3642883300781 C 200.22010803222656 479.99908447265625 197.63168334960938 477.1906433105469 194.740234375 471.94781494140625 C 192.8595428466797 467.8583984375 191.06442260742188 464.4573669433594 189.72817993164062 455.7450256347656 C 188.8419189453125 451.62872314453125 189.07205200195312 446.72235107421875 190.3923797607422 437.500244140625 C 190.80203247070312 432.0832214355469 191.09478759765625 426.2500915527344 193.3448486328125 418.5787353515625 C 194.51419067382812 412.9961242675781 194.576904296875 409.8506774902344 195.7656707763672 405.76947021484375 C 197.12925720214844 399.4721374511719 198.67593383789062 395.3773498535156 200.65493774414062 390.1236572265625 C 203.27105712890625 382.1102600097656 207.05970764160156 375.42694091796875 210.1212921142578 369.91998291015625 C 213.89187622070312 361.7094421386719 217.06353759765625 355.2767028808594 221.66213989257812 349.73736572265625 C 228.41510009765625 340.537841796875 233.602783203125 336.6879577636719 238.5325164794922 333.4300537109375 C 243.88922119140625 329.83685302734375 250.54833984375 326.6917724609375 258.1811828613281 325.0007019042969 C 262.0521240234375 324.249755859375 266.595703125 323.85015869140625 270.8002624511719 324.19232177734375 C 274.6751708984375 324.3230285644531 278.0669250488281 324.6255187988281 281.5213317871094 325.32000732421875 C 285.4231262207031 326.11700439453125 287.8652648925781 326.6992492675781 291.8143310546875 328.2153015136719 C 295.48150634765625 329.61822509765625 299.8813781738281 331.0661315917969 301.9954833984375 331.92803955078125 C 308.3505859375 335.2838439941406 315.0308532714844 340.4906921386719 319.7278137207031 344.74578857421875 C 324.3726501464844 349.1211853027344 326.28131103515625 351.3631896972656 330.4681396484375 357.784912109375 C 333.2164001464844 361.75946044921875 334.6791076660156 364.6815490722656 338.01806640625 371.2248229980469 C 340.4045715332031 376.29742431640625 343.4791259765625 382.5057678222656 345.4122619628906 389.3018798828125 C 347.2340393066406 394.3835754394531 348.337890625 397.9508361816406 349.8901672363281 403.466064453125 C 351.1440124511719 407.63433837890625 352.6700134277344 412.1299133300781 354.2836608886719 418.45013427734375M 221.4416046142578 422.3135986328125 C 219.45843505859375 434.1357116699219 219.9799346923828 431.4052429199219 218.3009033203125 442.6511535644531 C 218.44398498535156 444.492919921875 219.69921875 447.8663635253906 220.5498809814453 449.202880859375 C 224.0618133544922 456.0144348144531 228.32725524902344 458.99658203125 235.32598876953125 460.6629943847656 C 241.8767547607422 461.70465087890625 251.697998046875 461.4418640136719 256.6192932128906 460.859619140625 C 263.9971008300781 461.0723876953125 275.3892822265625 462.42529296875 284.1943359375 462.8604431152344 C 287.3094177246094 462.93939208984375 294.73126220703125 462.6310729980469 300.376708984375 463.3387451171875 C 304.5018310546875 463.2060546875 306.2877502441406 462.95599365234375 313.2813415527344 462.4363098144531 C 319.06732177734375 460.67950439453125 324.13494873046875 456.58587646484375 326.4286193847656 451.7054748535156 C 328.20751953125 445.642822265625 329.2438049316406 439.6986389160156 329.25030517578125 441.6758728027344 C 329.2872314453125 434.7763977050781 329.067626953125 431.1224670410156 325.50518798828125 421.0684814453125 C 321.1119384765625 410.6280212402344 317.7013854980469 400.1044921875 315.4163513183594 393.5680236816406 C 312.3684997558594 384.8205261230469 307.8746032714844 377.2838134765625 303.59869384765625 371.5002746582031 C 300.1165466308594 366.9385070800781 295.7324523925781 362.2970886230469 289.7218933105469 359.6715393066406 C 286.1300964355469 357.75 281.3979797363281 356.2481689453125 277.1867980957031 355.719970703125 C 275.0511779785156 355.2977600097656 272.8299255371094 355.5044250488281 270.6452331542969 356.25933837890625 C 267.36822509765625 357.22296142578125 263.8519287109375 358.5447082519531 259.1352844238281 361.53973388671875 C 250.68824768066406 364.268310546875 242.15077209472656 371.07403564453125 236.25514221191406 379.7723388671875 C 231.23341369628906 387.96380615234375 228.79885864257812 393.8642883300781 226.74429321289062 400.8780517578125 C 223.81280517578125 409.0838928222656 223.2495574951172 412.84527587890625 221.4416046142578 422.3135986328125"/>
    <path stroke-width="0" fill="rgb(0, 0, 0)" opacity="1.0" d="M 450.557861328125 395.9807434082031 C 453.2130432128906 393.0509033203125 453.7859191894531 392.05914306640625 455.8439636230469 389.1897888183594 C 457.1851501464844 387.44964599609375 457.9290466308594 386.63592529296875 459.1108703613281 385.3288269042969 C 467.26934814453125 378.7188720703125 469.8834533691406 377.3531188964844 471.3299560546875 375.735107421875 C 472.8338317871094 373.99420166015625 473.68365478515625 372.68701171875 476.8428039550781 369.876708984375 C 477.2405700683594 369.1850891113281 477.6383056640625 368.3125 477.44287109375 363.8564453125 C 480.0054016113281 361.523193359375 480.39544677734375 360.6953125 479.29522705078125 356.8130798339844 C 479.9591064453125 350.6858215332031 481.6021423339844 347.4091491699219 480.6302185058594 343.829345703125 C 479.27099609375 340.1336669921875 480.6236877441406 337.1081848144531 481.31182861328125 335.34722900390625 C 483.7403869628906 335.01934814453125 483.62738037109375 327.7565002441406 486.7703552246094 324.8663024902344 C 490.1614685058594 324.5061950683594 490.5576171875 324.4844665527344 488.06219482421875 327.952880859375 C 488.36114501953125 327.9229431152344 490.3597717285156 326.23046875 493.39617919921875 323.88037109375 C 498.9273376464844 323.8952331542969 503.5568542480469 324.9483337402344 507.655029296875 326.2683410644531 C 503.8583679199219 330.1783142089844 500.6080322265625 334.8016357421875 508.1253967285156 333.60638427734375 C 509.37744140625 342.4666748046875 508.3274841308594 354.7056579589844 512.7666015625 354.489990234375 C 512.624267578125 355.11279296875 511.2643127441406 361.834228515625 510.1488037109375 366.36944580078125 C 509.1861572265625 371.97540283203125 508.4696044921875 373.8621826171875 507.0899963378906 378.1212158203125 C 505.6548156738281 384.6089782714844 503.91656494140625 388.25115966796875 501.39892578125 391.8048400878906 C 497.05633544921875 397.3058776855469 493.63873291015625 400.68359375 488.45428466796875 405.7862243652344 C 485.8505859375 408.1346740722656 484.5961608886719 409.2275695800781 483.74908447265625 410.2130126953125 C 479.4626159667969 413.6121520996094 466.7254638671875 421.4576110839844 461.19873046875 423.9566955566406 C 458.94403076171875 425.5301208496094 454.1509094238281 429.47991943359375 461.98748779296875 431.7295837402344 C 461.8871154785156 433.0155029296875 462.3143615722656 428.451171875 462.5123596191406 435.1382141113281 C 462.6810302734375 440.17254638671875 462.2304992675781 435.6200256347656 463.5517578125 441.2304992675781 C 463.81182861328125 449.8079833984375 463.591796875 447.5085144042969 463.0213623046875 454.7319030761719 C 462.40478515625 461.458984375 462.3766174316406 459.304931640625 460.04071044921875 467.6334228515625 C 460.28875732421875 478.05377197265625 456.5768737792969 489.7047119140625 460.9967346191406 475.5391845703125 C 461.2483215332031 484.7651672363281 459.90740966796875 476.0515441894531 457.93072509765625 476.4557800292969 C 455.9743957519531 477.433837890625 457.968505859375 482.3972473144531 453.74951171875 482.4684753417969 C 453.54931640625 485.276123046875 453.2195129394531 487.40899658203125 452.81964111328125 489.605712890625 C 450.3469543457031 489.1701965332031 447.4642333984375 488.72406005859375 447.6607971191406 491.6441955566406 C 447.908935546875 496.58514404296875 443.9806213378906 497.4546203613281 444.8167419433594 501.9526672363281 C 444.4127197265625 501.33001708984375 443.3025817871094 499.72216796875 440.19989013671875 502.8302001953125 C 438.1688537597656 500.8789978027344 437.3661804199219 502.8899230957031 436.0102844238281 508.5994567871094 C 431.1666564941406 507.455322265625 426.1258544921875 506.0303039550781 421.6058654785156 502.67864990234375 C 419.7543640136719 499.8327941894531 418.5536193847656 498.41357421875 417.46820068359375 497.1266784667969 C 414.84527587890625 490.0246887207031 414.501953125 489.40167236328125 418.94903564453125 478.52203369140625 C 419.052978515625 477.4228820800781 429.67864990234375 467.7711181640625 430.93487548828125 465.5995788574219 C 432.5870666503906 460.0429992675781 432.687744140625 457.560791015625 432.7640686035156 455.179931640625 C 431.85748291015625 450.8921203613281 431.6820983886719 449.58319091796875 432.23773193359375 445.94378662109375 C 432.0843811035156 443.36480712890625 430.97882080078125 440.9417724609375 430.6981506347656 438.472412109375 C 430.0547790527344 435.7464294433594 429.79132080078125 430.3324890136719 429.87994384765625 429.1268615722656 C 427.7567138671875 424.70562744140625 426.9066162109375 422.43817138671875 426.041259765625 420.18603515625 C 425.0877990722656 416.2902526855469 424.55206298828125 414.85614013671875 423.60223388671875 411.76531982421875 C 422.86077880859375 407.88507080078125 421.0135803222656 401.1665344238281 422.3746337890625 406.0569763183594 C 420.8294982910156 403.27752685546875 418.60699462890625 397.3547058105469 417.0747375488281 392.0896301269531 C 415.7999267578125 389.5678405761719 415.3259582519531 387.3152770996094 415.068603515625 383.17596435546875 C 415.4691467285156 388.8778381347656 415.0965270996094 387.6747741699219 414.6056823730469 385.5421142578125 C 413.92425537109375 384.26007080078125 412.8143005371094 382.337158203125 411.4833068847656 379.8145751953125 C 410.8529052734375 378.87286376953125 409.03240966796875 376.800537109375 408.015380859375 375.22747802734375 C 406.6012878417969 373.3167724609375 406.1627197265625 372.5655822753906 405.0723571777344 370.6352844238281 C 403.6889953613281 369.0878601074219 402.07781982421875 367.7189636230469 399.3352355957031 364.70379638671875 C 398.0755615234375 363.34136962890625 396.4089050292969 361.4058532714844 394.0423583984375 359.2231750488281 C 392.84326171875 358.2930908203125 377.67840576171875 352.2215881347656 379.9078369140625 351.7333984375 C 377.0716247558594 350.03204345703125 378.8884582519531 350.0738830566406 376.55389404296875 347.2313232421875 C 375.32867431640625 344.92803955078125 377.84466552734375 346.1694641113281 375.8382263183594 345.4576110839844 C 373.88629150390625 344.37237548828125 370.036865234375 343.0877990722656 366.6910705566406 342.2919616699219 C 358.6464538574219 341.24365234375 349.3203125 335.9831237792969 344.4739685058594 333.89154052734375 C 352.2879333496094 321.9443359375 358.2701721191406 317.2818908691406 365.8115539550781 313.19000244140625 C 373.37371826171875 310.45361328125 394.69775390625 322.6629943847656 395.8848571777344 322.8195495605469 C 398.97955322265625 323.34600830078125 399.17041015625 322.95208740234375 400.8330078125 323.21337890625 C 403.388671875 329.0913391113281 408.16650390625 329.4852600097656 408.3360595703125 331.91290283203125 C 410.43133544921875 332.8640441894531 412.4549560546875 334.14373779296875 412.9028015136719 334.4602966308594 C 413.4234313964844 334.75946044921875 415.5584411621094 336.97198486328125 417.5151062011719 339.041015625 C 420.4970397949219 341.4565734863281 422.7440185546875 343.8182067871094 425.8194580078125 347.0470886230469 C 428.50732421875 349.5499572753906 431.68133544921875 352.6283874511719 434.0982360839844 356.36456298828125 C 435.829833984375 359.0343933105469 437.0788269042969 361.3695983886719 440.1488342285156 365.24853515625 C 441.5566101074219 367.3951721191406 443.3970642089844 370.26971435546875 445.7259216308594 375.9964904785156 C 447.07672119140625 381.0436706542969 447.1424560546875 382.075927734375 447.3704528808594 384.0414733886719 C 447.459716796875 385.53912353515625 448.7378845214844 389.49981689453125 450.557861328125 395.9807434082031"/>
    <path stroke-width="0" fill="rgb(0, 0, 0)" opacity="1.0" d="M 196.91253662109375 340.92816162109375 C 183.92752075195312 339.5216064453125 170.19967651367188 337.2394104003906 161.02828979492188 334.6426696777344 C 153.37689208984375 331.6951599121094 147.0086212158203 328.3728942871094 139.8707275390625 323.58355712890625 C 131.28659057617188 316.3309020996094 122.09028625488281 307.7424011230469 116.35860443115234 298.8275146484375 C 109.23712921142578 290.7574462890625 104.22049713134766 281.9598388671875 98.18911743164062 272.65216064453125 C 92.228515625 258.2106628417969 88.67511749267578 244.5664825439453 91.0279769897461 232.01283264160156 C 96.2964859008789 222.33827209472656 123.87367248535156 227.26092529296875 128.42413330078125 227.1649932861328 C 130.70672607421875 221.57240295410156 133.19422912597656 207.67807006835938 136.239013671875 190.6772918701172 C 140.25064086914062 175.69454956054688 148.41510009765625 167.68299865722656 160.72291564941406 159.30328369140625 C 175.81700134277344 152.17343139648438 182.50694274902344 151.28846740722656 201.39669799804688 160.30032348632812 C 201.7041778564453 161.55917358398438 201.95811462402344 162.78929138183594 202.22311401367188 164.12306213378906 C 199.5387725830078 162.68276977539062 196.3189697265625 161.46096801757812 193.02108764648438 160.2493438720703 C 188.2771453857422 156.86305236816406 184.4612274169922 152.14976501464844 181.750244140625 146.02549743652344 C 179.1297607421875 141.29441833496094 176.7552947998047 139.3788604736328 172.01876831054688 137.86587524414062 C 164.8029022216797 137.96463012695312 158.40415954589844 139.82598876953125 150.19126892089844 144.89366149902344 C 143.14585876464844 150.7095184326172 134.47845458984375 159.39407348632812 128.7672576904297 165.60386657714844 C 121.84716033935547 169.95262145996094 113.6739501953125 174.87933349609375 106.32405853271484 179.7154541015625 C 99.22499084472656 161.81825256347656 96.51936340332031 157.1271514892578 111.96243286132812 138.17535400390625 C 114.27943420410156 138.94854736328125 116.601806640625 139.4325714111328 115.8571548461914 131.69297790527344 C 120.02337646484375 129.4307098388672 123.32469940185547 127.76500701904297 130.7086181640625 124.14990997314453 C 141.7771759033203 117.13456726074219 154.0787353515625 111.06575775146484 167.51803588867188 108.37711334228516 C 183.64208984375 111.39405822753906 194.08360290527344 117.98550415039062 192.4515838623047 137.9789581298828 C 193.97433471679688 142.6913299560547 195.65087890625 145.48245239257812 198.11761474609375 147.4395294189453 C 201.1330108642578 148.36033630371094 204.3291778564453 149.0004425048828 208.38453674316406 149.30519104003906 C 212.94309997558594 150.845703125 217.76763916015625 151.99478149414062 231.0412139892578 155.73304748535156 C 232.59866333007812 156.2548370361328 232.9517822265625 156.3455352783203 235.49575805664062 156.42453002929688 C 237.79412841796875 167.52813720703125 242.17396545410156 176.00486755371094 246.5235137939453 182.92955017089844 C 244.5973663330078 184.07276916503906 241.7476043701172 187.28651428222656 232.2863006591797 197.4650115966797 C 213.380615234375 193.991943359375 207.46847534179688 193.39532470703125 199.1894073486328 192.63121032714844 C 189.58921813964844 194.9067840576172 185.05235290527344 195.8538818359375 180.0036163330078 198.48487854003906 C 174.31573486328125 204.6614532470703 170.78961181640625 209.59115600585938 164.94757080078125 220.11114501953125 C 158.39990234375 230.51419067382812 129.9974365234375 235.70059204101562 123.40782165527344 236.7236785888672 C 119.91808319091797 241.87518310546875 119.31700897216797 245.15960693359375 122.82616424560547 253.90701293945312 C 127.55089569091797 264.8155517578125 133.41299438476562 273.9427795410156 140.4390106201172 280.48211669921875 C 146.40805053710938 287.18115234375 156.6624298095703 295.14666748046875 161.64100646972656 298.0591125488281 C 165.50146484375 300.6956787109375 171.44235229492188 302.7785339355469 178.3676300048828 305.7595520019531 C 184.70962524414062 308.0699768066406 194.8040008544922 309.5177307128906 203.9395294189453 310.3650207519531 C 209.7403106689453 310.3341064453125 220.10604858398438 308.2059020996094 228.23587036132812 305.63916015625 C 236.88961791992188 303.4985656738281 245.5341339111328 299.0897521972656 255.867431640625 294.22991943359375 C 260.6125183105469 305.2096862792969 265.14739990234375 315.9151916503906 268.32049560546875 327.82427978515625 C 255.9770965576172 332.2409362792969 244.66140747070312 336.138916015625 233.95860290527344 338.03955078125 C 219.55990600585938 339.7054138183594 208.23214721679688 341.0870056152344 196.91253662109375 340.92816162109375"/>
    <path stroke-width="0" fill="rgb(0, 0, 0)" opacity="1.0" d="M 264.9212341308594 324.3102722167969 C 260.9972229003906 313.5350036621094 257.27618408203125 305.73211669921875 251.35816955566406 296.3887634277344 C 260.26043701171875 291.4847412109375 271.0236511230469 285.5536804199219 282.47747802734375 278.69647216796875 C 293.102783203125 271.85302734375 301.0025939941406 264.5512390136719 306.2960205078125 256.50390625 C 312.41754150390625 247.97003173828125 317.1976013183594 237.59503173828125 321.3017272949219 230.09434509277344 C 325.40301513671875 223.56179809570312 327.159912109375 218.85809326171875 327.2310485839844 217.6734161376953 C 327.0878601074219 211.78436279296875 321.6046447753906 202.17977905273438 315.3639221191406 192.51564025878906 C 310.5260314941406 181.46688842773438 309.6115417480469 166.16043090820312 308.769775390625 159.52601623535156 C 317.5518493652344 158.39651489257812 319.8213195800781 157.31594848632812 327.4864807128906 150.48321533203125 C 330.9433898925781 153.91119384765625 334.4963073730469 158.63076782226562 337.733154296875 164.10609436035156 C 340.6931457519531 170.301025390625 342.45654296875 176.20164489746094 343.96795654296875 179.87510681152344 C 345.8343811035156 183.87351989746094 347.4912109375 186.54168701171875 349.1399230957031 189.2528839111328 C 355.8614501953125 198.1820831298828 360.2204895019531 203.93072509765625 365.0066833496094 206.49435424804688 C 369.5757141113281 209.88131713867188 376.34619140625 212.439208984375 383.327880859375 214.65499877929688 C 389.0895080566406 216.1459503173828 392.8873291015625 218.580810546875 394.5915832519531 221.82965087890625 C 396.4610900878906 224.92852783203125 397.0858154296875 228.25086975097656 396.603759765625 232.48690795898438 C 396.19219970703125 236.39578247070312 393.9651794433594 240.46450805664062 390.1408386230469 243.17591857910156 C 386.3039855957031 245.8166961669922 381.2401428222656 246.5344696044922 374.9071044921875 245.4677276611328 C 369.22772216796875 244.97433471679688 365.2095947265625 243.51419067382812 361.4171142578125 240.7815704345703 C 358.57757568359375 239.3960723876953 355.52691650390625 237.38584899902344 352.8915100097656 234.16783142089844 C 350.35101318359375 230.89590454101562 348.6526184082031 227.05697631835938 347.9580383300781 222.3027801513672 C 351.2225341796875 221.48963928222656 354.7663879394531 220.7514190673828 358.6470031738281 219.96868896484375 C 357.8343200683594 228.06483459472656 355.80926513671875 235.829833984375 352.4808654785156 242.79327392578125 C 348.56622314453125 252.16830444335938 343.1200256347656 260.34063720703125 336.089111328125 269.45037841796875 C 329.05828857421875 280.9520263671875 320.01092529296875 291.5148620605469 308.2386779785156 300.5617980957031 C 294.60894775390625 310.556640625 279.44366455078125 319.3875427246094 264.9212341308594 324.3102722167969"/>
    <path stroke-width="0" fill="rgb(0, 0, 0)" opacity="1.0" d="M 377.98486328125 246.1613311767578 C 379.90216064453125 235.53121948242188 381.649658203125 225.44650268554688 384.4718017578125 214.99057006835938 C 393.4082336425781 217.43577575683594 400.796875 219.11221313476562 405.5443115234375 219.81109619140625 C 409.7745361328125 219.99905395507812 414.55523681640625 217.9958953857422 420.7132873535156 215.4329833984375 C 426.5792236328125 213.3119659423828 431.5281677246094 211.47018432617188 434.47747802734375 210.11141967773438 C 439.4225769042969 208.23121643066406 443.7154846191406 206.37596130371094 446.9897766113281 204.6390838623047 C 452.24761962890625 202.17620849609375 454.796630859375 200.4209747314453 457.13763427734375 197.4801788330078 C 459.60076904296875 196.70950317382812 459.66204833984375 193.39097595214844 459.696044921875 188.60023498535156 C 460.1488342285156 184.06332397460938 460.39276123046875 178.43971252441406 459.9724426269531 172.86611938476562 C 458.5023193359375 164.74908447265625 456.8341064453125 157.46133422851562 455.4082946777344 153.0046844482422 C 453.8782958984375 149.29029846191406 453.3888244628906 148.62142944335938 451.286865234375 146.53121948242188 C 450.6588439941406 145.779541015625 449.0173645019531 145.26405334472656 447.9520568847656 145.27757263183594 C 446.84423828125 145.33261108398438 445.09271240234375 146.221435546875 443.7164306640625 147.43002319335938 C 442.8938903808594 148.1421356201172 441.2164611816406 150.73667907714844 439.2767028808594 154.6325225830078 C 438.42437744140625 156.39389038085938 438.17742919921875 157.32815551757812 440.1499938964844 150.53274536132812 C 440.36981201171875 156.42831420898438 440.8621520996094 157.32302856445312 442.4356994628906 160.05731201171875 C 443.5499572753906 163.27651977539062 444.6184387207031 164.32093811035156 445.07830810546875 164.58163452148438 C 445.5076904296875 164.9312744140625 445.82989501953125 165.03358459472656 446.7501220703125 165.23020935058594 C 447.8536376953125 165.05657958984375 449.54449462890625 164.6265869140625 452.8209228515625 162.50228881835938 C 456.9416809082031 160.6614227294922 460.7149963378906 159.08444213867188 463.7735900878906 157.2725067138672 C 465.52630615234375 167.7420654296875 467.07794189453125 178.1925048828125 468.0623474121094 189.68690490722656 C 465.04193115234375 192.1836395263672 462.38323974609375 194.07705688476562 459.9573669433594 196.3857879638672 C 457.89166259765625 198.82827758789062 442.8161926269531 214.92730712890625 435.8028564453125 217.39596557617188 C 432.9234619140625 217.36337280273438 429.789306640625 217.02877807617188 425.49725341796875 216.1565399169922 C 418.02545166015625 214.85107421875 415.0317077636719 213.5860137939453 407.2467041015625 207.29461669921875 C 404.8199157714844 205.77322387695312 401.8955383300781 193.93446350097656 396.73388671875 185.46214294433594 C 395.54217529296875 183.5904998779297 394.4530334472656 180.26133728027344 392.19317626953125 168.22833251953125 C 394.5362854003906 156.7044677734375 394.58392333984375 150.2106170654297 396.9657287597656 144.64845275878906 C 398.9449768066406 137.69053649902344 401.6083068847656 131.8472900390625 407.3953552246094 125.8781509399414 C 410.661376953125 120.29417419433594 414.70458984375 114.5716552734375 420.5596923828125 110.62844848632812 C 428.8057556152344 104.51738739013672 437.5935363769531 101.50015258789062 447.62420654296875 101.6087417602539 C 459.52386474609375 103.29047393798828 468.64068603515625 106.58163452148438 476.4687805175781 112.1371841430664 C 482.951904296875 117.52687072753906 487.372802734375 123.33842468261719 491.64678955078125 129.9729766845703 C 497.0650634765625 140.25439453125 501.5833740234375 152.62220764160156 504.19293212890625 170.88607788085938 C 503.1362609863281 187.95596313476562 497.9671325683594 201.8578338623047 490.76568603515625 209.62428283691406 C 487.6101379394531 216.5037384033203 480.4289245605469 223.64141845703125 472.78033447265625 228.5895538330078 C 469.08843994140625 230.76315307617188 464.5459899902344 233.27549743652344 460.1717224121094 235.13104248046875 C 454.5622863769531 237.40435791015625 448.4875183105469 240.21768188476562 441.20135498046875 242.71942138671875 C 434.62469482421875 246.36752319335938 427.227294921875 248.8974151611328 414.2106018066406 251.10494995117188 C 401.7127685546875 249.99168395996094 389.7397766113281 248.4318084716797 377.98486328125 246.1613311767578M 437.12890625 76.55229949951172 C 429.06976318359375 79.47604370117188 423.5899353027344 75.29778289794922 419.2347106933594 79.7311019897461 C 400.96435546875 85.47716522216797 381.13818359375 67.6379165649414 408.3891906738281 50.34185791015625 C 409.877197265625 49.60226058959961 405.2113342285156 48.80277633666992 418.73858642578125 46.86835479736328 C 432.4698791503906 44.57328414916992 461.0818176269531 51.22016906738281 453.2164611816406 45.864742279052734 C 460.6757507324219 49.672664642333984 465.6639404296875 56.212730407714844 455.0630187988281 51.117095947265625 C 460.2914123535156 51.07886505126953 471.7836608886719 54.28102111816406 483.97491455078125 61.88338851928711 C 507.08648681640625 75.504150390625 508.4205627441406 106.47515869140625 476.9561462402344 90.37245178222656 C 455.3611755371094 77.95853424072266 444.5111389160156 79.30414581298828 437.12890625 76.55229949951172"/>
  </g>
</svg>
