<?xml version="1.0" ?>
<svg xmlns="http://www.w3.org/2000/svg" version="1.1" width="600" height="600">
  <defs/>
  <g>
    <path stroke-width="0" fill="rgb(0, 0, 0)" opacity="1.0" d="M 146.8585205078125 385.4093322753906 C 145.18699645996094 391.3384704589844 142.98382568359375 396.85662841796875 140.93951416015625 400.2011413574219 C 138.9022979736328 405.6113586425781 136.32864379882812 409.8296813964844 134.31640625 411.7768249511719 C 130.15562438964844 416.0821838378906 127.60323333740234 418.1138916015625 124.0116195678711 420.14678955078125 C 119.07953643798828 423.7872009277344 117.18589782714844 424.6717224121094 113.2012939453125 426.4339904785156 C 107.76113891601562 429.7012939453125 101.04608917236328 432.64752197265625 89.890380859375 434.8276062011719 C 83.50886535644531 434.3681335449219 74.7093276977539 431.93768310546875 67.90813446044922 429.25469970703125 C 61.487709045410156 426.8145446777344 58.30270767211914 425.8858642578125 55.936466217041016 425.738037109375 C 55.63203048706055 420.3573303222656 52.917903900146484 414.93212890625 50.23089599609375 418.78179931640625 C 47.05516052246094 416.6896667480469 43.217445373535156 414.432373046875 42.02666473388672 410.4775390625 C 43.521156311035156 401.8421936035156 45.865333557128906 394.7888488769531 47.62588882446289 388.3290100097656 C 50.13370895385742 381.2022399902344 53.06666946411133 375.758544921875 54.74242401123047 371.3611145019531 C 55.95210647583008 367.5333251953125 56.64842987060547 365.1426696777344 57.305580139160156 363.5080261230469 C 57.71149826049805 362.31878662109375 58.52845764160156 359.5545959472656 58.86689376831055 358.5783996582031 C 60.06727981567383 354.5753479003906 60.93606948852539 351.9833068847656 62.19173049926758 347.93670654296875 C 62.558433532714844 346.3250427246094 66.99222564697266 343.94659423828125 65.40033721923828 340.242431640625 C 64.22846221923828 336.5439758300781 63.350616455078125 333.38568115234375 62.57941818237305 330.4286193847656 C 64.5300064086914 329.86328125 66.56436920166016 329.28668212890625 68.54806518554688 328.8348388671875 C 70.69293212890625 328.4578552246094 72.5127182006836 328.14520263671875 74.6303482055664 327.8869934082031 C 76.92362213134766 327.4518737792969 79.23396301269531 326.9661560058594 81.4028549194336 326.40545654296875 C 83.9457778930664 325.8391418457031 89.93132019042969 323.7591247558594 94.33606719970703 323.2622375488281 C 100.41048431396484 323.0168151855469 108.007568359375 323.19097900390625 114.235107421875 324.54119873046875 C 119.44681549072266 325.74078369140625 121.99998474121094 326.6979675292969 124.99761199951172 328.5626525878906 C 128.89976501464844 330.70269775390625 132.37786865234375 333.0251770019531 135.98583984375 336.5427551269531 C 139.31085205078125 339.46533203125 142.4537811279297 343.3085632324219 145.527587890625 349.6513671875 C 147.5988311767578 354.7575988769531 148.96636962890625 359.7604675292969 149.61614990234375 364.89227294921875 C 149.7138214111328 371.4754943847656 148.93528747558594 378.3074645996094 146.8585205078125 385.4093322753906M 125.22164154052734 379.8758544921875 C 126.3880844116211 375.28997802734375 126.99461364746094 373.2351379394531 126.34085845947266 368.8154296875 C 126.14653778076172 366.1584777832031 125.65509796142578 361.7488098144531 125.40086364746094 359.3874816894531 C 121.00568389892578 354.15936279296875 115.57572174072266 349.69793701171875 111.97730255126953 347.59771728515625 C 109.64584350585938 346.3407897949219 105.32633972167969 345.0001525878906 94.61512756347656 346.0624694824219 C 92.3953857421875 345.75616455078125 87.94230651855469 345.6701354980469 84.89356231689453 345.6647033691406 C 84.02669525146484 351.76513671875 82.06102752685547 357.82147216796875 80.17633056640625 362.742919921875 C 79.49029541015625 365.38287353515625 79.19112396240234 367.4444580078125 78.71315002441406 369.3153076171875 C 77.8007583618164 372.06280517578125 75.87273406982422 376.9009094238281 72.85599517822266 382.7650451660156 C 70.47144317626953 388.6200256347656 68.53147888183594 396.2295837402344 67.044677734375 403.0730285644531 C 70.22881317138672 403.94073486328125 73.65978240966797 405.044189453125 77.34069061279297 405.8947448730469 C 84.93500518798828 407.7910461425781 89.43975067138672 408.102783203125 93.7071304321289 407.8047790527344 C 99.99677276611328 407.01763916015625 105.25628662109375 404.9683532714844 107.72721862792969 403.1299133300781 C 112.94998168945312 400.048828125 116.84725189208984 396.45245361328125 118.19171142578125 394.54998779296875 C 121.23155975341797 390.0071105957031 124.04871368408203 385.5250244140625 125.22164154052734 379.8758544921875"/>
    <path stroke-width="0" fill="rgb(0, 0, 0)" opacity="1.0" d="M 193.11563110351562 326.7099609375 C 195.56927490234375 326.668212890625 198.09490966796875 327.0561828613281 201.62684631347656 328.17364501953125 C 205.57359313964844 330.6874694824219 206.0692138671875 330.8139343261719 208.54644775390625 332.5352478027344 C 210.64242553710938 333.7687072753906 213.14959716796875 335.12713623046875 215.37826538085938 337.5503234863281 C 215.6128387451172 337.6074523925781 216.01441955566406 337.835693359375 216.62158203125 338.08404541015625 C 217.60150146484375 338.59942626953125 218.79087829589844 339.4044494628906 222.04403686523438 345.4342346191406 C 223.32080078125 347.71142578125 224.12391662597656 349.52410888671875 224.4853057861328 353.30194091796875 C 225.6533966064453 355.9544372558594 227.0117645263672 359.2151794433594 227.26718139648438 361.6776428222656 C 227.99783325195312 365.03955078125 228.23960876464844 366.3353576660156 228.61111450195312 369.6809387207031 C 228.61199951171875 373.32342529296875 228.67782592773438 369.96502685546875 228.873046875 374.2532653808594 C 228.87110900878906 380.7037353515625 227.6443634033203 383.9906921386719 226.29046630859375 386.1099548339844 C 223.90325927734375 389.01519775390625 222.44113159179688 390.3277282714844 220.30763244628906 392.0352783203125 C 216.14906311035156 386.615478515625 216.69036865234375 386.9754638671875 217.5361785888672 387.5906677246094 C 219.49729919433594 388.8313903808594 221.3303985595703 390.1612548828125 222.8944091796875 391.4208068847656 C 225.2870330810547 393.7815246582031 227.00570678710938 395.6436462402344 228.85223388671875 397.99017333984375 C 230.555908203125 400.41693115234375 232.52227783203125 403.9588928222656 233.52638244628906 405.6647644042969 C 235.0502471923828 409.3395080566406 236.51217651367188 412.20556640625 238.35354614257812 415.4438781738281 C 238.8467254638672 416.43206787109375 239.17608642578125 417.3317565917969 239.61355590820312 418.2139587402344 C 240.72732543945312 419.4058837890625 241.21722412109375 420.71343994140625 242.56210327148438 422.989990234375 C 244.4561309814453 425.9456787109375 246.24383544921875 428.94268798828125 248.0185089111328 432.10809326171875 C 244.36871337890625 431.6562194824219 240.8680877685547 431.391845703125 237.10801696777344 430.9750671386719 C 233.03941345214844 430.2095947265625 235.16407775878906 432.8986511230469 230.5650177001953 432.5183410644531 C 227.3505096435547 431.7941589355469 228.33053588867188 433.3432922363281 225.95118713378906 433.0527648925781 C 223.499755859375 432.60589599609375 222.8018341064453 432.18463134765625 220.6847686767578 430.70257568359375 C 220.9661102294922 427.8709716796875 218.9246826171875 426.7156677246094 218.5868377685547 426.38897705078125 C 217.39707946777344 424.234619140625 214.93829345703125 419.6717834472656 214.11740112304688 417.93170166015625 C 213.37217712402344 416.6061706542969 212.1896209716797 414.48883056640625 211.6767578125 413.74169921875 C 210.46766662597656 411.9591369628906 209.5160675048828 410.82672119140625 208.7244873046875 409.8549499511719 C 207.8126220703125 408.367431640625 207.43002319335938 408.0262756347656 206.67755126953125 406.988037109375 C 206.13116455078125 406.4996337890625 205.5670623779297 406.0003356933594 204.55613708496094 405.2035827636719 C 201.45155334472656 403.265380859375 201.19912719726562 402.91021728515625 200.92657470703125 402.51934814453125 C 193.15676879882812 404.85198974609375 186.3809814453125 404.94970703125 178.3361358642578 403.6424560546875 C 176.69886779785156 405.7165832519531 178.57330322265625 399.6835021972656 177.2271728515625 402.0053405761719 C 176.49111938476562 404.57012939453125 175.46197509765625 410.9908447265625 175.34927368164062 414.6220397949219 C 175.76502990722656 415.75494384765625 175.84580993652344 416.33258056640625 170.82534790039062 419.92169189453125 C 172.84213256835938 423.0563049316406 173.9617462158203 425.9461364746094 174.59584045410156 428.270751953125 C 173.3476104736328 428.701904296875 172.0482940673828 429.2248840332031 170.8585968017578 429.7669372558594 C 169.84121704101562 430.3795471191406 170.70277404785156 431.3061218261719 170.38998413085938 431.89453125 C 169.1255645751953 429.5948791503906 167.5882568359375 428.04486083984375 165.65110778808594 426.8830871582031 C 164.81312561035156 428.9466857910156 164.19305419921875 430.8557434082031 163.25503540039062 433.10223388671875 C 161.23680114746094 432.1472473144531 158.8869171142578 431.3272399902344 155.88198852539062 430.2145690917969 C 154.16920471191406 428.53106689453125 152.87127685546875 426.6979064941406 151.84234619140625 424.42852783203125 C 150.13040161132812 420.09625244140625 151.05859375 424.14508056640625 150.1287078857422 417.3429870605469 C 151.47821044921875 410.56219482421875 152.90133666992188 404.838134765625 153.67724609375 400.0330505371094 C 154.71139526367188 395.8011779785156 156.40997314453125 391.3704833984375 157.56167602539062 388.86309814453125 C 155.06851196289062 394.3952331542969 157.8192138671875 390.9602355957031 159.0094451904297 389.48333740234375 C 156.679931640625 392.90240478515625 157.2912139892578 391.4358825683594 157.6158447265625 390.67864990234375 C 157.88926696777344 389.5896301269531 156.7321319580078 390.52447509765625 156.93922424316406 387.38330078125 C 156.89418029785156 384.0813293457031 157.3895263671875 386.0039978027344 157.14833068847656 382.2323303222656 C 157.5872039794922 378.53228759765625 158.63111877441406 374.5450439453125 158.7360076904297 372.48138427734375 C 158.55349731445312 367.9175720214844 159.03717041015625 364.6767272949219 159.70005798339844 361.2430114746094 C 160.39291381835938 358.1378173828125 160.50067138671875 357.38580322265625 161.212158203125 351.01507568359375 C 161.9740447998047 348.4100646972656 161.15264892578125 352.52532958984375 161.0055694580078 350.16015625 C 161.3634490966797 345.72369384765625 161.72409057617188 343.18817138671875 161.7972869873047 341.0622863769531 C 164.4366912841797 340.73516845703125 167.7682342529297 340.3603210449219 167.03616333007812 336.9005432128906 C 166.67340087890625 335.3755187988281 169.5582275390625 334.89337158203125 168.50367736816406 332.0738220214844 C 171.71383666992188 330.8547668457031 171.261474609375 328.1817321777344 175.59780883789062 327.47210693359375 C 175.77780151367188 327.20233154296875 175.486083984375 323.3275146484375 173.6393585205078 325.5008850097656 C 177.98924255371094 325.80706787109375 175.45034790039062 327.3358459472656 179.68162536621094 326.3822021484375 C 185.98143005371094 326.3135986328125 190.1591033935547 326.4623718261719 193.11563110351562 326.7099609375M 190.8841552734375 350.10687255859375 C 187.51161193847656 350.0028381347656 185.8782958984375 349.9889221191406 184.09719848632812 349.8627014160156 C 183.81263732910156 352.0936279296875 183.72401428222656 354.0666198730469 183.4412384033203 355.11138916015625 C 182.6070098876953 357.7852783203125 182.57249450683594 359.6308288574219 182.16598510742188 362.9786682128906 C 181.86337280273438 366.54388427734375 181.489501953125 369.2684020996094 181.2600555419922 372.24755859375 C 181.20721435546875 375.4053039550781 181.14590454101562 378.8203125 181.088623046875 381.7815246582031 C 184.42510986328125 381.8197937011719 187.5980987548828 381.8719177246094 191.0726318359375 382.4192199707031 C 196.03759765625 382.564697265625 198.7109375 381.5009765625 200.5432586669922 380.93084716796875 C 203.12095642089844 380.0701599121094 204.7225341796875 379.07733154296875 205.5339813232422 378.25335693359375 C 206.53936767578125 377.0440979003906 207.2158966064453 375.8258972167969 207.39309692382812 374.6579895019531 C 207.66310119628906 373.3890075683594 207.67185974121094 371.34844970703125 207.4942169189453 366.9997863769531 C 206.9427032470703 362.228515625 203.85260009765625 356.7593078613281 202.78050231933594 355.77197265625 C 201.96603393554688 355.1149597167969 199.65382385253906 353.08160400390625 198.87245178222656 352.62554931640625 C 196.0283203125 350.9197082519531 193.5435791015625 350.354736328125 190.8841552734375 350.10687255859375"/>
    <path stroke-width="0" fill="rgb(0, 0, 0)" opacity="1.0" d="M 314.8334655761719 427.3143310546875 C 312.0605163574219 428.7249755859375 309.45111083984375 430.2635498046875 306.1832580566406 431.28155517578125 C 303.8154296875 431.4803466796875 307.5397644042969 430.3709716796875 305.4375305175781 431.10430908203125 C 303.9792175292969 431.47015380859375 300.2184753417969 431.4073486328125 297.96923828125 431.1019287109375 C 295.1805419921875 430.88629150390625 291.5235900878906 431.03350830078125 289.86572265625 431.1424865722656 C 285.958984375 431.4244689941406 283.9113464355469 431.3613586425781 279.4537658691406 431.4017639160156 C 276.6964111328125 430.4974060058594 273.40447998046875 430.02691650390625 274.2593994140625 430.890869140625 C 272.1459655761719 431.14385986328125 269.9766540527344 431.0127868652344 268.0931701660156 429.97369384765625 C 267.1882629394531 429.5650939941406 264.66485595703125 428.81103515625 262.2218322753906 428.31646728515625 C 262.66326904296875 426.1723937988281 263.1669616699219 424.2425842285156 264.0451354980469 420.9208984375 C 265.3466491699219 418.28350830078125 260.9133605957031 417.0673522949219 261.3155822753906 414.5274658203125 C 261.1427001953125 412.1990661621094 261.1792297363281 408.13958740234375 261.0567932128906 409.7709655761719 C 261.3551940917969 406.6753234863281 261.3816833496094 405.5802917480469 261.28125 404.9744873046875 C 261.30096435546875 403.3394775390625 260.8040771484375 401.3592834472656 260.7729187011719 400.123779296875 C 262.3709411621094 403.5265808105469 260.1202392578125 398.89569091796875 258.51898193359375 394.9776916503906 C 258.3641662597656 393.58184814453125 258.4511413574219 392.36285400390625 259.47869873046875 398.19830322265625 C 259.2552795410156 396.75628662109375 258.69012451171875 393.8298645019531 257.0140380859375 384.3623046875 C 257.3126220703125 380.0926513671875 261.696533203125 385.2067565917969 261.4316711425781 384.3532409667969 C 258.313232421875 375.8473815917969 258.65576171875 371.9753723144531 258.8127746582031 369.1037902832031 C 258.5183410644531 362.56903076171875 258.1554260253906 363.71893310546875 259.18829345703125 357.9326477050781 C 259.4385986328125 354.65484619140625 259.72369384765625 356.2755432128906 258.10498046875 351.5945739746094 C 256.58349609375 347.92889404296875 256.2284851074219 342.2013854980469 256.9120788574219 339.4474182128906 C 257.3082275390625 337.1778869628906 255.5598907470703 342.38671875 255.52127075195312 336.27569580078125 C 255.26780700683594 331.4752502441406 255.4823760986328 329.9996643066406 257.039306640625 330.03778076171875 C 257.212646484375 327.2565612792969 257.0860290527344 324.8656005859375 256.5911560058594 322.69500732421875 C 259.4376220703125 322.2902526855469 262.2991027832031 322.1365966796875 264.26849365234375 321.74713134765625 C 267.9311218261719 322.30047607421875 268.3001403808594 320.44775390625 267.50439453125 321.90447998046875 C 272.51422119140625 322.42425537109375 270.2926330566406 324.0738220214844 273.90179443359375 322.2523193359375 C 280.13232421875 321.92547607421875 282.8730773925781 321.5657653808594 286.4557189941406 320.6064453125 C 290.4966735839844 321.7025451660156 293.732666015625 322.4970703125 296.5355224609375 322.6138000488281 C 301.3526916503906 322.8162536621094 303.7953796386719 322.57757568359375 308.8035583496094 321.9867858886719 C 309.8025207519531 322.00421142578125 312.1629638671875 322.522705078125 313.6592712402344 322.6280517578125 C 316.6591491699219 323.5744934082031 316.7942199707031 325.4459228515625 319.8102722167969 324.7923278808594 C 320.2480163574219 326.6319274902344 320.9795227050781 328.7845458984375 320.663330078125 330.1213684082031 C 320.07305908203125 332.2421569824219 319.72088623046875 333.6410217285156 321.3447570800781 334.19134521484375 C 321.21661376953125 334.62921142578125 319.3240051269531 334.7733154296875 319.8652648925781 337.42559814453125 C 320.0267028808594 339.78009033203125 320.10382080078125 341.5609130859375 320.05517578125 343.4934387207031 C 318.2698059082031 343.40264892578125 317.0363464355469 343.44598388671875 315.3996887207031 343.5699157714844 C 314.3949890136719 343.6057434082031 312.9713134765625 343.99664306640625 308.6779479980469 344.60650634765625 C 304.8155822753906 343.80084228515625 309.4063415527344 344.5750427246094 305.7182312011719 344.26007080078125 C 300.6953430175781 344.6654968261719 295.2637939453125 345.3523864746094 290.2305908203125 345.2156066894531 C 284.3302001953125 344.1618347167969 285.0862121582031 344.484375 280.47418212890625 343.81494140625 C 279.9982604980469 347.10943603515625 280.3204345703125 345.5075988769531 280.1576843261719 343.187744140625 C 280.72564697265625 344.9760437011719 281.3407287597656 346.83551025390625 282.60198974609375 350.95294189453125 C 282.8796081542969 353.9610290527344 283.07501220703125 362.8981018066406 282.7978820800781 365.2702941894531 C 282.4162292480469 370.12481689453125 283.0929870605469 367.5462341308594 282.8430480957031 373.5462951660156 C 286.32366943359375 374.57244873046875 287.4939880371094 374.99554443359375 289.3563537597656 375.4307861328125 C 292.4543762207031 375.413330078125 294.4649353027344 375.373046875 299.2657775878906 375.5198059082031 C 304.30706787109375 376.3992004394531 299.0304870605469 375.96063232421875 303.12579345703125 375.7388000488281 C 303.2908020019531 376.1036071777344 305.24114990234375 375.44580078125 307.4262390136719 374.4411315917969 C 308.0309143066406 375.5577392578125 308.7308654785156 376.80426025390625 309.58221435546875 378.8565368652344 C 309.8752746582031 379.5174255371094 310.41729736328125 382.0909423828125 310.8685302734375 384.4031677246094 C 311.09844970703125 385.13995361328125 311.49481201171875 386.3058166503906 312.0946044921875 387.9615783691406 C 312.6986389160156 389.2948913574219 313.435302734375 391.0373840332031 314.0874938964844 392.563232421875 C 311.2690734863281 393.87908935546875 308.0872802734375 395.23333740234375 305.1050109863281 396.118896484375 C 301.6472473144531 396.7391052246094 300.1351013183594 396.901123046875 297.0906677246094 396.2900390625 C 295.8494873046875 396.1350402832031 292.04827880859375 396.2346496582031 286.6670227050781 394.9609069824219 C 284.0326843261719 394.27301025390625 282.0640869140625 393.990234375 281.4428405761719 393.9000244140625 C 281.371826171875 394.7975158691406 280.8593444824219 388.71112060546875 281.119384765625 389.4802551269531 C 281.5611877441406 390.7734680175781 283.8541259765625 394.84130859375 284.50653076171875 398.8787841796875 C 284.67120361328125 401.73760986328125 284.65191650390625 404.3817138671875 284.4571838378906 402.7044982910156 C 284.2406921386719 406.72698974609375 284.00616455078125 408.9126281738281 283.9779357910156 409.9192810058594 C 286.62451171875 409.9758605957031 289.097900390625 410.00146484375 292.33831787109375 410.082763671875 C 296.0819091796875 410.44476318359375 298.51385498046875 410.56414794921875 302.8004455566406 410.7649230957031 C 300.8675842285156 410.24639892578125 302.1084899902344 410.3140563964844 297.7634582519531 411.1014099121094 C 299.1209411621094 410.7509765625 300.4033508300781 410.35162353515625 302.8453063964844 410.0916748046875 C 303.8278503417969 410.1549987792969 305.15557861328125 410.1690673828125 306.947998046875 410.24462890625 C 308.8616943359375 410.14013671875 310.56890869140625 410.15789794921875 312.2241516113281 410.2892761230469 C 312.12091064453125 412.0232238769531 312.06402587890625 413.7289733886719 312.0639343261719 415.6999206542969 C 312.1671142578125 417.99237060546875 311.9003601074219 420.0772705078125 313.5896911621094 420.04547119140625 C 312.7445983886719 420.3356018066406 311.1526794433594 420.73028564453125 311.8126525878906 421.9217224121094 C 312.70843505859375 423.53851318359375 313.7967529296875 425.4284362792969 314.8334655761719 427.3143310546875"/>
    <path stroke-width="0" fill="rgb(0, 0, 0)" opacity="1.0" d="M 413.0384521484375 433.3003845214844 C 411.3271179199219 430.0635681152344 408.53363037109375 426.0015563964844 406.83746337890625 422.453857421875 C 405.25140380859375 418.4268798828125 404.10595703125 415.7917175292969 402.4396057128906 412.8475646972656 C 398.1297912597656 413.545166015625 392.46844482421875 414.3813781738281 388.43731689453125 414.1424560546875 C 381.5692443847656 412.75830078125 385.2541809082031 412.7518005371094 379.9658508300781 413.6264343261719 C 374.78997802734375 413.5838928222656 370.2184753417969 413.6973876953125 365.6944580078125 413.5985412597656 C 360.6015319824219 412.63665771484375 356.9344177246094 411.682861328125 354.15496826171875 410.8574523925781 C 353.11358642578125 413.59375 351.48284912109375 418.3726806640625 350.3509521484375 422.2917175292969 C 349.10107421875 426.43560791015625 348.3418273925781 429.453125 347.31573486328125 433.1221923828125 C 343.35675048828125 432.9143981933594 338.9327087402344 432.89849853515625 336.15618896484375 432.5953369140625 C 331.76324462890625 432.6535339355469 328.21636962890625 432.6518249511719 323.3894348144531 432.8770751953125 C 324.36358642578125 427.626953125 326.68829345703125 423.1197204589844 328.30181884765625 419.4807434082031 C 329.286865234375 416.74908447265625 330.09283447265625 413.8352966308594 331.455078125 409.2242431640625 C 333.3534851074219 404.7849426269531 334.541259765625 401.48187255859375 335.4776306152344 395.27618408203125 C 337.9082946777344 390.13836669921875 339.4847106933594 385.624267578125 341.27252197265625 380.0811462402344 C 343.2528381347656 374.8484191894531 345.1097412109375 369.8235778808594 346.9737854003906 365.724609375 C 348.8059387207031 360.8610534667969 350.091796875 356.42919921875 351.6910705566406 351.7043762207031 C 352.8325500488281 348.2762451171875 354.3791809082031 343.85595703125 355.6633605957031 338.7600402832031 C 358.2169494628906 333.1868591308594 360.2751770019531 329.04193115234375 362.61102294921875 323.7962646484375 C 365.3754577636719 324.11376953125 369.2263488769531 324.4122619628906 371.1416320800781 324.6118469238281 C 373.36181640625 325.0496520996094 375.93475341796875 325.22369384765625 378.90728759765625 325.48797607421875 C 381.6971130371094 325.8270263671875 380.0424499511719 325.033203125 380.7081298828125 324.88604736328125 C 383.3310241699219 324.6409606933594 385.7414855957031 324.3439025878906 388.85626220703125 323.9740905761719 C 389.8884582519531 326.1022033691406 390.97235107421875 328.6866149902344 391.7544250488281 331.03997802734375 C 393.62335205078125 334.8358459472656 394.50823974609375 338.1661071777344 395.4546203613281 341.1404113769531 C 396.1582336425781 343.6459655761719 396.7668762207031 345.763916015625 397.2079772949219 346.9945068359375 C 397.6737976074219 348.09588623046875 398.66070556640625 350.11627197265625 399.2900695800781 351.6629638671875 C 400.3106689453125 354.2829284667969 401.0665283203125 356.34991455078125 401.9847106933594 358.79449462890625 C 402.9853515625 361.5878601074219 403.84918212890625 363.3468933105469 404.87677001953125 365.6676330566406 C 405.72998046875 367.460693359375 406.874267578125 369.9704284667969 407.87188720703125 372.5685729980469 C 408.70928955078125 374.605224609375 409.79412841796875 377.483154296875 410.80145263671875 379.6925964355469 C 411.71875 381.5240173339844 412.7610778808594 383.3913879394531 413.894287109375 385.7495422363281 C 415.00567626953125 388.4905700683594 416.27056884765625 392.43524169921875 416.72991943359375 393.1827087402344 C 418.8863525390625 396.3338317871094 419.87127685546875 398.0758972167969 420.946044921875 400.65728759765625 C 422.1073913574219 402.86859130859375 423.575927734375 405.2886047363281 424.51934814453125 407.1806335449219 C 426.0704345703125 411.1984558105469 428.14276123046875 416.1572570800781 429.2554931640625 418.7593994140625 C 430.8080749511719 421.53204345703125 431.97552490234375 423.8022155761719 432.93603515625 426.0242919921875 C 433.3651123046875 428.464599609375 433.5592956542969 430.552490234375 433.6980285644531 432.1408386230469 C 429.6458435058594 432.1240234375 426.8929138183594 431.84405517578125 423.6076965332031 431.6328430175781 C 417.6077880859375 431.98223876953125 416.8891906738281 431.9983215332031 413.0384521484375 433.3003845214844M 383.8265686035156 367.3955993652344 C 383.0075378417969 364.58917236328125 382.3523254394531 362.5695495605469 381.22393798828125 359.72943115234375 C 380.3885498046875 356.8531188964844 379.7510681152344 354.0224914550781 378.83343505859375 351.1548156738281 C 378.01531982421875 348.15606689453125 377.4789733886719 345.61199951171875 376.9963073730469 342.9433288574219 C 376.46234130859375 345.56585693359375 375.7769470214844 348.1382751464844 375.37982177734375 351.422607421875 C 374.7010498046875 354.4888916015625 373.9403381347656 357.16839599609375 372.8335876464844 360.2604675292969 C 372.2581481933594 362.603515625 371.47796630859375 365.3365173339844 370.8959655761719 367.1705627441406 C 369.6355895996094 370.7149963378906 368.3560485839844 374.8045349121094 367.16552734375 378.4783630371094 C 365.81982421875 382.577392578125 364.4894104003906 386.447509765625 363.3480529785156 390.7077331542969 C 368.0165710449219 390.67529296875 372.89141845703125 390.6918029785156 378.2375183105469 390.6984558105469 C 382.1841125488281 390.54150390625 387.52728271484375 390.8608093261719 393.1553649902344 390.7997131347656 C 391.06988525390625 386.2827453613281 389.4349670410156 382.2255554199219 387.9896545410156 377.7474670410156 C 386.7101745605469 374.6298522949219 385.4062194824219 371.2613525390625 383.8265686035156 367.3955993652344"/>
    <path stroke-width="0" fill="rgb(0, 0, 0)" opacity="1.0" d="M 492.12359619140625 427.24798583984375 C 495.4543762207031 417.2892150878906 502.5692138671875 404.0404968261719 504.13800048828125 399.6933288574219 C 504.31658935546875 397.33172607421875 503.3941955566406 395.24884033203125 499.3702697753906 390.094970703125 C 491.6162414550781 385.98248291015625 482.2882080078125 381.1434631347656 473.0885925292969 375.3398742675781 C 465.6943664550781 368.8651428222656 459.0884094238281 362.33935546875 442.58587646484375 359.4182434082031 C 459.10699462890625 349.193359375 453.13427734375 355.2191467285156 466.7144470214844 350.2689514160156 C 454.03125 357.0702209472656 454.7336730957031 359.1171569824219 455.9524230957031 362.73028564453125 C 456.8244934082031 366.11944580078125 457.8025817871094 369.14361572265625 458.639892578125 372.06915283203125 C 459.5050964355469 375.1009826660156 460.2240905761719 377.5247497558594 461.9605407714844 382.0700378417969 C 463.74237060546875 389.71099853515625 464.4474182128906 398.6426696777344 466.3147277832031 405.7158508300781 C 468.20697021484375 413.4705505371094 469.9822082519531 422.7057800292969 471.8408508300781 430.06060791015625 C 464.84613037109375 431.67559814453125 457.7115783691406 432.95538330078125 448.8006896972656 434.0979919433594 C 448.22637939453125 429.328125 448.04345703125 424.9713439941406 447.4671936035156 420.2798767089844 C 446.8133544921875 415.9588317871094 446.4299011230469 412.7988586425781 445.0183410644531 409.2330322265625 C 443.4912109375 404.4552001953125 442.618408203125 397.8235168457031 441.6979675292969 392.33209228515625 C 441.4784240722656 391.10845947265625 441.0067443847656 389.5603332519531 438.72113037109375 382.7077331542969 C 438.1105041503906 378.68280029296875 437.2886962890625 375.5150146484375 436.4225158691406 372.87347412109375 C 435.4941101074219 369.5270080566406 434.54840087890625 365.6770935058594 433.6928405761719 361.3742370605469 C 432.460693359375 356.4302673339844 431.14599609375 350.7837219238281 429.6064453125 341.27496337890625 C 429.0187072753906 335.7784118652344 428.596435546875 329.3709411621094 428.60711669921875 322.3558044433594 C 436.8603515625 323.631103515625 443.6958312988281 324.8987731933594 457.39349365234375 332.9413146972656 C 459.395263671875 333.6861267089844 462.08428955078125 334.2085876464844 465.01409912109375 334.66656494140625 C 465.52978515625 338.0429992675781 466.07867431640625 339.2994079589844 468.00994873046875 341.30450439453125 C 472.83660888671875 346.0828552246094 479.2467041015625 350.777587890625 486.8841552734375 355.21844482421875 C 494.39508056640625 360.2932434082031 501.6731872558594 364.9515380859375 510.2806091308594 370.53076171875 C 519.6207885742188 377.3804626464844 526.5508422851562 387.88739013671875 526.7235107421875 402.3541259765625 C 527.1393432617188 402.5448913574219 509.7898254394531 398.6222229003906 512.7103271484375 399.0694274902344 C 513.8971557617188 397.7813720703125 516.154296875 393.1091003417969 518.6565551757812 386.9864501953125 C 521.0377807617188 379.8257751464844 523.449462890625 372.6886291503906 526.4979858398438 365.38470458984375 C 530.590576171875 359.34039306640625 535.220703125 353.1102600097656 538.342529296875 347.54290771484375 C 540.8009033203125 342.08087158203125 544.5131225585938 332.1883850097656 548.76171875 327.9860534667969 C 552.1936645507812 329.45172119140625 553.3692626953125 327.6626892089844 555.3865356445312 328.9947509765625 C 556.953125 329.67108154296875 561.8779907226562 330.4070129394531 567.649169921875 331.49853515625 C 566.6507568359375 336.1325378417969 565.4542846679688 340.9231872558594 563.6834716796875 346.5830993652344 C 561.2824096679688 351.5928955078125 558.533203125 356.085693359375 555.641845703125 360.9334716796875 C 552.1243896484375 365.5348815917969 549.5166015625 369.10125732421875 546.40234375 373.12371826171875 C 543.0181884765625 377.7841796875 539.4307250976562 382.1704406738281 541.1624755859375 378.347900390625 C 540.3104858398438 382.3546142578125 540.3934326171875 386.5414123535156 540.6351318359375 388.4766845703125 C 540.3397827148438 391.909912109375 540.5466918945312 392.6322326660156 542.1446533203125 395.90875244140625 C 544.6392211914062 398.186279296875 548.0797119140625 400.6667175292969 554.1923217773438 405.0729675292969 C 560.287841796875 411.1033020019531 562.429443359375 416.3994140625 565.5625610351562 424.71173095703125 C 553.8136596679688 427.563232421875 548.2083740234375 429.1378173828125 538.7444458007812 428.49493408203125 C 538.4099731445312 425.11669921875 538.0325317382812 423.8468017578125 536.6185302734375 420.4649353027344 C 535.5919189453125 419.2240905761719 531.7769775390625 416.35693359375 526.837158203125 411.9111022949219 C 522.7421264648438 405.84539794921875 519.6709594726562 399.0421447753906 518.9288940429688 391.0938720703125 C 519.37255859375 392.98876953125 519.0709228515625 386.221435546875 519.3040161132812 381.2040710449219 C 520.1201171875 376.2182922363281 521.45849609375 371.3475036621094 524.62744140625 366.7662353515625 C 528.2888793945312 362.434326171875 530.5537719726562 359.5050354003906 533.3427124023438 355.73675537109375 C 536.457275390625 352.4245300292969 538.5077514648438 350.0522155761719 539.341796875 349.1884460449219 C 548.2954711914062 352.8377685546875 553.8273315429688 353.22564697265625 552.71484375 353.2522277832031 C 548.955322265625 362.22686767578125 545.343505859375 369.2269287109375 543.1702270507812 373.86993408203125 C 541.3704833984375 379.7271728515625 539.5222778320312 387.3682556152344 537.66015625 394.8919372558594 C 535.1325073242188 402.850830078125 530.8642578125 411.3054504394531 523.3047485351562 417.82733154296875 C 512.6353759765625 425.7570495605469 519.1397094726562 429.49688720703125 513.0755004882812 435.9179992675781 C 509.10296630859375 434.38201904296875 506.5802917480469 433.6188659667969 505.9275207519531 433.48455810546875 C 504.22955322265625 432.6742858886719 498.8866271972656 430.5492248535156 492.12359619140625 427.24798583984375"/>
    <path stroke-width="0" fill="rgb(0, 0, 0)" opacity="1.0" d="M 65.17735290527344 337.83660888671875 C 62.04244613647461 332.59173583984375 58.60441207885742 327.6810302734375 53.8963508605957 320.7202453613281 C 47.23876190185547 314.14068603515625 42.07660675048828 307.5909423828125 37.767601013183594 298.87774658203125 C 39.45214080810547 289.9352111816406 42.72258377075195 283.6539306640625 45.79789352416992 278.03277587890625 C 51.319480895996094 272.3200378417969 54.54187774658203 268.70269775390625 56.68111801147461 264.72021484375 C 58.43824005126953 259.33514404296875 61.52266311645508 254.09542846679688 64.87313842773438 249.9730224609375 C 67.40290069580078 245.09202575683594 69.69458770751953 241.07054138183594 73.05078125 237.56753540039062 C 75.54417419433594 230.86468505859375 78.24226379394531 226.86984252929688 81.64095306396484 225.1381378173828 C 92.58885955810547 202.94940185546875 95.13795471191406 202.0731658935547 102.08662414550781 200.05596923828125 C 107.68022155761719 213.91079711914062 112.04199981689453 216.6387939453125 115.0019302368164 220.95388793945312 C 115.79466247558594 221.84584045410156 116.31847381591797 222.61141967773438 118.24502563476562 226.94297790527344 C 119.36492156982422 228.6916046142578 120.75726318359375 230.6929931640625 123.40998840332031 235.71340942382812 C 126.10328674316406 241.1218719482422 130.4625244140625 247.9951171875 133.7980194091797 253.6566925048828 C 135.92929077148438 260.0989990234375 138.2821502685547 264.9020690917969 141.67526245117188 269.654541015625 C 144.37318420410156 260.8409423828125 144.7501983642578 261.046142578125 145.5870361328125 260.9181823730469 C 149.6531982421875 260.05615234375 152.34588623046875 260.56488037109375 154.24343872070312 262.1343078613281 C 156.13827514648438 263.91851806640625 157.05105590820312 265.79083251953125 157.3409881591797 268.4147644042969 C 157.59207153320312 271.22442626953125 156.63143920898438 273.9475402832031 154.78228759765625 275.8419189453125 C 152.9691925048828 277.76995849609375 150.27635192871094 278.81829833984375 147.8226318359375 279.4049072265625 C 143.5900115966797 281.17236328125 134.7217254638672 282.2509765625 127.65565490722656 281.322509765625 C 122.7769546508789 279.0632629394531 119.61320495605469 275.4972839355469 117.71162414550781 271.7575988769531 C 118.71405792236328 271.3665771484375 119.86603546142578 270.9083251953125 120.75922393798828 270.50714111328125 C 119.85236358642578 272.8350524902344 118.0882797241211 275.0989074707031 116.06257629394531 276.4475402832031 C 113.2465591430664 277.2157897949219 111.02935028076172 277.9453430175781 110.72488403320312 279.8210144042969 C 109.55335235595703 280.3998107910156 106.71525573730469 280.96661376953125 101.01242065429688 280.4071350097656 C 99.75554656982422 280.3913269042969 107.67184448242188 276.8138732910156 101.70933532714844 277.4635314941406 C 99.4069595336914 277.79632568359375 97.02131652832031 277.81494140625 93.79757690429688 277.8993835449219 C 84.22319030761719 278.0668640136719 82.99097442626953 277.26947021484375 81.82412719726562 276.5967712402344 C 78.59290313720703 274.95965576171875 75.2900390625 272.0113525390625 73.08549499511719 268.46728515625 C 74.56529998779297 268.26141357421875 75.98853302001953 268.0301513671875 77.17727661132812 267.69140625 C 76.18450927734375 270.38970947265625 74.38117218017578 275.6600341796875 71.37854766845703 281.1306457519531 C 66.70596313476562 286.0302734375 60.601261138916016 288.9951171875 58.29647445678711 290.6503601074219 C 57.81721878051758 291.2665100097656 57.40934371948242 292.9417724609375 57.4530143737793 293.2475280761719 C 58.07334518432617 294.4326171875 61.10810470581055 299.108154296875 65.01962280273438 302.9501953125 C 69.2151870727539 308.2593994140625 73.72289276123047 316.55078125 75.76513671875 320.5628356933594 C 77.17328643798828 324.26568603515625 78.71591186523438 327.5614013671875 80.42650604248047 330.7243347167969 C 74.37360382080078 333.2044372558594 69.4953842163086 334.8906555175781 65.17735290527344 337.83660888671875M 101.16974639892578 258.3836669921875 C 103.33128356933594 258.4070129394531 104.53888702392578 258.2583923339844 105.41371154785156 257.85931396484375 C 106.32340240478516 257.5301208496094 107.14393615722656 256.8192443847656 107.57772064208984 255.89781188964844 C 108.02812194824219 254.9365234375 107.94740295410156 253.21360778808594 107.4113540649414 251.89059448242188 C 106.22931671142578 248.36807250976562 105.27152252197266 246.40548706054688 104.8878173828125 245.50511169433594 C 104.41184997558594 244.71726989746094 103.95565032958984 244.10940551757812 102.92012023925781 242.95001220703125 C 101.88392639160156 241.71743774414062 101.30865478515625 241.078369140625 100.52359771728516 240.3429412841797 C 99.94290161132812 239.90757751464844 99.15929412841797 239.4280548095703 98.36843872070312 239.45335388183594 C 97.25479888916016 239.50732421875 95.66666412353516 240.5980682373047 94.18138122558594 242.2235107421875 C 92.86238098144531 243.48138427734375 91.49134826660156 244.94647216796875 90.29304504394531 246.96876525878906 C 89.3927230834961 248.19459533691406 88.3785400390625 249.6482391357422 87.61580657958984 250.75352478027344 C 86.86085510253906 251.8488311767578 86.26358795166016 252.73248291015625 86.17549896240234 253.17807006835938 C 85.4871597290039 251.76768493652344 85.01270294189453 250.5550079345703 84.4101791381836 249.6182403564453 C 86.21912384033203 251.8679962158203 88.92172241210938 254.5139617919922 91.45446014404297 256.1781311035156 C 92.66231536865234 256.9247131347656 93.99653625488281 257.7596740722656 94.97823333740234 258.0214538574219 C 97.41915130615234 258.5738830566406 99.38028717041016 258.51702880859375 101.16974639892578 258.3836669921875"/>
    <path stroke-width="0" fill="rgb(0, 0, 0)" opacity="1.0" d="M 149.4326171875 278.899169921875 C 148.16355895996094 272.5567626953125 147.90798950195312 266.4958190917969 146.69766235351562 260.6327209472656 C 150.2869415283203 260.1470947265625 152.68463134765625 259.11126708984375 154.09375 258.1439514160156 C 156.2574920654297 256.85247802734375 157.9304656982422 253.5144805908203 158.21694946289062 250.5426483154297 C 158.08053588867188 249.13168334960938 157.47601318359375 244.8133544921875 156.5441131591797 238.016357421875 C 159.79331970214844 211.95704650878906 161.13369750976562 188.00535583496094 161.4892120361328 166.9141387939453 C 165.50177001953125 166.591064453125 166.0059356689453 166.6561279296875 170.78369140625 164.32003784179688 C 180.87879943847656 186.7518310546875 182.39083862304688 213.2996063232422 180.86085510253906 238.9734649658203 C 180.8659210205078 241.87960815429688 181.56158447265625 245.89744567871094 182.2348175048828 248.03453063964844 C 183.33282470703125 250.64096069335938 184.86996459960938 251.84170532226562 188.0299530029297 253.01962280273438 C 192.43260192871094 255.3092041015625 196.58285522460938 257.95257568359375 201.22186279296875 260.04998779296875 C 206.79766845703125 263.4580078125 208.8415069580078 266.5917663574219 209.20359802246094 269.09613037109375 C 209.702880859375 271.166748046875 209.3593292236328 273.57537841796875 208.01158142089844 276.1978454589844 C 206.39840698242188 278.9734191894531 203.80137634277344 280.71002197265625 200.56671142578125 281.27789306640625 C 197.6858367919922 281.70074462890625 194.6448974609375 280.9128112792969 191.1458740234375 279.1604919433594 C 188.03138732910156 277.26983642578125 185.34738159179688 275.6037292480469 183.14915466308594 273.9546203613281 C 180.48477172851562 273.428466796875 177.33782958984375 271.80322265625 175.31768798828125 270.1701354980469 C 172.35508728027344 267.6962890625 170.4099578857422 264.2008361816406 169.34445190429688 259.52227783203125 C 171.4078826904297 259.4065856933594 173.5911102294922 259.2659912109375 175.78985595703125 259.0765075683594 C 174.5917205810547 263.51849365234375 172.9998779296875 267.2054443359375 170.3368377685547 270.23858642578125 C 167.4071044921875 273.7746276855469 164.208984375 275.90924072265625 160.58338928222656 276.791015625 C 157.376953125 278.06768798828125 153.33541870117188 278.7413635253906 149.4326171875 278.899169921875"/>
    <path stroke-width="0" fill="rgb(0, 0, 0)" opacity="1.0" d="M 192.28692626953125 279.71160888671875 C 195.4812774658203 273.5755920410156 198.69349670410156 267.4559326171875 203.25662231445312 260.9692687988281 C 208.4405517578125 264.8642272949219 212.09628295898438 267.8936767578125 215.51771545410156 269.9841003417969 C 218.6959991455078 271.0013732910156 219.8517608642578 270.67840576171875 220.43032836914062 269.9969482421875 C 223.29617309570312 263.3179626464844 227.17803955078125 255.8365020751953 233.29519653320312 249.1526641845703 C 241.98146057128906 245.9349822998047 247.12986755371094 243.71633911132812 250.8476104736328 241.4771270751953 C 247.23504638671875 241.15582275390625 243.08047485351562 240.5505828857422 239.2839813232422 239.43252563476562 C 235.9009552001953 238.18887329101562 232.33700561523438 237.0550537109375 228.88711547851562 235.8123779296875 C 226.25985717773438 234.3805389404297 222.9510498046875 232.63494873046875 218.9857177734375 230.96835327148438 C 216.95925903320312 229.75230407714844 219.01625061035156 230.8300323486328 216.6566925048828 229.94696044921875 C 214.4627227783203 229.16363525390625 214.2134552001953 226.56259155273438 214.14315795898438 226.16073608398438 C 211.99954223632812 226.31297302246094 210.24485778808594 226.58372497558594 208.68731689453125 227.08937072753906 C 207.31651306152344 219.26434326171875 209.0913848876953 213.81809997558594 211.23008728027344 207.2566680908203 C 213.94216918945312 208.0814208984375 216.87063598632812 209.32749938964844 219.597900390625 210.59368896484375 C 222.64349365234375 211.63539123535156 224.7931365966797 212.60723876953125 227.0225067138672 213.66917419433594 C 230.42845153808594 215.82594299316406 233.0273895263672 217.2207794189453 236.0518035888672 219.1083984375 C 238.612060546875 220.44583129882812 241.08596801757812 221.8675994873047 243.03427124023438 222.97134399414062 C 244.33132934570312 223.49691772460938 246.77792358398438 224.08843994140625 250.10153198242188 225.11505126953125 C 252.98048400878906 225.80902099609375 256.7005920410156 226.10174560546875 260.80169677734375 227.0815887451172 C 267.2809143066406 228.3253173828125 273.906005859375 229.80519104003906 277.08221435546875 230.13986206054688 C 278.22900390625 230.45077514648438 280.54351806640625 230.95162963867188 282.6984558105469 231.5159912109375 C 281.80084228515625 237.4457550048828 281.6193542480469 243.40919494628906 281.1786193847656 248.31163024902344 C 278.4452819824219 247.8643798828125 275.781005859375 248.1019287109375 271.0086669921875 250.3577880859375 C 266.858154296875 252.9597625732422 262.9639892578125 255.59117126464844 258.2550354003906 258.165283203125 C 253.96092224121094 260.3739929199219 249.4402618408203 262.55438232421875 246.41358947753906 263.9068603515625 C 245.7762451171875 264.65875244140625 244.61065673828125 266.9156799316406 243.03598022460938 272.432861328125 C 240.5896759033203 285.3082275390625 231.8863067626953 294.0246887207031 219.06344604492188 297.6968688964844 C 206.3834991455078 289.7522888183594 199.4943389892578 284.1683654785156 192.28692626953125 279.71160888671875"/>
  </g>
</svg>
