<?xml version="1.0" ?>
<svg xmlns="http://www.w3.org/2000/svg" version="1.1" width="600" height="600">
  <defs/>
  <g>
    <path stroke-width="0" fill="rgb(0, 0, 0)" opacity="1.0" d="M 141.7642822265625 383.05908203125 C 140.3177490234375 388.4019775390625 138.40536499023438 393.4009094238281 136.86949157714844 396.36798095703125 C 134.2883758544922 401.43353271484375 132.23451232910156 404.2586669921875 128.8935089111328 406.9900207519531 C 124.8918228149414 411.61627197265625 123.40196228027344 412.72271728515625 120.79296112060547 414.625244140625 C 117.71403503417969 417.8367004394531 115.67528533935547 418.9020690917969 112.569091796875 420.6214904785156 C 108.35256958007812 423.78521728515625 102.53192901611328 426.6728820800781 96.67262268066406 427.8716125488281 C 91.91206359863281 429.9248352050781 84.21623229980469 430.3160705566406 77.76041412353516 430.5296630859375 C 71.02043914794922 430.46734619140625 65.4638442993164 430.27337646484375 63.63622283935547 430.4732360839844 C 60.2227783203125 430.1763610839844 56.96981430053711 421.8547058105469 54.99201202392578 424.6784362792969 C 52.430458068847656 423.1010437011719 48.21287536621094 420.57769775390625 47.741973876953125 415.96624755859375 C 46.92288589477539 409.45465087890625 46.14772415161133 402.0550231933594 45.37534713745117 393.0069580078125 C 46.38153839111328 384.6847229003906 48.58963394165039 379.8728332519531 52.59038162231445 373.301513671875 C 53.89692306518555 368.9809265136719 54.203208923339844 367.81268310546875 54.79393005371094 366.0044250488281 C 54.74310302734375 365.4870910644531 55.366085052490234 363.1825256347656 55.984737396240234 361.0242614746094 C 57.54425048828125 357.0868835449219 59.23280334472656 352.6307678222656 60.8157958984375 349.3016357421875 C 61.05508804321289 346.47418212890625 61.13962936401367 343.75848388671875 60.7642822265625 341.1357421875 C 60.383514404296875 338.068359375 59.41388702392578 335.3958435058594 58.19452667236328 332.2008056640625 C 60.08331298828125 331.4970397949219 62.47540283203125 330.4289245605469 64.64091491699219 329.67919921875 C 67.44036865234375 328.92938232421875 69.6500015258789 328.479248046875 71.90399932861328 327.990966796875 C 74.90177917480469 327.3594055175781 77.98303985595703 326.748291015625 80.8869400024414 325.8810119628906 C 84.94843292236328 325.6407775878906 88.90420532226562 325.91497802734375 93.22938537597656 326.3745422363281 C 98.93494415283203 326.0679626464844 103.45025634765625 326.7713928222656 106.19511413574219 327.548095703125 C 111.10983276367188 326.7298889160156 116.52629852294922 326.6840515136719 122.33863830566406 327.7371520996094 C 125.48865509033203 328.77386474609375 128.57102966308594 330.2547607421875 132.68545532226562 332.81475830078125 C 136.4647674560547 335.48651123046875 139.95481872558594 339.19744873046875 143.0660858154297 345.6151123046875 C 145.5147705078125 350.6535949707031 147.1708526611328 357.9130554199219 147.1708526611328 364.5767822265625 C 146.59666442871094 372.080322265625 145.06414794921875 377.96124267578125 141.7642822265625 383.05908203125M 121.56487274169922 378.5155334472656 C 123.52395629882812 372.47509765625 123.57907104492188 371.56201171875 124.04792785644531 367.6975402832031 C 123.58832550048828 362.54620361328125 123.02185821533203 358.32415771484375 122.45807647705078 356.7860412597656 C 119.0179214477539 352.7945861816406 116.71546173095703 351.113037109375 110.65921020507812 349.74017333984375 C 109.1904296875 348.84088134765625 100.66254425048828 348.74273681640625 91.32990264892578 348.9470520019531 C 88.08032989501953 348.4595947265625 84.84883880615234 347.7659606933594 81.72215270996094 347.2354736328125 C 80.73897552490234 351.780517578125 79.12164306640625 359.44635009765625 77.7027816772461 364.2292175292969 C 77.46625518798828 365.8501892089844 76.90201568603516 369.7563171386719 76.74964904785156 370.5129089355469 C 75.57530975341797 374.0718994140625 74.66346740722656 377.3703308105469 71.85203552246094 385.38385009765625 C 70.61787414550781 391.1537780761719 69.96934509277344 396.5638427734375 69.37944793701172 406.2928161621094 C 74.07156372070312 406.15948486328125 77.37355041503906 406.1795349121094 81.56620788574219 407.13494873046875 C 86.54765319824219 406.8675537109375 90.33055877685547 406.08465576171875 95.02964782714844 404.9282531738281 C 98.6810073852539 403.8013916015625 102.09440612792969 401.2721252441406 103.97088623046875 399.44390869140625 C 109.00666046142578 395.07586669921875 114.33953094482422 391.7041320800781 114.82313537597656 390.8633728027344 C 118.02766418457031 386.7053527832031 120.5673599243164 381.8574523925781 121.56487274169922 378.5155334472656"/>
    <path stroke-width="0" fill="rgb(0, 0, 0)" opacity="1.0" d="M 194.31776428222656 325.4449157714844 C 196.81248474121094 326.5501708984375 199.589599609375 327.7886962890625 201.36773681640625 328.45977783203125 C 204.28079223632812 330.1629333496094 205.19659423828125 330.8082580566406 207.31582641601562 332.03472900390625 C 208.72335815429688 332.9600524902344 212.18914794921875 335.3248291015625 212.8120880126953 335.5588073730469 C 213.58413696289062 335.9139099121094 215.94134521484375 337.83990478515625 216.645263671875 338.2498779296875 C 218.6336212158203 340.1498718261719 220.40496826171875 341.9059143066406 222.32081604003906 345.8311462402344 C 223.0029296875 347.07330322265625 223.76370239257812 349.941162109375 224.3010711669922 351.7315979003906 C 226.16615295410156 354.7645568847656 227.2278289794922 357.6846923828125 227.8981170654297 361.0527648925781 C 228.3489227294922 362.5309143066406 229.18077087402344 366.0244445800781 229.0867156982422 367.8091125488281 C 230.62477111816406 375.8145751953125 231.99789428710938 370.86669921875 231.90866088867188 377.1362609863281 C 231.16964721679688 380.1646728515625 229.41738891601562 385.609130859375 228.19236755371094 386.9974365234375 C 225.423828125 390.3951416015625 223.61952209472656 392.0121765136719 221.58558654785156 393.5678405761719 C 217.4681854248047 386.2872009277344 218.2903594970703 387.155517578125 219.6190185546875 388.53302001953125 C 220.88809204101562 389.79888916015625 222.09686279296875 390.9937438964844 223.6475372314453 392.71954345703125 C 224.69406127929688 393.9720764160156 226.20779418945312 395.6152648925781 228.2015380859375 398.0142822265625 C 229.84579467773438 399.9570007324219 230.73248291015625 401.2157287597656 233.01820373535156 404.97406005859375 C 235.36280822753906 409.03997802734375 236.34365844726562 411.8941955566406 237.1168975830078 414.0877990722656 C 237.73016357421875 415.1235046386719 238.19715881347656 416.17266845703125 239.27540588378906 418.2559814453125 C 239.70994567871094 419.4044189453125 240.75987243652344 424.1227722167969 240.54005432128906 424.6173400878906 C 242.6049346923828 427.868408203125 243.9007568359375 431.2687072753906 245.10107421875 434.66741943359375 C 241.8966064453125 433.1868896484375 238.7680206298828 432.4212646484375 235.2013702392578 432.02093505859375 C 231.4821319580078 430.0108947753906 232.9891815185547 432.22998046875 229.9776153564453 432.2868957519531 C 227.06715393066406 431.99981689453125 228.27566528320312 433.83245849609375 226.39346313476562 433.90838623046875 C 223.5880889892578 434.0554504394531 220.6112823486328 432.748046875 218.4062042236328 431.71649169921875 C 218.5386199951172 429.27301025390625 218.82107543945312 427.2154846191406 214.9223175048828 426.2531433105469 C 213.3130340576172 423.1645812988281 212.28079223632812 420.8451232910156 211.99571228027344 419.9818420410156 C 210.5428924560547 416.6135559082031 209.84169006347656 415.6069030761719 209.17735290527344 414.79534912109375 C 208.3294677734375 413.7079162597656 207.83349609375 413.017822265625 206.55712890625 411.46630859375 C 205.81695556640625 410.3714904785156 205.06607055664062 409.56329345703125 203.61810302734375 407.8069763183594 C 202.6121826171875 406.69195556640625 201.4941864013672 405.5636901855469 200.5171356201172 404.4817199707031 C 198.7245635986328 402.2680358886719 198.46531677246094 401.0704345703125 197.7193145751953 399.51312255859375 C 191.3668975830078 399.93115234375 186.7440948486328 400.0580139160156 183.81631469726562 399.9177551269531 C 182.94479370117188 401.3229675292969 184.35435485839844 395.5838928222656 182.8611602783203 398.705078125 C 181.04364013671875 403.4371032714844 180.41940307617188 406.9628601074219 180.5557403564453 411.8993835449219 C 181.38687133789062 415.42803955078125 181.31414794921875 419.6813049316406 181.51353454589844 420.59454345703125 C 181.82774353027344 423.018798828125 179.03602600097656 424.858154296875 180.81491088867188 426.7586975097656 C 179.69427490234375 428.09686279296875 178.76153564453125 429.17095947265625 177.0170440673828 429.3304443359375 C 175.0790252685547 429.61187744140625 175.77687072753906 431.6301574707031 172.62510681152344 433.0945129394531 C 171.93380737304688 433.19903564453125 169.577392578125 433.94366455078125 167.1724395751953 431.37774658203125 C 166.0597686767578 432.501220703125 164.94459533691406 433.8707275390625 163.64312744140625 435.3439636230469 C 162.15586853027344 433.94970703125 160.8144073486328 432.2826843261719 159.9169921875 431.4330749511719 C 158.9751739501953 429.13458251953125 157.5515594482422 425.3642272949219 157.31759643554688 423.08477783203125 C 157.74285888671875 416.9287109375 158.1678009033203 420.0683288574219 157.39117431640625 414.36749267578125 C 156.56344604492188 410.566650390625 155.60243225097656 404.60784912109375 156.7601318359375 399.999755859375 C 157.37351989746094 391.91326904296875 158.45114135742188 388.3975830078125 160.98692321777344 383.9609375 C 158.0261993408203 390.8803405761719 158.9172821044922 388.9434509277344 161.20277404785156 385.1669006347656 C 157.54415893554688 391.0444030761719 158.48794555664062 387.7831726074219 159.15101623535156 386.39599609375 C 160.80569458007812 381.6836853027344 156.17311096191406 385.3701477050781 158.12319946289062 378.702880859375 C 159.38392639160156 376.1924133300781 159.50721740722656 383.1836242675781 159.64166259765625 381.571533203125 C 159.53631591796875 380.6311950683594 158.6533966064453 375.4502868652344 158.6685028076172 373.20343017578125 C 159.9783477783203 367.4278869628906 159.63674926757812 364.86981201171875 159.61712646484375 362.3429870605469 C 159.8309326171875 359.5459899902344 159.93031311035156 356.5418395996094 159.3564910888672 351.3225402832031 C 159.9557647705078 347.7768249511719 159.3858642578125 351.22174072265625 159.39431762695312 350.45379638671875 C 159.26361083984375 347.08355712890625 159.3027801513672 342.1326904296875 159.92276000976562 337.7362060546875 C 159.9264678955078 336.91046142578125 162.66139221191406 336.8065185546875 162.36268615722656 331.44012451171875 C 163.64234924316406 332.11663818359375 164.77049255371094 333.2084045410156 165.43695068359375 332.0592956542969 C 166.78582763671875 332.82025146484375 168.4669189453125 330.26556396484375 171.58380126953125 326.7822265625 C 171.01797485351562 324.2967224121094 174.4413299560547 324.1126403808594 176.312744140625 324.2427062988281 C 180.63523864746094 324.0084533691406 175.57223510742188 326.40765380859375 184.87942504882812 324.549072265625 C 187.52908325195312 324.7936096191406 189.76502990722656 324.7594299316406 194.31776428222656 325.4449157714844M 188.956787109375 349.0614013671875 C 186.7519073486328 348.9546203613281 185.10873413085938 348.8480224609375 183.06747436523438 348.53076171875 C 183.02552795410156 350.73272705078125 183.04220581054688 352.34857177734375 182.58766174316406 354.525146484375 C 182.30369567871094 356.19598388671875 182.07302856445312 359.36456298828125 181.94703674316406 362.9239501953125 C 181.91946411132812 363.83782958984375 181.98959350585938 366.46258544921875 181.58883666992188 371.3446044921875 C 182.0101776123047 373.36785888671875 181.6501922607422 376.0315856933594 181.7594451904297 380.3922424316406 C 186.17660522460938 380.08770751953125 188.26454162597656 380.0294494628906 190.7279052734375 379.8705749511719 C 195.87620544433594 380.1493835449219 198.13388061523438 379.69293212890625 200.0333251953125 379.0985412597656 C 202.68746948242188 378.4525146484375 204.3998565673828 377.4847106933594 205.52056884765625 376.4759216308594 C 206.4462127685547 375.25616455078125 207.15487670898438 374.41839599609375 207.61810302734375 373.2350769042969 C 208.0269775390625 372.3170166015625 208.6295166015625 369.23370361328125 207.698974609375 365.8011779785156 C 207.01071166992188 363.1816101074219 202.7003631591797 356.4185485839844 201.6637420654297 355.0411071777344 C 200.68162536621094 353.70635986328125 199.0691375732422 352.53936767578125 197.60169982910156 351.7057189941406 C 194.89926147460938 349.9689636230469 192.62783813476562 349.4306640625 188.956787109375 349.0614013671875"/>
    <path stroke-width="0" fill="rgb(0, 0, 0)" opacity="1.0" d="M 312.8813781738281 425.73577880859375 C 310.2361755371094 426.9549865722656 307.0640869140625 428.3756408691406 304.2213134765625 429.3119201660156 C 304.1523132324219 433.4316101074219 310.1282043457031 431.3592224121094 306.7345886230469 432.6484680175781 C 304.0750427246094 433.5345764160156 300.875732421875 433.95135498046875 294.0390319824219 434.1454772949219 C 289.0047912597656 432.7418518066406 287.28521728515625 432.6429138183594 285.8968200683594 432.55438232421875 C 283.402099609375 432.405029296875 280.4320983886719 432.2876281738281 275.60418701171875 431.9895935058594 C 273.2371520996094 431.4648132324219 270.91644287109375 431.103759765625 273.40179443359375 433.31396484375 C 272.6358337402344 433.6648254394531 272.9624938964844 431.3282165527344 269.002197265625 429.87359619140625 C 266.9798889160156 429.0959777832031 265.0238952636719 429.3794860839844 262.4305114746094 429.7517395019531 C 262.1000061035156 427.3872375488281 262.0758056640625 424.7325744628906 262.4812927246094 421.330078125 C 263.4436950683594 417.11138916015625 261.7276916503906 417.139404296875 258.0784606933594 417.14593505859375 C 258.0354309082031 414.276611328125 257.6855163574219 410.18109130859375 258.7503662109375 415.8081970214844 C 257.5777587890625 412.3355712890625 256.8503723144531 409.5916442871094 256.5854187011719 406.5025634765625 C 257.656494140625 402.1751403808594 257.8079528808594 400.7927551269531 258.5535583496094 397.73382568359375 C 258.57830810546875 398.79571533203125 258.2629089355469 395.2271423339844 257.6119079589844 392.1642761230469 C 257.63824462890625 388.956298828125 258.115234375 385.767333984375 258.3936462402344 388.6900634765625 C 259.28961181640625 382.3092346191406 257.8123474121094 387.2182312011719 258.5580749511719 377.5372619628906 C 258.6796875 375.9292297363281 260.44610595703125 378.36468505859375 260.37286376953125 376.262451171875 C 260.2576904296875 374.9481201171875 259.6073303222656 370.8364562988281 259.9819030761719 364.1832580566406 C 260.7851257324219 359.4284973144531 258.02850341796875 365.0660705566406 257.8090515136719 362.0952453613281 C 257.3903503417969 358.5550537109375 256.4193115234375 353.80377197265625 255.58445739746094 349.28619384765625 C 255.21047973632812 346.42974853515625 255.52542114257812 343.28753662109375 257.04052734375 337.9527587890625 C 259.191650390625 331.7662658691406 253.75111389160156 339.1910400390625 253.87181091308594 335.3268127441406 C 254.3216094970703 335.2953796386719 253.9739532470703 329.8833923339844 254.7855987548828 327.4664611816406 C 255.79176330566406 324.6071472167969 257.3065490722656 322.04473876953125 258.43829345703125 320.3563537597656 C 260.4791259765625 321.45489501953125 263.34722900390625 322.7974548339844 265.8802185058594 323.78271484375 C 267.091064453125 319.2566223144531 270.5909423828125 319.09259033203125 267.5643310546875 323.2789306640625 C 272.4687194824219 323.005126953125 270.1416320800781 324.92059326171875 273.4354553222656 324.3863220214844 C 277.10235595703125 323.98876953125 281.48785400390625 324.04266357421875 285.8651428222656 324.1665954589844 C 289.492919921875 324.36029052734375 293.6751403808594 324.08013916015625 296.8935546875 324.4431457519531 C 300.4916076660156 324.1625061035156 301.83026123046875 324.1744384765625 305.7222595214844 324.1790771484375 C 310.3457336425781 323.38372802734375 313.29486083984375 324.4078063964844 315.89141845703125 324.93798828125 C 317.7156677246094 325.2091064453125 319.1646423339844 325.0685119628906 321.7774963378906 324.3539123535156 C 322.1487731933594 325.9288635253906 322.59600830078125 328.97802734375 322.1164245605469 329.9803466796875 C 322.9540100097656 331.12518310546875 322.3818054199219 333.62109375 321.8248291015625 336.4609069824219 C 321.33551025390625 339.2542724609375 321.0229187011719 340.0071716308594 320.4647521972656 342.0710144042969 C 319.5311279296875 343.9981384277344 318.9566650390625 345.9464111328125 318.2452087402344 347.6116027832031 C 316.67987060546875 346.897705078125 315.1644287109375 346.2152404785156 313.6029357910156 345.3597106933594 C 311.9632568359375 344.7278747558594 308.9493713378906 343.6282958984375 308.1399841308594 345.28765869140625 C 304.5821533203125 344.0768127441406 310.3793640136719 345.2109375 303.8302917480469 345.45782470703125 C 298.2609558105469 345.465087890625 294.5735778808594 345.0198669433594 291.43121337890625 344.87152099609375 C 287.2959289550781 344.429443359375 281.6317138671875 344.63580322265625 279.9483642578125 344.9203796386719 C 278.41265869140625 348.8055114746094 278.8565673828125 346.02642822265625 278.3826599121094 342.34112548828125 C 278.99041748046875 344.87066650390625 279.605712890625 348.3063049316406 280.0201110839844 352.1286315917969 C 280.7201232910156 355.7896423339844 281.6588134765625 359.40521240234375 282.5606994628906 365.0518493652344 C 282.12548828125 369.6968078613281 283.5331115722656 366.3876953125 283.067626953125 369.2703857421875 C 286.2604064941406 369.6341247558594 289.9453430175781 370.5422668457031 292.2962951660156 371.2596435546875 C 295.22314453125 371.83966064453125 298.69512939453125 372.3231506347656 303.33428955078125 372.9339599609375 C 305.5821228027344 373.5555419921875 301.62713623046875 373.35107421875 303.30548095703125 373.1617431640625 C 304.97955322265625 372.4505920410156 307.1239013671875 374.31134033203125 308.85003662109375 371.6347961425781 C 310.014404296875 372.5577087402344 311.3165283203125 373.2787780761719 312.04345703125 374.6973876953125 C 312.3673400878906 375.310546875 312.8826599121094 376.1081237792969 314.5054626464844 380.54376220703125 C 314.54180908203125 381.50341796875 314.6388244628906 384.1828918457031 314.7340393066406 386.2386779785156 C 314.67352294921875 388.1650695800781 314.5787658691406 389.63427734375 314.62396240234375 391.4642639160156 C 311.5070495605469 391.389892578125 308.41754150390625 391.27960205078125 306.6317443847656 391.4636535644531 C 304.9460754394531 391.7635498046875 302.4283447265625 392.2679748535156 298.6193542480469 391.8632507324219 C 295.0164489746094 391.1601867675781 291.6580505371094 389.6873474121094 288.3913879394531 388.89404296875 C 284.8119201660156 388.34722900390625 283.2237243652344 387.90966796875 281.0533447265625 387.6682434082031 C 280.11175537109375 391.5672607421875 279.5160217285156 386.155517578125 280.449462890625 390.5423278808594 C 280.771484375 393.27410888671875 280.7929382324219 398.3792419433594 280.24847412109375 403.1969909667969 C 280.04443359375 405.0504455566406 279.79266357421875 406.9020080566406 280.1698913574219 400.7469482421875 C 280.88470458984375 402.68524169921875 281.77789306640625 405.5729675292969 282.53106689453125 407.8696594238281 C 285.18109130859375 408.28448486328125 287.7452697753906 408.8428039550781 291.2088928222656 409.379150390625 C 295.009033203125 410.0058898925781 298.4786682128906 411.120361328125 301.0126647949219 411.71142578125 C 295.7897033691406 410.6358947753906 298.85516357421875 410.1285095214844 295.1270446777344 411.3397521972656 C 297.00640869140625 410.50665283203125 299.05462646484375 409.3005676269531 303.111083984375 408.6325988769531 C 304.3484802246094 411.18719482421875 306.1401062011719 410.8039855957031 307.8683166503906 410.5865478515625 C 309.6343994140625 410.2515563964844 311.45880126953125 410.06134033203125 313.2405700683594 409.9986267089844 C 313.3194580078125 411.8709411621094 313.3337707519531 413.4936828613281 313.4535217285156 414.7681579589844 C 313.77587890625 415.92352294921875 316.3020324707031 414.74481201171875 316.6095275878906 420.9919128417969 C 314.19537353515625 420.6973876953125 311.0809326171875 420.7070617675781 311.1761779785156 421.4434509277344 C 311.50311279296875 422.3634033203125 312.0747375488281 423.9432067871094 312.8813781738281 425.73577880859375"/>
    <path stroke-width="0" fill="rgb(0, 0, 0)" opacity="1.0" d="M 405.37664794921875 433.656005859375 C 404.6036071777344 429.4952697753906 403.9562683105469 426.5777893066406 402.660400390625 422.0288391113281 C 400.27557373046875 416.2785339355469 399.5395202636719 413.712158203125 398.22906494140625 410.2524719238281 C 393.6313781738281 410.4681396484375 388.9254150390625 410.39959716796875 382.9847106933594 410.320068359375 C 380.0491027832031 410.1383361816406 384.7079162597656 410.5143127441406 376.653076171875 410.6418151855469 C 374.16253662109375 410.5191650390625 369.9634094238281 410.1014099121094 365.1127014160156 409.7442626953125 C 363.32196044921875 409.72442626953125 360.6915283203125 409.6932067871094 357.8470458984375 409.8632507324219 C 357.76605224609375 412.64727783203125 357.3687744140625 416.6781921386719 356.9606018066406 420.3145751953125 C 356.5583190917969 423.83758544921875 355.6620178222656 427.7674560546875 354.8258056640625 431.4428405761719 C 349.9788818359375 431.5808410644531 346.341552734375 431.7315979003906 342.5557556152344 432.1708679199219 C 338.2773132324219 432.31500244140625 333.2218017578125 432.34197998046875 329.6460266113281 432.42144775390625 C 330.8880920410156 429.1043395996094 331.7691955566406 425.2979431152344 332.6660461425781 421.9974060058594 C 333.4730529785156 417.0363464355469 333.8395080566406 413.3156433105469 334.5096435546875 410.3050842285156 C 335.3858947753906 406.15301513671875 335.6978759765625 403.5643310546875 336.0505676269531 398.5050354003906 C 336.8182373046875 393.05816650390625 338.1313781738281 386.2270812988281 339.07177734375 378.81585693359375 C 340.7767639160156 372.67413330078125 342.17437744140625 367.4266052246094 342.6876220703125 362.7309875488281 C 344.51531982421875 358.5321960449219 345.7043151855469 353.72265625 347.0946044921875 350.7784729003906 C 348.09661865234375 345.96490478515625 350.06549072265625 341.4993896484375 351.22454833984375 335.78839111328125 C 351.82537841796875 332.7693176269531 353.8507385253906 328.1304931640625 354.74163818359375 322.3815002441406 C 358.3389587402344 321.79266357421875 363.6424560546875 321.7331848144531 366.77069091796875 322.4425354003906 C 372.2464904785156 322.1026306152344 376.9173889160156 322.56719970703125 381.2552185058594 324.19622802734375 C 383.8883361816406 325.21575927734375 382.0049743652344 324.07257080078125 385.07708740234375 324.5968017578125 C 387.82281494140625 324.47662353515625 391.79022216796875 324.60980224609375 394.145263671875 324.85186767578125 C 394.8744201660156 327.1761169433594 395.5832824707031 330.1860656738281 395.9718933105469 331.743408203125 C 396.8181457519531 333.8691101074219 397.38726806640625 335.3506164550781 398.134033203125 337.60052490234375 C 398.78131103515625 339.93072509765625 399.0965881347656 340.78631591796875 399.8424072265625 342.978759765625 C 400.5767822265625 344.87261962890625 401.4806823730469 348.27569580078125 401.8704833984375 349.654541015625 C 402.74945068359375 352.433349609375 403.4842529296875 354.5534973144531 404.2576904296875 356.99212646484375 C 404.98651123046875 359.6040344238281 405.8818054199219 361.8479309082031 406.7278747558594 363.683837890625 C 407.4589538574219 365.8498840332031 408.4632568359375 368.04229736328125 409.82843017578125 371.94476318359375 C 410.16033935546875 373.2314453125 410.9516906738281 377.8650207519531 411.37017822265625 379.4813537597656 C 412.079345703125 381.6502380371094 412.34228515625 382.9879455566406 412.880126953125 384.6261291503906 C 413.7481384277344 388.2823791503906 413.91741943359375 390.99365234375 415.82427978515625 395.3313903808594 C 416.5397644042969 397.6809997558594 417.42657470703125 399.1750183105469 418.35284423828125 401.55230712890625 C 418.7651672363281 403.09893798828125 419.3313903808594 405.3949890136719 420.0157470703125 407.10943603515625 C 421.14556884765625 409.5247802734375 424.0625 415.5327453613281 425.8581848144531 419.25616455078125 C 426.7418212890625 420.79437255859375 427.4847412109375 422.51470947265625 428.43157958984375 424.1966247558594 C 429.6300964355469 426.2252502441406 431.1024475097656 428.5983581542969 432.21136474609375 430.50567626953125 C 427.39898681640625 431.6697692871094 422.4808654785156 432.87945556640625 418.1641845703125 433.677490234375 C 414.4621887207031 433.61456298828125 410.47479248046875 433.65985107421875 405.37664794921875 433.656005859375M 384.9703369140625 364.5596618652344 C 384.28009033203125 362.7425842285156 383.4661865234375 360.85205078125 382.4063415527344 358.13018798828125 C 381.0656433105469 355.0308532714844 380.051025390625 352.3122863769531 378.70721435546875 349.09442138671875 C 377.6737060546875 345.9072570800781 376.90924072265625 343.3020324707031 376.4865417480469 341.3005676269531 C 376.0614318847656 343.1977844238281 375.46124267578125 345.87811279296875 374.4625549316406 349.46905517578125 C 373.336669921875 352.8057861328125 372.37921142578125 355.6351318359375 371.6872253417969 357.7675476074219 C 370.5456848144531 361.1251220703125 370.0530700683594 362.98956298828125 369.27056884765625 364.7944030761719 C 368.10546875 368.0161437988281 367.1221618652344 370.83648681640625 366.1719665527344 373.789794921875 C 364.854736328125 378.577880859375 363.8074035644531 382.1852111816406 362.46466064453125 386.8291015625 C 367.81231689453125 386.49615478515625 373.0378723144531 386.528076171875 377.5236511230469 386.558837890625 C 383.47869873046875 386.01934814453125 386.9881591796875 386.44195556640625 391.48248291015625 387.2408142089844 C 390.77850341796875 382.88299560546875 389.84124755859375 379.0438232421875 388.8358154296875 375.6467590332031 C 387.49560546875 371.6725158691406 385.9596252441406 368.21923828125 384.9703369140625 364.5596618652344"/>
    <path stroke-width="0" fill="rgb(0, 0, 0)" opacity="1.0" d="M 497.5265197753906 426.1252136230469 C 497.2525329589844 417.5875244140625 499.5268859863281 406.0779113769531 499.860107421875 399.5491027832031 C 499.9156799316406 397.84393310546875 498.0805358886719 395.7467346191406 491.6307373046875 391.6289978027344 C 483.60638427734375 387.66888427734375 477.06390380859375 382.89971923828125 469.6299743652344 377.029296875 C 463.2283935546875 370.7789001464844 457.80169677734375 363.4236755371094 438.97613525390625 373.6675109863281 C 461.02264404296875 351.3603515625 453.7980651855469 355.8579406738281 464.8648376464844 348.7328186035156 C 454.5640563964844 358.205810546875 455.02685546875 359.9217529296875 455.6821594238281 361.9183349609375 C 456.8684387207031 365.4734802246094 457.5870056152344 367.98809814453125 458.54241943359375 370.225830078125 C 460.0799255371094 375.27294921875 460.5682678222656 381.5249328613281 460.8680725097656 382.9585266113281 C 462.67578125 390.7338562011719 462.7833251953125 398.7904357910156 463.9810791015625 404.3771057128906 C 465.4797058105469 414.32958984375 467.8283386230469 422.05645751953125 468.6822814941406 431.8553466796875 C 460.09759521484375 432.1856689453125 453.42437744140625 432.8138122558594 447.3544921875 433.2591247558594 C 446.9595031738281 429.5687561035156 446.6070861816406 425.1058654785156 445.98052978515625 420.9000549316406 C 445.37322998046875 415.5341491699219 444.7984313964844 411.9244384765625 442.0599365234375 406.8416442871094 C 440.8332214355469 403.18853759765625 440.8372497558594 398.4912109375 443.2655944824219 392.3059387207031 C 441.0694274902344 387.3252258300781 440.8313903808594 385.8645935058594 441.50018310546875 379.3277587890625 C 441.30499267578125 377.722900390625 440.4724426269531 374.03179931640625 439.3627014160156 369.45867919921875 C 439.05029296875 366.67266845703125 438.486083984375 363.5523681640625 438.0009460449219 359.6781921386719 C 437.3372497558594 355.3411865234375 436.9764709472656 351.404296875 434.905517578125 343.5055236816406 C 435.2650146484375 340.01007080078125 436.64727783203125 333.7320861816406 437.6908874511719 329.9054260253906 C 443.4124450683594 330.9411315917969 447.39373779296875 331.2400207519531 454.1534423828125 333.3503112792969 C 457.238525390625 333.9293518066406 461.45013427734375 334.00006103515625 464.69708251953125 334.2681579589844 C 466.091552734375 338.1866760253906 467.63934326171875 341.32867431640625 469.84625244140625 345.4712829589844 C 473.0713806152344 350.564697265625 477.3022155761719 355.4862365722656 482.3890686035156 359.1881408691406 C 488.60736083984375 363.2050476074219 495.71697998046875 367.36297607421875 502.44207763671875 371.8304748535156 C 510.7400817871094 377.63043212890625 518.0647583007812 385.8155517578125 519.5054931640625 399.6124267578125 C 520.5518188476562 399.7348327636719 504.7417297363281 399.7885437011719 507.5956115722656 399.6688232421875 C 510.74383544921875 396.30328369140625 512.6459350585938 393.0469055175781 514.3049926757812 387.15399169921875 C 516.6363525390625 381.2641906738281 518.411376953125 376.4654541015625 520.47802734375 370.5626220703125 C 522.3079223632812 363.2558898925781 524.7274780273438 355.6893615722656 526.2074584960938 347.62158203125 C 527.965576171875 340.224853515625 530.6378173828125 330.0755615234375 532.8333740234375 323.29168701171875 C 539.2943115234375 323.4752502441406 542.2265014648438 323.1676025390625 543.3416748046875 323.52728271484375 C 546.45947265625 324.4000244140625 550.1744384765625 324.85284423828125 555.431396484375 324.58367919921875 C 555.4923706054688 328.72955322265625 555.8858642578125 332.7345275878906 555.807373046875 340.8163146972656 C 554.296875 347.1419677734375 553.2405395507812 352.0364685058594 552.1704711914062 356.366455078125 C 550.9916381835938 360.4056701660156 550.9383544921875 364.2106018066406 550.6199340820312 367.9059753417969 C 550.2599487304688 372.8472900390625 550.3679809570312 377.11065673828125 550.0667114257812 375.14569091796875 C 551.8710327148438 380.37725830078125 553.5658569335938 384.5337219238281 555.4541015625 389.6567687988281 C 554.4365234375 394.6930847167969 553.2474365234375 399.8915710449219 552.656982421875 403.7904357910156 C 552.7857666015625 407.91796875 552.9647216796875 413.06170654296875 552.8403930664062 418.0929870605469 C 552.0040283203125 422.3191833496094 551.4287719726562 425.6858825683594 550.8751831054688 428.66802978515625 C 544.421142578125 427.77911376953125 539.5612182617188 426.5165710449219 533.6183471679688 426.0240478515625 C 533.6396484375 423.2322998046875 533.4891357421875 419.96099853515625 533.1825561523438 416.4056701660156 C 533.155517578125 414.89227294921875 533.5145263671875 410.2148742675781 533.4408569335938 405.4164123535156 C 534.540771484375 399.4070129394531 536.3826904296875 393.39935302734375 537.195068359375 390.2879943847656 C 538.4674072265625 395.54925537109375 536.4766235351562 391.7362365722656 534.4072265625 387.0488586425781 C 533.2958984375 382.8658142089844 532.14990234375 379.87060546875 531.7186889648438 374.35137939453125 C 531.6237182617188 370.2655334472656 531.6123046875 365.9283447265625 531.8181762695312 362.3638916015625 C 532.205078125 357.3065490722656 533.138671875 353.0830078125 533.7811889648438 350.650146484375 C 545.1361694335938 351.9222106933594 544.8234252929688 352.0244445800781 542.8170166015625 352.16937255859375 C 541.0621948242188 361.3354187011719 539.314453125 368.7484436035156 537.9951782226562 375.5329284667969 C 536.0775146484375 383.0265808105469 534.0341186523438 389.34228515625 531.9202270507812 396.3834228515625 C 529.4566650390625 403.30548095703125 525.5035400390625 409.88543701171875 520.9322509765625 416.32476806640625 C 514.6172485351562 421.577392578125 521.2095947265625 422.4593505859375 518.330810546875 429.6102294921875 C 514.4661254882812 429.4795227050781 510.7734375 429.4396667480469 508.2794189453125 429.4874267578125 C 506.2795104980469 428.966796875 501.8832092285156 427.4239196777344 497.5265197753906 426.1252136230469"/>
    <path stroke-width="0" fill="rgb(0, 0, 0)" opacity="1.0" d="M 60.90414810180664 339.2533874511719 C 58.070579528808594 334.8164367675781 51.80933380126953 328.72296142578125 46.023677825927734 321.5094299316406 C 42.163761138916016 313.8996887207031 38.65935134887695 306.16119384765625 35.7010383605957 296.9237060546875 C 35.66613006591797 286.7513732910156 37.843807220458984 281.00091552734375 39.401798248291016 275.60601806640625 C 43.77667999267578 266.04339599609375 47.426109313964844 261.1109313964844 52.71168899536133 254.90420532226562 C 56.34147262573242 250.65150451660156 60.075164794921875 248.20521545410156 63.625492095947266 244.82310485839844 C 65.59452819824219 241.36607360839844 68.4958724975586 236.93202209472656 72.8480453491211 231.9714813232422 C 79.07568359375 227.89346313476562 83.39706420898438 224.1202850341797 88.9797134399414 221.2267303466797 C 94.5284652709961 218.43734741210938 97.65303039550781 217.7897186279297 99.63069915771484 217.8060302734375 C 105.08966064453125 220.0213165283203 106.71764373779297 219.42269897460938 111.86212158203125 219.38645935058594 C 113.88656616210938 220.71981811523438 115.45275115966797 222.38870239257812 116.7606201171875 223.74136352539062 C 118.68370819091797 225.76101684570312 121.95114135742188 228.63575744628906 125.61013793945312 233.42384338378906 C 129.0321807861328 238.60877990722656 132.6338653564453 244.20274353027344 135.8256378173828 250.76882934570312 C 137.28533935546875 255.67953491210938 139.3228759765625 260.23016357421875 140.80419921875 261.95855712890625 C 141.9281463623047 256.2535400390625 141.35426330566406 257.6011047363281 143.566162109375 257.51177978515625 C 148.16845703125 257.40576171875 151.49893188476562 258.35528564453125 153.1963653564453 260.41998291015625 C 155.0941619873047 262.58624267578125 155.82740783691406 264.9834289550781 155.72793579101562 268.22021484375 C 155.49337768554688 270.89910888671875 153.96607971191406 273.4859924316406 151.1378173828125 275.6012268066406 C 148.8385772705078 277.47332763671875 145.3120574951172 278.1556091308594 141.52708435058594 277.47821044921875 C 137.0523681640625 277.0040283203125 133.68409729003906 276.5990295410156 128.67257690429688 274.46905517578125 C 124.12443542480469 273.0449523925781 121.02863311767578 271.3741455078125 117.14008331298828 267.6266174316406 C 118.84812927246094 266.62872314453125 120.25575256347656 265.82476806640625 121.56988525390625 264.9898681640625 C 120.7271499633789 268.46514892578125 119.00808715820312 271.3325500488281 117.062255859375 273.5072326660156 C 115.63040161132812 276.1689453125 114.15416717529297 277.7646179199219 111.38218688964844 279.94903564453125 C 108.0945816040039 280.84271240234375 105.6875228881836 281.31317138671875 102.41886138916016 281.5249328613281 C 98.67384338378906 281.745849609375 101.65941619873047 281.7942810058594 95.29537200927734 280.7909851074219 C 92.48958587646484 280.0932312011719 89.9415512084961 279.49261474609375 86.41770935058594 278.884521484375 C 82.71773529052734 278.109619140625 80.35113525390625 276.9399108886719 76.787353515625 274.2731628417969 C 74.46404266357422 271.16015625 71.52680206298828 267.5079345703125 68.4056396484375 262.88482666015625 C 70.55253601074219 262.6950378417969 72.76215362548828 262.59039306640625 74.90641021728516 262.3089599609375 C 72.63876342773438 266.1978759765625 70.78795623779297 270.4098205566406 69.42351531982422 274.7153015136719 C 66.60801696777344 278.5171203613281 63.63143539428711 281.4778747558594 62.21950912475586 284.1710205078125 C 61.05092239379883 286.41632080078125 60.70945739746094 289.7182922363281 60.765567779541016 294.9398193359375 C 60.884857177734375 295.5688781738281 63.25593948364258 299.9549560546875 66.4992446899414 304.4857482910156 C 68.65303802490234 310.21234130859375 71.25203704833984 315.07440185546875 73.59429931640625 319.89031982421875 C 75.25110626220703 322.9730224609375 77.28022766113281 327.5326232910156 79.16680908203125 331.46807861328125 C 72.13016510009766 334.0851745605469 66.49253845214844 336.3891906738281 60.90414810180664 339.2533874511719M 101.35272979736328 260.161376953125 C 104.15403747558594 260.0799560546875 104.87886810302734 259.8525695800781 106.58438873291016 258.8618469238281 C 108.0858154296875 257.9398498535156 108.76522827148438 257.1497497558594 109.16264343261719 255.5096893310547 C 109.64628601074219 254.0474090576172 109.42023468017578 252.660888671875 108.3800277709961 250.211669921875 C 107.2357177734375 247.56973266601562 106.64300537109375 246.40802001953125 106.20528411865234 245.33502197265625 C 105.68269348144531 244.49072265625 104.8031005859375 243.3423614501953 103.82977294921875 242.37184143066406 C 103.01899719238281 241.33563232421875 102.447998046875 240.85874938964844 101.65308380126953 240.14698791503906 C 100.81317901611328 239.63987731933594 100.03069305419922 239.22117614746094 98.62935638427734 239.2652130126953 C 97.67832946777344 239.30555725097656 96.43282318115234 239.63282775878906 94.27729797363281 241.01611328125 C 92.96815490722656 241.92620849609375 90.71468353271484 243.58062744140625 89.31268310546875 244.61399841308594 C 87.6036605834961 246.06686401367188 86.31970977783203 247.0621795654297 85.07420349121094 248.32540893554688 C 84.0417251586914 249.33229064941406 83.41817474365234 250.40542602539062 83.02706909179688 251.0917510986328 C 82.53861236572266 249.23263549804688 81.98713684082031 247.73580932617188 81.21453857421875 245.7991485595703 C 83.45849609375 249.45248413085938 85.8360366821289 252.47601318359375 88.28498840332031 255.17027282714844 C 91.07981872558594 257.4113464355469 92.95875549316406 258.5399475097656 94.34385681152344 259.1077575683594 C 96.02031707763672 259.6634826660156 99.7065658569336 260.19500732421875 101.35272979736328 260.161376953125"/>
    <path stroke-width="0" fill="rgb(0, 0, 0)" opacity="1.0" d="M 143.65570068359375 277.9072570800781 C 144.60650634765625 270.5587463378906 145.17030334472656 264.4574890136719 145.1584014892578 257.40234375 C 150.15585327148438 257.5555114746094 152.07681274414062 257.306640625 153.3671417236328 256.6593933105469 C 154.86363220214844 255.74551391601562 155.29409790039062 254.7801055908203 154.95094299316406 252.72427368164062 C 154.5255889892578 249.82754516601562 153.98463439941406 242.92164611816406 153.77362060546875 234.20614624023438 C 156.09043884277344 207.7799835205078 157.95098876953125 185.7862091064453 161.45208740234375 166.1763916015625 C 165.4927978515625 166.85150146484375 167.9472198486328 166.75421142578125 171.83494567871094 165.7314453125 C 177.2356719970703 185.9828643798828 179.5060577392578 208.5616912841797 179.66864013671875 235.8010711669922 C 178.29847717285156 242.83917236328125 178.77880859375 247.48922729492188 180.1482696533203 250.29905700683594 C 181.00067138671875 251.94773864746094 182.82730102539062 253.42308044433594 186.144775390625 254.51861572265625 C 190.0688934326172 256.44207763671875 194.66079711914062 258.92559814453125 198.34323120117188 259.72576904296875 C 202.595947265625 260.9538879394531 205.3521270751953 262.9131164550781 206.29945373535156 264.8260498046875 C 207.37820434570312 266.7748718261719 207.8343963623047 269.5706787109375 207.1435089111328 272.4402160644531 C 206.36326599121094 275.4828186035156 204.4185333251953 277.9075622558594 201.42901611328125 279.1511535644531 C 198.7808074951172 280.1284484863281 195.72824096679688 279.92266845703125 192.5093536376953 278.8737487792969 C 188.99169921875 277.875732421875 186.76651000976562 276.95697021484375 183.11715698242188 275.2308654785156 C 181.44166564941406 274.7423400878906 178.5315399169922 273.347412109375 175.517822265625 270.9234619140625 C 172.30409240722656 268.9161071777344 170.08433532714844 265.0328063964844 169.1383514404297 259.7210388183594 C 171.21096801757812 259.56988525390625 173.55398559570312 259.3472595214844 175.8349609375 259.169921875 C 174.66213989257812 264.0884704589844 173.11680603027344 268.559326171875 170.3491973876953 272.41705322265625 C 166.56143188476562 275.96746826171875 162.403076171875 277.7271728515625 158.054443359375 278.4490966796875 C 153.6478271484375 278.5474853515625 148.97886657714844 278.4147033691406 143.65570068359375 277.9072570800781"/>
    <path stroke-width="0" fill="rgb(0, 0, 0)" opacity="1.0" d="M 193.578857421875 279.1536560058594 C 195.46145629882812 273.129150390625 197.3134765625 266.55950927734375 199.87965393066406 259.9926452636719 C 204.45770263671875 261.758056640625 208.52894592285156 262.8829040527344 212.44781494140625 263.2068786621094 C 218.38629150390625 262.3551940917969 219.19129943847656 262.20550537109375 220.9928741455078 260.7521057128906 C 223.65667724609375 257.1018981933594 229.2438507080078 252.09701538085938 235.231689453125 247.6728973388672 C 242.23263549804688 243.8734893798828 246.46697998046875 242.48973083496094 249.826416015625 241.24423217773438 C 246.2256317138672 241.58377075195312 244.45704650878906 241.36859130859375 238.55137634277344 241.1573944091797 C 234.5707244873047 239.85340881347656 231.83953857421875 238.80844116210938 227.67079162597656 237.00848388671875 C 225.08677673339844 235.36351013183594 221.3685302734375 233.38174438476562 217.99246215820312 231.7080841064453 C 216.90542602539062 231.01620483398438 219.8852996826172 232.95266723632812 218.89462280273438 232.56625366210938 C 217.4095458984375 231.96214294433594 217.1818084716797 229.28623962402344 214.66949462890625 228.84652709960938 C 212.92498779296875 228.65936279296875 210.98171997070312 228.73326110839844 209.3974151611328 228.8832244873047 C 210.22674560546875 221.99720764160156 211.8559112548828 217.21470642089844 213.5423126220703 210.86801147460938 C 215.871337890625 211.27117919921875 218.81210327148438 212.21719360351562 221.5859832763672 213.41888427734375 C 223.38937377929688 213.85353088378906 224.90185546875 214.1038055419922 227.34950256347656 214.75869750976562 C 230.9090118408203 216.90811157226562 233.25274658203125 218.7108154296875 235.95977783203125 220.91761779785156 C 237.95382690429688 222.71359252929688 239.96531677246094 224.11825561523438 241.58656311035156 225.09349060058594 C 243.3016815185547 225.87774658203125 244.42494201660156 225.81219482421875 248.854248046875 225.9400634765625 C 249.9521484375 225.95065307617188 256.1634521484375 226.57371520996094 261.3182678222656 228.08511352539062 C 265.8582458496094 229.11221313476562 271.3739013671875 230.30096435546875 273.6184387207031 230.6342010498047 C 274.9853820800781 230.86416625976562 276.76123046875 231.00355529785156 278.6255187988281 231.24391174316406 C 278.607421875 237.90257263183594 278.2218933105469 243.7784881591797 277.4779968261719 248.7543487548828 C 274.7422790527344 248.2322998046875 272.486328125 248.2943572998047 269.2839050292969 249.50418090820312 C 266.7472229003906 251.11813354492188 263.101806640625 253.98690795898438 258.2380065917969 257.885009765625 C 256.98919677734375 258.57098388671875 252.69375610351562 262.25250244140625 249.3103485107422 264.572021484375 C 248.17225646972656 265.5503234863281 246.1588134765625 267.916259765625 242.8096923828125 272.605224609375 C 237.14344787597656 279.91094970703125 229.60089111328125 284.9140930175781 221.5303497314453 287.5789794921875 C 210.93014526367188 286.023681640625 201.09402465820312 282.4010925292969 193.578857421875 279.1536560058594"/>
  </g>
</svg>
