<?xml version="1.0" ?>
<svg xmlns="http://www.w3.org/2000/svg" version="1.1" width="600" height="600">
  <defs/>
  <g>
    <path stroke-width="0" fill="rgb(0, 0, 0)" opacity="1.0" d="M 131.21714782714844 443.2554931640625 C 128.10064697265625 443.5084533691406 124.49723052978516 443.8116455078125 124.32678985595703 445.0672302246094 C 119.6363754272461 445.0420837402344 114.52881622314453 444.8304443359375 111.67943572998047 444.3724670410156 C 116.94568634033203 444.0291442871094 114.28069305419922 444.8710632324219 111.05955505371094 445.7713317871094 C 107.52771759033203 445.9146728515625 102.49726104736328 445.4845275878906 95.58499145507812 444.7378845214844 C 93.9905776977539 444.4596252441406 90.34437561035156 444.82025146484375 88.1289291381836 445.210693359375 C 82.78993225097656 445.07550048828125 81.49441528320312 445.3233642578125 78.36659240722656 445.6004333496094 C 76.23684692382812 446.0676574707031 75.73261260986328 443.2568054199219 72.2804946899414 443.7836608886719 C 69.59918975830078 444.2703857421875 67.0105972290039 444.6171569824219 64.62322235107422 445.2760925292969 C 64.0025863647461 443.1097717285156 63.699501037597656 440.7342224121094 63.625301361083984 438.58587646484375 C 63.27463150024414 435.9905700683594 62.846153259277344 434.649658203125 62.51653289794922 433.0536804199219 C 61.77841567993164 429.45867919921875 61.53658676147461 422.6800537109375 61.42333221435547 420.0973815917969 C 60.88900375366211 413.3728942871094 62.05633544921875 422.9363708496094 61.406150817871094 417.47064208984375 C 63.51280975341797 410.4645080566406 64.38726043701172 405.7713928222656 64.0865249633789 414.0310363769531 C 62.608089447021484 407.7076416015625 62.627960205078125 403.4055480957031 62.82426834106445 399.2076416015625 C 63.134647369384766 395.687255859375 64.10359954833984 393.1400451660156 64.51331329345703 391.63372802734375 C 65.59912109375 387.517333984375 63.58655548095703 392.3497009277344 63.6376953125 389.9787292480469 C 63.79897689819336 385.9238586425781 63.96748733520508 381.98553466796875 64.46830749511719 379.00262451171875 C 64.76861572265625 376.5686340332031 64.83106231689453 374.75408935546875 65.23531341552734 371.257080078125 C 65.82621002197266 367.22467041015625 66.05791473388672 365.8359069824219 67.0701675415039 371.3826904296875 C 66.59807586669922 368.7888488769531 65.99793243408203 366.12713623046875 65.3335952758789 363.6664733886719 C 64.66030883789062 360.949951171875 64.12651824951172 357.5281982421875 64.03797149658203 353.3740234375 C 63.830291748046875 351.4212951660156 63.24617385864258 347.1295471191406 63.28617858886719 342.0225830078125 C 64.93730926513672 342.0527038574219 67.46395111083984 341.4002990722656 66.53781127929688 339.3926696777344 C 65.02973937988281 336.663818359375 65.15450286865234 334.029296875 65.13329315185547 331.1156311035156 C 68.7697982788086 331.1022644042969 68.02888488769531 329.4122009277344 72.14920043945312 327.73388671875 C 75.87877655029297 326.4739685058594 79.43917083740234 325.9172058105469 82.13674926757812 326.0050354003906 C 85.01225280761719 326.5888366699219 87.61847686767578 326.99774169921875 90.70648956298828 327.46923828125 C 93.44630432128906 327.9298095703125 97.58186340332031 328.2822265625 99.81010437011719 328.3310546875 C 103.00399017333984 328.86138916015625 104.87538146972656 329.3058776855469 106.53865814208984 329.24224853515625 C 110.1640853881836 328.82598876953125 114.9111557006836 328.6806335449219 117.84422302246094 328.2948913574219 C 119.40019989013672 327.877685546875 122.96684265136719 328.20587158203125 123.02699279785156 330.396728515625 C 126.93883514404297 330.0169677734375 130.3375701904297 329.3642578125 133.15786743164062 328.3353271484375 C 133.8536834716797 330.2837219238281 134.34735107421875 332.73394775390625 134.72463989257812 334.619873046875 C 135.14747619628906 337.1419982910156 135.26942443847656 337.9615173339844 135.60374450683594 339.7667236328125 C 135.60885620117188 342.7324523925781 132.82427978515625 343.6123352050781 133.27590942382812 345.4039611816406 C 133.74058532714844 347.0191955566406 133.96376037597656 348.11334228515625 134.4687042236328 349.4381103515625 C 131.57235717773438 350.47308349609375 128.7097625732422 351.054443359375 126.02172088623047 350.91632080078125 C 121.23625946044922 350.9104309082031 118.57064056396484 350.874755859375 123.5537109375 350.7646484375 C 120.57301330566406 351.482666015625 119.15119934082031 351.6162109375 116.27206420898438 351.3788757324219 C 112.01082611083984 351.5920715332031 110.59834289550781 351.7052917480469 107.92516326904297 351.84710693359375 C 105.12263488769531 351.9938659667969 102.57063293457031 351.983642578125 101.16033935546875 351.716064453125 C 98.07148742675781 351.5101318359375 101.72273254394531 351.3419189453125 97.98185729980469 351.3080749511719 C 95.15870666503906 351.34857177734375 92.6811294555664 350.80218505859375 90.63998413085938 350.5771484375 C 90.6768798828125 352.9242858886719 90.74981689453125 353.93841552734375 91.20916748046875 355.5469055175781 C 91.84741973876953 359.029052734375 92.19086456298828 360.7158203125 92.74346923828125 363.5923156738281 C 92.96903228759766 365.158935546875 93.380615234375 366.988037109375 92.94747924804688 369.8524169921875 C 92.71088409423828 371.9399719238281 92.24005126953125 374.0197448730469 91.9854507446289 375.54083251953125 C 94.44974517822266 375.7332763671875 97.29907989501953 375.65716552734375 100.68333435058594 375.6678161621094 C 101.16023254394531 375.49578857421875 104.53802490234375 374.6468811035156 108.86954498291016 373.6370849609375 C 112.84435272216797 373.9239196777344 117.80301666259766 373.5533142089844 117.59889221191406 377.46942138671875 C 122.85845184326172 375.51507568359375 125.24593353271484 375.64141845703125 127.68428039550781 375.95916748046875 C 127.50576782226562 377.28668212890625 127.56201934814453 378.2236022949219 127.66637420654297 378.7045593261719 C 130.64002990722656 381.1134033203125 130.92184448242188 383.3223876953125 131.4927520751953 385.6065368652344 C 127.4004135131836 386.17425537109375 128.1212615966797 390.7410583496094 128.10821533203125 392.99871826171875 C 128.08953857421875 394.91229248046875 127.31085968017578 396.1099853515625 126.48695373535156 397.6891174316406 C 123.73854064941406 396.13592529296875 122.43223571777344 398.3575439453125 119.26063537597656 398.5267639160156 C 116.13075256347656 398.02288818359375 109.99256896972656 397.5265197753906 106.62820434570312 396.8944396972656 C 109.06180572509766 397.1705017089844 106.38311004638672 397.8140563964844 101.81462860107422 399.76165771484375 C 97.18965911865234 399.4319763183594 94.14793395996094 399.3434753417969 90.1715316772461 398.59075927734375 C 88.55177307128906 403.6012268066406 89.63704681396484 399.98358154296875 89.38801574707031 401.75775146484375 C 89.27958679199219 405.2437744140625 89.08129119873047 403.9141845703125 91.20391845703125 412.2253112792969 C 90.9867935180664 413.5593566894531 89.20211029052734 421.2948303222656 89.43614959716797 415.5326843261719 C 88.19825744628906 411.8533935546875 87.56770324707031 414.6418151855469 86.59346008300781 421.70751953125 C 90.85505676269531 420.9097900390625 92.2238540649414 420.8045654296875 97.07510375976562 420.7564697265625 C 100.76260375976562 421.7647399902344 101.86719512939453 421.9536437988281 106.00443267822266 422.1078186035156 C 107.42707061767578 422.1912841796875 108.12822723388672 422.0056457519531 110.5597152709961 422.3026123046875 C 105.46297454833984 422.7627258300781 106.8425521850586 422.315673828125 108.48847961425781 421.5966491699219 C 111.7422866821289 420.3539123535156 113.7394027709961 420.567626953125 116.35858154296875 421.02203369140625 C 117.79367065429688 421.33013916015625 121.97611999511719 421.6541748046875 126.27287292480469 422.411376953125 C 127.02668762207031 422.4720764160156 128.33851623535156 422.87994384765625 129.30667114257812 422.93804931640625 C 130.20953369140625 424.8507995605469 132.02304077148438 423.9281005859375 133.91055297851562 423.0499572753906 C 134.84706115722656 425.230224609375 135.353759765625 426.5650939941406 134.9093017578125 428.9748229980469 C 134.62229919433594 430.6075134277344 134.4322509765625 432.1705017089844 133.468505859375 435.1510925292969 C 133.38096618652344 436.8580017089844 133.2728271484375 437.6183166503906 130.63473510742188 437.5367736816406 C 130.8063507080078 439.15411376953125 131.099609375 441.1712951660156 131.21714782714844 443.2554931640625"/>
    <path stroke-width="0" fill="rgb(0, 0, 0)" opacity="1.0" d="M 236.26531982421875 445.6355895996094 C 235.62632751464844 439.9181213378906 234.9791717529297 438.0523681640625 232.21615600585938 433.24169921875 C 229.3186492919922 429.3262634277344 227.89566040039062 423.95697021484375 226.89306640625 420.4415588378906 C 223.0166473388672 420.1695861816406 217.04127502441406 419.7892761230469 211.47201538085938 419.9418640136719 C 205.88548278808594 419.0823974609375 207.98423767089844 419.52276611328125 205.49888610839844 420.11956787109375 C 202.51333618164062 422.1947326660156 196.16427612304688 423.3682556152344 190.80865478515625 421.80987548828125 C 186.25523376464844 422.490478515625 179.7171173095703 420.5437927246094 173.8634490966797 418.3934631347656 C 171.21340942382812 423.9722900390625 169.16116333007812 428.12506103515625 167.08468627929688 431.56024169921875 C 166.2806854248047 434.2237548828125 166.17391967773438 436.83868408203125 165.8319549560547 440.7438659667969 C 161.6615753173828 442.0422668457031 156.44924926757812 443.8548278808594 154.99850463867188 443.76263427734375 C 150.39479064941406 444.6715393066406 143.80029296875 445.2646484375 137.12879943847656 444.93341064453125 C 138.247314453125 441.4129333496094 139.7006072998047 438.2413635253906 140.11476135253906 436.94818115234375 C 141.4664764404297 433.4801025390625 141.92250061035156 431.804443359375 142.6919403076172 429.1845397949219 C 143.92752075195312 425.5743713378906 144.0418243408203 425.12408447265625 146.43055725097656 420.7394714355469 C 148.3440399169922 417.0785827636719 148.67616271972656 416.3986511230469 150.00189208984375 414.8336486816406 C 151.3636474609375 412.8621826171875 152.13763427734375 411.357666015625 152.96890258789062 408.8296203613281 C 154.1439208984375 405.9329833984375 155.53704833984375 403.1402893066406 156.57176208496094 400.7755126953125 C 159.35585021972656 396.2912902832031 159.64768981933594 395.4388732910156 160.2003173828125 392.0671691894531 C 160.9973602294922 389.9188537597656 162.2372589111328 386.13287353515625 163.85194396972656 383.09722900390625 C 163.70587158203125 390.1083984375 165.37020874023438 385.6363830566406 166.3859100341797 380.88543701171875 C 167.19264221191406 379.02264404296875 168.18914794921875 376.18035888671875 168.6166229248047 374.3082580566406 C 170.2428741455078 370.76812744140625 171.55465698242188 368.4850769042969 172.13381958007812 367.1040954589844 C 172.4696807861328 365.9212646484375 173.82284545898438 361.42816162109375 174.92794799804688 359.303955078125 C 177.05735778808594 355.4797058105469 178.1074676513672 352.15777587890625 178.81382751464844 348.2562561035156 C 179.88601684570312 344.52911376953125 180.39154052734375 342.6426086425781 182.93429565429688 337.3866882324219 C 184.16448974609375 335.3563232421875 185.49522399902344 332.081298828125 187.01400756835938 328.2435607910156 C 190.47427368164062 328.9621276855469 193.09933471679688 330.17803955078125 194.92466735839844 329.7193298339844 C 196.1243133544922 329.9421691894531 200.1488494873047 329.8328857421875 204.0417938232422 329.66748046875 C 199.76979064941406 329.7535400390625 203.21994018554688 329.0769348144531 206.0818634033203 328.29010009765625 C 208.99478149414062 327.6745300292969 212.7430419921875 327.0062561035156 216.60501098632812 325.8907165527344 C 218.192626953125 329.7587585449219 219.033447265625 332.5584716796875 219.9477996826172 334.3149108886719 C 221.64727783203125 338.36669921875 222.8616180419922 341.02520751953125 224.01931762695312 343.9647521972656 C 225.22792053222656 351.6089782714844 225.62362670898438 356.5830993652344 223.67735290527344 349.3091125488281 C 226.59068298339844 355.7282409667969 227.22885131835938 358.13134765625 227.40988159179688 359.58221435546875 C 228.17433166503906 361.0675964355469 229.11598205566406 363.73321533203125 229.93946838378906 365.4653015136719 C 230.8120574951172 367.3843688964844 232.785400390625 370.1333312988281 234.17518615722656 372.39324951171875 C 234.9686279296875 376.1279296875 235.67822265625 378.9848937988281 236.6883087158203 382.1442565917969 C 237.77850341796875 385.09307861328125 238.3528594970703 387.7283935546875 238.0286407470703 386.3885498046875 C 239.02308654785156 388.7088928222656 240.10231018066406 391.04852294921875 241.0685272216797 395.01275634765625 C 242.06529235839844 397.83953857421875 243.03611755371094 400.4385986328125 244.39820861816406 403.2466125488281 C 244.7584228515625 404.25067138671875 245.38302612304688 405.2685546875 246.82537841796875 409.0913391113281 C 247.1293182373047 409.6776428222656 249.18516540527344 412.8911437988281 249.9762725830078 414.2191467285156 C 250.93557739257812 415.914306640625 252.99688720703125 418.71441650390625 255.16172790527344 421.9510803222656 C 256.7159423828125 425.7997131347656 257.68975830078125 427.9255676269531 258.5618896484375 430.30462646484375 C 259.29034423828125 432.26702880859375 260.00567626953125 434.2330322265625 261.4584655761719 437.6422119140625 C 262.0374755859375 439.0588684082031 264.2601318359375 443.0441589355469 266.38177490234375 447.7147521972656 C 257.9625244140625 447.45062255859375 251.85130310058594 446.263916015625 246.53424072265625 444.9596252441406 C 244.5995330810547 444.80517578125 242.7917022705078 444.75537109375 236.26531982421875 445.6355895996094M 210.45213317871094 375.1729736328125 C 209.60166931152344 372.97515869140625 208.53619384765625 370.4256591796875 207.6298828125 367.60040283203125 C 206.52505493164062 364.9468078613281 205.43426513671875 361.3914489746094 204.4054718017578 358.37335205078125 C 203.9302520751953 355.6720275878906 202.453857421875 351.8581848144531 201.87828063964844 350.42498779296875 C 201.5863800048828 351.82781982421875 201.35423278808594 355.7192687988281 200.91424560546875 358.524169921875 C 200.3401336669922 361.8364562988281 199.30142211914062 365.4005126953125 198.8583984375 367.3430480957031 C 197.9333953857422 370.4619140625 196.98709106445312 373.3679504394531 196.22654724121094 375.5892028808594 C 194.0788116455078 380.0666809082031 193.3367919921875 382.6325988769531 192.3751983642578 385.96832275390625 C 190.86558532714844 390.2757568359375 189.92958068847656 393.58087158203125 187.8318328857422 397.21844482421875 C 193.4203338623047 398.0863037109375 197.8819122314453 398.38690185546875 203.13011169433594 398.3832092285156 C 208.10638427734375 398.10198974609375 212.21006774902344 398.3214111328125 219.06117248535156 398.1629943847656 C 216.72915649414062 392.72625732421875 215.9351806640625 388.5535888671875 215.0336151123047 385.2980651855469 C 213.3368682861328 381.4178771972656 212.03421020507812 378.8591613769531 210.45213317871094 375.1729736328125"/>
    <path stroke-width="0" fill="rgb(0, 0, 0)" opacity="1.0" d="M 318.6183166503906 381.13134765625 C 322.4873352050781 381.36444091796875 327.04791259765625 382.0301208496094 331.9749755859375 382.28668212890625 C 333.9697570800781 382.5067443847656 336.0466613769531 382.5595397949219 342.40875244140625 382.5012512207031 C 347.1166076660156 382.2366943359375 350.8307189941406 382.217529296875 355.2053527832031 382.92083740234375 C 357.518798828125 382.34088134765625 362.2719421386719 381.47723388671875 365.17559814453125 381.0716857910156 C 365.25384521484375 383.2935485839844 365.1094055175781 385.1316833496094 365.9078369140625 386.8603820800781 C 367.3097229003906 392.5787048339844 367.01470947265625 395.46435546875 366.79888916015625 396.8282775878906 C 367.0465087890625 401.20465087890625 367.0890808105469 403.0684509277344 366.576904296875 406.7803955078125 C 365.244140625 398.1120300292969 366.2460632324219 407.8022766113281 366.34912109375 410.7742919921875 C 366.3456726074219 411.9848937988281 365.71240234375 416.49200439453125 365.87158203125 417.9984436035156 C 366.03314208984375 419.3382568359375 366.4573059082031 421.3810119628906 366.8299255371094 424.501220703125 C 367.92755126953125 427.4900817871094 368.3003234863281 432.5299377441406 366.3956604003906 433.4560546875 C 363.4125671386719 437.0132751464844 365.7891540527344 439.0826416015625 367.5740051269531 440.81982421875 C 366.0274658203125 443.39166259765625 364.413818359375 446.74163818359375 360.7272644042969 449.6741027832031 C 357.7070007324219 449.8648986816406 354.81243896484375 450.435791015625 348.9974060058594 450.8746337890625 C 340.7998046875 451.3389892578125 335.3227233886719 449.54962158203125 332.7039794921875 448.98577880859375 C 327.92578125 447.88702392578125 325.7757263183594 447.635986328125 320.6175842285156 447.9619140625 C 320.2225646972656 447.9599609375 315.70660400390625 446.2247009277344 313.4207763671875 445.6971435546875 C 309.7521057128906 444.93341064453125 308.5289306640625 444.5645446777344 304.74993896484375 442.98846435546875 C 300.8276062011719 439.58538818359375 298.2708435058594 437.8982849121094 294.4002990722656 435.34344482421875 C 291.2898254394531 433.46240234375 288.3443603515625 430.9312744140625 285.6993408203125 428.7374267578125 C 281.5179443359375 425.55572509765625 279.3984680175781 423.5970764160156 276.500732421875 419.8244934082031 C 275.176025390625 418.18798828125 273.2057800292969 415.2153015136719 272.3542785644531 413.92950439453125 C 271.0458068847656 412.0039367675781 270.1208190917969 410.32623291015625 268.9707336425781 407.5824279785156 C 268.05621337890625 404.5986022949219 267.4369812011719 402.0242919921875 267.1094970703125 398.9487609863281 C 267.7028503417969 392.586669921875 267.673828125 391.4239501953125 266.3542175292969 386.0065612792969 C 266.0855712890625 382.0719299316406 265.89581298828125 379.9404602050781 264.364501953125 376.4462585449219 C 263.9497375488281 371.8219909667969 264.50469970703125 368.3707275390625 265.0037536621094 366.1453552246094 C 265.0182189941406 360.46673583984375 267.692626953125 353.9359436035156 270.42645263671875 348.7649230957031 C 273.7501525878906 344.3828430175781 277.4584655761719 340.2991638183594 280.6392517089844 337.97393798828125 C 285.0762023925781 335.1516418457031 288.6375732421875 334.03765869140625 292.9847412109375 332.9664001464844 C 296.5590515136719 330.54986572265625 298.7593688964844 330.1793518066406 301.61517333984375 329.93670654296875 C 304.6885681152344 329.4683837890625 309.53839111328125 329.5375671386719 313.1620178222656 330.37762451171875 C 315.206787109375 330.6286315917969 318.0163879394531 330.87774658203125 320.3648376464844 331.3565979003906 C 323.7572021484375 331.6419372558594 328.68280029296875 332.2874450683594 331.02508544921875 332.757568359375 C 333.40533447265625 332.8180847167969 335.3072509765625 332.82562255859375 332.599609375 332.5694580078125 C 338.07281494140625 331.23260498046875 342.7926025390625 329.7922058105469 348.663330078125 328.7135009765625 C 352.4731750488281 328.9491882324219 356.6221008300781 328.9293212890625 358.3468322753906 329.1213684082031 C 361.8222351074219 329.5213928222656 364.7431335449219 329.880126953125 367.34991455078125 330.8521423339844 C 365.95855712890625 333.96636962890625 364.60589599609375 337.2245178222656 363.77099609375 339.7701721191406 C 363.0638732910156 344.244384765625 362.4554138183594 347.17803955078125 362.25335693359375 349.9880676269531 C 358.0372619628906 349.76019287109375 353.6612548828125 349.67828369140625 346.79840087890625 349.8865051269531 C 341.7924499511719 349.58868408203125 335.0951232910156 352.4505615234375 328.6910400390625 352.3954162597656 C 323.0097961425781 351.98046875 317.689453125 352.5136413574219 314.4716491699219 352.5323181152344 C 310.6562194824219 351.6772155761719 308.0481872558594 352.67974853515625 304.31085205078125 353.8895263671875 C 302.6397399902344 354.7073669433594 300.3555603027344 356.1180419921875 297.5687255859375 357.94744873046875 C 295.1403503417969 359.8876037597656 293.7135009765625 361.2668762207031 292.950439453125 362.776123046875 C 291.9595031738281 364.84619140625 291.4508361816406 366.63800048828125 290.9115295410156 370.4372863769531 C 290.4649658203125 373.40472412109375 291.08917236328125 379.1293029785156 290.1614685058594 386.6575012207031 C 292.04046630859375 391.2080078125 292.6113586425781 393.2177734375 292.5838623046875 396.7935485839844 C 293.343994140625 400.0381164550781 294.3424072265625 401.5352478027344 296.3190002441406 403.9287109375 C 298.0747375488281 407.8511657714844 299.46075439453125 409.8038330078125 300.9448547363281 411.5787353515625 C 304.233642578125 415.4234313964844 307.00238037109375 417.9429931640625 309.6170959472656 419.8048400878906 C 311.5729064941406 421.5261535644531 314.6436462402344 423.62872314453125 315.96270751953125 424.109375 C 318.5574645996094 425.01629638671875 321.6402587890625 425.7014465332031 325.0304260253906 425.9942932128906 C 327.146240234375 426.75604248046875 328.7815246582031 426.8170166015625 332.1582336425781 427.30499267578125 C 337.14764404296875 427.56329345703125 340.4709777832031 427.953125 342.2900390625 428.29718017578125 C 341.5062561035156 425.13507080078125 340.43646240234375 420.97540283203125 339.0587158203125 413.8236389160156 C 338.8056335449219 408.1554260253906 338.52960205078125 405.5922546386719 338.2491760253906 403.6330871582031 C 334.7350769042969 403.51202392578125 328.8671875 403.0703125 325.9727478027344 402.3023681640625 C 323.16119384765625 401.58453369140625 319.3120422363281 400.7735290527344 316.4669494628906 399.7325744628906 C 317.1445617675781 396.9934387207031 317.18780517578125 395.1661376953125 316.8694763183594 390.1720275878906 C 317.5785827636719 387.0791931152344 318.2448425292969 384.0599060058594 318.6183166503906 381.13134765625"/>
    <path stroke-width="0" fill="rgb(0, 0, 0)" opacity="1.0" d="M 397.38385009765625 444.8357849121094 C 396.7804260253906 442.560791015625 396.2133483886719 440.7844543457031 395.4869689941406 438.9541320800781 C 395.2347106933594 436.908935546875 394.7493591308594 434.8882141113281 395.1716613769531 431.1012268066406 C 395.41632080078125 429.38995361328125 395.5716857910156 427.2646179199219 395.7857360839844 424.9376525878906 C 395.4146423339844 422.7704772949219 395.1871337890625 420.6925964355469 395.0705871582031 414.65802001953125 C 395.0785217285156 413.9593200683594 395.4195556640625 412.511474609375 395.1942443847656 410.39208984375 C 395.0248107910156 409.6868896484375 394.7385559082031 402.7418518066406 394.9386291503906 401.67156982421875 C 396.0392150878906 397.8790588378906 396.0006103515625 396.64923095703125 394.3603820800781 392.9073486328125 C 394.1564025878906 390.6933288574219 393.7934875488281 389.7550354003906 392.80755615234375 383.2888488769531 C 397.534423828125 391.493408203125 393.8241271972656 383.267333984375 394.3389587402344 380.3910217285156 C 394.9837951660156 376.9212951660156 397.1156921386719 369.72271728515625 395.5238342285156 376.5685119628906 C 396.1584777832031 369.3123779296875 396.2467346191406 367.4547424316406 395.8620910644531 365.6331481933594 C 395.1299133300781 363.86175537109375 394.2499694824219 360.8443603515625 393.67425537109375 359.8573913574219 C 393.71533203125 355.7793884277344 393.5287170410156 351.7662658691406 393.6481018066406 350.37396240234375 C 393.42852783203125 347.8658447265625 393.5902404785156 344.3355712890625 393.59283447265625 342.7210693359375 C 393.79345703125 340.6332702636719 393.66912841796875 337.8253173828125 393.64031982421875 335.7179260253906 C 393.6952209472656 332.77874755859375 393.9772644042969 329.93304443359375 394.322509765625 327.23443603515625 C 396.6737976074219 327.6397399902344 399.0809326171875 328.06005859375 402.0823059082031 328.6285705566406 C 404.4150085449219 328.7477722167969 404.5982666015625 327.7449035644531 407.1472473144531 327.7521057128906 C 409.4631652832031 327.8780212402344 411.390625 328.11529541015625 413.9413757324219 328.4984130859375 C 416.37457275390625 328.574951171875 418.6888122558594 328.6716613769531 420.8667297363281 328.95001220703125 C 420.7569885253906 330.7869567871094 420.7225646972656 332.5362854003906 420.537841796875 334.76165771484375 C 420.2017822265625 336.3909912109375 420.1543273925781 337.3980407714844 419.96954345703125 339.16748046875 C 419.5934143066406 341.9034118652344 419.551513671875 342.6293640136719 419.3988952636719 347.513427734375 C 419.41485595703125 349.44384765625 419.5581970214844 350.8683166503906 419.3316955566406 353.5090637207031 C 419.57379150390625 357.3002014160156 419.1210021972656 351.8225402832031 420.74908447265625 357.7629089355469 C 421.8717346191406 362.2212219238281 422.1246643066406 367.82342529296875 421.8398132324219 371.7507629394531 C 421.747802734375 375.6493835449219 421.8612365722656 378.3686828613281 419.2955322265625 382.4068298339844 C 418.64892578125 385.2091369628906 418.5606689453125 377.7962951660156 418.6051025390625 383.55511474609375 C 418.942138671875 385.8390808105469 419.7264404296875 389.6459655761719 419.773681640625 392.36651611328125 C 419.0087890625 385.1830139160156 421.62298583984375 395.5292053222656 421.5263366699219 400.0428771972656 C 421.3979187011719 401.0092468261719 421.59100341796875 403.53204345703125 421.5001525878906 406.5772399902344 C 421.7038269042969 407.6360778808594 421.51507568359375 411.54302978515625 421.3089904785156 415.1542663574219 C 420.734619140625 417.904541015625 419.9789123535156 422.1676025390625 420.6463317871094 418.3864440917969 C 420.6076965332031 420.0274353027344 420.79840087890625 421.7773132324219 421.0743713378906 425.83587646484375 C 422.7605895996094 425.75830078125 425.44482421875 425.2251892089844 430.22711181640625 425.35693359375 C 436.4768371582031 424.8497619628906 443.2956848144531 424.541259765625 446.142822265625 425.1390380859375 C 448.8558654785156 425.7063293457031 452.0438232421875 426.2083740234375 453.4281311035156 425.9463806152344 C 458.3363952636719 425.13604736328125 461.9794921875 425.36383056640625 466.1368103027344 425.8887634277344 C 464.9585266113281 429.9564514160156 464.5352783203125 431.93890380859375 464.36175537109375 433.7071533203125 C 464.8086853027344 437.9353942871094 464.9808044433594 441.644287109375 465.11993408203125 444.8970947265625 C 462.5368957519531 445.1102600097656 459.15704345703125 445.3606872558594 457.1499328613281 445.8357238769531 C 456.20703125 445.9851379394531 451.8552551269531 446.6703796386719 450.0947265625 446.52545166015625 C 446.17913818359375 446.20074462890625 443.37884521484375 446.0405578613281 439.0638427734375 444.86297607421875 C 436.3553161621094 445.0135803222656 432.1270751953125 444.48773193359375 429.9641418457031 444.77203369140625 C 427.7956848144531 445.31646728515625 425.0953369140625 445.43994140625 423.2633056640625 445.4765319824219 C 421.6308898925781 445.85321044921875 417.2506103515625 446.0953674316406 414.2337341308594 446.2711181640625 C 408.265380859375 446.3798522949219 403.97467041015625 445.2251281738281 402.9329528808594 445.0454406738281 C 402.3665466308594 442.88140869140625 399.8310546875 443.8428955078125 397.38385009765625 444.8357849121094"/>
    <path stroke-width="0" fill="rgb(0, 0, 0)" opacity="1.0" d="M 563.4766845703125 444.19305419921875 C 543.426513671875 451.12103271484375 532.9716186523438 449.92242431640625 535.65478515625 442.86822509765625 C 538.5255126953125 447.1836242675781 528.6591796875 451.2489013671875 524.4398193359375 448.3567810058594 C 534.1566162109375 442.4935302734375 537.0545043945312 443.840087890625 534.3126220703125 447.4250183105469 C 522.12890625 448.109375 507.8454895019531 448.0682373046875 518.1133422851562 438.15338134765625 C 532.4172973632812 440.9315185546875 525.9989013671875 444.9407958984375 523.9844970703125 445.52728271484375 C 526.7118530273438 445.7090759277344 515.6166381835938 453.4367370605469 506.88641357421875 445.1863708496094 C 516.1851806640625 445.9981689453125 504.4709777832031 446.5484619140625 495.11767578125 444.2372741699219 C 490.0914306640625 452.3313293457031 493.4273376464844 434.3291015625 509.0224609375 443.1856689453125 C 499.56011962890625 450.9234313964844 499.8731384277344 429.985107421875 497.0063781738281 434.9942321777344 C 497.6936340332031 437.913330078125 506.1648254394531 433.1212463378906 510.00726318359375 420.4347229003906 C 489.877197265625 424.8689880371094 488.6138000488281 420.1351318359375 490.4061584472656 424.3399353027344 C 496.6393737792969 420.3387756347656 500.4570007324219 411.12322998046875 490.5855712890625 414.310546875 C 491.07220458984375 409.92584228515625 500.0123596191406 407.63421630859375 493.48614501953125 416.2228698730469 C 486.1351013183594 409.1761779785156 494.9454345703125 397.6913757324219 490.9388732910156 398.50958251953125 C 495.177978515625 399.1767272949219 490.2481384277344 387.791748046875 482.2513427734375 392.66033935546875 C 486.09063720703125 388.2223815917969 497.65545654296875 387.58203125 493.34686279296875 385.694091796875 C 492.96142578125 379.230712890625 492.5449523925781 382.5151062011719 494.045654296875 383.7679748535156 C 489.1470947265625 380.16455078125 486.6871643066406 374.8092346191406 496.7218017578125 376.2835693359375 C 487.92486572265625 368.9205627441406 488.42376708984375 365.8748474121094 482.8046875 354.60833740234375 C 486.12255859375 361.0961608886719 481.7685241699219 358.0858154296875 497.70281982421875 358.4550476074219 C 498.02142333984375 360.35968017578125 496.0825500488281 357.61773681640625 494.114990234375 350.11492919921875 C 495.2887268066406 360.71771240234375 493.64019775390625 348.827392578125 494.8243713378906 341.5077209472656 C 495.2924499511719 342.3390197753906 492.63568115234375 339.9483337402344 500.3546142578125 344.3933410644531 C 497.7342529296875 333.16888427734375 490.6315612792969 328.94970703125 491.4207763671875 328.2594299316406 C 492.85693359375 324.34967041015625 497.517578125 326.6663818359375 502.89422607421875 331.8534851074219 C 505.34930419921875 331.43463134765625 500.4422302246094 329.6293029785156 508.1587829589844 333.9163513183594 C 512.0797119140625 336.7207946777344 511.1580505371094 333.6065368652344 513.7334594726562 327.4936828613281 C 513.2034912109375 327.9461669921875 516.6251220703125 330.02459716796875 514.8234252929688 334.00885009765625 C 525.1532592773438 335.57196044921875 525.7532958984375 328.46844482421875 531.0145874023438 331.1953430175781 C 530.7724609375 329.3570861816406 531.714599609375 330.501953125 531.4545288085938 332.9276123046875 C 538.1157836914062 334.9814453125 544.4584350585938 324.15679931640625 543.5233154296875 334.4071350097656 C 552.0799560546875 332.70458984375 556.407470703125 327.1177062988281 564.2020874023438 329.3782653808594 C 563.9132690429688 337.83050537109375 562.2022705078125 337.9818115234375 562.4430541992188 332.25897216796875 C 566.0737915039062 333.3446350097656 564.4956665039062 337.2283630371094 550.9818725585938 343.9921569824219 C 550.0685424804688 341.9482116699219 552.0343017578125 344.7698059082031 561.0265502929688 349.4239807128906 C 558.4812622070312 347.88189697265625 558.2521362304688 341.9160461425781 564.4281005859375 350.5841064453125 C 558.7386474609375 351.94482421875 559.9113159179688 354.8949890136719 546.8221435546875 360.7067565917969 C 539.464599609375 354.3562927246094 544.2451782226562 353.1801452636719 539.8562622070312 353.1233825683594 C 535.2317504882812 350.7820739746094 529.9976806640625 349.2705078125 540.4942626953125 343.363525390625 C 537.5381469726562 347.5358581542969 539.8155517578125 348.56646728515625 541.315185546875 350.1720886230469 C 527.8326416015625 353.5132751464844 526.3257446289062 353.5665283203125 524.718505859375 352.5283203125 C 526.7243041992188 363.82440185546875 529.4762573242188 354.8128662109375 522.392333984375 348.61456298828125 C 512.5487060546875 346.55169677734375 512.5027465820312 356.04425048828125 514.3397827148438 365.03887939453125 C 514.3605346679688 368.874267578125 502.5874938964844 366.0095520019531 511.8541564941406 358.2474365234375 C 519.0753784179688 367.05615234375 517.4081420898438 375.19769287109375 506.5442199707031 364.1394348144531 C 508.8431091308594 364.7403869628906 514.4940795898438 365.9379577636719 518.3994750976562 358.9434814453125 C 518.6765747070312 365.3768615722656 520.0997924804688 362.3069763183594 514.7743530273438 376.75341796875 C 513.7120361328125 377.67987060546875 521.0610961914062 375.2652893066406 524.3652954101562 377.52044677734375 C 525.93603515625 383.39990234375 536.839599609375 381.597900390625 546.8651123046875 372.760498046875 C 545.413330078125 376.80059814453125 543.604736328125 375.63763427734375 544.6735229492188 382.66168212890625 C 537.470703125 384.0065612792969 538.4292602539062 383.0126647949219 544.7144165039062 374.9609680175781 C 546.2676391601562 376.7241516113281 554.8695068359375 378.7951965332031 560.09716796875 382.1141662597656 C 560.9993286132812 383.3985595703125 565.6396484375 380.84088134765625 555.935546875 376.9009704589844 C 552.0446166992188 387.49176025390625 554.6611328125 393.27996826171875 548.3055419921875 388.8866271972656 C 551.5472412109375 392.44610595703125 549.2723388671875 399.2386169433594 553.4672241210938 395.6679382324219 C 542.3605346679688 398.75555419921875 543.184326171875 398.485595703125 553.4185180664062 395.5966491699219 C 551.6282958984375 406.32684326171875 547.1495361328125 400.02374267578125 536.70068359375 393.5030212402344 C 543.50927734375 394.558349609375 550.3338012695312 400.7554626464844 540.0709228515625 402.66387939453125 C 524.4791259765625 400.8270263671875 521.5538330078125 398.7394104003906 512.658935546875 405.4405822753906 C 517.9924926757812 409.3921203613281 514.2250366210938 413.5783386230469 516.2716064453125 400.1871032714844 C 521.2814331054688 407.42059326171875 518.8592529296875 411.0592956542969 508.9664001464844 413.6915283203125 C 507.1246337890625 405.6977233886719 510.2037658691406 400.7525939941406 519.48583984375 407.63140869140625 C 517.1444702148438 428.51800537109375 519.4092407226562 433.03729248046875 513.115234375 427.9398498535156 C 506.52740478515625 423.5689392089844 510.1121520996094 419.98272705078125 514.6593627929688 421.5924377441406 C 514.6312866210938 423.4340515136719 528.5729370117188 427.1500244140625 536.2745361328125 426.67633056640625 C 525.2380981445312 412.0992736816406 529.4343872070312 421.8739929199219 544.45849609375 425.9124755859375 C 536.6505126953125 433.7150573730469 529.3945922851562 426.59515380859375 543.5200805664062 424.39984130859375 C 548.6902465820312 423.7073669433594 552.5535888671875 432.6739501953125 557.4816284179688 426.42352294921875 C 548.5648193359375 421.8960266113281 544.8514404296875 432.3340148925781 553.9656982421875 431.29595947265625 C 561.9606323242188 433.236328125 566.18701171875 424.7444152832031 559.097412109375 426.97467041015625 C 561.8972778320312 425.76263427734375 567.2449951171875 434.57244873046875 552.7337646484375 425.8429260253906 C 546.957275390625 430.80511474609375 551.1802368164062 437.7093505859375 565.7830810546875 437.7539367675781 C 554.7218017578125 431.775634765625 552.3401489257812 435.603271484375 558.0397338867188 442.41717529296875 C 554.5528564453125 439.5164794921875 557.9998168945312 438.0179748535156 563.4766845703125 444.19305419921875"/>
    <path stroke-width="0" fill="rgb(0, 0, 0)" opacity="1.0" d="M 37.92583465576172 313.3320007324219 C 39.96641159057617 305.5564880371094 40.83151626586914 304.6275329589844 37.04678726196289 300.1061096191406 C 41.61989212036133 296.4725646972656 51.481868743896484 288.1579284667969 56.06221008300781 286.0472717285156 C 61.59990692138672 281.64300537109375 67.01996612548828 276.4275817871094 72.66133117675781 272.2099609375 C 78.95914459228516 269.2381286621094 79.77059936523438 268.37750244140625 86.42683410644531 264.8563232421875 C 91.06688690185547 260.6380920410156 91.5951919555664 259.13568115234375 92.0528335571289 257.1390380859375 C 91.08317565917969 253.1724853515625 90.07955169677734 252.03018188476562 82.5517349243164 250.25482177734375 C 79.35551452636719 244.4791717529297 86.77337646484375 234.54335021972656 88.84088134765625 232.42715454101562 C 90.95970153808594 234.7527313232422 89.10565948486328 227.67962646484375 93.55325317382812 226.1656494140625 C 94.8702392578125 228.7255401611328 95.44444274902344 230.8859405517578 96.23509216308594 233.51657104492188 C 97.10065460205078 237.08583068847656 98.3016128540039 241.29855346679688 94.57245635986328 237.83155822753906 C 96.13648986816406 239.21075439453125 100.5774917602539 242.52578735351562 101.96979522705078 244.05902099609375 C 104.61367797851562 247.49526977539062 106.39830780029297 249.1475830078125 109.39593505859375 249.7153778076172 C 111.93387603759766 250.04684448242188 117.47799682617188 249.9847412109375 123.91840362548828 249.7053680419922 C 130.86376953125 250.06552124023438 134.03428649902344 252.10708618164062 135.6620330810547 254.49168395996094 C 137.64749145507812 257.1494445800781 138.48875427246094 259.52862548828125 138.61669921875 262.160888671875 C 139.2415313720703 265.4855041503906 138.08627319335938 269.6576232910156 136.1965789794922 271.9226989746094 C 133.98373413085938 274.5048828125 130.94664001464844 276.0631103515625 127.11112976074219 277.3514099121094 C 123.12299346923828 278.8297119140625 119.0339584350586 279.7076110839844 114.78463745117188 277.98126220703125 C 112.50862121582031 277.5336608886719 110.55156707763672 276.609130859375 107.34814453125 274.2239685058594 C 103.9807357788086 271.10076904296875 101.97054290771484 265.5912170410156 101.92869567871094 261.4233093261719 C 104.2381820678711 260.7521667480469 105.85572814941406 260.18914794921875 108.41315460205078 258.79742431640625 C 110.87137603759766 267.389892578125 110.62477111816406 275.2373352050781 108.48412322998047 284.2587585449219 C 104.37420654296875 291.16571044921875 100.5816421508789 294.37005615234375 93.57162475585938 297.5114440917969 C 88.61802673339844 300.1639404296875 82.84564208984375 302.7722473144531 74.36921691894531 307.1516418457031 C 64.59397888183594 311.7967529296875 49.331787109375 315.12445068359375 37.92583465576172 313.3320007324219"/>
    <path stroke-width="0" fill="rgb(0, 0, 0)" opacity="1.0" d="M 130.30380249023438 275.919921875 C 128.2244873046875 267.8830261230469 127.05168914794922 259.06781005859375 127.66622924804688 249.29473876953125 C 132.32052612304688 251.60595703125 135.05975341796875 250.8391571044922 138.44256591796875 249.1911163330078 C 142.98934936523438 248.4835205078125 142.59823608398438 244.08370971679688 145.82138061523438 241.42457580566406 C 152.34979248046875 240.056640625 152.71728515625 239.1739501953125 154.0687713623047 237.415771484375 C 154.76661682128906 236.3505859375 162.2537078857422 237.26280212402344 162.1403350830078 234.31808471679688 C 167.88682556152344 231.98965454101562 168.77932739257812 232.26416015625 182.7347412109375 223.26864624023438 C 180.4701690673828 235.51771545410156 177.01358032226562 242.6875457763672 175.80926513671875 246.04498291015625 C 175.07876586914062 248.35885620117188 174.190185546875 249.35360717773438 177.16722106933594 242.73707580566406 C 171.99937438964844 243.62820434570312 165.84251403808594 246.2161865234375 168.0904083251953 252.0819549560547 C 168.91107177734375 253.22518920898438 170.29757690429688 254.32608032226562 174.9862823486328 255.35696411132812 C 183.90216064453125 244.53317260742188 173.1420440673828 246.8293914794922 178.52476501464844 247.41896057128906 C 190.66700744628906 245.56649780273438 192.6974334716797 246.10763549804688 198.31088256835938 246.896484375 C 184.25416564941406 246.77072143554688 186.68869018554688 245.1034393310547 193.315185546875 239.96804809570312 C 199.99851989746094 236.4591522216797 201.29098510742188 235.20448303222656 202.02548217773438 233.52806091308594 C 202.88783264160156 230.77633666992188 204.45718383789062 229.2611541748047 203.2384490966797 227.7931365966797 C 205.3671112060547 225.93995666503906 209.5047149658203 222.2240447998047 226.21047973632812 214.3791961669922 C 221.64703369140625 228.62332153320312 219.41067504882812 233.90394592285156 225.66839599609375 232.27285766601562 C 234.2180938720703 228.2027130126953 234.00111389160156 230.82089233398438 231.4290771484375 238.1553497314453 C 230.43051147460938 242.01698303222656 230.35064697265625 242.5750274658203 225.4066162109375 250.80062866210938 C 225.0188446044922 251.4176788330078 223.49436950683594 250.54539489746094 223.9493408203125 251.59310913085938 C 224.5782012939453 253.78123474121094 225.52761840820312 254.9602813720703 228.28529357910156 253.12301635742188 C 234.17803955078125 254.72494506835938 239.17410278320312 252.8788299560547 250.4757537841797 238.48477172851562 C 259.0428466796875 247.5719757080078 259.3033752441406 247.6276092529297 260.90155029296875 246.1265869140625 C 261.5507507324219 245.5825653076172 261.8912048339844 244.49929809570312 262.2093811035156 239.88096618652344 C 262.07220458984375 238.29563903808594 261.215576171875 235.95751953125 260.37860107421875 233.97056579589844 C 259.7261047363281 231.47845458984375 257.9517822265625 228.2467803955078 256.26141357421875 222.09481811523438 C 255.51058959960938 218.60702514648438 256.48101806640625 215.5722198486328 258.5877380371094 212.3231658935547 C 262.32562255859375 215.53115844726562 262.9930114746094 214.77072143554688 265.44647216796875 219.5365753173828 C 264.93328857421875 220.02310180664062 267.30877685546875 226.48228454589844 269.2004699707031 230.47596740722656 C 279.42584228515625 236.65689086914062 281.8165283203125 240.7960205078125 283.1194763183594 242.86746215820312 C 284.5356140136719 243.78802490234375 290.06610107421875 248.05996704101562 293.33154296875 250.6818084716797 C 293.1360778808594 250.9237823486328 294.8718566894531 251.1616973876953 303.00067138671875 248.2733917236328 C 309.0285339355469 251.7443084716797 311.5984191894531 253.72459411621094 312.8173522949219 256.43487548828125 C 313.7161865234375 258.3331604003906 313.95989990234375 260.8552551269531 314.0543212890625 262.81072998046875 C 314.19293212890625 264.42633056640625 313.8885803222656 266.3544921875 312.69134521484375 269.0041809082031 C 311.1524658203125 272.08642578125 306.716552734375 275.3484802246094 300.24920654296875 276.31201171875 C 296.40667724609375 276.635986328125 296.9071960449219 278.8274230957031 290.348876953125 280.4742736816406 C 286.7354736328125 280.1537170410156 285.40594482421875 279.7176208496094 280.7543029785156 276.8404846191406 C 278.8902282714844 275.58251953125 275.97479248046875 272.44647216796875 275.25225830078125 271.73687744140625 C 273.27581787109375 267.8123474121094 271.4786682128906 261.64459228515625 270.4257507324219 252.0260009765625 C 271.6953125 252.60763549804688 272.5413818359375 253.0258026123047 274.91522216796875 253.7826690673828 C 280.2150573730469 270.7897644042969 278.3352966308594 277.25225830078125 273.2131042480469 285.21343994140625 C 268.56805419921875 287.2441711425781 261.20660400390625 288.5136413574219 250.28550720214844 286.105712890625 C 243.4125213623047 284.79669189453125 235.73263549804688 280.683837890625 264.4924621582031 282.3194580078125 C 251.09298706054688 293.2573547363281 240.77920532226562 295.2012634277344 223.32899475097656 291.421875 C 216.867431640625 287.0191955566406 213.81300354003906 283.5986633300781 210.7599334716797 266.40643310546875 C 209.85850524902344 263.5213928222656 209.48855590820312 259.42156982421875 209.7645721435547 254.75660705566406 C 212.06809997558594 255.1092071533203 213.951416015625 255.4814910888672 214.86962890625 255.9293975830078 C 212.4081573486328 261.1590881347656 216.02755737304688 270.7634582519531 213.45596313476562 276.9546203613281 C 210.23387145996094 281.3999328613281 208.46920776367188 282.8382873535156 191.98500061035156 284.1056823730469 C 184.46336364746094 282.6097412109375 179.04212951660156 281.8078308105469 177.78475952148438 281.48699951171875 C 191.9872589111328 271.1020202636719 190.49932861328125 271.9280090332031 183.70321655273438 269.7712097167969 C 176.98617553710938 270.9244384765625 170.27783203125 271.2884521484375 165.9004364013672 269.8868103027344 C 162.05828857421875 266.4590759277344 159.5766143798828 261.79522705078125 159.30226135253906 257.2299499511719 C 161.37355041503906 258.0282287597656 162.53404235839844 257.8515625 164.24342346191406 257.43121337890625 C 163.982421875 261.96563720703125 162.32249450683594 265.9577941894531 157.622314453125 268.8840637207031 C 153.8260498046875 272.6885681152344 151.1390838623047 273.5292663574219 144.53634643554688 271.8964538574219 C 141.29159545898438 274.75750732421875 135.6100311279297 275.6043701171875 130.30380249023438 275.919921875"/>
    <path stroke-width="0" fill="rgb(0, 0, 0)" opacity="1.0" d="M 306.0942077636719 275.38641357421875 C 304.74169921875 267.0250549316406 304.25457763671875 259.6441955566406 307.6426696777344 251.2095184326172 C 311.48968505859375 252.4910430908203 314.843017578125 253.50491333007812 317.2694091796875 253.79916381835938 C 319.4731140136719 254.21481323242188 319.0841369628906 249.95565795898438 322.0099182128906 244.72024536132812 C 325.8016662597656 240.91265869140625 328.295654296875 237.41299438476562 329.5877685546875 241.9424591064453 C 329.55364990234375 236.34376525878906 328.910400390625 231.54379272460938 327.14508056640625 227.33349609375 C 326.1830749511719 222.7224578857422 325.32159423828125 221.30429077148438 322.3262023925781 218.31629943847656 C 320.2733154296875 215.11907958984375 318.51837158203125 211.95094299316406 317.2119445800781 209.49298095703125 C 321.70501708984375 207.06674194335938 323.75433349609375 205.21951293945312 326.45318603515625 201.3916778564453 C 328.2149963378906 202.37913513183594 330.5877685546875 203.57278442382812 333.6784973144531 206.40567016601562 C 337.5466613769531 210.8321075439453 341.6380615234375 216.38507080078125 344.13641357421875 222.565673828125 C 345.0203857421875 229.08773803710938 345.06463623046875 233.10789489746094 345.0799255371094 238.3158416748047 C 342.4487609863281 244.5457763671875 339.6021728515625 248.80381774902344 337.60302734375 251.5984649658203 C 335.07720947265625 254.0370330810547 333.0859069824219 256.1309814453125 331.5162658691406 258.55206298828125 C 328.96942138671875 262.50775146484375 326.5215148925781 264.3197937011719 323.39666748046875 266.1926574707031 C 321.11932373046875 267.52490234375 320.09246826171875 268.0362243652344 318.1168212890625 269.15093994140625 C 315.30535888671875 270.8239440917969 311.83184814453125 272.92828369140625 306.0942077636719 275.38641357421875M 307.5025329589844 177.91751098632812 C 326.18438720703125 167.7992706298828 326.328857421875 160.31739807128906 307.5025329589844 169.81137084960938 C 323.92584228515625 174.28782653808594 334.20159912109375 170.04937744140625 326.276123046875 168.03042602539062 C 310.54986572265625 169.2135467529297 300.13275146484375 173.0150909423828 292.2740478515625 155.90310668945312 C 324.01611328125 149.07894897460938 333.16015625 157.13668823242188 330.4527282714844 163.14126586914062 C 326.4999694824219 152.36572265625 328.1357116699219 158.7321014404297 336.66729736328125 170.54603576660156 C 329.7018737792969 167.92266845703125 325.43157958984375 172.87399291992188 340.0193176269531 173.2213897705078 C 341.0968322753906 155.662841796875 348.8382873535156 168.70620727539062 347.69171142578125 186.8235626220703 C 335.3235778808594 173.7020721435547 332.0362548828125 176.62095642089844 307.5025329589844 177.91751098632812"/>
  </g>
</svg>
