<?xml version="1.0" ?>
<svg xmlns="http://www.w3.org/2000/svg" version="1.1" width="600" height="600">
  <defs/>
  <g>
    <path stroke-width="0" fill="rgb(0, 0, 0)" opacity="1.0" d="M 125.94652557373047 441.4447937011719 C 123.73567962646484 441.2040100097656 121.796630859375 441.1091613769531 121.14193725585938 445.1181335449219 C 116.132568359375 445.4121398925781 113.48053741455078 444.9792785644531 110.69849395751953 444.5770568847656 C 114.58426666259766 444.19091796875 111.1451416015625 444.56182861328125 109.8069076538086 444.73431396484375 C 105.36996459960938 443.9491882324219 100.78900146484375 443.8614196777344 95.2478256225586 443.76910400390625 C 90.9120864868164 443.3990478515625 93.61286163330078 442.8634033203125 89.00128173828125 444.14202880859375 C 85.21204376220703 444.4795837402344 81.70726776123047 445.62445068359375 79.9384765625 446.16949462890625 C 74.79269409179688 446.48370361328125 74.6895980834961 442.7977600097656 70.20723724365234 444.21844482421875 C 66.23424530029297 445.1787414550781 62.88031768798828 445.1966247558594 60.26873016357422 444.774169921875 C 60.610511779785156 442.8113098144531 60.62335968017578 441.3284606933594 60.5353889465332 439.5939025878906 C 59.89006042480469 436.6864929199219 59.00804901123047 432.29498291015625 58.98539733886719 430.7333679199219 C 58.38254165649414 426.99713134765625 58.120994567871094 421.80316162109375 58.27274703979492 426.1918640136719 C 57.28626251220703 422.3332824707031 59.20071792602539 425.75787353515625 57.09531021118164 418.9942626953125 C 58.18544387817383 412.13140869140625 59.60981369018555 406.0568542480469 59.82861328125 410.3583984375 C 59.93271255493164 407.1824645996094 60.89320755004883 402.6658020019531 61.83715057373047 399.046875 C 62.63217544555664 395.6833801269531 63.285362243652344 393.4758605957031 64.4428939819336 388.9111328125 C 65.86186981201172 385.4001159667969 63.50253677368164 388.82037353515625 64.768798828125 384.22418212890625 C 65.40150451660156 382.26336669921875 65.5628662109375 381.28521728515625 66.46385955810547 377.43804931640625 C 66.97740173339844 375.0012512207031 67.86851501464844 371.8357849121094 68.3474349975586 370.094482421875 C 69.2652359008789 365.98291015625 70.12065124511719 363.1529846191406 69.54885864257812 368.3642578125 C 69.44769287109375 366.27325439453125 69.42476654052734 363.1412048339844 69.27423095703125 359.4154968261719 C 69.61593627929688 356.7209167480469 70.28345489501953 353.9433288574219 71.51856231689453 349.7541198730469 C 71.44780731201172 348.64703369140625 71.50496673583984 347.5104675292969 71.5927963256836 342.1700439453125 C 71.21575164794922 339.730712890625 71.04487609863281 337.13775634765625 72.07298278808594 337.1112976074219 C 71.63782501220703 335.61761474609375 72.39891052246094 333.7939758300781 73.05661010742188 332.17840576171875 C 75.32935333251953 332.90692138671875 74.97599792480469 330.2040100097656 78.87815856933594 329.9621276855469 C 81.14094543457031 329.8329772949219 83.3056869506836 329.7642822265625 86.57357788085938 329.9749450683594 C 88.99600219726562 330.0490417480469 90.28976440429688 329.9906005859375 93.61305236816406 329.7029724121094 C 96.66967010498047 329.8099365234375 98.90399169921875 329.9729309082031 101.64463806152344 329.8516845703125 C 103.29570770263672 330.0754089355469 107.45354461669922 331.01959228515625 109.32081604003906 331.3478088378906 C 112.69806671142578 331.48065185546875 114.94322204589844 331.4079895019531 118.88693237304688 330.91729736328125 C 123.0723876953125 329.8352966308594 126.88031005859375 329.3562927246094 130.2728729248047 328.9985656738281 C 134.45001220703125 328.6977844238281 136.894775390625 329.1190490722656 140.02737426757812 329.83233642578125 C 139.6848602294922 331.68865966796875 139.09674072265625 333.5238342285156 140.17051696777344 333.32177734375 C 140.3379669189453 335.7638244628906 140.24749755859375 339.47698974609375 140.2110595703125 340.7751770019531 C 140.15399169921875 343.18829345703125 137.76654052734375 343.8529968261719 138.339111328125 346.0572204589844 C 138.5725860595703 347.8893127441406 138.75880432128906 349.47698974609375 139.11048889160156 351.4252624511719 C 135.6572723388672 352.15289306640625 132.57034301757812 352.7841796875 129.30233764648438 352.6795959472656 C 126.80040740966797 352.67230224609375 123.95514678955078 352.3441467285156 127.16816711425781 351.6683349609375 C 124.1194076538086 352.4117736816406 120.87139892578125 352.99566650390625 117.81783294677734 353.41925048828125 C 114.14048767089844 354.265869140625 111.3472671508789 353.9638977050781 108.33953857421875 353.6545104980469 C 105.60934448242188 353.323486328125 103.22042846679688 352.9246826171875 100.36817169189453 352.3702697753906 C 98.0978775024414 351.8876953125 101.744384765625 351.9643859863281 100.64997100830078 351.9397888183594 C 98.92566680908203 351.79046630859375 98.45642852783203 351.8274841308594 97.07386016845703 351.943603515625 C 95.79316711425781 357.5781555175781 95.10636901855469 360.8170471191406 94.64693450927734 362.8669738769531 C 95.07756805419922 357.9482727050781 95.1134033203125 359.6246032714844 95.4998779296875 363.31829833984375 C 95.67218017578125 365.96539306640625 95.74629974365234 367.42291259765625 94.785400390625 370.8258361816406 C 94.00254821777344 373.3259582519531 93.34722137451172 374.9831848144531 92.85333251953125 376.7684326171875 C 93.68174743652344 376.7544250488281 97.49327850341797 376.75030517578125 100.15156555175781 376.376220703125 C 102.65018463134766 375.9146728515625 104.80889129638672 375.5663146972656 107.95639038085938 375.1307067871094 C 110.42838287353516 375.2796325683594 113.37079620361328 375.3277893066406 117.09678649902344 375.5769958496094 C 120.28459167480469 375.9330749511719 123.33614349365234 376.4501953125 126.2153091430664 376.8793029785156 C 125.97396850585938 378.6023254394531 125.76327514648438 380.4483642578125 125.43506622314453 382.8282470703125 C 125.09294128417969 384.3210754394531 124.66097259521484 386.2338562011719 125.52742767333984 386.4979248046875 C 122.16194915771484 386.8083801269531 122.74375915527344 389.23931884765625 123.19007110595703 391.5845642089844 C 123.35005950927734 393.3583984375 122.4448471069336 395.080078125 121.71074676513672 396.6982116699219 C 118.93106842041016 395.144775390625 118.19078063964844 397.31390380859375 115.05065155029297 397.9443054199219 C 111.92034912109375 397.9060363769531 108.85176086425781 397.71484375 105.38261413574219 397.4750061035156 C 109.52906799316406 397.7284240722656 106.22245788574219 398.2251892089844 102.33621215820312 398.7290954589844 C 97.85157775878906 399.1802673339844 94.13390350341797 399.2980651855469 87.81983184814453 398.4306640625 C 87.26083374023438 400.69085693359375 87.42904663085938 399.8294982910156 86.75605773925781 404.23724365234375 C 86.08735656738281 408.6483459472656 86.1275863647461 407.62701416015625 86.2991943359375 410.0172424316406 C 85.48503112792969 413.416748046875 85.16731262207031 416.5889892578125 84.78594970703125 413.2170715332031 C 83.90318298339844 411.6208190917969 85.06768035888672 417.404052734375 85.88516998291016 421.1044616699219 C 88.16558074951172 420.3644714355469 92.03147888183594 420.1455383300781 95.18074798583984 420.2664489746094 C 98.82488250732422 420.3706970214844 100.0630874633789 420.4819641113281 103.5707015991211 420.811767578125 C 106.16570281982422 420.70831298828125 109.27847290039062 420.8370666503906 111.9747314453125 420.9627380371094 C 108.08072662353516 420.54034423828125 109.26201629638672 420.4236755371094 110.11888122558594 420.29998779296875 C 112.28585052490234 420.0297546386719 113.82872009277344 420.24127197265625 115.97990417480469 420.4535827636719 C 117.84996032714844 420.6723937988281 119.3094711303711 420.81658935546875 120.22923278808594 420.8740539550781 C 123.06149291992188 421.240966796875 124.64529418945312 421.69818115234375 126.21227264404297 422.198486328125 C 127.60665130615234 422.7220458984375 129.0187530517578 423.1234436035156 130.6183624267578 423.3962097167969 C 130.14373779296875 425.24945068359375 129.61607360839844 426.8684997558594 129.07493591308594 428.66510009765625 C 128.63299560546875 429.9891662597656 129.87496948242188 430.1134948730469 129.35220336914062 433.3766784667969 C 129.41749572753906 435.8358154296875 129.48861694335938 437.4803466796875 126.31819152832031 436.9515075683594 C 126.28820037841797 438.5279541015625 126.14717102050781 439.9779357910156 125.94652557373047 441.4447937011719"/>
    <path stroke-width="0" fill="rgb(0, 0, 0)" opacity="1.0" d="M 249.00680541992188 445.1302185058594 C 249.9355926513672 441.625244140625 242.82864379882812 437.0670471191406 241.21353149414062 431.6938171386719 C 239.43016052246094 428.26031494140625 237.37396240234375 425.1075744628906 235.17724609375 422.04449462890625 C 229.08387756347656 424.206787109375 223.39622497558594 424.9723205566406 213.88067626953125 424.4229431152344 C 208.64312744140625 423.8183288574219 211.61215209960938 423.8663330078125 205.45394897460938 424.5323791503906 C 200.63357543945312 424.70135498046875 196.9429473876953 424.6441345214844 190.49485778808594 424.78515625 C 184.25775146484375 423.8745422363281 178.85040283203125 422.4220275878906 172.9232635498047 420.68902587890625 C 169.35382080078125 426.267333984375 167.0493927001953 430.1896057128906 164.87466430664062 434.0570983886719 C 163.2704620361328 437.7518615722656 159.81785583496094 440.2904052734375 157.48731994628906 442.431884765625 C 154.46939086914062 440.4361877441406 153.0183563232422 443.52508544921875 148.32054138183594 443.4669494628906 C 144.72415161132812 443.3603210449219 140.14601135253906 444.2198181152344 134.0156707763672 446.473388671875 C 135.052734375 441.69586181640625 136.2240447998047 438.5113830566406 137.18995666503906 436.437744140625 C 138.480712890625 433.95703125 139.2660675048828 432.0593566894531 140.2188720703125 429.4131774902344 C 141.1063232421875 427.5540771484375 142.07073974609375 425.79681396484375 144.03912353515625 422.332275390625 C 145.6707305908203 419.5382385253906 147.4497528076172 416.7877502441406 149.4380340576172 414.163330078125 C 150.73263549804688 412.0475769042969 151.3395538330078 410.906982421875 152.5840301513672 409.09490966796875 C 153.5708770751953 407.3258361816406 154.7610321044922 403.810791015625 156.35157775878906 401.2446594238281 C 159.19004821777344 397.2628479003906 159.89857482910156 395.5760192871094 161.50506591796875 392.9507751464844 C 163.04693603515625 390.00836181640625 164.69979858398438 386.6838073730469 167.13180541992188 382.6730651855469 C 166.1228790283203 385.5246887207031 166.964599609375 383.13958740234375 169.19415283203125 378.86126708984375 C 170.1890869140625 376.7061462402344 171.7920379638672 373.0777282714844 172.05845642089844 372.2551574707031 C 174.48361206054688 368.313232421875 177.1278839111328 364.5901794433594 175.71751403808594 369.0379638671875 C 176.6136016845703 366.9853820800781 178.00901794433594 364.55389404296875 178.3292694091797 360.8733215332031 C 179.65455627441406 357.34991455078125 182.5072021484375 353.8725891113281 183.5811767578125 348.7909240722656 C 185.79446411132812 346.0155334472656 186.52606201171875 340.9078063964844 188.9617919921875 337.0721435546875 C 190.9753875732422 335.0662536621094 192.32911682128906 332.6466064453125 193.61917114257812 330.4888610839844 C 196.13442993164062 331.534912109375 198.527587890625 332.1904602050781 201.21633911132812 332.6952819824219 C 203.10276794433594 333.0922546386719 206.02931213378906 334.06884765625 208.75047302246094 334.86187744140625 C 204.3441619873047 333.75750732421875 206.8780517578125 333.2598571777344 207.93704223632812 332.9822082519531 C 210.912109375 332.185546875 213.87542724609375 331.5407409667969 216.8107147216797 331.40252685546875 C 217.95994567871094 333.7508239746094 219.0204620361328 335.8856506347656 220.45590209960938 338.0756530761719 C 222.24945068359375 342.0669860839844 223.38623046875 345.9533386230469 224.54075622558594 349.1841735839844 C 225.3778076171875 351.6878662109375 226.12831115722656 353.7864074707031 225.74400329589844 352.60528564453125 C 227.1351318359375 355.3946533203125 227.923095703125 357.051513671875 229.22584533691406 359.4332275390625 C 230.00137329101562 361.3964538574219 230.86474609375 363.42156982421875 232.21136474609375 365.8695373535156 C 233.6572723388672 368.4014587402344 234.1938018798828 369.6538391113281 235.5261993408203 372.60394287109375 C 236.5934600830078 375.0608825683594 237.5925750732422 377.2032165527344 238.94686889648438 380.1709289550781 C 240.0015869140625 383.7998352050781 241.48272705078125 387.071044921875 240.60110473632812 385.1258850097656 C 242.06268310546875 387.5559387207031 243.73275756835938 390.3311462402344 245.51979064941406 393.2240295410156 C 246.6769561767578 396.256103515625 248.14642333984375 399.9288635253906 249.84439086914062 402.29620361328125 C 251.53916931152344 405.098388671875 252.321533203125 406.31390380859375 253.9079132080078 408.35321044921875 C 254.79150390625 409.6279602050781 255.34140014648438 410.4086608886719 257.50244140625 413.16253662109375 C 259.15960693359375 415.3379821777344 260.6299743652344 417.5392761230469 262.391845703125 420.912353515625 C 264.8061828613281 425.75579833984375 265.0412902832031 426.21929931640625 265.71417236328125 427.9457702636719 C 266.7193298339844 429.7285461425781 267.472900390625 431.0141906738281 269.519287109375 434.17364501953125 C 271.0954284667969 436.66485595703125 274.1866149902344 441.0821533203125 277.71044921875 447.2408752441406 C 266.7664489746094 447.0829772949219 260.1441345214844 446.9692687988281 253.5597381591797 446.6769714355469 C 253.73117065429688 447.1351013183594 252.01263427734375 446.979736328125 249.00680541992188 445.1302185058594M 211.61990356445312 376.4328918457031 C 211.05023193359375 374.6018371582031 210.1328125 372.2770080566406 208.95054626464844 369.317626953125 C 207.83717346191406 366.3400573730469 206.8124542236328 363.456298828125 205.7018585205078 360.45172119140625 C 205.1703643798828 357.52581787109375 204.4357452392578 354.7614440917969 203.6259002685547 351.9622802734375 C 203.2304229736328 354.76324462890625 202.92515563964844 357.5722961425781 202.44102478027344 360.94549560546875 C 201.85824584960938 363.6200866699219 201.012939453125 366.941162109375 200.1403350830078 370.3074035644531 C 199.37069702148438 373.7073059082031 198.8224639892578 375.7867736816406 198.58226013183594 376.4490966796875 C 196.34454345703125 380.7094421386719 195.33241271972656 383.34381103515625 193.70556640625 387.56500244140625 C 192.27444458007812 391.2726745605469 190.69223022460938 394.5816955566406 188.26290893554688 398.69976806640625 C 193.82598876953125 399.4399108886719 199.42477416992188 399.8476867675781 205.21493530273438 399.5931396484375 C 210.5821075439453 399.87353515625 214.88800048828125 400.2335510253906 221.9346923828125 400.28411865234375 C 218.8682861328125 394.8103942871094 217.65182495117188 391.4090881347656 216.46298217773438 386.9870300292969 C 214.3227996826172 383.5164794921875 212.79966735839844 379.6421203613281 211.61990356445312 376.4328918457031"/>
    <path stroke-width="0" fill="rgb(0, 0, 0)" opacity="1.0" d="M 315.755859375 380.1559143066406 C 320.8773193359375 378.7608947753906 325.5051574707031 377.85675048828125 333.08148193359375 377.8677673339844 C 336.247314453125 378.424072265625 339.89031982421875 379.1419677734375 342.6033020019531 379.2512512207031 C 347.33599853515625 378.7881164550781 352.528076171875 378.6440734863281 357.5369567871094 378.2276916503906 C 363.8757629394531 378.30474853515625 368.7305603027344 378.1564025878906 374.02685546875 377.8904724121094 C 373.9989013671875 381.5301513671875 373.9492492675781 384.70989990234375 373.2500915527344 388.8165588378906 C 372.9462890625 391.8830871582031 372.31683349609375 395.7227478027344 372.3929443359375 396.91705322265625 C 371.43792724609375 402.9794616699219 371.0316162109375 406.634765625 370.89642333984375 407.4359130859375 C 370.1123046875 402.14984130859375 370.3927307128906 404.7475891113281 371.03912353515625 408.08135986328125 C 371.32476806640625 413.00238037109375 371.7066650390625 416.22540283203125 371.8322448730469 420.81488037109375 C 372.15087890625 424.99993896484375 371.7960205078125 429.7901916503906 370.9389343261719 434.151123046875 C 372.0325927734375 431.0429382324219 371.8158874511719 434.5081481933594 371.867919921875 437.34332275390625 C 371.8965148925781 440.80584716796875 371.468994140625 443.56671142578125 370.8709411621094 446.4724426269531 C 367.5061950683594 447.1607360839844 364.2151794433594 448.0490417480469 360.81866455078125 448.57427978515625 C 356.6767578125 448.58819580078125 352.3291320800781 448.81817626953125 349.0066223144531 449.36895751953125 C 343.8731689453125 449.56280517578125 339.52288818359375 449.0804443359375 334.44915771484375 448.8277587890625 C 330.8509826660156 448.8655700683594 326.4169006347656 447.9512023925781 321.8581848144531 447.4120178222656 C 318.6009521484375 447.07720947265625 314.90972900390625 446.2608337402344 311.1899719238281 444.8806457519531 C 308.5680847167969 443.7809143066406 307.4671630859375 443.34674072265625 303.2163391113281 441.725830078125 C 300.6132507324219 440.0034484863281 297.5737609863281 438.1944274902344 293.3036804199219 435.7585754394531 C 290.7319030761719 434.37200927734375 287.96844482421875 432.30621337890625 285.1098937988281 429.98931884765625 C 281.74114990234375 427.97174072265625 279.0018005371094 425.7928466796875 276.0102233886719 422.4163818359375 C 274.4109802246094 420.60125732421875 272.9637451171875 418.9332275390625 270.8739318847656 416.47467041015625 C 269.2654724121094 414.6382141113281 266.6391296386719 411.4781799316406 265.0327453613281 409.3540954589844 C 263.2933349609375 405.49688720703125 262.03155517578125 401.2228698730469 260.7040100097656 397.0248718261719 C 259.49200439453125 393.6728515625 259.9700012207031 395.8496398925781 258.93890380859375 391.1184387207031 C 256.9269714355469 385.8555603027344 257.2530517578125 387.5010681152344 255.87353515625 382.5333557128906 C 255.06475830078125 376.9658508300781 255.8973846435547 370.2210693359375 255.92149353027344 365.4291076660156 C 258.3581848144531 357.5130310058594 261.24041748046875 351.1871643066406 264.49334716796875 345.9989318847656 C 267.9498596191406 340.81304931640625 271.9181213378906 337.1116638183594 276.02593994140625 334.0901794433594 C 280.2271423339844 330.6856994628906 285.01348876953125 328.80517578125 290.8542175292969 327.1704406738281 C 294.9992370605469 326.69500732421875 300.3072509765625 325.8277893066406 304.7792663574219 325.6006774902344 C 310.87615966796875 326.5130920410156 307.415771484375 327.0433349609375 312.97314453125 328.10791015625 C 309.5901184082031 328.63690185546875 314.4841613769531 328.1264343261719 318.65679931640625 328.5163879394531 C 323.2815246582031 328.17132568359375 327.50738525390625 328.47283935546875 329.6615295410156 328.84918212890625 C 335.2071228027344 329.5291442871094 338.4013671875 329.4188537597656 333.42047119140625 328.7904968261719 C 337.34954833984375 327.60614013671875 341.3213806152344 326.919189453125 345.3692626953125 326.7838439941406 C 349.6988525390625 325.4472961425781 350.8605651855469 325.303466796875 355.3667907714844 325.7044372558594 C 358.5726623535156 325.4371032714844 361.8077697753906 325.6735534667969 364.6997375488281 326.2301025390625 C 363.7543029785156 330.45318603515625 362.88909912109375 334.1981506347656 362.89605712890625 335.76800537109375 C 362.2096252441406 338.81719970703125 361.9135437011719 341.6337890625 361.9825439453125 344.5783386230469 C 358.46234130859375 344.52532958984375 353.1217346191406 344.878662109375 346.8536376953125 346.1844177246094 C 341.1787109375 347.6805419921875 336.1114807128906 349.67218017578125 328.204345703125 349.17413330078125 C 323.889404296875 348.7393798828125 317.8285827636719 348.30621337890625 313.38043212890625 349.1126403808594 C 308.6935729980469 348.8586730957031 306.1615905761719 348.5194396972656 301.583251953125 349.63873291015625 C 297.39154052734375 350.4188232421875 294.1357727050781 351.88043212890625 291.9756774902344 353.5140686035156 C 288.9121398925781 355.7369689941406 287.2041931152344 357.5600280761719 284.6929016113281 361.23211669921875 C 282.80035400390625 364.6551513671875 281.92437744140625 367.28826904296875 281.56939697265625 370.9554138183594 C 280.82073974609375 376.3094177246094 282.135009765625 380.69549560546875 283.1410217285156 384.553955078125 C 284.1991271972656 387.9412841796875 284.944580078125 391.68609619140625 286.1793518066406 394.9018859863281 C 287.7320251464844 398.0370788574219 289.4354553222656 400.22039794921875 292.3985900878906 403.235595703125 C 294.4177551269531 405.8566589355469 297.80474853515625 409.0128479003906 299.9433288574219 410.66278076171875 C 303.15057373046875 413.42559814453125 305.66815185546875 415.19183349609375 308.8652038574219 417.3310852050781 C 310.8868103027344 418.77972412109375 314.4609069824219 421.1261901855469 317.5849304199219 422.1778259277344 C 319.92291259765625 423.3730163574219 321.55584716796875 423.77728271484375 326.7477111816406 424.2359313964844 C 330.30133056640625 425.0267333984375 332.3775634765625 425.3165283203125 334.4981689453125 425.02911376953125 C 337.63427734375 424.9205322265625 340.4874572753906 424.98358154296875 343.8219909667969 425.3049011230469 C 344.0136413574219 423.898193359375 343.8951416015625 420.06683349609375 342.92877197265625 416.44580078125 C 341.65814208984375 412.0293884277344 340.024658203125 406.03302001953125 340.27447509765625 403.3219909667969 C 334.8959655761719 402.48065185546875 332.1609191894531 402.072265625 328.9255676269531 401.67730712890625 C 324.8598937988281 401.3009033203125 322.0029602050781 401.214111328125 318.68115234375 401.1604919433594 C 318.6346130371094 397.8114929199219 318.6751403808594 393.9081115722656 318.68438720703125 390.1244812011719 C 318.3558044433594 388.44549560546875 316.9819030761719 384.82684326171875 315.755859375 380.1559143066406"/>
    <path stroke-width="0" fill="rgb(0, 0, 0)" opacity="1.0" d="M 399.5322570800781 435.4917907714844 C 399.28533935546875 433.3453369140625 398.9907531738281 430.92572021484375 398.9609680175781 427.63018798828125 C 399.6216125488281 425.9524230957031 396.9697570800781 424.63616943359375 393.2366027832031 423.84576416015625 C 393.96160888671875 427.8747253417969 394.3329772949219 424.3817443847656 394.80548095703125 420.3479309082031 C 394.90167236328125 419.6718444824219 395.13116455078125 422.2054138183594 394.57611083984375 420.32861328125 C 394.6065979003906 415.7496032714844 394.4388427734375 411.359619140625 394.6789855957031 405.9573669433594 C 395.08251953125 401.4413757324219 395.1081237792969 403.1105041503906 394.9017639160156 399.5799255371094 C 394.79571533203125 396.94580078125 394.5055847167969 394.1222839355469 394.39404296875 388.7053527832031 C 394.65966796875 387.8039245605469 394.6493225097656 384.9241027832031 394.84149169921875 383.60137939453125 C 395.85986328125 388.68646240234375 395.36541748046875 385.6604919433594 396.0515441894531 382.1366271972656 C 396.5216369628906 380.19512939453125 397.0881652832031 377.6243896484375 396.73162841796875 379.3528747558594 C 396.5151062011719 376.3312683105469 396.278564453125 372.29949951171875 396.0474853515625 369.1202087402344 C 395.6444091796875 365.562744140625 395.3634338378906 363.308349609375 394.9947204589844 361.0001525878906 C 395.48199462890625 356.920166015625 395.7298583984375 355.1253356933594 395.67047119140625 352.76214599609375 C 395.7397766113281 349.630615234375 395.6609802246094 346.05535888671875 395.6928405761719 342.08685302734375 C 395.5938720703125 338.25054931640625 396.2651062011719 338.17791748046875 396.204345703125 336.3366394042969 C 395.89599609375 333.98583984375 395.8531494140625 331.38818359375 395.8245849609375 328.9141845703125 C 398.26947021484375 328.7895812988281 400.6836853027344 328.55596923828125 402.8470764160156 328.377685546875 C 404.7852478027344 328.2529602050781 406.831787109375 328.05389404296875 407.9317932128906 327.9744567871094 C 408.8741760253906 327.9670715332031 411.4200744628906 327.95343017578125 413.78997802734375 328.552978515625 C 415.7987060546875 329.08367919921875 418.44671630859375 329.9638671875 420.94000244140625 330.7964172363281 C 420.26763916015625 332.8514404296875 419.64508056640625 334.7512512207031 419.22857666015625 336.44354248046875 C 418.8543701171875 338.1328430175781 420.6660461425781 338.4600830078125 422.1018981933594 338.7895202636719 C 421.7152099609375 342.37957763671875 421.6053466796875 343.85638427734375 421.5993347167969 346.90789794921875 C 421.5143737792969 351.92254638671875 421.35040283203125 354.8699035644531 421.236328125 356.56427001953125 C 420.64544677734375 361.47906494140625 420.5637512207031 360.08209228515625 421.5044860839844 364.28265380859375 C 421.9081726074219 367.8528747558594 422.3143005371094 371.7005615234375 422.60443115234375 375.2781677246094 C 422.5113220214844 378.6359558105469 422.58062744140625 381.8184509277344 422.13323974609375 383.8188781738281 C 421.3818054199219 387.8603210449219 421.26885986328125 383.5788879394531 420.6773681640625 389.0401306152344 C 421.003662109375 386.0553894042969 421.016357421875 390.5604248046875 420.45648193359375 393.9271545410156 C 420.9371032714844 390.03631591796875 421.06695556640625 391.5263671875 421.3433532714844 394.6948547363281 C 421.4942626953125 399.2647705078125 421.63543701171875 400.02740478515625 421.70208740234375 402.92645263671875 C 421.5626525878906 405.9356689453125 421.73651123046875 408.5375061035156 421.87109375 412.1738586425781 C 421.71954345703125 416.01849365234375 421.5228271484375 418.9236755371094 421.1540222167969 414.1434020996094 C 422.3874816894531 418.92779541015625 422.31402587890625 421.93310546875 421.9065246582031 425.8984069824219 C 425.22357177734375 426.0251159667969 427.3431701660156 425.9061279296875 432.5479431152344 425.3385314941406 C 435.15869140625 424.9667663574219 436.99847412109375 425.2672424316406 440.7285461425781 425.36871337890625 C 445.005859375 426.20648193359375 450.9906921386719 427.0362854003906 452.1155090332031 427.22052001953125 C 456.59765625 427.0920715332031 461.5707702636719 426.8349304199219 465.866943359375 427.01715087890625 C 465.372314453125 430.81671142578125 465.0346374511719 434.1822204589844 464.7436828613281 437.32513427734375 C 464.9479675292969 441.7342529296875 465.9854431152344 445.9756774902344 466.48773193359375 450.76361083984375 C 462.212158203125 451.04290771484375 458.3593444824219 451.15240478515625 453.194580078125 451.5963134765625 C 449.0616149902344 450.9118347167969 445.5109558105469 449.9423522949219 442.3699645996094 449.4950866699219 C 440.0120544433594 449.0867614746094 436.9046936035156 448.4513244628906 435.47357177734375 448.318359375 C 432.9091796875 448.0474548339844 437.4309997558594 448.4743957519531 433.6187438964844 449.06134033203125 C 427.9713439941406 450.0894470214844 422.8521423339844 450.5122375488281 417.4518737792969 449.2195129394531 C 412.9311828613281 448.12060546875 409.1892395019531 446.7608947753906 406.3628234863281 446.0653381347656 C 404.5982666015625 445.60992431640625 406.0738525390625 439.08306884765625 404.3567199707031 438.70782470703125 C 404.8575439453125 435.3115234375 402.4305419921875 435.2293701171875 399.5322570800781 435.4917907714844"/>
    <path stroke-width="0" fill="rgb(0, 0, 0)" opacity="1.0" d="M 565.7979125976562 454.2265930175781 C 550.4346923828125 452.5191650390625 525.8043212890625 452.19671630859375 544.9026489257812 443.5555419921875 C 548.5569458007812 451.5770568847656 538.2781982421875 453.20697021484375 526.4493408203125 443.7111511230469 C 538.9501342773438 443.0212097167969 545.9157104492188 449.153076171875 539.1409912109375 448.6712951660156 C 527.8946533203125 453.9891052246094 512.0661010742188 451.7590026855469 520.3645629882812 432.0846862792969 C 533.9297485351562 439.9095458984375 524.3736572265625 447.27880859375 523.170654296875 441.0753479003906 C 527.4324340820312 445.9088134765625 522.1958618164062 450.5271301269531 517.0380859375 446.73162841796875 C 518.6948852539062 448.4012145996094 494.29638671875 450.4385070800781 481.7489318847656 451.467041015625 C 488.6421203613281 454.6877136230469 491.03955078125 422.54071044921875 503.6596374511719 425.097900390625 C 502.599365234375 449.96014404296875 498.33868408203125 428.2337951660156 497.9125671386719 445.52313232421875 C 493.6789855957031 436.0928039550781 496.7742614746094 416.6903991699219 506.68603515625 419.6721496582031 C 499.5084228515625 438.1228332519531 492.7086181640625 433.6676330566406 496.1876220703125 433.63031005859375 C 496.04766845703125 425.1714782714844 494.4352722167969 424.6100158691406 493.9171447753906 424.4473571777344 C 491.0429992675781 399.8519592285156 496.8935241699219 396.8816223144531 495.8620910644531 409.68450927734375 C 484.934814453125 410.7923889160156 493.4356994628906 389.25323486328125 490.1639099121094 372.7180480957031 C 508.6285095214844 376.32672119140625 503.66131591796875 376.5833740234375 497.9305114746094 396.5797424316406 C 488.4560546875 387.0368347167969 502.39508056640625 388.98883056640625 494.37774658203125 386.4514465332031 C 492.6523132324219 373.4576110839844 505.1531677246094 383.7803649902344 490.42279052734375 399.88427734375 C 499.21771240234375 376.6462097167969 489.151611328125 360.78765869140625 496.9718322753906 372.3275146484375 C 490.9757995605469 371.60308837890625 490.00726318359375 368.49517822265625 488.9905700683594 373.306396484375 C 493.4738464355469 358.2261047363281 481.3652648925781 346.63604736328125 501.3542175292969 351.5676574707031 C 496.66876220703125 370.47442626953125 492.4333190917969 365.6106872558594 505.2803039550781 356.93756103515625 C 499.3568115234375 362.45721435546875 493.3648986816406 349.6078796386719 492.21844482421875 347.209716796875 C 491.4126892089844 334.54058837890625 498.7530517578125 334.96734619140625 491.9116516113281 355.16546630859375 C 490.1291809082031 345.3548889160156 489.7655029296875 333.06341552734375 485.7188720703125 325.0995788574219 C 494.8365478515625 327.7254943847656 497.8662414550781 329.9430236816406 520.5801391601562 332.0331726074219 C 505.6990051269531 347.6745910644531 500.060302734375 332.427978515625 499.9409484863281 332.82147216796875 C 521.2997436523438 332.1546630859375 523.1409912109375 334.8924255371094 508.02313232421875 337.1622314453125 C 514.8287963867188 330.2539978027344 517.0018920898438 337.6597595214844 504.000732421875 331.9065246582031 C 518.2623901367188 330.3745422363281 520.7439575195312 332.86883544921875 535.753173828125 331.8428649902344 C 531.719970703125 335.7489318847656 534.9255981445312 330.35797119140625 532.435791015625 330.0736389160156 C 536.855224609375 336.3006591796875 549.4467163085938 330.99420166015625 558.6343383789062 329.70404052734375 C 555.51171875 336.202880859375 555.2200927734375 331.2220458984375 558.577392578125 329.378662109375 C 557.6331176757812 334.2158203125 554.1846923828125 331.1423645019531 561.0836181640625 328.4375305175781 C 566.803466796875 333.3624267578125 557.4224853515625 334.3467712402344 556.5048217773438 347.922119140625 C 556.1819458007812 337.3909912109375 554.14111328125 333.60076904296875 559.5575561523438 340.103515625 C 555.4186401367188 339.2872009277344 550.5484008789062 341.23309326171875 557.509033203125 350.7131042480469 C 556.7314453125 352.07379150390625 550.3107299804688 350.89892578125 556.59765625 350.6802673339844 C 544.2349853515625 350.8084411621094 534.2395629882812 353.1081848144531 535.3871459960938 348.8255310058594 C 528.9347534179688 350.43377685546875 522.0242919921875 349.99951171875 538.693603515625 340.40338134765625 C 543.2025756835938 342.9166564941406 545.9844970703125 343.8191223144531 550.5855102539062 351.8099670410156 C 534.222412109375 353.4576721191406 521.897705078125 353.9254150390625 514.8409423828125 349.32598876953125 C 512.8190307617188 359.0006408691406 503.5818786621094 356.87799072265625 498.467041015625 356.0171813964844 C 518.5059814453125 349.17486572265625 517.5521240234375 364.0702209472656 518.2611694335938 366.9385070800781 C 512.8362426757812 364.5762939453125 500.2637939453125 361.7339782714844 505.8115234375 362.1506042480469 C 515.8101806640625 365.0592346191406 513.8226928710938 369.7019348144531 504.3362121582031 362.8260192871094 C 507.5491027832031 357.8763427734375 515.777099609375 358.15838623046875 515.4235229492188 359.61785888671875 C 520.23388671875 371.04461669921875 518.84521484375 358.57763671875 515.0444946289062 377.48760986328125 C 515.3707885742188 374.900634765625 529.7791137695312 380.25006103515625 537.9134521484375 378.31195068359375 C 533.3316040039062 375.91595458984375 547.3115844726562 383.8796691894531 547.0401000976562 379.8084411621094 C 553.0831909179688 374.1790466308594 552.98291015625 378.8046569824219 545.35546875 389.3946228027344 C 536.2274780273438 382.83087158203125 543.2578735351562 387.5709228515625 554.2486572265625 378.4730224609375 C 538.2949829101562 373.45550537109375 552.8671264648438 377.811767578125 555.24658203125 380.0279541015625 C 557.0292358398438 377.9539489746094 560.8700561523438 377.324462890625 549.572265625 376.7215576171875 C 549.9017944335938 382.75616455078125 544.8837890625 389.3115539550781 548.4977416992188 389.6054992675781 C 544.0477905273438 386.8782958984375 541.0586547851562 391.57476806640625 551.59716796875 393.0174255371094 C 534.7261962890625 398.9496154785156 541.021484375 393.91204833984375 545.3455810546875 388.1878356933594 C 542.8460693359375 397.43939208984375 541.2216186523438 398.0455017089844 540.7599487304688 389.5799255371094 C 547.7260131835938 389.2159423828125 550.99365234375 399.968017578125 547.2798461914062 400.01507568359375 C 518.6763305664062 403.70989990234375 511.031494140625 396.0526428222656 514.3786010742188 400.9962158203125 C 523.3053588867188 420.0233154296875 514.0748291015625 428.42706298828125 511.73077392578125 417.4781494140625 C 515.3917846679688 414.9514465332031 512.0877685546875 412.96136474609375 502.1629943847656 413.4061584472656 C 507.18780517578125 400.47052001953125 512.9236450195312 401.3437194824219 512.14208984375 405.26904296875 C 515.016845703125 419.6100769042969 517.448486328125 429.44342041015625 508.1339416503906 431.7707214355469 C 503.630615234375 426.02874755859375 511.2388000488281 422.39495849609375 511.6163024902344 427.820068359375 C 512.684814453125 427.24530029296875 537.1417846679688 424.2380065917969 527.89111328125 433.297607421875 C 515.1190795898438 426.3106384277344 535.8527221679688 423.3974304199219 552.259521484375 432.2407531738281 C 532.0733642578125 437.1135559082031 527.8419189453125 426.3169250488281 542.388916015625 428.3721618652344 C 547.2628784179688 423.7392578125 549.6713256835938 432.89337158203125 554.219482421875 426.97021484375 C 554.9777221679688 429.1755676269531 558.9954833984375 432.56597900390625 555.7662353515625 428.1983337402344 C 552.506103515625 433.88720703125 556.9544677734375 431.1590881347656 553.6873779296875 447.2391357421875 C 550.4369506835938 439.063720703125 554.5267944335938 441.0386962890625 547.9607543945312 434.0906982421875 C 552.5068969726562 427.3572998046875 562.0007934570312 434.66265869140625 551.644287109375 428.0665588378906 C 554.5784301757812 434.46136474609375 553.3680419921875 440.7292785644531 551.96875 443.0572814941406 C 549.7181396484375 430.9106140136719 555.4921875 441.6324768066406 565.7979125976562 454.2265930175781"/>
    <path stroke-width="0" fill="rgb(0, 0, 0)" opacity="1.0" d="M 30.57406234741211 309.6140441894531 C 31.52928924560547 299.45635986328125 42.88412094116211 298.60211181640625 38.74536895751953 294.50030517578125 C 42.859928131103516 291.2021484375 47.72293472290039 285.944091796875 53.3651008605957 284.6488037109375 C 60.441585540771484 281.9780578613281 66.22620391845703 279.1009216308594 71.51970672607422 275.61383056640625 C 78.82469940185547 273.02154541015625 82.17071533203125 271.02764892578125 84.52935028076172 267.9649658203125 C 87.00249481201172 264.8779296875 90.30004119873047 259.9147033691406 93.1609115600586 255.02369689941406 C 80.41899871826172 263.27178955078125 78.25293731689453 260.7319641113281 74.51327514648438 257.8594970703125 C 73.51781463623047 255.33364868164062 83.09635925292969 250.07315063476562 87.45523834228516 247.5716552734375 C 90.83419799804688 253.14633178710938 95.14665985107422 237.57559204101562 101.74104309082031 237.82676696777344 C 101.36930084228516 240.76394653320312 101.19825744628906 242.98391723632812 101.1480712890625 244.04327392578125 C 101.42314910888672 244.72128295898438 101.67071533203125 245.2869110107422 94.70841217041016 237.2629852294922 C 96.14705657958984 238.59817504882812 98.09567260742188 240.26028442382812 100.16541290283203 242.16073608398438 C 105.37261199951172 248.72067260742188 102.6847152709961 251.26126098632812 104.63028717041016 250.91798400878906 C 107.75897979736328 250.4488067626953 114.0329818725586 247.16793823242188 121.31671905517578 244.6042022705078 C 128.6776885986328 242.11868286132812 134.21395874023438 243.27090454101562 138.03445434570312 246.79302978515625 C 141.07681274414062 249.55477905273438 143.0281219482422 253.6706085205078 143.39564514160156 257.758544921875 C 144.97422790527344 262.722412109375 144.86651611328125 265.80328369140625 143.37216186523438 269.3643493652344 C 142.0805206298828 273.1385498046875 139.32858276367188 276.0578308105469 133.1920166015625 279.2200012207031 C 127.93668365478516 282.058837890625 123.9011001586914 283.1608581542969 119.92169189453125 282.5284729003906 C 115.50080108642578 281.677490234375 111.75743865966797 279.6799011230469 108.69134521484375 276.3905029296875 C 105.93540954589844 273.3221740722656 104.51946258544922 269.4088439941406 104.2569580078125 267.3536682128906 C 105.32286834716797 266.92181396484375 106.42261505126953 265.9065246582031 108.3310775756836 264.146240234375 C 112.27973937988281 270.5616455078125 111.91718292236328 277.6856994628906 108.33536529541016 286.2655944824219 C 103.96641540527344 292.69805908203125 95.9375228881836 297.01385498046875 85.64859008789062 298.9298400878906 C 78.1931381225586 300.8893737792969 70.88410186767578 302.8819580078125 64.25904083251953 304.35565185546875 C 54.24540328979492 307.775146484375 40.99667739868164 310.4936218261719 30.57406234741211 309.6140441894531"/>
    <path stroke-width="0" fill="rgb(0, 0, 0)" opacity="1.0" d="M 138.35433959960938 276.59954833984375 C 133.34994506835938 267.3009338378906 128.7173614501953 254.6809539794922 124.86695098876953 243.1492462158203 C 131.3759765625 241.6556396484375 136.3587188720703 240.72689819335938 140.3802947998047 239.16542053222656 C 144.56961059570312 237.78236389160156 145.8491973876953 237.09097290039062 147.51133728027344 236.11558532714844 C 149.5067901611328 234.13185119628906 149.98187255859375 233.5465850830078 150.15478515625 233.0646514892578 C 151.94259643554688 231.43283081054688 161.4614715576172 230.30697631835938 160.28695678710938 224.45701599121094 C 167.3140411376953 222.4592742919922 167.9116973876953 222.7155303955078 196.6681671142578 206.88351440429688 C 188.63690185546875 233.11203002929688 178.03463745117188 242.8218231201172 173.0897216796875 248.40310668945312 C 175.35433959960938 249.89492797851562 174.17381286621094 251.2798614501953 177.71339416503906 244.03993225097656 C 173.2257537841797 243.74554443359375 170.4613037109375 243.78524780273438 169.2186279296875 243.77584838867188 C 170.8049774169922 245.52487182617188 172.08950805664062 246.29095458984375 172.18087768554688 244.54273986816406 C 172.20269775390625 240.78392028808594 167.67034912109375 246.98524475097656 175.44081115722656 245.82347106933594 C 186.1496124267578 244.17562866210938 193.5257568359375 245.18862915039062 186.4287109375 244.70928955078125 C 185.08766174316406 244.66163635253906 190.4644317626953 241.7750701904297 195.72129821777344 238.230224609375 C 199.30874633789062 235.2588348388672 201.0920867919922 233.08274841308594 202.8997802734375 231.24725341796875 C 203.1855010986328 230.32083129882812 204.0613555908203 228.68972778320312 203.22097778320312 228.06805419921875 C 203.88357543945312 226.7525177001953 204.37940979003906 227.03651428222656 224.53492736816406 218.5642547607422 C 218.4881134033203 235.7158203125 214.1904296875 243.7795867919922 220.688232421875 243.30604553222656 C 236.37625122070312 229.6122589111328 236.4267120361328 230.6036834716797 236.359130859375 235.0480194091797 C 232.99517822265625 242.47654724121094 230.15548706054688 248.6724853515625 229.4781036376953 251.66307067871094 C 228.82810974121094 251.56211853027344 226.73989868164062 251.023681640625 228.14376831054688 253.9581298828125 C 228.9114990234375 255.5413055419922 230.55726623535156 256.9379577636719 232.89315795898438 254.4226531982422 C 233.33192443847656 254.4880828857422 233.990234375 254.11856079101562 245.1418914794922 246.3388671875 C 257.5709533691406 249.28372192382812 245.04278564453125 251.84561157226562 250.40565490722656 245.40757751464844 C 254.75779724121094 240.72825622558594 256.583740234375 236.581298828125 258.4112854003906 229.72500610351562 C 258.1248474121094 233.79678344726562 258.6469421386719 231.29873657226562 259.56427001953125 228.42837524414062 C 259.86297607421875 226.94308471679688 262.6512451171875 235.58953857421875 261.6415710449219 234.0585479736328 C 265.4649658203125 234.03463745117188 270.1736145019531 234.05203247070312 268.7174072265625 231.4658660888672 C 275.04766845703125 226.87957763671875 275.82366943359375 216.29669189453125 283.9559020996094 214.08302307128906 C 284.6757507324219 223.7720184326172 284.936767578125 224.1966094970703 283.6263732910156 233.4825439453125 C 283.7744445800781 235.52554321289062 284.48382568359375 239.5404815673828 285.9045104980469 241.22845458984375 C 287.9786682128906 244.23049926757812 297.6444091796875 248.99559020996094 304.07763671875 254.65748596191406 C 285.6788024902344 241.6329803466797 285.99053955078125 241.94859313964844 305.1244201660156 225.69879150390625 C 311.05902099609375 251.3337860107422 312.5968322753906 252.8388214111328 313.2384948730469 254.42251586914062 C 314.0460510253906 255.919677734375 314.35968017578125 257.2906188964844 314.5338439941406 258.6880798339844 C 315.031005859375 261.2112731933594 314.5767822265625 263.6341552734375 313.0323181152344 265.8582458496094 C 311.39849853515625 268.1991271972656 308.44549560546875 269.60498046875 304.7792053222656 269.5381774902344 C 302.1622619628906 269.6462707519531 302.40655517578125 281.6959533691406 292.4394226074219 284.91461181640625 C 288.54498291015625 285.4603576660156 284.3544006347656 285.55230712890625 282.70941162109375 285.3982849121094 C 277.7292785644531 274.18133544921875 277.3434753417969 273.68707275390625 276.16925048828125 272.2320861816406 C 277.9461975097656 268.9543762207031 272.9734191894531 261.100830078125 270.3857727050781 253.88768005371094 C 271.77325439453125 254.3280487060547 273.3711853027344 254.76185607910156 274.6880798339844 255.0868377685547 C 276.4851989746094 263.3582763671875 274.8150939941406 269.2564697265625 270.4857482910156 276.22528076171875 C 265.5556945800781 284.1313781738281 262.23492431640625 287.2438659667969 258.6259460449219 289.86376953125 C 250.64529418945312 288.6025390625 245.64962768554688 287.6076965332031 262.6522521972656 281.96044921875 C 256.6135559082031 287.07489013671875 245.7776336669922 297.6228332519531 230.92918395996094 303.6062316894531 C 222.0176544189453 297.78533935546875 227.73358154296875 280.4583740234375 226.2499542236328 270.22198486328125 C 219.12823486328125 267.2430725097656 216.3295135498047 262.59185791015625 216.6951141357422 257.9862365722656 C 218.04098510742188 258.0618896484375 220.00128173828125 258.3097839355469 221.0792999267578 258.4095458984375 C 219.46438598632812 262.8533935546875 218.81639099121094 269.69757080078125 215.40611267089844 274.4804382324219 C 212.81333923339844 277.79901123046875 202.0083770751953 283.51904296875 193.3527069091797 285.76068115234375 C 189.23867797851562 285.9801940917969 180.77162170410156 282.9870300292969 180.7091064453125 282.88531494140625 C 196.20941162109375 262.3740539550781 195.52490234375 263.15411376953125 187.5597686767578 267.046142578125 C 178.0389404296875 269.5391845703125 173.51158142089844 269.5423889160156 167.9041748046875 268.07281494140625 C 162.32723999023438 261.5650939941406 160.93470764160156 257.4023742675781 160.74331665039062 252.7099151611328 C 162.76455688476562 253.03915405273438 163.968505859375 252.996826171875 165.00868225097656 252.75392150878906 C 165.48263549804688 257.36004638671875 163.6746063232422 260.51849365234375 160.24220275878906 263.0371398925781 C 158.02891540527344 265.2666931152344 157.4617919921875 265.554931640625 154.23069763183594 268.1215515136719 C 149.75088500976562 270.5788879394531 143.94793701171875 273.19427490234375 138.35433959960938 276.59954833984375"/>
    <path stroke-width="0" fill="rgb(0, 0, 0)" opacity="1.0" d="M 307.712158203125 269.6802062988281 C 307.5692443847656 263.3818664550781 306.3853759765625 256.7062683105469 310.2390441894531 250.88986206054688 C 312.5864562988281 252.17506408691406 314.43017578125 252.67828369140625 315.36334228515625 252.54994201660156 C 316.43719482421875 252.23878479003906 315.24560546875 248.5895233154297 316.11065673828125 244.05076599121094 C 318.036376953125 239.27517700195312 319.40509033203125 235.03689575195312 319.454833984375 235.58343505859375 C 319.6546325683594 231.77548217773438 320.0796813964844 227.05941772460938 320.01519775390625 222.7515869140625 C 319.9808349609375 220.06268310546875 319.547119140625 216.90567016601562 319.0973815917969 215.24131774902344 C 317.93890380859375 213.01585388183594 316.4418640136719 210.836181640625 314.594482421875 209.03053283691406 C 319.3951110839844 204.3470458984375 324.8501281738281 200.6038360595703 330.5607604980469 196.3056182861328 C 332.76812744140625 199.9105224609375 334.546142578125 203.53662109375 336.2050476074219 208.2528839111328 C 337.9187316894531 213.33636474609375 338.3580017089844 218.16966247558594 338.1965026855469 223.3154754638672 C 338.4343566894531 227.88455200195312 338.0653991699219 231.9471893310547 337.5616149902344 235.2732696533203 C 336.55230712890625 239.62474060058594 335.33026123046875 243.72962951660156 334.31842041015625 246.0717315673828 C 333.3813171386719 248.64605712890625 332.664794921875 250.850341796875 331.5439147949219 253.9037322998047 C 330.1426696777344 257.45196533203125 328.0802917480469 260.3549499511719 325.4814758300781 262.7582702636719 C 323.61822509765625 263.98834228515625 321.3379211425781 265.0956115722656 318.6054382324219 266.5962219238281 C 315.4150085449219 268.1395568847656 311.8069763183594 269.1517333984375 307.712158203125 269.6802062988281M 307.0240783691406 180.7022247314453 C 330.3572082519531 160.60081481933594 328.7267761230469 143.9302520751953 298.2556457519531 157.51473999023438 C 325.5765075683594 173.5710906982422 345.6530456542969 165.1685333251953 354.0789794921875 150.5030517578125 C 324.05255126953125 155.90655517578125 311.72308349609375 158.21778869628906 255.82937622070312 145.4080352783203 C 325.5191345214844 124.52767944335938 342.7193908691406 144.9951934814453 331.7490539550781 163.85618591308594 C 338.9151306152344 154.64927673339844 352.5312805175781 146.6732940673828 344.7996520996094 166.37144470214844 C 299.2279968261719 172.84078979492188 283.5753173828125 173.48785400390625 365.64239501953125 175.3588409423828 C 345.4718017578125 131.26795959472656 389.73291015625 165.6493682861328 363.0285949707031 204.29421997070312 C 364.99261474609375 172.41598510742188 355.6081848144531 183.23269653320312 307.0240783691406 180.7022247314453"/>
  </g>
</svg>
