<?xml version="1.0" ?>
<svg xmlns="http://www.w3.org/2000/svg" version="1.1" width="600" height="600">
  <defs/>
  <g>
    <path stroke-width="0" fill="rgb(0, 0, 0)" opacity="1.0" d="M 155.1672821044922 367.5928955078125 C 156.45721435546875 373.82470703125 154.0443115234375 381.03778076171875 158.46011352539062 373.4172058105469 C 158.74862670898438 380.1794128417969 157.69143676757812 384.3918151855469 157.02850341796875 386.128173828125 C 156.66200256347656 387.70965576171875 156.14988708496094 389.5478820800781 155.44943237304688 391.2354431152344 C 154.04197692871094 395.44281005859375 152.1107940673828 399.31976318359375 149.604736328125 402.0741882324219 C 147.2742156982422 404.14007568359375 144.45587158203125 406.630126953125 139.74359130859375 409.76153564453125 C 139.1127166748047 410.03985595703125 125.7396469116211 399.4269104003906 123.16495513916016 398.88507080078125 C 120.45399475097656 398.3946228027344 118.58597564697266 398.048583984375 117.3193588256836 397.9264831542969 C 113.4327163696289 398.4671936035156 108.54743957519531 397.73309326171875 105.2919692993164 396.19720458984375 C 102.54263305664062 396.7105407714844 98.9835433959961 397.2952575683594 94.551025390625 397.6063232421875 C 87.58863067626953 397.83184814453125 91.4460220336914 399.44891357421875 89.6001968383789 399.75244140625 C 84.56343078613281 400.1204528808594 82.737060546875 399.7920837402344 81.17857360839844 399.3359680175781 C 77.47409057617188 398.1558837890625 75.25114440917969 396.8114929199219 73.7790298461914 395.64056396484375 C 71.20069122314453 393.8072814941406 68.90641021728516 391.8763732910156 67.16775512695312 389.2632141113281 C 66.10514068603516 386.88104248046875 65.23439025878906 385.1684875488281 63.56815719604492 382.6562194824219 C 62.21019744873047 379.8301086425781 61.33504104614258 376.6497802734375 61.409908294677734 375.65185546875 C 61.22895812988281 371.4318542480469 61.51665115356445 369.7583923339844 61.43235778808594 368.8119812011719 C 60.91924285888672 365.1044616699219 60.485294342041016 361.9491882324219 60.03115463256836 358.4888000488281 C 59.666099548339844 355.6771240234375 60.24647521972656 351.4510192871094 61.67425537109375 346.5247497558594 C 61.90683364868164 343.44488525390625 61.885948181152344 342.6037292480469 61.8917236328125 341.5128479003906 C 69.28658294677734 332.5792236328125 76.61296081542969 330.8059997558594 83.66928100585938 330.7929992675781 C 86.36099243164062 329.5852966308594 89.549560546875 329.3466796875 92.39703369140625 329.34619140625 C 95.57386016845703 327.97943115234375 97.03068542480469 326.9388122558594 98.37606048583984 326.15216064453125 C 100.50292205810547 323.9013366699219 102.73674011230469 321.06134033203125 104.57653045654297 318.7073974609375 C 106.4051284790039 316.2335205078125 108.7410659790039 312.83087158203125 112.62344360351562 308.8258361816406 C 117.04674530029297 306.0085144042969 119.53437805175781 305.22955322265625 123.49784088134766 304.01678466796875 C 126.39131164550781 303.76715087890625 124.9799575805664 303.8907470703125 129.4007568359375 303.9798583984375 C 135.89389038085938 304.9894104003906 141.11407470703125 306.8327331542969 145.9504852294922 310.1053161621094 C 149.53868103027344 313.5726013183594 152.5054168701172 317.5237121582031 153.7942657470703 324.2723693847656 C 154.69895935058594 329.64703369140625 154.5614013671875 333.19256591796875 154.46011352539062 337.7728576660156 C 153.90289306640625 343.2441711425781 154.03855895996094 346.04864501953125 154.12646484375 351.2725830078125 C 154.14523315429688 353.3103332519531 153.86244201660156 356.78216552734375 153.9402618408203 357.4927673339844 C 154.03843688964844 360.281005859375 154.6224822998047 362.919189453125 155.1672821044922 367.5928955078125M 77.97138214111328 364.8127136230469 C 77.91864776611328 369.40447998046875 77.69043731689453 372.8642883300781 78.15522003173828 377.0278625488281 C 78.18846130371094 372.792236328125 79.12946319580078 375.0723876953125 80.60665130615234 377.7682189941406 C 82.4544448852539 382.2974853515625 85.09809112548828 384.41436767578125 87.78207397460938 385.3385925292969 C 89.37535858154297 385.877197265625 92.41223907470703 386.4191589355469 95.22711181640625 386.6786804199219 C 97.56470489501953 386.8052673339844 101.43212890625 386.64910888671875 107.00061798095703 387.4046936035156 C 111.1290054321289 388.606689453125 113.90446472167969 388.4603271484375 117.36381530761719 387.9729309082031 C 120.66517639160156 387.2621154785156 124.83915710449219 388.2292175292969 127.31572723388672 388.3688049316406 C 129.8809814453125 386.9584655761719 131.43731689453125 384.7052307128906 132.94532775878906 380.1379699707031 C 134.24105834960938 377.4754638671875 135.2080535888672 375.130615234375 135.26100158691406 374.2602844238281 C 135.07313537597656 368.7491149902344 135.0363006591797 372.6566162109375 134.52235412597656 367.0188903808594 C 133.50408935546875 357.81756591796875 133.61741638183594 351.6380310058594 133.14306640625 345.6641540527344 C 135.10679626464844 336.28948974609375 136.005859375 329.63250732421875 135.78097534179688 325.44720458984375 C 134.88705444335938 322.5806579589844 133.11570739746094 320.44232177734375 129.66709899902344 318.79559326171875 C 126.55522918701172 318.19549560546875 123.20801544189453 318.0827331542969 120.24417114257812 318.7943420410156 C 118.0916976928711 321.8079833984375 116.22456359863281 325.4153137207031 114.77059173583984 331.1585388183594 C 111.89610290527344 336.1336975097656 107.50323486328125 341.83380126953125 101.18093872070312 344.8559875488281 C 93.7601089477539 348.15057373046875 82.60265350341797 348.7449035644531 80.4679183959961 350.4070129394531 C 80.39627838134766 341.8082275390625 79.68571472167969 345.48828125 78.7835922241211 351.0704650878906 C 77.89027404785156 355.915771484375 77.66857147216797 360.69891357421875 77.97138214111328 364.8127136230469"/>
    <path stroke-width="0" fill="rgb(0, 0, 0)" opacity="1.0" d="M 217.88189697265625 331.3797912597656 C 215.0034637451172 330.6806335449219 212.6009979248047 330.5887451171875 211.42367553710938 330.9497985839844 C 208.3625946044922 332.0086975097656 206.0253143310547 333.56561279296875 204.6585235595703 334.7301940917969 C 203.17379760742188 336.3419494628906 202.1262969970703 338.51513671875 201.56356811523438 343.5479431152344 C 200.7989044189453 347.0478515625 201.50074768066406 341.1925964355469 202.40374755859375 345.862060546875 C 202.84364318847656 346.57330322265625 204.95948791503906 349.0538635253906 207.34585571289062 350.8208923339844 C 210.2036590576172 352.59417724609375 213.05194091796875 353.758056640625 222.0497283935547 356.6583251953125 C 230.9021759033203 362.8526916503906 240.82505798339844 372.2348937988281 243.56103515625 387.5589294433594 C 238.4183807373047 400.28741455078125 231.57757568359375 408.7608947753906 230.1920166015625 400.552001953125 C 230.33010864257812 401.6778259277344 230.7381591796875 402.3048400878906 220.03341674804688 396.50390625 C 221.1126251220703 396.3760070800781 222.341064453125 395.39349365234375 226.00848388671875 392.0055847167969 C 228.09950256347656 390.49481201171875 231.65272521972656 389.75640869140625 234.45594787597656 389.28802490234375 C 237.28456115722656 388.9328308105469 240.35873413085938 388.5479736328125 243.1013641357422 388.0823059082031 C 242.5052490234375 391.7311706542969 241.86231994628906 395.434814453125 241.2139434814453 399.0078430175781 C 245.11521911621094 396.3723449707031 241.5390167236328 398.7033996582031 243.42051696777344 401.4284362792969 C 242.0569610595703 403.4595947265625 240.45433044433594 405.5380859375 241.6083526611328 409.4670715332031 C 240.8673095703125 410.1218566894531 240.29641723632812 410.6265563964844 239.611083984375 411.2674865722656 C 238.3099365234375 412.64251708984375 235.8838653564453 415.099609375 231.4612579345703 418.18487548828125 C 225.9571075439453 420.3173828125 219.3251495361328 421.31549072265625 214.09991455078125 420.96435546875 C 209.99142456054688 416.7334899902344 207.2631378173828 411.8982238769531 205.9542236328125 407.8229675292969 C 205.4093780517578 406.1547546386719 210.59275817871094 396.93475341796875 214.96726989746094 391.95867919921875 C 215.99696350097656 388.11346435546875 215.77716064453125 385.37139892578125 215.823486328125 382.72119140625 C 217.6155242919922 386.9858703613281 215.4178009033203 383.8367614746094 214.97396850585938 383.1875305175781 C 213.05828857421875 382.009765625 212.0147705078125 381.2525329589844 209.79954528808594 379.6697692871094 C 203.3811492919922 377.73681640625 199.5481414794922 375.8139343261719 194.64297485351562 372.696533203125 C 191.2397918701172 370.1573791503906 188.35125732421875 366.7152404785156 186.35659790039062 364.3807373046875 C 183.80491638183594 359.559814453125 182.86029052734375 358.26971435546875 180.4556884765625 353.8398132324219 C 179.0887908935547 347.9905090332031 178.59706115722656 345.92120361328125 177.90306091308594 340.7566223144531 C 179.32321166992188 336.4216613769531 177.34402465820312 340.5166320800781 178.7035369873047 336.6717224121094 C 179.29678344726562 334.9950866699219 180.26608276367188 331.5194091796875 181.93421936035156 327.8455505371094 C 183.9429931640625 324.9678039550781 185.54083251953125 322.8802795410156 188.77081298828125 319.73529052734375 C 191.58038330078125 317.59881591796875 193.67027282714844 316.5509033203125 195.64437866210938 315.4674377441406 C 197.91908264160156 314.2543029785156 201.12017822265625 313.1089172363281 202.99664306640625 312.70556640625 C 205.56666564941406 312.14300537109375 209.0615997314453 311.4986572265625 212.95909118652344 311.4289855957031 C 216.6393585205078 311.6678466796875 220.05850219726562 312.51983642578125 223.71351623535156 313.88372802734375 C 225.7220916748047 314.57000732421875 229.26295471191406 316.0083923339844 231.3959197998047 317.22320556640625 C 233.76028442382812 318.86248779296875 235.55259704589844 320.2572326660156 233.10870361328125 317.9751892089844 C 234.5699005126953 318.5035400390625 235.87261962890625 319.1703186035156 237.1281280517578 319.5234680175781 C 238.43551635742188 320.7599792480469 239.81863403320312 322.43927001953125 241.14263916015625 324.6180419921875 C 238.78060913085938 326.1947937011719 237.08987426757812 327.8486022949219 240.62376403808594 330.4308166503906 C 238.92938232421875 334.31329345703125 238.1356658935547 336.5373840332031 237.1017303466797 339.4797058105469 C 233.4268035888672 337.7994079589844 228.966796875 336.0093688964844 226.98573303222656 335.11224365234375 C 223.58836364746094 333.850341796875 220.73532104492188 332.2395324707031 217.88189697265625 331.3797912597656"/>
    <path stroke-width="0" fill="rgb(0, 0, 0)" opacity="1.0" d="M 316.62176513671875 407.59912109375 C 314.42120361328125 407.9456481933594 311.5611572265625 408.3746337890625 310.7684326171875 408.2345886230469 C 308.1133728027344 415.8036804199219 318.6394958496094 416.36968994140625 316.3890380859375 416.5910949707031 C 313.7296447753906 416.6935119628906 313.0623474121094 416.7362365722656 312.19140625 416.9143371582031 C 311.4990539550781 416.6607666015625 318.8029479980469 417.9851989746094 317.3885192871094 418.46014404296875 C 314.15716552734375 420.8798828125 311.06353759765625 421.96368408203125 303.9552001953125 423.61700439453125 C 298.66229248046875 423.8014831542969 294.5055847167969 423.6917419433594 290.78240966796875 423.1936950683594 C 286.8331298828125 422.4320983886719 288.8717041015625 418.16357421875 287.3574523925781 417.0248107910156 C 289.4497985839844 414.01361083984375 286.28741455078125 413.20123291015625 282.5888671875 412.5006408691406 C 283.3279113769531 409.1770324707031 284.6689147949219 406.0672912597656 286.4300537109375 402.962158203125 C 285.8274230957031 402.5146789550781 280.1690673828125 399.8370056152344 279.0765380859375 399.3839416503906 C 280.7002258300781 395.51239013671875 282.1829833984375 392.4460754394531 281.3847351074219 395.669189453125 C 281.6588439941406 394.0740966796875 281.9685363769531 392.4420166015625 283.1289367675781 389.5545654296875 C 283.8921203613281 386.8907470703125 283.753662109375 389.60491943359375 283.16375732421875 387.4051818847656 C 281.900634765625 384.0366516113281 280.8094482421875 381.3054504394531 280.28216552734375 376.95611572265625 C 278.3017578125 370.4989929199219 275.71826171875 361.7093811035156 276.18292236328125 360.8206481933594 C 274.1332092285156 367.3926086425781 274.1343688964844 365.6802062988281 274.01995849609375 364.4120178222656 C 274.2251892089844 361.5304870605469 274.0659484863281 356.5670166015625 274.06927490234375 352.182373046875 C 274.5436706542969 349.03497314453125 276.2154846191406 354.0680847167969 276.0484313964844 349.6380310058594 C 275.5637512207031 346.74420166015625 275.28131103515625 343.045166015625 274.55230712890625 339.8340148925781 C 274.9529724121094 335.9883728027344 275.4314270019531 332.9883728027344 276.37298583984375 329.46966552734375 C 276.3680114746094 332.2523193359375 276.75830078125 327.8264465332031 277.1097412109375 323.2594299316406 C 277.8148193359375 320.1881408691406 276.7059326171875 323.4031066894531 276.6519775390625 318.4266357421875 C 276.5255432128906 316.5119323730469 279.32073974609375 316.3244323730469 280.2957763671875 315.9754333496094 C 281.8409423828125 314.34954833984375 282.25244140625 311.4203796386719 280.00433349609375 311.7549743652344 C 279.60321044921875 308.8777770996094 281.4894104003906 306.4619140625 284.9305419921875 304.6844177246094 C 288.1709899902344 303.70477294921875 289.73541259765625 303.6485290527344 291.48590087890625 303.6814270019531 C 292.77838134765625 303.74652099609375 296.492919921875 303.5415954589844 300.12677001953125 303.6540832519531 C 297.8215637207031 303.9848937988281 303.3609313964844 303.1401062011719 299.57000732421875 303.29949951171875 C 304.6890869140625 303.3216857910156 309.30633544921875 303.52117919921875 312.6764831542969 303.2206115722656 C 316.0424499511719 302.9461669921875 320.0953674316406 302.1836853027344 327.8059387207031 301.2033996582031 C 334.83514404296875 301.3771057128906 329.44879150390625 301.84637451171875 330.1189270019531 303.88128662109375 C 334.88446044921875 301.2052307128906 340.206787109375 300.7153015136719 343.68896484375 300.4593505859375 C 343.58636474609375 302.70166015625 343.641845703125 304.4200744628906 345.406982421875 302.8344421386719 C 347.476318359375 306.9940490722656 348.7165222167969 308.9186706542969 350.5919494628906 311.6114807128906 C 351.0308837890625 315.7728271484375 350.2056579589844 320.41510009765625 348.9554138183594 324.1399841308594 C 347.9380798339844 325.81036376953125 346.80523681640625 328.05126953125 345.6607666015625 330.2617492675781 C 343.5924072265625 329.17724609375 341.3130798339844 327.9880676269531 339.26611328125 326.776123046875 C 338.5572204589844 326.50592041015625 336.94329833984375 325.87005615234375 336.6498107910156 327.4443054199219 C 332.89666748046875 328.0549011230469 335.7561340332031 327.29541015625 332.1053161621094 326.7940979003906 C 328.8888244628906 326.8583068847656 325.04998779296875 326.6763610839844 321.59356689453125 326.8244934082031 C 315.7096862792969 327.5301513671875 310.88287353515625 327.1533508300781 305.6756286621094 327.2076721191406 C 302.333251953125 327.0301513671875 299.5003356933594 326.8365478515625 303.75714111328125 326.41729736328125 C 300.9789123535156 326.1737365722656 303.3119812011719 326.2934875488281 300.5075988769531 326.59442138671875 C 300.21356201171875 329.4304504394531 300.278564453125 330.51019287109375 300.13787841796875 333.4307861328125 C 299.87054443359375 335.778564453125 299.5186462402344 337.3857727050781 299.09075927734375 339.57080078125 C 298.94287109375 340.4002685546875 298.673583984375 335.61407470703125 299.5953063964844 338.2740173339844 C 300.14923095703125 342.38616943359375 300.5233459472656 344.907958984375 300.7940979003906 347.66473388671875 C 305.21612548828125 346.94830322265625 308.5531005859375 347.0074462890625 312.6178894042969 347.14764404296875 C 316.2735900878906 347.7306213378906 318.90570068359375 348.4002685546875 313.5627136230469 349.41644287109375 C 316.5673828125 349.05224609375 322.81622314453125 347.9079284667969 327.1806640625 347.7756042480469 C 329.54400634765625 349.12591552734375 332.296875 352.09423828125 334.6133117675781 354.4474792480469 C 333.1377868652344 355.8304748535156 331.560791015625 357.2267761230469 329.58148193359375 358.750244140625 C 332.0833435058594 360.3779296875 334.9812316894531 360.9160461425781 337.6663513183594 361.4505615234375 C 334.1961364746094 361.8881530761719 334.4454040527344 363.2134704589844 331.60430908203125 364.1172180175781 C 329.0087585449219 365.2889709472656 330.5762023925781 366.23016357421875 331.99969482421875 367.13348388671875 C 330.5776062011719 369.2633361816406 328.7589416503906 372.8113708496094 325.8846740722656 373.4732971191406 C 324.4415283203125 373.4419250488281 319.8278503417969 373.81048583984375 316.7574462890625 374.422607421875 C 313.0646057128906 373.7308654785156 309.95849609375 372.6653747558594 308.68316650390625 372.3545227050781 C 306.9162292480469 372.1354675292969 302.8379211425781 372.0015563964844 302.1663513183594 371.946044921875 C 303.9222412109375 363.10369873046875 304.5279235839844 365.8248596191406 305.57293701171875 368.9332580566406 C 307.1039733886719 372.88616943359375 308.667236328125 377.5728454589844 310.2186584472656 382.6619873046875 C 310.5538024902344 389.21588134765625 308.98382568359375 394.05792236328125 306.66058349609375 399.1390380859375 C 307.1080322265625 396.2438049316406 306.4922180175781 399.57659912109375 305.6394958496094 401.9105224609375 C 307.0373229980469 401.5441589355469 308.3382873535156 401.167236328125 304.8827209472656 402.19989013671875 C 308.5832824707031 399.8632507324219 313.309326171875 397.8429870605469 318.81475830078125 396.1986389160156 C 319.1637878417969 396.26922607421875 311.3511657714844 393.9875793457031 313.5909118652344 393.7145690917969 C 314.2530822753906 393.6966857910156 315.2929992675781 393.67559814453125 316.49884033203125 393.5016784667969 C 317.2043151855469 393.51202392578125 317.59368896484375 393.5641784667969 318.12298583984375 393.6927490234375 C 317.15234375 395.6365051269531 316.277587890625 398.6111145019531 316.60406494140625 401.49462890625 C 317.57611083984375 402.93585205078125 318.4300537109375 404.18359375 319.34649658203125 403.4089050292969 C 320.25225830078125 404.4115295410156 321.6204833984375 403.6275939941406 322.0502014160156 404.3764343261719 C 322.8642272949219 405.8094787597656 323.68450927734375 406.2043151855469 325.5219421386719 406.7254638671875 C 322.939697265625 405.3293762207031 318.85369873046875 403.7105712890625 315.9724426269531 403.3504943847656 C 316.15576171875 404.8123474121094 316.4818115234375 406.42242431640625 316.62176513671875 407.59912109375"/>
    <path stroke-width="0" fill="rgb(0, 0, 0)" opacity="1.0" d="M 429.995361328125 404.48150634765625 C 430.86737060546875 402.7983093261719 427.05718994140625 400.52667236328125 427.3275146484375 398.0303039550781 C 427.0525207519531 396.2135314941406 426.3081359863281 393.7104797363281 425.4302673339844 391.28753662109375 C 422.89276123046875 392.3355712890625 417.68243408203125 393.52337646484375 411.4533386230469 393.83331298828125 C 405.83526611328125 394.434814453125 402.10693359375 394.80126953125 398.50347900390625 394.2423095703125 C 395.3797607421875 394.3562316894531 390.8852233886719 394.5686950683594 387.08575439453125 394.18072509765625 C 382.283447265625 393.70855712890625 378.5455017089844 393.0686340332031 375.3187255859375 392.5971374511719 C 374.97979736328125 393.75909423828125 374.06280517578125 397.9287109375 373.0869445800781 402.8151550292969 C 372.8550720214844 407.5378112792969 369.2494201660156 410.7421569824219 371.6127014160156 414.87921142578125 C 368.1074523925781 418.03729248046875 364.2751770019531 419.0173034667969 361.7469787597656 419.5433654785156 C 358.891357421875 419.389892578125 353.47357177734375 417.40142822265625 347.9211730957031 415.8028259277344 C 349.50341796875 413.545166015625 351.2972412109375 411.1725158691406 353.1785888671875 408.646484375 C 354.33819580078125 407.0048828125 351.88592529296875 406.3030700683594 352.3064880371094 405.1746520996094 C 348.7305908203125 405.1303405761719 348.9686279296875 403.7829895019531 349.79315185546875 399.4965515136719 C 350.0574951171875 396.43359375 350.9445495605469 392.88714599609375 351.55810546875 390.03387451171875 C 352.1998291015625 387.66058349609375 353.1505126953125 385.27294921875 353.8672180175781 383.53253173828125 C 354.6068115234375 381.1843566894531 354.9788513183594 380.2659606933594 355.5842590332031 377.85595703125 C 357.16485595703125 374.0019226074219 357.847412109375 371.6414794921875 358.68865966796875 368.0326843261719 C 359.54205322265625 364.9383544921875 358.9332275390625 369.4170227050781 360.2261962890625 364.033447265625 C 361.58135986328125 360.0710144042969 362.7311096191406 356.3800964355469 364.1181335449219 352.29083251953125 C 366.22479248046875 348.8746643066406 364.20098876953125 352.1838684082031 364.8171081542969 349.41790771484375 C 365.9839782714844 346.0412292480469 366.76629638671875 343.5958251953125 367.71954345703125 340.7049865722656 C 369.23223876953125 336.73992919921875 370.07659912109375 333.3436279296875 370.9668273925781 330.009521484375 C 370.62615966796875 335.88092041015625 372.0345458984375 330.7134094238281 372.7195129394531 328.1816711425781 C 373.91754150390625 325.4234924316406 374.8571472167969 322.6219177246094 375.4654541015625 320.5204772949219 C 376.04876708984375 318.37200927734375 376.6954040527344 316.2695617675781 377.46356201171875 313.1522521972656 C 378.2372131347656 313.04937744140625 379.8286437988281 313.4455871582031 380.89068603515625 311.2626953125 C 384.06024169921875 311.5441589355469 385.74200439453125 307.58221435546875 389.1163330078125 307.71087646484375 C 391.7701416015625 307.4375305175781 395.0911560058594 307.491943359375 397.7918701171875 307.84918212890625 C 401.7229919433594 308.2458190917969 403.3431396484375 308.5075378417969 405.0992431640625 308.8017578125 C 405.3307800292969 310.8648986816406 407.3230895996094 311.6853942871094 408.7093811035156 312.9692077636719 C 408.0226135253906 314.731689453125 409.1506652832031 315.6884460449219 411.8179016113281 316.31939697265625 C 411.8934020996094 317.9371032714844 412.06634521484375 318.84088134765625 412.72698974609375 320.7705383300781 C 413.4513854980469 323.4573059082031 413.90936279296875 324.958984375 414.900390625 327.4927062988281 C 415.7532958984375 329.7273254394531 416.6494140625 332.2360534667969 417.41552734375 334.54241943359375 C 418.4031066894531 338.058349609375 419.28265380859375 341.8594970703125 418.9601135253906 340.27001953125 C 420.34088134765625 343.0843811035156 421.53802490234375 345.6296081542969 422.5492248535156 348.2453918457031 C 423.9605712890625 351.2083740234375 425.5230712890625 355.0614318847656 426.6401062011719 358.90240478515625 C 425.4960632324219 356.5832824707031 427.4399108886719 360.57568359375 428.9480285644531 364.102294921875 C 430.4815979003906 367.1151123046875 431.4452209472656 370.1877746582031 432.00042724609375 373.0844421386719 C 432.71295166015625 376.4284362792969 433.1666259765625 375.6517028808594 435.376220703125 378.9754638671875 C 436.44268798828125 381.6954345703125 437.26409912109375 383.6296691894531 437.8946228027344 385.28790283203125 C 438.40045166015625 386.905517578125 438.8611755371094 388.0802001953125 439.6602783203125 390.1075439453125 C 440.3362731933594 392.6178283691406 440.756591796875 394.6969909667969 441.0599365234375 397.270751953125 C 441.4100341796875 400.1397399902344 441.5943908691406 401.6462707519531 441.72869873046875 402.8583984375 C 440.4476318359375 402.66864013671875 440.6876525878906 403.6431579589844 441.2630310058594 405.2493591308594 C 440.1197509765625 405.92633056640625 441.3804016113281 407.2720642089844 442.1959533691406 408.1224365234375 C 439.761962890625 409.3743591308594 436.646728515625 409.3675537109375 435.39892578125 409.4551086425781 C 433.3610534667969 409.1904296875 431.7358093261719 408.5771789550781 431.9620666503906 407.1143493652344 C 431.2223815917969 405.9701232910156 430.6822204589844 405.2551574707031 429.995361328125 404.48150634765625M 404.3777770996094 347.9217529296875 C 403.7075500488281 346.0238037109375 403.3739929199219 344.20208740234375 402.52764892578125 341.03387451171875 C 401.31329345703125 337.6170349121094 400.1588134765625 334.48004150390625 398.9869689941406 331.0606384277344 C 397.98748779296875 327.6403503417969 397.12237548828125 324.4471435546875 396.2867736816406 321.35699462890625 C 396.1361389160156 324.53375244140625 395.6552734375 327.77056884765625 395.34344482421875 331.5292053222656 C 394.4554138183594 334.79290771484375 393.7947998046875 337.675048828125 392.604736328125 340.7301940917969 C 391.57073974609375 343.5057067871094 390.7463073730469 346.2035217285156 389.9673767089844 348.85626220703125 C 388.8874206542969 353.36920166015625 388.0427551269531 357.1102294921875 387.31488037109375 360.50390625 C 386.185302734375 363.9241943359375 384.790771484375 367.8433532714844 383.85992431640625 371.6919860839844 C 388.4587097167969 371.7403259277344 393.0259094238281 372.0811462402344 399.36407470703125 372.21697998046875 C 403.48443603515625 372.45751953125 408.6639709472656 372.98333740234375 413.8581848144531 373.08953857421875 C 412.3655090332031 368.7440490722656 410.74139404296875 364.66424560546875 409.513916015625 361.1988525390625 C 407.7230224609375 356.42498779296875 406.0671691894531 352.0166931152344 404.3777770996094 347.9217529296875"/>
    <path stroke-width="0" fill="rgb(0, 0, 0)" opacity="1.0" d="M 546.9863891601562 426.72247314453125 C 541.2018432617188 420.4648742675781 535.5949096679688 415.39532470703125 534.493408203125 414.78973388671875 C 532.4882202148438 414.01507568359375 530.8976440429688 406.2007751464844 524.7457275390625 405.451904296875 C 521.7420043945312 398.313232421875 521.5924072265625 390.13995361328125 521.0763549804688 385.7830505371094 C 520.5088500976562 385.12677001953125 517.0399780273438 384.2580261230469 507.7217102050781 383.8798522949219 C 494.5536193847656 386.98114013671875 480.5655517578125 384.0277404785156 469.9862365722656 374.70660400390625 C 465.97955322265625 361.8559265136719 467.63720703125 349.5890808105469 462.8253173828125 348.647705078125 C 476.4737548828125 329.7861633300781 476.8580627441406 330.2855529785156 471.08758544921875 340.12689208984375 C 470.9852600097656 340.7013854980469 471.1985168457031 341.10760498046875 472.59002685546875 342.72430419921875 C 475.4547119140625 345.30450439453125 479.3835144042969 348.39544677734375 483.44769287109375 352.30316162109375 C 484.5767822265625 356.14764404296875 485.8471984863281 360.7870788574219 486.8976135253906 366.3845520019531 C 487.9411926269531 376.7112121582031 486.64801025390625 387.0801696777344 484.9963684082031 396.8316345214844 C 482.3835144042969 407.03497314453125 479.8480529785156 416.8165588378906 477.68634033203125 424.7227783203125 C 471.1750793457031 423.2850341796875 463.53857421875 422.33953857421875 455.61383056640625 421.5692443847656 C 456.51373291015625 416.490966796875 457.4835205078125 411.8937683105469 459.0627746582031 405.7425842285156 C 460.40533447265625 399.68896484375 461.9759826660156 394.3562927246094 462.9363708496094 389.2562255859375 C 464.30572509765625 384.1321105957031 465.53973388671875 379.250732421875 466.6818542480469 373.7030334472656 C 466.83734130859375 372.4127502441406 466.9396057128906 367.3602294921875 466.3552551269531 362.57000732421875 C 465.4443664550781 358.1958923339844 466.9064636230469 361.55810546875 462.07293701171875 356.743896484375 C 457.2058410644531 351.640380859375 453.81500244140625 345.0852966308594 453.90911865234375 337.9091491699219 C 455.5255126953125 330.4190673828125 457.4903869628906 324.5398864746094 461.8158264160156 318.2602844238281 C 465.3175354003906 313.3427429199219 467.9117431640625 310.6140441894531 470.2500305175781 308.2727966308594 C 473.26373291015625 310.9515380859375 476.8285217285156 314.20941162109375 479.7518310546875 316.3773193359375 C 484.10205078125 319.1514892578125 485.1806640625 325.9626159667969 489.8529968261719 326.9520568847656 C 491.9789733886719 332.68829345703125 490.6033935546875 340.9928283691406 488.7137145996094 348.7779235839844 C 487.7942199707031 354.726318359375 488.4299621582031 357.7187805175781 489.2632141113281 358.74298095703125 C 491.0334777832031 359.6333312988281 496.1986083984375 359.7137756347656 510.4043273925781 357.8368225097656 C 525.828369140625 358.9659729003906 538.3153076171875 367.2283020019531 542.7601318359375 382.6882629394531 C 539.9248046875 389.5404052734375 538.451416015625 384.3772277832031 516.790283203125 379.8191833496094 C 541.774658203125 380.64630126953125 541.2333374023438 379.95086669921875 539.29296875 377.4741516113281 C 536.2345581054688 374.1453552246094 533.292236328125 369.4336853027344 530.5913696289062 363.4472961425781 C 529.5545654296875 358.8851013183594 530.0609130859375 353.7408142089844 531.6090698242188 348.92279052734375 C 533.6914672851562 343.331787109375 532.557373046875 346.07977294921875 534.27783203125 341.1357727050781 C 535.8869018554688 336.07049560546875 536.9275512695312 333.0631103515625 537.9027709960938 329.3963928222656 C 538.8132934570312 325.4313049316406 539.6827392578125 321.77838134765625 541.0587158203125 318.00299072265625 C 542.100830078125 313.8539123535156 542.9708862304688 310.4138488769531 543.549072265625 308.15301513671875 C 549.4601440429688 309.4467468261719 554.6754150390625 309.9920349121094 561.2980346679688 310.7348327636719 C 560.6770629882812 314.9447937011719 560.4063110351562 318.7620849609375 560.0357666015625 322.7737121582031 C 559.4633178710938 326.91851806640625 558.3770141601562 330.9881286621094 557.796630859375 335.2063293457031 C 556.685546875 341.7082824707031 554.9569091796875 346.29010009765625 554.0319213867188 349.4388732910156 C 553.3417358398438 352.2703552246094 551.9719848632812 355.34521484375 551.5169677734375 357.1440124511719 C 551.5574951171875 358.35064697265625 552.1117553710938 360.4019775390625 553.8128662109375 362.8415222167969 C 557.6410522460938 367.3536071777344 561.1089477539062 373.5129089355469 563.1857299804688 380.0537414550781 C 564.3721313476562 387.4869079589844 564.1771240234375 396.5924072265625 562.7069702148438 409.1676330566406 C 557.6529541015625 416.2678527832031 552.6744995117188 421.7036437988281 546.9863891601562 426.72247314453125"/>
    <path stroke-width="0" fill="rgb(0, 0, 0)" opacity="1.0" d="M 65.46833801269531 308.7072448730469 C 61.802268981933594 301.3792724609375 58.608760833740234 291.4993896484375 56.99555206298828 289.19012451171875 C 58.89059829711914 287.7770690917969 63.340789794921875 282.91131591796875 64.1866226196289 281.7924499511719 C 65.7229995727539 279.5794982910156 67.88957977294922 274.4184265136719 70.49760437011719 268.61468505859375 C 73.17391967773438 264.9873352050781 73.96041870117188 263.3446044921875 74.19000244140625 261.8939514160156 C 75.72227478027344 263.5098571777344 74.67498779296875 259.5076599121094 73.33644104003906 255.92112731933594 C 71.09562683105469 252.01608276367188 68.56652069091797 249.24940490722656 62.927024841308594 244.45372009277344 C 56.11613082885742 235.35350036621094 53.933162689208984 224.0249786376953 52.456520080566406 214.1297149658203 C 62.93730926513672 213.2864532470703 67.66654968261719 211.39254760742188 76.90235900878906 219.11203002929688 C 75.3831558227539 221.57749938964844 83.33295440673828 218.72222900390625 83.76573944091797 220.13333129882812 C 84.20740509033203 221.08407592773438 84.69296264648438 221.82321166992188 85.46134948730469 222.7819061279297 C 88.6930160522461 225.63111877441406 90.43421173095703 227.14906311035156 92.59960174560547 228.9055633544922 C 97.65692901611328 232.49197387695312 103.1018295288086 237.33946228027344 107.22322082519531 240.31243896484375 C 109.9765853881836 242.54598999023438 112.01744842529297 242.97592163085938 115.70696258544922 243.20176696777344 C 117.78722381591797 243.05677795410156 119.36441040039062 243.2972412109375 120.33627319335938 244.04220581054688 C 121.76458740234375 244.7990264892578 122.7162857055664 246.04638671875 123.34745788574219 247.66049194335938 C 124.00338745117188 249.685302734375 123.76933288574219 251.41549682617188 122.6839599609375 253.00474548339844 C 121.48575592041016 254.8172607421875 119.40322875976562 255.87167358398438 116.00537109375 255.6126251220703 C 117.74408721923828 258.5032043457031 114.21807098388672 260.4335632324219 110.92662048339844 260.96466064453125 C 107.43351745605469 261.27496337890625 105.06472778320312 260.9204406738281 102.52567291259766 259.60382080078125 C 99.95379638671875 257.97625732421875 98.26993560791016 255.57785034179688 96.67088317871094 252.97152709960938 C 98.76251220703125 251.69491577148438 100.8260498046875 250.83847045898438 102.5517578125 250.0870361328125 C 103.91313171386719 254.95474243164062 104.78069305419922 259.922119140625 104.55744171142578 266.50213623046875 C 102.8886489868164 272.4420166015625 100.68533325195312 276.77587890625 95.81858825683594 282.331787109375 C 93.21558380126953 285.9697265625 89.53437042236328 290.3734436035156 84.39447784423828 295.3390197753906 C 80.09735107421875 299.8547668457031 74.49602508544922 304.21087646484375 65.46833801269531 308.7072448730469"/>
    <path stroke-width="0" fill="rgb(0, 0, 0)" opacity="1.0" d="M 217.9349365234375 258.9527282714844 C 212.63995361328125 259.7181701660156 207.49024963378906 261.0264892578125 203.45773315429688 261.5909118652344 C 196.89364624023438 262.5083312988281 192.5597686767578 261.85400390625 188.37327575683594 260.3819274902344 C 183.96359252929688 257.91278076171875 180.78285217285156 255.16018676757812 177.6361541748047 251.00555419921875 C 174.6394805908203 246.74095153808594 172.4248046875 241.73892211914062 170.8396453857422 236.18505859375 C 176.0636749267578 232.14996337890625 181.05023193359375 228.0742950439453 185.87899780273438 223.74928283691406 C 187.86546325683594 227.5119171142578 190.4043731689453 230.35247802734375 193.15000915527344 232.32518005371094 C 195.8169403076172 234.17799377441406 197.1427001953125 234.5203399658203 199.79232788085938 234.67620849609375 C 204.0407257080078 234.5260009765625 210.37815856933594 233.94049072265625 216.32334899902344 233.0875701904297 C 221.4014434814453 232.39271545410156 225.2572784423828 233.17880249023438 227.788818359375 235.5203094482422 C 230.3501434326172 237.89767456054688 231.67031860351562 241.15597534179688 231.8158721923828 244.7819061279297 C 232.00616455078125 248.78091430664062 231.0237579345703 251.69522094726562 228.9235382080078 254.1619415283203 C 226.9700927734375 256.7968444824219 223.63735961914062 258.77593994140625 217.9349365234375 258.9527282714844M 118.46595001220703 255.7705078125 C 118.61854553222656 251.39224243164062 117.16415405273438 247.6808319091797 116.91416931152344 243.20709228515625 C 127.79374694824219 242.89927673339844 130.21376037597656 238.273193359375 139.7701873779297 231.6697235107422 C 140.4447784423828 230.76239013671875 150.96652221679688 225.46742248535156 148.39352416992188 226.18231201171875 C 153.01199340820312 229.435546875 155.0497589111328 220.2495574951172 169.64779663085938 216.864013671875 C 183.9656219482422 214.85104370117188 187.4583740234375 214.0198516845703 177.0185089111328 224.7942657470703 C 165.6838836669922 231.66969299316406 163.68478393554688 227.5663604736328 160.18492126464844 234.79090881347656 C 156.7976531982422 224.64422607421875 160.99874877929688 230.967041015625 182.15187072753906 209.10520935058594 C 157.63858032226562 213.74740600585938 144.3384246826172 219.68252563476562 130.76162719726562 212.0755157470703 C 144.88079833984375 199.80316162109375 157.4051513671875 196.74937438964844 156.07958984375 218.52407836914062 C 120.77863311767578 237.38302612304688 129.4321746826172 226.55723571777344 143.15440368652344 206.0948944091797 C 145.79762268066406 205.20022583007812 142.57437133789062 212.7332305908203 144.1340789794922 207.975830078125 C 156.06834411621094 212.2457275390625 145.3061981201172 225.80075073242188 128.5740509033203 198.48361206054688 C 132.8554229736328 190.60147094726562 133.3265380859375 185.19602966308594 161.41860961914062 191.1507110595703 C 160.7604522705078 202.91993713378906 164.93739318847656 205.9055633544922 148.9970245361328 201.7562255859375 C 157.81996154785156 196.4407501220703 151.65464782714844 197.2370147705078 150.18862915039062 191.53692626953125 C 169.0087432861328 194.22555541992188 176.68760681152344 197.82810974121094 191.24310302734375 206.2584991455078 C 185.55905151367188 203.32373046875 185.01551818847656 194.802734375 194.19886779785156 202.2481231689453 C 193.02496337890625 207.40341186523438 187.14955139160156 203.79269409179688 178.11761474609375 218.441162109375 C 195.47300720214844 213.32171630859375 206.04823303222656 202.59107971191406 193.00497436523438 214.2931671142578 C 183.43141174316406 219.74859619140625 174.32247924804688 212.95828247070312 197.11801147460938 207.32958984375 C 219.5549774169922 202.87576293945312 246.66810607910156 196.83984375 263.17938232421875 226.49658203125 C 214.01644897460938 255.39892578125 211.5272979736328 251.5010986328125 200.40765380859375 244.07449340820312 C 189.69264221191406 233.64071655273438 185.40805053710938 236.25741577148438 181.03697204589844 239.093505859375 C 176.4664764404297 241.8822479248047 215.66949462890625 248.20407104492188 216.1820526123047 258.12005615234375 C 186.0710906982422 256.697265625 179.11329650878906 261.1146545410156 166.8999786376953 282.6133728027344 C 155.15896606445312 290.5256652832031 187.56993103027344 295.8619079589844 213.8379669189453 261.35540771484375 C 145.33860778808594 253.8407745361328 128.2021942138672 249.2506561279297 118.46595001220703 255.7705078125"/>
    <path stroke-width="0" fill="rgb(0, 0, 0)" opacity="1.0" d="M 222.68634033203125 258.9065246582031 C 221.49465942382812 250.17892456054688 220.5040740966797 241.4117431640625 219.20616149902344 232.70584106445312 C 224.41677856445312 231.93255615234375 228.56187438964844 230.9810028076172 231.7045135498047 229.7757568359375 C 235.46070861816406 228.456298828125 239.76060485839844 225.72804260253906 242.05471801757812 224.35183715820312 C 244.0217742919922 223.2940673828125 244.46463012695312 222.8844451904297 245.1492156982422 221.7631378173828 C 245.9777069091797 220.219482421875 246.31044006347656 218.95428466796875 248.97373962402344 233.5927734375 C 248.68714904785156 233.0445098876953 244.95816040039062 230.62771606445312 240.8538360595703 227.26824951171875 C 237.3907928466797 224.22039794921875 233.8388214111328 221.22267150878906 230.5889129638672 218.53219604492188 C 236.75257873535156 212.20159912109375 241.23306274414062 207.16751098632812 249.3328399658203 206.3290252685547 C 249.9073486328125 208.8067626953125 250.83628845214844 211.67111206054688 257.7282409667969 208.09986877441406 C 259.3500671386719 209.09930419921875 262.5135192871094 210.71493530273438 283.2874450683594 218.9470977783203 C 281.4507141113281 227.77247619628906 276.3182678222656 234.853271484375 272.9699401855469 239.00709533691406 C 266.50018310546875 244.7553253173828 265.807861328125 245.51425170898438 258.8499755859375 248.6220703125 C 256.8507995605469 249.9346160888672 255.0018310546875 251.0204620361328 252.54620361328125 251.7856903076172 C 251.3836212158203 252.3397674560547 249.68177795410156 252.9015655517578 245.42091369628906 254.07200622558594 C 242.24008178710938 254.9552459716797 238.6003875732422 255.73907470703125 234.82545471191406 256.3112487792969 C 231.0964813232422 256.6253662109375 227.4498748779297 257.70556640625 222.68634033203125 258.9065246582031M 235.21051025390625 302.0863037109375 C 231.79611206054688 299.4928894042969 226.5382537841797 307.0157165527344 231.68861389160156 307.51531982421875 C 236.5074462890625 295.8993225097656 242.40719604492188 296.0480651855469 237.816650390625 304.9602966308594 C 240.02703857421875 302.356201171875 239.85317993164062 299.949462890625 235.92669677734375 309.8771667480469 C 249.6970672607422 303.2182312011719 251.3512420654297 292.885009765625 252.3550567626953 284.9936218261719 C 252.22744750976562 274.6827392578125 253.1501007080078 272.082763671875 254.23443603515625 266.0677490234375 C 251.3619384765625 274.5120849609375 252.9637908935547 280.9361267089844 242.4976043701172 283.2958984375 C 238.94801330566406 296.1487731933594 236.66249084472656 293.84503173828125 251.21337890625 276.93121337890625 C 246.94125366210938 282.6224670410156 250.22813415527344 289.3083801269531 235.21051025390625 302.0863037109375"/>
  </g>
</svg>
