<?xml version="1.0" ?>
<svg xmlns="http://www.w3.org/2000/svg" version="1.1" width="600" height="600">
  <defs/>
  <g>
    <path stroke-width="0" fill="rgb(0, 0, 0)" opacity="1.0" d="M 158.5798797607422 364.85272216796875 C 158.89114379882812 366.5208740234375 158.54400634765625 367.992919921875 157.66177368164062 370.7527160644531 C 157.62548828125 374.194091796875 156.1792755126953 378.519287109375 155.01483154296875 380.9993896484375 C 153.98023986816406 384.29364013671875 153.14080810546875 386.3786315917969 151.35125732421875 389.15679931640625 C 150.5327606201172 392.6793518066406 149.46287536621094 394.5670166015625 146.8512420654297 396.4239807128906 C 144.72323608398438 399.9397888183594 141.8972930908203 400.4913024902344 139.9296112060547 402.2622375488281 C 136.17477416992188 404.4377136230469 132.3883514404297 403.9793395996094 129.29420471191406 405.4464111328125 C 125.53812408447266 405.3807373046875 122.19388580322266 406.2511901855469 119.93081665039062 407.5859069824219 C 117.28809356689453 408.0995788574219 112.38627624511719 408.7674865722656 107.4485855102539 409.4822998046875 C 102.86864471435547 409.892333984375 100.76614379882812 410.3487548828125 95.9371566772461 409.61395263671875 C 92.51424407958984 409.3953552246094 92.01207733154297 409.4198303222656 88.87266540527344 408.61981201171875 C 82.46835327148438 408.6459045410156 80.41378021240234 408.39959716796875 77.6212158203125 406.1831970214844 C 73.598876953125 404.12451171875 70.75989532470703 401.6269226074219 69.33258056640625 400.4786682128906 C 66.97730255126953 398.5823669433594 65.23760223388672 395.53778076171875 63.95320129394531 392.87689208984375 C 62.22053146362305 390.6270751953125 60.830928802490234 387.4872131347656 59.63526916503906 383.77252197265625 C 58.51710891723633 382.060546875 55.92018508911133 375.7734680175781 56.08491134643555 370.0564880371094 C 56.02216339111328 369.3462829589844 56.5159912109375 363.5321044921875 58.31379318237305 359.1336364746094 C 59.4187126159668 356.405517578125 60.36537551879883 352.9434509277344 61.452701568603516 350.4943542480469 C 62.30299377441406 349.23876953125 63.6501350402832 346.5580139160156 64.78352355957031 343.8979797363281 C 65.71006774902344 342.5412902832031 69.3503646850586 337.585205078125 70.49241638183594 336.629150390625 C 74.85371398925781 331.2676696777344 76.05604553222656 330.3470458984375 80.41487121582031 326.9438171386719 C 81.73294067382812 325.9500427246094 83.72703552246094 324.5784912109375 86.89386749267578 322.6970520019531 C 88.60045623779297 320.6826477050781 90.9381103515625 317.5880126953125 95.89324188232422 315.32281494140625 C 98.05541229248047 312.2318420410156 101.20482635498047 310.54364013671875 103.83967590332031 310.08514404296875 C 105.57365417480469 310.01947021484375 107.23285675048828 309.5411071777344 110.72639465332031 307.9321594238281 C 112.45307922363281 307.4887390136719 116.79936218261719 304.8785400390625 121.57846069335938 304.2698974609375 C 126.4072265625 304.2344970703125 122.88218688964844 304.2680969238281 124.57794952392578 304.1014099121094 C 131.21095275878906 304.80572509765625 137.8018341064453 305.91455078125 143.1228790283203 308.9507751464844 C 146.0950164794922 310.71051025390625 149.29197692871094 313.874755859375 151.622802734375 317.8107604980469 C 153.98980712890625 320.7528076171875 155.98036193847656 326.3243103027344 156.70156860351562 333.8068542480469 C 157.4361114501953 337.8664245605469 158.10028076171875 343.26971435546875 158.30601501464844 349.0438537597656 C 158.09420776367188 352.28826904296875 157.61666870117188 354.8763122558594 158.0694122314453 356.4333801269531 C 157.98663330078125 360.0460205078125 158.16595458984375 361.61236572265625 158.5798797607422 364.85272216796875M 79.0027084350586 364.97760009765625 C 78.05293273925781 367.46173095703125 77.76065826416016 369.61187744140625 77.63282775878906 372.018798828125 C 78.12474060058594 375.4241027832031 78.97938537597656 377.6719970703125 80.24701690673828 381.10931396484375 C 82.11741638183594 385.2232360839844 84.45988464355469 387.5677490234375 87.67559814453125 389.28741455078125 C 89.98031616210938 389.75714111328125 92.93067932128906 389.6453552246094 94.56380462646484 389.7872009277344 C 98.3476791381836 390.4619140625 102.33389282226562 389.7922058105469 105.10828399658203 388.8507080078125 C 109.19216918945312 388.7300720214844 113.71028900146484 387.7620849609375 118.23127746582031 388.164794921875 C 120.27157592773438 387.86895751953125 123.36150360107422 386.82403564453125 126.93881225585938 386.053466796875 C 130.70823669433594 383.4770202636719 132.5070037841797 381.3081970214844 134.4049072265625 375.90789794921875 C 135.4623260498047 373.9017639160156 136.60243225097656 370.110107421875 136.46214294433594 369.6453552246094 C 137.1871337890625 364.20623779296875 138.1517333984375 370.0623474121094 137.794921875 363.995849609375 C 138.39328002929688 357.5098571777344 139.42568969726562 349.1792297363281 138.64674377441406 345.4385986328125 C 137.12425231933594 338.1409912109375 135.77999877929688 332.61083984375 134.0728759765625 329.7360534667969 C 132.69163513183594 328.04876708984375 130.22137451171875 326.3070983886719 126.16976928710938 325.7280578613281 C 124.12303161621094 325.7660217285156 121.4766845703125 325.6098327636719 117.2723159790039 326.64776611328125 C 114.61660766601562 327.4483947753906 110.09764099121094 328.94891357421875 108.9076156616211 329.67230224609375 C 107.43156433105469 330.7004089355469 106.28707885742188 332.1021423339844 102.5782470703125 336.192138671875 C 96.8328628540039 340.9996643066406 87.97822570800781 344.6051025390625 85.76960754394531 346.52471923828125 C 84.10526275634766 349.24530029296875 83.9308853149414 349.8295593261719 83.48004913330078 352.0534362792969 C 81.52920532226562 356.47198486328125 81.35232543945312 357.6051025390625 79.0027084350586 364.97760009765625"/>
    <path stroke-width="0" fill="rgb(0, 0, 0)" opacity="1.0" d="M 224.4311065673828 330.3484802246094 C 220.31919860839844 329.1444091796875 215.7410430908203 328.48687744140625 211.40188598632812 328.84521484375 C 206.47108459472656 328.9375305175781 204.00445556640625 329.7934265136719 201.429931640625 332.02734375 C 198.64085388183594 334.10394287109375 197.20367431640625 336.5047302246094 196.3546600341797 339.62823486328125 C 195.7769012451172 342.8108215332031 196.22506713867188 349.2466125488281 196.73635864257812 351.8915100097656 C 197.1901092529297 353.0134582519531 198.9846649169922 354.8503112792969 200.88058471679688 356.50042724609375 C 202.72021484375 357.7881774902344 205.9915771484375 359.41876220703125 212.95973205566406 363.5892028808594 C 219.09803771972656 370.8956604003906 223.7172088623047 377.6937561035156 227.35374450683594 386.79595947265625 C 227.71273803710938 389.0845947265625 228.3580780029297 390.4720153808594 229.24066162109375 391.1595764160156 C 231.0077362060547 392.8459167480469 233.2783203125 394.1080627441406 229.0386505126953 392.54376220703125 C 231.37738037109375 392.8101501464844 234.56797790527344 392.0186767578125 237.876708984375 391.4905090332031 C 239.6815643310547 391.07275390625 241.76417541503906 390.55853271484375 244.91311645507812 390.5806884765625 C 247.4253692626953 390.5970153808594 250.63333129882812 391.1985168457031 252.56289672851562 391.7192687988281 C 251.19287109375 393.6155700683594 250.38290405273438 396.30316162109375 249.83880615234375 397.9480285644531 C 249.4644775390625 401.50042724609375 249.64773559570312 401.9945983886719 251.20343017578125 404.8639831542969 C 249.4639129638672 406.776123046875 246.59303283691406 409.0286865234375 242.81646728515625 410.2761535644531 C 241.87879943847656 410.6723937988281 240.87477111816406 410.956787109375 239.27647399902344 411.20867919921875 C 238.69625854492188 411.4375 238.15049743652344 411.6002502441406 232.41644287109375 412.17138671875 C 230.2047119140625 412.91357421875 226.19891357421875 412.24774169921875 224.1565704345703 411.8706359863281 C 223.4850311279297 411.7310791015625 220.8072967529297 410.6982421875 218.18435668945312 409.7093200683594 C 215.87124633789062 408.7251281738281 214.65931701660156 407.1291809082031 213.19876098632812 403.52783203125 C 207.8533477783203 398.0327453613281 207.43630981445312 397.1676025390625 208.6005401611328 389.1886291503906 C 207.4633026123047 388.2998046875 205.92677307128906 387.4813232421875 203.12637329101562 385.3934326171875 C 201.1314239501953 382.3588562011719 199.12326049804688 379.3239440917969 197.54739379882812 377.21337890625 C 194.37228393554688 374.7314453125 193.74485778808594 373.93890380859375 189.6488800048828 371.918212890625 C 187.47708129882812 369.59100341796875 185.35592651367188 367.73193359375 183.09532165527344 365.91156005859375 C 181.5774688720703 364.2740173339844 179.79978942871094 361.0339050292969 179.0502471923828 358.6640319824219 C 177.05154418945312 354.1002197265625 176.85020446777344 350.0180969238281 176.7452850341797 347.30523681640625 C 176.5468292236328 343.2317810058594 177.0099639892578 339.648681640625 177.7833709716797 335.2723083496094 C 177.86106872558594 331.52789306640625 180.2698516845703 328.19219970703125 181.44456481933594 325.1320495605469 C 183.3901824951172 322.30535888671875 185.31687927246094 320.1876220703125 188.0723114013672 318.25421142578125 C 191.12530517578125 316.3010559082031 193.06298828125 314.7606201171875 196.1304931640625 313.3370361328125 C 200.7013702392578 312.0013732910156 202.720703125 311.5518798828125 207.8436737060547 311.0180358886719 C 210.52745056152344 310.468994140625 215.4539794921875 310.3873596191406 217.79917907714844 310.937255859375 C 221.2043914794922 310.8070068359375 223.91542053222656 310.7096252441406 225.40109252929688 310.8619689941406 C 229.03402709960938 310.8306579589844 230.31268310546875 311.0040283203125 230.95045471191406 311.2601623535156 C 234.15782165527344 311.9684753417969 238.47064208984375 313.1864013671875 235.00967407226562 311.2412414550781 C 239.4148406982422 312.9710693359375 243.16610717773438 314.3069763183594 245.15805053710938 314.97674560546875 C 246.57553100585938 316.25006103515625 247.71963500976562 317.5621337890625 248.6983642578125 318.5633544921875 C 247.19815063476562 320.2019958496094 245.4339599609375 322.112548828125 248.81820678710938 324.3198547363281 C 247.97854614257812 327.7013244628906 247.03237915039062 331.5890808105469 246.1848602294922 336.3241882324219 C 238.60548400878906 335.1816711425781 233.72735595703125 333.6110534667969 232.04998779296875 332.9873046875 C 230.17724609375 332.489013671875 225.2232666015625 330.1744384765625 224.4311065673828 330.3484802246094"/>
    <path stroke-width="0" fill="rgb(0, 0, 0)" opacity="1.0" d="M 326.3766174316406 416.01153564453125 C 324.2986145019531 414.47869873046875 321.46954345703125 412.9960021972656 319.5434265136719 412.1065368652344 C 317.1895446777344 411.48748779296875 324.26202392578125 412.5111083984375 322.5987548828125 412.6546325683594 C 317.30712890625 412.9359436035156 313.158203125 413.6156921386719 310.00885009765625 413.9981689453125 C 306.5957946777344 411.80865478515625 309.8694152832031 412.8670349121094 306.94122314453125 412.943359375 C 303.6995849609375 413.25299072265625 301.2967529296875 413.1083679199219 298.7674865722656 413.2772521972656 C 295.9096984863281 413.4612731933594 293.2437438964844 414.00201416015625 291.7939453125 414.36859130859375 C 290.3743591308594 414.74285888671875 287.1468811035156 415.7657470703125 283.558349609375 411.82183837890625 C 281.3041076660156 413.0400390625 279.62896728515625 414.0941467285156 278.3045959472656 415.2152404785156 C 277.254150390625 413.6813659667969 276.4169921875 412.4962463378906 275.3902282714844 410.9828186035156 C 273.7112121582031 407.36468505859375 273.97509765625 404.17706298828125 274.2349853515625 400.56756591796875 C 272.90008544921875 394.0834655761719 274.2498779296875 388.161376953125 275.9991760253906 396.09014892578125 C 275.1620178222656 393.0323486328125 274.88702392578125 392.53729248046875 274.5703430175781 383.4080810546875 C 274.9571228027344 379.6542053222656 273.3760681152344 389.4545593261719 272.51715087890625 384.6112060546875 C 274.1889953613281 376.8327331542969 274.2862243652344 375.0640563964844 274.312744140625 373.3741149902344 C 275.4399108886719 369.3896179199219 275.75042724609375 368.5043029785156 275.7119140625 367.31591796875 C 275.7572326660156 363.2015380859375 275.8467102050781 361.63385009765625 276.1975402832031 359.3818054199219 C 276.33026123046875 355.2693176269531 276.4855651855469 353.0721435546875 276.2497863769531 351.5492858886719 C 276.0577697753906 347.498779296875 276.743896484375 350.1748962402344 276.86273193359375 348.5623779296875 C 276.5513916015625 345.5013427734375 275.9167175292969 343.1281433105469 275.17364501953125 340.4371032714844 C 275.8427734375 336.3990783691406 276.7762145996094 333.6982727050781 277.014404296875 332.2729187011719 C 277.3645324707031 335.5574035644531 277.1378173828125 330.9176025390625 276.9216613769531 324.96038818359375 C 277.8338317871094 321.4014587402344 276.0780944824219 326.17083740234375 275.8970642089844 322.5701904296875 C 275.7882385253906 316.99969482421875 275.00958251953125 313.9452819824219 278.2570495605469 313.1529235839844 C 279.5543212890625 313.1917419433594 280.9174499511719 312.0072937011719 279.9750671386719 311.258544921875 C 281.46124267578125 308.8217468261719 283.87493896484375 308.38397216796875 283.830078125 302.45196533203125 C 287.9238586425781 302.5245666503906 291.2051086425781 302.42999267578125 295.8321838378906 303.4725646972656 C 298.9735107421875 304.03350830078125 302.3213195800781 304.86029052734375 305.0810241699219 305.5173645019531 C 297.8115539550781 306.1434631347656 306.11688232421875 305.1506042480469 299.1534423828125 306.1864013671875 C 302.3040466308594 305.14581298828125 309.3608703613281 302.4306335449219 313.3267517089844 302.3172302246094 C 318.2347717285156 302.1391906738281 319.9620361328125 302.1962585449219 324.66339111328125 302.56463623046875 C 333.9112854003906 302.66650390625 325.0038757324219 301.70428466796875 328.68670654296875 307.9503173828125 C 330.10296630859375 306.416259765625 333.41314697265625 303.0218811035156 336.4120178222656 300.4703674316406 C 338.2005920410156 302.57476806640625 339.69305419921875 304.61822509765625 341.4472961425781 306.50103759765625 C 342.2319641113281 305.91143798828125 344.8104553222656 308.7066650390625 346.71051025390625 310.7982177734375 C 346.6800231933594 314.4176940917969 347.07366943359375 321.461181640625 344.877197265625 325.427001953125 C 342.3620300292969 328.2245788574219 340.0511474609375 329.62188720703125 338.0331726074219 330.91070556640625 C 336.86700439453125 329.0834045410156 335.7430725097656 327.48028564453125 334.6911926269531 326.3784484863281 C 333.480224609375 325.2621154785156 331.7241516113281 329.33367919921875 329.4941711425781 329.5719909667969 C 321.7947998046875 329.9187316894531 329.4674072265625 329.8045349121094 325.9559631347656 328.80908203125 C 322.0382385253906 328.6577453613281 320.7394104003906 328.3040771484375 317.00469970703125 328.1151428222656 C 313.7813415527344 327.2522277832031 312.7967224121094 327.3172302246094 311.6316223144531 327.3802185058594 C 309.648681640625 327.8260192871094 307.9580078125 328.4350280761719 306.6323547363281 328.9115295410156 C 303.97216796875 328.8710021972656 302.5736389160156 328.7921142578125 300.6192321777344 328.94775390625 C 300.4194641113281 330.47698974609375 300.57977294921875 332.0767822265625 300.58892822265625 333.0407409667969 C 300.3934631347656 335.1692199707031 299.46636962890625 338.6337585449219 298.9718322753906 340.5589599609375 C 298.7341003417969 342.184814453125 298.4217834472656 336.32440185546875 299.0738525390625 339.70025634765625 C 299.1257629394531 343.1762390136719 299.2596130371094 345.3174133300781 299.4901428222656 347.22344970703125 C 303.91351318359375 347.1916198730469 307.0366516113281 347.3027038574219 307.985107421875 347.2002868652344 C 309.9386291503906 347.04449462890625 312.39886474609375 347.1589660644531 317.8681640625 346.9043884277344 C 321.5640869140625 347.7097473144531 323.8875427246094 347.4571228027344 325.9527282714844 347.2950439453125 C 327.8734436035156 347.6541442871094 331.5111999511719 349.39337158203125 334.67498779296875 351.064697265625 C 333.8621520996094 352.99151611328125 332.57708740234375 354.9045104980469 331.15130615234375 357.30987548828125 C 333.5328063964844 357.8722229003906 333.0459899902344 359.216552734375 338.5143737792969 358.66839599609375 C 336.702880859375 361.74212646484375 335.9031677246094 363.51446533203125 331.2634582519531 361.1546936035156 C 330.6758117675781 362.6997375488281 329.68994140625 364.77789306640625 328.472900390625 366.3873596191406 C 325.9593811035156 364.5008544921875 324.2622985839844 363.58721923828125 322.7151184082031 366.5728454589844 C 322.19390869140625 370.284912109375 318.5206604003906 369.8827209472656 316.3697814941406 369.5523986816406 C 313.0379333496094 369.4320068359375 310.1968688964844 369.1998596191406 309.2347412109375 369.3108215332031 C 306.87213134765625 369.210693359375 300.0042724609375 367.7745666503906 299.6457214355469 367.4112243652344 C 299.7706298828125 369.5675354003906 299.1089782714844 373.7493591308594 298.8996887207031 376.650146484375 C 298.7619934082031 378.2043151855469 298.3911437988281 381.1292419433594 298.2662353515625 382.8441162109375 C 298.9292297363281 385.705810546875 298.6595764160156 386.8409729003906 298.5187683105469 387.7564697265625 C 298.0823669433594 386.5342712402344 298.5811767578125 389.3567810058594 298.92071533203125 391.2662353515625 C 301.6726989746094 391.1083679199219 307.5474853515625 391.5791015625 299.9092102050781 390.990478515625 C 302.9985656738281 390.260009765625 310.77392578125 390.1787109375 314.6397399902344 390.85308837890625 C 318.97247314453125 393.0369567871094 312.4009704589844 391.5044860839844 315.6739501953125 391.5212097167969 C 318.02032470703125 391.3815002441406 319.1635437011719 391.37066650390625 322.59857177734375 390.7740783691406 C 324.5875244140625 390.4026184082031 325.8287353515625 390.68829345703125 326.8074645996094 391.436279296875 C 326.83575439453125 392.0972900390625 328.82769775390625 392.2139892578125 331.69110107421875 392.42962646484375 C 330.8952941894531 393.43505859375 331.0727233886719 394.2215576171875 332.0178527832031 394.4227294921875 C 331.7928466796875 395.48333740234375 331.0370178222656 396.4554748535156 333.5106201171875 398.02276611328125 C 333.2699279785156 398.8534851074219 333.10272216796875 401.35821533203125 332.24017333984375 404.7000732421875 C 331.3250427246094 406.7148132324219 330.68841552734375 408.2131042480469 329.3646545410156 410.6206970214844 C 328.4866638183594 412.8134460449219 327.5313415527344 414.37322998046875 326.3766174316406 416.01153564453125"/>
    <path stroke-width="0" fill="rgb(0, 0, 0)" opacity="1.0" d="M 423.313720703125 408.150390625 C 424.55487060546875 404.4231262207031 420.54742431640625 404.47100830078125 420.3981018066406 400.87591552734375 C 419.5813293457031 396.2629089355469 419.2157287597656 394.3404235839844 418.7454528808594 392.6206359863281 C 415.6255187988281 392.4861755371094 413.29693603515625 392.6941223144531 411.0125732421875 392.9749755859375 C 408.47454833984375 393.22564697265625 405.2159423828125 393.31610107421875 403.0053405761719 393.1185607910156 C 401.1500549316406 393.6940612792969 396.8073425292969 393.67974853515625 394.3734436035156 393.67169189453125 C 388.7771301269531 393.3534240722656 385.4615173339844 393.3833923339844 380.05078125 393.443115234375 C 379.7818603515625 394.8973388671875 378.7435607910156 397.72650146484375 378.2730407714844 399.1667785644531 C 377.2880554199219 402.75469970703125 377.0021667480469 403.1658935546875 377.2698059082031 407.1941833496094 C 373.54345703125 409.10601806640625 369.2950134277344 410.2049255371094 364.3075866699219 411.70062255859375 C 356.5983581542969 412.06610107421875 351.7263488769531 411.5666809082031 348.56048583984375 411.48992919921875 C 348.8726501464844 410.2865295410156 349.34771728515625 408.4268493652344 350.3688659667969 406.28924560546875 C 351.58026123046875 403.3921203613281 352.18927001953125 401.073974609375 352.24755859375 398.7498474121094 C 349.60986328125 399.20587158203125 350.8482666015625 393.9667053222656 351.3463134765625 391.9677734375 C 353.8968811035156 387.3509521484375 354.5075378417969 386.4345397949219 354.8265380859375 385.68316650390625 C 355.1136474609375 384.6163635253906 356.0871887207031 382.3025207519531 357.0657958984375 379.9959411621094 C 359.44573974609375 378.20977783203125 360.09503173828125 377.25482177734375 360.8618469238281 375.63775634765625 C 361.68267822265625 371.91754150390625 362.0371398925781 370.1296691894531 363.642578125 365.4190673828125 C 364.8883056640625 362.0185852050781 363.5430908203125 371.7757263183594 364.3307800292969 363.78521728515625 C 365.4395446777344 356.617919921875 365.9257507324219 355.4258117675781 365.9756774902344 355.1437072753906 C 366.5785217285156 353.7403259277344 366.8935546875 352.03021240234375 366.3623046875 345.822021484375 C 366.63623046875 343.7345275878906 368.63531494140625 341.4294738769531 369.2210998535156 339.6806335449219 C 369.96685791015625 336.9735107421875 371.08349609375 334.9728088378906 371.98760986328125 332.87860107421875 C 372.2298889160156 332.2371520996094 372.9393615722656 330.896240234375 373.7515563964844 327.90655517578125 C 374.3827209472656 326.11846923828125 375.96990966796875 322.9933166503906 376.6357116699219 321.3965148925781 C 377.27069091796875 319.4316101074219 378.02783203125 317.2500305175781 378.2405700683594 316.25030517578125 C 378.5101318359375 314.88214111328125 381.25042724609375 313.276611328125 380.08892822265625 310.6581115722656 C 381.7204284667969 309.6506042480469 383.9610290527344 309.29901123046875 387.0436096191406 308.5986328125 C 391.2280578613281 307.9685363769531 392.7428283691406 307.9820251464844 398.0254821777344 309.5357666015625 C 398.94415283203125 309.5204162597656 401.3793029785156 308.796875 403.7408752441406 307.8978271484375 C 404.3751525878906 309.2877502441406 405.27667236328125 309.6849060058594 407.4631652832031 311.15093994140625 C 406.67645263671875 314.0101623535156 409.61163330078125 315.92694091796875 414.4021911621094 316.3492126464844 C 415.2359924316406 318.6771240234375 415.7699890136719 320.6539611816406 416.3153076171875 322.5522766113281 C 417.0563659667969 324.2393493652344 417.5881652832031 325.5231018066406 418.3163146972656 327.38348388671875 C 419.4045715332031 329.38720703125 420.40191650390625 331.2705078125 421.24566650390625 332.84521484375 C 422.3333740234375 335.4872741699219 423.11468505859375 337.9683837890625 423.9370422363281 340.2900085449219 C 424.71331787109375 341.8600769042969 425.80859375 344.23248291015625 426.5328369140625 346.5819396972656 C 427.1600646972656 348.12933349609375 427.45654296875 348.6956787109375 429.0440368652344 355.21826171875 C 429.2334289550781 356.0230407714844 429.781494140625 358.5684509277344 429.5383605957031 358.9603576660156 C 431.9117431640625 363.7215881347656 432.3303527832031 365.50372314453125 432.04840087890625 369.2649841308594 C 432.7002868652344 372.5652160644531 432.7875671386719 374.9972839355469 433.5823669433594 375.9382019042969 C 434.6031799316406 378.46160888671875 435.0924377441406 379.809814453125 436.2742919921875 381.42132568359375 C 437.3367919921875 384.3343200683594 438.2626037597656 386.34912109375 439.1860046386719 388.1611022949219 C 440.0304870605469 389.9029541015625 440.9275817871094 393.4023742675781 441.35693359375 395.4639892578125 C 442.7372741699219 398.6658935546875 443.22467041015625 400.08258056640625 443.54559326171875 401.0458068847656 C 444.28179931640625 402.64385986328125 444.77825927734375 403.5399475097656 445.31671142578125 404.5262756347656 C 446.32757568359375 405.4901428222656 447.8323669433594 406.8416748046875 449.40240478515625 408.1487731933594 C 445.78985595703125 409.9707946777344 442.10028076171875 411.3574523925781 438.28485107421875 412.459228515625 C 435.0819091796875 413.1947326660156 431.8733825683594 413.4554443359375 428.92584228515625 413.23248291015625 C 427.2783508300781 411.8822937011719 425.0712890625 409.54150390625 423.313720703125 408.150390625M 406.8774719238281 348.22198486328125 C 406.3865661621094 346.63916015625 405.4823303222656 344.34332275390625 404.4390869140625 341.6484680175781 C 403.3249206542969 338.94989013671875 401.8938903808594 335.769287109375 400.64703369140625 332.9312744140625 C 399.5547180175781 329.9917297363281 398.8296203613281 327.7675476074219 398.23455810546875 325.5323181152344 C 397.7576599121094 327.737060546875 397.271728515625 330.3102722167969 397.0058288574219 333.32373046875 C 396.2552795410156 336.54541015625 395.7418212890625 339.6232604980469 395.0862731933594 342.0986328125 C 394.64007568359375 344.1942443847656 393.7770690917969 346.8673400878906 393.0879211425781 349.6333312988281 C 392.5006408691406 351.7744445800781 392.14093017578125 353.6210632324219 390.1989440917969 359.0237121582031 C 389.60601806640625 361.3187561035156 388.1493225097656 365.49365234375 387.416015625 369.6842956542969 C 392.02825927734375 369.1810302734375 396.7264709472656 368.9505615234375 399.490478515625 368.3570556640625 C 403.0712890625 368.3392639160156 408.503173828125 367.74591064453125 412.836669921875 367.130615234375 C 411.3033447265625 363.5576171875 410.22100830078125 360.7166748046875 409.8996276855469 355.92816162109375 C 409.19464111328125 353.53204345703125 407.966796875 350.6856994628906 406.8774719238281 348.22198486328125"/>
    <path stroke-width="0" fill="rgb(0, 0, 0)" opacity="1.0" d="M 546.4258422851562 416.8202819824219 C 543.2884521484375 414.4714050292969 539.6681518554688 411.7356262207031 537.2164916992188 418.2403259277344 C 535.1281127929688 418.10174560546875 533.16796875 411.5966491699219 530.4515380859375 412.2772521972656 C 524.5950317382812 406.3323059082031 522.0657348632812 399.548828125 520.143798828125 395.9639892578125 C 515.3370971679688 391.9632263183594 508.8594970703125 388.406982421875 501.57354736328125 384.03936767578125 C 494.9310302734375 378.93359375 488.7731018066406 371.9829406738281 484.80267333984375 362.8893737792969 C 481.4456481933594 354.54339599609375 480.13909912109375 345.6805419921875 468.645751953125 346.4814758300781 C 479.2979431152344 332.2773742675781 479.4039306640625 332.38958740234375 480.4627990722656 338.0912170410156 C 481.465087890625 341.1568908691406 481.8794250488281 342.9844665527344 482.36785888671875 346.2638854980469 C 482.8670654296875 350.588134765625 484.7806091308594 353.76568603515625 486.0494079589844 356.8251647949219 C 484.411865234375 360.7811279296875 484.2033996582031 361.8764953613281 484.0951843261719 362.9501647949219 C 484.2668151855469 375.26702880859375 483.6881103515625 383.81829833984375 483.9781188964844 390.8826599121094 C 484.7006530761719 401.9344482421875 482.096435546875 411.1126403808594 476.81890869140625 419.049072265625 C 470.3321228027344 415.5955505371094 462.8265075683594 409.8452453613281 458.28753662109375 406.3735046386719 C 460.17401123046875 403.6100769042969 461.90399169921875 400.85296630859375 462.4012756347656 399.2432556152344 C 462.8387145996094 396.3442687988281 463.02972412109375 394.8206481933594 462.38238525390625 391.40545654296875 C 462.7890319824219 386.4144287109375 463.5334167480469 381.4427490234375 463.48541259765625 377.7895812988281 C 462.57061767578125 375.042724609375 459.29541015625 365.7203674316406 458.97320556640625 361.20843505859375 C 464.3843078613281 349.2765197753906 464.1737365722656 361.5548095703125 460.49725341796875 350.7809143066406 C 459.9139099121094 347.5950622558594 459.37890625 343.95892333984375 459.7391357421875 336.12860107421875 C 460.2044372558594 328.0432434082031 461.2652587890625 322.9432373046875 462.330322265625 319.58172607421875 C 463.864501953125 313.4638671875 466.5405578613281 309.1805114746094 470.05767822265625 305.228515625 C 474.5367431640625 308.6452941894531 477.4629211425781 310.6661071777344 479.6666259765625 311.2112731933594 C 482.6400146484375 311.866943359375 482.8607177734375 312.3381652832031 488.9792785644531 312.6266784667969 C 492.71728515625 321.07257080078125 493.95782470703125 332.4791564941406 494.65447998046875 339.9546813964844 C 495.2413024902344 346.3684387207031 497.0122985839844 351.6788330078125 500.2073669433594 358.358154296875 C 503.3369140625 362.6625061035156 507.7972412109375 366.882568359375 513.4702758789062 369.98468017578125 C 521.0485229492188 374.64080810546875 529.2001953125 380.3418884277344 536.4629516601562 388.1393737792969 C 535.16748046875 382.8057861328125 535.0607299804688 379.5085754394531 534.4076538085938 386.83740234375 C 535.7041015625 384.26348876953125 535.453369140625 380.8481750488281 536.1066284179688 375.5005187988281 C 537.0951538085938 371.5457458496094 537.4398193359375 367.91192626953125 537.8866577148438 366.15679931640625 C 537.2611694335938 359.110107421875 537.395263671875 354.7051696777344 537.9500732421875 351.09954833984375 C 538.6154174804688 345.93292236328125 537.8811645507812 350.2833251953125 537.8501586914062 344.17376708984375 C 538.390380859375 338.3166198730469 538.5825805664062 333.0108947753906 540.4288330078125 325.8337707519531 C 541.3062133789062 322.76922607421875 541.7455444335938 319.1881103515625 541.4818725585938 315.83941650390625 C 540.7889404296875 312.2083435058594 540.3856811523438 309.7918395996094 539.838623046875 306.9128723144531 C 545.1093139648438 306.16497802734375 548.1564331054688 305.23944091796875 554.5399169921875 301.5827941894531 C 556.4208984375 305.2370300292969 559.1051635742188 310.31488037109375 559.8692016601562 316.4706115722656 C 559.7328491210938 322.65985107421875 558.4276733398438 328.7721252441406 556.9822387695312 333.4084167480469 C 556.7077026367188 336.20794677734375 556.775146484375 343.2969055175781 556.6307373046875 346.47955322265625 C 557.3707885742188 351.6200866699219 557.0654296875 352.89202880859375 556.3866577148438 358.4120178222656 C 555.9491577148438 364.45758056640625 556.7223510742188 370.0674133300781 555.4777221679688 377.81756591796875 C 554.2807006835938 382.91644287109375 553.8397827148438 387.39794921875 553.9938354492188 391.2288513183594 C 554.1910400390625 396.39727783203125 553.5414428710938 402.2991638183594 551.87109375 408.71905517578125 C 549.9082641601562 411.2509460449219 548.2952270507812 413.98541259765625 546.4258422851562 416.8202819824219"/>
    <path stroke-width="0" fill="rgb(0, 0, 0)" opacity="1.0" d="M 56.042327880859375 289.25115966796875 C 55.17770004272461 285.4576110839844 54.31296920776367 280.3529357910156 54.099727630615234 275.9446716308594 C 57.75184631347656 275.8825988769531 59.681610107421875 275.5082702636719 61.846038818359375 274.09930419921875 C 65.39505767822266 271.395751953125 69.10936737060547 267.113525390625 73.31635284423828 260.0742492675781 C 76.9395980834961 257.5909729003906 77.50735473632812 257.1639099121094 78.7357406616211 254.41969299316406 C 79.12602233886719 253.1075897216797 79.49005889892578 249.93968200683594 78.3892822265625 246.5066375732422 C 77.77559661865234 242.993408203125 77.45992279052734 242.1632537841797 74.0109634399414 239.53082275390625 C 65.94395446777344 230.1845703125 63.25600814819336 222.20263671875 54.99839401245117 206.43687438964844 C 73.15210723876953 213.41122436523438 76.87049865722656 213.1985626220703 85.26268768310547 215.31170654296875 C 84.68280792236328 218.97422790527344 88.20860290527344 215.73391723632812 89.15838623046875 217.02532958984375 C 89.2659912109375 217.17208862304688 90.94549560546875 221.0865936279297 91.45555114746094 221.73223876953125 C 95.26158142089844 224.1429901123047 96.31599426269531 225.47364807128906 98.867919921875 227.91310119628906 C 102.1961441040039 232.45892333984375 105.48505401611328 236.8064727783203 107.87049102783203 238.7183074951172 C 110.10758972167969 241.6349334716797 114.7972412109375 242.39315795898438 118.70008087158203 241.013916015625 C 122.34664154052734 239.62124633789062 125.55529022216797 239.70668029785156 127.04387664794922 240.83331298828125 C 129.34336853027344 241.96627807617188 131.15805053710938 244.11732482910156 132.00791931152344 246.9563446044922 C 132.0963134765625 251.14158630371094 130.8121337890625 254.03567504882812 128.0233612060547 255.8894500732422 C 124.96223449707031 258.3439636230469 120.66016387939453 257.58892822265625 114.35152435302734 249.81431579589844 C 109.60556030273438 259.9208068847656 108.57227325439453 260.2848205566406 107.66641998291016 259.76141357421875 C 105.45884704589844 259.0907287597656 103.47283935546875 258.5223388671875 101.33231353759766 256.4455261230469 C 99.36007690429688 254.49964904785156 97.70468139648438 251.65823364257812 96.9317855834961 249.00880432128906 C 98.884521484375 248.5448760986328 101.53164672851562 248.036376953125 103.185546875 247.5437469482422 C 103.74810791015625 251.88961791992188 103.58451843261719 257.21270751953125 101.5927734375 263.5171203613281 C 98.71394348144531 267.66009521484375 95.03126525878906 271.7574462890625 87.45853424072266 275.3910827636719 C 83.10186004638672 277.42449951171875 77.43582153320312 280.50213623046875 72.47821807861328 283.88372802734375 C 66.6264419555664 287.1188049316406 60.895721435546875 288.5553283691406 56.042327880859375 289.25115966796875"/>
    <path stroke-width="0" fill="rgb(0, 0, 0)" opacity="1.0" d="M 218.33279418945312 262.04010009765625 C 213.6970977783203 261.9932556152344 209.8278045654297 261.87091064453125 204.53587341308594 260.4356384277344 C 202.58441162109375 260.2474670410156 198.03353881835938 258.7834167480469 195.7927703857422 258.23150634765625 C 192.06410217285156 256.6363830566406 188.8932647705078 255.00924682617188 185.13327026367188 252.2233123779297 C 181.0309295654297 249.12466430664062 177.31710815429688 245.21437072753906 174.2681121826172 240.43179321289062 C 178.16580200195312 234.81637573242188 182.49783325195312 228.94192504882812 187.0792236328125 223.79808044433594 C 189.55506896972656 227.2644805908203 192.59439086914062 230.34156799316406 194.81893920898438 232.04364013671875 C 196.85031127929688 233.1350860595703 200.7572021484375 233.38575744628906 204.61976623535156 233.90196228027344 C 211.0140380859375 235.41712951660156 216.44448852539062 236.52587890625 222.81060791015625 237.40933227539062 C 228.55844116210938 239.28138732910156 231.1595001220703 241.83767700195312 231.8333740234375 244.16807556152344 C 232.6374053955078 245.8831024169922 232.72183227539062 247.57882690429688 232.65310668945312 249.73875427246094 C 232.6743927001953 252.1334228515625 231.70294189453125 255.02554321289062 229.94540405273438 257.3181457519531 C 227.48365783691406 260.3280334472656 224.54507446289062 261.622314453125 218.33279418945312 262.04010009765625M 118.10774230957031 255.75791931152344 C 123.85057830810547 251.22035217285156 122.8809814453125 246.16128540039062 120.72055053710938 240.27017211914062 C 117.72208404541016 237.82479858398438 124.46928405761719 239.68353271484375 130.2055206298828 229.8347625732422 C 133.52413940429688 227.3709716796875 144.74569702148438 224.02615356445312 149.59237670898438 222.22450256347656 C 142.39361572265625 222.06283569335938 149.86328125 220.80938720703125 161.2371063232422 214.3091583251953 C 175.6341552734375 217.931884765625 179.40992736816406 218.54566955566406 175.49624633789062 227.9164581298828 C 166.8357391357422 231.54344177246094 165.00250244140625 227.14837646484375 163.2689666748047 225.2227783203125 C 160.60166931152344 225.5445098876953 156.2963409423828 224.7320556640625 159.47671508789062 217.63807678222656 C 157.1592254638672 213.51454162597656 149.9261474609375 206.2609100341797 138.71205139160156 206.5490264892578 C 138.1374053955078 216.5570526123047 142.7172088623047 216.33714294433594 138.3768768310547 210.75611877441406 C 130.85630798339844 210.65121459960938 128.17652893066406 211.73509216308594 129.97898864746094 208.3967742919922 C 132.09738159179688 209.31932067871094 130.7634735107422 210.89808654785156 135.17050170898438 222.70274353027344 C 154.2710418701172 220.65225219726562 154.4297637939453 210.3290557861328 144.95529174804688 192.14508056640625 C 132.05043029785156 191.52371215820312 136.1595916748047 189.6908416748047 142.96987915039062 203.9860382080078 C 150.53079223632812 204.44760131835938 156.28907775878906 204.3010711669922 150.19606018066406 200.07647705078125 C 152.89559936523438 188.38128662109375 153.22840881347656 181.74957275390625 160.09738159179688 186.7667694091797 C 169.46044921875 194.49903869628906 169.11837768554688 198.93792724609375 180.80435180664062 211.94857788085938 C 187.3720245361328 197.9916229248047 180.8243865966797 200.97055053710938 187.14271545410156 207.79443359375 C 196.99920654296875 205.38970947265625 196.52015686035156 205.68716430664062 194.99905395507812 206.68197631835938 C 196.32742309570312 212.06663513183594 196.66217041015625 217.7963409423828 202.96444702148438 217.35147094726562 C 203.14321899414062 217.1783447265625 201.87095642089844 214.0461883544922 203.46197509765625 209.26087951660156 C 210.62008666992188 217.5011444091797 221.20260620117188 218.79527282714844 233.5301055908203 238.62252807617188 C 201.38787841796875 240.27456665039062 198.82357788085938 235.7972869873047 196.3007354736328 233.2222137451172 C 192.07473754882812 233.3809356689453 188.44775390625 236.1577606201172 184.841552734375 240.14344787597656 C 181.2677764892578 244.10476684570312 202.43028259277344 262.61669921875 192.36166381835938 259.90643310546875 C 185.6548309326172 255.0498504638672 181.31591796875 260.74932861328125 179.76382446289062 269.23681640625 C 156.472900390625 258.7601623535156 156.92547607421875 260.546630859375 160.9524688720703 264.6543273925781 C 140.87391662597656 257.603515625 133.28419494628906 251.04049682617188 118.10774230957031 255.75791931152344"/>
    <path stroke-width="0" fill="rgb(0, 0, 0)" opacity="1.0" d="M 221.80564880371094 261.8049011230469 C 222.9066925048828 253.51560974121094 223.51425170898438 245.96066284179688 226.2619171142578 238.38601684570312 C 231.0546112060547 240.30465698242188 233.7324676513672 241.85205078125 235.17416381835938 241.8708953857422 C 236.8802947998047 242.02362060546875 236.18331909179688 235.19113159179688 237.5228271484375 232.80557250976562 C 240.34576416015625 229.75746154785156 240.87252807617188 228.18313598632812 241.10226440429688 226.15216064453125 C 241.5869140625 222.6403045654297 241.63916015625 220.79190063476562 240.39889526367188 218.18951416015625 C 239.63595581054688 214.05322265625 238.9763641357422 212.23390197753906 237.49166870117188 209.35353088378906 C 236.74607849121094 202.66453552246094 236.53298950195312 197.7768096923828 236.43162536621094 194.685302734375 C 244.03077697753906 194.43588256835938 250.10662841796875 194.0264434814453 253.46109008789062 191.7362060546875 C 254.86996459960938 193.31399536132812 256.8560791015625 195.65174865722656 260.8558044433594 200.34571838378906 C 261.7331848144531 202.19595336914062 263.6727600097656 207.28172302246094 265.2179260253906 210.14370727539062 C 264.3796691894531 219.62686157226562 263.8050231933594 224.5251922607422 262.7322082519531 229.89602661132812 C 260.9552001953125 235.29547119140625 260.0642395019531 237.711181640625 257.6464538574219 241.88380432128906 C 256.39459228515625 244.0665740966797 255.3688201904297 245.67002868652344 252.3279571533203 249.7680206298828 C 249.47125244140625 252.04396057128906 247.27113342285156 253.0689239501953 242.7321014404297 254.79774475097656 C 240.1205291748047 256.04669189453125 237.5199432373047 256.7349548339844 235.22235107421875 257.7215270996094 C 232.13204956054688 259.32232666015625 227.93917846679688 261.5292663574219 221.80564880371094 261.8049011230469M 247.32400512695312 308.3728942871094 C 239.592529296875 297.9535217285156 239.0326385498047 299.68634033203125 236.8093719482422 297.5434265136719 C 232.21734619140625 291.11541748046875 233.12457275390625 289.5501708984375 234.7993927001953 295.14892578125 C 233.90447998046875 295.27935791015625 230.36111450195312 291.4396667480469 220.8003692626953 275.7123718261719 C 223.55130004882812 271.7889709472656 233.72000122070312 271.75921630859375 243.2012481689453 265.6961975097656 C 244.49815368652344 267.06488037109375 248.53541564941406 273.442138671875 255.50564575195312 274.4186706542969 C 250.56016540527344 283.7889404296875 256.1005859375 288.940185546875 256.4487609863281 292.5180358886719 C 248.99114990234375 300.0902404785156 251.51173400878906 298.11322021484375 251.30853271484375 290.8458557128906 C 253.6887664794922 296.36456298828125 255.06753540039062 299.172119140625 247.32400512695312 308.3728942871094"/>
  </g>
</svg>
