<?xml version="1.0" ?>
<svg xmlns="http://www.w3.org/2000/svg" version="1.1" width="600" height="600">
  <defs/>
  <g>
    <path stroke-width="0" fill="rgb(0, 0, 0)" opacity="1.0" d="M 81.63277435302734 375.6886291503906 C 78.75843811035156 372.9794006347656 77.9355239868164 371.0779724121094 76.16272735595703 368.5751953125 C 74.3161392211914 366.353759765625 72.02664184570312 364.017822265625 69.603759765625 361.1005554199219 C 67.1431655883789 357.92864990234375 64.98663330078125 354.32489013671875 63.023311614990234 350.6171875 C 61.33501434326172 346.95458984375 60.072322845458984 343.08612060546875 47.782936096191406 345.32244873046875 C 59.9076042175293 328.81781005859375 60.31990051269531 328.37371826171875 59.5778694152832 339.8573913574219 C 59.40274429321289 341.05657958984375 58.88102722167969 342.8690490722656 60.4371337890625 338.82745361328125 C 60.95979309082031 341.9620056152344 61.16399383544922 344.6839294433594 61.36217498779297 348.0440673828125 C 62.85417938232422 344.5611267089844 62.16678237915039 347.75323486328125 61.31468963623047 351.2377624511719 C 58.80800247192383 357.7251892089844 56.20017623901367 363.5438232421875 53.50541305541992 369.4822998046875 C 49.95338439941406 375.95062255859375 48.419673919677734 380.1474304199219 46.792640686035156 385.4493408203125 C 42.26990509033203 384.1468811035156 37.370994567871094 383.7892761230469 31.23670196533203 383.6960144042969 C 31.56404685974121 379.7341613769531 32.25376510620117 375.73175048828125 33.43628692626953 372.09716796875 C 35.312564849853516 368.0516052246094 37.36342239379883 363.4519958496094 39.445152282714844 359.96307373046875 C 41.764774322509766 356.1853942871094 43.33210372924805 353.58355712890625 44.65724563598633 349.81982421875 C 45.4866943359375 348.2232971191406 46.2805290222168 345.46142578125 47.170570373535156 342.98236083984375 C 47.900691986083984 340.3236999511719 46.88483810424805 345.8476867675781 47.29201126098633 343.30517578125 C 47.25873565673828 341.23388671875 46.780548095703125 338.4793701171875 47.77389144897461 335.6109924316406 C 49.61752700805664 332.2288513183594 50.96546173095703 330.185302734375 52.32151412963867 327.8489685058594 C 53.64165496826172 325.4566345214844 55.114479064941406 323.0688171386719 56.5074462890625 320.966064453125 C 59.80570602416992 323.0300598144531 62.31791687011719 324.62652587890625 63.018402099609375 325.0511779785156 C 64.88658905029297 325.5824279785156 66.13530731201172 328.6133117675781 68.41575622558594 328.1015930175781 C 70.37251281738281 330.8946533203125 70.69477081298828 333.5818176269531 71.54497528076172 337.4396667480469 C 72.11062622070312 339.4840393066406 73.30977630615234 342.3795471191406 74.58009338378906 344.3697509765625 C 76.37750244140625 346.7789001464844 78.37574005126953 349.3524475097656 80.4849853515625 351.8740234375 C 82.51152801513672 354.7733459472656 84.59066772460938 357.3074035644531 87.149658203125 360.378173828125 C 82.16095733642578 360.1029052734375 77.60137939453125 360.9332580566406 79.04339599609375 360.3946533203125 C 81.14810180664062 355.3318176269531 84.12274932861328 350.4721374511719 87.33074188232422 346.0483703613281 C 90.56503295898438 341.93670654296875 93.2918701171875 337.8179016113281 96.13420867919922 333.6435852050781 C 99.43173217773438 328.794677734375 103.46086120605469 323.9764709472656 107.31364440917969 320.9609375 C 103.65576934814453 323.47869873046875 103.99662780761719 321.25537109375 107.55706787109375 317.57366943359375 C 110.08668518066406 318.47869873046875 112.03558349609375 312.9231262207031 114.43202209472656 313.9275817871094 C 113.84059143066406 318.3196716308594 117.501220703125 319.4578857421875 119.44247436523438 322.4590759277344 C 116.90847778320312 324.05133056640625 119.04399871826172 326.3436584472656 120.7684555053711 326.6015625 C 120.4510269165039 327.70263671875 120.22947692871094 329.26422119140625 120.0011215209961 331.645751953125 C 119.91642761230469 335.3286437988281 119.8059310913086 338.04345703125 119.91169738769531 340.4881286621094 C 120.13589477539062 343.1054382324219 120.39555358886719 344.4361877441406 121.41179656982422 347.009033203125 C 121.50132751464844 350.25689697265625 121.79360961914062 352.7163391113281 122.5814208984375 355.7874450683594 C 123.26913452148438 359.2765197753906 123.7536392211914 363.1044006347656 124.50384521484375 366.5428771972656 C 124.91244506835938 370.9314880371094 125.53054809570312 375.82525634765625 125.50450897216797 378.93463134765625 C 125.585205078125 382.0111999511719 123.83086395263672 384.41180419921875 122.05034637451172 387.4232482910156 C 116.9253921508789 383.49578857421875 114.13233184814453 388.9125061035156 110.50293731689453 389.6685791015625 C 110.27198791503906 387.1508483886719 109.81836700439453 385.2217102050781 108.02599334716797 380.6907653808594 C 108.01631927490234 377.05816650390625 108.775146484375 373.9161376953125 108.89080047607422 370.654052734375 C 108.60131072998047 368.1539611816406 107.84893798828125 364.75836181640625 106.80464172363281 361.92828369140625 C 106.2676010131836 359.1113586425781 105.65055847167969 355.8988037109375 105.02923583984375 352.00128173828125 C 104.96856689453125 348.19610595703125 105.53382110595703 351.02667236328125 104.60670471191406 347.5390930175781 C 104.03321838378906 344.0940856933594 103.77384948730469 340.6200256347656 103.78575897216797 337.104248046875 C 103.96540069580078 334.49176025390625 104.16410827636719 332.24835205078125 104.39895629882812 329.8541564941406 C 103.83312225341797 329.538818359375 109.50908660888672 331.6405334472656 115.74064636230469 331.80987548828125 C 113.62469482421875 334.0339660644531 111.47769165039062 337.6199035644531 109.47020721435547 342.2502746582031 C 107.13407135009766 348.15966796875 103.73603057861328 353.355224609375 100.10613250732422 357.2798156738281 C 96.86045837402344 360.9534606933594 94.2632064819336 364.82073974609375 92.03118896484375 368.8133239746094 C 91.10667419433594 370.8598937988281 90.93038177490234 371.7236633300781 89.64520263671875 374.9345703125 C 87.47599029541016 374.7845458984375 87.29727172851562 376.5707702636719 84.62467193603516 377.7058410644531 C 83.48567962646484 377.35711669921875 82.97064971923828 374.94927978515625 81.63277435302734 375.6886291503906"/>
    <path stroke-width="0" fill="rgb(0, 0, 0)" opacity="1.0" d="M 200.98167419433594 354.3150634765625 C 200.88294982910156 352.7023010253906 200.52720642089844 354.6824645996094 199.98281860351562 356.89544677734375 C 199.709228515625 359.3118896484375 199.28851318359375 361.5746765136719 198.36807250976562 363.53271484375 C 197.3282470703125 365.341796875 196.48472595214844 366.49615478515625 194.4042205810547 368.6856689453125 C 193.23681640625 370.37652587890625 192.54649353027344 371.338623046875 191.3421630859375 373.14251708984375 C 190.24314880371094 374.5859680175781 189.1057891845703 375.58453369140625 187.31768798828125 376.6209716796875 C 185.51434326171875 377.734619140625 183.79270935058594 378.7587585449219 181.5286407470703 380.23077392578125 C 178.76332092285156 381.5972900390625 176.43072509765625 382.780517578125 172.8647003173828 383.20098876953125 C 169.36676025390625 384.5152282714844 166.11424255371094 385.2256164550781 162.44264221191406 384.64422607421875 C 159.1180419921875 385.00360107421875 156.67820739746094 385.269775390625 152.88812255859375 384.8988037109375 C 149.29966735839844 384.28533935546875 146.79165649414062 383.3895263671875 144.19761657714844 382.031494140625 C 142.06411743164062 380.3171691894531 140.32106018066406 379.0357360839844 138.56063842773438 377.91741943359375 C 136.58779907226562 376.2983093261719 135.85829162597656 375.6888732910156 134.24884033203125 373.8116455078125 C 133.18310546875 372.6328430175781 132.2304229736328 371.1104431152344 131.3142547607422 369.1711120605469 C 130.2745361328125 366.6540222167969 129.375244140625 364.52618408203125 128.65330505371094 362.2721252441406 C 127.6627197265625 358.11724853515625 127.41690063476562 355.5042419433594 127.25719451904297 352.2721862792969 C 127.61890411376953 351.24957275390625 128.4693603515625 348.3864440917969 128.8789520263672 345.2250671386719 C 129.1661376953125 342.8468933105469 129.48562622070312 340.2859802246094 129.2410430908203 346.8107604980469 C 130.45834350585938 343.878662109375 131.7847137451172 341.5509033203125 132.11199951171875 340.6669616699219 C 132.94720458984375 338.4361572265625 134.70938110351562 335.5286865234375 136.42721557617188 333.6387939453125 C 138.07330322265625 331.44647216796875 139.68377685546875 329.3514709472656 141.70089721679688 327.35235595703125 C 143.41290283203125 325.5738220214844 145.20970153808594 324.2113952636719 147.305908203125 322.89593505859375 C 149.0039825439453 321.451171875 151.38487243652344 320.10906982421875 154.17616271972656 319.2124938964844 C 155.60244750976562 318.5233154296875 157.41392517089844 317.87139892578125 159.3446502685547 317.49847412109375 C 160.58697509765625 317.4094543457031 159.36912536621094 317.68621826171875 162.01748657226562 316.97900390625 C 164.93565368652344 316.5679626464844 166.93035888671875 316.4595031738281 168.97482299804688 316.5030517578125 C 171.2782440185547 316.6227111816406 173.43890380859375 316.9215087890625 175.09461975097656 317.2864685058594 C 178.35952758789062 318.2998962402344 181.4127960205078 319.781982421875 183.4054412841797 321.65460205078125 C 185.7288818359375 323.8852844238281 187.10076904296875 325.13525390625 189.3366241455078 327.43798828125 C 190.8597869873047 328.9377136230469 192.79891967773438 330.9774169921875 194.29498291015625 332.957275390625 C 196.57664489746094 336.08441162109375 198.24044799804688 340.052001953125 199.61541748046875 342.8342590332031 C 200.5762481689453 345.30816650390625 201.1944122314453 347.9515075683594 201.29188537597656 351.35797119140625 C 201.11056518554688 355.05535888671875 200.89012145996094 352.3018798828125 200.98167419433594 354.3150634765625M 144.75180053710938 346.8140563964844 C 143.9384002685547 350.349365234375 143.3783416748047 354.4443664550781 143.345458984375 351.3925476074219 C 143.7119140625 355.3482971191406 144.26177978515625 358.06817626953125 144.79737854003906 359.5838317871094 C 145.8699188232422 362.8900146484375 147.72817993164062 365.4938049316406 151.1483154296875 367.8650207519531 C 152.13449096679688 368.6496887207031 154.47955322265625 369.6791687011719 156.09060668945312 370.0290832519531 C 157.55242919921875 370.4169616699219 159.79962158203125 370.7898254394531 161.80841064453125 370.4949035644531 C 164.3623809814453 370.35821533203125 166.20553588867188 369.9652099609375 168.791259765625 369.3582458496094 C 171.38864135742188 368.604736328125 173.55184936523438 367.0929260253906 174.65359497070312 366.0415344238281 C 177.86341857910156 363.5356750488281 179.97731018066406 360.6181945800781 181.38174438476562 357.3395080566406 C 181.74435424804688 356.6054992675781 182.02642822265625 355.4305114746094 182.21328735351562 354.040771484375 C 182.45973205566406 352.51251220703125 182.58059692382812 354.3447570800781 182.72845458984375 354.002197265625 C 183.04708862304688 351.9044494628906 182.51885986328125 348.3117980957031 181.65020751953125 345.4093322753906 C 180.34451293945312 341.7774658203125 178.4405059814453 338.4811706542969 176.17166137695312 335.4081115722656 C 175.015869140625 333.0045166015625 173.52532958984375 331.3420715332031 171.527587890625 330.35693359375 C 169.92236328125 329.62518310546875 167.22669982910156 329.0700378417969 164.2035675048828 329.29022216796875 C 162.8828125 329.60845947265625 161.59149169921875 329.79486083984375 160.4093475341797 330.2232666015625 C 159.0582733154297 330.7283935546875 157.30401611328125 331.76275634765625 156.45668029785156 332.5327453613281 C 153.82420349121094 334.3583984375 151.13999938964844 337.4803161621094 149.70138549804688 340.7110595703125 C 148.2046661376953 343.312744140625 147.7470245361328 344.5876159667969 147.14364624023438 346.70416259765625 C 145.82943725585938 349.95892333984375 145.49510192871094 343.9924621582031 144.75180053710938 346.8140563964844"/>
    <path stroke-width="0" fill="rgb(0, 0, 0)" opacity="1.0" d="M 263.75152587890625 356.010986328125 C 263.7957763671875 358.49249267578125 263.3548889160156 360.9337158203125 262.6395263671875 363.0828857421875 C 261.8021545410156 365.7079772949219 260.8525085449219 368.01080322265625 259.8307800292969 369.80670166015625 C 259.0118103027344 371.5052185058594 257.929931640625 373.109130859375 257.0891418457031 374.0953369140625 C 255.33860778808594 376.61395263671875 254.80252075195312 377.1920471191406 251.91366577148438 379.265380859375 C 249.75003051757812 381.29425048828125 247.24859619140625 382.5733337402344 244.78054809570312 383.92803955078125 C 241.2844696044922 385.91729736328125 238.26866149902344 386.5616455078125 233.68299865722656 385.66748046875 C 231.09486389160156 385.50726318359375 227.97300720214844 383.97467041015625 225.44992065429688 382.0205383300781 C 223.91917419433594 381.1761169433594 221.98475646972656 379.89129638671875 220.37704467773438 378.18109130859375 C 217.67514038085938 376.0466003417969 216.36550903320312 374.66015625 214.86651611328125 372.6708068847656 C 212.9298553466797 371.0678405761719 210.77255249023438 368.7041931152344 209.19117736816406 365.78387451171875 C 208.28314208984375 364.25335693359375 207.72312927246094 363.2232360839844 206.268310546875 361.304931640625 C 205.5958709716797 360.26171875 204.69845581054688 358.32464599609375 203.87501525878906 356.1318664550781 C 203.36630249023438 354.3833923339844 202.78289794921875 351.50262451171875 202.4579620361328 349.31414794921875 C 202.200927734375 347.9448547363281 202.77426147460938 345.445556640625 203.5377655029297 342.6465148925781 C 203.9010467529297 340.96795654296875 203.47589111328125 343.2704162597656 203.48562622070312 342.736328125 C 203.39971923828125 341.8785400390625 202.8064727783203 338.7348327636719 202.3668212890625 336.955322265625 C 201.76377868652344 333.8885192871094 201.55609130859375 330.62109375 202.49806213378906 327.48712158203125 C 203.54049682617188 324.41656494140625 202.90972900390625 326.33502197265625 203.23745727539062 324.228759765625 C 202.9839630126953 325.9679870605469 203.00857543945312 323.85748291015625 203.38270568847656 322.0173034667969 C 205.53782653808594 322.48291015625 205.26858520507812 320.9377746582031 204.9624481201172 319.7503967285156 C 207.4945831298828 319.0452575683594 209.410888671875 318.5726623535156 209.76600646972656 318.5540771484375 C 214.23812866210938 321.5212707519531 215.81350708007812 322.9371337890625 217.10421752929688 323.79791259765625 C 216.23435974121094 325.4293518066406 215.22120666503906 327.0799865722656 217.83895874023438 327.1579284667969 C 217.59080505371094 329.5218200683594 217.47027587890625 331.7698974609375 217.54879760742188 331.9335021972656 C 218.62286376953125 336.2178649902344 219.99099731445312 340.1524353027344 220.1726837158203 343.78582763671875 C 218.46144104003906 349.9873352050781 218.1581573486328 345.58441162109375 218.9108428955078 348.5775451660156 C 219.71827697753906 350.594482421875 220.90530395507812 352.92279052734375 222.5933074951172 356.1978454589844 C 223.93072509765625 358.6117858886719 225.8248748779297 360.9162292480469 228.50152587890625 363.39971923828125 C 231.05641174316406 367.43310546875 233.927001953125 369.75506591796875 236.4372100830078 370.35052490234375 C 237.1038818359375 370.2270812988281 237.80899047851562 370.09429931640625 238.8944091796875 369.16815185546875 C 242.2630157470703 366.5372619628906 244.01962280273438 363.9631042480469 245.13400268554688 361.4965515136719 C 245.87892150878906 359.63214111328125 246.58103942871094 355.94866943359375 246.96971130371094 352.71795654296875 C 247.42160034179688 349.158935546875 247.34959411621094 345.2502136230469 247.8853759765625 349.2663269042969 C 247.2508087158203 345.3299560546875 247.2851104736328 341.8152770996094 247.32769775390625 336.1070251464844 C 247.95021057128906 331.8378601074219 248.74835205078125 327.9239501953125 250.01722717285156 324.30706787109375 C 250.2893524169922 320.8583068847656 250.72189331054688 317.488037109375 251.88851928710938 313.84124755859375 C 254.52383422851562 314.55242919921875 257.0200500488281 315.0787048339844 259.97882080078125 315.68817138671875 C 258.92376708984375 317.74444580078125 261.0622253417969 318.45709228515625 263.7293395996094 319.201171875 C 263.1681213378906 320.87799072265625 262.7889099121094 322.3897705078125 262.68402099609375 323.0708923339844 C 262.3514099121094 324.249755859375 266.499755859375 325.6766662597656 265.42523193359375 329.2395935058594 C 264.3874206542969 332.4842834472656 263.7120361328125 335.34716796875 263.6369934082031 337.99896240234375 C 263.89007568359375 341.2503967285156 263.9726867675781 343.1378173828125 263.7191162109375 342.0691223144531 C 264.09912109375 343.8847961425781 263.2770690917969 342.05938720703125 264.222900390625 344.2348937988281 C 264.1622009277344 347.6344909667969 263.8286437988281 352.0583190917969 263.75152587890625 356.010986328125"/>
    <path stroke-width="0" fill="rgb(0, 0, 0)" opacity="1.0" d="M 333.96136474609375 377.4136047363281 C 330.811279296875 376.9100646972656 327.6053161621094 376.5301513671875 325.3633728027344 376.31280517578125 C 322.8571472167969 376.3162841796875 319.7945251464844 376.2583312988281 317.0767822265625 376.1684265136719 C 315.3952941894531 373.1494140625 313.75665283203125 371.07830810546875 311.4079284667969 368.88824462890625 C 308.0248107910156 366.26220703125 304.7430725097656 363.8475341796875 301.3130187988281 360.8293762207031 C 298.0706481933594 358.0870666503906 295.166748046875 355.1235656738281 292.1661071777344 352.3622131347656 C 288.8990478515625 349.1004943847656 285.8050842285156 345.4813537597656 269.7864685058594 360.05706787109375 C 280.3898620605469 330.35546875 283.178466796875 341.58740234375 275.7445983886719 335.5065002441406 C 284.5258483886719 338.8697814941406 283.7619934082031 340.6968078613281 284.5257873535156 337.6708068847656 C 284.7260437011719 339.5262451171875 284.9546203613281 342.041015625 285.11566162109375 344.14788818359375 C 285.37530517578125 346.7521667480469 285.700927734375 349.1557312011719 285.9353942871094 351.489501953125 C 286.5120849609375 357.6407165527344 287.4552917480469 362.761962890625 286.9110412597656 368.13702392578125 C 286.0048522949219 372.8135070800781 285.3750305175781 377.92523193359375 285.3724670410156 383.1634826660156 C 280.5592956542969 383.08416748046875 275.4301452636719 383.0857238769531 271.23431396484375 380.1275634765625 C 273.1627197265625 377.61749267578125 270.6801452636719 377.0965576171875 270.9117431640625 373.0274658203125 C 271.3022766113281 370.38568115234375 271.6307678222656 367.2558288574219 272.3661193847656 364.2547302246094 C 272.8089904785156 361.3450012207031 272.7497863769531 363.638916015625 272.2750244140625 360.0959167480469 C 271.8674011230469 356.446044921875 271.43994140625 353.2200012207031 271.080078125 349.8511657714844 C 270.6845703125 346.7498474121094 270.1627502441406 343.3606262207031 269.69415283203125 339.8551940917969 C 269.5184020996094 336.03173828125 270.6911315917969 333.0853271484375 269.20220947265625 335.82720947265625 C 269.93280029296875 333.29241943359375 270.3948669433594 331.2872314453125 270.7268981933594 329.4301452636719 C 271.6639709472656 326.3153076171875 272.7171630859375 323.62554931640625 273.88385009765625 321.019775390625 C 277.0435485839844 322.42620849609375 279.72882080078125 323.6133117675781 282.3935546875 324.4698791503906 C 284.9439697265625 324.67388916015625 287.2520446777344 324.7733154296875 290.1011962890625 324.929931640625 C 291.8149108886719 328.4354553222656 293.650390625 331.79925537109375 295.5528259277344 334.6800231933594 C 297.5668640136719 337.2476501464844 299.9346008300781 339.9764099121094 302.7564697265625 342.6851806640625 C 305.7508544921875 345.8104248046875 308.57489013671875 348.60577392578125 311.4281005859375 351.23272705078125 C 314.2197265625 353.8559875488281 317.9703674316406 356.7771301269531 329.2809143066406 355.0103759765625 C 313.45361328125 366.9308776855469 321.5997009277344 359.495849609375 320.1558837890625 349.29632568359375 C 321.2450866699219 361.7092590332031 321.1710205078125 360.00958251953125 321.0977783203125 358.39532470703125 C 320.9294738769531 356.56988525390625 320.5724182128906 354.111328125 320.3480529785156 352.05029296875 C 320.1765441894531 349.74493408203125 320.031005859375 348.25872802734375 319.8051452636719 346.38427734375 C 319.7073059082031 343.6050720214844 319.6546936035156 340.6373596191406 319.569091796875 338.4560546875 C 319.4142761230469 335.75506591796875 319.2408447265625 333.10858154296875 319.1863098144531 330.0436096191406 C 319.01751708984375 327.5841064453125 318.8490295410156 324.7608337402344 318.59942626953125 321.9851379394531 C 318.7916259765625 318.894287109375 319.0372314453125 316.6930236816406 319.06317138671875 314.7340087890625 C 323.1194763183594 314.69854736328125 327.45294189453125 314.4853515625 332.20501708984375 314.4632568359375 C 332.2009582519531 317.23602294921875 332.1856384277344 319.5790100097656 332.1742248535156 322.0465087890625 C 332.3974609375 324.6705627441406 332.7873840332031 327.5062561035156 333.130126953125 329.8516540527344 C 333.5409240722656 333.1109619140625 333.8169860839844 336.3045654296875 334.17291259765625 339.0103759765625 C 334.505859375 342.2908935546875 334.6773681640625 345.0288391113281 334.8016357421875 347.5075378417969 C 335.0541687011719 350.0605163574219 335.33453369140625 352.9949645996094 335.4604797363281 356.2672119140625 C 335.52862548828125 359.4272155761719 335.4220275878906 362.8550720214844 334.05535888671875 366.3410339355469 C 332.87213134765625 368.8152770996094 335.1292419433594 367.2781677246094 335.0701599121094 369.3756408691406 C 334.74224853515625 371.84967041015625 334.4244079589844 374.6488952636719 333.96136474609375 377.4136047363281"/>
    <path stroke-width="0" fill="rgb(0, 0, 0)" opacity="1.0" d="M 369.17724609375 380.8951721191406 C 367.1463317871094 380.689697265625 365.7110595703125 379.3522644042969 364.7477111816406 381.02874755859375 C 364.16143798828125 383.5679626464844 363.066162109375 383.3388671875 361.7162170410156 382.9196472167969 C 361.9942321777344 382.1697998046875 362.3714904785156 381.2896423339844 360.6453857421875 379.82244873046875 C 359.525390625 378.1028747558594 361.1620788574219 376.63739013671875 360.2347412109375 375.32647705078125 C 361.3816223144531 374.48370361328125 360.2725830078125 373.5379333496094 361.3770751953125 372.9542236328125 C 360.95526123046875 372.3829345703125 358.47796630859375 371.0742492675781 355.1022644042969 370.4187927246094 C 355.611328125 368.5310974121094 356.15472412109375 366.7253112792969 356.1045837402344 369.2931213378906 C 356.1737365722656 368.254638671875 356.1729431152344 369.93170166015625 356.1044006347656 368.99993896484375 C 356.0469055175781 365.9933776855469 356.6787109375 363.8598327636719 357.65814208984375 360.8494567871094 C 357.0193176269531 363.2325439453125 357.47198486328125 361.47442626953125 358.1571044921875 358.07476806640625 C 359.0531311035156 355.52789306640625 360.4661560058594 353.6205139160156 359.4595642089844 354.9977111816406 C 358.98773193359375 357.17333984375 359.2452392578125 353.46136474609375 358.8151550292969 355.96722412109375 C 358.6171875 353.5175476074219 357.95758056640625 347.8149719238281 358.182373046875 350.2438659667969 C 357.5275573730469 344.6093444824219 357.74908447265625 341.16033935546875 361.7687683105469 347.6075744628906 C 360.89874267578125 346.37890625 360.37896728515625 345.5163269042969 360.2373962402344 344.8680114746094 C 359.8172302246094 342.822509765625 360.93597412109375 348.4667663574219 357.7052307128906 341.92205810546875 C 357.60552978515625 339.9977111816406 357.9120788574219 336.7784423828125 357.5345153808594 339.7333068847656 C 357.6140441894531 334.4541931152344 357.85211181640625 332.5909729003906 359.0444641113281 337.0284118652344 C 358.8140563964844 335.2240905761719 358.9402770996094 333.8166198730469 359.2307434082031 331.117431640625 C 359.7688903808594 329.13250732421875 359.7952880859375 328.5141906738281 359.7705078125 330.7324523925781 C 355.742431640625 330.5010986328125 353.1759948730469 330.2161560058594 351.240234375 330.14678955078125 C 354.52972412109375 329.2891540527344 352.3888244628906 330.1450500488281 350.33966064453125 330.1317443847656 C 348.0326843261719 330.2151184082031 351.5123291015625 329.7103576660156 349.34393310546875 330.8008728027344 C 347.686767578125 331.5235900878906 345.2889404296875 332.1692810058594 343.40924072265625 332.6268615722656 C 342.8642578125 329.92388916015625 342.2648010253906 327.89727783203125 340.84332275390625 324.19757080078125 C 342.4053039550781 322.6540222167969 344.26177978515625 321.6487121582031 343.22442626953125 319.8514404296875 C 344.81878662109375 318.56060791015625 343.01190185546875 315.8343505859375 346.8227233886719 314.5162048339844 C 350.21514892578125 314.595947265625 346.73486328125 315.57940673828125 350.09710693359375 313.90118408203125 C 355.73382568359375 314.2569885253906 359.1998291015625 315.0723571777344 361.80938720703125 315.0029602050781 C 364.66107177734375 314.8196105957031 362.612060546875 313.3434753417969 367.2829895019531 312.041748046875 C 368.6174621582031 312.2115783691406 372.009033203125 312.2745056152344 376.1368713378906 312.3343505859375 C 379.3627624511719 312.2742614746094 374.25518798828125 312.11859130859375 375.6539001464844 312.0811767578125 C 379.02105712890625 311.26715087890625 382.4159240722656 310.13580322265625 386.89422607421875 310.2478332519531 C 390.24249267578125 310.17010498046875 393.38189697265625 310.2841491699219 397.02117919921875 310.3831787109375 C 396.9425354003906 313.74798583984375 396.94390869140625 317.3963317871094 396.8836669921875 320.7796936035156 C 395.62982177734375 321.1027526855469 396.7925720214844 324.8616027832031 397.65289306640625 328.1548767089844 C 395.0880432128906 328.815673828125 392.75091552734375 329.1181640625 390.1280212402344 329.7363586425781 C 386.7646179199219 329.76519775390625 384.2065734863281 329.954345703125 389.1876220703125 328.8580017089844 C 385.4842224121094 330.3763427734375 380.75250244140625 331.005859375 376.7120361328125 331.0130310058594 C 374.4048156738281 330.87823486328125 378.2885437011719 330.5384826660156 377.4532470703125 330.4068908691406 C 377.14581298828125 331.5822448730469 376.9819030761719 332.5693664550781 376.4036865234375 334.64984130859375 C 376.29345703125 335.8033752441406 376.1354675292969 336.973388671875 376.486083984375 333.4167785644531 C 376.2873840332031 335.4247741699219 376.91064453125 339.625732421875 376.89306640625 342.47125244140625 C 376.9267883300781 339.7022399902344 377.06158447265625 341.12030029296875 377.2336730957031 341.9082946777344 C 376.861328125 340.3307800292969 375.7604064941406 337.1028137207031 376.8875427246094 339.0579528808594 C 377.0261535644531 344.1353454589844 377.9281921386719 348.2424011230469 378.593505859375 353.3990783691406 C 378.3651428222656 357.97918701171875 377.9155578613281 361.2667541503906 376.94354248046875 363.309326171875 C 375.88336181640625 365.2092590332031 375.12890625 366.39410400390625 376.74517822265625 363.5012512207031 C 376.47662353515625 366.0711364746094 375.9772033691406 368.3524169921875 376.5622253417969 366.5391540527344 C 375.9939270019531 369.1196594238281 375.6708679199219 370.5833740234375 376.06256103515625 368.47186279296875 C 376.1112060546875 369.3899841308594 375.4710388183594 371.8417053222656 375.4608154296875 368.5567932128906 C 374.7734069824219 371.04608154296875 374.12677001953125 373.5762023925781 371.6082458496094 373.478271484375 C 372.17913818359375 376.4825744628906 371.9251403808594 377.6790771484375 371.6571960449219 378.43243408203125 C 370.5661315917969 379.5306091308594 369.2524108886719 379.1159973144531 369.17724609375 380.8951721191406"/>
    <path stroke-width="0" fill="rgb(0, 0, 0)" opacity="1.0" d="M 441.0923156738281 383.1203308105469 C 440.8828125 380.41510009765625 440.5736389160156 377.79656982421875 440.356689453125 376.3028869628906 C 439.8556213378906 374.74078369140625 439.1295471191406 373.52191162109375 438.62115478515625 372.5241394042969 C 436.1420593261719 373.11761474609375 432.4021911621094 373.44970703125 428.5516662597656 373.8074951171875 C 425.50079345703125 373.7182312011719 421.6885681152344 373.4647521972656 416.1888427734375 372.1162109375 C 419.2413330078125 372.8302001953125 415.7901916503906 372.57855224609375 413.4369812011719 372.37689208984375 C 411.0762939453125 371.7747802734375 409.6103820800781 371.5677490234375 409.1316833496094 371.469970703125 C 408.627685546875 373.4761657714844 408.11578369140625 375.395751953125 407.75640869140625 377.12823486328125 C 407.4311828613281 379.0180969238281 405.5024719238281 380.7943420410156 403.7944641113281 382.8466491699219 C 401.3600769042969 381.4652404785156 400.6397705078125 385.2013854980469 398.3018493652344 385.359619140625 C 395.815673828125 386.0005187988281 393.1478271484375 386.22357177734375 390.5589599609375 386.2839050292969 C 391.0194091796875 383.8423767089844 391.3668518066406 381.46209716796875 391.84564208984375 378.3864440917969 C 392.505615234375 375.5257568359375 392.7205810546875 374.0901184082031 393.0503845214844 370.3097229003906 C 393.7270202636719 366.8411560058594 394.4736633300781 363.7056884765625 395.747314453125 359.6968078613281 C 397.176513671875 355.2057800292969 398.9574890136719 351.6228942871094 400.47406005859375 347.99200439453125 C 401.8271179199219 345.232177734375 402.9237060546875 342.5271301269531 402.0361633300781 345.8161926269531 C 402.7523498535156 342.1645202636719 403.3351745605469 339.11614990234375 404.0679016113281 336.4163818359375 C 404.9872131347656 333.7599182128906 406.2999267578125 330.44580078125 407.8317565917969 327.124267578125 C 410.38580322265625 322.8623962402344 410.8733215332031 322.4881591796875 414.3197937011719 319.2032165527344 C 416.9288330078125 320.69317626953125 417.84613037109375 318.4300537109375 419.4686279296875 318.79583740234375 C 421.7771911621094 319.5823669433594 423.6498107910156 320.43316650390625 422.75128173828125 320.2464294433594 C 421.6993408203125 320.1235046386719 422.9681396484375 320.0758361816406 423.55096435546875 319.8905334472656 C 425.1842956542969 322.2196350097656 426.762939453125 323.5072326660156 427.36907958984375 322.32330322265625 C 428.5505676269531 322.4908142089844 430.2406921386719 322.97894287109375 430.799560546875 323.41082763671875 C 431.6245422363281 325.2778015136719 432.3923645019531 327.2735290527344 432.7568054199219 328.4357604980469 C 433.16363525390625 329.4249267578125 433.75750732421875 330.77911376953125 434.2135925292969 331.7265625 C 434.58538818359375 332.6744689941406 435.2545471191406 334.6510009765625 434.66986083984375 332.4107971191406 C 435.5788879394531 333.9314880371094 436.2904052734375 335.1192321777344 436.9643249511719 336.1997375488281 C 437.76959228515625 337.60760498046875 438.42694091796875 338.72723388671875 439.6352844238281 340.5116271972656 C 441.5323791503906 344.0228576660156 443.09844970703125 346.89276123046875 443.857421875 348.4811706542969 C 444.2402038574219 349.1162414550781 444.77227783203125 350.25439453125 445.4875793457031 351.49896240234375 C 446.4314880371094 353.4220275878906 447.8274841308594 356.2641296386719 449.1350402832031 357.8619384765625 C 450.5169372558594 359.409912109375 451.5224914550781 360.7108154296875 452.35125732421875 361.92425537109375 C 453.3202819824219 363.3771667480469 453.8267822265625 364.0132751464844 455.0478210449219 365.8353576660156 C 456.1918640136719 369.8744812011719 457.0951232910156 373.50823974609375 457.6694641113281 375.7654113769531 C 458.49969482421875 378.1578674316406 459.40863037109375 381.2306213378906 460.224365234375 384.3253479003906 C 457.2142028808594 384.0592041015625 453.967041015625 384.26397705078125 450.1183166503906 384.5298156738281 C 446.65899658203125 384.2689208984375 443.7823181152344 383.6636962890625 441.0923156738281 383.1203308105469M 425.3541259765625 343.8647155761719 C 424.79345703125 342.6910400390625 424.1567077636719 341.28863525390625 423.5047607421875 339.5959777832031 C 422.887939453125 338.14544677734375 422.4547424316406 336.6595764160156 422.0443115234375 335.0743408203125 C 421.6061096191406 333.3239440917969 421.16632080078125 331.720947265625 420.9969787597656 330.75323486328125 C 420.75054931640625 331.690185546875 420.3075866699219 333.3463439941406 419.8966369628906 335.1877746582031 C 419.56268310546875 336.90704345703125 419.2875061035156 338.5506286621094 419.0826110839844 340.3327941894531 C 418.775390625 342.04595947265625 418.5936584472656 343.6902160644531 418.36492919921875 344.75079345703125 C 418.0014953613281 347.13592529296875 417.8226013183594 348.5078430175781 417.25762939453125 349.87762451171875 C 416.42108154296875 351.7093200683594 415.4643859863281 353.6207275390625 414.5789794921875 355.59881591796875 C 416.7823486328125 355.8895263671875 419.26654052734375 356.3056335449219 422.3789367675781 356.55218505859375 C 424.4057922363281 356.6966857910156 427.23309326171875 356.79046630859375 430.2762145996094 356.736572265625 C 429.4580993652344 354.3706359863281 428.5632019042969 351.8109436035156 427.8650817871094 349.6766662597656 C 427.3031005859375 348.0169982910156 426.31329345703125 345.8861999511719 425.3541259765625 343.8647155761719"/>
    <path stroke-width="0" fill="rgb(0, 0, 0)" opacity="1.0" d="M 487.0846862792969 377.8384704589844 C 479.2413635253906 380.3556823730469 469.91064453125 381.9255676269531 461.9731140136719 383.19873046875 C 461.6483154296875 381.2998046875 461.2348937988281 379.4570617675781 460.652099609375 377.5211486816406 C 462.1521301269531 376.20513916015625 463.9883117675781 374.7679138183594 465.82989501953125 373.54217529296875 C 461.81103515625 358.5508117675781 460.2662353515625 343.18109130859375 461.86083984375 326.8773193359375 C 460.1457214355469 325.90899658203125 458.4343566894531 324.8268737792969 456.67633056640625 323.8414611816406 C 456.84881591796875 321.7156677246094 456.97430419921875 319.5941162109375 457.1588134765625 317.2676696777344 C 465.5104675292969 317.7405700683594 474.00555419921875 318.5423583984375 481.73675537109375 320.311279296875 C 481.5327453613281 321.3853759765625 479.8554992675781 322.9037780761719 480.6020202636719 324.7572937011719 C 478.927490234375 326.2160949707031 476.61334228515625 326.84918212890625 474.6944274902344 327.5593566894531 C 476.9898986816406 341.125 479.5700988769531 357.0961608886719 479.5194396972656 370.88922119140625 C 481.3149108886719 371.3195495605469 483.00555419921875 371.5185852050781 485.1650695800781 371.8536682128906 C 485.5897521972656 373.8244323730469 486.3013000488281 375.9569396972656 487.0846862792969 377.8384704589844"/>
    <path stroke-width="0" fill="rgb(0, 0, 0)" opacity="1.0" d="M 551.7281494140625 387.89105224609375 C 552.785888671875 380.70166015625 564.6167602539062 382.6875 554.865234375 391.6704406738281 C 546.5983276367188 389.47772216796875 540.74658203125 371.49468994140625 543.0504150390625 380.1794738769531 C 533.0321655273438 375.87091064453125 530.88330078125 372.0687561035156 529.5262451171875 370.61083984375 C 520.804931640625 363.9437561035156 514.284423828125 363.326904296875 512.0220336914062 361.1549072265625 C 519.2550659179688 361.6509704589844 508.0036315917969 355.5495300292969 499.04730224609375 352.8072814941406 C 502.6031799316406 350.9238586425781 498.9839782714844 346.9147033691406 500.0053405761719 338.0890197753906 C 508.2913513183594 330.4432678222656 509.17926025390625 332.5900573730469 515.9594116210938 337.30340576171875 C 519.8544311523438 337.6585998535156 518.5842895507812 341.17279052734375 515.01611328125 339.0788879394531 C 516.167724609375 336.3346252441406 513.25048828125 342.18658447265625 516.2020874023438 338.4514465332031 C 525.7623901367188 341.6571350097656 520.90478515625 347.20574951171875 505.3223571777344 334.5154113769531 C 505.2967834472656 341.12640380859375 504.2539978027344 362.5398864746094 505.1338195800781 363.1614074707031 C 504.7442932128906 364.1673278808594 504.41204833984375 361.3586730957031 504.9181213378906 384.0466613769531 C 510.5220947265625 385.253662109375 495.3227844238281 389.5970458984375 490.7496032714844 374.02691650390625 C 497.2825927734375 380.34075927734375 488.85406494140625 368.33233642578125 497.6347961425781 357.3003234863281 C 502.4911193847656 382.1623229980469 506.8271179199219 383.9220275878906 489.3137512207031 387.88311767578125 C 482.09185791015625 340.3216247558594 479.37255859375 320.19677734375 489.2959899902344 325.6704406738281 C 497.05224609375 360.8313903808594 491.118408203125 351.26666259765625 502.7503356933594 336.8850402832031 C 499.8069152832031 359.50897216796875 490.8058166503906 363.3547058105469 486.8572692871094 347.4578857421875 C 482.6715087890625 327.43328857421875 478.6388854980469 307.2819519042969 485.44677734375 309.11663818359375 C 501.2847595214844 331.0989685058594 501.15472412109375 331.66033935546875 479.33416748046875 338.7239685058594 C 482.9615783691406 342.5123596191406 477.2687683105469 315.5232238769531 487.1472473144531 311.1484375 C 490.06182861328125 317.8045959472656 491.6139831542969 317.091552734375 487.65216064453125 314.7177429199219 C 491.6354064941406 318.4600524902344 496.79156494140625 321.6280822753906 501.19696044921875 325.58282470703125 C 510.48516845703125 329.8615417480469 515.943603515625 334.8970031738281 521.9844970703125 337.9341735839844 C 520.3226928710938 335.82281494140625 528.5274658203125 343.02398681640625 525.3033447265625 342.25323486328125 C 531.4905395507812 345.7029113769531 536.896484375 353.4938049316406 549.3299560546875 347.3588562011719 C 551.3529663085938 356.42156982421875 543.848876953125 358.7441711425781 544.6046142578125 358.01611328125 C 541.154541015625 355.3445129394531 545.1142578125 349.9090576171875 548.5429077148438 359.4171142578125 C 534.9715576171875 367.2807922363281 530.5234985351562 365.0254821777344 524.3575439453125 351.7540283203125 C 532.4714965820312 349.9449157714844 533.5169067382812 364.20501708984375 535.4631958007812 356.0408935546875 C 538.16015625 360.61309814453125 534.1071166992188 357.2978515625 543.496337890625 358.030517578125 C 543.0239868164062 340.42877197265625 544.9188232421875 320.00909423828125 546.5254516601562 317.6786804199219 C 544.7567138671875 342.6442565917969 541.2100219726562 319.9610900878906 553.0711669921875 328.1751403808594 C 550.5204467773438 333.1772766113281 551.7579345703125 334.1357116699219 543.3242797851562 335.1703186035156 C 542.2030029296875 329.30389404296875 542.2774047851562 309.85772705078125 541.35888671875 310.885498046875 C 553.1071166992188 314.44329833984375 561.3223876953125 309.0923767089844 555.02001953125 311.4384765625 C 556.1629638671875 322.8948059082031 549.0011596679688 316.42840576171875 554.7230834960938 323.63702392578125 C 554.5538330078125 319.98394775390625 551.86572265625 335.13128662109375 554.0718994140625 320.5509033203125 C 557.2410888671875 323.46722412109375 552.1301879882812 342.3223571777344 558.56298828125 346.1561279296875 C 555.6502075195312 355.6702575683594 563.4658203125 364.21356201171875 545.8062133789062 351.3724670410156 C 560.2125854492188 348.21734619140625 558.8246459960938 350.32366943359375 559.201171875 360.8550720214844 C 558.1658935546875 358.9996032714844 558.407958984375 367.1838684082031 551.2269897460938 366.0541687011719 C 559.6869506835938 350.0692138671875 561.2659301757812 367.5864562988281 562.7578125 385.415283203125 C 563.8699951171875 395.76300048828125 554.601318359375 386.3734130859375 551.7281494140625 387.89105224609375"/>
    <path stroke-width="0" fill="rgb(0, 0, 0)" opacity="1.0" d="M 44.75324630737305 291.0237731933594 C 43.96476364135742 289.3004150390625 46.37619400024414 294.45208740234375 45.37962341308594 293.2595520019531 C 44.99034118652344 292.03631591796875 44.28266525268555 289.9443664550781 47.95942306518555 296.4045715332031 C 52.25124740600586 300.7361755371094 48.94452667236328 299.1962585449219 44.88575744628906 296.5655517578125 C 47.7347412109375 291.9437255859375 54.24287033081055 292.818115234375 53.601802825927734 287.350341796875 C 56.490169525146484 287.1601867675781 60.093772888183594 287.01904296875 60.044715881347656 285.68048095703125 C 61.10227584838867 286.2380676269531 59.500919342041016 284.4478454589844 59.919288635253906 285.6691589355469 C 60.14584732055664 286.3006896972656 58.28049850463867 283.6797790527344 59.65597915649414 285.4291076660156 C 59.9512825012207 286.6449890136719 60.58074188232422 288.0771179199219 61.07929611206055 288.7435302734375 C 61.59550857543945 289.43603515625 61.95307922363281 289.6487121582031 62.82950210571289 290.33172607421875 C 64.47541046142578 290.73175048828125 66.39012145996094 291.1357727050781 67.8918228149414 291.4617004394531 C 70.7578353881836 291.6621398925781 65.37447357177734 293.1427917480469 68.81673431396484 288.11993408203125 C 73.95441436767578 283.0085144042969 79.43184661865234 278.6993103027344 82.9394302368164 275.0069274902344 C 86.64127349853516 271.32867431640625 88.53838348388672 268.1864929199219 89.86476135253906 265.0856628417969 C 94.72112274169922 255.344482421875 96.12648010253906 247.82867431640625 97.9245834350586 239.13609313964844 C 100.95024871826172 240.1574249267578 98.84857940673828 243.2113800048828 97.5312271118164 246.31578063964844 C 103.8267822265625 248.90846252441406 102.47532653808594 253.87921142578125 102.7707748413086 261.6099548339844 C 101.25446319580078 260.1528015136719 101.74853515625 262.9886169433594 102.80741119384766 265.5108642578125 C 103.45296478271484 267.52642822265625 104.64811706542969 269.1263732910156 106.90245819091797 270.9812316894531 C 106.9464340209961 269.8228759765625 108.20887756347656 274.4153137207031 111.40242767333984 273.2414245605469 C 115.46875 272.34600830078125 117.76689910888672 272.8438720703125 119.54182434082031 274.5130310058594 C 121.25784301757812 276.1408386230469 121.9861068725586 278.08087158203125 122.09597778320312 280.5246276855469 C 122.23731994628906 282.86151123046875 121.51478576660156 284.880126953125 120.02325439453125 286.5118408203125 C 118.49481201171875 288.19598388671875 115.98950958251953 289.359130859375 112.04051971435547 289.93170166015625 C 109.86286163330078 289.9012756347656 107.51148223876953 289.223388671875 104.86393737792969 288.02069091796875 C 102.80026245117188 287.01220703125 100.27427673339844 285.24725341796875 98.72504425048828 283.62750244140625 C 97.45416259765625 282.09210205078125 96.43321990966797 280.3116455078125 95.82855224609375 278.17413330078125 C 95.27300262451172 276.3026123046875 95.32173919677734 273.7794494628906 95.655029296875 271.7867126464844 C 97.1754150390625 272.3985595703125 99.09710693359375 273.1503601074219 100.40282440185547 273.6928405761719 C 98.76124572753906 279.885498046875 96.16560363769531 284.14862060546875 92.92784881591797 288.0099792480469 C 90.0163345336914 291.4446105957031 85.9985580444336 294.36956787109375 84.07160949707031 295.85821533203125 C 81.42918395996094 297.8393859863281 79.24314880371094 299.93023681640625 76.02316284179688 302.8819885253906 C 73.47663879394531 305.63031005859375 69.74048614501953 305.7594299316406 66.25849914550781 305.2680358886719 C 63.93101119995117 305.0385437011719 61.83114242553711 304.8713684082031 60.38642501831055 304.6712951660156 C 55.25118637084961 303.770263671875 54.54848861694336 303.37286376953125 53.172271728515625 302.4428405761719 C 50.172149658203125 300.61322021484375 48.49556350708008 299.12152099609375 47.196537017822266 296.95440673828125 C 46.43098831176758 295.5328674316406 45.48578643798828 293.3277587890625 44.75324630737305 291.0237731933594"/>
    <path stroke-width="0" fill="rgb(0, 0, 0)" opacity="1.0" d="M 114.26486206054688 289.6962890625 C 113.63837432861328 283.4888916015625 114.05457305908203 277.884033203125 113.09861755371094 272.715087890625 C 115.827392578125 272.28857421875 117.85543060302734 271.7576599121094 119.79421997070312 270.9398193359375 C 121.85248565673828 270.5245361328125 123.49874877929688 269.3228454589844 124.84767150878906 267.6086730957031 C 127.1325912475586 265.3690185546875 129.54725646972656 262.7933044433594 127.85804748535156 262.2010498046875 C 130.2538604736328 258.68536376953125 133.33290100097656 256.62286376953125 137.49610900878906 253.65257263183594 C 140.60435485839844 257.9754333496094 142.6804656982422 253.3743438720703 145.49525451660156 258.9728698730469 C 144.00880432128906 259.7187805175781 142.1549530029297 260.3988037109375 143.4827880859375 261.05560302734375 C 144.6101837158203 261.6597900390625 146.22174072265625 262.5401611328125 145.9828643798828 263.36846923828125 C 144.4126434326172 267.015625 142.8158721923828 269.5411682128906 144.02450561523438 266.6423645019531 C 143.26162719726562 269.71337890625 142.86370849609375 271.4666748046875 142.96868896484375 272.770751953125 C 142.90127563476562 271.7467956542969 143.93328857421875 272.4603271484375 146.13641357421875 273.3921203613281 C 148.45541381835938 274.81304931640625 149.22091674804688 276.4906921386719 151.50204467773438 275.6519775390625 C 154.05560302734375 275.0068664550781 155.9038543701172 275.3077087402344 157.01083374023438 276.3988342285156 C 158.1312713623047 277.4554138183594 158.64369201660156 278.7557373046875 158.74717712402344 280.3642883300781 C 158.87579345703125 281.87603759765625 158.46852111816406 283.0502624511719 157.50982666015625 284.25299072265625 C 156.5524139404297 285.60174560546875 154.59303283691406 286.61138916015625 151.07154846191406 286.38531494140625 C 147.03585815429688 285.8993835449219 144.07164001464844 285.1866455078125 140.9195556640625 283.55621337890625 C 138.33709716796875 282.4740905761719 136.9105224609375 281.3485107421875 135.9444122314453 279.8537902832031 C 134.69837951660156 278.1923522949219 133.7338104248047 275.7502136230469 133.5289764404297 272.7699279785156 C 135.08563232421875 272.8074645996094 136.81747436523438 273.02154541015625 138.1050567626953 273.2497863769531 C 137.02377319335938 275.6327819824219 135.911865234375 277.77685546875 133.51637268066406 279.46380615234375 C 133.175048828125 282.6459655761719 131.29917907714844 284.4410095214844 128.99172973632812 285.60888671875 C 127.04102325439453 286.8117980957031 124.61841583251953 287.6842041015625 122.09847259521484 288.2186584472656 C 119.76038360595703 288.6651306152344 117.27783203125 289.24322509765625 114.26486206054688 289.6962890625M 120.01148986816406 304.32501220703125 C 111.20117950439453 304.35650634765625 105.04459381103516 299.3457946777344 114.29448699951172 293.24713134765625 C 128.48703002929688 292.61126708984375 126.64336395263672 296.8444519042969 126.40904235839844 293.94781494140625 C 123.27446746826172 304.8219909667969 130.32301330566406 298.94097900390625 113.61160278320312 299.5790100097656 C 117.7005615234375 294.596923828125 115.05945587158203 295.81121826171875 126.31352996826172 293.6473693847656 C 145.4472198486328 286.58837890625 143.18426513671875 285.4085693359375 148.5375213623047 283.7121276855469 C 146.1680450439453 285.1188049316406 152.59295654296875 288.474609375 152.9438018798828 299.99676513671875 C 148.8496551513672 302.743408203125 142.07366943359375 298.07891845703125 127.91575622558594 289.8086853027344 C 124.57239532470703 287.3851013183594 123.13727569580078 294.4991455078125 120.01148986816406 304.32501220703125"/>
    <path stroke-width="0" fill="rgb(0, 0, 0)" opacity="1.0" d="M 153.72607421875 286.67047119140625 C 153.784912109375 282.4414978027344 153.8117218017578 278.9189453125 152.91781616210938 275.2779846191406 C 156.42054748535156 274.5995788574219 159.68148803710938 274.1666259765625 163.22523498535156 273.79364013671875 C 166.85366821289062 274.0988464355469 170.11807250976562 274.9072570800781 172.4452362060547 275.2879943847656 C 174.46536254882812 275.5493469238281 176.17945861816406 275.532958984375 178.21226501464844 275.22222900390625 C 180.00494384765625 274.86712646484375 181.89967346191406 274.0185241699219 183.2547607421875 273.3102111816406 C 178.1302032470703 270.6334228515625 174.153076171875 266.9452819824219 172.37832641601562 263.3443908691406 C 171.0247802734375 260.0195617675781 169.36839294433594 257.40447998046875 166.60887145996094 254.39791870117188 C 164.22772216796875 251.44798278808594 162.2578125 249.65762329101562 160.03482055664062 248.76953125 C 157.78233337402344 247.8182830810547 171.0088653564453 255.0794219970703 160.44898986816406 261.89508056640625 C 159.6160888671875 261.9325866699219 156.14537048339844 262.0339660644531 152.11903381347656 262.32745361328125 C 147.93177795410156 262.3044128417969 144.22811889648438 261.9352722167969 141.24591064453125 261.4149475097656 C 144.5300750732422 253.20619201660156 143.6445770263672 244.52772521972656 152.4276580810547 237.21279907226562 C 154.05313110351562 238.56201171875 155.87261962890625 239.85720825195312 157.48411560058594 230.15585327148438 C 160.57627868652344 229.90457153320312 154.08480834960938 230.48403930664062 167.9945526123047 223.94342041015625 C 172.594482421875 226.14569091796875 180.40309143066406 233.69483947753906 183.9501495361328 239.70086669921875 C 185.6116180419922 244.1006317138672 186.97850036621094 248.72581481933594 188.4788818359375 252.36659240722656 C 189.55096435546875 254.88609313964844 190.29344177246094 256.40911865234375 190.8184356689453 257.0456848144531 C 191.54383850097656 257.58697509765625 194.10162353515625 258.6149597167969 189.9862060546875 254.2239990234375 C 192.54843139648438 253.9712677001953 195.66221618652344 253.55393981933594 198.59735107421875 257.6791687011719 C 200.99057006835938 255.39761352539062 203.63433837890625 253.3407440185547 205.51026916503906 252.0608367919922 C 210.60040283203125 257.5317077636719 210.5731658935547 257.8910217285156 254.7711944580078 299.7711486816406 C 203.79823303222656 275.0018310546875 203.57156372070312 275.27313232421875 200.4102783203125 276.56585693359375 C 193.0256805419922 280.1518249511719 189.29283142089844 281.8420104980469 187.44061279296875 282.6038818359375 C 185.1804656982422 283.43145751953125 183.41738891601562 284.01239013671875 181.2810821533203 284.7647399902344 C 178.8128204345703 285.41064453125 176.34552001953125 285.7538757324219 173.42567443847656 285.79296875 C 170.3766326904297 285.68560791015625 167.86790466308594 285.3946228027344 165.85256958007812 285.1404724121094 C 163.20590209960938 285.2149353027344 159.36538696289062 285.49761962890625 153.72607421875 286.67047119140625M 179.9409637451172 308.24176025390625 C 177.02098083496094 309.21209716796875 171.98150634765625 303.83251953125 172.27908325195312 299.587646484375 C 158.30633544921875 316.9229736328125 151.79417419433594 319.259765625 176.5401153564453 323.5872802734375 C 177.26925659179688 301.985107421875 192.43463134765625 290.41070556640625 174.8711700439453 292.90478515625 C 166.18927001953125 290.8861083984375 159.79116821289062 275.2039794921875 169.8347625732422 274.979736328125 C 187.80491638183594 296.30889892578125 187.57290649414062 298.6679992675781 181.16172790527344 299.800048828125 C 184.85992431640625 300.1129150390625 184.11412048339844 308.4043884277344 195.20098876953125 310.9403076171875 C 207.73976135253906 312.2879333496094 207.92930603027344 311.3807373046875 198.0078125 303.6673889160156 C 187.17855834960938 297.7259521484375 184.3208465576172 293.4300537109375 179.9409637451172 308.24176025390625"/>
  </g>
</svg>
