<?xml version="1.0" ?>
<svg xmlns="http://www.w3.org/2000/svg" version="1.1" width="600" height="600">
  <defs/>
  <g>
    <path stroke-width="0" fill="rgb(0, 0, 0)" opacity="1.0" d="M 83.10205078125 378.22967529296875 C 82.27898406982422 375.6129455566406 81.39749908447266 370.9961853027344 80.70176696777344 368.70513916015625 C 78.94412231445312 365.5472106933594 75.65642547607422 362.30755615234375 72.38079833984375 358.7339782714844 C 69.59095001220703 354.34893798828125 67.3315200805664 350.36236572265625 65.19032287597656 345.97607421875 C 63.843894958496094 342.3371276855469 62.52082061767578 338.59002685546875 54.34532928466797 339.2154541015625 C 60.491050720214844 329.3174743652344 60.13371658325195 329.01812744140625 61.009212493896484 334.5025634765625 C 61.25706481933594 335.90509033203125 61.78947830200195 338.3943176269531 61.746009826660156 336.0017395019531 C 63.142086029052734 338.6863098144531 64.87200164794922 342.54132080078125 66.36422729492188 346.38287353515625 C 66.86178588867188 343.8655700683594 66.41936492919922 348.6953125 65.92281341552734 350.4678039550781 C 64.12321472167969 356.57537841796875 63.19188690185547 361.85601806640625 62.484954833984375 369.0981140136719 C 62.119781494140625 376.6367492675781 62.72208023071289 381.77520751953125 63.010868072509766 388.17041015625 C 55.851253509521484 389.0770263671875 50.11326599121094 389.1968994140625 44.23286056518555 388.788330078125 C 44.27339553833008 385.32501220703125 44.22745132446289 381.2715148925781 44.98236083984375 377.923095703125 C 45.37261199951172 372.1929016113281 47.180198669433594 368.6788330078125 48.04643249511719 365.4844665527344 C 48.08296585083008 359.7563781738281 48.7419548034668 357.2340393066406 49.68874740600586 352.0790100097656 C 51.69114685058594 349.2749938964844 52.613365173339844 346.93792724609375 52.979957580566406 345.1403503417969 C 52.708187103271484 342.3046569824219 52.539249420166016 347.3407897949219 52.30667495727539 344.82879638671875 C 50.46461868286133 342.4617919921875 49.14147186279297 339.7551574707031 49.96822738647461 335.061767578125 C 49.87885665893555 330.87548828125 50.81064987182617 328.398681640625 51.30303192138672 325.4061279296875 C 50.69650650024414 322.4231872558594 51.88373565673828 319.8204040527344 52.817230224609375 318.4776611328125 C 56.07044219970703 319.4939270019531 58.17707443237305 320.1753845214844 60.82307434082031 320.4356689453125 C 61.57720947265625 320.4691467285156 62.967533111572266 320.803466796875 65.65210723876953 320.5254821777344 C 66.89398193359375 322.50982666015625 68.69606018066406 325.94598388671875 70.43470764160156 329.5740051269531 C 72.26869201660156 333.2291564941406 74.55224609375 336.646484375 76.67876434326172 339.7574768066406 C 78.32284545898438 342.85858154296875 80.3972396850586 346.1994934082031 83.31360626220703 350.16143798828125 C 85.76570892333984 353.4431457519531 88.4104232788086 356.61590576171875 91.9014663696289 362.23223876953125 C 85.24137878417969 360.5205383300781 77.94686126708984 361.83544921875 79.14097595214844 361.1072082519531 C 81.57660675048828 355.7821044921875 83.96817779541016 351.2928466796875 86.93950653076172 346.4070129394531 C 90.53557586669922 343.455322265625 92.84349822998047 340.81097412109375 95.97362518310547 337.4695129394531 C 98.24777221679688 333.93865966796875 100.38299560546875 329.75732421875 102.37648010253906 324.9205322265625 C 103.77286529541016 320.8782043457031 104.14763641357422 319.63299560546875 107.15612030029297 316.05755615234375 C 108.9463882446289 316.45599365234375 109.6160888671875 315.0824279785156 111.27667236328125 315.6083984375 C 113.29155731201172 316.282958984375 116.2413330078125 315.9953918457031 118.75511169433594 316.03173828125 C 118.89127349853516 317.77783203125 118.90455627441406 320.12677001953125 119.0126953125 323.3955078125 C 118.76384735107422 325.68243408203125 118.96817779541016 327.31658935546875 119.4733657836914 330.3036193847656 C 119.71076965332031 332.1946716308594 120.05364227294922 334.8514404296875 120.15713500976562 337.8846740722656 C 120.20535278320312 342.32696533203125 120.33338165283203 345.4380187988281 120.40850067138672 347.751220703125 C 120.59886169433594 349.27996826171875 121.33453369140625 351.6844787597656 122.43506622314453 354.91015625 C 122.67362976074219 358.3070068359375 122.74591064453125 362.45361328125 122.62570190429688 366.2599792480469 C 122.49427795410156 368.7501525878906 122.73082733154297 371.77337646484375 123.31146240234375 375.4490966796875 C 122.26416015625 380.8070068359375 122.48304748535156 383.0789489746094 122.84471893310547 386.9507141113281 C 117.12218475341797 387.71209716796875 113.16740417480469 388.2351379394531 106.85404968261719 386.5361328125 C 108.1279525756836 382.6577453613281 109.9816665649414 378.1351623535156 107.66364288330078 376.7662658691406 C 107.81694030761719 375.09442138671875 107.5697021484375 371.7890625 107.33346557617188 369.0906066894531 C 107.01481628417969 364.9010009765625 106.72107696533203 362.6275939941406 106.09039306640625 359.6822509765625 C 105.71587371826172 357.99041748046875 105.1925048828125 355.6678466796875 104.48888397216797 352.431884765625 C 104.16828155517578 350.64044189453125 103.60409545898438 346.9217529296875 104.27806091308594 342.7282409667969 C 105.46312713623047 338.54315185546875 105.55784606933594 337.2610778808594 105.48445129394531 336.49945068359375 C 105.13740539550781 334.1565246582031 105.01632690429688 332.50244140625 104.98804473876953 330.67578125 C 103.78952026367188 330.45391845703125 110.26619720458984 331.7787170410156 114.14559173583984 331.0673522949219 C 112.69015502929688 335.3318786621094 110.85143280029297 340.9252624511719 108.02054595947266 347.0625305175781 C 104.54066467285156 351.87213134765625 101.32886505126953 355.0971984863281 98.46824645996094 358.002197265625 C 97.2342529296875 360.4306945800781 95.29312133789062 364.01568603515625 92.9885025024414 368.62353515625 C 91.90764617919922 372.531494140625 90.56531524658203 375.8907165527344 89.8539810180664 378.4064636230469 C 88.70941162109375 378.2789001464844 88.04522705078125 378.44622802734375 86.18990325927734 378.9688415527344 C 85.23738098144531 378.6112060546875 84.28460693359375 378.35516357421875 83.10205078125 378.22967529296875"/>
    <path stroke-width="0" fill="rgb(0, 0, 0)" opacity="1.0" d="M 196.73399353027344 348.74652099609375 C 196.22828674316406 346.6372375488281 196.0792694091797 349.9073486328125 195.53533935546875 352.6092224121094 C 195.0836639404297 355.3908386230469 194.29502868652344 358.3135986328125 193.52450561523438 360.6208190917969 C 193.04197692871094 362.3533935546875 192.16397094726562 364.6182556152344 191.5249786376953 365.876953125 C 190.2030792236328 367.9353942871094 189.22509765625 369.8954772949219 187.846435546875 371.9649658203125 C 186.97596740722656 372.88494873046875 185.47634887695312 373.9969482421875 184.4825897216797 374.5868225097656 C 182.4083251953125 376.1217956542969 181.0206756591797 377.0653991699219 179.689453125 377.8343505859375 C 176.93014526367188 379.0519714355469 174.64759826660156 379.9075012207031 170.56207275390625 380.0194091796875 C 167.6034393310547 380.77630615234375 165.64239501953125 381.2184143066406 163.07220458984375 381.8593444824219 C 160.62646484375 381.5503845214844 158.02285766601562 381.902587890625 153.93646240234375 381.3929748535156 C 149.94149780273438 379.865478515625 148.71255493164062 379.58935546875 147.1905517578125 378.6755676269531 C 145.59129333496094 377.5247802734375 143.2039337158203 376.2591857910156 141.21475219726562 375.4190979003906 C 139.62252807617188 374.43328857421875 138.73043823242188 373.72003173828125 136.93887329101562 371.9619140625 C 135.76296997070312 370.8316650390625 135.0187530517578 369.9851989746094 134.05715942382812 368.2556457519531 C 132.83602905273438 366.0419616699219 132.1622772216797 363.5533752441406 131.81985473632812 361.0137023925781 C 131.13519287109375 358.20550537109375 130.6966094970703 356.28924560546875 130.5838165283203 355.1480712890625 C 131.46780395507812 351.68768310546875 132.3052520751953 349.51031494140625 132.50653076171875 347.9029541015625 C 132.55149841308594 345.69879150390625 132.3312530517578 344.62353515625 132.44757080078125 343.4768981933594 C 133.1331329345703 342.01385498046875 133.7873077392578 340.96075439453125 134.76934814453125 338.5593566894531 C 135.97982788085938 336.1816711425781 137.19546508789062 333.2599792480469 138.99783325195312 330.8982849121094 C 139.7731475830078 329.6756286621094 141.12925720214844 328.2448425292969 143.26889038085938 326.5750732421875 C 144.6435089111328 325.2275695800781 146.0282440185547 324.2074890136719 147.72622680664062 323.4448547363281 C 150.615966796875 321.7127990722656 151.44680786132812 321.3373718261719 153.58926391601562 319.7415771484375 C 156.0017852783203 318.3746337890625 158.05833435058594 317.55291748046875 161.33055114746094 316.8392333984375 C 163.98580932617188 316.5775146484375 157.88670349121094 316.3902587890625 162.03610229492188 314.87371826171875 C 164.40260314941406 314.5660095214844 167.35171508789062 314.4093933105469 170.66896057128906 315.06903076171875 C 173.15975952148438 315.3753662109375 175.2458038330078 316.19708251953125 176.4398651123047 316.7984924316406 C 179.02719116210938 317.72125244140625 181.64036560058594 318.9275817871094 183.5763702392578 320.1723937988281 C 184.9801025390625 320.8971862792969 185.98753356933594 321.827392578125 188.52639770507812 323.7037353515625 C 190.21131896972656 325.3309631347656 191.302978515625 326.7456359863281 192.32943725585938 329.19696044921875 C 193.62448120117188 331.526123046875 194.32508850097656 334.32928466796875 195.67733764648438 336.6086120605469 C 196.69009399414062 338.6267395019531 197.9700164794922 343.23675537109375 198.03594970703125 345.9407958984375 C 198.01358032226562 348.05877685546875 196.16433715820312 344.26300048828125 196.73399353027344 348.74652099609375M 147.97821044921875 348.7040710449219 C 147.1399688720703 351.03582763671875 146.9952850341797 355.66888427734375 147.1558074951172 353.10589599609375 C 147.51092529296875 354.7438049316406 147.85519409179688 357.53558349609375 148.290771484375 359.1491394042969 C 148.84750366210938 361.59442138671875 149.8521728515625 362.9403991699219 152.24012756347656 364.45501708984375 C 153.13299560546875 364.9983825683594 155.53573608398438 366.0603332519531 156.649169921875 366.3746643066406 C 157.66673278808594 366.5665283203125 159.85232543945312 366.677734375 162.4193572998047 366.91119384765625 C 164.55300903320312 366.8697204589844 166.98910522460938 366.6715393066406 168.7880096435547 366.2922668457031 C 170.7099609375 365.6473388671875 171.9564208984375 365.250732421875 173.5203857421875 364.00946044921875 C 175.92916870117188 362.2190856933594 177.32485961914062 360.3193359375 178.33456420898438 357.0776062011719 C 179.0409698486328 355.30029296875 180.12921142578125 353.0863342285156 180.3416748046875 351.63873291015625 C 180.6894989013672 348.51324462890625 181.35494995117188 352.1091613769531 180.940673828125 349.72833251953125 C 181.13084411621094 346.5028991699219 181.01568603515625 344.0978698730469 179.12574768066406 338.9724426269531 C 178.4925994873047 337.3308410644531 177.61376953125 335.7230224609375 176.1051788330078 334.0704345703125 C 174.99703979492188 333.01953125 173.3646240234375 331.25799560546875 172.18118286132812 330.7099304199219 C 169.647705078125 329.7095947265625 167.02053833007812 329.2273254394531 165.02825927734375 329.2956848144531 C 163.39466857910156 330.011962890625 162.37351989746094 329.91180419921875 160.29502868652344 330.5198669433594 C 158.8625946044922 330.94232177734375 158.21470642089844 331.43084716796875 156.67820739746094 332.30218505859375 C 153.60015869140625 335.4053649902344 152.55767822265625 336.5242614746094 150.94631958007812 339.025634765625 C 150.2493896484375 340.51239013671875 149.7198028564453 341.55340576171875 149.10888671875 344.1832275390625 C 148.48208618164062 347.57623291015625 148.514892578125 345.11474609375 147.97821044921875 348.7040710449219"/>
    <path stroke-width="0" fill="rgb(0, 0, 0)" opacity="1.0" d="M 262.3678283691406 353.2874755859375 C 261.36737060546875 357.2755432128906 261.1419982910156 358.98016357421875 260.30615234375 362.8401794433594 C 259.8966369628906 364.15704345703125 259.2995300292969 365.1918029785156 257.16571044921875 368.9557800292969 C 256.5447692871094 370.3211364746094 256.2194519042969 371.0330505371094 254.9710693359375 372.1773681640625 C 253.5487518310547 373.97796630859375 251.1587677001953 376.2385559082031 250.05120849609375 377.1827392578125 C 248.68624877929688 378.811279296875 247.28260803222656 379.9958801269531 245.222412109375 381.5578308105469 C 241.66632080078125 383.11468505859375 238.41061401367188 384.46978759765625 234.72193908691406 385.0674743652344 C 230.92404174804688 384.6351013183594 228.588623046875 384.0245361328125 225.3061981201172 382.5715026855469 C 221.82481384277344 380.3773193359375 221.05816650390625 379.84478759765625 218.9182586669922 378.00482177734375 C 216.87118530273438 376.68414306640625 214.9132843017578 375.13299560546875 213.39231872558594 371.9004821777344 C 212.54257202148438 371.17010498046875 211.1914825439453 368.896484375 209.55674743652344 365.8056640625 C 209.07989501953125 364.8931579589844 208.79718017578125 363.9040222167969 208.34425354003906 363.3398742675781 C 206.95152282714844 359.9796447753906 207.08116149902344 358.915283203125 206.79653930664062 358.0895080566406 C 206.3739471435547 355.57586669921875 206.1182403564453 353.88507080078125 205.67518615722656 351.9871826171875 C 204.73216247558594 349.69427490234375 206.93145751953125 346.36248779296875 208.0716552734375 343.37701416015625 C 209.13192749023438 341.82696533203125 206.07318115234375 347.0592041015625 205.84719848632812 343.48828125 C 206.00819396972656 339.7210388183594 206.1722412109375 337.40869140625 206.71836853027344 334.6643981933594 C 206.8214569091797 334.11798095703125 206.9341278076172 332.3109436035156 206.92227172851562 331.45404052734375 C 206.5912628173828 329.532958984375 206.2122802734375 327.88677978515625 205.739013671875 322.70953369140625 C 205.6250762939453 322.16717529296875 206.74148559570312 319.74749755859375 207.79515075683594 317.40374755859375 C 208.58106994628906 317.7291564941406 208.41989135742188 316.60711669921875 208.4214630126953 315.20672607421875 C 210.5968780517578 315.30975341796875 213.07427978515625 315.5002746582031 216.44996643066406 315.7514953613281 C 218.14073181152344 316.32806396484375 220.0849151611328 317.32086181640625 221.6381378173828 318.5509338378906 C 219.8696746826172 321.4053955078125 218.9588623046875 323.57159423828125 222.18023681640625 323.9480895996094 C 222.80633544921875 327.08782958984375 222.0859375 331.7629089355469 222.29966735839844 335.92340087890625 C 223.2731475830078 339.3253479003906 223.36309814453125 343.193603515625 223.26258850097656 349.5883483886719 C 221.0557098388672 354.05621337890625 220.84425354003906 346.6673278808594 223.12283325195312 351.5035400390625 C 223.7171630859375 354.3343200683594 223.74913024902344 357.15838623046875 224.45950317382812 358.42974853515625 C 225.27896118164062 360.4983215332031 225.81944274902344 361.3075256347656 227.72958374023438 363.46728515625 C 229.5901336669922 365.96990966796875 232.47171020507812 368.74945068359375 234.2989959716797 368.8562316894531 C 235.89608764648438 368.61968994140625 236.94424438476562 368.26226806640625 238.1006317138672 366.93182373046875 C 239.3603973388672 365.915283203125 241.07875061035156 362.7743225097656 242.2996368408203 359.769287109375 C 242.98672485351562 358.2893981933594 243.41761779785156 355.3299255371094 243.70053100585938 349.78302001953125 C 243.9675750732422 346.6098937988281 245.6404266357422 342.356201171875 246.678466796875 348.5849914550781 C 244.81585693359375 344.3443908691406 244.2130889892578 339.4864196777344 245.24240112304688 334.0352478027344 C 245.5577392578125 329.5216979980469 245.7334442138672 326.2884826660156 245.9931640625 323.4741516113281 C 246.16798400878906 321.4154357910156 246.06396484375 318.4974670410156 245.29278564453125 315.53289794921875 C 248.21865844726562 314.54534912109375 251.26808166503906 314.04302978515625 255.33795166015625 313.93902587890625 C 254.607177734375 316.4114990234375 257.3624572753906 316.79638671875 260.2421569824219 317.20623779296875 C 260.131103515625 318.7505798339844 260.0802001953125 320.6420593261719 260.1966552734375 322.40570068359375 C 260.19207763671875 323.39459228515625 263.1385192871094 323.4333190917969 262.8828125 326.87518310546875 C 262.4227600097656 329.47479248046875 262.1671447753906 332.1831359863281 261.4947814941406 335.7527770996094 C 261.69952392578125 338.509765625 261.6786193847656 340.69549560546875 260.0744934082031 337.1249694824219 C 261.1997985839844 340.0390930175781 262.01702880859375 342.72625732421875 263.4972229003906 347.2257080078125 C 262.8820495605469 349.62017822265625 262.3047180175781 351.7276916503906 262.3678283691406 353.2874755859375"/>
    <path stroke-width="0" fill="rgb(0, 0, 0)" opacity="1.0" d="M 333.6076965332031 381.64666748046875 C 329.7794189453125 381.21942138671875 326.5235900878906 380.47186279296875 323.8852844238281 379.8924560546875 C 323.0523986816406 379.9692077636719 318.37481689453125 379.33892822265625 316.08837890625 378.87933349609375 C 314.6289367675781 375.5293273925781 311.9578552246094 371.1813659667969 309.67144775390625 367.8291931152344 C 307.33251953125 364.6475524902344 304.8266906738281 361.7711181640625 301.88775634765625 359.5716552734375 C 298.0017395019531 356.7401428222656 293.9316101074219 353.890380859375 289.9596252441406 350.2325439453125 C 287.7982177734375 346.4128723144531 285.9689636230469 342.3572692871094 274.82757568359375 354.3998107910156 C 283.09039306640625 332.9599304199219 284.49627685546875 338.02178955078125 282.2581787109375 335.41302490234375 C 284.5397033691406 333.2000732421875 285.53997802734375 335.9346008300781 285.20184326171875 334.6988220214844 C 286.5743103027344 337.81329345703125 287.6832275390625 340.8811340332031 288.3805847167969 343.4316101074219 C 288.76007080078125 346.1188049316406 289.0699157714844 349.5931396484375 288.8541564941406 352.2111511230469 C 288.7149963378906 357.42962646484375 288.1554870605469 362.8121643066406 288.61724853515625 368.5596008300781 C 287.7547302246094 374.49951171875 287.52935791015625 379.8641052246094 287.4199523925781 385.64801025390625 C 282.4659729003906 385.2471008300781 277.9997863769531 385.5409851074219 272.21417236328125 384.9083251953125 C 272.15679931640625 382.38360595703125 272.7525329589844 379.2978515625 271.9619445800781 375.3079833984375 C 272.04345703125 372.0809020996094 272.68023681640625 368.5212097167969 273.50970458984375 366.9879150390625 C 273.1451416015625 363.7756042480469 272.74951171875 360.627197265625 273.0663757324219 356.6801452636719 C 273.8078308105469 354.37200927734375 273.82354736328125 351.3613586425781 273.7779235839844 349.783935546875 C 273.3771057128906 346.8697814941406 273.021484375 345.15655517578125 272.25958251953125 343.4687194824219 C 271.440673828125 341.5528869628906 270.74896240234375 337.4972839355469 271.0442810058594 335.0919189453125 C 271.2276611328125 331.85479736328125 271.41094970703125 329.3908996582031 273.0160217285156 325.34368896484375 C 274.0477600097656 321.59503173828125 274.99078369140625 319.5962829589844 275.8211364746094 317.4460144042969 C 278.49566650390625 318.38128662109375 280.66748046875 319.1497802734375 283.0511169433594 319.4744567871094 C 287.5413818359375 321.00762939453125 289.407470703125 321.54736328125 292.62353515625 322.05718994140625 C 293.9271545410156 326.212158203125 295.3493347167969 330.268798828125 297.46160888671875 334.75140380859375 C 298.6888427734375 337.62030029296875 299.9845275878906 340.08538818359375 301.4299011230469 342.2524719238281 C 303.0899353027344 343.8855285644531 306.478759765625 346.4114685058594 310.9159240722656 349.826171875 C 314.8350830078125 354.0444030761719 317.99981689453125 357.8094787597656 331.59197998046875 352.8550720214844 C 320.83929443359375 362.7052307128906 321.0260314941406 362.16998291015625 312.5436706542969 359.052490234375 C 320.6280822753906 360.2388610839844 320.30181884765625 358.46514892578125 320.278076171875 356.21087646484375 C 320.14105224609375 354.4586486816406 319.9305114746094 352.962158203125 319.5183410644531 350.0512390136719 C 319.35223388671875 348.598388671875 319.0313415527344 346.7373352050781 319.2360534667969 343.9839782714844 C 319.5895690917969 341.6846618652344 319.91558837890625 339.3663635253906 319.88330078125 337.75714111328125 C 320.0590515136719 334.6267395019531 320.03179931640625 332.572021484375 319.75286865234375 330.9984130859375 C 319.59503173828125 328.20135498046875 319.1097717285156 325.93218994140625 318.25341796875 322.36688232421875 C 318.0843200683594 320.1787414550781 317.7554016113281 316.9176025390625 317.1727600097656 313.7917175292969 C 322.8312683105469 312.99658203125 328.2261657714844 313.2890930175781 332.9169616699219 313.73236083984375 C 332.8601989746094 316.2682800292969 332.82769775390625 318.9545593261719 332.8719787597656 321.3109436035156 C 333.49603271484375 324.3955078125 333.93292236328125 327.0101318359375 334.312255859375 330.652099609375 C 334.2110595703125 333.9236755371094 334.2175598144531 337.1572570800781 333.9989929199219 340.30169677734375 C 333.5831604003906 342.95458984375 333.35009765625 344.804931640625 333.55621337890625 346.9441223144531 C 333.7510681152344 349.1023254394531 333.7924499511719 350.7234802246094 334.37164306640625 354.2928771972656 C 334.5207214355469 356.1227722167969 334.7834167480469 359.16326904296875 335.2586364746094 362.3555603027344 C 335.2278137207031 365.1602783203125 334.9412536621094 368.9348449707031 335.16778564453125 372.5700988769531 C 334.6346130371094 376.27850341796875 333.983154296875 378.9007568359375 333.6076965332031 381.64666748046875"/>
    <path stroke-width="0" fill="rgb(0, 0, 0)" opacity="1.0" d="M 373.3440856933594 379.0078430175781 C 371.32861328125 379.8036804199219 369.08966064453125 380.3646240234375 369.2734375 381.31329345703125 C 369.5254821777344 383.0512390136719 366.60467529296875 383.7130432128906 364.5402526855469 383.6729431152344 C 361.49285888671875 383.4089050292969 360.2725830078125 382.4566345214844 360.7508544921875 381.55908203125 C 359.2459716796875 380.25750732421875 359.9566955566406 379.114990234375 358.9071044921875 378.3568420410156 C 359.46966552734375 377.3099670410156 358.6390686035156 376.82867431640625 359.5791320800781 375.71087646484375 C 358.8152770996094 375.30487060546875 359.5613708496094 374.45684814453125 355.73443603515625 373.3925476074219 C 355.2345886230469 373.10638427734375 355.9490051269531 369.6601867675781 355.932861328125 368.4172668457031 C 355.9462585449219 364.9207458496094 355.7604064941406 369.807373046875 356.06500244140625 368.6025390625 C 355.5588073730469 366.71746826171875 356.86077880859375 360.91033935546875 357.1202697753906 358.8908386230469 C 354.96478271484375 362.8518981933594 354.8920593261719 361.5444030761719 355.297119140625 356.76513671875 C 357.4888000488281 353.2542724609375 359.4119567871094 350.9509582519531 357.3382873535156 353.89373779296875 C 358.1861267089844 357.6728820800781 357.92767333984375 355.6734924316406 357.6790466308594 354.3084716796875 C 356.7626037597656 351.9443664550781 357.00164794921875 350.8956604003906 356.903076171875 350.11810302734375 C 356.9643249511719 346.88641357421875 356.6001281738281 345.55963134765625 358.4051208496094 352.2224426269531 C 356.4905090332031 348.03692626953125 356.1435546875 346.5064392089844 355.9203796386719 344.8818359375 C 356.12054443359375 342.65728759765625 356.0583190917969 340.455322265625 355.8857421875 337.8077087402344 C 356.8374328613281 335.3795166015625 357.12908935546875 334.439453125 356.1879577636719 338.3465270996094 C 356.1593322753906 335.8536376953125 356.29669189453125 334.6682434082031 356.58892822265625 337.4410400390625 C 356.1199951171875 335.2698059082031 356.18560791015625 334.11920166015625 356.5478515625 330.8100280761719 C 356.81005859375 330.1954345703125 356.9364929199219 328.1573181152344 356.5372619628906 331.2044677734375 C 354.7686767578125 330.90069580078125 352.9802551269531 330.81280517578125 350.8653869628906 330.5122985839844 C 355.8418273925781 331.46258544921875 353.9674377441406 332.238525390625 350.2167663574219 331.79736328125 C 345.3411560058594 330.948486328125 352.5820617675781 330.7864074707031 348.1645202636719 331.7725830078125 C 344.72650146484375 331.43487548828125 342.758544921875 330.9794921875 341.0377502441406 330.4335632324219 C 341.568359375 328.1235656738281 341.62725830078125 326.8895568847656 341.2961120605469 326.2609558105469 C 343.4080505371094 323.3399658203125 341.75518798828125 321.0077209472656 340.1807861328125 318.7967224121094 C 342.5355529785156 317.2205810546875 340.164794921875 316.4400939941406 347.8279113769531 313.9101257324219 C 351.9561767578125 315.2627258300781 347.6845703125 316.71282958984375 354.7490234375 312.7570495605469 C 356.91748046875 313.89727783203125 358.9537048339844 314.599609375 360.75225830078125 314.896728515625 C 363.3424987792969 315.79022216796875 362.7396240234375 315.3007507324219 363.1978759765625 315.4196472167969 C 367.32257080078125 312.3894958496094 368.2333068847656 313.53076171875 373.2916564941406 314.13397216796875 C 374.8785095214844 314.2646484375 377.8664245605469 313.7569274902344 378.3077087402344 314.06561279296875 C 381.8695983886719 314.3644714355469 384.1234130859375 314.84912109375 385.72625732421875 315.42047119140625 C 387.3731384277344 315.2619323730469 390.0426940917969 315.0924987792969 392.5307312011719 314.7098388671875 C 393.0945129394531 317.5087890625 393.2649841308594 320.7085266113281 392.98681640625 323.5121154785156 C 392.8815612792969 326.23199462890625 393.3728332519531 328.8840026855469 393.6841735839844 331.61370849609375 C 391.5409851074219 331.7876892089844 388.72210693359375 331.85369873046875 386.367431640625 331.49761962890625 C 384.4219665527344 331.5084228515625 379.6524658203125 331.0479736328125 381.52337646484375 331.57061767578125 C 377.35931396484375 330.78924560546875 376.289306640625 330.7513732910156 374.2279052734375 330.194091796875 C 371.5879211425781 329.1644592285156 376.7402038574219 329.8179016113281 374.3065185546875 329.768310546875 C 374.1642761230469 330.82794189453125 373.9559326171875 331.8881530761719 373.7780456542969 333.2989196777344 C 373.6585998535156 335.7944030761719 373.5105285644531 337.0503845214844 373.94189453125 334.5020446777344 C 373.70001220703125 337.0556335449219 373.3521423339844 339.9216613769531 372.1358337402344 342.6401672363281 C 373.0025939941406 338.78594970703125 372.8863220214844 341.44012451171875 373.10333251953125 342.72265625 C 373.7149963378906 345.8308410644531 373.0847473144531 342.4617919921875 373.7945556640625 343.58447265625 C 374.1728515625 346.6092529296875 374.0143737792969 347.7815246582031 374.1316833496094 349.40374755859375 C 374.8357849121094 352.9785461425781 375.09332275390625 354.3348083496094 374.2575378417969 358.7534484863281 C 372.99688720703125 363.1633605957031 371.0711975097656 365.60479736328125 374.67926025390625 361.58612060546875 C 374.5032043457031 364.8666687011719 373.7507019042969 368.7066345214844 375.7505187988281 364.5945129394531 C 375.00909423828125 366.4678955078125 374.7930908203125 369.0887756347656 375.1627197265625 364.41943359375 C 375.8835754394531 367.5345764160156 375.3780822753906 369.6963806152344 375.7988586425781 367.68988037109375 C 375.5704040527344 370.78338623046875 375.07598876953125 374.0058288574219 373.9256286621094 374.0746154785156 C 373.2958679199219 374.406982421875 374.2419738769531 376.0375061035156 373.0694580078125 376.05401611328125 C 371.9345397949219 376.11236572265625 372.5524597167969 377.3848876953125 373.3440856933594 379.0078430175781"/>
    <path stroke-width="0" fill="rgb(0, 0, 0)" opacity="1.0" d="M 436.8687438964844 381.9870910644531 C 436.7713623046875 379.4932556152344 436.8616638183594 377.3311462402344 436.64312744140625 375.8741760253906 C 435.2279052734375 371.4288024902344 435.0882568359375 370.3880920410156 434.4179992675781 368.5430603027344 C 432.1652526855469 368.87689208984375 429.9478759765625 369.1663513183594 426.6160888671875 369.0748291015625 C 423.0068664550781 368.81964111328125 421.3951721191406 368.5863342285156 417.9019775390625 367.9489440917969 C 420.20953369140625 368.7725830078125 418.81317138671875 368.7683410644531 415.205810546875 367.98876953125 C 412.55645751953125 367.4894714355469 411.1861267089844 367.02374267578125 410.0200500488281 366.9483947753906 C 409.3227233886719 368.38397216796875 409.1262512207031 369.5989074707031 408.99102783203125 370.258056640625 C 409.29339599609375 373.48809814453125 407.83526611328125 376.66998291015625 406.5059814453125 379.02764892578125 C 403.85888671875 378.7144775390625 403.9373779296875 379.6858215332031 401.1392517089844 381.0131530761719 C 398.0962219238281 382.30474853515625 395.16900634765625 383.0519714355469 392.4066467285156 383.91314697265625 C 392.3556823730469 380.69964599609375 392.2523193359375 378.6783752441406 392.29376220703125 375.3052062988281 C 391.8346252441406 371.42388916015625 391.4057312011719 367.8769226074219 392.4238586425781 364.5284118652344 C 392.71319580078125 359.3621826171875 394.95477294921875 356.2791748046875 396.097900390625 353.5636901855469 C 397.1463317871094 349.5947265625 398.8175354003906 346.4310302734375 399.8739929199219 344.55712890625 C 401.0773620605469 342.50616455078125 401.6200866699219 341.42730712890625 402.612060546875 339.1258239746094 C 403.26544189453125 337.21429443359375 403.8599548339844 335.31201171875 404.7158203125 332.4483947753906 C 405.3623352050781 330.6116027832031 406.33526611328125 327.6231994628906 407.36114501953125 324.93377685546875 C 408.1803283691406 322.62255859375 411.8250427246094 321.76153564453125 411.14471435546875 318.7996520996094 C 413.15966796875 317.6505126953125 414.6468811035156 316.6626281738281 417.20428466796875 316.6118469238281 C 418.9202575683594 316.9981384277344 421.4596252441406 317.6506042480469 419.4149475097656 318.035888671875 C 420.623046875 317.8206787109375 423.3646545410156 317.37115478515625 424.5706481933594 317.17047119140625 C 425.5522766113281 318.92889404296875 426.3999328613281 319.0009460449219 427.29486083984375 319.6056213378906 C 427.3650817871094 320.7100830078125 429.154052734375 321.30712890625 431.2356872558594 321.0333557128906 C 431.8869323730469 322.7576599121094 432.55474853515625 324.0596618652344 433.26068115234375 326.235595703125 C 433.84539794921875 327.830810546875 434.2964172363281 329.4829406738281 434.5902099609375 330.5263977050781 C 434.95587158203125 331.6142578125 435.5606384277344 333.5317687988281 434.9220275878906 331.60247802734375 C 435.80047607421875 333.0849304199219 436.8585205078125 335.4676208496094 437.2000427246094 336.4690856933594 C 437.9196472167969 338.70989990234375 438.3152770996094 339.6293640136719 438.7602844238281 340.941162109375 C 439.4325256347656 342.7139892578125 440.4374694824219 345.5417175292969 440.927001953125 346.45513916015625 C 442.1878967285156 348.8267517089844 442.49542236328125 349.5451965332031 442.9590759277344 350.5054931640625 C 443.7087707519531 351.7449951171875 444.25506591796875 353.5765075683594 445.6446533203125 355.55438232421875 C 446.7103271484375 357.48333740234375 447.60455322265625 358.8125915527344 448.8894348144531 360.56787109375 C 449.57086181640625 361.9106140136719 450.30194091796875 363.4927062988281 451.2842712402344 365.59161376953125 C 451.9062194824219 368.43341064453125 453.08380126953125 373.3829650878906 453.3822021484375 373.66546630859375 C 454.05926513671875 375.7757568359375 455.9148254394531 379.1156005859375 457.40057373046875 382.1032409667969 C 453.947021484375 382.68597412109375 450.686279296875 383.019775390625 446.9224548339844 383.6327819824219 C 442.9004821777344 383.57781982421875 439.6685485839844 382.8841857910156 436.8687438964844 381.9870910644531M 425.70965576171875 341.36016845703125 C 425.3440856933594 340.09912109375 424.8575744628906 338.9083251953125 424.2648620605469 337.3334655761719 C 423.6961364746094 335.9112243652344 423.2085266113281 334.4776611328125 422.787841796875 332.7079772949219 C 422.383544921875 330.94366455078125 422.04351806640625 329.419921875 421.6790466308594 327.7112731933594 C 421.4082946777344 329.537353515625 421.1082458496094 330.9344787597656 420.700439453125 332.74664306640625 C 420.2092590332031 334.5598449707031 419.8086242675781 336.40625 419.5864562988281 337.7218017578125 C 419.2427673339844 339.36480712890625 418.9632568359375 340.3894348144531 418.5733947753906 341.6083068847656 C 418.20904541015625 343.5458068847656 417.6750183105469 344.9917297363281 417.1279602050781 346.6518859863281 C 416.5639953613281 348.6669616699219 415.95782470703125 350.5740661621094 415.17694091796875 352.43267822265625 C 417.9696960449219 352.8775634765625 420.31536865234375 352.9797058105469 421.8725280761719 352.9869079589844 C 423.416259765625 353.21368408203125 426.2103271484375 353.54510498046875 429.2019348144531 353.4983825683594 C 428.4400939941406 351.3234558105469 427.8162841796875 349.2642517089844 427.3315124511719 347.2600402832031 C 426.8390197753906 345.4707336425781 426.3523254394531 343.39068603515625 425.70965576171875 341.36016845703125"/>
    <path stroke-width="0" fill="rgb(0, 0, 0)" opacity="1.0" d="M 487.51239013671875 384.2969665527344 C 477.3695373535156 381.9729919433594 468.3831787109375 381.2112121582031 459.32763671875 378.3995361328125 C 459.7220764160156 376.5458068847656 459.89697265625 375.1310119628906 460.1880798339844 372.71173095703125 C 462.34136962890625 372.04058837890625 464.4076843261719 371.137939453125 465.8097839355469 370.6492614746094 C 464.02685546875 354.9382629394531 464.72064208984375 339.7391357421875 465.56097412109375 325.7244873046875 C 464.0736083984375 325.1427307128906 462.254150390625 324.24200439453125 459.6552734375 323.2623291015625 C 459.6442565917969 320.30133056640625 459.7472839355469 317.69964599609375 459.66522216796875 315.3103332519531 C 469.4321594238281 315.3084411621094 478.6639709472656 315.95904541015625 487.6614074707031 316.5686340332031 C 487.500244140625 319.131591796875 487.34429931640625 320.71185302734375 487.5950012207031 323.5274963378906 C 484.729736328125 324.7598876953125 482.32080078125 325.5118408203125 479.6661682128906 326.3273620605469 C 479.6497497558594 339.811279296875 479.8976135253906 355.0533752441406 480.26556396484375 370.0928039550781 C 483.3360290527344 371.6145324707031 486.72344970703125 373.5485534667969 489.6764831542969 375.22216796875 C 489.0251159667969 378.1721496582031 488.2884216308594 381.079833984375 487.51239013671875 384.2969665527344"/>
    <path stroke-width="0" fill="rgb(0, 0, 0)" opacity="1.0" d="M 557.5681762695312 386.70550537109375 C 555.2088623046875 380.4703063964844 558.3192749023438 384.25592041015625 559.4252319335938 388.9486389160156 C 547.2860107421875 380.9190673828125 545.4404907226562 378.0362548828125 548.198974609375 373.19256591796875 C 538.7831420898438 374.79693603515625 537.6392211914062 368.3519592285156 528.3305053710938 366.6448059082031 C 529.62109375 355.86749267578125 519.7628784179688 356.7157897949219 520.8939819335938 358.8135986328125 C 522.0225830078125 355.1153259277344 518.7468872070312 348.6664123535156 508.3264465332031 348.35760498046875 C 506.34588623046875 346.81268310546875 502.0683898925781 344.49188232421875 504.6831970214844 342.15997314453125 C 512.6837158203125 333.3282165527344 512.650146484375 333.30804443359375 516.31201171875 335.98394775390625 C 517.0802612304688 339.6863098144531 517.3821411132812 341.5568542480469 514.9378051757812 339.09771728515625 C 516.0947265625 336.3183288574219 513.0175170898438 342.029296875 515.6337890625 338.21539306640625 C 525.64306640625 341.59991455078125 521.2623901367188 346.4455261230469 511.6241760253906 341.5660705566406 C 513.9486083984375 348.523681640625 512.4829711914062 363.72332763671875 517.3908081054688 361.2474670410156 C 508.4579162597656 361.918701171875 509.14324951171875 359.3224182128906 514.1568603515625 380.6046142578125 C 500.6489562988281 387.766845703125 494.6461181640625 388.09637451171875 495.93206787109375 381.5702819824219 C 495.52838134765625 382.7064208984375 493.3072814941406 376.0196838378906 502.19757080078125 366.2091979980469 C 499.653076171875 370.77716064453125 501.1434020996094 372.66162109375 494.43243408203125 373.0972595214844 C 490.9320983886719 354.1292724609375 495.538330078125 343.3707275390625 503.40325927734375 347.4776306152344 C 496.2740783691406 363.3683166503906 490.1212158203125 353.2175598144531 491.831787109375 338.2203674316406 C 499.16900634765625 349.2220458984375 496.8901062011719 345.0462646484375 495.775146484375 341.450927734375 C 492.5559997558594 322.95587158203125 492.3821105957031 318.965576171875 496.06787109375 311.9682922363281 C 506.82470703125 324.7720031738281 504.2459716796875 320.8827209472656 500.7550354003906 327.8648376464844 C 498.2083435058594 329.14776611328125 489.1551208496094 315.06103515625 500.8656921386719 308.61346435546875 C 502.9161071777344 316.97259521484375 497.5535583496094 310.37896728515625 502.7011413574219 306.5201110839844 C 507.1893615722656 310.6894836425781 505.89105224609375 313.4378662109375 508.9876403808594 322.4335021972656 C 515.013916015625 326.6066589355469 522.406982421875 326.80377197265625 521.7164306640625 328.6335754394531 C 524.560302734375 330.9617004394531 528.7625732421875 338.07684326171875 538.2490234375 338.94305419921875 C 536.4513549804688 342.8414001464844 541.8652954101562 346.3494873046875 545.6520385742188 343.0260314941406 C 547.01953125 347.3405456542969 550.7022705078125 349.8390808105469 554.3246459960938 351.57574462890625 C 542.7970581054688 360.1793212890625 542.4951782226562 360.8879699707031 538.6380004882812 367.0931396484375 C 535.5003662109375 366.56494140625 532.5960083007812 363.5624084472656 528.3569946289062 348.7774658203125 C 534.0678100585938 349.2215270996094 535.7685546875 363.119140625 541.5463256835938 357.1155090332031 C 542.4150390625 355.7119445800781 538.4036254882812 355.7210388183594 544.6757202148438 356.0654296875 C 544.1008911132812 344.2445068359375 547.4903564453125 335.5987243652344 546.367431640625 327.9861145019531 C 544.8528442382812 332.386962890625 543.794921875 319.5085144042969 543.5968627929688 332.4853515625 C 543.9852294921875 329.3349914550781 545.6535034179688 329.4840087890625 540.0358276367188 333.06787109375 C 543.074462890625 326.5202941894531 547.9983520507812 319.25689697265625 547.4574584960938 310.46160888671875 C 545.4051513671875 311.1224060058594 557.1828002929688 308.6842346191406 556.3651123046875 312.08935546875 C 550.2861938476562 320.58258056640625 542.26025390625 313.70611572265625 555.5641479492188 311.8269348144531 C 565.6023559570312 307.20452880859375 561.2425537109375 329.6147766113281 564.1758422851562 333.8703918457031 C 567.3983764648438 319.513671875 560.6055297851562 329.8792724609375 565.44091796875 341.3801574707031 C 560.1682739257812 354.6231994628906 559.9786376953125 356.0067138671875 555.6771240234375 347.7623596191406 C 569.468505859375 346.8785400390625 569.4735107421875 357.119873046875 563.8425903320312 368.59515380859375 C 552.611328125 364.30743408203125 554.408935546875 360.9286193847656 561.480712890625 364.8439636230469 C 559.02392578125 370.87353515625 562.2568969726562 379.6363830566406 559.7852172851562 373.8555908203125 C 559.0655517578125 384.6184387207031 555.8659057617188 385.5939636230469 557.5681762695312 386.70550537109375"/>
    <path stroke-width="0" fill="rgb(0, 0, 0)" opacity="1.0" d="M 48.3318977355957 285.83197021484375 C 47.881813049316406 283.80377197265625 47.7635498046875 282.6889953613281 47.506507873535156 281.7434997558594 C 47.49958419799805 280.41015625 48.006080627441406 277.1227111816406 48.115230560302734 273.4344482421875 C 46.567840576171875 276.7829895019531 47.02569580078125 274.2810974121094 47.15072250366211 272.63970947265625 C 49.76482009887695 272.6387023925781 51.13520431518555 276.04034423828125 54.14332962036133 275.8319396972656 C 54.3105583190918 277.7627258300781 54.28572463989258 278.9073486328125 57.56224060058594 277.90423583984375 C 57.4987907409668 278.6858825683594 58.90498352050781 276.0200500488281 59.01318359375 276.9033508300781 C 58.794639587402344 278.6640625 59.213741302490234 280.600341796875 59.57032012939453 282.0368347167969 C 59.69976806640625 284.4595642089844 60.12917709350586 285.03369140625 61.11957931518555 285.87847900390625 C 62.92831802368164 287.4005126953125 66.22078704833984 289.5642395019531 70.07884979248047 293.8143615722656 C 73.36022186279297 297.98095703125 75.22432708740234 301.1514892578125 75.81842803955078 301.416015625 C 76.8644790649414 301.2129821777344 77.10204315185547 301.4936218261719 75.5586166381836 294.8154602050781 C 78.2547836303711 289.47247314453125 79.3271713256836 281.26385498046875 80.21243286132812 275.8370361328125 C 85.68790435791016 272.2461242675781 89.0948257446289 269.2251281738281 91.67574310302734 265.2190856933594 C 97.62051391601562 250.35255432128906 96.79351806640625 244.34423828125 94.79278564453125 225.39605712890625 C 101.02297973632812 225.34048461914062 96.50582122802734 229.4647216796875 93.11805725097656 232.04466247558594 C 101.50470733642578 244.41029357910156 101.55899810791016 248.55613708496094 103.73291778564453 254.61717224121094 C 102.07139587402344 254.1278533935547 107.22769927978516 259.6102294921875 108.69712829589844 262.959716796875 C 109.12655639648438 267.1477966308594 110.03779602050781 270.52984619140625 111.7030029296875 272.4417724609375 C 112.16629028320312 272.9501953125 111.19464111328125 275.1784973144531 111.87975311279297 275.25152587890625 C 116.36135864257812 275.0797119140625 118.13893127441406 275.605224609375 119.50479888916016 276.5326232910156 C 120.6736068725586 277.3515625 121.40206146240234 278.35430908203125 122.06989288330078 281.7536926269531 C 122.42754364013672 283.177001953125 122.43319702148438 285.09625244140625 121.54235076904297 287.0099792480469 C 120.60765838623047 288.9486999511719 118.3526840209961 290.715087890625 113.91790771484375 292.1979064941406 C 110.78339385986328 292.4267272949219 107.39007568359375 292.0943908691406 105.06610870361328 291.2361145019531 C 103.2780990600586 290.12652587890625 103.21282958984375 288.4927978515625 100.99755859375 286.60760498046875 C 98.9621353149414 284.86883544921875 98.04436492919922 282.8526916503906 97.75321960449219 280.7135925292969 C 97.09803771972656 278.38531494140625 97.08767700195312 275.53399658203125 97.61644744873047 272.8533630371094 C 99.52523040771484 273.6417236328125 101.6968765258789 274.4935302734375 102.5702133178711 275.0491638183594 C 100.33485412597656 282.6958312988281 96.46112823486328 286.772705078125 91.00911712646484 288.967041015625 C 89.41879272460938 290.44970703125 88.80846405029297 290.7433776855469 87.7390365600586 293.41168212890625 C 86.63204193115234 295.7944641113281 85.98954010009766 298.0184020996094 83.7245101928711 303.03204345703125 C 82.46829223632812 306.68450927734375 77.32048034667969 309.5628662109375 73.62799072265625 309.0029296875 C 69.86962890625 306.791015625 67.3824462890625 303.30328369140625 65.90465545654297 301.7800598144531 C 63.18998718261719 299.8070068359375 60.42146301269531 298.2228698730469 60.006134033203125 298.2326965332031 C 55.5697135925293 298.11468505859375 53.32821273803711 297.4856262207031 50.71398162841797 295.5975341796875 C 48.84855270385742 292.62823486328125 48.298583984375 290.3018493652344 48.3318977355957 285.83197021484375"/>
    <path stroke-width="0" fill="rgb(0, 0, 0)" opacity="1.0" d="M 116.2908935546875 291.13165283203125 C 114.92901611328125 285.7410888671875 114.58386993408203 280.4504699707031 115.29325103759766 275.2444763183594 C 116.42341613769531 275.4576110839844 117.98631286621094 274.630126953125 119.41154479980469 273.3697204589844 C 120.55669403076172 272.8642883300781 121.6610107421875 271.7394714355469 122.98765563964844 270.150390625 C 123.9065933227539 268.4842224121094 125.04322052001953 265.9544677734375 126.12364959716797 262.488525390625 C 126.7996597290039 261.1435852050781 129.57456970214844 256.76300048828125 132.50315856933594 252.9015350341797 C 135.37599182128906 256.22412109375 136.1421661376953 254.09487915039062 138.15187072753906 260.993896484375 C 137.52786254882812 261.1073913574219 136.7828826904297 261.3486022949219 138.63938903808594 262.0016174316406 C 140.83303833007812 262.051513671875 140.7774658203125 264.1862487792969 142.8609619140625 265.2283020019531 C 141.70074462890625 268.4831237792969 140.98019409179688 270.6970520019531 142.27330017089844 265.2575988769531 C 142.27386474609375 266.626953125 142.89035034179688 269.4575500488281 143.47384643554688 271.01202392578125 C 142.87730407714844 269.2503356933594 144.34030151367188 270.38043212890625 146.2952117919922 272.24822998046875 C 149.8491668701172 274.1806640625 150.1062469482422 276.4128723144531 151.2616729736328 276.4837951660156 C 152.82545471191406 275.96282958984375 154.32162475585938 276.0007629394531 155.84234619140625 277.0335693359375 C 157.06790161132812 277.7802734375 157.98216247558594 279.4039306640625 158.2845916748047 281.351318359375 C 158.63702392578125 283.046142578125 158.36329650878906 284.9056396484375 157.4425048828125 286.55731201171875 C 156.4458770751953 288.4298400878906 153.54949951171875 290.5303955078125 148.53155517578125 289.571533203125 C 144.39707946777344 288.01947021484375 140.670654296875 285.5819396972656 137.86399841308594 283.334228515625 C 135.89064025878906 282.37908935546875 134.5927276611328 281.0460510253906 133.97747802734375 280.0025329589844 C 132.22357177734375 278.02752685546875 131.7952117919922 275.5939636230469 131.33511352539062 272.6971130371094 C 133.0707550048828 272.7434387207031 134.33360290527344 272.7677307128906 135.81103515625 272.9388732910156 C 134.96017456054688 275.4195556640625 133.7565155029297 277.5052795410156 130.7895965576172 279.07733154296875 C 130.18511962890625 281.3380126953125 129.39151000976562 282.4967041015625 127.5327377319336 284.0212707519531 C 126.75908660888672 284.82373046875 125.43022155761719 286.4681091308594 123.91195678710938 287.854248046875 C 121.86592864990234 289.095947265625 119.53853607177734 290.3537292480469 116.2908935546875 291.13165283203125M 120.9811782836914 301.538818359375 C 130.0438995361328 302.49383544921875 122.83887481689453 301.7334289550781 123.35002899169922 306.7713317871094 C 126.07402801513672 310.17913818359375 117.31035614013672 309.0755615234375 113.90947723388672 307.4535217285156 C 117.81065368652344 306.16455078125 122.78520202636719 301.3135681152344 116.41179656982422 307.1069641113281 C 130.146240234375 295.1334533691406 134.04409790039062 286.34637451171875 130.7893524169922 285.4184875488281 C 132.23594665527344 287.41351318359375 135.5433807373047 293.8998718261719 135.90835571289062 295.2109680175781 C 136.5634307861328 295.29669189453125 139.97610473632812 300.2362060546875 139.4904327392578 297.6396484375 C 144.17041015625 302.85308837890625 142.91946411132812 305.32415771484375 132.27867126464844 299.19970703125 C 131.43661499023438 300.5970458984375 126.16445922851562 303.458984375 120.9811782836914 301.538818359375"/>
    <path stroke-width="0" fill="rgb(0, 0, 0)" opacity="1.0" d="M 152.33766174316406 290.5275573730469 C 152.7728271484375 284.8341979980469 152.9046173095703 280.0287170410156 152.10577392578125 276.2123107910156 C 154.65695190429688 275.1643371582031 157.98663330078125 273.583740234375 163.38314819335938 271.0792236328125 C 170.3227996826172 274.2896728515625 173.91041564941406 276.3186950683594 176.27560424804688 277.3345642089844 C 179.04180908203125 277.4945373535156 180.86752319335938 276.9617919921875 182.70314025878906 276.1249084472656 C 184.84767150878906 274.6502685546875 187.0031280517578 272.706787109375 188.7770233154297 270.9148864746094 C 184.47377014160156 270.5096740722656 180.046875 269.18231201171875 176.079833984375 266.5438232421875 C 174.06805419921875 261.81707763671875 172.718017578125 259.7586669921875 171.58673095703125 258.4109802246094 C 170.3668975830078 257.3655700683594 166.96286010742188 255.8916473388672 162.74752807617188 256.3465270996094 C 160.2493896484375 255.88966369628906 170.61553955078125 258.5771179199219 165.2489776611328 261.9615783691406 C 164.6343536376953 262.0938720703125 161.0843963623047 261.9972229003906 161.12939453125 260.8783874511719 C 157.3519287109375 260.7127685546875 153.71206665039062 260.8506164550781 149.99478149414062 261.36383056640625 C 153.0547332763672 251.8961639404297 151.0095977783203 252.16015625 154.0337371826172 245.6007080078125 C 158.06539916992188 247.13327026367188 160.23219299316406 249.2703094482422 160.36949157714844 243.16732788085938 C 162.61468505859375 242.81431579589844 156.36453247070312 243.14512634277344 165.02529907226562 232.76197814941406 C 171.4463653564453 236.60446166992188 176.45462036132812 239.9765625 181.18206787109375 249.4445037841797 C 183.1038360595703 251.639404296875 184.0472869873047 254.16903686523438 184.86239624023438 255.56805419921875 C 185.3511962890625 256.21417236328125 185.87075805664062 256.55120849609375 187.3861541748047 257.1401672363281 C 187.79168701171875 257.2418518066406 189.75131225585938 256.9485168457031 192.95433044433594 256.8044738769531 C 195.88514709472656 256.1600036621094 198.76527404785156 256.48468017578125 200.4848175048828 260.8930969238281 C 201.92369079589844 260.08966064453125 203.2064971923828 259.3259582519531 205.4626007080078 258.0922546386719 C 209.28009033203125 263.0802001953125 209.5404815673828 266.57012939453125 211.2567901611328 274.67962646484375 C 204.908935546875 273.2565002441406 201.32102966308594 272.8334045410156 198.94674682617188 273.1914367675781 C 196.48077392578125 275.05267333984375 194.23806762695312 276.25048828125 191.91883850097656 276.853759765625 C 189.62066650390625 277.606689453125 188.46971130371094 278.22802734375 187.08201599121094 278.9354248046875 C 184.53294372558594 281.6513977050781 181.9932861328125 283.089111328125 178.87396240234375 284.2304382324219 C 173.60263061523438 285.3789978027344 169.4468231201172 284.8085632324219 165.8770294189453 284.4450378417969 C 163.58670043945312 285.5674133300781 160.3648681640625 287.7442626953125 152.33766174316406 290.5275573730469M 172.4651336669922 298.1062927246094 C 166.139892578125 312.4054870605469 165.4230499267578 314.05133056640625 167.23477172851562 307.8927001953125 C 161.3393096923828 321.95953369140625 152.2198944091797 311.29150390625 168.56607055664062 306.5971374511719 C 177.41629028320312 302.1412658691406 186.085693359375 297.3348693847656 174.3026885986328 295.5993347167969 C 169.991455078125 288.5607604980469 162.92457580566406 284.3121337890625 172.57992553710938 283.50531005859375 C 182.99998474121094 289.23291015625 178.91696166992188 295.3751525878906 173.4733123779297 301.1366271972656 C 179.87789916992188 305.751708984375 182.372314453125 305.9638671875 192.40281677246094 307.0529479980469 C 210.48880004882812 312.9352722167969 209.0774688720703 323.3594970703125 192.95419311523438 309.23651123046875 C 188.92196655273438 300.8162841796875 184.17369079589844 292.969482421875 172.4651336669922 298.1062927246094"/>
  </g>
</svg>
