<?xml version="1.0" ?>
<svg xmlns="http://www.w3.org/2000/svg" version="1.1" width="600" height="600">
  <defs/>
  <g>
    <path stroke-width="0" fill="rgb(0, 0, 0)" opacity="1.0" d="M 138.09707641601562 461.7337951660156 C 139.0260772705078 457.81988525390625 134.98678588867188 454.9965515136719 133.71231079101562 449.8255310058594 C 132.68020629882812 446.06011962890625 131.13072204589844 441.8252868652344 129.23941040039062 436.3329162597656 C 125.4238052368164 436.3377685546875 122.06393432617188 436.4365234375 117.53495025634766 436.63671875 C 114.10935974121094 435.8710021972656 109.23554229736328 435.2677917480469 103.6898422241211 435.71905517578125 C 98.89515686035156 434.9785461425781 95.55982971191406 435.0443420410156 90.36198425292969 435.61529541015625 C 85.77337646484375 434.85418701171875 82.42999267578125 434.2583312988281 81.6419448852539 434.2088928222656 C 80.20592498779297 440.09674072265625 79.30994415283203 443.22100830078125 78.72013092041016 446.986083984375 C 78.08427429199219 452.1228942871094 76.15959167480469 456.1970520019531 73.70936584472656 460.84259033203125 C 68.41229248046875 459.4896545410156 68.06697845458984 462.62945556640625 62.68572998046875 463.83892822265625 C 57.05757522583008 464.6469421386719 51.940494537353516 464.727783203125 46.19110870361328 464.72601318359375 C 46.99633026123047 462.090087890625 47.70414733886719 459.5775146484375 48.63041687011719 456.58380126953125 C 49.494529724121094 454.3109130859375 49.98101806640625 452.5549011230469 50.683929443359375 450.18914794921875 C 51.51377868652344 447.4872741699219 52.04575729370117 445.18048095703125 52.55963897705078 441.9709777832031 C 53.1556510925293 438.9681396484375 53.81256103515625 436.0724792480469 54.821876525878906 433.4637756347656 C 55.685462951660156 431.14288330078125 55.86125183105469 430.56048583984375 56.25818634033203 428.1522216796875 C 56.30796432495117 424.62933349609375 57.16093063354492 422.1822509765625 58.776885986328125 418.8276062011719 C 60.06917190551758 414.4649963378906 60.19309997558594 413.6235046386719 60.21793746948242 410.8372497558594 C 60.991783142089844 404.5538024902344 61.606605529785156 402.9632568359375 62.80966567993164 398.8677978515625 C 63.422916412353516 397.0947265625 64.95770263671875 394.18701171875 66.72450256347656 390.6653747558594 C 68.01972961425781 387.5765075683594 66.05796813964844 391.2637939453125 66.38529205322266 388.8816833496094 C 66.57186126708984 387.76666259765625 66.9492416381836 384.82281494140625 66.9408950805664 384.20416259765625 C 67.9208755493164 379.3320007324219 68.7898178100586 376.6241455078125 70.44928741455078 373.0145263671875 C 71.12310028076172 368.0559997558594 72.66057586669922 362.7917175292969 74.82523345947266 358.1223449707031 C 76.31388092041016 353.1299133300781 77.69733428955078 350.28839111328125 79.99187469482422 346.9212951660156 C 81.0079574584961 345.87396240234375 83.2913818359375 344.8217468261719 86.4266357421875 343.40985107421875 C 88.6951904296875 345.95086669921875 91.17398071289062 343.2969970703125 92.64940643310547 341.15960693359375 C 96.20116424560547 341.85400390625 98.80078887939453 342.27081298828125 100.9608383178711 342.572021484375 C 103.50743103027344 342.880859375 107.46476745605469 343.1561584472656 109.43792724609375 343.4327087402344 C 110.83906555175781 346.8944091796875 112.75597381591797 346.3185729980469 115.0882339477539 346.6343994140625 C 115.70697784423828 349.05633544921875 119.7594985961914 349.6769714355469 120.65882110595703 350.96990966796875 C 120.92693328857422 351.91925048828125 121.36636352539062 352.99810791015625 121.73002624511719 353.734375 C 122.12410736083984 354.4723205566406 123.06708526611328 356.18505859375 124.291748046875 358.01806640625 C 125.60787963867188 360.2342834472656 127.3635482788086 363.0023193359375 129.47662353515625 366.9745178222656 C 131.28555297851562 369.8815612792969 133.24082946777344 373.1438293457031 135.59945678710938 378.00750732421875 C 136.42181396484375 381.16845703125 136.68167114257812 382.9000549316406 135.51531982421875 379.5179443359375 C 136.7827606201172 382.43707275390625 138.46351623535156 385.9515380859375 139.9470672607422 389.5074157714844 C 141.5940704345703 393.5519714355469 142.70773315429688 396.3637390136719 144.21266174316406 400.4398498535156 C 145.57147216796875 404.1610412597656 146.6147003173828 407.4468078613281 147.25904846191406 409.895751953125 C 148.25732421875 412.96136474609375 148.93414306640625 414.83477783203125 150.2937469482422 417.3600769042969 C 152.0590362548828 421.3647155761719 152.96099853515625 423.6994934082031 153.9834442138672 428.11126708984375 C 154.3877716064453 429.2178649902344 154.77687072753906 430.16998291015625 156.5335235595703 434.5234069824219 C 157.66580200195312 437.83306884765625 158.4158477783203 440.166259765625 159.18511962890625 443.53009033203125 C 159.98272705078125 447.5152893066406 157.8432159423828 447.22332763671875 158.54074096679688 451.2152099609375 C 159.117431640625 454.27557373046875 159.6943359375 456.16351318359375 160.14886474609375 457.6492919921875 C 160.86184692382812 459.72857666015625 161.7582550048828 462.43450927734375 162.65220642089844 465.260009765625 C 156.96170043945312 464.9891052246094 151.61561584472656 464.47772216796875 147.056396484375 463.9615478515625 C 144.32591247558594 463.9648132324219 141.07589721679688 463.7294921875 138.09707641601562 461.7337951660156M 110.17064666748047 383.7535705566406 C 110.5617446899414 386.2725830078125 109.48360443115234 384.0762023925781 107.25553131103516 380.67315673828125 C 105.29505920410156 376.69873046875 103.55925750732422 372.71636962890625 101.96018981933594 369.3426513671875 C 100.43541717529297 366.1842346191406 99.32653045654297 363.9445495605469 98.98828887939453 362.6824645996094 C 98.9170913696289 363.9954528808594 98.33177947998047 366.6387939453125 98.28649139404297 370.2251281738281 C 97.854248046875 373.888916015625 96.88851165771484 377.7784118652344 95.60435485839844 381.8298034667969 C 95.25166320800781 385.9593811035156 94.83604431152344 388.641357421875 94.18309020996094 384.0699462890625 C 93.45767974853516 389.3490295410156 92.57874298095703 395.0523681640625 91.8980712890625 398.5794677734375 C 90.66339874267578 403.06866455078125 89.29264831542969 406.935546875 87.91748809814453 410.4209899902344 C 92.4151382446289 410.9757080078125 97.82305145263672 411.1255798339844 105.14878845214844 411.61114501953125 C 110.56520080566406 411.6658935546875 115.77401733398438 411.5973815917969 120.90234375 411.476806640625 C 119.49654388427734 407.471923828125 117.57920837402344 402.89532470703125 115.03689575195312 397.68988037109375 C 112.65335845947266 392.4513244628906 111.1187515258789 388.8249816894531 110.17064666748047 383.7535705566406"/>
    <path stroke-width="0" fill="rgb(0, 0, 0)" opacity="1.0" d="M 220.50465393066406 340.3232727050781 C 222.21353149414062 340.18170166015625 223.92161560058594 340.1583557128906 222.06182861328125 339.9466552734375 C 223.55870056152344 339.862548828125 226.2897186279297 339.97943115234375 229.16038513183594 340.10308837890625 C 232.83714294433594 340.682373046875 237.08450317382812 341.64630126953125 239.4232177734375 342.342529296875 C 241.53179931640625 343.1165771484375 242.50674438476562 343.4397277832031 245.45765686035156 344.899169921875 C 246.8500213623047 345.6181640625 249.02125549316406 346.87994384765625 251.39773559570312 348.8540344238281 C 252.6104736328125 349.88299560546875 254.4404754638672 351.81915283203125 256.31890869140625 354.3481750488281 C 257.2933044433594 355.65850830078125 258.5338439941406 357.5306091308594 259.7107849121094 359.8669128417969 C 260.74627685546875 361.88702392578125 262.1122131347656 364.43572998046875 262.8927917480469 367.0230407714844 C 263.4807434082031 369.6095275878906 263.884033203125 372.0646667480469 264.3023681640625 374.53448486328125 C 264.6424865722656 378.2620544433594 264.428955078125 381.71502685546875 263.7576599121094 385.3126525878906 C 263.1391296386719 389.0637512207031 262.1736755371094 391.66693115234375 261.52587890625 393.8256530761719 C 260.4725646972656 396.9930725097656 259.46746826171875 398.77593994140625 258.306640625 400.3453063964844 C 256.58660888671875 402.45648193359375 254.8052520751953 404.4809265136719 253.38601684570312 405.97357177734375 C 251.22848510742188 408.68304443359375 250.17176818847656 409.5192565917969 248.5023193359375 410.7510070800781 C 245.53343200683594 412.65924072265625 242.50332641601562 414.2305603027344 239.2834014892578 415.9656677246094 C 235.58596801757812 416.92486572265625 231.22125244140625 417.6575012207031 228.05088806152344 418.6270446777344 C 224.68148803710938 419.0989074707031 221.80633544921875 419.08465576171875 219.1830596923828 419.0151062011719 C 216.45986938476562 419.02960205078125 213.85702514648438 418.87713623046875 211.31593322753906 418.5146484375 C 208.48965454101562 417.9656066894531 206.88035583496094 417.6991271972656 204.0650634765625 417.45172119140625 C 204.44607543945312 421.4079895019531 204.57533264160156 425.4339294433594 204.8443603515625 428.42095947265625 C 205.33998107910156 431.89312744140625 205.5639190673828 434.84112548828125 204.58468627929688 439.1126708984375 C 204.17539978027344 434.4932861328125 204.53781127929688 436.6478271484375 204.99693298339844 439.0127258300781 C 205.693359375 442.4406433105469 206.06521606445312 445.57086181640625 205.83522033691406 447.4273376464844 C 205.80841064453125 445.46453857421875 205.18475341796875 448.6649475097656 204.7362518310547 450.9243469238281 C 204.7545166015625 449.395263671875 204.76072692871094 450.8417053222656 204.7479248046875 452.8711853027344 C 203.7324676513672 452.9984436035156 203.86976623535156 453.8399963378906 201.7238006591797 454.47125244140625 C 202.25157165527344 455.3037414550781 203.3747100830078 456.8122863769531 204.30296325683594 458.272216796875 C 202.4250030517578 459.48248291015625 200.705078125 460.6632080078125 199.15597534179688 461.7493896484375 C 196.0099639892578 462.297119140625 194.01849365234375 462.0696105957031 191.15167236328125 461.9393615722656 C 188.65480041503906 461.88018798828125 186.4215545654297 461.8365173339844 183.5498504638672 461.52606201171875 C 180.6942901611328 460.88092041015625 178.64736938476562 460.32415771484375 176.43409729003906 459.6891784667969 C 177.14056396484375 457.5618896484375 177.4828643798828 455.7126770019531 177.71926879882812 453.846923828125 C 177.89266967773438 451.21527099609375 177.9972686767578 449.5253601074219 178.15060424804688 447.61773681640625 C 178.64080810546875 443.91998291015625 178.53097534179688 446.21044921875 178.80650329589844 443.2520751953125 C 178.85411071777344 446.50042724609375 178.10797119140625 441.7049560546875 177.55203247070312 438.091064453125 C 178.32867431640625 431.7901611328125 178.16537475585938 435.43536376953125 177.64219665527344 429.70404052734375 C 177.1826171875 423.70391845703125 176.8341827392578 420.7139587402344 176.04339599609375 416.59942626953125 C 176.00526428222656 414.42626953125 176.17103576660156 409.0976867675781 176.5000457763672 405.4535827636719 C 176.7614288330078 400.3145751953125 176.9116668701172 396.7761535644531 177.29891967773438 394.17864990234375 C 177.31707763671875 390.5902404785156 177.25205993652344 394.0869445800781 177.3797607421875 389.46136474609375 C 177.4499053955078 387.9811706542969 177.9918670654297 382.6266174316406 178.53219604492188 379.3546142578125 C 178.94015502929688 375.951171875 178.44863891601562 380.5023193359375 178.31753540039062 378.52154541015625 C 178.57911682128906 376.292724609375 179.2053985595703 373.12628173828125 180.24862670898438 368.8822021484375 C 180.7168426513672 366.2687683105469 180.79244995117188 367.8158264160156 180.8799285888672 364.31866455078125 C 181.04100036621094 360.6302795410156 181.11317443847656 358.4222106933594 180.29925537109375 360.3487243652344 C 180.50775146484375 359.216552734375 183.22763061523438 358.88262939453125 186.84681701660156 358.4721374511719 C 187.1513214111328 356.3221130371094 187.38320922851562 353.8382568359375 187.4873046875 351.31640625 C 190.74659729003906 351.8247375488281 193.27810668945312 352.0368347167969 192.7982635498047 347.1013488769531 C 195.0694122314453 347.2221374511719 194.98446655273438 343.4422607421875 197.73094177246094 343.0829162597656 C 199.3928680419922 342.9045715332031 202.43899536132812 342.1251525878906 207.3271026611328 341.29290771484375 C 211.9590301513672 340.8664245605469 215.60838317871094 340.7540283203125 220.50465393066406 340.3232727050781M 219.53294372558594 364.3628845214844 C 216.7372283935547 364.4931335449219 215.53042602539062 364.4892883300781 213.17543029785156 364.4798889160156 C 211.6627960205078 364.5899963378906 210.113037109375 364.6292419433594 208.50918579101562 364.6464538574219 C 208.40687561035156 367.0604553222656 208.16433715820312 370.0771789550781 207.41012573242188 374.02490234375 C 207.11326599121094 377.1775817871094 206.991943359375 379.7560119628906 206.9881591796875 378.0518493652344 C 207.00376892089844 379.5862121582031 206.63092041015625 381.9620666503906 206.13182067871094 385.40802001953125 C 205.90695190429688 387.8822326660156 205.73654174804688 390.79669189453125 205.6947479248047 393.52642822265625 C 208.32162475585938 393.5328674316406 210.51705932617188 393.5754089355469 212.74171447753906 393.9068298339844 C 214.1798858642578 394.1418762207031 216.96141052246094 394.35504150390625 218.37403869628906 394.3819274902344 C 219.87510681152344 394.3551330566406 222.41558837890625 393.7767639160156 224.56825256347656 392.88360595703125 C 228.00790405273438 391.8107604980469 229.7004852294922 390.64556884765625 231.69210815429688 387.9930725097656 C 232.74380493164062 386.46673583984375 233.31544494628906 385.25811767578125 233.8062744140625 383.5663146972656 C 234.4481658935547 381.76531982421875 234.5801544189453 379.8194580078125 234.4916534423828 378.25360107421875 C 234.23020935058594 376.8722229003906 233.61203002929688 374.5376892089844 232.50498962402344 372.2127685546875 C 231.68624877929688 370.2336120605469 230.62954711914062 368.7428894042969 229.40724182128906 367.56475830078125 C 228.16014099121094 366.64923095703125 226.80810546875 365.8275146484375 224.66184997558594 365.1095886230469 C 222.77687072753906 364.5455017089844 221.88595581054688 364.52032470703125 219.53294372558594 364.3628845214844"/>
    <path stroke-width="0" fill="rgb(0, 0, 0)" opacity="1.0" d="M 325.0237731933594 345.94403076171875 C 313.9202880859375 344.32940673828125 322.30963134765625 338.2706604003906 334.15252685546875 337.1837463378906 C 326.6439514160156 346.4416809082031 322.15838623046875 340.6449279785156 332.88818359375 336.8773193359375 C 339.32891845703125 340.4811706542969 344.9057922363281 342.9207458496094 346.23956298828125 351.1585693359375 C 349.9371032714844 354.3236389160156 344.87127685546875 365.0594177246094 333.751953125 339.21087646484375 C 353.01666259765625 341.4476013183594 361.2021179199219 347.2751159667969 358.76214599609375 355.0616455078125 C 354.4757385253906 352.7163391113281 357.7023620605469 356.12469482421875 357.3817138671875 347.37225341796875 C 365.44671630859375 357.7244567871094 369.0182800292969 363.2506408691406 369.89361572265625 372.69720458984375 C 362.48382568359375 362.9339294433594 362.9111633300781 379.0603332519531 362.3900451660156 374.1375732421875 C 368.5401306152344 388.281005859375 363.1863708496094 395.8174743652344 356.9544372558594 356.87445068359375 C 364.3753967285156 362.54229736328125 368.9399719238281 375.5586242675781 370.36676025390625 388.2548828125 C 374.9862060546875 398.1329650878906 369.6425476074219 396.53582763671875 362.1990966796875 399.0982971191406 C 360.0926513671875 403.4256896972656 355.93682861328125 395.6472473144531 370.93951416015625 388.5581970214844 C 368.9624328613281 396.0304870605469 365.20355224609375 403.80206298828125 364.9771728515625 401.5226135253906 C 363.0225524902344 411.5374450683594 356.0104064941406 418.2115478515625 349.254638671875 417.6584167480469 C 358.028564453125 406.99481201171875 355.6172180175781 414.6177062988281 352.3668212890625 419.338134765625 C 347.030517578125 423.8890075683594 334.746826171875 423.2202453613281 326.8370666503906 415.7337341308594 C 309.1349182128906 422.9090881347656 299.0545654296875 422.8328552246094 303.377685546875 416.70001220703125 C 338.2383117675781 408.2686767578125 346.6697082519531 400.4346008300781 345.66534423828125 422.1908874511719 C 325.7362060546875 433.6199645996094 309.5605773925781 425.9483337402344 297.07305908203125 423.0545959472656 C 305.5768737792969 410.9765319824219 310.4338684082031 413.272705078125 312.7763671875 417.408203125 C 308.6939697265625 430.3998107910156 307.27105712890625 435.99456787109375 304.4453430175781 422.22088623046875 C 308.2798767089844 413.0216064453125 310.39349365234375 423.0879821777344 308.0543212890625 459.61083984375 C 297.9172058105469 456.5038757324219 302.4436950683594 453.166015625 294.9109802246094 435.7119445800781 C 295.8411560058594 430.2662353515625 306.5368347167969 428.9311218261719 302.53411865234375 438.1642150878906 C 302.1631164550781 441.23382568359375 303.70135498046875 436.01214599609375 301.6040954589844 445.3582763671875 C 306.1416015625 460.2035827636719 295.36822509765625 459.72406005859375 293.52410888671875 441.0029296875 C 305.2867126464844 431.7097473144531 300.29852294921875 443.4363098144531 312.66571044921875 456.64300537109375 C 315.99908447265625 464.4851379394531 296.3912353515625 468.1494445800781 294.0876770019531 457.1893615722656 C 310.4387512207031 449.51947021484375 302.912353515625 454.1522216796875 312.38861083984375 462.9739990234375 C 306.81585693359375 473.67047119140625 290.73931884765625 470.804931640625 293.8169250488281 469.6742248535156 C 286.1407775878906 465.2958068847656 280.9275207519531 452.71942138671875 285.0830078125 442.4841003417969 C 287.1361083984375 439.45501708984375 287.2666320800781 428.8579406738281 289.6562194824219 440.6138916015625 C 286.66253662109375 459.9521179199219 284.6365051269531 454.86749267578125 281.79608154296875 454.35784912109375 C 285.79736328125 455.1082763671875 281.2651062011719 422.2862548828125 286.8796691894531 403.05810546875 C 299.3602294921875 431.302734375 300.03765869140625 437.70074462890625 291.34454345703125 441.2116394042969 C 286.5417175292969 433.1059875488281 286.3208312988281 434.1038513183594 291.2540588378906 434.70867919921875 C 287.55419921875 436.0763244628906 287.4490966796875 423.79669189453125 291.02825927734375 409.59954833984375 C 295.1100769042969 402.7191467285156 291.90863037109375 407.79815673828125 294.94537353515625 415.4359436035156 C 291.7279968261719 414.9464416503906 292.5436706542969 419.9453430175781 292.27239990234375 426.3625183105469 C 284.8074645996094 429.2321472167969 287.4253234863281 423.3887023925781 287.9372253417969 407.7571716308594 C 276.8298645019531 391.38800048828125 274.0642395019531 379.0166015625 294.5016784667969 392.00262451171875 C 274.8518371582031 393.02886962890625 278.7034606933594 384.6437683105469 290.5185852050781 365.0215148925781 C 294.56640625 362.59228515625 292.7947082519531 368.055908203125 285.51312255859375 386.2154541015625 C 288.8158874511719 374.9929504394531 288.1347961425781 367.6614074707031 281.9587707519531 388.9884338378906 C 283.72576904296875 370.59027099609375 298.6765441894531 359.83343505859375 296.4326477050781 368.09149169921875 C 279.83587646484375 382.6172180175781 284.1639404296875 381.71435546875 282.7073669433594 367.1245422363281 C 287.6156311035156 370.3963317871094 283.42559814453125 359.6914367675781 283.95916748046875 370.36248779296875 C 290.0814514160156 355.36322021484375 296.22967529296875 355.7452392578125 298.3536376953125 350.423095703125 C 302.21942138671875 347.09881591796875 312.7648010253906 338.0046691894531 327.4029235839844 338.6470642089844 C 317.9669494628906 342.98919677734375 331.3860778808594 341.30078125 325.1390686035156 345.79705810546875 C 312.1737365722656 342.8112487792969 326.2950134277344 338.3675537109375 325.0237731933594 345.94403076171875M 337.9496765136719 367.2681884765625 C 313.5448303222656 373.3636779785156 305.2592468261719 364.6302185058594 330.5520935058594 363.8802185058594 C 318.337890625 368.8779296875 315.9171447753906 376.8536376953125 312.687744140625 374.27569580078125 C 296.70098876953125 382.298583984375 289.0578918457031 377.5791931152344 311.2461853027344 362.9241027832031 C 310.8646240234375 370.96929931640625 306.89422607421875 370.34002685546875 318.86053466796875 369.7468566894531 C 322.14306640625 378.4163818359375 310.232177734375 369.92791748046875 306.8858642578125 384.8116760253906 C 308.06573486328125 393.3153381347656 311.0303039550781 398.6287536621094 313.1239929199219 400.0882873535156 C 318.21099853515625 402.3979797363281 314.9057922363281 400.6813659667969 308.1102294921875 400.9237976074219 C 304.1366271972656 390.09588623046875 310.1421203613281 399.8078308105469 308.7544860839844 392.64990234375 C 314.5892333984375 396.0567932128906 310.178466796875 394.9906005859375 318.6000061035156 403.0653076171875 C 327.8391418457031 401.8172302246094 337.7225646972656 400.35357666015625 343.9455261230469 388.3930969238281 C 347.7309875488281 387.044677734375 352.5711975097656 387.73712158203125 343.1877746582031 397.2098388671875 C 343.4927062988281 386.41363525390625 343.5044250488281 382.4519348144531 341.61724853515625 381.3045959472656 C 346.3016662597656 377.5563049316406 348.2601013183594 372.4488525390625 332.2879943847656 366.3917236328125 C 327.5926513671875 366.5700378417969 335.76507568359375 356.3191833496094 342.3938293457031 366.6333923339844 C 317.6292724609375 363.08416748046875 310.3614196777344 364.9949035644531 316.452392578125 360.3367004394531 C 320.9164123535156 360.0107421875 326.4917297363281 352.4392395019531 337.9496765136719 367.2681884765625"/>
    <path stroke-width="0" fill="rgb(0, 0, 0)" opacity="1.0" d="M 397.8362121582031 452.4289245605469 C 398.8270568847656 450.3778076171875 399.8251037597656 447.8843078613281 395.4097595214844 447.47906494140625 C 395.8048400878906 445.46295166015625 391.9315490722656 444.5769348144531 392.44525146484375 441.5277099609375 C 393.1248779296875 437.06640625 393.7319030761719 434.59130859375 393.8898010253906 440.48260498046875 C 393.6650390625 439.1571350097656 392.69842529296875 436.24566650390625 391.5609130859375 432.9888000488281 C 390.0511779785156 427.95379638671875 390.6567077636719 429.9125061035156 389.72943115234375 424.7236022949219 C 388.6609191894531 421.0782775878906 388.2524108886719 418.61895751953125 388.59228515625 414.9228515625 C 388.4682312011719 412.3305358886719 388.3732604980469 409.2544250488281 388.55218505859375 413.2048034667969 C 387.3262634277344 408.5297546386719 387.31732177734375 404.98193359375 386.94390869140625 400.0641784667969 C 386.65997314453125 397.224853515625 386.6767578125 392.0537109375 387.03662109375 389.02484130859375 C 387.3403015136719 386.55157470703125 387.4290466308594 385.1093444824219 387.68359375 383.7064208984375 C 387.3691101074219 386.4622497558594 387.10101318359375 383.6375427246094 386.96453857421875 381.49505615234375 C 386.9069519042969 377.9328308105469 386.9230651855469 374.7694396972656 386.5922546386719 370.794189453125 C 386.379638671875 368.2499084472656 385.9332275390625 363.9262390136719 385.7291564941406 361.27972412109375 C 387.07159423828125 357.36614990234375 387.3738708496094 353.7957763671875 387.3677673339844 349.5404052734375 C 387.1721496582031 346.6084899902344 387.0976867675781 344.3223876953125 387.5716857910156 342.67816162109375 C 388.058837890625 340.5188293457031 388.4660339355469 338.53509521484375 388.810546875 336.35369873046875 C 390.9778747558594 336.51177978515625 393.20458984375 336.7443542480469 395.72479248046875 337.2614440917969 C 397.67303466796875 337.57879638671875 397.9825439453125 336.6708068847656 400.84722900390625 336.8133544921875 C 403.65093994140625 337.3437805175781 407.7005310058594 339.1694641113281 407.58697509765625 339.72637939453125 C 407.27716064453125 341.6592712402344 409.7704772949219 341.5804443359375 411.9690246582031 341.7700500488281 C 411.6495056152344 343.6202087402344 411.5111389160156 345.00823974609375 411.6719055175781 346.25921630859375 C 411.3011779785156 347.4792785644531 410.8883972167969 348.7147521972656 410.5819091796875 350.21063232421875 C 413.1461181640625 351.467529296875 412.58154296875 353.9134826660156 411.6120910644531 357.9593505859375 C 410.80780029296875 361.5755920410156 410.8175048828125 358.513671875 411.8826904296875 363.30523681640625 C 412.6188049316406 367.0144958496094 412.829345703125 372.7425842285156 413.36944580078125 377.4140930175781 C 413.611572265625 380.40185546875 413.7417907714844 383.9619445800781 413.6661376953125 387.73126220703125 C 413.33819580078125 389.35296630859375 413.008056640625 391.2555847167969 413.7301330566406 387.5281066894531 C 413.31689453125 391.4313049316406 412.516845703125 397.300048828125 412.562744140625 401.0165100097656 C 412.9776611328125 405.3091125488281 413.1360168457031 407.4346923828125 413.05718994140625 404.14178466796875 C 414.0878601074219 407.9563293457031 413.93267822265625 410.34039306640625 413.9298095703125 413.0149841308594 C 414.23736572265625 415.5803527832031 414.4167785644531 419.5453186035156 414.6558532714844 416.1044616699219 C 414.93206787109375 418.1250305175781 415.2543029785156 419.62677001953125 415.9264221191406 421.34698486328125 C 416.0994873046875 422.41680908203125 416.3758850097656 423.6401062011719 417.41058349609375 426.2140808105469 C 418.9945983886719 430.3548278808594 420.2690734863281 434.759033203125 420.966552734375 438.5931396484375 C 428.4825439453125 442.525390625 433.42437744140625 445.4183654785156 427.0178527832031 444.5079650878906 C 429.3264465332031 444.1052551269531 433.4084167480469 443.1220397949219 438.90386962890625 441.8135681152344 C 434.12310791015625 445.14886474609375 438.4314880371094 443.2396545410156 442.7323303222656 441.0433044433594 C 447.0619201660156 438.4350891113281 451.5690612792969 436.3469543457031 455.16748046875 434.54351806640625 C 456.864013671875 438.5671081542969 458.28546142578125 442.4490966796875 459.438720703125 445.0862731933594 C 460.9147644042969 447.7910461425781 463.06317138671875 451.91259765625 465.42181396484375 455.8020324707031 C 462.662353515625 457.55499267578125 458.8886413574219 460.1837158203125 455.57073974609375 461.90264892578125 C 453.9344177246094 462.8143615722656 451.322998046875 464.3065490722656 449.1470031738281 465.9955139160156 C 446.8968811035156 467.5646667480469 444.4338073730469 468.27569580078125 440.0880432128906 469.1292724609375 C 435.15350341796875 470.7106018066406 430.3320617675781 471.7279968261719 426.1170654296875 471.885009765625 C 418.5841064453125 468.89654541015625 413.497314453125 465.3982849121094 409.0970153808594 463.0636901855469 C 405.6192626953125 461.40960693359375 403.53863525390625 460.38555908203125 402.7200012207031 460.0113525390625 C 403.3160705566406 461.3329772949219 403.5003967285156 460.493896484375 403.9560241699219 458.185546875 C 404.053955078125 455.572021484375 400.7360534667969 454.0372314453125 397.8362121582031 452.4289245605469"/>
    <path stroke-width="0" fill="rgb(0, 0, 0)" opacity="1.0" d="M 548.6649780273438 455.1430969238281 C 545.8536376953125 455.18536376953125 542.2548217773438 455.29986572265625 543.7251586914062 460.60028076171875 C 540.9335327148438 460.9939880371094 539.6217041015625 461.1631774902344 536.6668701171875 461.5106506347656 C 533.6464233398438 461.9798278808594 530.630615234375 462.32147216796875 526.6400756835938 462.64990234375 C 523.3480834960938 463.7259216308594 520.6903076171875 463.95660400390625 516.1876220703125 463.3666687011719 C 510.7867736816406 463.98199462890625 505.1095275878906 461.7658386230469 502.8344421386719 460.8182373046875 C 506.84735107421875 461.85394287109375 501.58795166015625 461.506103515625 500.2960510253906 461.5920715332031 C 498.6835021972656 461.73651123046875 499.0968322753906 459.074462890625 496.8023681640625 458.9469299316406 C 496.1677551269531 455.54510498046875 493.19482421875 456.899658203125 490.9009704589844 457.82354736328125 C 490.1994934082031 455.8401184082031 489.3195495605469 453.6551818847656 488.36279296875 451.29522705078125 C 488.37701416015625 448.47576904296875 488.5961608886719 446.0387268066406 483.4061279296875 446.1766662597656 C 483.45208740234375 445.3439025878906 485.1712341308594 449.39984130859375 484.2192687988281 445.1903381347656 C 483.5949401855469 442.48223876953125 482.7404479980469 439.49652099609375 482.85858154296875 434.62481689453125 C 483.34527587890625 435.9949035644531 482.33282470703125 432.2356262207031 480.73956298828125 429.20111083984375 C 480.6007080078125 424.6791687011719 480.8481140136719 426.3467712402344 481.8362731933594 421.5269775390625 C 481.9078063964844 418.84521484375 482.0484619140625 415.7178649902344 481.9718933105469 413.6590881347656 C 481.7225036621094 410.0107727050781 482.01129150390625 405.4476013183594 482.6767578125 401.5328063964844 C 481.36529541015625 403.0434875488281 481.5694885253906 398.39471435546875 481.8074645996094 394.35589599609375 C 481.67724609375 391.36981201171875 481.4936828613281 387.2082214355469 481.6733093261719 385.69244384765625 C 481.5750732421875 388.63360595703125 481.02520751953125 385.1998291015625 480.7499084472656 382.72076416015625 C 481.3354187011719 378.4788513183594 481.726806640625 375.87164306640625 481.6566162109375 372.7587585449219 C 482.1558837890625 368.0498046875 482.5397033691406 364.7665100097656 483.1376037597656 361.0858154296875 C 484.5010986328125 357.19256591796875 485.6890563964844 353.4720153808594 486.7325744628906 348.138427734375 C 487.3466796875 345.8415222167969 488.2600402832031 342.7403869628906 490.7198486328125 343.4014587402344 C 491.4254455566406 340.3619079589844 492.2276306152344 337.78521728515625 492.8833312988281 335.9628601074219 C 494.96087646484375 336.63958740234375 497.3719177246094 337.125244140625 499.7901916503906 337.4606018066406 C 501.05389404296875 337.7601318359375 503.5104675292969 338.21478271484375 502.7847595214844 338.8234558105469 C 505.5941467285156 339.1684265136719 504.732666015625 339.658447265625 508.3421630859375 340.0128173828125 C 511.3386535644531 340.10516357421875 505.93243408203125 339.4518127441406 508.3722229003906 339.45623779296875 C 512.83544921875 339.6787414550781 517.9797973632812 339.8985900878906 522.2966918945312 339.28912353515625 C 527.4130859375 339.0771179199219 532.0171508789062 338.68829345703125 534.9224853515625 338.603515625 C 537.84912109375 338.90277099609375 542.1871337890625 338.8782958984375 547.3863525390625 338.2209777832031 C 547.8410034179688 340.4389953613281 551.3465576171875 339.3062438964844 554.2275390625 338.6156005859375 C 554.7122802734375 340.37139892578125 555.1846923828125 341.92059326171875 556.0332641601562 344.1312255859375 C 556.3720703125 345.39697265625 556.3554077148438 348.1842956542969 556.36328125 350.2945251464844 C 556.6936645507812 354.47607421875 556.2764892578125 355.6690979003906 555.4114990234375 358.7515869140625 C 554.8281860351562 361.92987060546875 554.2427978515625 364.2474060058594 553.4026489257812 366.4177551269531 C 550.1640625 364.9733581542969 545.2350463867188 363.4901428222656 545.2286376953125 365.02978515625 C 541.7604370117188 365.30859375 539.8681030273438 365.310546875 537.222412109375 365.2491455078125 C 533.120849609375 364.60113525390625 536.9788208007812 364.2579650878906 533.17626953125 364.44140625 C 529.6088256835938 365.0121765136719 526.56396484375 365.0665283203125 523.525146484375 364.7091064453125 C 520.4586181640625 364.94183349609375 517.369873046875 365.4054260253906 514.7142333984375 365.4302062988281 C 510.87518310546875 365.5163879394531 505.7424621582031 365.3568420410156 508.6700439453125 365.70953369140625 C 508.4446105957031 367.18731689453125 507.7640075683594 369.96844482421875 507.0903625488281 372.6075439453125 C 507.1796875 375.9281005859375 507.68048095703125 373.7755126953125 507.6553955078125 379.04327392578125 C 507.0671081542969 382.4315490722656 506.8614807128906 379.04864501953125 506.9945373535156 381.0273742675781 C 507.26361083984375 383.6792907714844 507.7170104980469 386.9869384765625 507.3916015625 389.65081787109375 C 512.3524169921875 389.49822998046875 518.730712890625 389.440185546875 523.5966186523438 389.99774169921875 C 529.0863647460938 389.878662109375 532.5584716796875 389.93670654296875 529.1594848632812 389.8165588378906 C 534.6560668945312 390.2815856933594 537.2413940429688 390.5809326171875 540.1803588867188 390.6582336425781 C 543.3349609375 390.11248779296875 545.8695678710938 389.3846130371094 549.1707153320312 388.8756103515625 C 549.4569702148438 390.4539489746094 550.0043334960938 392.26513671875 550.3005981445312 394.1256103515625 C 550.7078857421875 396.0218811035156 551.2786865234375 399.0489807128906 551.4387817382812 401.2710876464844 C 551.6820678710938 402.5419006347656 551.9569702148438 404.1163330078125 552.144775390625 404.9122009277344 C 552.7971801757812 406.447509765625 553.7442016601562 408.42047119140625 554.5153198242188 410.59405517578125 C 551.1981811523438 411.8138427734375 547.55712890625 413.2398376464844 543.5498657226562 414.380126953125 C 539.0504150390625 415.4100646972656 531.722900390625 416.0235290527344 528.0123291015625 416.12823486328125 C 533.5411987304688 415.8743591308594 528.5584106445312 415.5890808105469 522.3619995117188 416.0302734375 C 516.6533203125 415.0927429199219 512.7432250976562 414.32379150390625 507.76068115234375 413.9890441894531 C 507.6911926269531 418.4220275878906 507.67034912109375 421.704345703125 506.84136962890625 426.411865234375 C 506.262939453125 421.81463623046875 506.4743957519531 424.4207458496094 506.65789794921875 425.8627624511719 C 506.8711242675781 427.1679382324219 507.8407897949219 430.2520446777344 508.370361328125 433.3039855957031 C 508.9610290527344 436.2478942871094 510.2391357421875 440.1853332519531 509.7635803222656 437.92230224609375 C 514.5530395507812 438.9088439941406 519.5350341796875 439.9600524902344 514.04541015625 437.7490234375 C 518.468505859375 437.5552062988281 521.6162719726562 437.5596618652344 519.4354248046875 437.55657958984375 C 517.3950805664062 438.00213623046875 518.9749755859375 437.7405090332031 522.8856201171875 437.4251403808594 C 526.4473266601562 437.1539611816406 528.7102661132812 436.8637390136719 530.3003540039062 436.72344970703125 C 533.5132446289062 436.64739990234375 537.35888671875 436.4552307128906 539.8453369140625 436.17889404296875 C 542.8577880859375 435.51971435546875 545.910400390625 436.3332824707031 548.658203125 436.7705078125 C 548.326904296875 438.4452209472656 548.0891723632812 439.7289733886719 547.7385864257812 441.820068359375 C 550.7949829101562 441.67352294921875 551.1431884765625 443.76092529296875 551.4322509765625 445.7660217285156 C 551.556640625 446.8620300292969 548.9768676757812 447.58282470703125 548.9083251953125 450.03167724609375 C 548.727783203125 451.4076843261719 548.708740234375 453.41436767578125 548.6649780273438 455.1430969238281"/>
    <path stroke-width="0" fill="rgb(0, 0, 0)" opacity="1.0" d="M 138.82611083984375 287.3692932128906 C 130.72605895996094 285.01409912109375 123.86088562011719 281.1195373535156 119.38037109375 276.12213134765625 C 114.71705627441406 271.8359680175781 111.5839614868164 266.9361877441406 110.06295013427734 262.1932678222656 C 108.08845520019531 249.42898559570312 106.06497192382812 252.80465698242188 104.4909439086914 249.75791931152344 C 94.717041015625 228.90988159179688 94.84842681884766 201.10479736328125 85.87696075439453 170.85519409179688 C 93.57807922363281 171.16812133789062 101.46902465820312 171.23606872558594 108.21096801757812 169.95823669433594 C 112.39309692382812 191.37632751464844 118.8792724609375 212.18374633789062 125.78031921386719 233.53851318359375 C 127.44679260253906 238.69578552246094 129.4525909423828 243.07485961914062 132.1690673828125 247.35064697265625 C 134.71363830566406 252.58094787597656 137.62454223632812 257.72576904296875 140.0663604736328 259.9557800292969 C 140.94696044921875 260.77777099609375 144.17857360839844 262.9214172363281 147.1797332763672 264.498291015625 C 151.93084716796875 266.508056640625 154.3710479736328 268.6473693847656 155.24305725097656 270.63909912109375 C 156.30784606933594 272.68719482421875 156.65472412109375 275.29541015625 155.96157836914062 278.681884765625 C 155.4490509033203 281.6485290527344 153.6636199951172 284.5043029785156 150.89166259765625 286.32403564453125 C 148.2743682861328 288.0943298339844 144.3978729248047 288.5765075683594 138.82611083984375 287.3692932128906M 113.01966094970703 260.8404541015625 C 71.86456298828125 264.2516174316406 76.39830017089844 257.34344482421875 68.81900024414062 267.48309326171875 C 71.93517303466797 265.12408447265625 67.54344177246094 272.4352722167969 69.01837921142578 270.5484619140625 C 61.557254791259766 277.041748046875 57.95367431640625 293.0495300292969 37.769161224365234 286.8022766113281 C 22.556682586669922 271.3261413574219 34.27961349487305 271.08441162109375 47.52974319458008 255.3331298828125 C 53.25418472290039 246.70486450195312 59.81874084472656 240.03887939453125 60.536720275878906 233.8966522216797 C 68.56212615966797 226.14808654785156 73.60637664794922 223.52391052246094 73.77570343017578 217.9885711669922 C 72.25084686279297 212.41871643066406 79.02371978759766 204.66696166992188 85.98880767822266 189.34539794921875 C 87.9041748046875 162.8233642578125 82.77403259277344 182.97137451171875 90.40480041503906 182.57217407226562 C 91.8943862915039 193.33493041992188 94.56708526611328 204.6813507080078 98.6847152709961 215.23483276367188 C 93.1118392944336 217.30148315429688 88.4756851196289 219.86712646484375 98.9530258178711 212.0542449951172 C 93.83341979980469 219.62782287597656 94.40107727050781 224.31887817382812 89.53790283203125 237.51400756835938 C 92.99764251708984 241.9949188232422 78.06653594970703 243.0054931640625 80.8717269897461 225.2985076904297 C 83.53722381591797 239.58236694335938 76.47112274169922 244.6535186767578 78.54798889160156 231.82949829101562 C 82.92200469970703 219.11268615722656 87.1019058227539 228.66049194335938 87.02676391601562 235.61253356933594 C 83.77568054199219 251.67776489257812 76.73889923095703 254.4034881591797 61.377906799316406 239.3803253173828 C 65.08247375488281 240.05288696289062 76.54054260253906 237.7572021484375 98.78485107421875 239.11917114257812 C 109.08061218261719 233.49798583984375 111.479736328125 241.39837646484375 100.31558227539062 246.3932647705078 C 103.38921356201172 244.79721069335938 106.44415283203125 242.74949645996094 109.52094268798828 240.13253784179688 C 112.46513366699219 247.72767639160156 113.9301986694336 254.51527404785156 113.01966094970703 260.8404541015625M 97.33946990966797 172.7895050048828 C 98.0123519897461 166.779052734375 95.02269744873047 182.73780822753906 90.5059814453125 179.31759643554688 C 94.10916137695312 170.5301055908203 99.91133117675781 158.97801208496094 102.6353759765625 157.4374542236328 C 97.87413024902344 160.6517333984375 105.5122299194336 153.71566772460938 112.06178283691406 143.93505859375 C 98.39466094970703 153.15211486816406 106.45797729492188 145.47645568847656 126.52632141113281 138.9849090576172 C 124.0643081665039 125.17293548583984 114.19332885742188 138.62339782714844 109.01480102539062 142.6293487548828 C 121.25444793701172 142.3145294189453 123.32750701904297 138.86517333984375 124.12031555175781 140.5732421875 C 118.07884216308594 144.65333557128906 102.24929809570312 144.24546813964844 107.72368621826172 138.99375915527344 C 102.8680191040039 144.49386596679688 96.71610260009766 152.18870544433594 97.33946990966797 172.7895050048828M 79.87140655517578 153.0797882080078 C 80.15327453613281 159.0442352294922 71.7715835571289 155.76986694335938 77.12278747558594 151.97128295898438 C 85.6548080444336 153.7516632080078 74.42861938476562 151.72225952148438 67.82915496826172 144.29678344726562 C 70.07050323486328 153.02023315429688 67.35468292236328 146.96517944335938 67.21662139892578 141.30892944335938 C 74.0867919921875 144.36346435546875 85.58183288574219 155.42601013183594 76.40708923339844 158.1172637939453 C 73.31484985351562 153.97439575195312 79.21223449707031 157.8737335205078 73.94508361816406 155.30491638183594 C 84.21479797363281 155.16778564453125 85.7182846069336 162.90374755859375 81.33078002929688 158.47235107421875 C 87.22946166992188 162.06234741210938 86.98051452636719 173.92254638671875 89.72306060791016 182.44479370117188 C 90.61217498779297 170.22311401367188 73.49755096435547 159.1267852783203 79.87140655517578 153.0797882080078"/>
    <path stroke-width="0" fill="rgb(0, 0, 0)" opacity="1.0" d="M 140.572509765625 287.8594970703125 C 142.2195281982422 279.95257568359375 144.38177490234375 272.0779113769531 147.8547821044922 264.74920654296875 C 153.23486328125 267.2301025390625 157.51214599609375 268.78814697265625 160.62216186523438 269.4404296875 C 165.106689453125 268.4720458984375 165.93609619140625 267.9323425292969 167.0958251953125 266.1235046386719 C 168.9246063232422 258.76153564453125 171.87037658691406 248.8251495361328 177.46844482421875 238.92169189453125 C 187.95294189453125 232.00962829589844 198.57017517089844 228.9712677001953 208.11973571777344 227.98721313476562 C 207.59820556640625 227.7889862060547 214.35885620117188 229.5813446044922 211.64956665039062 231.0264129638672 C 207.12351989746094 233.48025512695312 202.26768493652344 236.08978271484375 196.1487579345703 238.8871307373047 C 188.87742614746094 240.29331970214844 182.06027221679688 240.04505920410156 176.74949645996094 239.48876953125 C 173.53677368164062 238.98654174804688 170.6391143798828 238.36317443847656 168.998046875 238.0723419189453 C 168.075439453125 237.82168579101562 164.85330200195312 237.22869873046875 162.5108184814453 236.855712890625 C 160.0206298828125 236.4810791015625 158.21739196777344 236.2350311279297 156.81796264648438 236.05892944335938 C 158.3273162841797 229.63507080078125 158.72140502929688 221.45199584960938 158.60549926757812 214.25843811035156 C 161.36448669433594 213.8064422607422 164.469970703125 213.75584411621094 169.1047821044922 213.5067596435547 C 172.84085083007812 213.1654510498047 176.4208984375 213.96434020996094 179.0049285888672 214.8093719482422 C 183.85977172851562 215.1923370361328 187.49600219726562 215.80877685546875 189.12220764160156 216.26585388183594 C 191.71719360351562 215.61988830566406 195.4036102294922 214.6721649169922 199.37034606933594 213.5528564453125 C 202.82887268066406 211.56692504882812 208.0660400390625 210.234130859375 212.6359100341797 208.76535034179688 C 216.73097229003906 209.72528076171875 219.05946350097656 210.43072509765625 225.93698120117188 211.96502685546875 C 231.5659637451172 214.62637329101562 234.40867614746094 216.14112854003906 237.66708374023438 217.5418243408203 C 240.30667114257812 218.84056091308594 242.6752166748047 219.96641540527344 244.89231872558594 220.97047424316406 C 242.33094787597656 229.45782470703125 239.8588104248047 239.97877502441406 238.34161376953125 247.9396514892578 C 233.52906799316406 246.51046752929688 229.29237365722656 246.3020477294922 226.4177703857422 246.7439727783203 C 221.41334533691406 248.06005859375 215.5480499267578 249.28079223632812 207.66000366210938 249.33103942871094 C 204.14962768554688 250.33364868164062 199.3277130126953 252.07203674316406 197.3820037841797 253.4217071533203 C 196.4524688720703 254.88717651367188 195.176513671875 259.6022644042969 194.38331604003906 269.9839782714844 C 192.06683349609375 280.756591796875 184.4387969970703 289.22119140625 171.478271484375 292.32293701171875 C 159.7669219970703 290.7615966796875 150.93336486816406 289.6064453125 140.572509765625 287.8594970703125"/>
    <path stroke-width="0" fill="rgb(0, 0, 0)" opacity="1.0" d="M 306.12451171875 288.7650146484375 C 295.23406982421875 289.543701171875 284.6081237792969 289.9012756347656 277.0535888671875 288.3359069824219 C 271.62982177734375 286.116455078125 267.0093994140625 281.7885437011719 264.8220520019531 276.8539733886719 C 262.453369140625 271.6126403808594 261.26824951171875 264.7753601074219 261.5675964355469 257.74163818359375 C 261.5222473144531 226.76019287109375 260.4424743652344 197.56654357910156 258.61279296875 168.1578369140625 C 266.8196105957031 168.36195373535156 275.33685302734375 168.82321166992188 282.4943542480469 168.65325927734375 C 283.9662780761719 194.14268493652344 284.6553649902344 219.50201416015625 286.3374328613281 245.3314971923828 C 287.2990417480469 250.91958618164062 288.0015563964844 254.97598266601562 289.30621337890625 258.5024108886719 C 289.93218994140625 260.71112060546875 290.4576416015625 261.1686096191406 292.48077392578125 261.7386779785156 C 295.4235534667969 262.299560546875 299.3696594238281 261.98919677734375 304.3616027832031 260.5473327636719 C 310.80474853515625 259.80059814453125 314.80133056640625 260.8932189941406 317.3048095703125 263.3707275390625 C 320.0199890136719 265.9021301269531 321.23577880859375 268.7795715332031 321.64678955078125 272.5834045410156 C 322.0596923828125 276.3875427246094 321.1488342285156 279.87591552734375 318.7862548828125 282.99273681640625 C 316.3463439941406 286.1316223144531 312.57257080078125 288.16204833984375 306.12451171875 288.7650146484375"/>
    <path stroke-width="0" fill="rgb(0, 0, 0)" opacity="1.0" d="M 311.5588684082031 288.2766418457031 C 310.5452575683594 278.9234619140625 309.37176513671875 269.60809326171875 308.2108459472656 259.9627685546875 C 312.5442199707031 259.7361755371094 316.3244323730469 259.39105224609375 320.0338134765625 259.0018310546875 C 325.1861877441406 258.0301818847656 331.76312255859375 258.1927185058594 334.9219665527344 258.33880615234375 C 337.6375732421875 258.2021484375 340.5165710449219 257.8708801269531 342.9275817871094 257.39208984375 C 345.53497314453125 256.7089538574219 347.9012145996094 256.09466552734375 349.5799255371094 255.5463104248047 C 352.93646240234375 253.85121154785156 355.4456481933594 251.97267150878906 357.52398681640625 249.58766174316406 C 359.7718200683594 247.5283203125 361.73785400390625 245.4381866455078 362.8127746582031 243.7127685546875 C 364.32672119140625 241.51507568359375 364.49786376953125 240.71920776367188 364.4871826171875 238.51571655273438 C 365.1662292480469 241.43798828125 364.5989990234375 239.5719451904297 363.4324645996094 237.13902282714844 C 362.9034423828125 235.99453735351562 361.7038269042969 234.3331756591797 359.5216064453125 232.3341827392578 C 358.75537109375 231.6240234375 356.2781066894531 230.63674926757812 352.0103454589844 229.84512329101562 C 354.495849609375 230.29400634765625 349.720703125 230.52603149414062 348.31585693359375 231.2071990966797 C 347.66510009765625 231.57440185546875 346.950927734375 232.31846618652344 346.66497802734375 232.93209838867188 C 346.576416015625 233.44155883789062 347.2342834472656 236.4458465576172 347.3285217285156 239.17750549316406 C 347.4818115234375 240.67066955566406 348.52178955078125 244.27587890625 348.9158935546875 245.3544158935547 C 350.0857238769531 247.23939514160156 351.2204895019531 248.91114807128906 352.3708801269531 250.01609802246094 C 354.117431640625 251.66021728515625 356.34710693359375 252.90689086914062 359.52581787109375 254.30712890625 C 352.3819274902344 258.60894775390625 344.640380859375 261.96136474609375 337.2195129394531 263.6825866699219 C 334.9767150878906 261.8070373535156 332.9150390625 259.2915344238281 330.77093505859375 255.8782196044922 C 329.76995849609375 253.49708557128906 328.57147216796875 250.58795166015625 327.1645812988281 247.57078552246094 C 326.3421630859375 244.4009552001953 325.5953369140625 240.73428344726562 325.84564208984375 236.58935546875 C 326.3392333984375 242.60739135742188 323.352294921875 234.6352996826172 323.10906982421875 227.39950561523438 C 324.86334228515625 220.9213409423828 327.8652648925781 216.9014129638672 332.39288330078125 213.22938537597656 C 337.28216552734375 210.00892639160156 342.43194580078125 207.99734497070312 348.6943054199219 206.4257049560547 C 351.4852294921875 205.7738037109375 356.0856018066406 205.25286865234375 359.3141784667969 205.48919677734375 C 363.625244140625 205.86228942871094 368.1543884277344 207.62771606445312 372.6011962890625 210.3428192138672 C 378.29998779296875 214.0523681640625 382.7206726074219 217.97862243652344 385.3326416015625 222.59600830078125 C 387.4574890136719 226.6830291748047 390.1376953125 233.5900115966797 390.09259033203125 237.71817016601562 C 389.9665222167969 240.77403259277344 389.212646484375 245.6332244873047 387.14837646484375 250.1343231201172 C 385.1145324707031 254.0758056640625 382.5443115234375 257.78863525390625 374.186767578125 269.8422546386719 C 371.271484375 268.7069091796875 366.63079833984375 272.9140319824219 359.2657775878906 274.05792236328125 C 355.0124816894531 273.8436584472656 349.6907958984375 281.88970947265625 370.7628479003906 289.97418212890625 C 349.78155517578125 285.7762451171875 346.24432373046875 282.5409851074219 342.9461364746094 278.715576171875 C 341.7833251953125 282.3697204589844 338.9567565917969 282.44171142578125 336.8155822753906 282.4195556640625 C 332.882568359375 283.3377685546875 327.9308776855469 283.6903381347656 324.5899353027344 284.44482421875 C 320.5208740234375 286.3494567871094 316.01702880859375 287.6647644042969 311.5588684082031 288.2766418457031M 399.5943298339844 289.11541748046875 C 390.1080017089844 288.91064453125 383.39984130859375 297.5049133300781 376.3443603515625 297.8380432128906 C 358.7021484375 297.9432067871094 352.1916809082031 292.7150573730469 345.0672302246094 281.9352111816406 C 345.28314208984375 273.83624267578125 349.9293518066406 283.2187805175781 349.72198486328125 277.4333190917969 C 355.25885009765625 269.31256103515625 358.94317626953125 261.1943664550781 361.2885437011719 253.84298706054688 C 363.7169189453125 254.61143493652344 366.7047119140625 255.53851318359375 370.72161865234375 256.4102783203125 C 376.5696105957031 258.04144287109375 381.0660400390625 258.8775939941406 367.0867614746094 260.4356689453125 C 356.05108642578125 270.1262512207031 358.41644287109375 290.4334716796875 384.3359069824219 276.4735107421875 C 410.131591796875 265.98004150390625 413.44805908203125 267.1064147949219 415.81414794921875 269.99688720703125 C 417.6036682128906 272.3067321777344 418.3813171386719 275.622314453125 418.22479248046875 277.80535888671875 C 417.4992370605469 281.45526123046875 415.4761962890625 283.9085998535156 412.5307312011719 285.3153381347656 C 410.03759765625 286.3620300292969 407.10528564453125 286.1123046875 399.5943298339844 289.11541748046875M 350.4881896972656 189.48411560058594 C 343.4747009277344 188.7130584716797 344.646240234375 198.48716735839844 327.8772888183594 230.26734924316406 C 314.11468505859375 215.8292999267578 327.566650390625 188.65701293945312 337.09600830078125 178.5955352783203 C 347.72979736328125 174.4551239013672 355.18450927734375 166.08360290527344 345.53265380859375 179.77049255371094 C 343.38818359375 172.76109313964844 362.54803466796875 159.23780822753906 404.4085388183594 182.74713134765625 C 389.4416809082031 191.82044982910156 360.72357177734375 173.26608276367188 356.26654052734375 180.01370239257812 C 366.24920654296875 160.1813201904297 374.06494140625 173.29217529296875 349.54345703125 175.2408905029297 C 358.2471618652344 168.32884216308594 363.7190856933594 175.9324493408203 363.01434326171875 175.0318145751953 C 368.55712890625 176.6630096435547 356.7705383300781 180.18899536132812 350.4881896972656 189.48411560058594"/>
    <path stroke-width="0" fill="rgb(0, 0, 0)" opacity="1.0" d="M 405.85357666015625 285.72247314453125 C 407.5093994140625 279.8258972167969 407.69549560546875 273.6408386230469 407.39385986328125 266.15203857421875 C 413.5360107421875 266.1812438964844 419.5470886230469 266.59246826171875 423.675048828125 266.4713439941406 C 428.23486328125 265.7805480957031 429.7333679199219 264.8916931152344 431.9906005859375 260.3336486816406 C 435.5425720214844 255.23191833496094 438.06597900390625 250.36138916015625 438.8031921386719 243.9371337890625 C 441.34112548828125 239.49546813964844 442.77728271484375 232.9864501953125 442.2742919921875 227.64846801757812 C 442.26312255859375 220.29925537109375 441.4988098144531 215.59451293945312 440.380859375 211.60020446777344 C 440.4020080566406 201.67196655273438 440.10736083984375 198.56744384765625 438.9673767089844 194.84571838378906 C 446.4832763671875 193.6804656982422 449.55841064453125 192.3516082763672 456.4689636230469 187.97608947753906 C 459.314208984375 191.63848876953125 462.11737060546875 196.61659240722656 464.7435607910156 203.71759033203125 C 466.1302490234375 213.37313842773438 465.4700622558594 222.1757049560547 464.5055847167969 229.83934020996094 C 463.3255310058594 237.57545471191406 462.25286865234375 244.46726989746094 459.5030517578125 251.0025634765625 C 458.6496276855469 258.06439208984375 457.29156494140625 263.67535400390625 454.82562255859375 268.2409973144531 C 453.28472900390625 274.7349548339844 451.0075988769531 279.76080322265625 447.50506591796875 283.5812683105469 C 441.40081787109375 290.1703796386719 434.35467529296875 292.6208190917969 424.91162109375 292.22369384765625 C 416.6869201660156 290.45269775390625 410.6928405761719 287.6466979980469 405.85357666015625 285.72247314453125M 428.5395202636719 186.65054321289062 C 435.74267578125 190.58599853515625 438.7918395996094 199.540283203125 432.6910400390625 188.7270050048828 C 422.1081237792969 166.42747497558594 428.8385314941406 162.88430786132812 442.8192138671875 169.31517028808594 C 445.7244873046875 178.75559997558594 449.38726806640625 170.9461212158203 435.3691711425781 181.054931640625 C 439.010009765625 167.8219757080078 448.3434753417969 168.7958526611328 427.42047119140625 171.8787078857422 C 431.1725769042969 161.54591369628906 438.30963134765625 171.9235382080078 455.94415283203125 170.2917022705078 C 454.47564697265625 166.87998962402344 453.6271667480469 171.70550537109375 454.54119873046875 169.54751586914062 C 462.9029846191406 166.19775390625 449.08685302734375 175.5385284423828 447.6711730957031 177.99183654785156 C 455.52764892578125 190.78158569335938 450.3819274902344 190.48448181152344 428.5395202636719 186.65054321289062M 389.7937927246094 187.6448974609375 C 390.45989990234375 168.96792602539062 406.7646484375 175.126708984375 410.9653625488281 167.05807495117188 C 417.9005432128906 166.53221130371094 418.7474060058594 163.5039520263672 394.1063232421875 170.4630889892578 C 383.3861999511719 179.6407928466797 382.0649108886719 126.24922180175781 438.5573425292969 123.74632263183594 C 422.3683776855469 180.1861572265625 393.08514404296875 166.358642578125 395.0223083496094 167.105712890625 C 441.59295654296875 166.80970764160156 439.9255676269531 163.06643676757812 426.8049621582031 169.71267700195312 C 419.5405578613281 167.4770050048828 419.8373718261719 162.78448486328125 442.2980651855469 169.3477325439453 C 426.4912414550781 193.8648681640625 418.9229736328125 188.5189208984375 436.48834228515625 187.5826416015625 C 435.9679870605469 181.30001831054688 426.03460693359375 178.0994110107422 389.7937927246094 187.6448974609375"/>
  </g>
</svg>
