<?xml version="1.0" ?>
<svg xmlns="http://www.w3.org/2000/svg" version="1.1" width="600" height="600">
  <defs/>
  <g>
    <path stroke-width="0" fill="rgb(0, 0, 0)" opacity="1.0" d="M 140.3696746826172 464.2983703613281 C 137.88685607910156 460.4232177734375 134.47804260253906 455.06939697265625 133.14927673339844 449.3960266113281 C 132.37899780273438 445.94952392578125 129.81687927246094 438.08526611328125 128.75051879882812 434.6398010253906 C 126.54528045654297 435.1669006347656 119.68287658691406 435.2511291503906 116.63396453857422 435.326904296875 C 111.64354705810547 436.2840270996094 107.94499206542969 436.3741149902344 101.93500518798828 436.33123779296875 C 97.60256958007812 436.0108947753906 93.32493591308594 435.0125427246094 89.94041442871094 434.2069091796875 C 87.27996063232422 434.266357421875 83.29467010498047 434.5916748046875 78.3675765991211 434.56396484375 C 77.50123596191406 437.2886962890625 76.7264175415039 441.0587463378906 74.82613372802734 446.8828430175781 C 73.23530578613281 451.7422180175781 71.13489532470703 454.7120666503906 68.16051483154297 458.3574523925781 C 63.52019500732422 456.3753662109375 62.04051208496094 461.2702941894531 54.74504470825195 461.3511047363281 C 51.30141830444336 461.1297607421875 47.551544189453125 461.1918029785156 42.447479248046875 461.5148010253906 C 43.1997184753418 459.280517578125 43.90814208984375 456.2631530761719 44.610836029052734 453.611083984375 C 45.41477584838867 451.08038330078125 45.79228210449219 449.8405456542969 47.87314987182617 446.7478332519531 C 49.700096130371094 444.1189880371094 50.51655960083008 442.06353759765625 50.864463806152344 439.9004821777344 C 51.69914245605469 436.9242248535156 52.08534622192383 435.30975341796875 53.810150146484375 431.759521484375 C 54.15176773071289 429.39581298828125 54.49964141845703 428.2702331542969 55.42564010620117 425.1795654296875 C 57.562957763671875 421.343017578125 58.14271926879883 420.0940856933594 59.092403411865234 418.0897216796875 C 59.277923583984375 417.1413879394531 59.3232536315918 411.5638122558594 59.963409423828125 408.47796630859375 C 60.854129791259766 405.4072570800781 61.45212173461914 403.4982604980469 62.991920471191406 399.49658203125 C 64.63014221191406 395.38525390625 65.45783996582031 393.1885070800781 66.74407196044922 390.6217956542969 C 69.18724822998047 386.5588073730469 67.86799621582031 388.8060302734375 68.53250885009766 385.5869445800781 C 68.84247589111328 384.6250915527344 69.0345230102539 383.39019775390625 69.5798568725586 380.8265075683594 C 71.21940612792969 376.7155456542969 72.28588104248047 373.6271667480469 72.56327056884766 371.319580078125 C 74.58624267578125 366.5633239746094 76.6453628540039 363.2501525878906 77.7566146850586 358.8452453613281 C 79.57866668701172 354.04345703125 80.92926788330078 351.12445068359375 81.9994888305664 347.7874450683594 C 84.4912109375 345.00616455078125 85.37345123291016 345.11248779296875 85.80049133300781 343.7335205078125 C 88.44093322753906 343.2789611816406 90.3436279296875 343.9276123046875 93.34737396240234 339.9628601074219 C 96.63499450683594 340.2330627441406 98.51307678222656 340.5882263183594 101.01602172851562 341.2965087890625 C 104.65422058105469 341.25152587890625 106.50728607177734 341.1639709472656 108.0323486328125 341.109130859375 C 110.16378021240234 341.4219055175781 112.07299041748047 341.6479797363281 114.27247619628906 342.9356384277344 C 113.95806884765625 345.0717468261719 118.42008972167969 346.9795227050781 119.27061462402344 349.0705261230469 C 120.62161254882812 350.9236755371094 122.10479736328125 353.4197692871094 123.05101013183594 356.3658142089844 C 123.77647399902344 358.1142272949219 124.37110900878906 360.5514221191406 125.20305633544922 362.1565856933594 C 126.05364990234375 363.90863037109375 127.09058380126953 366.5527648925781 127.92274475097656 368.1938781738281 C 129.5419464111328 371.0826110839844 130.63818359375 373.2505187988281 132.48863220214844 377.1744689941406 C 133.0913543701172 379.5927429199219 134.4646453857422 387.26043701171875 134.08831787109375 379.8587951660156 C 136.3695831298828 384.246826171875 137.675048828125 387.6599426269531 138.6715850830078 390.7175598144531 C 140.08349609375 394.8948669433594 140.5779266357422 397.3598327636719 141.2154541015625 400.50164794921875 C 142.3241729736328 403.241455078125 142.83262634277344 404.9111633300781 143.97048950195312 407.8828125 C 144.8993682861328 410.441162109375 145.3925018310547 411.85516357421875 147.00392150878906 415.0052185058594 C 148.4143829345703 418.3994140625 149.06887817382812 419.56451416015625 150.53823852539062 425.1451721191406 C 151.32460021972656 427.32647705078125 152.38943481445312 429.71051025390625 153.41636657714844 432.01824951171875 C 154.58096313476562 434.87200927734375 155.80934143066406 437.7975769042969 157.04310607910156 441.2738037109375 C 158.90904235839844 445.3004455566406 159.18585205078125 446.3668212890625 160.22271728515625 449.7848205566406 C 160.7425537109375 451.6405029296875 161.24871826171875 453.4837951660156 162.34461975097656 457.63018798828125 C 162.54037475585938 461.4659118652344 162.6752166748047 463.76019287109375 162.8715362548828 466.24755859375 C 158.0430145263672 465.1519775390625 152.8743133544922 464.2977294921875 149.7057342529297 464.2703857421875 C 144.98422241210938 464.2740478515625 144.67333984375 462.8070068359375 140.3696746826172 464.2983703613281M 108.86674499511719 383.2948303222656 C 108.9862289428711 384.6614685058594 108.10464477539062 382.3771057128906 106.54194641113281 378.97650146484375 C 105.35985565185547 376.0111083984375 104.36066436767578 372.6416320800781 103.17424011230469 369.8009033203125 C 102.14802551269531 366.9798583984375 101.31697845458984 364.3426208496094 100.77423095703125 362.6910705566406 C 100.39945983886719 364.2703857421875 99.80850219726562 367.18243408203125 99.295654296875 370.3222351074219 C 98.3709945678711 373.14959716796875 97.33560943603516 376.24346923828125 96.64291381835938 379.42816162109375 C 95.7088394165039 382.9400634765625 95.51129150390625 384.2039794921875 94.96861267089844 388.25762939453125 C 94.87541198730469 389.05450439453125 93.29474639892578 393.6243896484375 91.70970916748047 397.9234924316406 C 89.8283462524414 402.48046875 88.41313934326172 406.3170471191406 87.3091049194336 409.85455322265625 C 91.62255859375 409.919921875 97.85808563232422 410.13714599609375 103.4391098022461 411.24609375 C 108.15052795410156 409.4649963378906 112.83592224121094 409.8602294921875 119.12478637695312 410.5186462402344 C 117.64226531982422 405.1769104003906 116.23612213134766 400.4826965332031 114.69967651367188 395.8611755371094 C 113.0361099243164 392.78436279296875 110.62407684326172 387.9884948730469 108.86674499511719 383.2948303222656"/>
    <path stroke-width="0" fill="rgb(0, 0, 0)" opacity="1.0" d="M 218.42971801757812 337.4988098144531 C 222.16824340820312 337.4235534667969 225.61306762695312 338.0623474121094 222.54397583007812 337.744873046875 C 224.93345642089844 338.1151123046875 226.9651641845703 338.44940185546875 228.77175903320312 338.58282470703125 C 232.85679626464844 338.650146484375 236.6795654296875 339.7972106933594 239.10784912109375 340.7259826660156 C 241.5518035888672 341.5931701660156 242.85659790039062 342.09991455078125 246.14645385742188 344.0500793457031 C 247.7200164794922 344.9700012207031 249.45640563964844 345.88800048828125 252.15415954589844 348.0960693359375 C 253.69520568847656 349.31744384765625 255.1852569580078 351.1282653808594 256.963623046875 354.1891784667969 C 258.01568603515625 355.57373046875 258.9478454589844 357.1245422363281 260.5504150390625 360.58331298828125 C 261.2901306152344 362.5599060058594 261.9138488769531 364.45831298828125 262.4016418457031 367.2039489746094 C 262.7384033203125 368.1982727050781 263.443359375 372.39447021484375 263.73712158203125 377.1452331542969 C 263.82781982421875 380.7449035644531 263.52899169921875 383.52032470703125 263.06829833984375 386.2127380371094 C 262.728759765625 388.1553649902344 262.0540466308594 390.7267150878906 261.13763427734375 393.3384094238281 C 260.3831787109375 395.9051513671875 259.1026611328125 398.1993103027344 257.9881591796875 399.84417724609375 C 256.6265869140625 401.916015625 255.0369110107422 403.9816589355469 253.7087860107422 405.27728271484375 C 251.2638702392578 408.0753479003906 250.11146545410156 409.034423828125 248.33450317382812 410.44842529296875 C 245.2176055908203 413.16754150390625 243.7454833984375 414.0366516113281 241.58180236816406 415.3393249511719 C 237.35586547851562 417.2265930175781 235.1883087158203 417.91302490234375 230.58148193359375 418.8963928222656 C 227.7999725341797 419.1261901855469 222.6374053955078 419.63385009765625 220.2115020751953 419.7149353027344 C 217.0381317138672 419.789794921875 214.14791870117188 419.73980712890625 212.21475219726562 419.66717529296875 C 208.83929443359375 419.36688232421875 205.98544311523438 419.1200866699219 204.63644409179688 418.9972839355469 C 205.19252014160156 422.1813659667969 205.55361938476562 424.0989074707031 206.26080322265625 430.2556457519531 C 206.35519409179688 432.46685791015625 206.4438934326172 433.67376708984375 206.0467987060547 435.08795166015625 C 205.39051818847656 428.5564270019531 206.0248565673828 432.8457946777344 205.86846923828125 434.66094970703125 C 206.40638732910156 437.62139892578125 207.20074462890625 442.1643981933594 207.08860778808594 443.27923583984375 C 207.09078979492188 440.4418029785156 207.06509399414062 443.5284729003906 206.26771545410156 449.09991455078125 C 206.3699188232422 445.21331787109375 206.04383850097656 448.41998291015625 205.99082946777344 451.35418701171875 C 204.60513305664062 451.4432373046875 205.01864624023438 453.6886291503906 203.25819396972656 453.89447021484375 C 204.05072021484375 455.6636047363281 204.83445739746094 457.6721496582031 205.4832000732422 459.3902587890625 C 203.1087646484375 460.4664611816406 200.34567260742188 461.9130554199219 197.68710327148438 463.2691650390625 C 194.75112915039062 463.52838134765625 189.96884155273438 463.412841796875 190.15118408203125 465.4442443847656 C 188.41575622558594 464.85308837890625 185.6071014404297 463.9151916503906 182.24388122558594 462.6036376953125 C 180.0591278076172 461.8503723144531 178.0815887451172 461.20751953125 176.24905395507812 460.74798583984375 C 176.65904235839844 458.6178894042969 177.20037841796875 456.47039794921875 178.11895751953125 452.93780517578125 C 178.5958251953125 450.81475830078125 179.5786895751953 447.08154296875 176.48646545410156 446.72869873046875 C 177.28399658203125 441.1206359863281 177.53073120117188 442.9206848144531 178.4893798828125 437.5320129394531 C 177.97044372558594 442.37640380859375 177.2555694580078 435.586669921875 177.15765380859375 432.8145751953125 C 177.65908813476562 429.55377197265625 177.63539123535156 433.64398193359375 177.68641662597656 430.35772705078125 C 176.92140197753906 426.4630432128906 176.25840759277344 422.83135986328125 175.68792724609375 417.0527038574219 C 175.6963348388672 415.2254333496094 175.5768585205078 409.25494384765625 175.54580688476562 406.406982421875 C 175.89169311523438 401.5990295410156 176.69473266601562 397.159912109375 177.20327758789062 393.3868713378906 C 177.5955810546875 390.62017822265625 177.02980041503906 393.30902099609375 177.07664489746094 390.7387390136719 C 177.37982177734375 387.7685546875 177.641357421875 385.4970703125 177.57080078125 382.558837890625 C 177.45033264160156 380.59307861328125 177.33531188964844 383.1097717285156 176.77450561523438 379.3633728027344 C 176.79420471191406 376.5028076171875 177.14625549316406 373.2715148925781 177.49295043945312 370.183837890625 C 177.40524291992188 363.98779296875 177.64962768554688 367.5174560546875 178.1089324951172 360.1891174316406 C 178.49708557128906 357.1031188964844 179.5637664794922 351.9552001953125 175.9161376953125 358.1763000488281 C 175.9072265625 355.740966796875 176.60519409179688 349.31134033203125 182.4519805908203 350.4301452636719 C 182.87765502929688 347.4011535644531 183.43704223632812 344.975341796875 183.73887634277344 343.2165222167969 C 186.271484375 343.3313293457031 189.349609375 343.4205627441406 189.5421600341797 341.59844970703125 C 192.16690063476562 341.766845703125 192.06973266601562 338.9619140625 194.5939178466797 338.7665710449219 C 198.16941833496094 338.56591796875 201.58700561523438 338.1345520019531 206.20941162109375 337.63641357421875 C 209.69271850585938 337.5818176269531 213.27783203125 337.3941650390625 218.42971801757812 337.4988098144531M 216.62832641601562 363.34490966796875 C 214.2532958984375 363.4323425292969 212.87496948242188 363.54034423828125 210.4102325439453 363.5341796875 C 209.47691345214844 363.58544921875 208.17877197265625 363.47216796875 206.74989318847656 363.55316162109375 C 206.57186889648438 365.60125732421875 206.04666137695312 368.42230224609375 205.71556091308594 372.26190185546875 C 205.65438842773438 375.1356201171875 205.58782958984375 376.8278503417969 205.6981201171875 378.5431823730469 C 205.94122314453125 382.0086669921875 205.87457275390625 383.3860778808594 205.57093811035156 386.439453125 C 205.42605590820312 389.74151611328125 205.28663635253906 392.0351867675781 205.24342346191406 394.57513427734375 C 207.69866943359375 394.84161376953125 210.09963989257812 395.0950622558594 212.54132080078125 395.345947265625 C 214.205322265625 395.60931396484375 215.26113891601562 395.6472473144531 218.08567810058594 395.5097961425781 C 221.45555114746094 395.0713806152344 223.20860290527344 394.5467834472656 224.67208862304688 393.7850646972656 C 227.15573120117188 392.82427978515625 229.1581573486328 391.06427001953125 230.6206512451172 388.3321533203125 C 231.2815399169922 387.12823486328125 232.0338592529297 385.5213623046875 232.67471313476562 383.81005859375 C 233.2682647705078 381.5125732421875 233.4705352783203 379.6714172363281 233.5318603515625 378.5246887207031 C 233.4267120361328 376.4806213378906 232.73239135742188 373.8434753417969 232.13601684570312 371.89019775390625 C 231.38377380371094 369.8483581542969 230.49765014648438 368.5585632324219 228.87791442871094 366.8341369628906 C 227.6389923095703 365.7688293457031 226.0304718017578 364.8724670410156 223.52474975585938 364.2947082519531 C 221.56593322753906 363.7857666015625 220.0467529296875 363.6441955566406 216.62832641601562 363.34490966796875"/>
    <path stroke-width="0" fill="rgb(0, 0, 0)" opacity="1.0" d="M 319.1841735839844 338.8371887207031 C 317.285400390625 337.6952819824219 327.1278381347656 334.5842590332031 320.615966796875 338.82769775390625 C 312.6710510253906 334.1763610839844 317.8866882324219 337.6942138671875 330.7031555175781 340.96832275390625 C 340.1065979003906 340.943359375 343.47259521484375 343.8009033203125 345.9565124511719 349.3583679199219 C 350.7681884765625 344.141845703125 346.8135986328125 356.412841796875 335.7518310546875 342.46807861328125 C 347.0189208984375 347.4034423828125 356.5552673339844 351.4501037597656 354.9124450683594 353.14312744140625 C 355.4941711425781 348.3255310058594 353.3279724121094 354.2434997558594 352.34088134765625 352.1330261230469 C 360.96173095703125 360.67913818359375 364.99853515625 362.5757751464844 368.4039611816406 375.8772888183594 C 370.25933837890625 365.2986145019531 369.3598937988281 372.539306640625 366.1747741699219 367.0401306152344 C 373.72137451171875 386.80078125 367.98468017578125 393.6484680175781 358.78118896484375 361.84814453125 C 367.166259765625 361.4448547363281 373.7503967285156 375.44610595703125 372.1775207519531 392.7484130859375 C 370.19232177734375 399.2542419433594 374.9723205566406 397.8943176269531 370.2431640625 401.61163330078125 C 364.1524353027344 403.21209716796875 362.0836486816406 394.8728332519531 372.06353759765625 394.05279541015625 C 369.50640869140625 403.57476806640625 364.4493713378906 408.8592529296875 364.7008361816406 407.1383361816406 C 360.8446044921875 411.447021484375 358.2883605957031 417.41180419921875 352.2348937988281 417.9958190917969 C 357.1174621582031 413.06744384765625 358.3216552734375 417.9670715332031 350.242919921875 418.0631103515625 C 344.0391540527344 423.5484313964844 337.1428527832031 423.09918212890625 333.337646484375 420.8206787109375 C 313.8734436035156 423.10791015625 302.7251892089844 422.5039367675781 309.0807800292969 421.1219482421875 C 337.44940185546875 414.2823486328125 331.0235290527344 414.7786560058594 341.1659851074219 422.9875183105469 C 317.5254821777344 426.60107421875 311.8430480957031 422.75714111328125 300.61163330078125 419.5892639160156 C 305.7247314453125 410.9333190917969 310.2897644042969 412.98095703125 307.7099304199219 413.90252685546875 C 305.6153869628906 428.3150329589844 308.6943359375 434.8949279785156 307.83154296875 433.8575134277344 C 308.5523681640625 430.4775390625 310.0938415527344 433.36614990234375 304.5527648925781 450.4013671875 C 303.2888488769531 452.44830322265625 305.5390625 450.6394348144531 298.7979736328125 439.2525939941406 C 300.9524230957031 434.3239440917969 313.3617248535156 433.7273254394531 306.2110290527344 440.01129150390625 C 304.4432678222656 441.76470947265625 309.4709167480469 443.68121337890625 308.1591491699219 452.62640380859375 C 305.6200256347656 462.7247009277344 299.0478515625 461.50201416015625 297.91796875 442.4466247558594 C 305.2323303222656 432.0050964355469 302.037841796875 441.9720458984375 304.7003479003906 454.8336181640625 C 309.48809814453125 463.020751953125 295.3714294433594 465.3061218261719 294.0135192871094 458.9398193359375 C 310.0653381347656 458.2482604980469 299.27838134765625 465.15277099609375 304.4839782714844 460.3838806152344 C 297.7345275878906 466.9119873046875 282.1360778808594 463.3162536621094 287.2857666015625 462.9652099609375 C 285.3284912109375 463.46929931640625 280.9264831542969 461.2060546875 280.12200927734375 451.8915710449219 C 282.84912109375 448.1501770019531 284.4108581542969 435.6780090332031 290.0789794921875 448.17901611328125 C 281.7864685058594 453.1222839355469 284.76983642578125 444.608642578125 284.8176574707031 446.8662109375 C 281.8947448730469 444.31146240234375 277.6658935546875 425.6082763671875 284.7483215332031 417.52923583984375 C 292.1501770019531 437.40582275390625 299.0931091308594 438.2279968261719 289.8738098144531 441.1587829589844 C 284.4625244140625 431.3829650878906 284.0423278808594 430.08416748046875 283.8357238769531 431.5501708984375 C 280.73638916015625 431.99951171875 280.52960205078125 417.5630187988281 284.8148193359375 404.6084289550781 C 295.1833801269531 402.8875427246094 292.0660705566406 407.7801208496094 293.99542236328125 415.3071594238281 C 287.17144775390625 413.28717041015625 284.89227294921875 415.5037536621094 284.9803161621094 418.04901123046875 C 286.9565734863281 423.0640869140625 283.18963623046875 419.6522216796875 282.7448425292969 406.29376220703125 C 278.2763366699219 391.60333251953125 279.1882629394531 373.334716796875 293.87811279296875 391.9823913574219 C 275.24359130859375 394.16815185546875 278.43896484375 384.9497985839844 285.1359558105469 362.8269958496094 C 291.5226135253906 362.66156005859375 292.24212646484375 369.0798034667969 284.76092529296875 381.3348388671875 C 283.6533508300781 374.0321044921875 286.4515686035156 368.12139892578125 284.09283447265625 382.1327209472656 C 281.0677795410156 364.6572570800781 293.1456298828125 353.5341796875 294.0183410644531 360.76220703125 C 280.81085205078125 375.7757263183594 284.3705749511719 370.7437438964844 285.717041015625 353.0825500488281 C 289.5093688964844 354.77288818359375 285.3470153808594 345.0745849609375 285.8807373046875 365.469970703125 C 291.4094543457031 353.2338562011719 297.9622497558594 353.70477294921875 302.50067138671875 348.8547058105469 C 303.8753356933594 347.66888427734375 312.266845703125 339.503662109375 321.2609558105469 338.1502990722656 C 311.1737976074219 339.5553283691406 317.518798828125 339.8573303222656 312.2508544921875 341.7080993652344 C 312.3857116699219 342.0672912597656 316.8836364746094 342.9863586425781 319.1841735839844 338.8371887207031M 338.4421081542969 366.7822570800781 C 315.4287109375 371.9540100097656 308.1888427734375 363.5902099609375 329.065185546875 367.550048828125 C 318.2568359375 373.6290588378906 316.1434631347656 375.1410217285156 314.17633056640625 377.3903503417969 C 299.91912841796875 374.0238037109375 293.8887634277344 367.9225769042969 314.9024963378906 363.9566650390625 C 308.7196960449219 368.64190673828125 305.4747009277344 368.5533142089844 309.834716796875 370.8418273925781 C 314.41522216796875 379.0669860839844 313.68695068359375 373.8411865234375 307.5076904296875 385.6036376953125 C 309.0270080566406 391.76190185546875 313.0176086425781 392.1430358886719 314.9251708984375 395.6429748535156 C 315.3097839355469 395.0236511230469 313.76202392578125 392.59423828125 314.12042236328125 393.9864501953125 C 309.90771484375 389.97467041015625 311.56524658203125 390.9936218261719 313.2214050292969 391.7135925292969 C 316.5549621582031 394.9559631347656 304.9257507324219 396.5318603515625 318.50360107421875 403.64996337890625 C 327.8573913574219 406.86651611328125 337.9483947753906 402.4755859375 344.22314453125 392.2308654785156 C 348.4246520996094 390.014404296875 344.09075927734375 377.3902893066406 343.8990478515625 391.12786865234375 C 345.4958801269531 370.7779235839844 347.15203857421875 371.3025207519531 348.61676025390625 388.7192687988281 C 346.77008056640625 385.5354919433594 346.6763610839844 372.6574401855469 337.0757141113281 371.5142822265625 C 330.31475830078125 370.05755615234375 333.9338684082031 361.9008483886719 336.61456298828125 372.2754211425781 C 325.7892761230469 367.2032165527344 319.1501159667969 367.1242980957031 321.4253845214844 361.6474914550781 C 321.09722900390625 360.2428283691406 326.532958984375 352.6647644042969 338.4421081542969 366.7822570800781"/>
    <path stroke-width="0" fill="rgb(0, 0, 0)" opacity="1.0" d="M 394.1031799316406 453.85601806640625 C 395.2926330566406 452.28924560546875 396.4571838378906 450.5597839355469 393.4521179199219 449.3806457519531 C 394.2481689453125 447.8654479980469 389.9291687011719 445.92669677734375 389.99761962890625 444.8366394042969 C 389.92901611328125 441.03936767578125 389.9984130859375 437.9098815917969 389.88507080078125 438.9826354980469 C 389.6679382324219 436.24761962890625 389.3779296875 434.8383483886719 388.98065185546875 433.1687927246094 C 388.6744079589844 429.9898986816406 389.2449951171875 434.9977111816406 386.70135498046875 428.0206298828125 C 386.74591064453125 417.828857421875 386.05706787109375 414.2652893066406 386.46875 411.98773193359375 C 387.3142395019531 405.9956359863281 387.4764404296875 404.09857177734375 388.5174865722656 411.4485778808594 C 386.8890686035156 406.0987548828125 386.7071838378906 401.0242919921875 386.6629638671875 398.1283264160156 C 386.6233215332031 396.8834533691406 386.2687683105469 394.8082275390625 385.770263671875 389.1560974121094 C 385.8533935546875 385.8811950683594 385.7304382324219 383.2710266113281 387.6080627441406 378.0444641113281 C 386.6905517578125 383.2547912597656 387.02227783203125 382.1719055175781 386.7090148925781 379.53448486328125 C 386.6419982910156 378.596435546875 386.49444580078125 375.5111999511719 386.0264892578125 371.5523376464844 C 385.8401184082031 366.8053283691406 386.14715576171875 363.4617919921875 386.192138671875 362.4225769042969 C 386.1465759277344 361.1089172363281 385.20428466796875 357.3475646972656 384.69024658203125 352.75921630859375 C 385.00408935546875 349.9972839355469 385.25994873046875 346.44677734375 387.7723693847656 347.04437255859375 C 388.2563171386719 343.1108093261719 388.59381103515625 340.281494140625 388.8372802734375 337.4886169433594 C 391.3188171386719 337.76318359375 394.3712463378906 337.75579833984375 396.9748229980469 337.8817443847656 C 398.4383239746094 337.9223937988281 398.9187927246094 336.974609375 401.8326110839844 337.7218322753906 C 404.4120178222656 337.9894104003906 404.53826904296875 339.35125732421875 406.35809326171875 339.3858947753906 C 408.34130859375 339.0656433105469 410.47186279296875 339.8853759765625 412.1853332519531 340.5359802246094 C 411.6470031738281 342.04266357421875 411.0643310546875 343.94171142578125 413.12152099609375 344.2385559082031 C 413.35894775390625 345.9289245605469 413.7132873535156 348.4185791015625 413.6335754394531 349.7891845703125 C 413.4324645996094 352.853515625 413.4416809082031 354.0843505859375 413.5301208496094 355.16729736328125 C 413.83441162109375 357.6390075683594 413.63885498046875 362.8255615234375 413.3544616699219 365.6332702636719 C 412.85321044921875 369.8612365722656 412.9847717285156 373.1935729980469 413.31268310546875 376.819091796875 C 413.541259765625 380.6160888671875 413.60443115234375 381.5103454589844 413.52471923828125 386.43011474609375 C 413.20770263671875 387.24530029296875 412.1587219238281 389.56439208984375 412.6609191894531 384.0736083984375 C 412.53125 388.0649719238281 413.58807373046875 393.7126770019531 413.9045715332031 399.2861328125 C 413.4547424316406 402.7478332519531 413.5212097167969 404.4380798339844 413.2686767578125 401.90997314453125 C 415.0113525390625 406.69061279296875 414.9554748535156 407.740966796875 414.9092712402344 411.04498291015625 C 414.7500305175781 416.2633361816406 413.7715759277344 421.31451416015625 414.9609375 412.63623046875 C 415.0357971191406 422.1786804199219 415.2984924316406 424.1554260253906 416.0662536621094 426.59979248046875 C 416.1312255859375 428.4030456542969 416.2275695800781 429.278564453125 416.24090576171875 430.1704406738281 C 416.3533020019531 431.47723388671875 416.40240478515625 434.4372253417969 416.5774841308594 437.84686279296875 C 422.4007568359375 437.7577819824219 429.29779052734375 439.3334045410156 421.6145935058594 440.0682067871094 C 431.6720886230469 439.1869201660156 437.9416809082031 439.1851806640625 444.9642028808594 439.3480224609375 C 439.88226318359375 439.1622314453125 446.89764404296875 437.4516906738281 449.67767333984375 437.14971923828125 C 455.7528076171875 437.5446472167969 459.890869140625 438.0426025390625 462.6873474121094 437.80523681640625 C 463.0448303222656 440.56365966796875 463.8807373046875 445.7451171875 464.3329772949219 450.4781188964844 C 464.3609924316406 452.2322998046875 464.24041748046875 456.85601806640625 463.974365234375 459.89898681640625 C 461.6986999511719 459.7948303222656 459.23468017578125 459.8802490234375 456.3179931640625 460.4978332519531 C 452.7579345703125 461.2299499511719 451.2774353027344 461.3209533691406 449.75341796875 461.58831787109375 C 444.1664123535156 463.87982177734375 441.46124267578125 463.479736328125 437.93402099609375 463.8009033203125 C 434.5398254394531 464.0662841796875 430.0767822265625 464.644775390625 426.26824951171875 465.8945007324219 C 422.4521484375 465.0587158203125 416.4096374511719 463.7408142089844 411.3080749511719 462.5450134277344 C 405.92041015625 460.8906555175781 402.3592834472656 459.74542236328125 401.28680419921875 459.8411560058594 C 402.4231872558594 461.25299072265625 401.0901184082031 460.8193664550781 398.37469482421875 460.5444641113281 C 399.18170166015625 457.86700439453125 396.46923828125 455.97161865234375 394.1031799316406 453.85601806640625"/>
    <path stroke-width="0" fill="rgb(0, 0, 0)" opacity="1.0" d="M 550.230712890625 456.520751953125 C 547.7382202148438 456.310302734375 545.2837524414062 456.0212707519531 546.1917114257812 460.0871887207031 C 543.1387329101562 460.4002990722656 539.816162109375 460.7032470703125 536.4647827148438 460.9119567871094 C 535.1331787109375 460.92523193359375 533.9296875 461.0689697265625 530.3428344726562 461.8950500488281 C 527.713134765625 462.7908630371094 521.330078125 462.4282531738281 519.51953125 462.6196594238281 C 515.6780395507812 462.3409118652344 512.0611572265625 462.5613708496094 509.5683898925781 462.7927551269531 C 505.9056396484375 462.6636047363281 504.6933898925781 462.8385314941406 498.65728759765625 462.5190124511719 C 497.2148132324219 462.7574768066406 497.6180419921875 457.7178039550781 495.6087646484375 457.7421875 C 495.921142578125 453.80950927734375 493.08526611328125 454.2086181640625 491.0437316894531 454.73626708984375 C 490.4246520996094 452.8563537597656 490.0034484863281 450.8957214355469 489.48760986328125 448.8224792480469 C 485.53021240234375 448.3373718261719 485.52191162109375 445.0245056152344 480.7323303222656 445.06005859375 C 480.8158874511719 441.05511474609375 483.2029724121094 445.8170471191406 481.5163879394531 441.35650634765625 C 481.8367614746094 439.85455322265625 482.124755859375 436.16046142578125 482.10321044921875 431.3653869628906 C 482.36566162109375 433.49481201171875 481.3822021484375 430.8104553222656 480.7168273925781 427.0488586425781 C 480.3096923828125 423.85845947265625 480.9832763671875 425.98040771484375 481.1987609863281 422.4524841308594 C 481.2447814941406 415.27471923828125 482.27777099609375 410.7095642089844 482.93994140625 405.7487487792969 C 483.65972900390625 404.0710754394531 484.65673828125 401.6541748046875 485.289306640625 400.04583740234375 C 482.7096862792969 402.7183532714844 483.07379150390625 396.8721923828125 483.42431640625 392.5204162597656 C 483.45916748046875 389.11907958984375 483.86712646484375 385.94610595703125 484.48431396484375 382.19390869140625 C 485.1252746582031 387.92889404296875 484.7688903808594 385.49237060546875 484.00372314453125 381.7640686035156 C 483.5101623535156 377.7174987792969 484.10528564453125 374.89129638671875 484.37158203125 372.40777587890625 C 484.32806396484375 367.74542236328125 485.6431884765625 361.46112060546875 486.535888671875 358.4100646972656 C 486.6299743652344 356.5787658691406 486.660400390625 353.0411376953125 486.9493103027344 349.92572021484375 C 487.46881103515625 348.9477233886719 488.5064392089844 344.42236328125 490.03753662109375 344.42156982421875 C 492.1919860839844 343.5802307128906 491.2164001464844 341.87567138671875 490.1520690917969 340.0129699707031 C 492.4021301269531 338.5838623046875 494.86517333984375 337.2156982421875 497.4354553222656 336.7603759765625 C 498.40289306640625 336.8347473144531 503.0047912597656 336.7913818359375 501.85113525390625 338.2523498535156 C 504.6532287597656 338.20550537109375 504.0973205566406 338.5285339355469 506.41864013671875 338.2095947265625 C 511.35443115234375 337.0323486328125 507.7729797363281 336.9322509765625 512.051513671875 336.77850341796875 C 517.4451293945312 336.8291320800781 523.0094604492188 337.7020568847656 529.0018920898438 338.5348205566406 C 532.5794067382812 338.62298583984375 534.4006958007812 338.5380554199219 536.0692749023438 338.214599609375 C 540.1563720703125 339.2151184082031 541.6097412109375 339.18499755859375 547.2744750976562 340.3157043457031 C 548.5795288085938 340.1536560058594 551.4600830078125 339.83612060546875 554.2578125 339.43756103515625 C 554.595703125 340.87274169921875 555.2557983398438 342.9571838378906 555.6947021484375 343.9898376464844 C 555.9619140625 345.0366516113281 556.9139404296875 350.1890563964844 557.2025146484375 353.13653564453125 C 557.2799072265625 355.65789794921875 556.724365234375 357.463134765625 556.2418823242188 358.8031921386719 C 555.6937866210938 360.4637145996094 554.7203369140625 362.33770751953125 554.2061157226562 363.4635925292969 C 551.1104736328125 362.32110595703125 547.3419799804688 360.9422302246094 546.846923828125 364.717529296875 C 544.9947509765625 364.9084167480469 540.1008911132812 364.58343505859375 536.07763671875 364.23394775390625 C 534.41552734375 364.1266174316406 539.0267944335938 364.1736145019531 536.885498046875 364.39324951171875 C 534.5455932617188 364.63787841796875 530.5267944335938 364.7626647949219 527.0077514648438 364.47564697265625 C 522.409912109375 364.1025390625 519.6448974609375 363.6397705078125 517.8648071289062 363.4020690917969 C 513.8964233398438 363.2044372558594 508.654296875 363.2333679199219 512.7318115234375 362.89129638671875 C 511.8946533203125 365.5707702636719 511.3332824707031 367.5558166503906 511.2605895996094 369.6932067871094 C 511.33367919921875 371.6998291015625 511.4422607421875 373.7154235839844 511.1876220703125 377.8410339355469 C 510.80181884765625 382.17181396484375 510.75555419921875 377.10589599609375 510.8673095703125 378.048828125 C 511.64697265625 382.2597961425781 511.9239807128906 383.7604675292969 511.2142333984375 388.1686096191406 C 513.6712646484375 388.09796142578125 520.1590576171875 387.9914245605469 527.8058471679688 388.0580749511719 C 530.2628784179688 387.5144348144531 533.5870971679688 386.95184326171875 530.4931640625 387.1128234863281 C 532.931640625 386.9900207519531 538.5308227539062 387.5311279296875 542.9866333007812 387.5984802246094 C 546.8912963867188 387.4321594238281 549.8264770507812 387.510498046875 552.181884765625 387.89910888671875 C 552.08251953125 388.7863464355469 552.2138061523438 389.88861083984375 552.3997192382812 391.7335205078125 C 552.3743896484375 393.610595703125 552.4313354492188 395.1000671386719 552.5296630859375 396.7379150390625 C 553.2713012695312 402.08551025390625 553.119873046875 403.646484375 552.376953125 403.76904296875 C 552.7466430664062 405.69891357421875 553.2828369140625 407.2225036621094 554.200439453125 409.7200927734375 C 550.456298828125 410.785888671875 546.129150390625 411.7944641113281 542.5533447265625 411.9395751953125 C 538.80517578125 412.55120849609375 534.0975952148438 412.8203430175781 529.5823364257812 412.8798522949219 C 537.3447875976562 413.5390930175781 532.8325805664062 414.4378662109375 528.3187866210938 414.49652099609375 C 520.0968627929688 413.3626708984375 517.1396484375 413.2256774902344 510.4345703125 413.0504150390625 C 509.26123046875 417.3708801269531 508.9505920410156 419.3915710449219 508.7982482910156 421.5649719238281 C 507.95184326171875 419.0203857421875 508.0190124511719 420.8721923828125 508.2127990722656 421.80853271484375 C 509.1839904785156 425.1434020996094 509.6454772949219 426.5977478027344 509.53753662109375 432.7071838378906 C 509.8538818359375 435.4407043457031 510.358154296875 440.4722595214844 509.6695556640625 435.3081359863281 C 515.5333862304688 435.53619384765625 519.54931640625 436.1289978027344 517.07861328125 435.8769836425781 C 518.9754028320312 435.908447265625 520.6114501953125 435.79522705078125 526.2681274414062 435.628173828125 C 520.7664184570312 436.9600830078125 521.8590087890625 436.5704345703125 526.05126953125 435.8470764160156 C 528.3123779296875 435.20489501953125 531.2804565429688 434.7316589355469 532.9287109375 434.6734619140625 C 536.705322265625 434.9512023925781 539.1303100585938 434.8545837402344 542.1744995117188 434.4368591308594 C 545.7673950195312 434.5682373046875 549.288330078125 436.0282897949219 552.673828125 437.4551086425781 C 552.2118530273438 438.9944763183594 551.6117553710938 440.71875 551.1646118164062 442.5259094238281 C 554.7872924804688 442.398681640625 555.0309448242188 445.41485595703125 555.06689453125 446.5449523925781 C 550.424560546875 448.4654846191406 550.8314208984375 449.4478454589844 550.7978515625 451.39764404296875 C 550.6680908203125 453.001220703125 550.4154663085938 454.8652038574219 550.230712890625 456.520751953125"/>
    <path stroke-width="0" fill="rgb(0, 0, 0)" opacity="1.0" d="M 138.9817352294922 286.856689453125 C 130.1032257080078 286.3974609375 123.4233627319336 283.665283203125 119.28504180908203 279.9474792480469 C 115.62132263183594 277.0660095214844 110.14051055908203 271.1920166015625 107.37078857421875 265.1232604980469 C 105.72999572753906 255.99789428710938 102.8197250366211 254.07046508789062 105.20203399658203 248.47238159179688 C 95.70783996582031 229.83868408203125 91.42372131347656 205.8916778564453 80.69107055664062 179.65109252929688 C 88.3152847290039 176.9425048828125 97.53775787353516 173.41859436035156 107.46635437011719 170.75718688964844 C 114.4004898071289 193.88853454589844 119.62840270996094 217.05868530273438 124.06969451904297 238.81100463867188 C 125.08045959472656 243.5914306640625 126.90519714355469 248.219970703125 129.4348907470703 252.0981903076172 C 131.5947723388672 255.91781616210938 134.10797119140625 259.51922607421875 135.71670532226562 260.5802001953125 C 136.6680450439453 261.0392150878906 138.1605682373047 261.5403747558594 143.0897979736328 261.70941162109375 C 148.7385711669922 262.46331787109375 152.50025939941406 264.2354736328125 154.16683959960938 266.7060546875 C 155.996826171875 268.9187316894531 156.79550170898438 271.61492919921875 156.6630401611328 275.7615661621094 C 156.01873779296875 280.03326416015625 154.1077423095703 283.1274719238281 150.5988311767578 285.3760681152344 C 147.96116638183594 287.0540771484375 144.17681884765625 287.592529296875 138.9817352294922 286.856689453125M 110.64977264404297 263.0259094238281 C 72.891357421875 267.27801513671875 68.96601867675781 263.025390625 76.63716888427734 268.42498779296875 C 92.06993865966797 266.1075439453125 85.44762420654297 264.7366943359375 71.54517364501953 262.63592529296875 C 67.85389709472656 278.8064270019531 57.34091567993164 288.7432861328125 42.96266555786133 281.6878356933594 C 29.0003604888916 275.28240966796875 38.314697265625 273.4815673828125 51.77939987182617 259.7205505371094 C 57.709957122802734 250.09335327148438 59.652862548828125 241.78634643554688 63.47285079956055 240.14358520507812 C 66.18983459472656 227.86012268066406 68.7183609008789 220.51022338867188 69.70864868164062 212.2527313232422 C 71.79106140136719 208.80361938476562 75.5844497680664 201.41629028320312 80.86383819580078 183.50315856933594 C 90.94074249267578 167.23019409179688 82.23265075683594 193.361083984375 89.90687561035156 189.6983184814453 C 93.58162689208984 199.31907653808594 96.92584228515625 208.2815704345703 100.07559204101562 217.94630432128906 C 95.17298889160156 219.18240356445312 90.78865051269531 221.09938049316406 92.68717956542969 214.9930877685547 C 88.48727416992188 217.9239044189453 91.47335052490234 222.44528198242188 87.2223129272461 233.8760528564453 C 87.71446990966797 231.6466522216797 78.12504577636719 235.73281860351562 87.15100860595703 230.37852478027344 C 88.11969757080078 245.2801513671875 82.58840942382812 249.40692138671875 83.20771789550781 238.06735229492188 C 83.68814849853516 224.71632385253906 85.7393798828125 236.06459045410156 84.84284973144531 237.74891662597656 C 80.11845397949219 248.93101501464844 74.81246185302734 254.695556640625 63.58407211303711 237.60302734375 C 68.19088745117188 237.0656280517578 81.74722290039062 234.14578247070312 101.87356567382812 236.30316162109375 C 108.73658752441406 238.49794006347656 110.40643310546875 244.11358642578125 99.27729797363281 247.87051391601562 C 102.60700988769531 246.5591278076172 106.01465606689453 244.87612915039062 108.9862289428711 242.98634338378906 C 110.9755630493164 250.62094116210938 111.71273803710938 257.6080017089844 110.64977264404297 263.0259094238281M 94.10283660888672 164.26898193359375 C 97.81421661376953 161.4580535888672 94.704345703125 176.92759704589844 90.12606048583984 174.36019897460938 C 91.00318908691406 165.56382751464844 92.75817108154297 152.8258819580078 93.11540985107422 150.7920379638672 C 94.4927749633789 151.27825927734375 93.71328735351562 141.4198760986328 107.92454528808594 137.7409210205078 C 103.56964874267578 145.18603515625 101.59432983398438 138.38320922851562 119.29141235351562 133.55416870117188 C 125.29566192626953 132.2184295654297 115.65103149414062 142.89822387695312 102.81942749023438 141.38140869140625 C 117.7469711303711 139.2542266845703 119.15216827392578 129.0834197998047 120.11195373535156 135.79119873046875 C 115.87518310546875 153.51004028320312 111.0935287475586 150.94920349121094 115.39379119873047 148.11666870117188 C 110.67950439453125 154.46478271484375 106.64570617675781 163.02182006835938 94.10283660888672 164.26898193359375M 81.59766387939453 167.3427734375 C 88.7695541381836 171.62478637695312 77.77336120605469 163.15301513671875 69.22605895996094 160.51229858398438 C 70.0251235961914 159.21412658691406 64.24070739746094 160.7847900390625 64.70250701904297 147.8106689453125 C 64.19775390625 140.56410217285156 66.22810363769531 127.66632080078125 66.7518310546875 134.2054443359375 C 78.02265930175781 142.3325958251953 87.00304412841797 146.72921752929688 76.89014434814453 154.55430603027344 C 75.62469482421875 148.22061157226562 80.9166030883789 142.11639404296875 78.33085632324219 146.39219665527344 C 82.03076934814453 155.21217346191406 83.25579833984375 163.2847442626953 83.83161926269531 152.11781311035156 C 82.2605972290039 163.33355712890625 81.95586395263672 172.853759765625 90.54023742675781 177.60154724121094 C 91.08561706542969 168.81993103027344 73.83292388916016 162.8730010986328 81.59766387939453 167.3427734375"/>
    <path stroke-width="0" fill="rgb(0, 0, 0)" opacity="1.0" d="M 140.68679809570312 287.1907043457031 C 141.27886962890625 278.5023193359375 142.54371643066406 270.33734130859375 143.70986938476562 261.7895202636719 C 150.77053833007812 262.85479736328125 156.1898651123047 263.4564514160156 161.7743682861328 262.50311279296875 C 169.4615478515625 261.53485107421875 173.42626953125 260.20477294921875 176.74264526367188 258.924560546875 C 180.30857849121094 256.97821044921875 184.1610565185547 253.8109588623047 187.87283325195312 248.6103973388672 C 192.33624267578125 243.6833038330078 197.9089813232422 238.6088104248047 206.3565216064453 234.26223754882812 C 202.7097930908203 232.4792022705078 211.85462951660156 237.0803985595703 206.15647888183594 238.1810760498047 C 199.17674255371094 237.73983764648438 192.77003479003906 236.55166625976562 188.66580200195312 235.62359619140625 C 185.33680725097656 235.17977905273438 183.3390350341797 235.359130859375 181.1158905029297 235.85939025878906 C 174.88490295410156 237.3275146484375 172.31712341308594 237.74905395507812 169.83665466308594 237.97244262695312 C 166.4678192138672 238.2572479248047 162.66665649414062 233.32510375976562 159.97085571289062 234.99620056152344 C 157.8560028076172 235.9414825439453 155.6949005126953 236.80018615722656 153.76205444335938 237.6226348876953 C 151.93557739257812 231.12722778320312 151.08355712890625 221.6368865966797 153.51866149902344 211.86917114257812 C 155.95318603515625 211.99993896484375 158.03231811523438 211.9690399169922 161.1486053466797 211.80545043945312 C 165.5359649658203 210.5544891357422 168.05445861816406 210.12754821777344 173.0487518310547 209.86363220214844 C 177.579833984375 208.5627899169922 184.5360107421875 209.0048370361328 190.9891815185547 209.61473083496094 C 195.4853973388672 210.81634521484375 198.90606689453125 211.79261779785156 201.64138793945312 211.90370178222656 C 204.07217407226562 211.7165985107422 210.63671875 211.20172119140625 215.73487854003906 210.92373657226562 C 218.00137329101562 212.1769561767578 221.18824768066406 213.9045867919922 225.60032653808594 215.87681579589844 C 232.0184783935547 218.4709014892578 241.28990173339844 222.21873474121094 245.6015625 223.6932830810547 C 248.6659393310547 224.29791259765625 251.19752502441406 225.4828643798828 253.9242401123047 226.51290893554688 C 251.70635986328125 235.27374267578125 250.7772674560547 240.890625 251.66526794433594 251.171630859375 C 245.04629516601562 251.47775268554688 238.1971893310547 251.92974853515625 228.3321990966797 251.268310546875 C 221.21234130859375 253.37152099609375 218.87844848632812 254.0884552001953 216.0810546875 255.91659545898438 C 214.96424865722656 256.927490234375 212.42083740234375 259.27154541015625 210.53538513183594 262.2943420410156 C 207.66351318359375 267.948974609375 203.97850036621094 273.74468994140625 196.9257049560547 280.29656982421875 C 189.6546173095703 285.0623474121094 181.1443328857422 288.1866455078125 172.22906494140625 289.977294921875 C 161.81790161132812 290.6759948730469 150.6985321044922 288.7949523925781 140.68679809570312 287.1907043457031"/>
    <path stroke-width="0" fill="rgb(0, 0, 0)" opacity="1.0" d="M 302.3531799316406 287.4046325683594 C 292.70538330078125 285.9925842285156 284.3757019042969 285.9665222167969 278.9683837890625 284.1380310058594 C 273.4030456542969 282.18621826171875 269.57623291015625 278.73095703125 266.9671630859375 273.2112121582031 C 264.3168640136719 267.880859375 263.05230712890625 262.32452392578125 262.8761901855469 254.58114624023438 C 266.2875061035156 224.11016845703125 265.0536193847656 193.4158935546875 263.69122314453125 161.78245544433594 C 274.0802917480469 162.47952270507812 282.8854064941406 163.84188842773438 290.5538024902344 164.55149841308594 C 289.31134033203125 191.03012084960938 290.0747985839844 217.35165405273438 289.4729919433594 243.871337890625 C 289.34515380859375 249.85302734375 289.7735900878906 253.5210723876953 290.61431884765625 256.43414306640625 C 291.1568603515625 257.7379455566406 291.98577880859375 258.5101318359375 293.0777587890625 258.8572082519531 C 296.2401123046875 259.7775573730469 301.17620849609375 260.5459899902344 305.2528381347656 260.5086364746094 C 310.7605285644531 260.192626953125 314.1472473144531 261.28265380859375 316.5518493652344 263.88275146484375 C 319.12200927734375 266.5220031738281 320.254150390625 269.62249755859375 320.3636474609375 273.3855285644531 C 320.3601989746094 277.1720275878906 319.2364196777344 280.3461608886719 316.6855773925781 283.0249328613281 C 314.0888366699219 286.0370178222656 309.9931335449219 287.6201171875 302.3531799316406 287.4046325683594"/>
    <path stroke-width="0" fill="rgb(0, 0, 0)" opacity="1.0" d="M 308.1722717285156 287.384033203125 C 308.686279296875 278.0635070800781 308.7239074707031 269.2908935546875 308.7720031738281 260.16204833984375 C 311.9417724609375 260.216064453125 315.6566162109375 260.01153564453125 319.7539367675781 259.4587707519531 C 324.76214599609375 259.22210693359375 329.0794982910156 259.0290832519531 332.8880615234375 259.3997497558594 C 336.1573181152344 259.47802734375 338.74267578125 259.2948303222656 341.4915771484375 258.89605712890625 C 344.1200256347656 258.37255859375 346.341552734375 257.827392578125 348.279052734375 257.3768005371094 C 352.161376953125 256.4878845214844 355.16864013671875 254.85043334960938 358.1250915527344 252.96145629882812 C 361.57745361328125 251.92953491210938 363.7490234375 250.58644104003906 365.49346923828125 248.64678955078125 C 367.1611633300781 246.64596557617188 367.7721862792969 243.35328674316406 367.9931945800781 239.4164276123047 C 369.5132751464844 243.77188110351562 367.9642028808594 238.72201538085938 365.5162048339844 234.5160369873047 C 364.1793518066406 230.66213989257812 363.08587646484375 228.95127868652344 360.673095703125 227.1188201904297 C 359.15814208984375 225.816162109375 357.1252136230469 224.66461181640625 353.8701477050781 224.37603759765625 C 355.96240234375 224.81263732910156 352.4385070800781 225.909423828125 351.7317810058594 226.4401092529297 C 349.0881042480469 227.80758666992188 348.423583984375 228.7450408935547 347.55291748046875 230.95150756835938 C 346.81793212890625 235.2842254638672 347.3789978027344 238.82603454589844 347.1908874511719 239.62428283691406 C 347.2304992675781 243.0923309326172 347.66986083984375 244.94606018066406 348.3192138671875 247.1054229736328 C 348.9480285644531 248.33653259277344 350.1009216308594 250.33834838867188 351.8127746582031 252.44737243652344 C 353.6741943359375 254.1305694580078 355.9391174316406 256.2562255859375 358.7325744628906 258.5406799316406 C 350.6099548339844 260.6670227050781 343.0223083496094 263.3375549316406 335.3229675292969 266.19732666015625 C 332.55596923828125 263.4389953613281 330.22601318359375 260.1739196777344 328.3938293457031 256.3905029296875 C 327.04425048828125 253.7965850830078 326.0025329589844 250.73147583007812 325.1628723144531 246.7556915283203 C 324.4326477050781 244.2515411376953 324.60272216796875 239.7707977294922 324.88458251953125 235.2891387939453 C 322.2158508300781 242.1471710205078 321.2383117675781 234.037109375 321.9149169921875 229.2807159423828 C 324.8463134765625 221.23040771484375 328.48651123046875 216.3001251220703 330.1407165527344 211.8548583984375 C 336.279541015625 206.29856872558594 340.5103759765625 203.52218627929688 345.4940185546875 202.30361938476562 C 350.5624084472656 200.91416931152344 354.3554992675781 200.44879150390625 358.86456298828125 201.03977966308594 C 365.3429870605469 201.86624145507812 371.1139831542969 204.16329956054688 374.4455871582031 206.47511291503906 C 380.7207946777344 209.8006591796875 385.7792053222656 214.57757568359375 388.5338134765625 219.44261169433594 C 391.7553405761719 223.68447875976562 395.79339599609375 232.14962768554688 396.2679138183594 237.64097595214844 C 396.3911437988281 243.79769897460938 394.93182373046875 250.6715087890625 392.55096435546875 255.26373291015625 C 390.67535400390625 260.93133544921875 388.3832702636719 265.6214294433594 380.29461669921875 270.1263732910156 C 374.89837646484375 267.8842468261719 370.2145080566406 270.0467834472656 366.4931335449219 269.38671875 C 364.4422302246094 274.3031005859375 358.1683044433594 276.7606201171875 381.5446472167969 282.9151611328125 C 351.1589660644531 283.9813232421875 347.29022216796875 281.2243957519531 342.9174499511719 278.5989074707031 C 342.9290466308594 283.9811706542969 339.7848815917969 284.195068359375 336.1155090332031 284.7055358886719 C 331.8451843261719 285.52520751953125 326.84033203125 285.88568115234375 322.5992431640625 286.2404479980469 C 317.7668762207031 286.6634826660156 313.8166198730469 286.7807922363281 308.1722717285156 287.384033203125M 398.61785888671875 292.4237060546875 C 399.701904296875 295.2523193359375 386.66455078125 297.3479309082031 381.5145263671875 296.8866882324219 C 364.4919738769531 290.7860107421875 363.1008605957031 284.3111572265625 352.03179931640625 279.6614074707031 C 352.8782958984375 283.32525634765625 350.5641174316406 281.1090393066406 348.91912841796875 275.4491271972656 C 352.3337707519531 269.966796875 356.2529602050781 264.3711853027344 360.60772705078125 258.7039489746094 C 364.0823669433594 261.0354309082031 368.299560546875 263.1680908203125 375.08770751953125 266.1256408691406 C 382.03900146484375 267.03326416015625 386.909912109375 267.1376037597656 379.4573669433594 262.9375915527344 C 376.1006774902344 281.5119323730469 367.2310791015625 284.8061218261719 392.260498046875 280.7068786621094 C 405.3612060546875 264.28533935546875 407.60833740234375 263.9515380859375 409.7848815917969 264.9943542480469 C 412.20159912109375 266.0039367675781 413.8049621582031 267.9921569824219 414.7069091796875 270.3701477050781 C 415.6341857910156 272.63958740234375 415.4179382324219 275.4940490722656 414.1944274902344 277.901611328125 C 413.32659912109375 280.48919677734375 410.6738586425781 282.9141845703125 398.61785888671875 292.4237060546875M 353.9328918457031 184.3072509765625 C 348.61700439453125 186.86129760742188 351.5310363769531 202.61045837402344 345.3031005859375 212.4986114501953 C 332.6499938964844 200.81512451171875 338.6304626464844 194.80906677246094 345.019775390625 186.21878051757812 C 345.8670959472656 176.5251007080078 354.0660705566406 175.28363037109375 358.6433410644531 181.44676208496094 C 351.7941589355469 169.65542602539062 361.04766845703125 158.4963836669922 397.10150146484375 165.5850067138672 C 378.8262023925781 179.32962036132812 351.1004333496094 174.26918029785156 355.70233154296875 169.6794891357422 C 368.4897155761719 160.94580078125 373.0082702636719 174.99856567382812 355.3809814453125 175.01467895507812 C 349.42840576171875 171.56997680664062 355.4306640625 181.43423461914062 357.22418212890625 178.9759063720703 C 359.6538391113281 174.65078735351562 356.6183166503906 181.23741149902344 353.9328918457031 184.3072509765625"/>
    <path stroke-width="0" fill="rgb(0, 0, 0)" opacity="1.0" d="M 409.00634765625 283.312255859375 C 406.50262451171875 277.1237487792969 404.9469909667969 271.0882873535156 402.66424560546875 264.7552795410156 C 407.11614990234375 262.8157958984375 410.97125244140625 260.55517578125 413.88348388671875 258.6996154785156 C 417.2423095703125 256.94415283203125 421.5858154296875 253.35855102539062 424.8092346191406 250.0930633544922 C 429.1487121582031 246.65052795410156 431.983642578125 242.70553588867188 434.1477966308594 239.3784942626953 C 436.9212951660156 235.76051330566406 438.96881103515625 231.87428283691406 440.5303955078125 226.7294158935547 C 441.7564697265625 223.57264709472656 441.8377380371094 221.34068298339844 440.8687744140625 217.58074951171875 C 440.30792236328125 213.6832275390625 439.4024658203125 210.70913696289062 438.5137023925781 208.0824432373047 C 444.9378967285156 205.95846557617188 449.0932922363281 204.5882568359375 453.7025451660156 202.818115234375 C 455.13128662109375 205.84100341796875 456.0458984375 208.3953399658203 457.4920959472656 213.35232543945312 C 459.4095458984375 220.20848083496094 458.93212890625 227.48886108398438 457.4197998046875 233.67921447753906 C 455.3096008300781 239.55841064453125 453.0570373535156 245.29718017578125 449.4967346191406 250.44161987304688 C 446.9509582519531 256.260986328125 444.1907958984375 260.12200927734375 441.403076171875 262.7638854980469 C 439.38201904296875 265.4712219238281 436.864990234375 267.96148681640625 434.2185974121094 269.55078125 C 431.0572204589844 272.1190185546875 427.66326904296875 274.51025390625 423.4038391113281 275.90673828125 C 418.8966064453125 278.2939147949219 414.5663757324219 280.75408935546875 409.00634765625 283.312255859375M 434.5875549316406 186.8184356689453 C 433.5455627441406 183.18736267089844 432.25836181640625 187.79168701171875 427.2345275878906 196.82589721679688 C 425.05279541015625 165.71875 430.5003662109375 158.25596618652344 447.9765930175781 159.87969970703125 C 447.8872375488281 175.6666259765625 451.81170654296875 169.75181579589844 439.2062072753906 180.5495147705078 C 439.2141418457031 163.17147827148438 449.35284423828125 160.94680786132812 435.6308288574219 165.07626342773438 C 440.6004943847656 155.4010772705078 456.20355224609375 153.53863525390625 476.1866760253906 159.8742218017578 C 470.2125549316406 170.81219482421875 463.85906982421875 175.75973510742188 463.6753234863281 169.745849609375 C 468.3344421386719 168.84019470214844 458.1753845214844 180.29135131835938 458.758544921875 180.47679138183594 C 452.71380615234375 182.05369567871094 442.54669189453125 181.84275817871094 434.5875549316406 186.8184356689453M 400.1517639160156 184.42764282226562 C 410.85894775390625 176.62869262695312 415.5791015625 180.07362365722656 422.69000244140625 174.2886199951172 C 426.88409423828125 168.46214294433594 419.9691467285156 159.90316772460938 409.6517333984375 163.57882690429688 C 393.9613342285156 171.27137756347656 389.9693908691406 139.54537963867188 413.3026123046875 141.49940490722656 C 408.0892028808594 173.0854034423828 407.9041442871094 165.5256805419922 406.5585632324219 163.0724334716797 C 422.1575927734375 163.95716857910156 426.9423828125 164.5791778564453 419.16363525390625 158.46661376953125 C 420.7229919433594 166.08299255371094 424.10479736328125 168.0146942138672 432.3914489746094 171.95419311523438 C 424.5412292480469 191.0940399169922 424.6488952636719 197.2941131591797 423.11907958984375 194.52352905273438 C 425.0140686035156 188.80975341796875 423.1171569824219 187.5098114013672 400.1517639160156 184.42764282226562"/>
  </g>
</svg>
