<?xml version="1.0" ?>
<svg xmlns="http://www.w3.org/2000/svg" version="1.1" width="600" height="600">
  <defs/>
  <g>
    <path stroke-width="0" fill="rgb(0, 0, 0)" opacity="1.0" d="M 112.96147155761719 484.8258361816406 C 109.3592529296875 484.7963562011719 105.49211883544922 484.6332702636719 105.43953704833984 485.617431640625 C 101.2848892211914 485.9291076660156 99.23921203613281 486.2983703613281 95.57936096191406 486.5098571777344 C 93.99555969238281 486.50604248046875 87.76200866699219 486.52215576171875 85.36188507080078 485.41485595703125 C 82.83193969726562 484.37945556640625 80.69171905517578 483.6028137207031 77.8106689453125 482.63165283203125 C 78.43455505371094 480.4847106933594 79.09093475341797 477.48419189453125 80.53836059570312 474.1131896972656 C 81.03874206542969 472.9589538574219 77.83538818359375 472.2794189453125 78.0125961303711 469.52203369140625 C 78.09410858154297 466.8779602050781 78.30899810791016 462.54913330078125 78.41983032226562 458.2724914550781 C 78.49188995361328 456.02685546875 78.17044830322266 452.5530090332031 77.88619995117188 448.49652099609375 C 77.8645248413086 454.8002624511719 77.55216217041016 453.2489013671875 77.09049224853516 450.0040588378906 C 77.91400146484375 444.0755310058594 78.35111236572266 441.2398986816406 78.75154876708984 438.2835693359375 C 78.64100646972656 434.4761047363281 79.08063507080078 430.1443786621094 79.38008880615234 427.1709899902344 C 79.46971130371094 424.7920227050781 79.2314682006836 429.142822265625 78.61873626708984 427.30633544921875 C 77.84849548339844 424.28875732421875 77.47373962402344 423.0636291503906 76.65342712402344 419.61083984375 C 76.45984649658203 415.98052978515625 76.381103515625 413.15460205078125 76.45394897460938 410.26715087890625 C 76.97378540039062 406.8860168457031 77.26567077636719 402.9026184082031 78.85321807861328 410.2876281738281 C 77.16475677490234 404.9413146972656 76.44331359863281 401.8515625 75.61238098144531 398.6556091308594 C 74.82107543945312 395.76385498046875 75.05828857421875 391.8835144042969 75.48089599609375 385.8219909667969 C 75.80088806152344 382.19390869140625 76.74739837646484 377.22821044921875 77.15447235107422 375.86798095703125 C 77.31498718261719 381.8410339355469 77.08799743652344 378.4010925292969 77.31221771240234 376.830078125 C 77.48461151123047 374.9957275390625 77.39966583251953 381.88958740234375 76.97600555419922 379.8099670410156 C 69.7880859375 376.9781799316406 73.12574768066406 377.73175048828125 67.62360382080078 375.8968811035156 C 62.865501403808594 373.6403503417969 59.83928680419922 372.3848876953125 57.288734436035156 371.73016357421875 C 54.91209411621094 370.95452880859375 53.52510452270508 370.66656494140625 49.07791519165039 368.03955078125 C 45.99726486206055 366.0463562011719 43.50288391113281 364.26568603515625 41.28193283081055 362.65673828125 C 43.7983512878418 359.4068298339844 46.089229583740234 356.33251953125 40.07601547241211 355.3385314941406 C 46.0293083190918 352.9691467285156 43.90582275390625 348.9067077636719 41.50928497314453 344.8332214355469 C 45.98171615600586 341.95001220703125 51.56686019897461 338.8018493652344 59.41679000854492 339.1187438964844 C 65.95114135742188 340.5709533691406 71.7547378540039 342.9560546875 77.09630584716797 345.6198425292969 C 78.78197479248047 346.029541015625 84.74101257324219 348.5445861816406 88.73795318603516 349.0426940917969 C 92.83257293701172 350.0410461425781 96.53675842285156 350.60369873046875 93.46368408203125 344.9309387207031 C 96.77977752685547 344.778564453125 99.2242431640625 344.4960632324219 102.1764144897461 343.6441955566406 C 103.81034088134766 342.9629821777344 110.7196044921875 339.4075927734375 116.85246276855469 337.5541076660156 C 105.43653869628906 338.6575622558594 113.21162414550781 332.6127624511719 129.92616271972656 317.4593200683594 C 138.31578063964844 319.1601867675781 149.35842895507812 323.1649475097656 160.1006317138672 327.67333984375 C 155.72695922851562 338.390380859375 151.74851989746094 346.5704345703125 150.17161560058594 350.6250305175781 C 140.1266326904297 361.8489990234375 135.44338989257812 365.3125305175781 131.9468536376953 369.2485046386719 C 129.34861755371094 366.28912353515625 127.1358642578125 363.5265197753906 126.29950714111328 362.8303527832031 C 123.99715423583984 361.7239990234375 141.3400115966797 361.3064270019531 134.15048217773438 366.2411804199219 C 128.3389892578125 369.69873046875 119.2894515991211 375.35760498046875 128.5320587158203 373.840576171875 C 126.81765747070312 374.3374938964844 123.72679901123047 376.18194580078125 115.83159637451172 379.5406494140625 C 115.99140930175781 375.5611267089844 115.90019226074219 379.0786437988281 115.70700073242188 381.288818359375 C 115.33499145507812 383.2820739746094 115.76448822021484 378.85992431640625 115.01699829101562 383.4873352050781 C 113.65335845947266 388.3078918457031 112.449462890625 393.6982727050781 110.9384994506836 388.477294921875 C 111.98389434814453 393.6319274902344 112.92330169677734 396.6370544433594 113.7091064453125 399.0016174316406 C 113.5997543334961 405.2145080566406 112.95426177978516 408.5851135253906 112.2190933227539 411.0319519042969 C 112.91471099853516 417.4436950683594 112.13256072998047 411.593505859375 113.14604187011719 417.49896240234375 C 113.3584976196289 420.9957580566406 114.51927185058594 425.3013610839844 115.0415267944336 428.97186279296875 C 114.67816925048828 432.64288330078125 114.26568603515625 435.6378173828125 114.24519348144531 439.25323486328125 C 114.04193115234375 445.6446228027344 113.47235107421875 450.6777038574219 113.3631820678711 451.51739501953125 C 113.38200378417969 446.04302978515625 113.71742248535156 448.239013671875 114.18807983398438 450.30987548828125 C 114.16690063476562 452.5321960449219 114.081787109375 456.4588317871094 114.15388488769531 458.890625 C 114.49293518066406 462.2613220214844 114.3326416015625 467.7571716308594 114.39705657958984 470.57830810546875 C 112.17958068847656 470.5918884277344 112.7840576171875 474.3338317871094 113.26932525634766 477.0307312011719 C 112.98652648925781 479.630126953125 112.94480895996094 481.9280090332031 112.96147155761719 484.8258361816406"/>
    <path stroke-width="0" fill="rgb(0, 0, 0)" opacity="1.0" d="M 217.2987518310547 335.3548889160156 C 215.64930725097656 335.13330078125 220.35498046875 335.00201416015625 224.92030334472656 334.2344055175781 C 230.1045684814453 334.471923828125 233.28611755371094 334.57843017578125 236.6741485595703 334.956298828125 C 241.7035369873047 336.2918395996094 249.8646697998047 340.48291015625 253.70364379882812 342.32049560546875 C 254.9629364013672 342.7737121582031 257.12518310546875 343.7291564941406 258.9773254394531 344.8236389160156 C 259.7775573730469 345.1554870605469 263.33197021484375 347.8848571777344 267.4610290527344 355.6005554199219 C 268.2247314453125 356.60833740234375 269.8936462402344 360.5281982421875 271.241455078125 365.74566650390625 C 273.3699035644531 369.7120361328125 274.83453369140625 374.2940368652344 275.16168212890625 380.1600646972656 C 275.41485595703125 385.0618896484375 275.3951416015625 388.5323791503906 274.7058410644531 392.43914794921875 C 273.776123046875 396.383544921875 271.93670654296875 399.906005859375 270.4573974609375 401.7716979980469 C 267.7040100097656 409.2896423339844 264.0115051269531 413.5550842285156 260.0115051269531 416.9341735839844 C 254.71392822265625 420.9501953125 249.56423950195312 423.4968566894531 242.39808654785156 425.15570068359375 C 243.61187744140625 427.03692626953125 244.0604705810547 427.7713317871094 244.9687042236328 429.4178161621094 C 245.8877716064453 430.5134582519531 246.76133728027344 431.4879455566406 249.9473114013672 435.6821594238281 C 252.13571166992188 438.3194580078125 254.6822509765625 441.330322265625 256.8069152832031 443.75115966796875 C 258.62115478515625 445.8094177246094 261.0938415527344 448.42645263671875 263.5716552734375 451.36480712890625 C 266.2868347167969 454.875244140625 268.7318420410156 457.41265869140625 271.1911315917969 460.2082824707031 C 272.2182312011719 461.2579345703125 274.4114685058594 463.8316650390625 276.1264953613281 466.1537780761719 C 278.2522888183594 469.02349853515625 280.023681640625 472.53607177734375 281.265625 474.5489807128906 C 282.9681091308594 477.0312805175781 284.322021484375 479.50189208984375 285.5013732910156 481.6864013671875 C 283.0569152832031 481.3252258300781 280.5795593261719 481.2398986816406 277.2700500488281 480.9985656738281 C 274.1491394042969 480.8521423339844 273.09844970703125 480.92388916015625 270.1970520019531 481.5702819824219 C 268.5343933105469 481.9127197265625 266.4059753417969 482.4013671875 264.31182861328125 482.74237060546875 C 261.8060607910156 482.5106201171875 258.7278747558594 482.642578125 255.47293090820312 482.48809814453125 C 252.7784423828125 477.9360046386719 250.15899658203125 473.918701171875 246.1071319580078 469.0401916503906 C 243.99630737304688 466.4858703613281 242.21766662597656 464.3085632324219 240.7792205810547 462.9751281738281 C 238.740966796875 460.984375 236.10079956054688 458.896728515625 234.66134643554688 457.269287109375 C 232.1275177001953 453.9593811035156 230.3592529296875 452.0672302246094 229.6455841064453 451.38494873046875 C 225.72804260253906 448.63531494140625 224.53099060058594 447.325927734375 222.43565368652344 444.4535827636719 C 219.83026123046875 440.73583984375 217.99496459960938 437.5191650390625 214.6303253173828 433.60760498046875 C 208.1581268310547 433.0582275390625 204.4456024169922 432.869140625 199.5818328857422 432.6094055175781 C 199.64517211914062 428.0917663574219 199.33274841308594 436.52435302734375 199.3585968017578 442.2613220214844 C 199.17819213867188 448.7969665527344 199.3590087890625 452.2243347167969 198.78123474121094 457.9312438964844 C 199.39324951171875 462.77056884765625 199.1235809326172 466.99432373046875 198.60617065429688 470.6234436035156 C 198.1773223876953 475.2259826660156 196.06106567382812 479.87890625 194.25436401367188 483.24774169921875 C 192.28176879882812 482.3480529785156 190.25376892089844 481.3824157714844 190.1591339111328 481.9281005859375 C 187.14451599121094 481.5285339355469 184.8355712890625 481.40606689453125 182.58192443847656 481.1155700683594 C 180.8551025390625 480.92059326171875 177.764404296875 480.8849792480469 174.64999389648438 480.6591491699219 C 172.805419921875 480.44866943359375 170.16232299804688 480.63525390625 167.2615509033203 480.85137939453125 C 167.1032257080078 477.9737548828125 167.0116424560547 474.01495361328125 167.099365234375 470.4557800292969 C 167.29849243164062 468.7611083984375 167.6034698486328 465.8751220703125 167.78225708007812 462.47259521484375 C 167.19927978515625 466.4459228515625 167.10885620117188 462.9849548339844 167.39468383789062 455.8981628417969 C 168.11082458496094 451.6883544921875 168.33660888671875 454.30267333984375 168.0259246826172 448.6433410644531 C 168.16705322265625 444.1520080566406 168.05523681640625 441.1359558105469 168.2564239501953 437.39642333984375 C 168.6410675048828 433.7847595214844 168.53024291992188 432.30181884765625 168.29454040527344 429.8616943359375 C 168.26194763183594 426.4384460449219 168.93382263183594 423.14349365234375 169.09661865234375 421.3806457519531 C 169.6190948486328 416.5426940917969 169.98753356933594 414.402099609375 170.04879760742188 410.2449035644531 C 170.22218322753906 406.33837890625 170.4178466796875 402.560546875 170.5068359375 400.277099609375 C 170.5357666015625 395.7093200683594 171.02101135253906 389.24981689453125 171.46697998046875 384.2009582519531 C 173.37130737304688 378.9781188964844 174.40000915527344 375.6005859375 173.1242218017578 381.20458984375 C 173.3926544189453 379.0357360839844 173.89779663085938 375.3406066894531 175.38284301757812 370.9042053222656 C 176.05712890625 367.1257629394531 176.1667938232422 365.1140441894531 176.25347900390625 363.7746276855469 C 176.2523193359375 361.60601806640625 176.3129119873047 359.4713134765625 175.06631469726562 361.72705078125 C 182.1796875 361.1119079589844 181.7576141357422 355.97607421875 184.32186889648438 355.5751953125 C 185.89886474609375 355.2483825683594 185.43226623535156 352.72821044921875 185.17250061035156 350.414306640625 C 187.7130584716797 350.1638488769531 189.7708282470703 349.56640625 189.4152374267578 347.336181640625 C 192.17527770996094 347.0783996582031 191.46092224121094 341.1368408203125 191.12246704101562 341.9080505371094 C 192.188720703125 341.6366271972656 193.5223846435547 341.2504577636719 197.28111267089844 340.1986999511719 C 205.623291015625 336.7320556640625 210.03598022460938 335.8555908203125 217.2987518310547 335.3548889160156M 215.20367431640625 368.0810241699219 C 212.5543670654297 368.1039123535156 209.90447998046875 368.1875305175781 208.3064727783203 368.1753845214844 C 208.04771423339844 369.7394714355469 207.31922912597656 372.32733154296875 206.9288330078125 374.3246154785156 C 206.41403198242188 378.1151123046875 206.41009521484375 381.222412109375 206.29287719726562 382.9278869628906 C 205.96974182128906 384.5048828125 205.02764892578125 387.4634094238281 203.9130401611328 390.24267578125 C 202.88876342773438 394.4929504394531 202.27268981933594 398.0663146972656 201.93739318847656 401.5416564941406 C 205.22886657714844 401.6580810546875 207.9385223388672 401.9751892089844 210.6289520263672 402.1431579589844 C 215.65029907226562 403.29412841796875 220.56285095214844 403.2460021972656 225.51260375976562 402.57080078125 C 229.21560668945312 402.0831298828125 232.47158813476562 401.99395751953125 235.64883422851562 401.1933288574219 C 239.11631774902344 400.01007080078125 241.91932678222656 397.92010498046875 243.51161193847656 395.8446044921875 C 246.02781677246094 393.643798828125 247.18783569335938 388.6431579589844 247.07777404785156 384.9515380859375 C 245.8144073486328 378.7684326171875 242.21324157714844 372.9189147949219 240.82847595214844 371.8797607421875 C 239.32766723632812 370.40509033203125 236.6585693359375 368.4058837890625 232.40048217773438 367.6238098144531 C 229.4033660888672 366.91094970703125 220.6056671142578 367.1799621582031 215.20367431640625 368.0810241699219"/>
    <path stroke-width="0" fill="rgb(0, 0, 0)" opacity="1.0" d="M 378.65972900390625 478.1947326660156 C 376.4025573730469 480.4013366699219 373.82080078125 482.8490295410156 371.95587158203125 483.6921081542969 C 369.0999450683594 483.9911193847656 370.390380859375 483.70263671875 365.35699462890625 483.970458984375 C 360.18060302734375 483.3499450683594 355.0273742675781 482.9554748535156 358.5658874511719 482.73638916015625 C 352.78631591796875 483.8188781738281 347.8453674316406 483.8090515136719 343.4602355957031 483.3172912597656 C 338.8328552246094 483.68511962890625 333.7359313964844 484.0341796875 328.7337951660156 483.59857177734375 C 324.37579345703125 483.10302734375 325.9293212890625 484.2186584472656 322.2156066894531 484.4691467285156 C 319.98516845703125 484.7873840332031 315.71087646484375 484.35711669921875 312.3984680175781 483.7786865234375 C 308.75018310546875 483.4161071777344 305.2115173339844 483.0211486816406 301.941162109375 482.8771057128906 C 302.2687683105469 480.0190734863281 302.84228515625 476.7566223144531 303.1972961425781 474.0139465332031 C 303.2785339355469 471.12890625 303.5538635253906 468.21893310546875 303.13616943359375 468.1258544921875 C 303.3039855957031 463.2842102050781 303.1379699707031 459.1813659667969 303.3200988769531 456.5497741699219 C 303.1076965332031 454.69512939453125 302.66473388671875 450.51202392578125 302.7161865234375 446.7620544433594 C 302.64532470703125 442.34326171875 302.402099609375 438.11529541015625 302.2381286621094 434.8207092285156 C 303.2490234375 438.53277587890625 303.20709228515625 435.040771484375 303.0679626464844 431.8773193359375 C 303.1002197265625 429.84429931640625 303.1694030761719 426.6162414550781 303.49755859375 425.1707763671875 C 303.538330078125 424.5040283203125 303.46142578125 421.2093811035156 303.097412109375 417.8772888183594 C 303.26275634765625 414.7369079589844 302.9890441894531 408.94805908203125 302.4231872558594 403.5029602050781 C 302.8446044921875 398.8585510253906 303.7972412109375 403.0497741699219 303.2811584472656 398.9195251464844 C 303.5767822265625 392.48187255859375 303.68365478515625 397.3190612792969 302.076171875 390.9620056152344 C 301.44073486328125 385.0267333984375 302.02978515625 379.30487060546875 302.954833984375 373.8130187988281 C 303.34814453125 369.54638671875 303.51483154296875 365.013427734375 303.22406005859375 369.9933776855469 C 302.61566162109375 364.3351135253906 302.3525085449219 359.09283447265625 302.48272705078125 352.922607421875 C 302.7897033691406 350.0125427246094 304.8139953613281 350.2221984863281 305.1781921386719 348.1549377441406 C 305.2324523925781 345.0536193847656 305.3611145019531 341.40509033203125 305.5536804199219 337.9154968261719 C 309.6554260253906 338.0786437988281 314.1346435546875 338.22991943359375 318.77618408203125 338.7964172363281 C 318.8856506347656 337.9330749511719 321.1383361816406 338.185302734375 320.13751220703125 339.45074462890625 C 322.34844970703125 339.4336853027344 325.5343017578125 339.4326171875 329.31573486328125 339.3643493652344 C 334.0047302246094 339.1227722167969 337.69927978515625 339.61859130859375 341.1760559082031 339.94464111328125 C 344.3392333984375 340.0780944824219 349.5954895019531 340.2967529296875 352.7466735839844 340.2117919921875 C 357.7187194824219 338.8584289550781 360.61883544921875 338.7788391113281 363.9449768066406 338.8303527832031 C 367.91436767578125 338.8851623535156 372.2714538574219 339.1081848144531 375.732177734375 339.2734375 C 379.2148132324219 340.5137939453125 382.2453308105469 342.1992492675781 385.09246826171875 343.7549133300781 C 384.2013854980469 345.5148010253906 383.2785949707031 347.23016357421875 382.73944091796875 348.54327392578125 C 382.2112731933594 349.7953186035156 381.84893798828125 351.1156005859375 384.5775451660156 351.9582214355469 C 384.6109924316406 353.90179443359375 384.3555603027344 355.56231689453125 381.9927978515625 355.0304870605469 C 381.99725341796875 356.7007141113281 381.2976379394531 358.93621826171875 380.6230773925781 361.5868835449219 C 378.2903137207031 360.910400390625 375.8656005859375 360.1624450683594 375.33154296875 362.0174560546875 C 373.1931457519531 361.94976806640625 372.9363708496094 362.75408935546875 372.68505859375 364.1376953125 C 369.10198974609375 363.9580383300781 364.91241455078125 364.0410461425781 360.4114990234375 363.915771484375 C 358.5667724609375 363.93609619140625 361.66229248046875 363.6739501953125 356.0302429199219 365.379638671875 C 352.7637634277344 365.54986572265625 348.889892578125 365.5726623535156 344.9097900390625 365.7157287597656 C 340.0159606933594 365.4531555175781 335.2531433105469 364.9075012207031 332.09356689453125 364.7893981933594 C 332.650634765625 368.31256103515625 332.2492370605469 370.8688659667969 332.0121765136719 373.7855224609375 C 331.75213623046875 376.8211669921875 331.6452941894531 380.13043212890625 331.5592346191406 382.8332824707031 C 331.5655517578125 385.1878356933594 331.71966552734375 386.34442138671875 332.6900329589844 389.8760681152344 C 333.3657531738281 393.3431396484375 333.2278747558594 396.2137756347656 333.2803039550781 397.8021545410156 C 338.91912841796875 397.5868835449219 345.68017578125 397.8361511230469 349.16864013671875 397.6393737792969 C 352.8674621582031 397.6154479980469 357.7749328613281 398.08575439453125 362.2121276855469 398.62890625 C 369.0663757324219 398.2839050292969 366.33367919921875 398.2481689453125 369.5602111816406 396.9070739746094 C 374.72027587890625 395.6902770996094 377.8738708496094 394.26220703125 381.60260009765625 393.1033630371094 C 382.4920959472656 395.1767883300781 383.46246337890625 397.56280517578125 384.30657958984375 400.3222351074219 C 385.1291198730469 403.56561279296875 388.41058349609375 401.5705871582031 390.10699462890625 404.84210205078125 C 389.5694274902344 405.2185363769531 391.2273254394531 408.8483581542969 392.755859375 412.1255798339844 C 394.1982116699219 415.7295837402344 395.182373046875 418.3316345214844 396.07781982421875 420.9417724609375 C 391.59600830078125 422.4744567871094 386.719970703125 424.18017578125 381.85418701171875 426.2313537597656 C 376.4148864746094 427.7532958984375 369.94488525390625 429.2313537597656 360.6497802734375 428.39068603515625 C 354.64617919921875 428.2301940917969 356.4147033691406 427.957275390625 350.40069580078125 428.8895568847656 C 342.36102294921875 428.52471923828125 336.8584899902344 427.8636779785156 332.327880859375 427.2528381347656 C 332.1980895996094 428.7581481933594 332.24432373046875 430.27557373046875 332.2207946777344 432.50555419921875 C 332.2516784667969 434.069091796875 331.5598449707031 430.7154541015625 331.6702575683594 435.15447998046875 C 331.6351318359375 438.77056884765625 331.7215576171875 441.5870666503906 332.1769714355469 446.4584655761719 C 332.3042297363281 448.53863525390625 332.62744140625 453.2943420410156 332.67694091796875 458.7225341796875 C 334.5613098144531 458.5927429199219 336.90374755859375 458.2625732421875 339.50628662109375 458.1170959472656 C 343.6277770996094 457.85504150390625 347.6895751953125 457.84625244140625 350.0958251953125 457.7600402832031 C 352.1689453125 457.6811218261719 350.31781005859375 457.7400817871094 352.7884521484375 457.2574157714844 C 355.5581970214844 456.756591796875 358.4453430175781 457.000244140625 360.6432189941406 456.98583984375 C 363.2890625 456.8753967285156 365.5300598144531 456.9072570800781 367.01263427734375 456.84222412109375 C 364.6366271972656 457.3368225097656 366.491943359375 457.1869201660156 369.3850402832031 456.93780517578125 C 369.3191833496094 459.7936706542969 370.8901062011719 460.2991638183594 372.8719177246094 460.86328125 C 374.9069519042969 461.5741882324219 376.5533142089844 462.2615661621094 378.0591125488281 462.91815185546875 C 377.3998718261719 464.6202087402344 376.73516845703125 466.16839599609375 376.2986755371094 467.8472900390625 C 375.6013488769531 470.18878173828125 380.3515319824219 470.1452941894531 382.9346008300781 470.099609375 C 379.920166015625 470.6847229003906 377.2109069824219 471.5413818359375 374.0701599121094 473.6263427734375 C 375.6332092285156 475.01910400390625 377.2805480957031 476.6417236328125 378.65972900390625 478.1947326660156"/>
    <path stroke-width="0" fill="rgb(0, 0, 0)" opacity="1.0" d="M 465.86376953125 473.0502624511719 C 479.53839111328125 483.3957214355469 491.5384216308594 482.945556640625 504.32952880859375 500.2564697265625 C 471.8050842285156 495.583984375 469.6038513183594 490.04962158203125 460.0254211425781 485.7286071777344 C 458.5542297363281 474.8011779785156 468.64202880859375 477.2150573730469 480.3311767578125 480.969482421875 C 473.5618896484375 480.7536315917969 476.0603332519531 480.3771667480469 467.69415283203125 483.8845520019531 C 481.99017333984375 501.57855224609375 485.0022277832031 511.516357421875 447.15887451171875 475.1255798339844 C 448.0886535644531 514.3062744140625 453.5286560058594 517.6469116210938 443.55413818359375 493.6127624511719 C 435.59014892578125 479.2702941894531 444.8030090332031 485.6470642089844 444.8788146972656 494.2364501953125 C 442.9019775390625 496.4989929199219 441.7348937988281 487.8341979980469 439.3414306640625 473.42156982421875 C 426.26629638671875 456.9079284667969 439.0929260253906 484.3907775878906 427.28564453125 516.0686645507812 C 420.52178955078125 473.8341979980469 422.902587890625 460.28515625 435.80328369140625 468.7656555175781 C 420.465576171875 481.6145935058594 422.9769287109375 472.4584655761719 426.4335632324219 462.1646728515625 C 412.7093200683594 453.6200866699219 407.81060791015625 449.75238037109375 428.0069885253906 442.25640869140625 C 417.7547302246094 459.437255859375 412.5569763183594 448.6676330566406 401.6387939453125 444.63140869140625 C 398.37017822265625 434.4491882324219 380.62103271484375 443.2798767089844 366.8917236328125 412.7189025878906 C 419.2530212402344 415.2070007324219 409.0346984863281 431.748291015625 399.8196105957031 421.96014404296875 C 419.7229309082031 422.5025939941406 435.602783203125 430.12701416015625 460.28338623046875 412.2568054199219 C 439.0452575683594 398.2347106933594 415.6626892089844 394.6288146972656 420.30487060546875 397.6746520996094 C 414.0623474121094 393.7168884277344 410.5540466308594 397.7538757324219 405.7840270996094 386.8346862792969 C 405.49017333984375 375.0687255859375 414.47064208984375 392.9653625488281 409.9161071777344 392.2987365722656 C 415.5780334472656 395.3140869140625 415.5750427246094 416.6842346191406 364.80401611328125 408.3621826171875 C 401.72125244140625 374.7963562011719 420.5181579589844 374.91229248046875 421.2196350097656 361.2120056152344 C 421.8743591308594 363.97100830078125 416.256103515625 365.1686706542969 413.3761901855469 353.5326843261719 C 406.1290588378906 328.15069580078125 396.1190185546875 318.00433349609375 419.2528991699219 374.20074462890625 C 428.3800354003906 339.6853332519531 423.6181945800781 329.45867919921875 424.5201721191406 361.9222412109375 C 417.1334228515625 364.56829833984375 422.3614807128906 358.3310546875 421.6745910644531 333.31658935546875 C 431.3866271972656 300.73773193359375 435.4117736816406 300.9776916503906 431.88623046875 366.2421569824219 C 456.4981689453125 361.56317138671875 450.6148681640625 347.51239013671875 455.5841369628906 329.20440673828125 C 465.0802001953125 345.4389953613281 452.4808349609375 352.0142822265625 449.1285705566406 333.1473083496094 C 455.1684265136719 287.729736328125 467.4433288574219 291.8555908203125 461.7265319824219 348.4573669433594 C 475.029296875 333.8658447265625 501.7873229980469 303.7091064453125 491.11297607421875 328.1291809082031 C 480.8451843261719 339.4046936035156 486.5162353515625 339.077392578125 469.0916442871094 340.7892150878906 C 465.11846923828125 335.9840393066406 487.4849548339844 335.8795166015625 490.3057556152344 329.721435546875 C 487.4504699707031 333.2207946777344 479.777587890625 337.77410888671875 465.8887939453125 356.7395324707031 C 485.61572265625 353.2350158691406 491.7070007324219 349.7403564453125 493.2890930175781 351.8219909667969 C 497.6725769042969 348.2732849121094 513.4505004882812 352.2272644042969 494.2107238769531 358.6188049316406 C 492.5483703613281 352.49554443359375 494.66387939453125 360.4884948730469 479.47698974609375 362.4828186035156 C 469.2722473144531 361.55865478515625 471.45654296875 357.12835693359375 496.909423828125 355.66595458984375 C 489.7867431640625 361.0941467285156 478.8109436035156 360.9588623046875 475.2505187988281 359.9400939941406 C 486.4537658691406 363.31134033203125 459.5108947753906 362.4777526855469 454.26849365234375 370.8147888183594 C 445.7186279296875 372.9415283203125 449.89923095703125 372.7538757324219 459.37060546875 375.09552001953125 C 478.76885986328125 376.28472900390625 466.4228210449219 377.3075256347656 421.0064392089844 378.9544372558594 C 428.02069091796875 358.8223876953125 445.3370361328125 374.28363037109375 427.5997619628906 382.62701416015625 C 430.3196716308594 385.55072021484375 418.3016357421875 382.3303527832031 435.0953369140625 390.6016540527344 C 427.4934387207031 383.2205505371094 417.9241638183594 389.10906982421875 421.5321044921875 395.13665771484375 C 437.59796142578125 402.5997619628906 431.7093200683594 394.65899658203125 446.9284362792969 404.68756103515625 C 457.7349853515625 383.62200927734375 458.9537048339844 382.64337158203125 445.9411926269531 406.33856201171875 C 467.2339782714844 419.1434326171875 469.4842529296875 402.90240478515625 480.55487060546875 404.59417724609375 C 467.8373107910156 399.54217529296875 474.5731506347656 403.73358154296875 471.65771484375 409.4225158691406 C 481.5103759765625 405.8023986816406 496.84051513671875 386.52716064453125 491.59625244140625 376.82452392578125 C 475.01544189453125 399.2529602050781 470.73333740234375 401.2367248535156 473.8253479003906 403.45709228515625 C 498.0826416015625 400.8128356933594 513.8583984375 386.5924072265625 528.8062744140625 396.8189392089844 C 503.7949523925781 409.45574951171875 508.6419372558594 406.07135009765625 505.09869384765625 406.2106628417969 C 510.7598571777344 406.25543212890625 493.03668212890625 407.83721923828125 477.0718078613281 420.5912780761719 C 503.54449462890625 427.686767578125 502.099365234375 426.2366638183594 489.176513671875 424.18994140625 C 504.3953857421875 425.38092041015625 505.8486022949219 426.9042053222656 473.5382080078125 427.24456787109375 C 443.83489990234375 425.9283752441406 448.3289794921875 425.42767333984375 471.620361328125 435.47625732421875 C 492.3741760253906 453.3013610839844 492.0323486328125 450.250732421875 470.41058349609375 445.49005126953125 C 441.63916015625 434.70147705078125 437.5482177734375 431.71405029296875 429.6551513671875 433.8326721191406 C 431.2925720214844 431.8613586425781 425.9568786621094 434.98333740234375 423.2212829589844 434.7286682128906 C 426.8394470214844 445.13128662109375 432.15093994140625 453.5572814941406 424.79559326171875 443.05877685546875 C 433.74627685546875 453.0217590332031 437.6242370605469 455.88018798828125 447.35040283203125 464.48297119140625 C 464.50927734375 466.50396728515625 450.8426513671875 460.333984375 459.63140869140625 460.1275329589844 C 451.221923828125 462.2808532714844 459.82269287109375 465.3064880371094 475.2318420410156 463.47259521484375 C 477.286865234375 456.25421142578125 477.1763000488281 466.42987060546875 482.97247314453125 465.73431396484375 C 477.04315185546875 462.944091796875 483.5368957519531 461.34490966796875 472.76361083984375 465.6839294433594 C 489.45098876953125 470.2518005371094 489.07403564453125 463.5603332519531 493.8228454589844 464.1259460449219 C 495.9837951660156 464.77191162109375 489.125244140625 460.3198547363281 473.06268310546875 461.6488952636719 C 483.9932556152344 467.1054382324219 487.07611083984375 463.39349365234375 482.8315734863281 463.1558837890625 C 467.6796875 474.6880798339844 475.237548828125 467.00299072265625 489.8126220703125 464.9461364746094 C 481.9433288574219 467.0516052246094 490.08343505859375 462.59210205078125 485.4129333496094 468.12060546875 C 485.61859130859375 464.5035400390625 487.6358337402344 468.73779296875 495.0489501953125 464.6800231933594 C 502.7139587402344 460.23602294921875 488.4546813964844 464.1449890136719 465.86376953125 473.0502624511719"/>
    <path stroke-width="0" fill="rgb(0, 0, 0)" opacity="1.0" d="M 86.65015411376953 273.3188781738281 C 80.35092163085938 273.44866943359375 73.04593658447266 273.3900451660156 64.8864517211914 272.4117126464844 C 56.61867904663086 270.36810302734375 51.192787170410156 266.246337890625 47.71713638305664 261.0390625 C 44.17745590209961 254.68963623046875 43.199493408203125 246.3295135498047 44.55895233154297 238.35572814941406 C 45.30574035644531 229.61314392089844 48.32450485229492 220.67080688476562 53.85436248779297 210.17832946777344 C 59.38059616088867 199.05543518066406 71.37808990478516 191.52999877929688 85.67571258544922 185.30465698242188 C 83.82575988769531 191.31922912597656 82.39732360839844 196.8075714111328 80.90204620361328 202.91087341308594 C 75.30663299560547 197.0982666015625 70.25702667236328 190.88809204101562 66.08309173583984 186.0736541748047 C 73.16439056396484 180.51559448242188 80.12305450439453 174.04164123535156 87.20563507080078 168.52706909179688 C 95.41156005859375 177.4477996826172 102.17605590820312 185.55445861816406 107.8516616821289 193.29660034179688 C 113.68614196777344 199.5900115966797 118.38494873046875 206.4197540283203 121.55191040039062 212.7377166748047 C 125.78985595703125 218.9829559326172 128.2916717529297 225.4110870361328 129.7350616455078 233.39968872070312 C 131.20960998535156 237.7342071533203 131.9312286376953 243.17405700683594 131.5103759765625 249.16172790527344 C 130.46279907226562 256.2649841308594 127.9417724609375 260.89154052734375 123.72559356689453 265.52569580078125 C 119.86595153808594 269.2342529296875 114.34371948242188 272.36346435546875 106.98273468017578 274.4124450683594 C 100.83768463134766 275.8896484375 93.64886474609375 274.972900390625 86.65015411376953 273.3188781738281M 88.89757537841797 246.34646606445312 C 95.580322265625 247.2029571533203 96.98450469970703 247.0099334716797 99.14825439453125 246.19000244140625 C 100.35340118408203 245.833251953125 100.89937591552734 245.2699432373047 101.1529312133789 244.5394287109375 C 101.54304504394531 243.37713623046875 101.56541442871094 241.23851013183594 100.8704605102539 238.1450958251953 C 100.39482116699219 234.52593994140625 99.5107421875 231.12725830078125 98.21874237060547 228.11317443847656 C 97.05500793457031 224.76649475097656 95.5975112915039 221.5865020751953 93.41706085205078 217.5363006591797 C 91.372802734375 213.90213012695312 88.6048812866211 210.37319946289062 84.36528015136719 206.13357543945312 C 87.73329162597656 205.85748291015625 91.07110595703125 205.6074676513672 94.25203704833984 205.3868865966797 C 89.6427230834961 208.0264892578125 85.90989685058594 210.87225341796875 82.83108520507812 214.13441467285156 C 79.84413146972656 217.2584991455078 79.29739379882812 218.19911193847656 77.66316223144531 221.97125244140625 C 76.47977447509766 225.20159912109375 74.87281036376953 231.18505859375 74.6633071899414 234.5634307861328 C 73.73540496826172 242.4488067626953 74.08413696289062 243.76226806640625 75.48750305175781 244.96653747558594 C 76.61164855957031 245.66896057128906 83.07514953613281 246.48867797851562 88.89757537841797 246.34646606445312M 100.7337646484375 134.36941528320312 C 97.56764221191406 151.06617736816406 102.5047378540039 175.38455200195312 87.68558502197266 181.25953674316406 C 77.54740905761719 131.20806884765625 86.21261596679688 123.12349700927734 93.3182373046875 141.09478759765625 C 82.5020523071289 145.34408569335938 78.95819091796875 131.69273376464844 88.07757568359375 129.89503479003906 C 107.64921569824219 131.4742431640625 103.24852752685547 118.56410217285156 139.20916748046875 94.8475112915039 C 120.38664245605469 132.55455017089844 108.00992584228516 138.20755004882812 106.661376953125 125.98342895507812 C 113.91473388671875 119.25453186035156 106.68138885498047 125.43917083740234 110.62201690673828 128.08917236328125 C 121.2092056274414 123.18921661376953 114.02091979980469 133.1638641357422 97.18824005126953 139.69186401367188 C 97.59004974365234 143.67300415039062 84.42041015625 135.43292236328125 100.7337646484375 134.36941528320312M 78.0202407836914 160.76922607421875 C 73.29780578613281 157.4989776611328 65.12248992919922 153.25782775878906 65.89099884033203 153.37823486328125 C 57.646202087402344 145.84861755371094 54.65595245361328 142.9386749267578 29.089405059814453 129.1543731689453 C 57.475372314453125 131.50836181640625 61.799076080322266 142.08323669433594 87.36302185058594 136.0210418701172 C 82.02534484863281 104.54525756835938 64.96879577636719 115.64872741699219 57.813228607177734 77.75787353515625 C 86.80735778808594 104.12028503417969 84.84355926513672 111.17880249023438 93.83834838867188 115.58342742919922 C 103.54879760742188 137.62901306152344 95.80229187011719 135.8854522705078 62.04251480102539 138.0935821533203 C 64.51925659179688 136.38380432128906 69.08380889892578 144.11212158203125 93.688720703125 154.8860321044922 C 108.2026596069336 189.95391845703125 79.43099975585938 192.74356079101562 78.0202407836914 160.76922607421875"/>
    <path stroke-width="0" fill="rgb(0, 0, 0)" opacity="1.0" d="M 149.27871704101562 333.8205261230469 C 140.2552947998047 327.151123046875 131.1379852294922 319.0591125488281 121.34423828125 310.78106689453125 C 128.08038330078125 302.97003173828125 133.58737182617188 295.8228759765625 139.75595092773438 287.6501770019531 C 149.75692749023438 280.86712646484375 157.1818389892578 276.68695068359375 161.6218719482422 273.6531066894531 C 165.62254333496094 270.2182922363281 167.08880615234375 268.5995788574219 170.49172973632812 263.5105895996094 C 172.92881774902344 259.84820556640625 174.5546875 255.1724395751953 176.02786254882812 249.76905822753906 C 177.8298797607422 243.8330535888672 177.73330688476562 238.21136474609375 176.81883239746094 234.73785400390625 C 175.9512939453125 231.74530029296875 175.44212341308594 223.41476440429688 175.02719116210938 214.5218963623047 C 185.5960693359375 214.7115020751953 196.68959045410156 213.76705932617188 204.45469665527344 212.60719299316406 C 205.10791015625 215.683837890625 205.59078979492188 218.7053680419922 205.96163940429688 221.46212768554688 C 206.29888916015625 222.446044921875 207.08409118652344 224.7030487060547 207.84046936035156 227.0528564453125 C 208.69927978515625 230.38253784179688 209.5549774169922 234.51992797851562 210.09519958496094 238.1313018798828 C 210.11953735351562 244.86497497558594 211.23289489746094 248.62008666992188 213.499755859375 250.83872985839844 C 216.53121948242188 253.44473266601562 221.48513793945312 255.56602478027344 229.06103515625 257.5440673828125 C 235.38221740722656 259.1640625 239.3081817626953 262.0467529296875 240.75509643554688 265.67779541015625 C 242.4664764404297 269.33319091796875 242.7263946533203 273.0600891113281 241.53184509277344 277.6332092285156 C 240.45167541503906 282.3920593261719 237.89306640625 285.8973388671875 233.9813690185547 288.0858459472656 C 229.9107666015625 290.16802978515625 225.63343811035156 290.2322998046875 219.89132690429688 288.8109130859375 C 213.86337280273438 287.7923889160156 210.0985565185547 285.8516540527344 207.08445739746094 283.6143493652344 C 204.05662536621094 281.8423156738281 201.48658752441406 279.20355224609375 199.37396240234375 275.3696594238281 C 197.05941772460938 271.21466064453125 196.16064453125 266.5235900878906 196.37582397460938 261.98516845703125 C 199.72084045410156 262.1285705566406 203.08151245117188 262.1172180175781 206.37796020507812 262.0475158691406 C 204.9905242919922 270.0077819824219 202.1307830810547 277.53778076171875 197.5209503173828 284.59326171875 C 194.43414306640625 290.36004638671875 192.00872802734375 293.2535095214844 186.39239501953125 297.5783386230469 C 180.3855743408203 302.3307800292969 174.38763427734375 305.9034423828125 170.12020874023438 308.65631103515625 C 165.23255920410156 314.09344482421875 157.8033905029297 324.2867431640625 149.27871704101562 333.8205261230469"/>
    <path stroke-width="0" fill="rgb(0, 0, 0)" opacity="1.0" d="M 373.0772399902344 282.578369140625 C 365.6559753417969 284.84979248046875 358.5526123046875 286.6441345214844 351.20733642578125 286.95977783203125 C 344.2391052246094 286.975830078125 337.5473327636719 284.94854736328125 332.0753479003906 281.6909484863281 C 327.4148864746094 279.1016540527344 323.32342529296875 276.23028564453125 320.18646240234375 273.2248229980469 C 315.998046875 269.77447509765625 312.13323974609375 265.0649719238281 267.78509521484375 267.8651123046875 C 311.73052978515625 232.48651123046875 318.0466003417969 230.85885620117188 315.9633483886719 240.47052001953125 C 323.5510559082031 240.2832794189453 332.6415710449219 247.78138732910156 334.981689453125 249.99378967285156 C 340.25067138671875 252.33111572265625 345.2469787597656 254.15145874023438 349.54278564453125 254.58804321289062 C 353.61407470703125 254.59620666503906 358.37493896484375 253.63504028320312 364.47515869140625 251.76136779785156 C 371.08978271484375 249.37551879882812 375.9898376464844 249.71286010742188 379.448974609375 252.2762451171875 C 382.4776916503906 254.46385192871094 384.6904602050781 258.14947509765625 385.55316162109375 262.18841552734375 C 386.6423645019531 266.2599182128906 386.4552001953125 269.77130126953125 384.7444763183594 273.4900207519531 C 383.13690185546875 277.2325134277344 379.25531005859375 280.43450927734375 373.0772399902344 282.578369140625M 224.37533569335938 290.1976318359375 C 227.28775024414062 280.0796813964844 229.8054962158203 269.1140441894531 232.58250427246094 258.44891357421875 C 227.60885620117188 256.32696533203125 239.64706420898438 267.7268981933594 253.40438842773438 268.26824951171875 C 265.5557861328125 255.54873657226562 265.6575622558594 253.86642456054688 268.96868896484375 249.17745971679688 C 277.50921630859375 238.2057647705078 288.2803955078125 233.6701202392578 299.0323181152344 227.8192596435547 C 293.60064697265625 218.84173583984375 312.27197265625 219.6575164794922 315.62347412109375 227.5402374267578 C 300.1446533203125 235.0092010498047 303.6869812011719 239.35548400878906 296.3246765136719 259.7566223144531 C 296.88861083984375 236.3899383544922 301.53662109375 227.37307739257812 300.69146728515625 214.6865234375 C 291.3658752441406 181.27210998535156 285.5986328125 176.67002868652344 275.291015625 203.99813842773438 C 270.3724670410156 247.50296020507812 257.91668701171875 258.2593078613281 263.8476257324219 204.83627319335938 C 268.6927795410156 197.35659790039062 259.7374572753906 217.17959594726562 250.10137939453125 217.3497772216797 C 261.6600341796875 205.7843475341797 251.51560974121094 224.67515563964844 230.05943298339844 225.3082275390625 C 262.7552490234375 191.70083618164062 265.48699951171875 201.741943359375 224.0506591796875 204.2176055908203 C 237.56564331054688 196.5799102783203 220.15296936035156 204.668212890625 236.69334411621094 196.13336181640625 C 262.87066650390625 191.84300231933594 267.9040832519531 188.57215881347656 279.4656982421875 181.27410888671875 C 279.3165588378906 179.7102813720703 290.1524353027344 182.05035400390625 296.8960876464844 129.00624084472656 C 317.3392333984375 139.86544799804688 298.46405029296875 175.69818115234375 309.6913146972656 191.7354278564453 C 311.59344482421875 196.14614868164062 316.09002685546875 200.37835693359375 318.7418518066406 201.9311981201172 C 310.4527893066406 198.6909942626953 320.5763854980469 205.29086303710938 325.7506408691406 209.35003662109375 C 342.68658447265625 206.89015197753906 341.71368408203125 208.17703247070312 350.951416015625 207.62562561035156 C 367.87066650390625 209.0832061767578 374.71844482421875 213.74205017089844 335.3971862792969 209.67799377441406 C 349.4101867675781 217.22059631347656 362.9092102050781 231.6263427734375 371.3006286621094 234.93927001953125 C 357.1138000488281 233.4434051513672 345.93487548828125 226.01710510253906 309.3145446777344 207.14108276367188 C 329.0106506347656 253.3147430419922 325.66143798828125 255.8523406982422 320.8052062988281 259.94671630859375 C 316.205322265625 264.22802734375 303.365234375 258.6045837402344 291.20635986328125 263.2103271484375 C 306.1336364746094 250.74191284179688 297.6865234375 258.7506103515625 293.9903259277344 269.58074951171875 C 290.6401672363281 278.3873596191406 284.0221862792969 288.19964599609375 283.7057189941406 293.2088317871094 C 257.7472839355469 305.0982971191406 239.19473266601562 309.72711181640625 224.37533569335938 290.1976318359375M 297.60980224609375 307.6974792480469 C 294.1524353027344 310.5971984863281 294.8092346191406 305.9738464355469 288.5687561035156 287.4718017578125 C 261.4586486816406 306.7481994628906 270.3390197753906 308.8064270019531 268.3586120605469 296.5321350097656 C 269.3711242675781 303.6943359375 267.544921875 291.793701171875 278.0949401855469 285.3609313964844 C 280.7194519042969 277.1455993652344 275.05218505859375 273.41485595703125 286.78912353515625 274.50848388671875 C 280.30438232421875 299.598876953125 294.40478515625 298.3048095703125 296.04864501953125 304.84954833984375 C 293.69976806640625 303.2957763671875 298.9686584472656 308.73199462890625 303.2465515136719 321.1341247558594 C 304.7970886230469 317.0008544921875 297.77227783203125 318.1468811035156 302.4872131347656 311.4245300292969 C 299.0163269042969 316.4081115722656 307.9534606933594 325.8912353515625 297.60980224609375 307.6974792480469"/>
    <path stroke-width="0" fill="rgb(0, 0, 0)" opacity="1.0" d="M 376.3127136230469 281.54974365234375 C 372.5010986328125 271.5160217285156 369.2038879394531 261.26409912109375 365.9334411621094 251.16270446777344 C 371.1427001953125 249.4147186279297 374.7362365722656 247.51739501953125 378.3642272949219 245.44329833984375 C 381.0766296386719 244.12313842773438 382.27288818359375 242.82992553710938 383.53314208984375 241.0135955810547 C 385.1401672363281 237.61871337890625 386.4786682128906 232.41775512695312 387.3163146972656 228.93783569335938 C 389.42449951171875 221.3726043701172 389.14251708984375 213.80641174316406 388.8782043457031 202.5259246826172 C 399.59539794921875 203.63523864746094 410.0400085449219 206.29537963867188 417.6833801269531 212.3601531982422 C 417.25555419921875 213.0911865234375 416.36431884765625 214.69256591796875 415.4080505371094 216.2581024169922 C 414.71002197265625 217.98806762695312 416.53790283203125 218.9595184326172 416.15423583984375 223.68992614746094 C 415.77587890625 226.8113250732422 416.2333984375 231.45794677734375 416.5843811035156 234.1793670654297 C 416.648681640625 236.5920867919922 417.5043029785156 238.34861755371094 419.7509460449219 240.0436553955078 C 422.8987121582031 242.23974609375 432.8013610839844 244.67872619628906 443.7938232421875 249.0626678466797 C 447.93756103515625 250.9798126220703 448.5661315917969 250.97604370117188 452.6013488769531 249.7940673828125 C 457.4687194824219 247.7722625732422 461.5148620605469 244.26416015625 462.876953125 241.63186645507812 C 464.73480224609375 239.08572387695312 465.9435729980469 236.40966796875 469.04254150390625 227.48114013671875 C 469.1357727050781 221.78662109375 467.58770751953125 214.77586364746094 466.403564453125 208.301513671875 C 472.6836242675781 207.3097686767578 477.4335021972656 206.350341796875 484.33465576171875 204.97103881835938 C 484.9674987792969 207.1705780029297 485.5618896484375 209.1860809326172 486.1497497558594 211.7528076171875 C 486.693115234375 214.20269775390625 487.4845275878906 218.30381774902344 488.497314453125 222.05857849121094 C 489.02685546875 226.97886657714844 489.58843994140625 230.73095703125 490.8815002441406 234.20677185058594 C 491.4275817871094 236.9365692138672 488.1695556640625 237.891357421875 491.3600769042969 239.65994262695312 C 492.71710205078125 240.77685546875 494.9292907714844 241.5890655517578 499.2721862792969 242.15379333496094 C 502.63739013671875 242.39854431152344 509.5526123046875 244.3883514404297 516.5799560546875 246.9522247314453 C 521.8580932617188 250.13238525390625 524.69677734375 251.47970581054688 525.3407592773438 251.30184936523438 C 526.4954833984375 251.10971069335938 527.9888916015625 249.9449920654297 528.8867797851562 248.13864135742188 C 530.8954467773438 243.68565368652344 531.509033203125 238.32867431640625 531.6947021484375 239.3125457763672 C 531.3919067382812 234.1045684814453 530.9429931640625 225.48489379882812 532.20751953125 215.57237243652344 C 530.1921997070312 206.47816467285156 531.66064453125 196.9287872314453 532.4839477539062 188.57647705078125 C 540.987548828125 190.20077514648438 547.4619750976562 190.60687255859375 556.2603149414062 190.53627014160156 C 556.43896484375 195.7584991455078 556.3499755859375 200.52926635742188 556.3193359375 206.33432006835938 C 557.34423828125 213.86563110351562 557.4859008789062 221.9676513671875 557.6708984375 226.6976776123047 C 558.4664916992188 234.58619689941406 558.6160278320312 229.31700134277344 559.4782104492188 233.1307830810547 C 560.1384887695312 239.61180114746094 559.74853515625 246.1727752685547 558.365966796875 251.8299102783203 C 556.6432495117188 257.293212890625 553.6817016601562 263.21942138671875 548.9000854492188 268.23101806640625 C 544.033447265625 273.2760009765625 537.8644409179688 276.64215087890625 529.78515625 277.5394287109375 C 522.0697021484375 276.8489074707031 514.9271850585938 274.1175842285156 508.956787109375 270.84613037109375 C 502.33172607421875 268.95367431640625 498.7418518066406 267.8350830078125 496.7980041503906 267.17669677734375 C 490.78692626953125 266.8821105957031 487.3977355957031 265.3563232421875 485.4002685546875 263.6630554199219 C 483.0312805175781 261.4225769042969 480.2198486328125 257.2980651855469 478.13037109375 250.60035705566406 C 481.15643310546875 250.43893432617188 483.3503723144531 250.01034545898438 485.7095642089844 249.6365509033203 C 484.65771484375 257.7178955078125 483.3964538574219 264.9094543457031 479.98486328125 269.00177001953125 C 475.76531982421875 273.10009765625 471.6333312988281 275.8092041015625 463.6150207519531 277.765869140625 C 455.31878662109375 280.1627197265625 445.06219482421875 280.917236328125 436.3368225097656 277.9961242675781 C 428.4607849121094 275.0425109863281 424.8993225097656 273.7353820800781 421.5315246582031 271.95635986328125 C 422.0725402832031 268.1981506347656 416.60150146484375 267.2191162109375 411.67791748046875 264.75439453125 C 406.8466491699219 261.7696228027344 403.2799377441406 256.37664794921875 400.4169006347656 248.78323364257812 C 404.0807189941406 248.57469177246094 408.0718994140625 248.21542358398438 411.7926025390625 247.82969665527344 C 409.9363708496094 255.2657012939453 407.3647766113281 261.1133117675781 403.33404541015625 265.1986389160156 C 400.60589599609375 267.5132751464844 397.1579895019531 270.09259033203125 393.10919189453125 272.3249206542969 C 388.89801025390625 275.394775390625 383.64892578125 278.4618225097656 376.3127136230469 281.54974365234375M 484.2804260253906 162.02972412109375 C 484.1578674316406 177.44815063476562 472.10430908203125 154.31741333007812 470.833740234375 138.5991668701172 C 481.6490783691406 145.3169708251953 481.08648681640625 151.3974609375 470.06854248046875 142.86569213867188 C 460.7539367675781 111.63116455078125 464.9870300292969 103.65859985351562 470.4074401855469 117.38668060302734 C 462.06561279296875 122.7420883178711 462.9190368652344 103.47972869873047 470.3031005859375 113.16996765136719 C 477.1993408203125 121.70498657226562 474.3626708984375 133.23175048828125 476.9412841796875 145.5291748046875 C 463.1444091796875 132.6044464111328 474.641845703125 129.2451934814453 477.6914367675781 138.7263946533203 C 477.2529296875 139.7263946533203 482.38360595703125 144.5762481689453 479.62640380859375 140.46640014648438 C 484.09100341796875 141.92518615722656 478.41851806640625 145.18077087402344 484.2804260253906 162.02972412109375M 463.8388366699219 200.4906005859375 C 453.3598937988281 189.9251251220703 451.3384094238281 180.6463165283203 450.449462890625 181.289306640625 C 447.4219055175781 178.84910583496094 439.5976257324219 167.499267578125 437.5449523925781 157.40650939941406 C 449.9433288574219 161.58230590820312 444.8747863769531 141.1868133544922 427.89007568359375 143.00885009765625 C 428.58966064453125 154.2778778076172 433.59197998046875 165.2242431640625 447.2168884277344 157.31689453125 C 451.18536376953125 163.80636596679688 459.24609375 165.8272247314453 452.9723205566406 160.08441162109375 C 456.87969970703125 170.78257751464844 463.18853759765625 176.93020629882812 469.5682373046875 185.4234619140625 C 448.8907775878906 185.2920379638672 455.6708679199219 179.66583251953125 480.7308044433594 185.25482177734375 C 486.3954162597656 235.23837280273438 466.6910705566406 226.580810546875 463.8388366699219 200.4906005859375M 486.25152587890625 165.17874145507812 C 469.66839599609375 171.9814910888672 471.1374206542969 183.88458251953125 474.5145263671875 182.32383728027344 C 479.9895935058594 184.86981201171875 484.6684265136719 184.41403198242188 489.2578430175781 172.89385986328125 C 485.53765869140625 168.86151123046875 481.1348571777344 161.4177703857422 493.6808166503906 129.1805419921875 C 496.6978454589844 159.64700317382812 495.14239501953125 160.62127685546875 495.7320556640625 154.0874786376953 C 502.72259521484375 152.51670837402344 503.9872741699219 141.60781860351562 536.2041625976562 128.507080078125 C 515.750732421875 156.35218811035156 507.52947998046875 157.66165161132812 503.4570617675781 160.41851806640625 C 496.4405517578125 165.7359161376953 492.2872314453125 174.7375030517578 489.8329162597656 169.189453125 C 491.65155029296875 172.94131469726562 484.3448791503906 171.69508361816406 486.25152587890625 165.17874145507812"/>
  </g>
</svg>
