<?xml version="1.0" ?>
<svg xmlns="http://www.w3.org/2000/svg" version="1.1" width="600" height="600">
  <defs/>
  <g>
    <path stroke-width="0" fill="rgb(0, 0, 0)" opacity="1.0" d="M 112.33641815185547 480.43560791015625 C 109.99784851074219 480.5801086425781 107.61688232421875 480.628662109375 108.40042877197266 482.84716796875 C 104.786865234375 484.3948059082031 101.65381622314453 485.9833679199219 95.12993621826172 485.8086242675781 C 92.70423126220703 484.68359375 90.41970825195312 485.3016052246094 88.14301300048828 484.61968994140625 C 83.31389617919922 481.4161071777344 80.49517822265625 480.3418884277344 77.8670425415039 479.781982421875 C 78.50308227539062 477.65667724609375 79.7451400756836 475.17657470703125 80.65708923339844 472.94268798828125 C 80.88484954833984 471.73870849609375 78.17359161376953 471.5419616699219 78.24526977539062 469.1148986816406 C 78.3447036743164 465.4531555175781 78.80098724365234 463.8631591796875 79.88687133789062 459.55718994140625 C 80.56654357910156 454.8568115234375 80.495361328125 450.9473876953125 81.06796264648438 448.07672119140625 C 80.09552001953125 454.89178466796875 79.66077423095703 452.9826965332031 79.10472106933594 450.140625 C 79.82264709472656 442.9073791503906 79.73008728027344 441.82977294921875 79.5023193359375 437.2193298339844 C 79.3929672241211 432.6599426269531 80.3604736328125 427.4927062988281 80.45811462402344 425.297607421875 C 81.24866485595703 420.3648986816406 81.78636169433594 428.887451171875 81.06527709960938 427.0500793457031 C 80.25696563720703 423.4204406738281 79.59855651855469 420.4267272949219 78.70414733886719 417.2625427246094 C 79.43116760253906 413.34320068359375 79.85880279541016 411.7282409667969 79.99030303955078 408.1402282714844 C 80.15350341796875 403.99517822265625 80.57544708251953 401.2218322753906 80.70861053466797 408.2869567871094 C 80.60148620605469 405.05242919921875 80.08296203613281 401.2867431640625 79.70789337158203 398.2510681152344 C 78.84473419189453 396.13336181640625 78.64542388916016 393.02252197265625 78.76811218261719 390.22216796875 C 79.0901107788086 386.38653564453125 79.18070220947266 381.92791748046875 79.60279083251953 377.0829162597656 C 80.32247161865234 382.4024658203125 80.10556030273438 379.1080322265625 79.6765365600586 375.3932189941406 C 79.461181640625 371.35308837890625 79.63632202148438 375.71832275390625 78.96236419677734 368.8357238769531 C 73.97352600097656 367.750244140625 78.9479751586914 367.7297058105469 72.07372283935547 368.0104064941406 C 69.88296508789062 368.4854431152344 63.47540283203125 368.8568420410156 58.42180633544922 367.7918395996094 C 56.759796142578125 367.44720458984375 50.580684661865234 366.9775390625 47.59146499633789 365.763916015625 C 43.2021484375 365.24310302734375 39.69380187988281 364.0060729980469 35.463218688964844 362.07391357421875 C 37.45689392089844 357.0643310546875 38.851646423339844 352.5333251953125 39.010765075683594 350.49249267578125 C 39.282047271728516 348.05670166015625 39.2476921081543 343.9167785644531 38.63898849487305 339.2217102050781 C 43.786861419677734 337.9174499511719 48.36724853515625 337.01214599609375 56.63426971435547 336.5065002441406 C 63.020179748535156 337.5936584472656 63.32244873046875 337.7412414550781 69.11910247802734 335.82501220703125 C 79.00940704345703 334.8872375488281 84.43821716308594 336.1898193359375 90.77593231201172 337.0721740722656 C 93.103515625 337.3570556640625 97.54734802246094 338.2392578125 96.76642608642578 336.50518798828125 C 100.69696044921875 336.6718444824219 105.09317779541016 336.5563659667969 112.0009536743164 336.63897705078125 C 115.94681549072266 337.0503845214844 119.49007415771484 336.96142578125 123.8386001586914 336.56292724609375 C 125.03406524658203 336.8113098144531 125.97069549560547 336.8541564941406 131.49806213378906 338.23834228515625 C 136.91966247558594 339.747802734375 141.431884765625 340.6505432128906 145.18408203125 341.64715576171875 C 144.2175750732422 345.0937805175781 143.19528198242188 351.8488464355469 142.1393585205078 354.9969787597656 C 142.164306640625 356.92901611328125 142.2169647216797 360.3893127441406 142.2369842529297 364.5804443359375 C 139.86390686035156 364.938232421875 136.66961669921875 365.8753662109375 132.02650451660156 366.6658020019531 C 128.3850860595703 366.5845642089844 126.26138305664062 366.3143615722656 124.12008666992188 366.1365966796875 C 121.56902313232422 366.2168884277344 118.41777038574219 366.1158142089844 125.86824035644531 366.81988525390625 C 123.41732788085938 367.1302490234375 118.40531158447266 367.9557189941406 113.52867889404297 367.879638671875 C 113.44190216064453 368.6826171875 113.62055206298828 371.9688415527344 113.53443145751953 375.3052673339844 C 113.66495513916016 377.20611572265625 113.58956146240234 378.3341369628906 113.44169616699219 382.3394775390625 C 112.67654418945312 388.3921813964844 112.26390838623047 394.14007568359375 110.93721008300781 388.12664794921875 C 112.75875854492188 394.8273620605469 113.12852478027344 401.41766357421875 113.50694274902344 404.3156433105469 C 113.0692367553711 406.534912109375 112.65511322021484 409.4629211425781 112.16401672363281 412.504638671875 C 112.00305938720703 419.4197692871094 113.06958770751953 413.16217041015625 113.90882873535156 416.3786926269531 C 114.6585693359375 421.2700500488281 115.25331115722656 425.1148376464844 114.92005920410156 427.5072021484375 C 113.99886322021484 433.9637451171875 113.68864440917969 437.114013671875 113.51754760742188 438.85791015625 C 113.68035888671875 440.7701416015625 113.72258758544922 441.7262878417969 113.80303192138672 444.4148864746094 C 114.14881896972656 446.30181884765625 114.43060302734375 450.863525390625 114.66027069091797 452.31072998046875 C 114.72010803222656 453.609130859375 114.6335220336914 456.42913818359375 114.18431091308594 464.53289794921875 C 113.8267593383789 467.1319580078125 113.80302429199219 469.27386474609375 113.92706298828125 470.9132995605469 C 111.67279052734375 471.3349914550781 112.48497772216797 474.52996826171875 111.62973022460938 475.0773010253906 C 111.72394561767578 476.4427490234375 112.0394287109375 478.4823303222656 112.33641815185547 480.43560791015625"/>
    <path stroke-width="0" fill="rgb(0, 0, 0)" opacity="1.0" d="M 216.38453674316406 333.7428894042969 C 209.47425842285156 335.02099609375 216.0168914794922 333.1895446777344 223.3877410888672 329.8449401855469 C 228.00827026367188 329.9139709472656 231.08448791503906 330.3389587402344 237.5413360595703 331.3166198730469 C 240.4543914794922 331.6394348144531 249.5529327392578 336.7445983886719 252.25071716308594 338.83111572265625 C 254.95010375976562 340.3647155761719 257.5538024902344 342.6077575683594 258.7148742675781 343.4295349121094 C 260.64349365234375 344.5574035644531 262.00653076171875 345.4230651855469 266.8779296875 355.2156066894531 C 269.500244140625 359.5306091308594 270.5625 362.1368103027344 271.94549560546875 365.94049072265625 C 273.2997131347656 369.0248718261719 275.0044250488281 372.79376220703125 275.42364501953125 377.851318359375 C 274.8271484375 383.9005126953125 274.1162414550781 388.5730895996094 273.8701477050781 390.1041259765625 C 273.4855041503906 395.799560546875 272.0091247558594 399.68292236328125 270.27435302734375 402.54852294921875 C 267.68963623046875 408.7310791015625 263.82379150390625 412.8020324707031 260.3786926269531 415.51666259765625 C 256.6016540527344 418.6869201660156 252.4084014892578 421.18359375 246.62660217285156 423.5188293457031 C 246.9385986328125 424.3377990722656 247.94740295410156 425.60174560546875 248.60006713867188 426.7786865234375 C 250.20175170898438 429.0188903808594 251.26263427734375 430.1718444824219 252.81381225585938 432.036376953125 C 255.1438751220703 435.0796203613281 256.4887390136719 436.59814453125 258.80267333984375 439.12347412109375 C 261.13421630859375 441.39520263671875 264.3813171386719 444.54052734375 266.7943115234375 447.8575439453125 C 269.5908203125 450.59063720703125 271.981689453125 454.1684265136719 273.8990173339844 456.3507385253906 C 275.1849365234375 458.3022155761719 276.2749328613281 461.6282043457031 277.7451477050781 464.4797058105469 C 281.18634033203125 467.13043212890625 282.5807189941406 469.8827819824219 283.0588684082031 472.97222900390625 C 282.7983093261719 478.8753662109375 282.52752685546875 481.057373046875 282.97747802734375 483.84783935546875 C 280.23248291015625 482.66070556640625 278.7079162597656 482.162841796875 275.716064453125 481.5120849609375 C 273.4875183105469 480.31854248046875 271.22503662109375 479.4140319824219 268.2225341796875 479.0132141113281 C 266.5501708984375 478.8792724609375 259.7234802246094 480.96368408203125 258.2633361816406 481.0181884765625 C 256.74676513671875 478.7832946777344 256.02789306640625 478.6085205078125 253.38092041015625 480.2890930175781 C 248.33253479003906 475.8299865722656 245.86798095703125 471.4227294921875 244.07005310058594 468.2626953125 C 242.6388397216797 466.316650390625 240.58982849121094 464.23785400390625 239.6432342529297 463.1857604980469 C 237.42880249023438 460.5028381347656 236.0336456298828 458.80157470703125 234.11947631835938 456.79229736328125 C 231.89744567871094 453.975830078125 230.4053955078125 452.5245361328125 229.0660858154297 450.8644714355469 C 227.07437133789062 447.92828369140625 224.91055297851562 445.3345642089844 223.14120483398438 443.2008972167969 C 220.7174072265625 439.4041748046875 218.28125 434.8000183105469 215.98641967773438 430.67034912109375 C 212.21832275390625 430.5819396972656 205.2268829345703 431.519287109375 201.6472930908203 431.3504943847656 C 202.00198364257812 429.7303466796875 202.24447631835938 432.9552917480469 202.23106384277344 441.9430236816406 C 200.73391723632812 452.3479919433594 200.05413818359375 457.04608154296875 200.01931762695312 457.91064453125 C 199.95822143554688 459.7221984863281 200.75534057617188 464.52960205078125 200.44891357421875 471.6458435058594 C 199.71539306640625 474.26220703125 198.6964569091797 476.43585205078125 198.26710510253906 479.2248229980469 C 196.58981323242188 478.9705810546875 194.5966339111328 478.21441650390625 191.58668518066406 476.91748046875 C 190.55197143554688 480.8947448730469 185.45428466796875 480.0820617675781 185.02236938476562 479.9486999511719 C 183.91847229003906 479.82025146484375 181.97715759277344 480.0741882324219 179.61807250976562 479.78765869140625 C 177.15866088867188 480.30035400390625 175.9813232421875 480.90985107421875 173.42160034179688 482.78912353515625 C 171.5116729736328 480.1232604980469 170.2301483154297 476.2019348144531 169.38905334472656 472.0023498535156 C 169.17074584960938 468.7281799316406 169.1953582763672 465.4056396484375 169.12950134277344 462.1700439453125 C 168.64279174804688 467.153564453125 168.50274658203125 462.3287353515625 168.43072509765625 458.4408264160156 C 168.12705993652344 454.7881774902344 168.59226989746094 451.2588195800781 169.5355987548828 447.5709228515625 C 170.27542114257812 442.7164001464844 170.38140869140625 440.3579406738281 170.74774169921875 436.3451232910156 C 170.48023986816406 433.0846252441406 170.38314819335938 430.30322265625 169.6336669921875 425.8706970214844 C 170.09368896484375 423.8710021972656 170.19476318359375 423.20489501953125 170.41934204101562 416.4903869628906 C 170.50611877441406 413.77386474609375 170.6330108642578 412.3838806152344 171.62083435058594 406.7303161621094 C 172.61949157714844 402.76116943359375 172.48036193847656 400.0887451171875 172.5769500732422 398.0829772949219 C 173.13270568847656 395.3804626464844 173.75021362304688 391.8084716796875 174.0968780517578 388.8262023925781 C 175.3323516845703 384.80584716796875 175.6195831298828 383.1379089355469 175.28529357910156 389.64892578125 C 174.90113830566406 387.76202392578125 174.7684783935547 386.2392272949219 174.70924377441406 377.948486328125 C 175.12106323242188 371.5086975097656 175.24246215820312 369.9888000488281 175.583251953125 365.9151306152344 C 176.1575164794922 363.82598876953125 176.1233673095703 363.1758117675781 175.94956970214844 358.6692810058594 C 180.47665405273438 357.8703918457031 179.82272338867188 355.05694580078125 179.8503875732422 351.8060607910156 C 181.14881896972656 352.2796630859375 181.57005310058594 350.381591796875 181.6871795654297 348.6022644042969 C 184.2898406982422 348.85357666015625 186.93142700195312 349.43756103515625 188.51670837402344 344.49212646484375 C 188.42520141601562 343.0860900878906 188.2074432373047 339.8569030761719 187.129638671875 342.14886474609375 C 191.31094360351562 341.7242736816406 192.7606201171875 341.3540954589844 197.30026245117188 339.84967041015625 C 204.109375 335.0887756347656 208.61643981933594 333.7725524902344 216.38453674316406 333.7428894042969M 216.5009002685547 365.3451843261719 C 212.37799072265625 365.6888427734375 209.76744079589844 366.4961242675781 207.58941650390625 366.87786865234375 C 207.3234405517578 369.7837219238281 207.13279724121094 372.7190246582031 206.63125610351562 376.5707092285156 C 206.38739013671875 382.0060729980469 206.20266723632812 384.560302734375 206.3963165283203 385.7892761230469 C 206.4906768798828 386.8401184082031 205.88011169433594 389.93878173828125 205.22750854492188 392.7869873046875 C 204.6307373046875 395.3820495605469 204.43838500976562 398.350830078125 203.9974365234375 401.3891296386719 C 207.3823699951172 402.050537109375 209.31407165527344 402.15264892578125 212.6520233154297 402.3830871582031 C 216.45787048339844 402.8779296875 221.46658325195312 402.61688232421875 226.72120666503906 402.3139953613281 C 230.18197631835938 402.08984375 232.6220703125 401.166015625 235.54270935058594 399.5076904296875 C 238.4210662841797 398.0305480957031 239.8493194580078 396.8243713378906 241.2610626220703 393.8108825683594 C 243.6844024658203 391.39788818359375 245.2127227783203 387.947509765625 245.12400817871094 380.3286437988281 C 245.1384735107422 376.9427185058594 243.1444091796875 371.8169860839844 240.01593017578125 368.5772399902344 C 238.261474609375 366.0948791503906 235.3924102783203 364.2277526855469 232.20375061035156 363.7362976074219 C 226.22525024414062 362.4416198730469 222.7329864501953 362.8064880371094 216.5009002685547 365.3451843261719"/>
    <path stroke-width="0" fill="rgb(0, 0, 0)" opacity="1.0" d="M 385.5247802734375 481.9104919433594 C 382.1293029785156 481.89581298828125 378.9017028808594 482.3769836425781 375.5547790527344 482.5101318359375 C 369.62921142578125 482.9555358886719 374.1407165527344 482.07861328125 367.7445068359375 482.84912109375 C 359.6431579589844 483.73095703125 353.4886474609375 483.50738525390625 359.01763916015625 483.3395690917969 C 353.622314453125 484.4824523925781 348.8689270019531 484.1192932128906 344.6684875488281 483.8289489746094 C 339.0601806640625 483.4424133300781 332.2870178222656 482.6709289550781 327.2886047363281 481.17974853515625 C 322.08984375 479.5281982421875 323.8045959472656 481.14501953125 318.85888671875 480.9197692871094 C 320.10650634765625 483.1847229003906 313.32427978515625 482.8653259277344 311.76141357421875 481.91900634765625 C 309.7240905761719 480.74127197265625 306.32318115234375 478.9039306640625 303.0394592285156 476.88275146484375 C 304.68634033203125 474.2196960449219 306.3530578613281 471.1487731933594 307.2896423339844 468.96124267578125 C 307.5968017578125 468.29156494140625 302.1867980957031 467.18548583984375 303.92681884765625 461.66046142578125 C 303.7532653808594 461.1495666503906 303.58740234375 459.2435302734375 304.0926513671875 456.5147399902344 C 304.0315856933594 451.0426025390625 303.6856384277344 449.64892578125 303.2214050292969 444.2093811035156 C 303.247802734375 442.0329895019531 302.8463439941406 439.38861083984375 302.7649230957031 436.71783447265625 C 301.86553955078125 434.3106689453125 302.2721252441406 431.9169006347656 302.5290832519531 427.9789733886719 C 302.7940368652344 426.3884582519531 303.2179260253906 421.052001953125 304.0425720214844 415.12091064453125 C 304.5619812011719 413.6782531738281 304.9674377441406 412.5329284667969 305.290771484375 410.8846740722656 C 305.4264221191406 408.62469482421875 305.39593505859375 404.7637939453125 305.5079650878906 401.470947265625 C 305.52850341796875 398.09661865234375 306.16815185546875 402.9341125488281 305.5391845703125 400.09954833984375 C 304.67340087890625 394.0645446777344 303.7286682128906 391.0659484863281 302.70379638671875 384.80908203125 C 302.4186706542969 381.7593688964844 301.62060546875 377.05596923828125 302.1202392578125 370.09930419921875 C 303.09515380859375 365.5129699707031 304.3693542480469 360.8662109375 304.32965087890625 368.135009765625 C 304.4488525390625 363.5482177734375 304.54266357421875 360.19287109375 303.6122741699219 353.54241943359375 C 307.2163391113281 354.1591796875 306.8393859863281 352.1571044921875 306.4095153808594 350.2941589355469 C 306.78631591796875 346.1529846191406 307.1083068847656 342.7125549316406 307.5675048828125 339.8904724121094 C 310.5614013671875 339.9735107421875 313.090087890625 339.94805908203125 319.4117126464844 339.747314453125 C 319.4999084472656 337.4408264160156 324.166015625 337.3139953613281 321.1275329589844 341.0824890136719 C 321.4359130859375 340.8824157714844 325.36083984375 340.6988525390625 328.39471435546875 340.0953369140625 C 333.609619140625 338.9162902832031 336.6304931640625 338.52947998046875 342.7729797363281 338.6142883300781 C 347.1929016113281 338.2320251464844 351.3604431152344 338.6666259765625 355.1674499511719 338.8565673828125 C 357.46636962890625 338.64984130859375 360.3267517089844 338.998779296875 366.2574462890625 339.784912109375 C 370.7095947265625 340.2777099609375 374.7547912597656 340.7891540527344 376.6108703613281 340.7627258300781 C 378.084228515625 340.4096984863281 380.9398193359375 339.2196960449219 383.7182312011719 338.0186462402344 C 384.54718017578125 339.900146484375 385.50018310546875 341.5517272949219 386.4249572753906 343.9532470703125 C 387.7626647949219 347.10504150390625 388.3554992675781 351.4770812988281 388.69122314453125 355.802734375 C 388.6535339355469 359.60693359375 387.8750305175781 361.648193359375 384.8855285644531 359.3067932128906 C 384.447509765625 360.7502746582031 383.22125244140625 362.2601623535156 382.2181701660156 363.64593505859375 C 380.8930358886719 362.6515808105469 379.00335693359375 361.5065612792969 377.9748229980469 363.660400390625 C 375.2889709472656 362.4180603027344 373.4466247558594 365.43756103515625 372.7724304199219 367.652587890625 C 368.9008483886719 367.20501708984375 363.2633361816406 366.0386657714844 358.5342712402344 365.3765563964844 C 355.22705078125 365.3454895019531 358.3341369628906 365.89312744140625 354.9383239746094 366.41162109375 C 351.69317626953125 365.4075012207031 349.8020935058594 365.17529296875 347.2333679199219 364.98388671875 C 344.61492919921875 365.3472900390625 340.15008544921875 365.3876953125 336.01239013671875 366.0194091796875 C 336.2145080566406 368.0831298828125 335.82421875 369.9154052734375 334.8719482421875 374.40948486328125 C 334.57525634765625 376.193115234375 334.1475830078125 378.9291076660156 334.0015563964844 380.34295654296875 C 334.32647705078125 381.8945617675781 334.1025085449219 382.6593322753906 334.8419189453125 385.8900146484375 C 335.1128234863281 388.46417236328125 335.7823791503906 391.0690612792969 336.6676940917969 395.0763244628906 C 341.160888671875 395.4688720703125 345.5135498046875 395.5353698730469 351.21746826171875 394.97564697265625 C 354.1576232910156 394.8602294921875 357.9277648925781 395.64471435546875 363.0872497558594 396.74609375 C 367.8759765625 396.8429260253906 361.8731384277344 395.5272216796875 370.7608947753906 394.52862548828125 C 376.313232421875 394.6023254394531 379.1429748535156 394.50732421875 381.94970703125 394.2625732421875 C 382.4610290527344 396.1308898925781 382.77618408203125 397.8638916015625 382.8021240234375 401.13970947265625 C 382.5080261230469 403.74072265625 384.1336975097656 403.01580810546875 384.57257080078125 406.550537109375 C 384.89971923828125 407.5289001464844 385.843505859375 412.08953857421875 386.4627685546875 414.4749755859375 C 387.37298583984375 417.067626953125 387.90631103515625 419.2335510253906 388.30670166015625 420.9078063964844 C 384.99493408203125 422.11187744140625 380.7962951660156 423.7720642089844 375.2095947265625 424.989990234375 C 367.92474365234375 426.1161193847656 364.4892272949219 426.5736389160156 360.42596435546875 425.73162841796875 C 353.98504638671875 424.4944152832031 359.0549011230469 423.8555908203125 351.666748046875 424.3591613769531 C 344.2140808105469 423.5353698730469 340.48583984375 423.3228454589844 335.9747009277344 422.9541015625 C 335.3255615234375 426.8087158203125 335.2593994140625 428.2650451660156 334.7773132324219 432.73712158203125 C 334.6058044433594 435.6131896972656 334.2237548828125 427.1191101074219 335.1551208496094 432.4517517089844 C 335.3573913574219 439.8184814453125 335.4014892578125 440.98370361328125 335.3002624511719 443.10418701171875 C 335.97967529296875 447.6466979980469 336.2693176269531 451.529541015625 336.43359375 453.36602783203125 C 339.110595703125 453.6623229980469 340.49169921875 453.759765625 342.4508056640625 453.86029052734375 C 345.8429870605469 454.02655029296875 350.6643981933594 454.1228332519531 351.689208984375 454.1875305175781 C 356.178955078125 454.4629211425781 350.6062927246094 454.6448059082031 352.4474792480469 454.0647888183594 C 355.07171630859375 453.3454284667969 358.49334716796875 453.8287048339844 361.0908203125 454.0745849609375 C 362.92169189453125 454.0893249511719 368.1908264160156 453.9344482421875 369.4856872558594 453.869384765625 C 366.7998962402344 454.6230773925781 369.5205993652344 454.7836608886719 372.74981689453125 454.51654052734375 C 373.00433349609375 456.5068054199219 375.0507507324219 456.07073974609375 377.2856140136719 455.7607116699219 C 380.3572692871094 455.69464111328125 382.86187744140625 456.02349853515625 384.9309997558594 456.3062744140625 C 384.57220458984375 458.4943542480469 384.50048828125 460.5318603515625 384.5478210449219 461.5389404296875 C 385.09619140625 463.095703125 385.6405944824219 465.4070129394531 385.6345520019531 467.7078552246094 C 385.8962707519531 470.75225830078125 385.832275390625 473.7033386230469 385.4886779785156 476.1654968261719 C 385.5529479980469 477.7575378417969 385.59417724609375 479.8752136230469 385.5247802734375 481.9104919433594"/>
    <path stroke-width="0" fill="rgb(0, 0, 0)" opacity="1.0" d="M 477.65863037109375 473.2689208984375 C 484.2997741699219 481.3427734375 492.8521728515625 482.79803466796875 503.2372741699219 494.4637145996094 C 471.3863525390625 494.1746520996094 470.7829895019531 490.4192810058594 462.3968505859375 485.22283935546875 C 453.841796875 478.354736328125 466.883544921875 478.5787353515625 478.92205810546875 479.79638671875 C 474.3498840332031 482.36602783203125 477.5097351074219 487.8597717285156 463.3277893066406 486.89544677734375 C 477.81439208984375 509.3500061035156 474.5630187988281 519.1586303710938 445.86212158203125 489.11126708984375 C 443.5124206542969 501.7941589355469 437.0013732910156 513.4445190429688 428.75567626953125 492.4924621582031 C 436.7987365722656 482.82403564453125 445.57086181640625 495.0300598144531 431.89154052734375 493.3802795410156 C 426.7193908691406 496.951416015625 429.58050537109375 491.8274841308594 430.102294921875 484.20233154296875 C 433.37408447265625 467.527587890625 430.89080810546875 477.15728759765625 416.0919189453125 484.7027282714844 C 417.2607116699219 465.6645202636719 418.443603515625 461.8385009765625 420.70965576171875 466.3037109375 C 415.8664855957031 471.1890563964844 419.8595886230469 467.4849548339844 422.28460693359375 455.515625 C 415.42498779296875 450.6444091796875 404.908203125 451.5348205566406 415.48004150390625 442.7874450683594 C 414.0884094238281 459.5769958496094 409.7364196777344 450.8506164550781 411.2906494140625 440.0204162597656 C 401.9378662109375 437.0361328125 400.5544128417969 430.5276184082031 397.1490783691406 417.2502746582031 C 417.64276123046875 422.3683166503906 411.31915283203125 425.48455810546875 401.7922058105469 421.6868591308594 C 417.4768981933594 416.5517272949219 423.9361572265625 416.7008972167969 431.1568603515625 414.2886962890625 C 425.729248046875 404.5062255859375 411.4352111816406 398.4114990234375 418.8783264160156 402.08660888671875 C 414.69647216796875 392.8680725097656 411.54083251953125 399.8385925292969 400.12225341796875 386.06414794921875 C 397.9668884277344 370.691162109375 406.7782897949219 387.9437561035156 403.37689208984375 390.012939453125 C 411.5539855957031 387.4338684082031 411.0460510253906 398.71990966796875 387.2622375488281 390.8674011230469 C 400.30169677734375 374.0264892578125 410.6947326660156 366.75445556640625 417.01080322265625 358.4090270996094 C 420.3686828613281 367.8174743652344 408.0100402832031 372.4723205566406 401.7313537597656 372.28338623046875 C 400.8440856933594 345.0470886230469 396.6658630371094 332.2762145996094 421.0541687011719 357.7251281738281 C 427.0505676269531 340.03094482421875 427.9624328613281 334.0783996582031 436.52392578125 350.42462158203125 C 423.8092346191406 350.7893371582031 424.7730712890625 347.0992736816406 422.39776611328125 343.7140197753906 C 429.86761474609375 327.54718017578125 430.0525817871094 326.36273193359375 437.98675537109375 348.2298889160156 C 440.3281555175781 350.0141296386719 441.9126281738281 341.01422119140625 456.1815185546875 332.3777770996094 C 452.07879638671875 343.47967529296875 436.026611328125 353.6251220703125 442.5130310058594 335.9584045410156 C 461.25311279296875 306.3250427246094 463.4714050292969 307.0995788574219 458.63629150390625 339.7165222167969 C 473.0608215332031 334.56622314453125 498.8524475097656 310.3317565917969 489.0210876464844 333.80889892578125 C 486.60693359375 346.4363708496094 494.53106689453125 343.6703796386719 469.7070617675781 339.4214782714844 C 467.4172668457031 334.8634948730469 487.5829772949219 337.33514404296875 502.05328369140625 336.12359619140625 C 495.07330322265625 338.92919921875 486.98431396484375 343.528076171875 482.57342529296875 346.9927062988281 C 496.89520263671875 354.65655517578125 499.4936218261719 357.1521911621094 494.6771545410156 360.61993408203125 C 493.22784423828125 353.5983581542969 498.9178466796875 361.81903076171875 487.453857421875 356.5958557128906 C 497.7303771972656 352.1116638183594 498.9892883300781 357.7627868652344 485.5284118652344 360.92108154296875 C 470.4721374511719 357.5685119628906 469.58477783203125 355.40802001953125 484.9411315917969 352.50390625 C 489.1689758300781 361.9257507324219 483.4898681640625 359.90985107421875 484.9250793457031 362.1293029785156 C 483.5984802246094 362.694580078125 464.6170654296875 363.3644714355469 462.72650146484375 362.09930419921875 C 461.84698486328125 366.2742919921875 460.9026184082031 366.2629699707031 472.9841613769531 368.1286926269531 C 489.9204406738281 380.9120788574219 477.9211730957031 381.5724792480469 436.0618591308594 379.8601989746094 C 443.6617126464844 369.6369934082031 455.9554443359375 382.4210205078125 434.4393005371094 380.3877258300781 C 433.5700378417969 375.304931640625 432.6189270019531 376.61590576171875 449.34698486328125 377.69329833984375 C 436.0774841308594 380.48651123046875 424.4816589355469 386.65838623046875 429.82830810546875 391.02239990234375 C 438.9708251953125 400.11370849609375 436.9996643066406 395.00714111328125 441.981201171875 391.58587646484375 C 452.53375244140625 379.6549377441406 453.2210998535156 382.0542907714844 451.2952880859375 403.3623352050781 C 457.6766357421875 404.5644226074219 462.01812744140625 390.6036682128906 472.136962890625 386.18994140625 C 472.32281494140625 386.23541259765625 473.50341796875 397.8262023925781 472.9130554199219 396.4579162597656 C 476.68359375 396.5299987792969 485.8203125 373.9891052246094 497.00830078125 377.9627380371094 C 488.3497314453125 411.53875732421875 477.97857666015625 407.4362487792969 477.50372314453125 398.99310302734375 C 504.7788391113281 393.332763671875 521.8023071289062 385.6328125 518.7509155273438 390.8447265625 C 498.7926025390625 407.4676513671875 498.8702697753906 400.35614013671875 510.59625244140625 407.08123779296875 C 506.9252014160156 408.2104797363281 491.7203063964844 405.3775939941406 483.34783935546875 412.8229675292969 C 500.19384765625 423.78472900390625 495.0961608886719 428.8523254394531 491.6125793457031 422.1715393066406 C 502.2599792480469 426.6409606933594 496.62054443359375 425.744384765625 475.70599365234375 425.0469055175781 C 455.6718444824219 423.85333251953125 457.52764892578125 423.4805603027344 468.82574462890625 433.38494873046875 C 476.76177978515625 445.9546203613281 471.4117431640625 437.3503112792969 456.0423889160156 438.2030334472656 C 441.6872863769531 432.2972717285156 442.3624572753906 424.5234680175781 434.22540283203125 426.57720947265625 C 436.835205078125 426.5447998046875 429.1553649902344 425.9436340332031 415.21441650390625 428.57574462890625 C 429.80718994140625 442.31634521484375 434.6918029785156 445.8709411621094 432.8587646484375 440.88311767578125 C 435.86761474609375 450.3348083496094 446.0867004394531 448.18121337890625 455.3544616699219 450.87921142578125 C 451.888671875 454.7209167480469 443.4327392578125 452.9002685546875 457.7943420410156 445.336181640625 C 453.54656982421875 466.1722106933594 460.1466979980469 471.4364318847656 472.4541320800781 462.3351135253906 C 471.2225646972656 454.771728515625 473.2890930175781 464.2547302246094 475.6283874511719 462.2386169433594 C 476.46051025390625 460.2250061035156 478.3572082519531 458.6891174316406 475.1676330566406 460.40771484375 C 490.13360595703125 463.9629821777344 494.06829833984375 463.1359558105469 495.95257568359375 459.8798828125 C 487.21014404296875 472.21392822265625 480.9185485839844 467.6195373535156 478.17938232421875 468.85687255859375 C 485.71173095703125 467.26898193359375 490.5452880859375 464.95843505859375 489.37115478515625 466.89581298828125 C 479.84283447265625 466.0198974609375 481.925537109375 461.3510437011719 487.50933837890625 462.2591552734375 C 490.1613464355469 465.93988037109375 490.8780212402344 459.9527893066406 485.15673828125 465.47076416015625 C 488.8446960449219 461.9298400878906 495.28167724609375 465.0103759765625 490.3409118652344 460.792724609375 C 491.4939270019531 463.442138671875 490.2504577636719 470.3345947265625 477.65863037109375 473.2689208984375"/>
    <path stroke-width="0" fill="rgb(0, 0, 0)" opacity="1.0" d="M 87.33943939208984 281.9103088378906 C 77.76194763183594 280.44696044921875 69.06128692626953 277.7021789550781 63.041046142578125 273.41180419921875 C 56.906436920166016 269.37811279296875 53.60683059692383 265.4306945800781 50.67612075805664 258.3020324707031 C 48.19156265258789 253.3058624267578 47.284339904785156 249.0027313232422 47.71846389770508 240.70411682128906 C 47.07854080200195 234.628662109375 48.59480285644531 224.76976013183594 52.03361129760742 213.99203491210938 C 56.15805435180664 199.67601013183594 70.57512664794922 189.8769073486328 85.06053924560547 181.91244506835938 C 83.57933044433594 188.02099609375 82.19002532958984 194.44003295898438 80.75747680664062 200.85227966308594 C 74.55657958984375 195.30772399902344 67.48983001708984 188.57174682617188 62.55769729614258 182.84326171875 C 70.46251678466797 176.5510711669922 78.98802185058594 169.7851104736328 86.5430679321289 164.07366943359375 C 96.4794921875 172.3579559326172 105.38496398925781 180.61428833007812 111.46289825439453 189.48414611816406 C 117.74295043945312 198.25010681152344 121.8525161743164 205.97525024414062 123.58185577392578 213.23512268066406 C 126.21592712402344 219.817138671875 127.94855499267578 226.73426818847656 129.04815673828125 232.0679473876953 C 130.00601196289062 237.84547424316406 129.70762634277344 242.82894897460938 130.3319549560547 247.65994262695312 C 131.33619689941406 256.3170471191406 129.71653747558594 261.1355285644531 127.0711898803711 265.00067138671875 C 122.97590637207031 270.38958740234375 117.18003845214844 275.0238037109375 109.88714599609375 278.3870544433594 C 103.24571990966797 281.038330078125 95.64877319335938 282.41204833984375 87.33943939208984 281.9103088378906M 91.38298797607422 249.60757446289062 C 94.19363403320312 249.9583282470703 96.36830139160156 249.40452575683594 97.19908905029297 248.928955078125 C 98.10465240478516 248.4532012939453 99.08655548095703 247.15823364257812 99.21912384033203 246.45187377929688 C 99.36846160888672 244.07400512695312 99.98109436035156 239.2903594970703 99.64689636230469 238.3709716796875 C 96.99226379394531 234.6898651123047 96.36055755615234 229.13339233398438 96.55179595947266 225.54006958007812 C 94.18985748291016 221.14784240722656 93.44986724853516 216.41912841796875 92.72552490234375 214.05946350097656 C 91.5218276977539 211.08262634277344 88.6778793334961 208.07345581054688 84.63211059570312 204.05079650878906 C 87.68101501464844 203.485595703125 90.83085632324219 203.33660888671875 93.77948760986328 203.1255645751953 C 89.56990051269531 205.46588134765625 86.25179290771484 208.5596160888672 83.70346069335938 211.8917236328125 C 81.065185546875 215.3571014404297 80.85302734375 216.4611053466797 80.62981414794922 221.0936279296875 C 80.1915512084961 223.47381591796875 80.24202728271484 227.56349182128906 80.75907135009766 232.0098419189453 C 81.00011444091797 237.9541778564453 82.78567504882812 242.8436737060547 84.7833251953125 245.18910217285156 C 86.92918395996094 247.79856872558594 90.18795776367188 249.45631408691406 91.38298797607422 249.60757446289062M 93.42646026611328 138.43406677246094 C 89.01773834228516 142.90591430664062 88.96372985839844 156.15249633789062 81.73271942138672 160.1023406982422 C 82.68116760253906 138.88929748535156 89.06804656982422 135.5882110595703 88.57164764404297 144.58482360839844 C 82.20034790039062 147.0675811767578 84.63275146484375 143.3090362548828 86.81672668457031 122.2826919555664 C 89.15631866455078 112.7837142944336 89.20091247558594 106.93897247314453 124.30919647216797 96.02665710449219 C 117.12748718261719 129.21969604492188 107.034423828125 135.6369171142578 106.91121673583984 128.3469696044922 C 113.9186019897461 121.55899047851562 107.6865463256836 124.55741119384766 112.77910614013672 124.25011444091797 C 120.8081283569336 119.97779083251953 114.32634735107422 133.5407257080078 99.23886108398438 139.79421997070312 C 98.06127166748047 138.61756896972656 90.81874084472656 147.89990234375 93.42646026611328 138.43406677246094M 79.23660278320312 157.41891479492188 C 71.05803680419922 160.08816528320312 63.32936477661133 157.79078674316406 57.41553497314453 154.82542419433594 C 53.30487060546875 149.6364288330078 49.31460952758789 148.5110321044922 39.413028717041016 140.61058044433594 C 59.84212112426758 128.6133270263672 59.78940200805664 133.24913024902344 83.38797760009766 135.06910705566406 C 68.5803451538086 117.88931274414062 53.085140228271484 127.01231384277344 58.104515075683594 79.34347534179688 C 92.20225524902344 100.29615020751953 88.49903869628906 111.60983276367188 84.6816635131836 123.15922546386719 C 81.10554504394531 129.38453674316406 80.77684020996094 137.274658203125 70.69342041015625 141.7398681640625 C 73.25888061523438 129.56747436523438 80.18986511230469 134.0407257080078 86.73629760742188 151.58714294433594 C 95.17842102050781 166.10670471191406 88.34920501708984 165.09844970703125 79.23660278320312 157.41891479492188"/>
    <path stroke-width="0" fill="rgb(0, 0, 0)" opacity="1.0" d="M 141.72802734375 327.7565002441406 C 137.50357055664062 320.89593505859375 132.42654418945312 312.7558288574219 125.14518737792969 302.11077880859375 C 136.3408660888672 296.93927001953125 144.67898559570312 292.2309875488281 152.29942321777344 288.9112243652344 C 158.30233764648438 285.1451110839844 161.34506225585938 282.64453125 164.1890869140625 279.216796875 C 167.21337890625 275.7059326171875 168.9012451171875 271.57958984375 173.07217407226562 264.3986511230469 C 175.78285217285156 260.0266418457031 176.66444396972656 256.2215576171875 177.13441467285156 250.94094848632812 C 178.45750427246094 244.1927947998047 177.45645141601562 239.43179321289062 176.55682373046875 237.4815673828125 C 175.1002655029297 234.6852264404297 174.53408813476562 224.5765838623047 173.3846435546875 219.55950927734375 C 181.56320190429688 216.64016723632812 191.90695190429688 213.83567810058594 198.9546661376953 211.84178161621094 C 199.68572998046875 213.89259338378906 200.67279052734375 216.49429321289062 201.69456481933594 219.2471466064453 C 202.21466064453125 220.14996337890625 203.42637634277344 221.75709533691406 204.29962158203125 223.2855224609375 C 206.13487243652344 226.67031860351562 207.454345703125 230.06666564941406 208.49392700195312 233.1842498779297 C 210.27529907226562 239.78297424316406 212.96958923339844 244.982666015625 216.69674682617188 248.25314331054688 C 220.2064208984375 252.27488708496094 223.8961639404297 254.0859375 229.38613891601562 255.6883544921875 C 233.5246124267578 256.8971862792969 236.36483764648438 258.5899353027344 238.06155395507812 261.4529113769531 C 239.9141387939453 264.3614807128906 240.54014587402344 267.5848083496094 240.06393432617188 271.6068420410156 C 239.74258422851562 275.3865051269531 238.3394317626953 278.392822265625 235.34930419921875 280.9559326171875 C 231.79458618164062 283.8188171386719 227.38430786132812 284.82122802734375 221.60411071777344 283.38446044921875 C 217.5192413330078 282.6629638671875 213.1540069580078 281.4556884765625 210.0827178955078 279.6788635253906 C 207.68528747558594 278.3797302246094 205.4738311767578 276.423095703125 203.3324737548828 273.0333251953125 C 200.64474487304688 269.3194580078125 199.278564453125 264.64349365234375 199.08470153808594 260.0611267089844 C 202.4729461669922 259.7029113769531 206.14535522460938 259.360595703125 209.49899291992188 259.04644775390625 C 208.3426971435547 267.2487487792969 205.92034912109375 275.0509948730469 202.5419464111328 280.87493896484375 C 200.7923583984375 286.5635681152344 199.3623046875 289.2437744140625 195.56109619140625 296.0661926269531 C 190.8799285888672 303.2688903808594 183.5989990234375 310.08331298828125 173.3710174560547 315.03594970703125 C 162.91673278808594 320.850341796875 151.61361694335938 324.3470458984375 141.72802734375 327.7565002441406"/>
    <path stroke-width="0" fill="rgb(0, 0, 0)" opacity="1.0" d="M 369.24188232421875 280.3627624511719 C 362.82257080078125 281.140380859375 356.7882995605469 281.35784912109375 349.8489990234375 280.5718688964844 C 343.31292724609375 279.9034118652344 337.3205871582031 278.408447265625 331.8068542480469 275.5384216308594 C 327.7703857421875 273.448974609375 323.80633544921875 270.331298828125 320.1697998046875 265.7024230957031 C 317.1268310546875 262.27020263671875 314.28424072265625 257.5127258300781 292.77423095703125 256.0835266113281 C 316.2355651855469 234.64401245117188 323.0232849121094 232.1778564453125 320.7853698730469 234.12802124023438 C 329.5466003417969 237.18792724609375 336.71258544921875 246.12924194335938 335.66265869140625 246.30267333984375 C 338.77099609375 248.27615356445312 344.37103271484375 250.2861328125 349.43280029296875 250.7923126220703 C 355.2364807128906 251.16424560546875 360.0801086425781 250.61537170410156 366.59552001953125 249.12294006347656 C 374.7687683105469 247.83538818359375 378.42681884765625 248.88519287109375 381.082763671875 251.5669403076172 C 383.49566650390625 253.8865966796875 385.0814208984375 256.9236145019531 385.80859375 261.31011962890625 C 386.5910339355469 265.7257995605469 385.7716064453125 269.5106201171875 383.2247009277344 273.1103210449219 C 380.6672668457031 276.6172180175781 376.3681945800781 279.1366882324219 369.24188232421875 280.3627624511719M 225.7413330078125 284.4736022949219 C 227.66917419433594 274.977783203125 229.21107482910156 265.2723083496094 231.25022888183594 256.3378601074219 C 224.91873168945312 258.3830261230469 236.0716094970703 263.77008056640625 256.5879821777344 261.3898010253906 C 271.171142578125 255.32518005371094 274.2219543457031 255.41053771972656 273.061279296875 249.75552368164062 C 281.2028503417969 240.0747833251953 283.4494934082031 229.03781127929688 292.3428955078125 214.98904418945312 C 288.600830078125 213.24160766601562 303.2759704589844 218.4108123779297 310.1199035644531 229.6051483154297 C 301.7287292480469 236.9167938232422 303.613525390625 239.1406707763672 286.9583435058594 247.15631103515625 C 287.3672790527344 223.057861328125 292.0506591796875 220.6488800048828 293.0391845703125 214.14756774902344 C 292.3450622558594 192.7159881591797 285.3576354980469 187.4694366455078 279.52008056640625 208.72518920898438 C 273.3360290527344 225.29039001464844 271.5050354003906 223.91925048828125 267.59259033203125 212.44503784179688 C 269.1839294433594 208.55194091796875 264.25634765625 220.57037353515625 256.9202880859375 227.11312866210938 C 263.5468444824219 216.9044952392578 258.0316162109375 222.7987823486328 243.99301147460938 223.52359008789062 C 257.0658874511719 208.61375427246094 253.29653930664062 204.24856567382812 231.7648468017578 201.67588806152344 C 244.14488220214844 199.3404998779297 239.9923553466797 206.9517822265625 249.13771057128906 204.0992431640625 C 270.1639709472656 205.3238525390625 268.6272888183594 193.0120086669922 279.0436706542969 192.963134765625 C 284.1649169921875 194.10047912597656 288.8958740234375 182.7701416015625 298.4866638183594 156.84259033203125 C 307.7721252441406 172.02484130859375 304.275390625 186.62051391601562 308.0709228515625 192.06260681152344 C 309.6249694824219 197.95465087890625 312.0705871582031 204.76719665527344 324.4320983886719 206.85438537597656 C 322.0676574707031 204.0806121826172 321.8891296386719 204.9987030029297 325.6343078613281 207.0537567138672 C 335.8941955566406 211.06732177734375 337.653564453125 217.35110473632812 342.22509765625 216.04299926757812 C 353.48907470703125 209.46307373046875 363.3440856933594 215.91171264648438 349.1272888183594 217.89447021484375 C 346.40863037109375 223.0647735595703 359.7427978515625 226.59580993652344 369.9952087402344 224.17349243164062 C 348.3205871582031 231.16949462890625 336.3143615722656 232.61038208007812 315.3485107421875 213.9479522705078 C 331.6665954589844 248.00851440429688 327.2227783203125 250.63763427734375 322.658203125 253.697509765625 C 317.6998291015625 257.0765380859375 311.8975524902344 265.741455078125 300.477783203125 260.8631591796875 C 305.257080078125 253.43312072753906 300.95672607421875 264.377685546875 297.9193115234375 273.329833984375 C 296.8582763671875 282.5191955566406 292.9373779296875 288.08056640625 282.0799560546875 290.6841125488281 C 253.50680541992188 301.13055419921875 235.89825439453125 306.1001892089844 225.7413330078125 284.4736022949219M 300.6197509765625 318.191162109375 C 285.5505676269531 313.1532897949219 284.92236328125 312.57318115234375 282.2052307128906 297.1683349609375 C 259.2520446777344 310.4643859863281 264.2742919921875 316.1348876953125 271.26416015625 312.28839111328125 C 272.6637878417969 303.51556396484375 269.34320068359375 293.69525146484375 275.9814453125 285.17041015625 C 277.1308288574219 279.3782958984375 274.9839172363281 274.1463623046875 285.2165222167969 279.40289306640625 C 284.0328674316406 301.4835205078125 288.6076965332031 299.4034118652344 291.0432434082031 304.9080505371094 C 295.2664489746094 307.45196533203125 298.72552490234375 310.4440002441406 314.914306640625 317.3555908203125 C 315.08837890625 311.9500732421875 298.1353454589844 309.7099609375 292.79071044921875 309.10491943359375 C 297.0136413574219 329.7626647949219 301.7098693847656 338.4774169921875 300.6197509765625 318.191162109375"/>
    <path stroke-width="0" fill="rgb(0, 0, 0)" opacity="1.0" d="M 373.3296813964844 279.49981689453125 C 371.3788146972656 269.21112060546875 370.1045837402344 258.6148681640625 368.33001708984375 248.79989624023438 C 373.3059387207031 247.76950073242188 377.5359802246094 246.73680114746094 380.53143310546875 245.4935760498047 C 383.48065185546875 244.61273193359375 383.94818115234375 243.87733459472656 385.4669494628906 239.10926818847656 C 388.0665283203125 233.805419921875 389.5025939941406 230.7707977294922 391.39996337890625 226.23898315429688 C 394.1361999511719 219.8546600341797 398.29754638671875 212.96571350097656 402.2857360839844 205.6935577392578 C 409.8913879394531 207.42852783203125 412.2922058105469 208.14280700683594 423.38262939453125 213.23362731933594 C 423.01812744140625 213.94573974609375 422.5198059082031 217.3895721435547 421.6512145996094 220.38255310058594 C 421.2074279785156 221.57400512695312 421.08294677734375 223.88792419433594 420.74273681640625 226.0868377685547 C 420.5460510253906 227.74900817871094 420.66143798828125 229.57562255859375 421.0840148925781 232.6742706298828 C 421.329833984375 235.70468139648438 422.2413635253906 237.81900024414062 424.84637451171875 240.2271728515625 C 428.0600280761719 243.169921875 433.8025207519531 246.16567993164062 440.32391357421875 248.7374267578125 C 446.8468322753906 250.32229614257812 450.05438232421875 250.4119873046875 453.2817077636719 249.7407989501953 C 455.824462890625 248.71981811523438 458.2259521484375 245.85983276367188 460.75164794921875 241.3741455078125 C 463.21002197265625 237.7969512939453 464.10491943359375 234.05404663085938 465.9985046386719 228.37315368652344 C 465.3959045410156 220.10247802734375 466.9396057128906 206.23497009277344 465.8955383300781 201.8681640625 C 470.6156005859375 200.73704528808594 473.4283142089844 200.385009765625 482.00335693359375 197.26571655273438 C 482.990966796875 201.74281311035156 483.73309326171875 205.20230102539062 484.6021728515625 208.62098693847656 C 485.2500915527344 210.5977783203125 486.9106140136719 216.18260192871094 487.815185546875 220.8980712890625 C 489.14813232421875 225.1884307861328 489.89642333984375 233.270263671875 490.23223876953125 235.34445190429688 C 490.8024597167969 238.1021270751953 491.8916931152344 240.98095703125 493.20062255859375 243.47447204589844 C 494.2075500488281 245.60630798339844 495.5314636230469 246.7522430419922 496.7106018066406 247.24224853515625 C 500.0420837402344 249.100830078125 506.2566223144531 251.49815368652344 511.65435791015625 253.25584411621094 C 514.6063232421875 254.4182891845703 517.3402099609375 254.6568603515625 517.982666015625 254.40560913085938 C 521.0743408203125 253.5157012939453 523.4286499023438 249.88563537597656 525.1472778320312 242.90296936035156 C 529.7017822265625 236.8035430908203 532.1950073242188 231.62539672851562 532.11181640625 233.7684326171875 C 534.5350952148438 225.12255859375 534.2152709960938 219.63140869140625 534.5448608398438 213.97610473632812 C 534.8803100585938 208.85736083984375 535.8566284179688 202.40753173828125 536.1769409179688 198.5987091064453 C 541.0154418945312 198.92591857910156 545.4927978515625 198.46783447265625 551.1471557617188 197.18785095214844 C 552.3845825195312 200.2550048828125 553.3570556640625 204.3568878173828 553.2896118164062 209.51068115234375 C 553.1887817382812 213.2134246826172 553.4389038085938 217.2179718017578 553.5049438476562 220.00865173339844 C 553.7700805664062 225.35873413085938 553.4408569335938 228.39707946777344 554.3902587890625 232.26036071777344 C 554.6851806640625 237.51441955566406 553.122802734375 243.27174377441406 551.4406127929688 247.8125 C 548.782470703125 254.0364990234375 547.5449829101562 256.78143310546875 543.6151123046875 263.0496826171875 C 540.2904663085938 268.0990905761719 535.6515502929688 271.9106750488281 530.02587890625 276.0716247558594 C 523.2865600585938 278.8612060546875 513.6488037109375 279.3511962890625 505.4036865234375 276.7224426269531 C 498.2586975097656 272.737548828125 492.05560302734375 269.7060241699219 489.3717956542969 268.0098876953125 C 486.2516784667969 266.38995361328125 484.236083984375 264.8226318359375 482.59246826171875 262.7339172363281 C 480.1194763183594 259.6986083984375 478.19805908203125 255.2058563232422 476.81201171875 249.9029541015625 C 479.5825500488281 249.88046264648438 481.8448791503906 249.70704650878906 484.63037109375 249.6281280517578 C 482.1255798339844 256.06292724609375 479.68731689453125 262.112548828125 474.9463806152344 268.5234375 C 470.98992919921875 273.2300720214844 467.44439697265625 275.5549011230469 462.8725891113281 277.6331787109375 C 453.9970703125 278.9090576171875 445.1768493652344 278.227783203125 436.27947998046875 276.08074951171875 C 429.872802734375 276.1963195800781 426.88812255859375 275.3238525390625 424.61578369140625 274.51409912109375 C 425.4939270019531 265.745361328125 420.31805419921875 264.5260009765625 415.771484375 262.1020812988281 C 409.76611328125 260.4911193847656 405.8419494628906 254.95921325683594 402.84735107421875 247.88079833984375 C 406.89752197265625 247.66653442382812 411.13299560546875 247.4351806640625 414.80584716796875 247.48828125 C 412.2635803222656 253.2896728515625 410.51519775390625 259.0055236816406 405.8172607421875 263.37335205078125 C 401.8581237792969 267.87420654296875 397.76397705078125 270.77166748046875 393.1742248535156 273.4731140136719 C 387.4261169433594 276.1477355957031 380.8439636230469 278.7525939941406 373.3296813964844 279.49981689453125M 484.6797790527344 155.4886016845703 C 477.8371276855469 167.12518310546875 471.9922790527344 155.02650451660156 467.1602478027344 138.18235778808594 C 476.7228698730469 134.1785125732422 469.23431396484375 143.24749755859375 472.823974609375 149.197021484375 C 470.8739013671875 130.91368103027344 471.2791748046875 126.08695983886719 468.1534729003906 128.30206298828125 C 477.3513488769531 129.58657836914062 478.5163269042969 120.14410400390625 477.5875244140625 117.63555145263672 C 477.075439453125 116.49280548095703 477.4795227050781 129.2622833251953 479.26690673828125 139.35447692871094 C 480.2133483886719 137.5788116455078 480.7435607910156 137.23907470703125 485.4856872558594 135.8073272705078 C 487.6347961425781 131.93203735351562 482.6972961425781 138.31057739257812 483.6800231933594 139.30166625976562 C 485.3017272949219 153.70263671875 482.5675354003906 154.0555419921875 484.6797790527344 155.4886016845703M 466.02142333984375 183.38368225097656 C 461.0546569824219 179.19508361816406 458.1672668457031 172.24766540527344 454.4002685546875 176.4563446044922 C 448.6681213378906 175.72872924804688 437.730712890625 169.71432495117188 438.94091796875 153.6363983154297 C 450.2435607910156 163.85598754882812 443.4516296386719 150.47372436523438 439.6119384765625 147.55618286132812 C 434.6523742675781 152.43020629882812 436.3104248046875 159.523193359375 446.2373046875 158.8143310546875 C 457.3217468261719 155.5529327392578 460.80401611328125 159.48477172851562 458.34735107421875 159.3471221923828 C 463.02996826171875 163.4418182373047 465.9266357421875 169.78244018554688 469.912841796875 177.57467651367188 C 464.4043884277344 174.44171142578125 462.4985046386719 174.1719512939453 475.3185729980469 189.93106079101562 C 484.6044921875 211.4148712158203 474.0961608886719 207.19039916992188 466.02142333984375 183.38368225097656M 488.85528564453125 171.9158935546875 C 475.9700012207031 179.547119140625 471.7021179199219 181.9356689453125 470.8266906738281 189.27883911132812 C 479.1158447265625 188.70274353027344 478.42864990234375 184.49229431152344 481.7100830078125 172.38099670410156 C 482.6900329589844 166.6442108154297 489.33380126953125 163.50323486328125 492.933837890625 150.15895080566406 C 487.556884765625 157.026611328125 488.56500244140625 167.125732421875 489.3418273925781 152.45716857910156 C 498.5885314941406 148.59898376464844 502.15570068359375 144.00083923339844 519.0020141601562 142.4371337890625 C 513.38427734375 155.24517822265625 510.7064514160156 160.30398559570312 505.8432312011719 160.94960021972656 C 497.7323303222656 164.60763549804688 492.8681335449219 171.38595581054688 504.3458557128906 167.42816162109375 C 500.6573181152344 167.5122528076172 492.79852294921875 172.30807495117188 488.85528564453125 171.9158935546875"/>
  </g>
</svg>
