<?xml version="1.0" ?>
<svg xmlns="http://www.w3.org/2000/svg" version="1.1" width="600" height="600">
  <defs/>
  <g>
    <path stroke-width="0" fill="rgb(0, 0, 0)" opacity="1.0" d="M 103.72319793701172 366.5417175292969 C 106.55046844482422 365.5319519042969 110.2204360961914 364.8882141113281 112.28082275390625 364.4839782714844 C 114.90655517578125 363.67156982421875 120.1829605102539 363.3150329589844 124.85826110839844 363.9660339355469 C 127.67302703857422 364.07672119140625 130.5561981201172 364.72711181640625 133.2272491455078 365.6754150390625 C 134.25843811035156 365.8442687988281 135.2564697265625 366.05975341796875 141.53848266601562 370.2700500488281 C 144.84881591796875 372.02520751953125 145.57437133789062 372.48565673828125 148.37197875976562 376.36956787109375 C 149.42617797851562 377.45025634765625 150.72816467285156 379.31640625 152.72862243652344 382.97796630859375 C 153.46253967285156 384.18310546875 154.38897705078125 386.6117248535156 154.71739196777344 391.907470703125 C 154.96759033203125 392.9410705566406 155.51470947265625 395.1201477050781 155.5907440185547 397.18218994140625 C 155.305908203125 400.7552185058594 155.16171264648438 401.8533630371094 154.5070343017578 407.4060974121094 C 154.57386779785156 408.8904113769531 154.22573852539062 411.38818359375 152.62057495117188 415.62396240234375 C 152.19979858398438 418.8406982421875 150.9232635498047 422.1777038574219 149.943115234375 423.9621887207031 C 149.3142852783203 425.7381286621094 148.27069091796875 427.58917236328125 147.17288208007812 429.2787780761719 C 145.85189819335938 431.3797302246094 144.0244598388672 434.2353210449219 142.670166015625 435.40106201171875 C 139.38900756835938 439.6086730957031 138.82435607910156 440.2892150878906 137.95523071289062 441.128662109375 C 135.42739868164062 444.7605895996094 132.97361755371094 446.9778747558594 131.6340789794922 448.169189453125 C 125.77487182617188 453.99713134765625 124.66796112060547 454.71533203125 121.25965118408203 456.3240661621094 C 114.76683044433594 457.27520751953125 113.2415542602539 457.5381164550781 109.49624633789062 458.291748046875 C 104.19232177734375 458.5717468261719 106.59526824951172 458.42535400390625 104.5215072631836 458.41021728515625 C 98.11747741699219 458.916748046875 93.55846405029297 458.8783264160156 92.83350372314453 458.8329162597656 C 93.13552856445312 460.32745361328125 93.48405456542969 461.9322204589844 93.81745910644531 463.1398620605469 C 95.44281768798828 469.6092529296875 94.7554931640625 475.3944396972656 94.09315490722656 477.8845520019531 C 92.44791412353516 481.0771179199219 94.7545166015625 474.1705627441406 93.51524353027344 478.9632873535156 C 94.60985565185547 467.5970153808594 95.11332702636719 470.7854309082031 96.84666442871094 476.6235656738281 C 97.53710174560547 482.50518798828125 97.37972259521484 489.3120422363281 97.00198364257812 492.8471374511719 C 96.97671508789062 494.7430725097656 93.12578582763672 496.4356689453125 93.66963195800781 497.0884094238281 C 93.91187286376953 498.0095520019531 90.67030334472656 499.68878173828125 92.48944091796875 501.5520324707031 C 90.49658966064453 503.1103210449219 91.3500747680664 506.3415222167969 91.64205169677734 509.0219421386719 C 88.31967163085938 509.39312744140625 91.02384948730469 512.9284057617188 88.42557525634766 515.4617919921875 C 85.9892349243164 516.7095947265625 87.05994415283203 519.2420654296875 80.83438873291016 520.919189453125 C 72.57015991210938 515.9281616210938 74.92594146728516 506.0844421386719 70.59559631347656 505.5625915527344 C 68.03727722167969 505.23077392578125 66.0169906616211 504.90020751953125 64.09038543701172 504.7926940917969 C 64.25030517578125 502.6089782714844 64.43436431884766 501.0195007324219 64.82257080078125 496.990478515625 C 64.73925018310547 492.8357849121094 65.47606658935547 491.4142150878906 59.19742202758789 490.43048095703125 C 59.72757339477539 488.0802001953125 59.7414436340332 484.18328857421875 59.29350280761719 480.7423095703125 C 57.61530685424805 471.91876220703125 58.745697021484375 469.1344299316406 58.957664489746094 467.1455078125 C 57.87491226196289 476.03338623046875 57.979427337646484 472.4697265625 57.81275939941406 471.2790832519531 C 56.76613998413086 467.2644958496094 55.75715637207031 464.68194580078125 56.47214126586914 460.1411437988281 C 52.810428619384766 453.0649108886719 53.090457916259766 451.5436096191406 52.947792053222656 451.1021423339844 C 53.02250671386719 448.6807861328125 52.130950927734375 445.8108215332031 51.14897537231445 443.0660705566406 C 49.29229736328125 440.2671813964844 47.44327926635742 435.3540954589844 45.32875061035156 423.4638671875 C 48.32754135131836 410.23126220703125 49.57296371459961 407.2900695800781 49.81985855102539 416.3045959472656 C 49.59381866455078 415.0134582519531 49.52350997924805 410.8406982421875 49.662540435791016 408.86163330078125 C 53.07671356201172 400.8829345703125 53.643985748291016 398.7381591796875 54.41960525512695 395.2658996582031 C 53.425750732421875 401.1404113769531 53.221248626708984 396.9339294433594 53.60331344604492 393.7041015625 C 55.16630935668945 388.5413818359375 56.14091873168945 384.2672424316406 58.763919830322266 385.53759765625 C 58.9419059753418 382.0058288574219 58.12995910644531 376.3539123535156 58.388851165771484 372.3145751953125 C 58.83491516113281 369.2635803222656 59.305389404296875 366.0230407714844 59.79032516479492 362.55804443359375 C 64.80055236816406 363.0075988769531 69.42646026611328 363.6852722167969 73.30203247070312 363.9598083496094 C 77.13468170166016 364.3145751953125 81.98490905761719 364.7020568847656 87.0116195678711 365.5743408203125 C 91.41446685791016 366.83111572265625 94.78907012939453 367.9981384277344 97.6944351196289 368.6372985839844 C 100.38550567626953 368.5736083984375 101.41010284423828 366.82867431640625 103.72319793701172 366.5417175292969M 107.32955169677734 391.3427734375 C 103.69569396972656 393.1175842285156 103.06230163574219 393.1830139160156 101.86919403076172 393.2672424316406 C 98.48673248291016 393.6618347167969 96.3983383178711 393.5766906738281 95.06575775146484 393.5337219238281 C 94.85888671875 396.3609619140625 94.6274185180664 398.8246765136719 93.79639434814453 403.39459228515625 C 93.07682800292969 405.9306945800781 92.73685455322266 408.0021667480469 92.543701171875 411.3829650878906 C 92.4273681640625 413.1543273925781 92.2397689819336 415.542724609375 92.06344604492188 419.0500183105469 C 91.4528579711914 422.4765625 90.8662338256836 425.9805908203125 91.14459228515625 430.4847717285156 C 95.39430236816406 430.49591064453125 98.34028625488281 431.0739440917969 100.68161010742188 431.5863037109375 C 104.26781463623047 431.67291259765625 106.26040649414062 431.54986572265625 108.42081451416016 431.6350402832031 C 109.96174621582031 431.568603515625 112.11090850830078 431.11273193359375 114.85794830322266 430.0723876953125 C 115.86122131347656 429.4253234863281 119.63108825683594 427.2879943847656 126.0392837524414 421.89404296875 C 127.997314453125 418.6213684082031 129.67242431640625 416.5489807128906 131.2555389404297 414.2952880859375 C 132.03842163085938 412.5787048339844 132.36546325683594 410.3474426269531 132.443603515625 407.81243896484375 C 132.13970947265625 402.9953308105469 131.74893188476562 400.7809143066406 130.8953399658203 398.0413513183594 C 129.44129943847656 395.271240234375 127.9216079711914 393.7975158691406 126.10916900634766 392.2920227050781 C 124.8876953125 391.7087707519531 122.94776916503906 391.04248046875 119.4195327758789 390.0082092285156 C 117.24703979492188 389.41375732421875 114.78367614746094 389.5848083496094 107.32955169677734 391.3427734375"/>
    <path stroke-width="0" fill="rgb(0, 0, 0)" opacity="1.0" d="M 284.17138671875 515.510986328125 C 282.31884765625 511.69781494140625 280.0722351074219 507.4031982421875 276.7653503417969 500.23504638671875 C 273.5809326171875 492.2010192871094 271.42987060546875 485.4329833984375 270.67840576171875 480.9613342285156 C 268.5557556152344 481.1340026855469 262.5552673339844 481.2646789550781 253.2754669189453 479.55889892578125 C 249.51275634765625 479.6937255859375 245.31015014648438 479.0672607421875 244.58522033691406 479.1449890136719 C 238.796875 479.35687255859375 234.79598999023438 479.8426818847656 230.47718811035156 479.3784484863281 C 223.23178100585938 479.4744873046875 216.7989044189453 478.42864990234375 210.20716857910156 476.9154357910156 C 208.0503387451172 481.6236572265625 206.22198486328125 486.99517822265625 204.5060272216797 493.381103515625 C 202.11114501953125 503.8349609375 198.47386169433594 509.5355529785156 196.68304443359375 512.6632080078125 C 192.11817932128906 511.24920654296875 191.86485290527344 514.568115234375 186.4526824951172 514.8035278320312 C 180.40008544921875 514.8462524414062 175.27365112304688 515.4158935546875 167.5861053466797 516.3401489257812 C 168.48565673828125 512.400390625 169.60838317871094 508.72222900390625 170.84423828125 505.6064453125 C 172.40704345703125 501.9877014160156 173.27285766601562 498.8602294921875 173.91455078125 497.30413818359375 C 175.07098388671875 494.3039245605469 176.0911102294922 489.9751892089844 176.43505859375 486.6336669921875 C 177.74244689941406 482.1557312011719 178.5322265625 479.17401123046875 180.13125610351562 474.91546630859375 C 180.9360809326172 469.9500427246094 181.3788299560547 468.56463623046875 182.0081787109375 466.30816650390625 C 183.08880615234375 462.2791442871094 185.26771545410156 458.2760314941406 187.13804626464844 453.78460693359375 C 188.8667755126953 450.62548828125 190.13697814941406 446.6255187988281 190.79893493652344 443.3598327636719 C 191.502197265625 441.8799133300781 191.83599853515625 440.9393005371094 193.6723175048828 436.66387939453125 C 194.3603973388672 431.08740234375 195.0522918701172 428.78277587890625 195.55194091796875 426.9737243652344 C 196.78909301757812 423.91656494140625 198.22274780273438 420.4430847167969 198.95799255371094 418.2548522949219 C 199.1007843017578 414.2610778808594 201.40977478027344 409.0541076660156 201.94007873535156 407.4937744140625 C 202.19131469726562 406.5625305175781 204.5543212890625 400.4129333496094 204.8403778076172 399.7460632324219 C 205.60670471191406 396.9929504394531 206.88253784179688 389.7995300292969 207.94375610351562 386.646484375 C 210.09877014160156 381.2998046875 210.92388916015625 377.42437744140625 212.86671447753906 372.637939453125 C 213.8660430908203 369.624755859375 214.77749633789062 364.94903564453125 216.25521850585938 359.96392822265625 C 222.4322052001953 359.4430236816406 228.9427490234375 359.69671630859375 235.48036193847656 360.8330993652344 C 241.14584350585938 361.999755859375 244.58889770507812 362.94232177734375 251.14002990722656 363.8292236328125 C 255.03273010253906 364.94500732421875 253.27865600585938 364.2247009277344 255.59402465820312 364.5301513671875 C 260.47540283203125 364.6065979003906 263.733642578125 364.6498107910156 267.4465026855469 364.7018737792969 C 268.490234375 368.0677490234375 269.6024169921875 371.0070495605469 270.6396484375 374.9256286621094 C 271.9244079589844 379.205322265625 272.8742370605469 381.6138000488281 273.8677062988281 384.3856201171875 C 274.6312255859375 387.6213073730469 275.3163146972656 389.9972229003906 276.44183349609375 393.0975036621094 C 277.4035949707031 397.0274353027344 278.04638671875 399.1591491699219 278.8337707519531 403.1057434082031 C 279.2419738769531 404.2724914550781 279.7231750488281 408.48455810546875 280.4893798828125 412.2264404296875 C 281.9599609375 416.6357727050781 282.9212341308594 419.60943603515625 283.6180419921875 423.3137512207031 C 284.342041015625 426.6558532714844 284.7579040527344 428.38189697265625 285.71173095703125 431.8472900390625 C 287.0562438964844 435.3169860839844 287.5555725097656 437.77587890625 287.8162841796875 439.49090576171875 C 288.7132873535156 443.7671813964844 289.2957458496094 446.5328674316406 290.9111633300781 451.25396728515625 C 291.40191650390625 455.7005615234375 291.6751403808594 458.3762512207031 293.6668395996094 464.0011901855469 C 294.2606201171875 467.6877746582031 294.97540283203125 470.3988952636719 295.735107421875 473.31396484375 C 296.1881103515625 475.4368591308594 297.01068115234375 479.2378234863281 297.5937194824219 482.09442138671875 C 298.202392578125 483.890625 299.3328552246094 487.29736328125 301.0947570800781 490.6003723144531 C 301.9077453613281 494.5768737792969 302.87005615234375 496.2350769042969 303.326171875 497.1915283203125 C 304.0270690917969 498.0562744140625 304.5641784667969 502.03857421875 304.8223571777344 505.19134521484375 C 304.75360107421875 507.7634582519531 304.8495788574219 510.6427307128906 305.1162109375 512.81591796875 C 300.3282470703125 511.4268493652344 295.7237548828125 509.9968566894531 297.5265808105469 513.1527099609375 C 293.58709716796875 513.7737426757812 289.3167724609375 514.4795532226562 284.17138671875 515.510986328125M 253.6420440673828 421.26873779296875 C 252.92568969726562 418.2316589355469 252.00341796875 414.9598083496094 250.88424682617188 411.6353454589844 C 249.9612274169922 407.76055908203125 248.7285919189453 404.2046203613281 247.67974853515625 400.357666015625 C 246.54150390625 396.6131286621094 245.64645385742188 393.4323425292969 245.0243377685547 391.2565002441406 C 244.47381591796875 393.6664123535156 244.23162841796875 396.77606201171875 243.552734375 400.57330322265625 C 242.5961456298828 404.80914306640625 241.88027954101562 408.2432861328125 240.86077880859375 411.291748046875 C 239.65467834472656 415.6048583984375 239.15516662597656 419.04669189453125 238.5874786376953 420.2994689941406 C 237.1671142578125 425.43218994140625 235.60455322265625 430.90087890625 234.2900848388672 435.8338928222656 C 232.8989715576172 440.7027282714844 231.3600616455078 444.623046875 230.30447387695312 447.3387145996094 C 233.30592346191406 447.7787170410156 239.03005981445312 448.5133972167969 243.71934509277344 448.6995544433594 C 250.8482666015625 448.0868835449219 255.43104553222656 448.20184326171875 260.16424560546875 449.0587463378906 C 259.03924560546875 444.8468933105469 257.9952087402344 441.028076171875 256.8220520019531 436.29730224609375 C 255.56761169433594 431.59912109375 254.85643005371094 426.2181091308594 253.6420440673828 421.26873779296875"/>
    <path stroke-width="0" fill="rgb(0, 0, 0)" opacity="1.0" d="M 419.4165954589844 512.6552124023438 C 382.2166748046875 511.96728515625 356.5066223144531 517.4086303710938 325.91253662109375 510.43927001953125 C 326.5338134765625 506.37548828125 326.75933837890625 500.32916259765625 325.6640625 493.7467041015625 C 330.69403076171875 490.5092468261719 335.5070495605469 486.813232421875 336.5931091308594 486.243896484375 C 336.3597106933594 455.0612487792969 341.3544616699219 428.72955322265625 346.1368103027344 401.019775390625 C 337.8966369628906 397.32763671875 331.49224853515625 393.78631591796875 325.2150573730469 390.0806579589844 C 325.912109375 382.2450256347656 326.5267333984375 377.89288330078125 326.8839111328125 371.3417053222656 C 354.77191162109375 372.4178161621094 377.8648986816406 373.56256103515625 405.1629333496094 374.3741455078125 C 405.03173828125 381.8541259765625 404.8538513183594 390.8113708496094 404.6553039550781 397.61138916015625 C 397.7521057128906 400.09808349609375 390.4637756347656 402.72003173828125 382.248291015625 405.6773986816406 C 376.3898010253906 434.0293273925781 371.0368957519531 456.80267333984375 374.14874267578125 472.7526550292969 C 387.6345520019531 472.4087219238281 404.5228576660156 474.22052001953125 418.05816650390625 477.5738525390625 C 418.4861145019531 489.57952880859375 419.0577087402344 500.47625732421875 419.4165954589844 512.6552124023438"/>
    <path stroke-width="0" fill="rgb(0, 0, 0)" opacity="1.0" d="M 550.9279174804688 525.0535278320312 C 543.447021484375 522.5321044921875 538.0936279296875 521.3704223632812 534.6328125 521.54736328125 C 529.8353271484375 520.4827270507812 521.619140625 519.520751953125 516.1044311523438 518.6615600585938 C 511.3048095703125 509.5260009765625 503.77490234375 501.78399658203125 495.248046875 491.98931884765625 C 481.59246826171875 476.93157958984375 479.0271301269531 459.980224609375 485.3954162597656 443.6134338378906 C 488.54461669921875 435.3896789550781 487.4998474121094 430.34075927734375 482.1913146972656 423.6994934082031 C 476.5982971191406 419.0111389160156 468.1607971191406 414.84515380859375 444.2486267089844 407.9092102050781 C 453.3040771484375 407.7851867675781 450.2008361816406 402.1138916015625 455.02392578125 396.39453125 C 452.9168701171875 411.7039489746094 452.7874755859375 414.7770080566406 452.4718322753906 418.0650634765625 C 452.2201843261719 424.31451416015625 451.3197021484375 428.4886474609375 450.5789794921875 433.86883544921875 C 450.5458984375 435.36846923828125 450.762939453125 439.4522399902344 450.7210693359375 444.7343444824219 C 450.31134033203125 455.45159912109375 451.8529052734375 463.9310607910156 455.2691955566406 472.7256164550781 C 459.6061096191406 484.2401123046875 462.53741455078125 499.2113952636719 463.75457763671875 512.8671264648438 C 452.78863525390625 513.8074340820312 444.0637512207031 513.2883911132812 436.6595458984375 513.1246948242188 C 436.36431884765625 508.96063232421875 435.2842712402344 503.59661865234375 433.295166015625 496.7161560058594 C 431.83544921875 491.1168212890625 429.7413024902344 485.0823669433594 427.39593505859375 479.3793640136719 C 425.56756591796875 473.59747314453125 423.4198303222656 467.00054931640625 422.76446533203125 459.6802062988281 C 422.2599792480469 452.557373046875 422.0747375488281 448.1541442871094 421.3376159667969 440.9433898925781 C 420.05084228515625 432.1377258300781 421.48443603515625 424.3838195800781 421.9715270996094 421.1571960449219 C 421.1087341308594 415.6688537597656 420.9569396972656 409.7047424316406 420.498779296875 405.2227783203125 C 420.15496826171875 397.5223388671875 420.30584716796875 392.958251953125 419.9756774902344 392.4214172363281 C 421.553466796875 385.3940734863281 422.29949951171875 380.2100524902344 423.4078369140625 374.4727478027344 C 429.2759704589844 375.8065490722656 435.7460021972656 376.8377990722656 440.71881103515625 376.7106628417969 C 444.5164489746094 375.7923583984375 457.8175964355469 375.85089111328125 459.7335510253906 375.8128967285156 C 460.5437316894531 377.26544189453125 461.4110107421875 377.9143981933594 472.3343200683594 382.5142517089844 C 487.1535339355469 386.4638366699219 500.72137451171875 394.38616943359375 510.44329833984375 408.1087646484375 C 517.939453125 423.81585693359375 518.6820678710938 441.0647277832031 515.9610595703125 454.20391845703125 C 516.7420043945312 459.29876708984375 517.2880859375 460.42572021484375 512.4740600585938 474.21343994140625 C 514.3298950195312 481.44488525390625 530.3389892578125 472.7704772949219 534.2872924804688 481.7408752441406 C 530.4692993164062 467.94512939453125 530.7340087890625 464.6292724609375 529.955078125 460.9601135253906 C 529.2347412109375 457.97149658203125 527.9854125976562 451.9080505371094 527.1408081054688 448.73590087890625 C 525.9060668945312 445.06622314453125 524.6295776367188 440.260498046875 523.7272338867188 433.73895263671875 C 523.1771850585938 429.2068786621094 523.2982788085938 423.03387451171875 522.8760375976562 416.3258361816406 C 523.2611083984375 410.256591796875 523.5992431640625 407.4848327636719 523.9067993164062 398.1239929199219 C 525.7640991210938 387.5342102050781 527.0645751953125 382.9093322753906 527.949462890625 380.25372314453125 C 530.8508911132812 372.1463928222656 532.7965087890625 368.0830078125 534.2647705078125 364.8632507324219 C 540.2046508789062 367.4033203125 547.4482421875 368.34515380859375 554.2350463867188 370.97906494140625 C 553.2493286132812 375.141845703125 552.6184692382812 377.8022766113281 551.96923828125 382.4593811035156 C 551.38330078125 388.9420166015625 550.593994140625 394.28045654296875 549.9111328125 402.7992858886719 C 550.5260620117188 409.32269287109375 550.0383911132812 416.3009948730469 550.0902099609375 421.67608642578125 C 550.276123046875 423.56982421875 551.6953125 428.4700927734375 553.133544921875 433.2740783691406 C 555.2918701171875 438.9330139160156 557.3654174804688 443.6224365234375 560.9022216796875 451.0956115722656 C 563.4259033203125 460.1425476074219 563.9318237304688 470.25030517578125 563.5732421875 479.1512451171875 C 562.2781982421875 487.75469970703125 560.5385131835938 494.5674743652344 559.1123657226562 500.72216796875 C 556.0756225585938 511.8247375488281 553.5458984375 518.6403198242188 550.9279174804688 525.0535278320312"/>
    <path stroke-width="0" fill="rgb(0, 0, 0)" opacity="1.0" d="M 59.786495208740234 381.714599609375 C 57.27195739746094 366.3549499511719 54.8160400390625 353.8509216308594 51.896827697753906 343.8197021484375 C 48.7823600769043 338.4224853515625 45.211647033691406 331.0810546875 42.82259750366211 324.3486022949219 C 39.8482780456543 317.4830017089844 38.019737243652344 309.36376953125 39.365699768066406 295.8003845214844 C 41.91630172729492 278.9856872558594 46.05805206298828 271.7246398925781 54.34882354736328 263.96160888671875 C 59.607765197753906 254.50796508789062 66.51943969726562 245.30313110351562 72.35636138916016 240.0794677734375 C 77.49346923828125 235.32412719726562 83.59583282470703 228.37750244140625 91.46604919433594 223.56773376464844 C 99.77812194824219 218.20626831054688 103.53070831298828 216.34913635253906 110.84908294677734 214.24940490722656 C 118.14350128173828 213.67486572265625 123.10965728759766 213.3555145263672 124.28649139404297 213.41844177246094 C 128.49029541015625 216.198486328125 132.6682586669922 217.9634246826172 136.93136596679688 218.37059020996094 C 138.55711364746094 219.3837432861328 141.13246154785156 221.70228576660156 142.90101623535156 224.03663635253906 C 145.9000701904297 227.1939239501953 150.2316436767578 233.24485778808594 153.8755340576172 241.17604064941406 C 158.90773010253906 248.95297241210938 163.32119750976562 254.39926147460938 166.98562622070312 258.6350402832031 C 169.10560607910156 260.7982482910156 171.29835510253906 262.2176208496094 175.08790588378906 263.70172119140625 C 180.4560546875 266.6330261230469 184.39292907714844 267.70025634765625 188.2209930419922 267.9606628417969 C 193.3436737060547 268.5472106933594 197.48745727539062 270.5444030761719 199.61700439453125 273.7261962890625 C 201.88958740234375 276.84283447265625 202.6642303466797 280.50946044921875 202.453125 283.9765625 C 202.0838623046875 288.300048828125 200.12295532226562 292.20587158203125 196.71649169921875 294.913330078125 C 193.34307861328125 297.5123596191406 188.5900421142578 298.5369873046875 181.13031005859375 298.21923828125 C 175.23565673828125 297.18365478515625 170.6138458251953 295.3214416503906 165.8622283935547 292.04034423828125 C 160.82568359375 290.817626953125 156.210205078125 287.58966064453125 152.66954040527344 282.6806640625 C 153.8873748779297 281.83953857421875 155.47108459472656 280.75872802734375 156.9903106689453 279.7995910644531 C 156.18460083007812 283.5496520996094 153.92428588867188 287.2410583496094 150.2314453125 289.6767272949219 C 149.0820770263672 290.7147216796875 143.7489471435547 294.43438720703125 143.7710418701172 298.3426818847656 C 140.72825622558594 301.0412902832031 136.0165557861328 301.7667236328125 132.67410278320312 301.3343811035156 C 126.32093811035156 301.45074462890625 123.20000457763672 300.8118896484375 117.76769256591797 299.0624084472656 C 113.78155517578125 297.8762512207031 109.32178497314453 295.25067138671875 105.7989730834961 293.6669616699219 C 101.08609008789062 290.76239013671875 96.80362701416016 287.8139343261719 92.23115539550781 282.5769958496094 C 88.8054428100586 278.63287353515625 85.68368530273438 274.81591796875 81.54235076904297 269.02130126953125 C 84.50428771972656 268.68609619140625 87.26372528076172 268.4337158203125 90.08519744873047 268.18572998046875 C 87.1633071899414 273.1185607910156 85.0953598022461 280.68646240234375 82.46678161621094 285.9429016113281 C 79.70376586914062 291.65203857421875 78.95185089111328 294.3222351074219 78.51546478271484 296.8370056152344 C 78.19527435302734 300.2052001953125 79.06397247314453 302.25286865234375 80.7962875366211 309.2188720703125 C 83.40853881835938 313.71923828125 86.60313415527344 319.3747253417969 90.52831268310547 324.469482421875 C 93.05462646484375 330.7884521484375 95.19193267822266 337.54150390625 96.6374282836914 345.8935852050781 C 96.22964477539062 359.33148193359375 93.57115173339844 368.2389221191406 93.66858673095703 373.4251403808594 C 82.58537292480469 374.6571350097656 71.7073745727539 377.48883056640625 59.786495208740234 381.714599609375M 129.0606689453125 269.6737365722656 C 130.58197021484375 269.5317077636719 131.9925537109375 269.0757751464844 133.38717651367188 268.09423828125 C 134.5968475341797 267.287841796875 135.21060180664062 266.20880126953125 135.5428009033203 265.4233703613281 C 135.60304260253906 264.5969543457031 135.38829040527344 263.20458984375 134.48300170898438 261.27935791015625 C 133.39553833007812 258.15765380859375 132.28170776367188 255.25340270996094 130.97271728515625 252.68988037109375 C 129.75531005859375 250.50027465820312 128.61424255371094 248.71974182128906 127.83700561523438 247.43533325195312 C 127.11052703857422 246.38104248046875 126.00592041015625 245.14974975585938 125.14900970458984 244.59255981445312 C 123.5427474975586 243.55316162109375 122.28532409667969 243.2616424560547 121.7230224609375 243.09495544433594 C 117.98230743408203 243.23104858398438 116.17032623291016 243.66818237304688 115.23678588867188 244.15463256835938 C 114.1707534790039 244.71302795410156 113.2978286743164 245.3024444580078 110.41157531738281 246.61785888671875 C 107.9388427734375 248.08135986328125 106.25817108154297 249.35464477539062 104.97171020507812 250.35879516601562 C 103.44637298583984 251.8260955810547 102.31845092773438 252.82687377929688 101.92774963378906 253.9604949951172 C 101.25192260742188 251.48936462402344 100.75749206542969 249.4380340576172 100.23517608642578 246.617431640625 C 102.52205657958984 251.7107696533203 105.13507080078125 255.9124298095703 108.57112121582031 259.1058349609375 C 112.22693634033203 263.3049011230469 115.16448211669922 265.275146484375 118.60946655273438 266.7936096191406 C 122.0978775024414 269.23187255859375 125.5929183959961 270.22503662109375 129.0606689453125 269.6737365722656"/>
    <path stroke-width="0" fill="rgb(0, 0, 0)" opacity="1.0" d="M 186.4180908203125 298.3426208496094 C 187.2306365966797 288.2958679199219 188.19622802734375 278.0587158203125 189.43115234375 268.1282653808594 C 194.4409942626953 268.871826171875 198.54029846191406 268.5527038574219 200.93978881835938 267.80413818359375 C 203.64810180664062 266.6553955078125 204.45359802246094 265.30438232421875 204.4980926513672 262.5072326660156 C 204.1951904296875 256.7210998535156 203.9491424560547 250.7764129638672 203.6873779296875 240.62493896484375 C 201.41481018066406 208.4060821533203 204.87991333007812 176.0167694091797 212.29660034179688 143.77865600585938 C 221.97901916503906 144.8852081298828 228.87144470214844 145.52926635742188 239.7734375 147.19410705566406 C 232.42649841308594 180.3816680908203 230.9646453857422 210.8994903564453 234.04721069335938 240.31944274902344 C 235.5501708984375 249.07920837402344 236.8779754638672 256.7684326171875 237.0836639404297 265.0816955566406 C 237.23678588867188 272.46893310546875 235.40550231933594 279.447265625 231.4221954345703 285.61456298828125 C 228.0123291015625 289.8592224121094 222.5992889404297 293.9546813964844 215.29864501953125 296.70074462890625 C 207.88357543945312 298.7351989746094 197.97418212890625 299.66802978515625 186.4180908203125 298.3426208496094"/>
    <path stroke-width="0" fill="rgb(0, 0, 0)" opacity="1.0" d="M 260.5989074707031 302.41448974609375 C 262.1739501953125 254.22515869140625 266.3431091308594 208.00978088378906 268.900146484375 163.105712890625 C 277.2354736328125 163.84007263183594 290.30572509765625 164.06065368652344 300.592041015625 164.2286834716797 C 299.74993896484375 210.57484436035156 295.84014892578125 258.3697814941406 283.9110412597656 305.46527099609375 C 277.0224914550781 304.1669006347656 269.0162048339844 303.01641845703125 260.5989074707031 302.41448974609375M 245.683349609375 167.56907653808594 C 243.44485473632812 151.2405548095703 231.3657989501953 141.5803985595703 247.04925537109375 121.17218780517578 C 256.34722900390625 130.5547637939453 263.42242431640625 125.2970199584961 269.1534118652344 119.73785400390625 C 272.77947998046875 127.41448974609375 273.13336181640625 130.2870635986328 267.30096435546875 123.40740203857422 C 267.6798095703125 125.13148498535156 269.9657287597656 130.50076293945312 269.5606384277344 135.476318359375 C 260.63336181640625 142.05606079101562 250.82180786132812 144.4978485107422 241.79544067382812 134.90858459472656 C 238.9830322265625 122.28459167480469 247.76365661621094 113.78511047363281 259.0491027832031 102.20698547363281 C 252.87306213378906 126.33515167236328 255.95156860351562 112.27989959716797 270.7851867675781 101.88216400146484 C 262.6867370605469 103.03190612792969 265.6504821777344 91.02530670166016 259.80377197265625 101.21296691894531 C 273.1007080078125 95.7276840209961 281.38104248046875 95.39288330078125 284.3359069824219 81.82023620605469 C 279.2704162597656 67.03740692138672 279.8153991699219 77.68616485595703 277.046142578125 90.748046875 C 286.5517578125 93.3729248046875 288.97821044921875 78.1202621459961 297.0040588378906 52.85398483276367 C 301.6714172363281 107.77115631103516 289.0505065917969 111.25548553466797 277.19744873046875 108.13195037841797 C 292.40386962890625 103.97543334960938 292.999267578125 109.62142181396484 287.54107666015625 112.62669372558594 C 285.8091125488281 122.55101013183594 289.6930236816406 110.49490356445312 290.8215637207031 114.63524627685547 C 273.1091613769531 118.98116302490234 274.9775390625 118.8197021484375 273.70281982421875 107.6876449584961 C 281.8631286621094 99.28414154052734 278.5924072265625 106.56398010253906 284.01495361328125 113.15459442138672 C 284.2190246582031 121.824462890625 280.0360107421875 123.64154815673828 278.3980712890625 137.09214782714844 C 266.51300048828125 139.8206787109375 262.737060546875 122.90899658203125 267.82049560546875 118.71556854248047 C 273.60687255859375 126.10289001464844 274.5349426269531 131.31655883789062 277.4153137207031 137.65916442871094 C 271.0986328125 131.26068115234375 273.56219482421875 127.14751434326172 277.9183349609375 110.51539611816406 C 283.4871520996094 120.2097396850586 276.18536376953125 120.61470794677734 273.4397888183594 132.7242889404297 C 289.716064453125 130.40179443359375 292.235595703125 124.37249755859375 289.86468505859375 117.77494812011719 C 284.3750305175781 119.37678527832031 285.0928039550781 129.93943786621094 278.8424072265625 131.28602600097656 C 292.1960754394531 121.61043548583984 286.376220703125 135.9816131591797 285.8782043457031 134.33041381835938 C 282.91943359375 141.88992309570312 285.724365234375 151.0372772216797 278.14703369140625 145.6929931640625 C 274.9618835449219 154.20420837402344 274.6158142089844 162.9230194091797 245.683349609375 167.56907653808594"/>
  </g>
</svg>
