<?xml version="1.0" ?>
<svg xmlns="http://www.w3.org/2000/svg" version="1.1" width="600" height="600">
  <defs/>
  <g>
    <path stroke-width="0" fill="rgb(0, 0, 0)" opacity="1.0" d="M 108.62005615234375 367.439208984375 C 109.93466186523438 366.958740234375 111.0516357421875 366.6488037109375 113.1613540649414 365.99163818359375 C 115.02977752685547 365.389404296875 117.77152252197266 364.62225341796875 121.60733032226562 363.8870849609375 C 125.28563690185547 363.5570373535156 128.39451599121094 363.7106018066406 133.28463745117188 363.8988342285156 C 136.34654235839844 364.077880859375 138.80641174316406 364.7265930175781 142.6552734375 366.5954284667969 C 146.09852600097656 368.21588134765625 148.35304260253906 369.6824035644531 150.49537658691406 371.78826904296875 C 152.33349609375 373.2961730957031 153.7442626953125 374.6274719238281 155.66607666015625 377.2281494140625 C 156.9004364013672 378.89593505859375 158.2014617919922 381.0377197265625 159.8743438720703 384.40093994140625 C 161.0462646484375 386.54022216796875 161.3189697265625 387.3236083984375 157.89321899414062 400.86456298828125 C 157.9457244873047 403.6753845214844 157.4922637939453 405.5812072753906 157.07798767089844 408.2896728515625 C 156.09503173828125 410.59356689453125 155.29766845703125 413.6614990234375 154.7932586669922 416.6795959472656 C 153.95669555664062 420.100341796875 152.92788696289062 422.3583984375 151.48040771484375 425.0556335449219 C 150.5618896484375 426.898193359375 149.45030212402344 428.75494384765625 148.75730895996094 429.6959533691406 C 148.02593994140625 431.9811706542969 147.27963256835938 433.3541564941406 145.34828186035156 435.71563720703125 C 142.13211059570312 440.2278747558594 141.42030334472656 441.1011657714844 140.82717895507812 441.6481018066406 C 138.42800903320312 444.45159912109375 133.9056396484375 448.58892822265625 132.38392639160156 449.3965759277344 C 128.95762634277344 452.2078857421875 123.78884887695312 454.6537780761719 115.13687896728516 457.4553527832031 C 111.5635986328125 457.4231872558594 107.4266586303711 457.4938659667969 103.57867431640625 457.26983642578125 C 99.57257843017578 456.5168151855469 100.94638061523438 456.679443359375 96.78882598876953 456.4146728515625 C 91.77056884765625 455.2027587890625 88.7722396850586 454.490966796875 96.97003173828125 454.5023193359375 C 97.95561981201172 457.2082824707031 98.37715911865234 458.0408020019531 99.87214660644531 462.34344482421875 C 100.72984313964844 465.3355407714844 101.11906433105469 466.8168640136719 101.41229248046875 468.8043518066406 C 100.95235443115234 473.7418212890625 100.68438720703125 466.46624755859375 100.40040588378906 472.8739013671875 C 99.52203369140625 466.726806640625 98.1863021850586 458.89849853515625 100.67440795898438 462.8917541503906 C 103.37838745117188 468.2426452636719 105.34919738769531 474.8243713378906 106.69931030273438 484.92718505859375 C 105.92626190185547 495.3184509277344 99.97199249267578 495.93011474609375 99.99774932861328 498.31683349609375 C 99.79948425292969 499.90240478515625 97.3893814086914 499.1463623046875 96.85856628417969 501.2867126464844 C 94.73070526123047 501.1515808105469 95.2135238647461 503.019287109375 95.64225006103516 504.5448913574219 C 93.47370147705078 505.0855407714844 90.96944427490234 505.85076904296875 86.5315933227539 505.2244567871094 C 85.96009063720703 508.0531311035156 86.04386138916016 512.4498291015625 85.71511840820312 512.8326416015625 C 86.32110595703125 510.3796081542969 87.90660858154297 498.958740234375 84.5876235961914 499.4822692871094 C 82.6975326538086 494.2599792480469 78.99266815185547 495.3373107910156 75.693115234375 496.10040283203125 C 74.62848663330078 493.2268371582031 73.60550689697266 489.8609924316406 71.09745788574219 490.3291320800781 C 70.61924743652344 487.4866943359375 67.26868438720703 486.6878356933594 65.35299682617188 486.39105224609375 C 65.3855209350586 485.19244384765625 64.64730072021484 483.43487548828125 62.15435791015625 479.8927917480469 C 58.214134216308594 472.55072021484375 58.24999237060547 471.9425354003906 57.95674514770508 468.0906066894531 C 58.67057418823242 475.907470703125 58.34400177001953 474.1127624511719 58.169281005859375 473.25653076171875 C 57.81546401977539 472.2295837402344 56.59983825683594 468.7755126953125 55.43416976928711 466.0126037597656 C 53.44746398925781 461.0107116699219 52.00010299682617 456.9339294433594 50.767391204833984 452.1811828613281 C 49.65395736694336 448.25372314453125 48.547698974609375 443.1840515136719 47.778724670410156 437.8556213378906 C 46.928138732910156 432.2715759277344 47.43486404418945 426.4644775390625 48.839759826660156 418.7071533203125 C 52.38151550292969 410.2161865234375 54.88066101074219 404.4976501464844 53.648014068603516 408.268310546875 C 54.743614196777344 403.2813720703125 53.7783088684082 410.1076354980469 53.10300827026367 406.4455871582031 C 53.62452697753906 403.8359069824219 56.018375396728516 397.4828796386719 57.21329879760742 393.0001220703125 C 57.92107391357422 402.14129638671875 57.75675964355469 398.0809020996094 57.75627517700195 396.6385498046875 C 64.92665100097656 395.3814392089844 67.92916107177734 394.9610595703125 71.82333374023438 394.4534912109375 C 72.59829711914062 379.8448791503906 72.5306625366211 375.782958984375 72.63923645019531 372.89361572265625 C 72.64773559570312 370.3410339355469 72.574951171875 368.1753234863281 72.47210693359375 365.9500732421875 C 75.55973815917969 365.77069091796875 78.89288330078125 365.73687744140625 82.08049011230469 365.8387756347656 C 85.51603698730469 365.9533996582031 88.98114776611328 366.4577941894531 92.55546569824219 367.0452880859375 C 96.47570037841797 367.950927734375 99.13277435302734 368.6328430175781 101.24453735351562 368.45257568359375 C 103.81565856933594 368.3675231933594 107.0738296508789 367.8207702636719 108.62005615234375 367.439208984375M 112.70063018798828 393.4100036621094 C 110.37226867675781 393.5599670410156 109.17140197753906 393.7390441894531 106.66937255859375 393.69573974609375 C 103.43944549560547 393.8379211425781 101.69233703613281 393.8525390625 100.15074920654297 393.7030029296875 C 99.37069702148438 397.07623291015625 99.1927490234375 399.673583984375 97.63336181640625 404.5988464355469 C 96.59259033203125 410.46600341796875 96.5141830444336 411.9635925292969 96.4757080078125 405.4243469238281 C 95.85504150390625 411.1178894042969 94.60533905029297 414.8916320800781 93.85404968261719 417.4464416503906 C 92.9092788696289 422.2436828613281 92.52703094482422 425.4248046875 92.5040054321289 427.67510986328125 C 94.2960433959961 427.459716796875 96.48258209228516 427.78033447265625 99.53075408935547 428.4488525390625 C 102.1362533569336 429.48760986328125 103.76861572265625 429.7254333496094 106.05801391601562 430.1997375488281 C 107.06108093261719 430.4017333984375 110.96089172363281 429.5104064941406 112.97576904296875 428.75811767578125 C 116.18984985351562 427.4952392578125 119.32292175292969 425.3852233886719 122.35717010498047 420.94525146484375 C 124.43842315673828 418.6585998535156 125.40005493164062 416.82330322265625 126.95449829101562 413.60223388671875 C 127.94607543945312 410.1588439941406 129.00247192382812 407.99102783203125 129.31008911132812 404.8225402832031 C 129.2139892578125 402.4149475097656 128.984375 399.9689636230469 128.14541625976562 398.1298828125 C 127.55661010742188 396.8827819824219 126.67994689941406 395.4653015136719 125.63432312011719 394.6246337890625 C 124.41744995117188 393.82940673828125 122.93782043457031 393.2569580078125 120.85765838623047 392.86480712890625 C 120.05154418945312 392.62530517578125 116.31452178955078 392.60699462890625 112.70063018798828 393.4100036621094"/>
    <path stroke-width="0" fill="rgb(0, 0, 0)" opacity="1.0" d="M 275.2924499511719 513.7434692382812 C 274.3013610839844 510.0609130859375 272.38739013671875 504.8302917480469 270.7665710449219 498.4054260253906 C 269.64251708984375 493.78228759765625 268.78411865234375 490.2366027832031 268.1812744140625 485.44708251953125 C 263.8797302246094 485.7503662109375 258.4026184082031 485.7729797363281 255.1534423828125 485.8550720214844 C 249.61021423339844 486.6547546386719 244.33641052246094 486.4217529296875 241.9022674560547 486.6480712890625 C 235.0991668701172 488.21600341796875 230.68190002441406 488.2423095703125 224.40170288085938 488.3069152832031 C 217.93959045410156 487.44036865234375 212.49295043945312 486.3528137207031 208.33421325683594 485.32940673828125 C 208.09877014160156 486.0001525878906 207.1032257080078 492.58233642578125 204.799560546875 497.9727783203125 C 202.38232421875 505.49383544921875 200.18618774414062 511.15118408203125 198.7984619140625 515.3192138671875 C 193.82589721679688 515.0645141601562 189.1819610595703 515.0610961914062 183.63186645507812 516.1570434570312 C 178.67648315429688 515.6610107421875 174.63076782226562 515.880126953125 169.28126525878906 516.82568359375 C 169.92044067382812 513.2798461914062 170.82835388183594 510.73681640625 171.83164978027344 508.75836181640625 C 172.9305419921875 505.3440246582031 173.80914306640625 503.0281677246094 174.572509765625 501.17156982421875 C 175.42245483398438 499.264892578125 176.3997039794922 495.64398193359375 177.50074768066406 491.5018005371094 C 178.8028564453125 486.4452209472656 179.1520233154297 485.00628662109375 180.09194946289062 480.92132568359375 C 180.8140869140625 476.38336181640625 181.48663330078125 475.11041259765625 182.5341796875 471.8512268066406 C 184.3125457763672 467.4440612792969 185.15921020507812 465.6486511230469 186.90802001953125 460.7845153808594 C 188.75570678710938 458.0641784667969 190.7235565185547 453.0335388183594 192.3765106201172 448.1514587402344 C 194.14002990722656 443.09967041015625 192.9464569091797 446.60809326171875 194.51052856445312 441.85198974609375 C 195.39767456054688 439.46240234375 196.12908935546875 436.59320068359375 197.1304168701172 431.1623840332031 C 198.10047912597656 425.96356201171875 198.917236328125 424.2953186035156 200.15054321289062 420.0794677734375 C 200.95172119140625 415.4253845214844 202.00180053710938 413.0863037109375 203.97552490234375 409.3182373046875 C 205.5540008544922 405.5435791015625 206.10975646972656 404.5694885253906 208.1444091796875 400.57623291015625 C 209.80812072753906 395.2572021484375 210.39295959472656 392.0234680175781 211.9364013671875 387.09722900390625 C 213.48065185546875 382.6995544433594 213.89053344726562 381.1988220214844 214.46119689941406 375.310791015625 C 216.41690063476562 372.45025634765625 217.32289123535156 369.83734130859375 218.4070281982422 366.42938232421875 C 222.0006866455078 366.7145690917969 227.22982788085938 367.5294494628906 231.25929260253906 367.8099060058594 C 234.04156494140625 367.6187438964844 238.85955810546875 367.468017578125 241.8297119140625 367.5041198730469 C 247.822998046875 367.9439697265625 245.99258422851562 366.80804443359375 253.69532775878906 367.046142578125 C 260.8229675292969 366.8913879394531 264.5180358886719 366.71649169921875 269.439208984375 366.42388916015625 C 271.2265319824219 370.47503662109375 272.2135925292969 374.17327880859375 273.0335998535156 377.58673095703125 C 273.6760559082031 380.91314697265625 274.1515808105469 382.80255126953125 274.8053894042969 385.1437683105469 C 275.5337829589844 388.80767822265625 276.124755859375 390.7312316894531 276.91607666015625 393.585205078125 C 277.552978515625 396.95770263671875 278.5272216796875 400.6993713378906 279.10174560546875 403.66705322265625 C 279.34051513671875 408.3553466796875 279.83062744140625 409.7349853515625 281.6642150878906 414.781982421875 C 281.2210693359375 418.0732116699219 281.7809753417969 421.2948913574219 283.5367736816406 423.538818359375 C 283.9264221191406 428.2083435058594 284.4557189941406 431.1644592285156 285.6042175292969 434.397705078125 C 286.45257568359375 438.306396484375 287.0899353027344 440.3463439941406 288.2001647949219 444.24188232421875 C 288.89263916015625 447.5980224609375 289.5254211425781 451.3681945800781 290.9229431152344 456.56903076171875 C 291.368896484375 459.74066162109375 291.71917724609375 463.6737365722656 292.4922790527344 467.3724365234375 C 293.8450012207031 472.73712158203125 294.72003173828125 476.0796813964844 295.3457946777344 478.6265869140625 C 295.77093505859375 480.6674499511719 296.3843688964844 484.4849548339844 296.6279602050781 485.2137145996094 C 297.46124267578125 488.3201904296875 297.83050537109375 489.7823791503906 298.2613525390625 491.564208984375 C 298.7807922363281 493.5332946777344 299.91650390625 496.23358154296875 300.7058410644531 501.0328369140625 C 301.0121765136719 502.952880859375 301.5946350097656 505.64642333984375 302.2231750488281 508.5855407714844 C 302.9529724121094 511.1205139160156 303.4615173339844 513.9841918945312 303.7550354003906 516.0406494140625 C 298.9767761230469 515.1297607421875 294.3800354003906 514.4490356445312 288.6194763183594 514.45166015625 C 285.15478515625 514.4599609375 280.63726806640625 513.7930908203125 275.2924499511719 513.7434692382812M 250.11746215820312 422.9345703125 C 249.6036376953125 420.2593688964844 248.97117614746094 417.7992248535156 248.08041381835938 413.9495849609375 C 246.87489318847656 409.5679931640625 245.72879028320312 405.57684326171875 244.6660614013672 400.7730712890625 C 243.2808380126953 396.5093078613281 242.1804962158203 393.0072021484375 241.59402465820312 390.4305419921875 C 241.10684204101562 392.9958801269531 240.47201538085938 396.765625 239.3009490966797 400.7078857421875 C 237.88873291015625 405.3222961425781 236.6205291748047 409.83807373046875 235.09811401367188 413.7200622558594 C 233.88136291503906 417.0927429199219 233.1472930908203 419.1667175292969 232.15625 421.9375 C 229.9877166748047 427.65716552734375 228.76962280273438 431.81298828125 226.8317108154297 437.352294921875 C 225.14556884765625 442.01861572265625 223.50570678710938 448.5609130859375 221.61801147460938 455.0664978027344 C 229.23211669921875 455.65740966796875 235.25108337402344 455.8946838378906 239.6386260986328 456.1620788574219 C 245.30691528320312 456.1110534667969 252.14321899414062 456.1031188964844 258.1466064453125 455.8992004394531 C 256.6723937988281 451.05517578125 255.1573028564453 446.3636779785156 253.61770629882812 440.7003479003906 C 252.16049194335938 433.5963439941406 251.18421936035156 428.0758056640625 250.11746215820312 422.9345703125"/>
    <path stroke-width="0" fill="rgb(0, 0, 0)" opacity="1.0" d="M 402.1962890625 514.0993041992188 C 372.14697265625 512.9440307617188 345.4989929199219 514.8119506835938 321.1197814941406 512.1484985351562 C 321.6480407714844 505.8158874511719 321.7401428222656 498.44439697265625 321.8998718261719 491.9194030761719 C 328.3856201171875 489.8592529296875 332.415283203125 488.404541015625 333.9695739746094 487.35107421875 C 332.1722106933594 456.31976318359375 335.8717346191406 427.23828125 339.8741455078125 398.4967346191406 C 334.45458984375 396.8729553222656 328.1243896484375 395.61834716796875 319.8943176269531 393.9463806152344 C 318.2379150390625 384.6863708496094 318.6232604980469 374.6248779296875 319.12933349609375 367.2250061035156 C 346.4538269042969 367.52105712890625 370.9364318847656 369.1381530761719 398.20794677734375 369.3857727050781 C 397.3393249511719 379.1756896972656 395.2473449707031 389.43377685546875 393.7433166503906 396.5244445800781 C 386.2780456542969 397.4798278808594 378.867431640625 398.79046630859375 372.018798828125 400.07696533203125 C 367.0536193847656 430.9676208496094 364.3542785644531 456.6811828613281 367.4373474121094 483.21978759765625 C 377.2530517578125 483.131103515625 391.2052917480469 484.06781005859375 402.27703857421875 486.5205993652344 C 402.4568176269531 497.5491943359375 402.3751525878906 505.1925354003906 402.1962890625 514.0993041992188"/>
    <path stroke-width="0" fill="rgb(0, 0, 0)" opacity="1.0" d="M 541.0946044921875 520.445556640625 C 536.0379638671875 518.2161254882812 530.2946166992188 515.912109375 526.1181640625 513.9828491210938 C 525.24072265625 513.7323608398438 524.5848999023438 513.308837890625 515.5062255859375 515.2271118164062 C 505.2010803222656 504.4319763183594 502.86651611328125 500.2577819824219 495.5287170410156 489.9580383300781 C 492.2656555175781 472.1249694824219 491.3735656738281 458.45074462890625 489.4745788574219 451.39923095703125 C 486.7764892578125 445.4662780761719 482.6978454589844 440.5574035644531 476.36676025390625 434.655029296875 C 467.1355895996094 428.67877197265625 457.8780822753906 421.19097900390625 429.5113525390625 433.8122253417969 C 447.9931335449219 413.2567138671875 448.3617858886719 401.08465576171875 457.772705078125 396.3335266113281 C 447.47479248046875 415.530029296875 447.3274230957031 416.5389099121094 446.8692626953125 420.2033996582031 C 446.7916564941406 424.711181640625 446.7287292480469 428.4205322265625 446.8310852050781 429.38140869140625 C 447.3610534667969 431.3456726074219 448.17877197265625 433.5793151855469 448.5150146484375 434.0841369628906 C 452.8366394042969 439.1194763183594 461.635986328125 447.1231994628906 471.87152099609375 458.0619201660156 C 479.8990173339844 472.0616455078125 480.7379455566406 489.105712890625 480.4927673339844 501.0217590332031 C 471.50506591796875 502.23602294921875 462.9327392578125 503.5276184082031 451.32012939453125 504.66815185546875 C 450.68994140625 497.24517822265625 450.06280517578125 491.2201843261719 449.5411071777344 484.07965087890625 C 448.6637268066406 481.1300964355469 447.6774597167969 478.80706787109375 445.4774475097656 474.6365966796875 C 442.1798095703125 470.7520446777344 437.9861755371094 466.954833984375 431.9820861816406 460.6322326660156 C 427.1239929199219 455.7125549316406 422.9832763671875 449.1946105957031 420.6256103515625 443.03717041015625 C 418.9491882324219 437.1249084472656 417.75323486328125 429.3796691894531 417.4342041015625 422.88671875 C 417.9098815917969 414.01708984375 418.6734313964844 409.3026123046875 420.3192443847656 403.24017333984375 C 421.1971435546875 397.8835144042969 422.55792236328125 391.34686279296875 424.4155578613281 386.05596923828125 C 426.32391357421875 380.4087219238281 427.2980041503906 374.9910888671875 427.5549011230469 370.8445129394531 C 434.4561462402344 370.84552001953125 441.9696044921875 371.8957214355469 448.5851745605469 373.08026123046875 C 450.4969177246094 373.21405029296875 454.3446350097656 373.4863586425781 457.9208984375 373.0770568847656 C 461.9916687011719 377.44354248046875 462.6492614746094 378.1119689941406 474.2124938964844 382.7526550292969 C 485.5654296875 389.4826965332031 496.0245361328125 397.78216552734375 505.49908447265625 407.48077392578125 C 515.2420043945312 417.48712158203125 522.1998901367188 429.2998046875 526.28173828125 442.8175964355469 C 527.2495727539062 455.9107971191406 528.6492309570312 461.97113037109375 518.0763549804688 478.1080627441406 C 521.6027221679688 494.81451416015625 533.6967163085938 470.6693115234375 529.59912109375 479.4050598144531 C 535.621337890625 466.2626037597656 537.2244873046875 462.2392883300781 538.6530151367188 457.9541320800781 C 538.9208984375 453.94000244140625 538.2931518554688 447.2501220703125 538.2298583984375 444.78143310546875 C 537.24267578125 440.6796875 535.4004516601562 435.3852233886719 532.8049926757812 428.938720703125 C 531.30224609375 424.7213134765625 529.1870727539062 418.36505126953125 527.4445190429688 410.7143859863281 C 526.4010620117188 404.5851745605469 526.2095947265625 397.16546630859375 526.5509643554688 391.4360046386719 C 528.767578125 384.4824523925781 530.8382568359375 376.8393859863281 535.3245849609375 369.517578125 C 538.09228515625 364.8844909667969 541.1432495117188 361.25067138671875 544.2753295898438 358.484619140625 C 548.494384765625 363.1982116699219 552.3223876953125 369.650390625 554.2801513671875 373.6485900878906 C 552.327880859375 374.8118591308594 550.6361083984375 375.95330810546875 547.9802856445312 379.6266784667969 C 546.1646118164062 384.9531555175781 545.3480834960938 390.2399597167969 545.320556640625 395.1770324707031 C 545.4440307617188 399.31329345703125 546.6456909179688 402.9675598144531 548.3848876953125 407.698486328125 C 551.095703125 412.377685546875 556.0109252929688 418.9859924316406 560.7717895507812 425.7381896972656 C 565.9444580078125 434.87255859375 570.242919921875 445.7944030761719 571.6300048828125 458.1629333496094 C 570.8216552734375 472.46295166015625 566.2648315429688 482.9093017578125 561.1395874023438 491.210205078125 C 555.3182373046875 498.2217102050781 550.2931518554688 504.0829772949219 546.683837890625 508.3354797363281 C 544.400390625 512.5003051757812 542.9554443359375 515.947998046875 541.0946044921875 520.445556640625"/>
    <path stroke-width="0" fill="rgb(0, 0, 0)" opacity="1.0" d="M 74.10459899902344 379.55560302734375 C 71.11485290527344 368.6942138671875 69.00562286376953 361.49822998046875 63.730804443359375 350.2223205566406 C 56.620723724365234 338.7558898925781 51.18999481201172 327.6855773925781 48.56222152709961 318.4608154296875 C 46.02326583862305 310.1587829589844 45.004493713378906 303.76800537109375 45.24212646484375 298.14324951171875 C 47.74147033691406 283.3419189453125 51.983184814453125 272.11273193359375 57.61646270751953 260.92816162109375 C 65.49592590332031 252.5677947998047 72.16236114501953 247.68963623046875 78.16580200195312 241.61349487304688 C 84.22854614257812 235.2766571044922 89.78587341308594 228.84481811523438 96.34410095214844 225.73500061035156 C 104.74808502197266 222.1430206298828 109.80366516113281 220.69415283203125 115.91949462890625 219.69483947753906 C 119.87529754638672 219.44273376464844 122.749755859375 218.9683380126953 124.28776550292969 218.64199829101562 C 128.92681884765625 220.7504425048828 133.29742431640625 221.6776580810547 136.16943359375 221.49082946777344 C 139.92129516601562 223.0305633544922 141.5130157470703 224.41323852539062 143.57530212402344 226.700927734375 C 146.65826416015625 229.9661102294922 150.62599182128906 235.05575561523438 153.9415740966797 240.49310302734375 C 157.62950134277344 246.96994018554688 160.8076171875 252.4779052734375 165.4257354736328 256.4504089355469 C 168.9002227783203 260.3952331542969 172.4780731201172 263.3822021484375 176.8224334716797 265.3627014160156 C 182.2649688720703 268.2387390136719 185.36573791503906 269.1072082519531 187.5806884765625 269.3558349609375 C 192.93971252441406 269.3750915527344 197.095947265625 270.900634765625 199.4298858642578 273.73583984375 C 201.78240966796875 276.3762512207031 202.8128662109375 279.7548522949219 202.748779296875 284.0050354003906 C 202.80877685546875 287.7476806640625 201.43331909179688 291.31414794921875 198.4912872314453 294.23419189453125 C 195.20205688476562 297.5034484863281 191.11862182617188 298.9513244628906 182.8747100830078 298.8884582519531 C 176.0785369873047 297.1488037109375 170.47802734375 295.40704345703125 166.37767028808594 293.40972900390625 C 160.68572998046875 290.3851013183594 155.90911865234375 285.9946594238281 152.4169158935547 281.52520751953125 C 153.7738037109375 280.5677490234375 155.31532287597656 279.4862365722656 157.09011840820312 278.3114929199219 C 156.0287628173828 282.4400939941406 154.2021942138672 285.7735595703125 151.85775756835938 288.2751159667969 C 150.01878356933594 291.1573791503906 146.99647521972656 293.33087158203125 143.50242614746094 295.3472595214844 C 140.17913818359375 297.7344055175781 137.303955078125 298.92694091796875 130.6513671875 299.4925842285156 C 129.84951782226562 299.51531982421875 123.84870910644531 298.9092712402344 118.49103546142578 297.402587890625 C 115.35964965820312 296.6373291015625 111.10519409179688 294.99517822265625 106.61746978759766 293.1609191894531 C 102.62586212158203 290.71795654296875 98.87248229980469 287.77215576171875 95.02875518798828 283.409912109375 C 91.57254791259766 279.7780456542969 87.64892578125 275.0912170410156 84.15681457519531 269.1795349121094 C 86.77404022216797 269.0608825683594 89.4367904663086 268.990234375 91.70530700683594 268.92230224609375 C 89.01128387451172 273.3004150390625 86.76301574707031 279.1042785644531 84.50091552734375 285.6014709472656 C 81.64986419677734 292.8685302734375 80.7669906616211 295.9983215332031 80.39183807373047 300.57635498046875 C 80.31309509277344 302.2481994628906 80.76168060302734 306.4360656738281 81.92176055908203 312.4521789550781 C 82.7275619506836 315.84136962890625 84.03684997558594 319.7376403808594 86.60379028320312 325.80706787109375 C 91.64781951904297 335.110595703125 96.60577392578125 346.3768615722656 98.6336898803711 354.9197082519531 C 99.23180389404297 362.2569885253906 98.08426666259766 368.8909606933594 98.52425384521484 373.2605285644531 C 89.16548919677734 374.3587646484375 81.53353881835938 375.56768798828125 74.10459899902344 379.55560302734375M 127.72512817382812 269.69024658203125 C 130.0616912841797 269.198974609375 131.97607421875 268.4874572753906 133.12319946289062 267.73565673828125 C 134.2599334716797 266.8899230957031 134.8892059326172 265.97833251953125 135.13192749023438 264.9533386230469 C 135.3076934814453 263.8973388671875 135.10215759277344 262.4831237792969 134.2681121826172 261.0546875 C 133.15151977539062 258.4091491699219 132.05311584472656 256.2174072265625 130.83624267578125 253.72454833984375 C 129.83285522460938 251.96273803710938 128.68983459472656 250.22161865234375 127.5629653930664 248.96817016601562 C 126.94377136230469 248.09283447265625 126.32864379882812 247.59121704101562 125.739501953125 247.2221221923828 C 124.75232696533203 246.5064239501953 123.78145599365234 246.15106201171875 122.69256591796875 246.16928100585938 C 121.4658432006836 246.08497619628906 119.47396850585938 246.33741760253906 118.83889770507812 246.5229034423828 C 117.38581848144531 247.1983184814453 116.37257385253906 247.73570251464844 114.44464874267578 248.7649383544922 C 112.62423706054688 249.8241424560547 110.84227752685547 250.99566650390625 109.28939819335938 252.15744018554688 C 107.6624755859375 253.29580688476562 106.63675689697266 254.2749786376953 106.21583557128906 254.95606994628906 C 105.86292266845703 252.5845489501953 105.63697814941406 250.65443420410156 105.2763900756836 248.80120849609375 C 106.962646484375 253.08010864257812 109.24555969238281 257.4971008300781 111.52623748779297 260.9609375 C 113.83585357666016 264.1339416503906 116.6017837524414 265.9617614746094 119.85972595214844 267.24871826171875 C 123.14276123046875 268.96014404296875 126.44825744628906 269.84332275390625 127.72512817382812 269.69024658203125"/>
    <path stroke-width="0" fill="rgb(0, 0, 0)" opacity="1.0" d="M 188.81240844726562 298.9754333496094 C 187.85385131835938 288.6162109375 188.56149291992188 278.9377746582031 188.8392791748047 269.3209228515625 C 193.8777313232422 269.4587097167969 197.88743591308594 268.9076843261719 200.0118865966797 267.88818359375 C 202.58987426757812 266.5552062988281 205.83615112304688 262.0619812011719 206.593994140625 259.1363830566406 C 207.1980743408203 255.39614868164062 207.13150024414062 251.02975463867188 206.40316772460938 245.298095703125 C 189.28060913085938 209.3447265625 194.1774139404297 171.57635498046875 220.1710968017578 135.5686798095703 C 228.82791137695312 140.71876525878906 238.23504638671875 145.6079559326172 251.24107360839844 151.57467651367188 C 236.78172302246094 182.4351348876953 233.7638397216797 209.650634765625 238.01541137695312 244.1553497314453 C 239.19447326660156 252.9518585205078 239.0675048828125 260.43450927734375 237.55694580078125 269.4267883300781 C 236.31202697753906 274.5124206542969 233.8558349609375 280.4841613769531 228.7429656982422 286.06488037109375 C 226.23655700683594 289.3249206542969 221.44882202148438 292.3763427734375 215.21597290039062 294.62164306640625 C 209.4365234375 297.059326171875 200.35107421875 299.06427001953125 188.81240844726562 298.9754333496094"/>
    <path stroke-width="0" fill="rgb(0, 0, 0)" opacity="1.0" d="M 245.71405029296875 297.80487060546875 C 255.99618530273438 251.6291961669922 267.241943359375 207.6820526123047 283.4722595214844 166.64491271972656 C 292.258056640625 170.0530242919922 301.0304260253906 172.76438903808594 311.1223449707031 175.37986755371094 C 297.7705993652344 217.30409240722656 285.6013488769531 258.98297119140625 277.9462890625 303.9422912597656 C 266.83056640625 302.0495910644531 256.801025390625 300.06378173828125 245.71405029296875 297.80487060546875M 237.986572265625 192.77200317382812 C 210.401123046875 149.30970764160156 213.23684692382812 137.28172302246094 242.63198852539062 118.63261413574219 C 251.843017578125 136.67672729492188 257.4616394042969 133.55958557128906 270.32110595703125 122.62531280517578 C 273.0120544433594 126.9614486694336 272.6661071777344 130.66754150390625 266.1676330566406 125.60762786865234 C 268.79425048828125 124.72795104980469 270.2088928222656 130.42227172851562 269.4839782714844 135.15985107421875 C 260.830810546875 140.8734893798828 253.41233825683594 140.96435546875 230.21823120117188 136.17019653320312 C 241.31973266601562 127.60953521728516 244.12051391601562 109.83897399902344 257.83740234375 102.10848999023438 C 244.5812530517578 150.20803833007812 256.3742980957031 128.49462890625 277.610107421875 109.10099029541016 C 271.4565734863281 112.90513610839844 274.90447998046875 108.71892547607422 274.1802673339844 110.68521118164062 C 277.44036865234375 105.25385284423828 283.9898376464844 100.90186309814453 288.94635009765625 82.54609680175781 C 290.8477478027344 67.07896423339844 290.6388244628906 83.49131774902344 293.1027526855469 84.00164794921875 C 287.759521484375 92.73326873779297 289.64752197265625 78.58440399169922 288.82012939453125 44.615726470947266 C 313.6444091796875 106.06006622314453 295.60797119140625 120.03443145751953 283.3987731933594 116.34669494628906 C 298.442626953125 94.17925262451172 296.9554748535156 99.95536804199219 289.3332824707031 113.13629150390625 C 282.6709289550781 130.62522888183594 280.4902038574219 117.76527404785156 284.0133972167969 121.23701477050781 C 271.6565856933594 119.08272552490234 273.4090881347656 120.51174926757812 280.0825500488281 110.72589111328125 C 292.8004150390625 98.77774810791016 302.9659118652344 94.58552551269531 298.4647521972656 111.23759460449219 C 292.2986755371094 127.89685821533203 284.67364501953125 128.49302673339844 272.7501525878906 135.27679443359375 C 272.0011291503906 134.5185089111328 264.9677734375 121.14237213134766 268.5273132324219 119.01839447021484 C 274.0050354003906 124.2616958618164 277.0366516113281 127.79029846191406 279.96112060546875 132.26243591308594 C 268.5691223144531 132.58151245117188 272.95220947265625 127.74246215820312 275.8949279785156 106.68872833251953 C 279.2696838378906 121.48945617675781 274.8573303222656 123.63105773925781 271.552001953125 128.33956909179688 C 284.4481201171875 126.2767333984375 280.53857421875 113.613525390625 295.83319091796875 114.64208984375 C 295.2198486328125 127.74088287353516 291.16229248046875 139.9582061767578 280.8853454589844 137.0225067138672 C 290.094970703125 109.92074584960938 282.9398498535156 127.2295150756836 288.9114685058594 127.58877563476562 C 286.0575256347656 137.41140747070312 280.407470703125 146.19406127929688 278.6268005371094 144.69610595703125 C 275.60931396484375 153.1146697998047 264.879150390625 156.5298309326172 237.986572265625 192.77200317382812"/>
  </g>
</svg>
