<?xml version="1.0" ?>
<svg xmlns="http://www.w3.org/2000/svg" version="1.1" width="600" height="600">
  <defs/>
  <g>
    <path stroke-width="0" fill="rgb(0, 0, 0)" opacity="1.0" d="M 131.6941680908203 418.0652160644531 C 130.89967346191406 422.1099853515625 129.8695526123047 426.8065185546875 129.19625854492188 429.55499267578125 C 128.1163787841797 433.22332763671875 126.91168975830078 435.62109375 125.81288146972656 437.36724853515625 C 124.8553237915039 439.4032287597656 123.39433288574219 441.57794189453125 121.00125885009766 443.8982849121094 C 120.51666259765625 444.7151794433594 119.13289642333984 446.2007141113281 116.5406494140625 449.5107116699219 C 114.34356689453125 452.0202941894531 110.54673767089844 455.6003723144531 107.13446807861328 458.7404479980469 C 101.82850646972656 461.3197326660156 97.2253646850586 463.24322509765625 99.47720336914062 462.26629638671875 C 94.67643737792969 464.40057373046875 91.06620025634766 464.41595458984375 86.18484497070312 464.7247619628906 C 80.13976287841797 463.6024169921875 76.63334655761719 462.8361511230469 72.1606674194336 460.7930908203125 C 70.11936950683594 459.5707702636719 67.345458984375 457.30694580078125 65.0671157836914 455.2270812988281 C 63.315250396728516 453.21551513671875 61.96573257446289 452.2764892578125 60.29997253417969 451.2474060058594 C 57.958194732666016 450.1331787109375 55.399044036865234 447.72454833984375 52.86175537109375 444.873779296875 C 54.501792907714844 440.7387390136719 55.59467697143555 437.0531005859375 56.204017639160156 433.4294128417969 C 56.60915756225586 431.4670104980469 56.37656021118164 429.26605224609375 55.48411560058594 426.5627136230469 C 57.71459197998047 426.81256103515625 61.37138748168945 426.8627624511719 65.8504638671875 427.1443176269531 C 69.67063903808594 429.735595703125 71.9991683959961 431.70867919921875 74.62674713134766 433.486328125 C 77.81100463867188 435.735595703125 79.71379852294922 437.4208679199219 82.48489379882812 439.5498352050781 C 84.63972473144531 440.9132385253906 86.3763427734375 441.74456787109375 88.99877166748047 441.3262023925781 C 90.84754943847656 441.0899963378906 92.12834930419922 441.0223693847656 94.78290557861328 438.6585998535156 C 98.44709777832031 435.99407958984375 100.28805541992188 433.5811767578125 101.64777374267578 431.0597839355469 C 103.69710540771484 428.0686950683594 104.19699096679688 425.9285888671875 105.76416778564453 420.7972106933594 C 106.90653991699219 414.745361328125 106.67232513427734 412.32635498046875 104.53890991210938 409.08721923828125 C 102.8756103515625 406.7992858886719 101.34732818603516 405.6455383300781 100.15937042236328 405.08642578125 C 99.0123062133789 404.64886474609375 97.34230041503906 404.1202392578125 100.35163879394531 404.1256408691406 C 98.29776763916016 404.4858093261719 95.64444732666016 405.4397277832031 91.33453369140625 406.9742431640625 C 85.4752197265625 409.4426574707031 81.09050750732422 408.639892578125 75.07486724853516 406.8688049316406 C 68.70708465576172 404.58612060546875 62.69851303100586 401.5719299316406 58.199005126953125 397.4745178222656 C 54.72685623168945 393.6148376464844 52.72175598144531 389.08807373046875 51.54683303833008 384.2937927246094 C 50.79013442993164 380.0735168457031 50.42026901245117 378.2704162597656 50.12335968017578 374.62158203125 C 49.91266632080078 371.7889709472656 50.782867431640625 368.0426330566406 51.295066833496094 366.5805358886719 C 50.38151168823242 371.5298767089844 50.21031951904297 366.5191650390625 51.193912506103516 362.61328125 C 52.275272369384766 357.55413818359375 53.84622573852539 354.4489440917969 55.54831314086914 351.636474609375 C 58.974884033203125 347.3516540527344 61.29524230957031 345.1458435058594 63.570228576660156 343.77606201171875 C 67.520751953125 341.9239196777344 69.96200561523438 341.5833435058594 74.46929168701172 340.8984680175781 C 78.18592071533203 340.405517578125 81.31572723388672 340.3709411621094 83.15997314453125 340.3553161621094 C 86.52565002441406 340.7490234375 89.12928009033203 341.0169372558594 93.99596405029297 341.1860046386719 C 95.98982238769531 341.0811462402344 100.5165786743164 340.4419250488281 104.57502746582031 339.88525390625 C 110.03845977783203 339.2380065917969 113.65380859375 338.660400390625 118.50926208496094 338.4430847167969 C 124.14051818847656 337.9496154785156 129.03782653808594 338.9559326171875 131.3716278076172 339.2657165527344 C 134.49278259277344 340.2847595214844 138.71926879882812 341.49725341796875 142.54766845703125 342.5791015625 C 141.3621826171875 346.8767395019531 140.5695343017578 351.7126159667969 139.64573669433594 356.61529541015625 C 137.0579833984375 360.4468994140625 132.80958557128906 363.59686279296875 129.3522491455078 366.1692199707031 C 127.0827865600586 363.1554870605469 124.6858139038086 359.929931640625 122.56620025634766 362.3838195800781 C 121.97852325439453 363.642822265625 120.50471496582031 363.36859130859375 117.47559356689453 362.6851501464844 C 113.15086364746094 363.4358215332031 109.1046371459961 363.9576416015625 103.81987762451172 364.2059631347656 C 99.86182403564453 363.6077880859375 95.30079650878906 363.2420959472656 90.93067932128906 363.07122802734375 C 86.15267181396484 362.67315673828125 82.07659912109375 362.4338684082031 82.85235595703125 362.4627380371094 C 80.36620330810547 362.6439208984375 78.39826202392578 363.20574951171875 76.92405700683594 364.7826843261719 C 76.34590911865234 365.2679748535156 75.28866577148438 368.220947265625 75.46556091308594 371.7787780761719 C 74.79874420166016 374.5204772949219 75.17476654052734 379.4408874511719 77.02767181396484 381.48980712890625 C 79.45315551757812 383.531005859375 84.6208267211914 385.1004638671875 80.5237808227539 385.5381164550781 C 82.27898406982422 385.18170166015625 85.5681381225586 384.228515625 89.14412689208984 382.9378967285156 C 94.45079803466797 381.2204895019531 99.76371765136719 380.4375915527344 105.35091400146484 381.16448974609375 C 108.88626861572266 382.0087890625 113.61339569091797 383.141357421875 116.57565307617188 385.3148498535156 C 119.55989074707031 387.7292785644531 121.99376678466797 390.0298767089844 123.676025390625 392.2039794921875 C 125.52967071533203 394.6423034667969 126.84528350830078 396.7850341796875 128.30580139160156 399.3240051269531 C 129.37635803222656 401.4169006347656 129.9727325439453 403.28204345703125 130.976318359375 405.9364318847656 C 131.55572509765625 409.068115234375 131.52951049804688 411.4798583984375 131.45985412597656 415.4883117675781 C 131.4132080078125 419.9282531738281 130.85267639160156 421.756103515625 131.6941680908203 418.0652160644531"/>
    <path stroke-width="0" fill="rgb(0, 0, 0)" opacity="1.0" d="M 195.1712646484375 335.1777038574219 C 198.16726684570312 335.68060302734375 199.48341369628906 336.0310974121094 200.32284545898438 336.16571044921875 C 202.34950256347656 336.2399597167969 205.2201690673828 336.5467529296875 206.81497192382812 336.9923095703125 C 210.04595947265625 338.38189697265625 214.39999389648438 340.7195129394531 216.58119201660156 341.74078369140625 C 217.92727661132812 342.2615661621094 218.58558654785156 342.4742736816406 221.61715698242188 344.94342041015625 C 222.56053161621094 345.5419006347656 223.2947540283203 346.25341796875 225.65025329589844 348.9560852050781 C 227.19143676757812 350.6874694824219 228.84092712402344 352.75152587890625 230.4296875 354.611328125 C 231.23829650878906 355.6277160644531 232.39801025390625 357.603271484375 233.834228515625 360.24560546875 C 234.8926544189453 362.955322265625 235.6651611328125 365.6044616699219 236.5873565673828 369.1743469238281 C 237.4334259033203 371.4973449707031 237.44940185546875 372.64697265625 237.43714904785156 377.1876220703125 C 237.75277709960938 379.1302795410156 237.696044921875 380.8711242675781 237.6841583251953 382.28240966796875 C 236.88265991210938 385.4485168457031 236.3359375 387.94403076171875 235.66146850585938 392.3447570800781 C 234.4452667236328 395.04522705078125 235.01364135742188 391.8613586425781 233.79554748535156 394.98797607421875 C 232.78607177734375 398.1199035644531 231.2467498779297 400.5471496582031 228.95611572265625 403.1966857910156 C 227.017578125 406.88055419921875 225.927001953125 407.8136901855469 225.19964599609375 408.3238525390625 C 222.9961395263672 410.966796875 221.8006591796875 411.77392578125 218.34539794921875 414.7189636230469 C 215.39453125 416.4777526855469 211.1342010498047 419.220458984375 208.60569763183594 420.0430908203125 C 203.4477996826172 421.3358459472656 210.6512908935547 419.18316650390625 204.40530395507812 421.6291809082031 C 198.58096313476562 423.1607360839844 195.43496704101562 423.4185485839844 190.2062530517578 423.3603515625 C 187.08644104003906 422.73101806640625 184.47283935546875 422.5425109863281 181.4046173095703 422.1690979003906 C 181.1746063232422 418.9963073730469 181.54202270507812 420.0353698730469 181.9097900390625 423.3494567871094 C 182.1931915283203 425.51678466796875 181.8937530517578 428.1957702636719 181.85211181640625 430.6253356933594 C 181.641357421875 426.73394775390625 182.4022674560547 429.39788818359375 182.65643310546875 432.6263732910156 C 182.4675750732422 435.7083740234375 181.9457550048828 438.8282775878906 181.71670532226562 441.3124694824219 C 180.86119079589844 435.62542724609375 181.53521728515625 437.60479736328125 182.32215881347656 439.0989990234375 C 182.39222717285156 442.04345703125 180.00685119628906 443.2047424316406 181.8383331298828 447.2324523925781 C 180.4989776611328 448.08514404296875 180.66357421875 449.40264892578125 178.62599182128906 449.9111022949219 C 179.57846069335938 451.6298522949219 180.42178344726562 452.9309387207031 181.45042419433594 454.3243103027344 C 179.21139526367188 455.6141052246094 177.04443359375 456.78094482421875 175.31739807128906 457.7181701660156 C 177.3634796142578 461.042236328125 174.078369140625 462.10589599609375 168.01100158691406 463.1438903808594 C 164.29669189453125 462.34136962890625 161.34629821777344 460.9472961425781 158.53134155273438 458.5889892578125 C 159.769287109375 456.24505615234375 156.1030731201172 454.2330322265625 152.49627685546875 452.4916687011719 C 154.684814453125 449.46954345703125 156.65206909179688 445.864990234375 157.10858154296875 445.3231506347656 C 155.3616180419922 444.4573974609375 151.05213928222656 444.1143493652344 151.41993713378906 439.84918212890625 C 153.7522735595703 447.7131652832031 152.65907287597656 443.6244812011719 153.7519073486328 436.78033447265625 C 154.123779296875 433.5388488769531 154.2539520263672 429.81805419921875 154.22540283203125 432.4552307128906 C 154.0880126953125 429.33935546875 154.5972900390625 425.1122131347656 154.7796173095703 422.0923767089844 C 155.17613220214844 424.77593994140625 154.80770874023438 423.2705383300781 154.72897338867188 419.2630615234375 C 155.260986328125 414.8833923339844 155.56851196289062 410.55517578125 155.85011291503906 406.8921813964844 C 158.46751403808594 409.4845275878906 158.03717041015625 405.888671875 157.4961395263672 401.67230224609375 C 157.37672424316406 398.8645324707031 157.06236267089844 396.40020751953125 156.97735595703125 393.5987243652344 C 156.9669647216797 390.4505310058594 157.40379333496094 387.0883483886719 157.88565063476562 383.2684020996094 C 157.63807678222656 386.1199035644531 157.41592407226562 381.14678955078125 157.733642578125 376.60748291015625 C 158.08360290527344 372.8382873535156 158.08847045898438 368.68359375 158.40664672851562 366.9407043457031 C 158.69737243652344 364.7947998046875 160.5006866455078 358.36956787109375 160.74485778808594 356.3843994140625 C 161.37103271484375 353.686767578125 161.7773895263672 351.5850524902344 162.04261779785156 350.2171936035156 C 165.6116485595703 350.61639404296875 168.11831665039062 350.1651306152344 167.45416259765625 347.8583068847656 C 168.2160186767578 345.1457214355469 168.92552185058594 343.2106018066406 169.58372497558594 341.25933837890625 C 172.26161193847656 341.97412109375 174.97450256347656 342.7745056152344 175.60830688476562 338.49298095703125 C 177.68756103515625 338.4632568359375 177.8914794921875 334.8248291015625 179.50079345703125 335.1342468261719 C 181.05873107910156 335.2304382324219 183.7066650390625 335.6251525878906 186.6981201171875 335.9120178222656 C 190.51246643066406 335.6722106933594 192.85430908203125 335.5388488769531 195.1712646484375 335.1777038574219M 194.79623413085938 360.19512939453125 C 193.45008850097656 359.9981994628906 192.54832458496094 360.0677795410156 190.03565979003906 360.11358642578125 C 188.61325073242188 360.1270751953125 186.8150177001953 360.068359375 185.10118103027344 359.98980712890625 C 184.75051879882812 363.0613098144531 184.62771606445312 365.9825439453125 184.1898193359375 369.695556640625 C 184.03704833984375 371.93109130859375 183.85084533691406 375.70220947265625 183.66851806640625 378.59783935546875 C 183.8040008544922 383.2830810546875 184.07496643066406 385.40301513671875 183.75718688964844 387.93658447265625 C 183.81875610351562 390.3606872558594 183.91732788085938 393.154541015625 183.94827270507812 396.3663635253906 C 186.22523498535156 396.3326110839844 189.1200408935547 396.4606018066406 191.1546630859375 396.63519287109375 C 192.50772094726562 396.7902526855469 195.69625854492188 397.0243835449219 197.2930908203125 396.9149475097656 C 199.089599609375 396.21868896484375 199.53282165527344 396.0627136230469 203.48812866210938 394.65631103515625 C 204.3287353515625 394.2005310058594 206.33407592773438 392.3072509765625 208.32302856445312 389.96405029296875 C 210.05709838867188 387.3538818359375 210.4625244140625 386.0002136230469 211.05068969726562 383.5845947265625 C 211.71571350097656 380.62060546875 211.85678100585938 378.684326171875 211.90469360351562 379.8443908691406 C 211.67474365234375 375.0027160644531 211.60797119140625 372.325927734375 210.1654815673828 369.5625305175781 C 209.0290985107422 367.24493408203125 207.57765197753906 365.27471923828125 205.1360626220703 363.3042907714844 C 203.90672302246094 362.4212646484375 202.75779724121094 361.54345703125 200.5352325439453 360.75909423828125 C 199.3166046142578 360.347412109375 196.9309539794922 360.06463623046875 194.79623413085938 360.19512939453125"/>
    <path stroke-width="0" fill="rgb(0, 0, 0)" opacity="1.0" d="M 337.89471435546875 461.7894592285156 C 337.0171813964844 457.63507080078125 336.0011291503906 454.1145935058594 334.4165344238281 446.0654296875 C 332.8506774902344 440.6161804199219 331.3089599609375 435.4864196777344 328.91778564453125 427.37060546875 C 326.0437316894531 427.3890380859375 323.7857971191406 427.5003662109375 320.458984375 427.5129699707031 C 316.2311096191406 428.5885314941406 313.98455810546875 428.7335510253906 308.008544921875 429.6521911621094 C 303.80859375 429.4336242675781 299.1728210449219 429.5750732421875 294.3309326171875 429.37713623046875 C 287.6307678222656 428.5444030761719 284.1820983886719 427.6142272949219 280.4380187988281 426.5661315917969 C 278.5753479003906 433.9369812011719 277.1224365234375 440.7555847167969 274.9554443359375 447.71539306640625 C 272.4017028808594 455.1916809082031 267.331298828125 460.6911315917969 265.0126037597656 462.94720458984375 C 262.1212158203125 461.1832275390625 261.4294128417969 464.1842041015625 257.2803039550781 463.62017822265625 C 250.5242919921875 460.340576171875 245.87619018554688 457.47100830078125 242.95379638671875 456.6531677246094 C 243.5318603515625 455.4357604980469 244.10499572753906 454.34283447265625 245.54754638671875 452.0409851074219 C 246.5902862548828 450.3246765136719 248.68426513671875 447.7066345214844 248.98252868652344 447.20849609375 C 249.9188995361328 445.4916687011719 252.1262969970703 436.2352600097656 254.64381408691406 429.3566589355469 C 257.0224914550781 422.07977294921875 258.7738037109375 415.89190673828125 261.26129150390625 408.5334777832031 C 263.7824401855469 403.8467712402344 265.1061096191406 406.61376953125 265.6647033691406 403.1869201660156 C 266.60772705078125 399.2165832519531 267.12255859375 394.4587097167969 268.2813720703125 389.8993225097656 C 270.2853698730469 385.2141418457031 272.46539306640625 379.5474548339844 274.1800231933594 375.68499755859375 C 276.9448547363281 371.5970458984375 278.66314697265625 367.99993896484375 280.54510498046875 365.1353454589844 C 282.29144287109375 361.1265563964844 283.3067932128906 359.1667785644531 283.9060363769531 357.4985656738281 C 284.1548767089844 356.60760498046875 284.8868103027344 353.161865234375 285.513427734375 350.417236328125 C 289.3620300292969 350.8278503417969 291.61865234375 349.95062255859375 291.5755615234375 347.8194885253906 C 293.65234375 346.95318603515625 295.5986633300781 347.0047912597656 298.2846374511719 341.4248962402344 C 298.65216064453125 341.3406677246094 299.6317138671875 341.1806335449219 303.3371276855469 339.3960266113281 C 307.8582763671875 338.9473571777344 311.4382629394531 339.1561584472656 313.5712585449219 339.07183837890625 C 313.59991455078125 339.28839111328125 318.0924377441406 340.1903381347656 320.6383361816406 342.43182373046875 C 319.9914855957031 344.7138366699219 322.04351806640625 345.8616638183594 324.7086181640625 345.5799255371094 C 326.0114440917969 347.71112060546875 327.0939636230469 349.6435852050781 328.4525451660156 351.6603088378906 C 329.52947998046875 353.2853698730469 330.4719543457031 354.71905517578125 331.4622802734375 356.5752868652344 C 332.8116455078125 359.06243896484375 334.2562561035156 361.542236328125 335.5060729980469 364.0874328613281 C 337.41522216796875 367.0080871582031 338.5382995605469 369.6031494140625 339.2503662109375 371.4715576171875 C 340.0330810546875 373.7132568359375 340.8056335449219 376.1425476074219 341.45745849609375 378.7945251464844 C 342.48590087890625 381.3905334472656 343.2801818847656 384.429443359375 343.71197509765625 386.62078857421875 C 344.7538757324219 389.9237976074219 345.35382080078125 391.4894714355469 346.4217529296875 395.43536376953125 C 347.5953063964844 399.222900390625 348.1444091796875 403.63677978515625 348.1770324707031 408.2525634765625 C 348.056396484375 411.928466796875 350.66400146484375 408.3511962890625 351.9231262207031 412.0249938964844 C 352.7890930175781 414.5547790527344 353.5550537109375 417.6575012207031 354.3815002441406 420.5679016113281 C 354.980224609375 423.0464172363281 355.31646728515625 425.2558898925781 356.8615417480469 429.9895324707031 C 357.6474609375 432.62518310546875 358.3875732421875 435.5834045410156 358.9064025878906 441.02996826171875 C 360.0142517089844 444.6127014160156 360.5644226074219 446.5097961425781 361.529541015625 449.5737609863281 C 359.9505310058594 449.5265197753906 360.41705322265625 451.2251892089844 361.13385009765625 451.3964538574219 C 358.0846252441406 454.96044921875 360.5263977050781 455.57928466796875 362.0089111328125 455.8460998535156 C 360.4410705566406 461.08343505859375 355.0639953613281 463.4078369140625 350.0325927734375 464.0862121582031 C 347.16290283203125 464.1207275390625 341.7724609375 462.4645080566406 337.89471435546875 461.7894592285156M 317.32965087890625 381.7220764160156 C 316.53839111328125 379.6271667480469 315.6146545410156 377.0872802734375 314.2535400390625 373.9052429199219 C 313.2061767578125 370.96258544921875 311.8198547363281 368.0291748046875 310.4440612792969 365.1842041015625 C 309.305419921875 362.552001953125 308.35137939453125 360.36846923828125 307.6882629394531 358.7899169921875 C 307.7348327636719 360.4923400878906 307.52740478515625 362.88690185546875 307.07147216796875 365.85809326171875 C 306.22003173828125 368.62579345703125 305.4733581542969 371.92071533203125 304.75177001953125 374.8467102050781 C 303.9004211425781 377.54339599609375 303.12066650390625 380.0673522949219 302.5291442871094 381.46954345703125 C 300.6836853027344 385.88763427734375 300.1685485839844 387.4212951660156 298.486328125 391.7763366699219 C 297.09722900390625 395.6317138671875 295.9675598144531 398.9455261230469 294.8840637207031 401.9337463378906 C 298.8434753417969 402.5749206542969 303.11492919921875 402.7277526855469 308.3213806152344 402.3357849121094 C 314.3072204589844 402.0724792480469 319.1790466308594 402.40966796875 323.7002258300781 402.6890563964844 C 323.0217590332031 398.9968566894531 321.82958984375 395.0350646972656 320.8448791503906 390.79559326171875 C 320.06585693359375 388.3930358886719 318.7720642089844 384.832763671875 317.32965087890625 381.7220764160156"/>
    <path stroke-width="0" fill="rgb(0, 0, 0)" opacity="1.0" d="M 426.7313232421875 351.8679504394531 C 422.4085693359375 351.20733642578125 417.1177062988281 351.0042419433594 413.61029052734375 352.2732238769531 C 408.32666015625 354.115966796875 404.0612487792969 356.86016845703125 401.2359924316406 360.0364990234375 C 398.3652038574219 363.9017333984375 395.49652099609375 369.18212890625 394.2838134765625 374.11407470703125 C 393.81524658203125 378.4794616699219 394.1844482421875 381.4318542480469 396.6055603027344 387.94390869140625 C 398.74420166015625 393.96221923828125 400.7792053222656 398.0434265136719 402.4742431640625 400.9480895996094 C 404.2915954589844 404.0736083984375 407.1111145019531 407.8985290527344 409.5435791015625 410.9145202636719 C 413.50006103515625 416.39520263671875 418.54034423828125 421.9808044433594 423.2205505371094 426.5461730957031 C 425.2496643066406 428.7693176269531 427.35198974609375 430.84539794921875 430.5345458984375 433.0937805175781 C 432.89813232421875 434.9237976074219 435.10699462890625 435.7572021484375 437.5455322265625 436.43646240234375 C 440.7372741699219 437.43853759765625 444.7880554199219 437.960693359375 448.9563293457031 436.7505187988281 C 451.75994873046875 435.7287902832031 453.8421325683594 435.12554931640625 455.85968017578125 434.52508544921875 C 459.4384765625 433.1434326171875 461.92535400390625 431.72772216796875 464.2682189941406 430.23724365234375 C 464.9119567871094 433.6658630371094 465.62994384765625 438.534912109375 466.8419189453125 443.3390808105469 C 467.776123046875 446.8001403808594 467.2261657714844 451.8591613769531 467.4217834472656 456.2629699707031 C 464.5638732910156 457.5001525878906 461.5389709472656 458.7813720703125 459.1166687011719 459.6077880859375 C 456.1987609863281 460.7555236816406 451.0624084472656 461.4339294433594 448.2778625488281 461.74359130859375 C 444.98272705078125 461.76458740234375 441.5340576171875 462.1563720703125 437.50628662109375 461.4317626953125 C 434.55572509765625 461.05218505859375 430.3035888671875 459.9075927734375 427.1739807128906 459.0155944824219 C 424.17669677734375 457.3050537109375 421.6519470214844 456.1114196777344 418.9986572265625 454.58636474609375 C 416.52557373046875 452.90582275390625 413.1133728027344 451.37994384765625 411.6104736328125 450.1962585449219 C 408.26123046875 447.0711364746094 404.2138671875 444.473876953125 401.6492614746094 442.1435241699219 C 398.2918701171875 438.463623046875 396.818603515625 436.9776916503906 393.9847106933594 434.1659851074219 C 392.1305847167969 432.3410339355469 390.7008056640625 430.6034851074219 388.2032470703125 426.25604248046875 C 385.72784423828125 423.1900329589844 383.4758605957031 419.5718688964844 381.0613098144531 415.2225341796875 C 378.7940979003906 412.2633972167969 377.37982177734375 409.78887939453125 376.1828308105469 406.34722900390625 C 374.9295654296875 402.5057678222656 374.2727355957031 398.61236572265625 373.6125793457031 395.4359130859375 C 372.0046691894531 391.2175598144531 371.34149169921875 386.5419616699219 371.13348388671875 382.29852294921875 C 371.02349853515625 377.51593017578125 371.3291320800781 373.7556457519531 372.3686828613281 369.25848388671875 C 373.8215026855469 364.369873046875 375.3522644042969 360.25201416015625 377.14617919921875 356.9111022949219 C 378.32867431640625 353.77374267578125 381.0519714355469 350.4606018066406 384.2824401855469 347.6831970214844 C 386.5190734863281 344.0447082519531 388.7804870605469 341.838623046875 390.7119445800781 340.48175048828125 C 395.16632080078125 338.2666320800781 398.7169494628906 335.2925109863281 401.6728515625 333.91851806640625 C 406.8713684082031 331.916015625 412.3533630371094 329.9934387207031 417.2973327636719 330.3702087402344 C 421.0516052246094 330.1552734375 425.3626708984375 329.7498474121094 432.90625 330.3675842285156 C 438.76751708984375 331.4134216308594 443.1195068359375 333.528564453125 447.0338134765625 336.4447021484375 C 450.3943176269531 339.8065490722656 453.1515197753906 342.74554443359375 456.3379211425781 346.1767272949219 C 459.1380615234375 348.9933776855469 461.2492980957031 350.7949523925781 462.9795227050781 352.2085266113281 C 464.73590087890625 353.52874755859375 467.7275390625 356.3388671875 470.6222839355469 358.8504638671875 C 467.7767028808594 363.28826904296875 465.25750732421875 366.30059814453125 462.3837890625 369.2490234375 C 461.02032470703125 370.663818359375 458.00537109375 374.59576416015625 454.6876220703125 379.0521545410156 C 447.93463134765625 374.1104736328125 443.0584716796875 369.65191650390625 438.79833984375 362.9428405761719 C 435.4462890625 356.90899658203125 431.967041015625 353.6143493652344 426.7313232421875 351.8679504394531"/>
    <path stroke-width="0" fill="rgb(0, 0, 0)" opacity="1.0" d="M 546.9110717773438 457.47943115234375 C 544.1898803710938 457.2662353515625 539.71240234375 457.37823486328125 537.0994262695312 456.97406005859375 C 533.3641967773438 456.76910400390625 530.9596557617188 456.2695007324219 537.6727905273438 457.9573059082031 C 535.2680053710938 457.2421569824219 532.7138061523438 456.69622802734375 535.7978515625 456.8782653808594 C 532.02099609375 457.1480407714844 526.4476928710938 457.7575378417969 527.0884399414062 457.7504577636719 C 521.1640014648438 457.7027282714844 515.8231811523438 456.5270080566406 509.7449951171875 455.9746398925781 C 513.6250610351562 456.8968200683594 508.013916015625 457.1263122558594 504.9195251464844 457.4748229980469 C 502.60699462890625 457.6520690917969 502.65679931640625 454.3504333496094 501.5943908691406 449.4575500488281 C 501.0136413574219 448.3469543457031 498.5357360839844 448.6896667480469 495.4588317871094 449.52423095703125 C 494.6917419433594 447.1881408691406 494.2847595214844 444.138916015625 490.0353698730469 445.9565734863281 C 488.8682556152344 441.6660461425781 488.684326171875 440.6633605957031 489.0051574707031 438.6158447265625 C 488.8634948730469 436.871337890625 488.7623291015625 434.2691955566406 488.80853271484375 431.33123779296875 C 489.0233154296875 433.38623046875 487.8323059082031 429.94122314453125 488.51031494140625 431.3990783691406 C 488.0308837890625 429.69183349609375 489.7497253417969 433.16351318359375 486.8791809082031 429.2203063964844 C 486.8962707519531 421.883056640625 486.9813537597656 419.7120056152344 487.0412902832031 416.5410461425781 C 487.420166015625 421.5830993652344 486.6596374511719 417.6712951660156 486.8716125488281 412.24346923828125 C 486.80535888671875 409.28533935546875 486.7058410644531 406.51934814453125 486.5609130859375 404.7555236816406 C 486.4676513671875 403.4503173828125 485.27203369140625 393.95135498046875 487.7083740234375 398.1863708496094 C 487.10394287109375 391.51239013671875 487.25762939453125 387.8900451660156 487.70428466796875 382.76373291015625 C 487.7421569824219 380.7210998535156 487.73492431640625 374.93023681640625 487.4774169921875 370.2519836425781 C 488.0151062011719 366.84130859375 487.9795227050781 363.97760009765625 488.4075012207031 361.77813720703125 C 489.3000793457031 358.2029113769531 489.1583557128906 363.00634765625 489.5259094238281 359.6213684082031 C 489.1346130371094 354.21588134765625 489.2046203613281 351.4903869628906 489.1882629394531 348.30841064453125 C 493.6957092285156 348.7826232910156 493.6161804199219 345.7091979980469 493.929443359375 342.9163513183594 C 494.24993896484375 340.1634521484375 494.8293762207031 337.58990478515625 495.45465087890625 335.6321105957031 C 497.6912536621094 336.3631591796875 499.4651184082031 336.5736083984375 501.850830078125 336.49212646484375 C 505.3270263671875 336.6009826660156 505.3508605957031 333.3040771484375 506.3485412597656 333.5194091796875 C 509.3680114746094 333.2728271484375 512.7317504882812 333.4206237792969 513.9199829101562 333.52294921875 C 518.8329467773438 333.89031982421875 523.832763671875 333.93878173828125 528.7504272460938 334.6266174316406 C 531.2433471679688 335.3751525878906 522.7318115234375 335.4324951171875 525.023681640625 335.4830627441406 C 529.9951171875 334.94244384765625 534.269287109375 334.084228515625 537.833984375 333.2250061035156 C 542.1207275390625 332.6893615722656 548.9605712890625 334.0470886230469 547.7483520507812 338.20770263671875 C 551.8831787109375 339.0577392578125 553.0042114257812 340.64202880859375 555.1729736328125 342.5119323730469 C 554.0125732421875 343.6006164550781 552.1287841796875 345.3472900390625 550.905517578125 346.1584777832031 C 554.89794921875 350.0242614746094 557.6461791992188 350.17010498046875 560.1167602539062 350.20001220703125 C 558.8388671875 350.03851318359375 558.3908081054688 352.2548828125 558.1582641601562 353.8431701660156 C 553.8959350585938 354.46624755859375 554.116455078125 357.4420166015625 553.998779296875 359.9043273925781 C 549.6173095703125 359.8106994628906 547.2285766601562 358.86895751953125 547.028076171875 359.1296081542969 C 543.4627685546875 358.2845458984375 545.5997924804688 358.8372802734375 538.8096923828125 360.1970520019531 C 533.1248168945312 361.1950988769531 526.064697265625 360.6566162109375 523.9521484375 360.8448181152344 C 526.5906982421875 361.2144775390625 524.504638671875 360.8138732910156 522.2249145507812 360.4876403808594 C 520.9681396484375 360.2032470703125 519.3475952148438 359.91766357421875 514.7448120117188 358.8618469238281 C 513.8916625976562 364.3240661621094 513.7149658203125 366.4274597167969 514.547119140625 363.84442138671875 C 514.4581909179688 365.2959289550781 514.3084716796875 367.7071838378906 514.0828857421875 369.6435852050781 C 513.2194213867188 373.4112548828125 512.7156372070312 369.9779968261719 512.64697265625 374.2960510253906 C 512.48046875 377.67852783203125 512.9253540039062 382.6194152832031 512.4159545898438 388.961669921875 C 518.802734375 389.1212158203125 520.27783203125 389.31256103515625 524.7258911132812 389.7308654785156 C 526.8970336914062 389.82037353515625 531.1378784179688 389.6700439453125 533.9657592773438 389.35833740234375 C 538.2276000976562 388.5475158691406 541.8255004882812 388.0005187988281 548.6917114257812 387.0779113769531 C 550.01953125 391.55194091796875 551.4985961914062 390.557861328125 552.7630615234375 389.375 C 553.0918579101562 389.95318603515625 554.2230224609375 390.7092590332031 555.2528076171875 392.0165100097656 C 556.3129272460938 393.5958251953125 556.2234497070312 395.176513671875 556.3388061523438 396.873291015625 C 555.4761962890625 397.2323913574219 556.376953125 400.05975341796875 556.3736572265625 401.1485290527344 C 555.166748046875 401.1846618652344 555.999755859375 402.6417541503906 557.5491333007812 404.74041748046875 C 552.5599975585938 408.9524841308594 546.5543212890625 411.3748474121094 546.7676391601562 413.407470703125 C 546.7356567382812 413.87860107421875 543.1666870117188 414.21746826171875 537.0399780273438 415.5767517089844 C 531.2853393554688 415.947265625 526.9188842773438 415.68890380859375 521.7821655273438 415.3449401855469 C 518.5502319335938 414.8807067871094 513.6890258789062 413.2453918457031 511.5206298828125 412.59100341796875 C 511.9747009277344 414.94818115234375 512.5162353515625 416.5865783691406 512.5580444335938 418.15936279296875 C 512.7652587890625 420.0479736328125 512.746826171875 421.3451232910156 511.0 416.7794189453125 C 513.5350952148438 421.02301025390625 514.0489501953125 423.5777282714844 513.3731079101562 421.8011169433594 C 514.1229858398438 424.8628845214844 515.5982666015625 429.73065185546875 515.5623168945312 432.1085510253906 C 521.5708618164062 432.47613525390625 518.0105590820312 433.0418701171875 521.6484985351562 432.7373352050781 C 524.0689086914062 432.4728088378906 526.1574096679688 432.1478271484375 528.2194213867188 432.3564453125 C 532.515625 432.1021423339844 536.1132202148438 431.85552978515625 539.302001953125 432.0195007324219 C 542.7678833007812 432.6535339355469 535.8797607421875 430.7372741699219 540.0728759765625 431.4766845703125 C 544.4609375 432.8868713378906 547.9855346679688 435.5809631347656 550.9885864257812 438.01416015625 C 549.9274291992188 439.38751220703125 548.8701782226562 440.8976135253906 547.5569458007812 442.6322021484375 C 546.7601928710938 443.8058166503906 549.3658447265625 445.4015808105469 548.92626953125 447.2532653808594 C 548.6761474609375 448.19342041015625 548.0392456054688 450.302978515625 547.443115234375 452.3068542480469 C 547.20947265625 453.45361328125 547.0217895507812 455.76837158203125 546.9110717773438 457.47943115234375"/>
    <path stroke-width="0" fill="rgb(0, 0, 0)" opacity="1.0" d="M 66.5615005493164 265.3285217285156 C 64.84823608398438 264.44964599609375 63.37876892089844 263.4996643066406 61.35089111328125 261.97393798828125 C 59.393646240234375 260.4721374511719 57.7628288269043 258.83563232421875 56.26288986206055 256.9245300292969 C 54.683937072753906 253.964111328125 53.310997009277344 248.82981872558594 52.80180740356445 244.47959899902344 C 52.83260726928711 241.57913208007812 52.54915237426758 242.8167724609375 52.656490325927734 239.20547485351562 C 53.42363357543945 234.29519653320312 55.41450881958008 228.1160888671875 59.48688507080078 223.1104278564453 C 61.135337829589844 219.77078247070312 64.05579376220703 215.89620971679688 69.0647201538086 212.03855895996094 C 73.32511138916016 209.00274658203125 79.15642547607422 206.58590698242188 84.84647369384766 205.69223022460938 C 91.17760467529297 205.23699951171875 95.49761199951172 205.77227783203125 99.56397247314453 206.1461944580078 C 102.6791763305664 206.80140686035156 105.5069808959961 207.76718139648438 108.71320343017578 209.25442504882812 C 105.42728424072266 216.84532165527344 104.49897003173828 222.55743408203125 98.42344665527344 228.00372314453125 C 97.69780731201172 227.08624267578125 96.57907104492188 226.18423461914062 94.97871398925781 224.8479461669922 C 94.23153686523438 226.33770751953125 93.0323257446289 229.50881958007812 92.04344177246094 229.60752868652344 C 89.22418212890625 229.69430541992188 88.30975341796875 229.9485321044922 86.2328872680664 231.35916137695312 C 85.30704498291016 232.0889892578125 82.87028503417969 234.57015991210938 81.19422912597656 236.98236083984375 C 79.20597839355469 240.864990234375 79.05767059326172 241.36001586914062 79.08033752441406 244.06863403320312 C 78.47061920166016 246.6424560546875 78.413330078125 246.962890625 80.5270004272461 249.96839904785156 C 81.13134765625 251.0713653564453 81.84268951416016 251.74441528320312 85.17618560791016 253.2521514892578 C 87.92997741699219 254.64846801757812 91.80521392822266 255.75555419921875 99.26708221435547 257.4870300292969 C 85.34180450439453 260.30450439453125 75.6474609375 262.75457763671875 66.5615005493164 265.3285217285156M 63.82664108276367 266.8593444824219 C 68.55419921875 277.19580078125 65.55493927001953 269.8753356933594 58.0046272277832 274.4756164550781 C 60.73609924316406 275.6874084472656 56.210880279541016 276.5658264160156 53.3846435546875 255.26463317871094 C 71.61227416992188 262.0702209472656 78.91544342041016 260.0032958984375 87.44745635986328 256.3590087890625 C 88.40428924560547 257.2060241699219 98.25540924072266 265.4427795410156 98.01190185546875 268.938720703125 C 114.69644927978516 265.9984436035156 126.36579895019531 266.2240905761719 121.56397247314453 282.4484558105469 C 113.15154266357422 279.0245666503906 113.62676239013672 283.7021179199219 109.6385498046875 284.0691833496094 C 91.28983306884766 291.47784423828125 75.50122833251953 288.2548522949219 79.6108627319336 284.0271301269531 C 91.04566192626953 287.3963317871094 79.57081604003906 292.26739501953125 62.29066467285156 276.159912109375 C 53.49369812011719 280.52215576171875 59.638309478759766 273.31390380859375 63.82664108276367 266.8593444824219"/>
    <path stroke-width="0" fill="rgb(0, 0, 0)" opacity="1.0" d="M 182.35885620117188 281.7269592285156 C 169.89144897460938 284.3270263671875 161.64468383789062 283.77764892578125 156.27882385253906 282.36834716796875 C 150.53256225585938 282.0193176269531 145.7419891357422 278.75372314453125 142.7635498046875 275.09979248046875 C 140.37998962402344 272.2844543457031 137.68186950683594 267.83636474609375 135.7272186279297 260.57647705078125 C 116.3982925415039 233.68927001953125 115.06866455078125 196.62631225585938 145.7967071533203 167.9832305908203 C 147.3003387451172 169.4574432373047 158.46482849121094 174.85293579101562 175.46881103515625 187.08267211914062 C 149.06028747558594 208.65805053710938 142.56251525878906 222.81907653808594 148.15492248535156 238.687744140625 C 150.8677215576172 241.69113159179688 154.27447509765625 245.0603485107422 160.6644744873047 249.24005126953125 C 165.0260772705078 253.74209594726562 167.3620147705078 255.30447387695312 170.3613739013672 255.8527374267578 C 172.09091186523438 256.58074951171875 177.5437469482422 256.5814514160156 182.79905700683594 257.05535888671875 C 186.96339416503906 256.88580322265625 190.1976318359375 257.7960510253906 192.3606719970703 260.042236328125 C 194.2849884033203 261.9634704589844 195.46482849121094 264.53778076171875 195.80258178710938 267.4619445800781 C 196.42098999023438 271.0977783203125 195.4698486328125 274.3194274902344 193.65765380859375 276.5692138671875 C 191.88426208496094 278.96197509765625 189.19252014160156 280.5864562988281 182.35885620117188 281.7269592285156"/>
    <path stroke-width="0" fill="rgb(0, 0, 0)" opacity="1.0" d="M 355.5284118652344 288.2163391113281 C 345.5442199707031 289.8365478515625 337.2900085449219 289.7398376464844 329.094482421875 286.7143859863281 C 321.1494445800781 282.3369140625 316.5903625488281 279.5263366699219 312.40118408203125 275.8505859375 C 309.5519104003906 279.0888671875 318.59722900390625 270.12823486328125 316.1484375 266.6802978515625 C 317.4859313964844 263.20819091796875 320.9427490234375 255.01585388183594 322.9544677734375 246.04473876953125 C 337.71160888671875 252.5007781982422 342.33319091796875 257.3929443359375 331.29803466796875 253.50022888183594 C 337.28131103515625 253.49571228027344 343.04522705078125 252.96014404296875 351.6990661621094 251.78013610839844 C 358.21148681640625 250.45396423339844 363.04534912109375 251.35035705566406 366.18536376953125 254.0252227783203 C 369.5880126953125 256.8061218261719 371.3977966308594 260.21929931640625 372.29327392578125 264.7169494628906 C 373.3486022949219 268.3599853515625 373.28057861328125 272.24884033203125 371.4273986816406 276.66204833984375 C 369.41973876953125 281.3387145996094 364.7993469238281 285.3385314941406 355.5284118652344 288.2163391113281M 265.3730163574219 289.1716003417969 C 264.475830078125 289.1721496582031 249.9530792236328 282.1532897949219 244.02035522460938 276.36822509765625 C 239.9651641845703 281.7753601074219 226.3789825439453 285.19183349609375 221.49429321289062 288.428955078125 C 209.38406372070312 292.3641662597656 197.7683563232422 290.0767517089844 196.946044921875 280.0868225097656 C 204.41378784179688 284.075439453125 200.83236694335938 279.31158447265625 205.10426330566406 273.5326843261719 C 215.45574951171875 268.0940246582031 217.02720642089844 267.2572937011719 228.07687377929688 275.912109375 C 225.4909210205078 280.96624755859375 220.19091796875 281.9808654785156 226.01040649414062 280.6129150390625 C 217.8313446044922 292.47998046875 192.9096221923828 289.5760803222656 191.21258544921875 275.3967590332031 C 204.423583984375 293.1875305175781 194.84698486328125 284.5815734863281 187.1547393798828 281.494140625 C 186.100341796875 272.892333984375 185.5257110595703 264.86273193359375 185.00302124023438 257.00201416015625 C 185.95205688476562 266.2608642578125 188.65155029296875 259.0837707519531 182.0843505859375 261.060302734375 C 202.16131591796875 252.7860107421875 198.22589111328125 251.1811981201172 200.68603515625 241.0362548828125 C 203.3072052001953 238.58779907226562 197.06393432617188 239.85548400878906 200.2157440185547 242.3241424560547 C 200.16513061523438 246.0334930419922 210.77981567382812 246.29193115234375 198.76934814453125 246.4717254638672 C 206.14260864257812 253.16123962402344 215.6178741455078 243.83609008789062 230.42254638671875 246.41419982910156 C 235.3811492919922 246.48777770996094 229.0538787841797 249.6700439453125 228.58790588378906 241.5924835205078 C 234.17425537109375 233.5234832763672 238.1300811767578 244.80247497558594 235.63035583496094 237.25515747070312 C 229.7522430419922 245.22314453125 229.47671508789062 257.76641845703125 206.57850646972656 247.9192657470703 C 207.53468322753906 236.97866821289062 217.41232299804688 250.2513427734375 211.3931884765625 233.48983764648438 C 224.95579528808594 234.3981475830078 239.00706481933594 247.5934600830078 248.52523803710938 252.432861328125 C 239.0108184814453 247.12147521972656 253.27085876464844 251.5086212158203 261.2405090332031 254.892333984375 C 256.1972351074219 265.97381591796875 263.09747314453125 265.09088134765625 247.15121459960938 252.05613708496094 C 264.0764465332031 250.8933563232422 269.7994689941406 254.36257934570312 303.3661804199219 246.82081604003906 C 308.0536804199219 251.56529235839844 307.00799560546875 248.89556884765625 313.5680847167969 248.67205810546875 C 324.1526184082031 256.0127868652344 328.82220458984375 263.1474609375 327.3509521484375 266.81781005859375 C 322.0959777832031 255.85401916503906 330.13250732421875 265.7325744628906 318.1205749511719 258.6387023925781 C 313.1269836425781 250.24903869628906 298.2679443359375 244.9696044921875 314.28619384765625 242.68264770507812 C 313.87237548828125 258.81689453125 298.641357421875 259.9909362792969 290.46075439453125 250.6290283203125 C 301.8321228027344 233.43228149414062 317.02294921875 236.49014282226562 313.1629333496094 250.03700256347656 C 310.78472900390625 250.53121948242188 303.2364196777344 251.3532257080078 297.9068908691406 253.4670867919922 C 296.0478210449219 241.58084106445312 299.49383544921875 239.3643035888672 303.4059753417969 253.32363891601562 C 286.9712219238281 256.8997802734375 282.1730651855469 260.7223205566406 281.1004943847656 266.1983337402344 C 273.8419189453125 266.7086181640625 268.2762756347656 265.82843017578125 263.0132751464844 269.5381164550781 C 253.33070373535156 265.04803466796875 246.6785125732422 266.927734375 234.1070556640625 263.1556701660156 C 243.68301391601562 261.7505798339844 247.73362731933594 254.4760284423828 254.4807586669922 253.64434814453125 C 264.2281799316406 246.47019958496094 278.3883972167969 250.2557373046875 275.36151123046875 236.03829956054688 C 290.9183349609375 241.54702758789062 291.1131286621094 229.2053680419922 292.89703369140625 222.0131378173828 C 296.68817138671875 231.5373077392578 297.9945068359375 228.6769256591797 310.1690368652344 221.28237915039062 C 310.33941650390625 218.23719787597656 314.07830810546875 230.0684356689453 316.86669921875 234.12669372558594 C 315.68646240234375 237.2134552001953 334.74981689453125 240.513671875 323.0931091308594 235.5948028564453 C 324.40643310546875 249.19541931152344 330.966064453125 255.42755126953125 336.0810241699219 259.5459899902344 C 350.08966064453125 280.866455078125 332.5076599121094 257.7223815917969 328.3994140625 267.21527099609375 C 322.903076171875 273.4214782714844 322.02032470703125 271.2925109863281 303.82366943359375 287.20965576171875 C 294.7825012207031 294.01995849609375 273.6978454589844 292.310546875 265.3730163574219 289.1716003417969M 310.55181884765625 162.3819580078125 C 320.8457946777344 175.38702392578125 323.8629455566406 178.32200622558594 325.35528564453125 182.2855224609375 C 322.9232482910156 183.8932342529297 316.9706726074219 176.27725219726562 310.2161865234375 174.17214965820312 C 299.6112060546875 171.5809326171875 308.78546142578125 166.3709716796875 285.4343566894531 173.78134155273438 C 277.6356506347656 159.86825561523438 277.2948913574219 159.37429809570312 301.00164794921875 154.5716094970703 C 318.3231201171875 154.22454833984375 321.7329406738281 160.15174865722656 328.6706237792969 166.18296813964844 C 340.71820068359375 172.1891632080078 354.71630859375 196.21957397460938 330.07745361328125 198.13681030273438 C 317.7896423339844 174.3085174560547 324.3403625488281 179.86036682128906 311.8238830566406 171.8796844482422 C 309.9334716796875 172.99844360351562 298.88214111328125 162.72613525390625 310.55181884765625 162.3819580078125"/>
    <path stroke-width="0" fill="rgb(0, 0, 0)" opacity="1.0" d="M 360.4414978027344 287.0318603515625 C 357.1603088378906 274.9667663574219 355.3143005371094 262.5129089355469 353.5381774902344 251.1290740966797 C 363.2765197753906 249.49847412109375 372.5184020996094 247.8325958251953 379.8197937011719 247.25912475585938 C 385.59637451171875 246.89413452148438 392.96331787109375 249.87423706054688 397.73486328125 252.07525634765625 C 398.7575988769531 252.394775390625 400.4334411621094 252.6749267578125 404.5983581542969 252.7234344482422 C 406.0564270019531 253.004638671875 400.93988037109375 253.9772186279297 402.6182861328125 253.09535217285156 C 406.3876647949219 251.34202575683594 408.71185302734375 250.11236572265625 410.8551025390625 249.80543518066406 C 411.9587097167969 248.29122924804688 413.0313415527344 246.74212646484375 413.4322814941406 244.9181365966797 C 413.6757507324219 243.39413452148438 413.8287658691406 241.321533203125 413.3096618652344 238.807861328125 C 412.2977600097656 234.64100646972656 410.5948791503906 231.70147705078125 407.6990661621094 229.3567657470703 C 404.0389099121094 225.5930938720703 402.8053894042969 224.39134216308594 400.2325744628906 221.28469848632812 C 396.06536865234375 214.15158081054688 394.373779296875 212.24464416503906 390.6629638671875 210.57919311523438 C 389.4729309082031 210.02845764160156 387.8970031738281 209.96754455566406 387.2761535644531 210.581787109375 C 396.646240234375 200.2439727783203 396.4692077636719 201.54013061523438 401.0890197753906 209.60142517089844 C 401.3023681640625 216.4388885498047 402.2206115722656 223.4081268310547 403.1896057128906 231.46493530273438 C 401.94195556640625 236.66566467285156 400.6203918457031 242.8058319091797 392.10223388671875 228.78952026367188 C 392.55145263671875 229.13035583496094 394.0382995605469 229.89706420898438 395.4503479003906 230.25363159179688 C 399.23248291015625 231.19955444335938 404.6054992675781 231.51646423339844 404.63201904296875 234.226318359375 C 406.5864562988281 234.0841522216797 408.07159423828125 233.8323211669922 410.270263671875 233.52406311035156 C 411.4041748046875 232.908935546875 412.80987548828125 231.7374725341797 414.8973083496094 229.83004760742188 C 416.1274108886719 235.62551879882812 416.965087890625 241.09437561035156 416.68798828125 246.00750732421875 C 415.4039001464844 246.8289337158203 414.1300964355469 247.47061157226562 412.4514465332031 248.12100219726562 C 408.6420593261719 248.94903564453125 406.3863830566406 252.5218048095703 406.02587890625 254.64598083496094 C 404.4895935058594 254.98037719726562 402.5118103027344 255.64378356933594 397.6335754394531 256.60809326171875 C 390.6338195800781 258.2746276855469 384.86273193359375 258.03497314453125 381.6161804199219 257.09991455078125 C 375.6732177734375 255.26942443847656 371.7057800292969 252.677734375 369.03326416015625 249.35679626464844 C 368.50128173828125 245.3743896484375 369.37060546875 240.45848083496094 377.5581359863281 230.71498107910156 C 378.76666259765625 227.43153381347656 379.4154357910156 225.84678649902344 380.2035827636719 221.5259552001953 C 380.4152526855469 213.78521728515625 379.8830261230469 210.0597381591797 361.26861572265625 194.56851196289062 C 362.87103271484375 189.5254364013672 364.4981994628906 185.56036376953125 384.2472229003906 182.41236877441406 C 392.0054626464844 180.09959411621094 399.4573669433594 181.46910095214844 405.32147216796875 184.183837890625 C 414.610595703125 186.52259826660156 420.5086975097656 190.90650939941406 423.753173828125 195.64373779296875 C 427.9195861816406 199.84979248046875 430.41656494140625 205.93453979492188 431.698974609375 209.18630981445312 C 435.3479919433594 220.4739532470703 438.0054626464844 227.3518524169922 439.6169128417969 236.0702362060547 C 438.032470703125 247.5022735595703 436.152587890625 255.59335327148438 432.1198425292969 260.8111877441406 C 429.2961730957031 265.60009765625 423.18505859375 270.3622741699219 420.0914001464844 271.880615234375 C 417.3299255371094 273.2078552246094 415.06298828125 273.9658203125 411.85284423828125 275.6776428222656 C 407.7149658203125 276.92193603515625 402.9537658691406 276.8456115722656 395.6535339355469 276.69378662109375 C 390.959228515625 276.1311340332031 384.9791564941406 272.822021484375 383.1340026855469 272.5791015625 C 379.895751953125 274.1603698730469 373.9703063964844 280.9102783203125 360.4414978027344 287.0318603515625M 400.27911376953125 155.499755859375 C 400.19873046875 162.42874145507812 395.28009033203125 163.18374633789062 391.3209533691406 156.7998504638672 C 386.4479064941406 148.38345336914062 379.9454345703125 148.6802978515625 389.5271301269531 150.37863159179688 C 398.4659729003906 152.02056884765625 394.5714416503906 157.21151733398438 386.5750732421875 153.05784606933594 C 390.52935791015625 144.31675720214844 392.068115234375 144.65159606933594 395.9150085449219 159.15322875976562 C 387.48876953125 153.24903869628906 391.99761962890625 155.28558349609375 402.0799255371094 154.2044677734375 C 405.6557922363281 150.4036407470703 398.50335693359375 157.70346069335938 398.8993835449219 154.64088439941406 C 405.64483642578125 149.26742553710938 403.94061279296875 158.96713256835938 411.0460205078125 157.18295288085938 C 390.43743896484375 153.80377197265625 395.0202331542969 160.16934204101562 400.27911376953125 155.499755859375"/>
  </g>
</svg>
