<?xml version="1.0" ?>
<svg xmlns="http://www.w3.org/2000/svg" version="1.1" width="600" height="600">
  <defs/>
  <g>
    <path stroke-width="0" fill="rgb(0, 0, 0)" opacity="1.0" d="M 131.56851196289062 419.59368896484375 C 131.47598266601562 425.9961242675781 129.8307342529297 429.48675537109375 129.3730926513672 430.4392395019531 C 128.15834045410156 433.6750183105469 126.86954498291016 435.68017578125 125.59990692138672 437.50146484375 C 123.6997299194336 440.94256591796875 122.4361343383789 442.3183288574219 121.30436706542969 443.3006896972656 C 119.82525634765625 445.0564880371094 118.75933837890625 446.3126525878906 116.67493438720703 448.8720397949219 C 113.5079116821289 452.4206237792969 109.6074447631836 455.5267028808594 105.72262573242188 458.4891662597656 C 102.08699798583984 461.04693603515625 96.70764923095703 463.1023864746094 100.22400665283203 460.8421325683594 C 95.64212036132812 462.90863037109375 90.55917358398438 463.5954895019531 85.80378723144531 463.6407470703125 C 80.67095947265625 463.3990478515625 76.85466003417969 462.6085205078125 73.20948791503906 461.03466796875 C 69.85509490966797 459.0740051269531 68.70974731445312 458.3970031738281 65.94792938232422 456.11767578125 C 63.05193328857422 453.72467041015625 61.91533279418945 452.8370361328125 59.323062896728516 450.480224609375 C 57.978275299072266 449.33563232421875 55.164031982421875 445.5806579589844 53.43061828613281 441.7652893066406 C 55.81977081298828 438.8946838378906 56.110591888427734 438.0736999511719 57.00566864013672 434.0262451171875 C 57.06587600708008 433.436279296875 56.12491226196289 430.5018615722656 54.08152389526367 426.4947509765625 C 58.15781784057617 426.3849182128906 62.0191764831543 426.58465576171875 66.84796905517578 427.6768798828125 C 70.96385955810547 429.9070129394531 74.44004821777344 432.195068359375 76.57583618164062 434.1520690917969 C 79.40880584716797 436.09326171875 81.42990112304688 437.8819885253906 82.81209564208984 438.80963134765625 C 84.5534896850586 440.1634826660156 85.41880798339844 440.4876403808594 88.99479675292969 440.6797790527344 C 89.4048843383789 440.545654296875 90.27911376953125 440.2786560058594 93.8259506225586 437.387939453125 C 97.16236877441406 434.9040222167969 99.20355224609375 432.2539367675781 101.52775573730469 428.66058349609375 C 102.88983154296875 425.8549499511719 104.26834869384766 422.9536437988281 107.3302001953125 416.69232177734375 C 107.91089630126953 414.74041748046875 108.09636688232422 412.1159973144531 105.77888488769531 406.6976013183594 C 104.93097686767578 405.45159912109375 101.85050964355469 402.9639587402344 99.50921630859375 401.94873046875 C 98.72505950927734 401.8018798828125 96.54679107666016 401.36181640625 99.41667175292969 401.58697509765625 C 96.54043579101562 402.2308349609375 93.13545989990234 403.40594482421875 89.55569458007812 404.54327392578125 C 83.4614486694336 405.9998779296875 79.3897933959961 405.4012145996094 74.66856384277344 404.4014587402344 C 70.01496124267578 403.3489990234375 64.71853637695312 400.8836364746094 60.05845260620117 397.0583190917969 C 55.834999084472656 393.79541015625 53.020729064941406 389.2969055175781 51.21550750732422 385.40338134765625 C 49.00765609741211 381.4718933105469 48.77397155761719 379.0473327636719 48.93463897705078 375.1787414550781 C 49.2592658996582 372.4681396484375 49.48322677612305 369.2149658203125 50.353919982910156 365.37335205078125 C 49.69643020629883 369.169189453125 50.025115966796875 365.84698486328125 50.8699951171875 363.0183410644531 C 52.083106994628906 357.7571716308594 54.99120330810547 353.7498779296875 56.64645004272461 352.4981689453125 C 59.15879821777344 348.9697570800781 61.84916305541992 346.7017517089844 64.86135864257812 345.2733154296875 C 67.5277328491211 343.9991760253906 70.82939147949219 342.6665954589844 73.27536010742188 341.9087829589844 C 75.87998962402344 341.2518005371094 79.1463394165039 340.50164794921875 83.5842056274414 340.088623046875 C 86.76412963867188 339.98443603515625 89.71519470214844 340.01898193359375 94.29425811767578 340.3863220214844 C 97.68710327148438 340.2729187011719 102.70411682128906 340.2102966308594 106.30399322509766 340.0535888671875 C 110.39825439453125 339.80963134765625 116.5518569946289 339.366455078125 121.21602630615234 338.7731018066406 C 127.0644302368164 339.1854248046875 131.1984405517578 339.57568359375 135.09158325195312 340.3945617675781 C 138.82958984375 342.6191101074219 142.880859375 345.37359619140625 145.85671997070312 347.460693359375 C 143.15414428710938 351.46002197265625 140.7191619873047 355.735107421875 139.61595153808594 357.864990234375 C 137.83920288085938 361.2023620605469 134.59158325195312 363.7740173339844 131.4488983154297 366.5885009765625 C 129.23495483398438 363.9893798828125 127.45960235595703 361.8103942871094 125.88117980957031 364.2111511230469 C 125.27349853515625 365.9430236816406 122.55175018310547 365.4939880371094 116.50102996826172 365.21807861328125 C 113.7834701538086 364.6201477050781 109.12308502197266 365.1950378417969 104.16212463378906 364.88018798828125 C 99.25556945800781 364.7138977050781 95.86683654785156 364.7564697265625 91.40947723388672 364.4755859375 C 86.15117645263672 363.1287841796875 83.15697479248047 362.8274230957031 84.41220092773438 362.9822692871094 C 81.06379699707031 363.48309326171875 79.30775451660156 364.1742248535156 76.9911117553711 366.2026672363281 C 75.93434143066406 367.0165100097656 75.16958618164062 368.2537536621094 75.06875610351562 371.0730285644531 C 74.19287872314453 373.63250732421875 74.56592559814453 375.51324462890625 77.97626495361328 378.55230712890625 C 80.57106018066406 380.6408386230469 81.88116455078125 381.1120300292969 79.03926849365234 381.7561340332031 C 81.51338958740234 381.35186767578125 85.0530776977539 380.2999267578125 88.83076477050781 379.4743347167969 C 93.01846313476562 378.7865905761719 99.1295166015625 377.9742736816406 102.22920227050781 378.6558837890625 C 107.57962799072266 379.9945983886719 111.88925170898438 381.9110412597656 115.6795654296875 384.18505859375 C 119.61837005615234 387.2685241699219 122.35870361328125 389.63848876953125 124.24768829345703 391.91021728515625 C 126.2865219116211 395.0704345703125 128.27813720703125 398.6891784667969 128.83404541015625 399.7588806152344 C 130.389404296875 402.6934509277344 131.4286651611328 405.3297424316406 131.67396545410156 406.35980224609375 C 132.19598388671875 410.4165954589844 132.52244567871094 412.5554504394531 132.4727783203125 415.67138671875 C 131.7022247314453 420.5281066894531 130.5565185546875 423.3952331542969 131.56851196289062 419.59368896484375"/>
    <path stroke-width="0" fill="rgb(0, 0, 0)" opacity="1.0" d="M 196.8458251953125 337.64886474609375 C 198.3993377685547 337.6580505371094 199.328125 337.7387390136719 202.25523376464844 337.6758728027344 C 203.07806396484375 337.7045593261719 205.7772216796875 338.3266906738281 207.8790283203125 338.77099609375 C 209.77413940429688 339.1131286621094 214.8720703125 342.3443908691406 216.0083770751953 343.02313232421875 C 216.81016540527344 343.3730773925781 217.624755859375 343.7594299316406 221.11752319335938 346.0736999511719 C 222.50416564941406 346.9458923339844 223.62342834472656 347.75390625 226.02838134765625 350.04486083984375 C 227.23789978027344 351.0926818847656 228.48500061035156 352.615234375 229.81224060058594 355.39727783203125 C 230.42596435546875 356.3542785644531 231.05946350097656 357.4835205078125 232.53074645996094 360.43243408203125 C 233.79840087890625 362.32330322265625 234.93365478515625 365.8183898925781 235.5167694091797 370.0830383300781 C 236.08279418945312 372.5623779296875 236.0036163330078 377.0606689453125 235.8493194580078 379.3155822753906 C 236.06289672851562 381.2135009765625 235.89321899414062 378.7262878417969 235.90447998046875 379.732421875 C 236.83084106445312 384.57440185546875 236.16773986816406 387.9914245605469 235.2902069091797 392.33331298828125 C 234.2154541015625 398.5443115234375 236.49078369140625 393.0980224609375 235.7828369140625 396.1295471191406 C 234.9510040283203 399.1681823730469 233.6285400390625 402.3113708496094 231.9283447265625 404.87939453125 C 229.4306182861328 408.2880554199219 228.4830780029297 409.1394958496094 228.1054229736328 409.57000732421875 C 226.41928100585938 412.0639953613281 224.45225524902344 413.98583984375 223.589111328125 414.49407958984375 C 220.13885498046875 417.5619812011719 214.2876739501953 421.4862976074219 209.70726013183594 423.43109130859375 C 205.79151916503906 424.461181640625 207.3265380859375 423.9289855957031 201.15139770507812 425.7145080566406 C 196.8440704345703 426.0439147949219 191.2943572998047 425.483154296875 187.43751525878906 424.89276123046875 C 184.03233337402344 423.5176696777344 182.10520935058594 422.9405212402344 179.84397888183594 422.4287109375 C 180.03851318359375 419.1404724121094 180.42007446289062 420.4278564453125 180.3108367919922 422.3556823730469 C 180.32212829589844 423.51788330078125 180.29586791992188 424.48956298828125 180.08314514160156 428.0617980957031 C 179.48919677734375 425.6205139160156 179.6221466064453 426.4461364746094 178.61878967285156 431.6291809082031 C 179.5045928955078 437.8791809082031 179.27413940429688 443.34564208984375 179.06396484375 444.9302673339844 C 177.08448791503906 438.1448669433594 177.30755615234375 439.5927734375 177.19427490234375 447.5618591308594 C 177.20852661132812 441.78143310546875 177.70249938964844 443.7922058105469 177.9314422607422 444.52996826171875 C 180.0704345703125 447.85211181640625 179.6672821044922 447.9450378417969 176.54344177246094 448.3299560546875 C 174.19180297851562 449.97723388671875 174.71224975585938 450.44415283203125 176.0317840576172 451.25347900390625 C 174.9596405029297 452.9617004394531 174.1058807373047 454.18304443359375 173.02597045898438 454.755859375 C 174.44471740722656 459.5934753417969 168.4657440185547 461.3006591796875 165.334716796875 461.9526672363281 C 161.767822265625 461.1690979003906 159.6958770751953 460.3171691894531 156.2075653076172 458.1318664550781 C 156.5767822265625 457.0548095703125 152.57069396972656 454.09222412109375 149.5595703125 452.5002746582031 C 151.64076232910156 449.55706787109375 152.90037536621094 447.65557861328125 153.14627075195312 447.2383728027344 C 153.67120361328125 445.7062072753906 151.71922302246094 445.2695007324219 150.1344451904297 445.16845703125 C 149.99278259277344 446.9201354980469 149.87255859375 446.53692626953125 151.972412109375 437.85833740234375 C 152.27247619628906 435.3696594238281 152.1479949951172 424.5004577636719 152.54347229003906 431.16571044921875 C 152.73451232910156 427.0121154785156 153.09085083007812 424.081787109375 153.7123260498047 419.5921325683594 C 154.26046752929688 425.59906005859375 153.99388122558594 421.325927734375 154.07827758789062 419.5763244628906 C 155.1374969482422 414.4089050292969 155.37149047851562 411.4026794433594 155.74102783203125 409.37823486328125 C 157.98800659179688 411.4126892089844 157.5543975830078 405.2720947265625 157.9427490234375 400.31695556640625 C 158.6333770751953 397.50115966796875 158.9705810546875 394.3520812988281 159.8845977783203 390.124267578125 C 160.163818359375 387.84576416015625 161.40469360351562 383.8173828125 162.5436553955078 381.39044189453125 C 161.72889709472656 384.7082214355469 162.16680908203125 382.4101867675781 163.25320434570312 375.987548828125 C 163.3201446533203 373.69659423828125 163.50213623046875 371.40216064453125 164.2984619140625 366.0018310546875 C 164.48695373535156 362.89056396484375 165.064453125 360.5758972167969 165.45230102539062 358.48455810546875 C 165.64356994628906 356.0494689941406 165.92263793945312 354.2552795410156 166.07110595703125 353.4673156738281 C 169.23910522460938 353.8661804199219 171.36672973632812 353.5144348144531 171.0997314453125 351.06170654296875 C 171.43338012695312 349.4490966796875 171.69325256347656 347.617919921875 171.82118225097656 345.845703125 C 174.4746551513672 346.0402526855469 177.49920654296875 346.3392333984375 177.92625427246094 343.92718505859375 C 181.00279235839844 343.90997314453125 181.67161560058594 337.5259094238281 182.2302703857422 337.62115478515625 C 185.00357055664062 337.8610534667969 186.6805419921875 337.82061767578125 190.02865600585938 337.82763671875 C 193.11279296875 337.84222412109375 194.5084991455078 337.78436279296875 196.8458251953125 337.64886474609375M 197.24267578125 361.8954772949219 C 196.19483947753906 361.95001220703125 195.35240173339844 362.0183410644531 193.1602020263672 361.8492736816406 C 191.998291015625 361.787353515625 190.12496948242188 361.6679382324219 188.6482391357422 361.6083984375 C 188.2792205810547 363.9091491699219 187.7320556640625 366.5680847167969 187.29132080078125 369.7961730957031 C 187.33265686035156 372.3078918457031 187.42440795898438 376.3664855957031 186.6993865966797 381.4067687988281 C 186.3281707763672 386.5390625 186.3665771484375 388.9096984863281 185.82484436035156 390.8235778808594 C 184.97360229492188 393.3160400390625 184.31167602539062 395.87274169921875 183.8572540283203 398.3194885253906 C 186.40338134765625 398.70574951171875 188.90525817871094 399.04779052734375 190.68470764160156 399.44073486328125 C 193.0333251953125 400.0096130371094 195.5413360595703 400.29058837890625 197.29417419433594 400.160400390625 C 199.310791015625 399.7894287109375 200.79434204101562 399.4063415527344 203.37451171875 398.4499816894531 C 206.58331298828125 396.6014404296875 207.64674377441406 395.3367919921875 209.59646606445312 392.59796142578125 C 210.86328125 390.27490234375 211.17002868652344 389.0069580078125 211.84129333496094 385.6716613769531 C 212.1446075439453 383.4547119140625 211.9380340576172 380.3106384277344 211.93893432617188 382.26837158203125 C 211.80064392089844 377.82421875 211.36111450195312 373.4721984863281 209.52294921875 370.1844177246094 C 208.0715789794922 367.2918701171875 206.68215942382812 365.7341613769531 205.34274291992188 364.5966796875 C 204.1932373046875 363.4627685546875 202.87522888183594 362.65673828125 201.35398864746094 362.12127685546875 C 200.0906219482422 361.8122253417969 199.17770385742188 361.7795715332031 197.24267578125 361.8954772949219"/>
    <path stroke-width="0" fill="rgb(0, 0, 0)" opacity="1.0" d="M 344.6007385253906 464.76507568359375 C 343.1708068847656 460.3612976074219 341.59912109375 456.0140686035156 340.0000305175781 448.6605224609375 C 337.5946044921875 440.83941650390625 334.74127197265625 433.4195556640625 332.16217041015625 425.4068908691406 C 328.69586181640625 425.6793212890625 324.9783630371094 426.1284484863281 321.0235595703125 426.64361572265625 C 317.0843200683594 426.7392578125 314.14862060546875 426.88629150390625 311.5534362792969 427.421630859375 C 307.98504638671875 427.12237548828125 302.420654296875 427.70025634765625 298.7237548828125 428.10009765625 C 293.0653076171875 427.7994384765625 290.3304443359375 427.50726318359375 285.34814453125 426.6806945800781 C 282.8294677734375 434.5372009277344 280.5690002441406 442.26055908203125 278.2138671875 450.71954345703125 C 274.8625183105469 459.8330078125 271.42431640625 464.02606201171875 266.2829284667969 468.424072265625 C 261.2103576660156 465.3985900878906 259.0068054199219 464.5849914550781 251.86293029785156 457.2261047363281 C 250.3616943359375 455.8697509765625 247.6544189453125 453.8855895996094 245.50718688964844 451.3809509277344 C 246.8755340576172 450.7534484863281 248.29513549804688 450.14080810546875 249.24472045898438 449.502685546875 C 249.93568420410156 448.97576904296875 251.78067016601562 447.05902099609375 253.21163940429688 446.24267578125 C 253.94679260253906 445.4471435546875 255.34649658203125 438.0387268066406 257.9754638671875 430.0061950683594 C 260.184326171875 421.8609924316406 261.8317565917969 416.4082336425781 263.518310546875 410.57830810546875 C 265.54345703125 404.5921325683594 267.5899353027344 408.1294860839844 269.0051574707031 402.0574951171875 C 269.736572265625 399.17327880859375 270.4490661621094 395.5625915527344 271.66925048828125 390.9999084472656 C 272.9554748535156 386.55548095703125 275.0397644042969 381.43182373046875 276.58331298828125 377.2325134277344 C 277.6564025878906 373.2130126953125 279.1495666503906 369.45526123046875 281.0408020019531 366.0416259765625 C 282.2742004394531 363.0178527832031 283.365966796875 359.30322265625 284.1248474121094 356.16693115234375 C 284.3902893066406 354.1954040527344 284.4527282714844 353.4410400390625 284.7673645019531 351.5843505859375 C 287.9485778808594 350.9210510253906 290.03070068359375 349.4744873046875 289.1069030761719 347.0063171386719 C 291.0776062011719 345.5392761230469 293.6832580566406 344.8387145996094 294.25750732421875 340.7096862792969 C 296.7872009277344 339.7882080078125 298.51824951171875 339.3555908203125 301.8375549316406 338.3721923828125 C 306.5486145019531 336.81451416015625 311.0506896972656 336.1493225097656 314.8875732421875 335.87628173828125 C 315.5311584472656 337.21044921875 318.7559509277344 337.7134094238281 321.3636779785156 340.46368408203125 C 320.62994384765625 342.06695556640625 322.9775085449219 343.129638671875 326.7384033203125 342.8145446777344 C 328.11175537109375 346.45880126953125 329.20654296875 349.70330810546875 330.4319763183594 352.49365234375 C 331.03887939453125 353.9966125488281 331.8371887207031 355.68267822265625 332.662353515625 357.510498046875 C 333.5426330566406 359.5010681152344 334.0006103515625 360.50286865234375 335.2329406738281 362.9012145996094 C 336.498779296875 364.9886474609375 337.5521240234375 367.1490783691406 338.3550109863281 369.4592590332031 C 339.4236755371094 372.3174133300781 339.9070129394531 373.6435852050781 341.0306091308594 376.3189697265625 C 342.2431945800781 379.31048583984375 342.8668518066406 380.80914306640625 343.92767333984375 383.05755615234375 C 344.9393310546875 385.3643493652344 345.7795104980469 387.2342224121094 346.99591064453125 390.36358642578125 C 348.1519775390625 394.553466796875 349.64642333984375 398.3013916015625 350.75006103515625 402.9333190917969 C 350.32830810546875 408.674072265625 351.3937072753906 407.002197265625 353.62774658203125 412.40118408203125 C 353.91522216796875 414.68536376953125 354.2315979003906 418.2466125488281 354.82037353515625 419.6326904296875 C 355.6015319824219 422.1615295410156 356.0411376953125 423.6444091796875 357.1373291015625 427.3583984375 C 359.0003356933594 431.4107666015625 360.6636047363281 436.303466796875 362.64794921875 441.9111328125 C 364.0207214355469 446.9750061035156 364.8941345214844 449.0919189453125 365.81048583984375 452.41253662109375 C 363.3977966308594 452.36468505859375 361.0791931152344 453.48077392578125 361.6977233886719 454.07513427734375 C 360.3291015625 457.3270263671875 362.2425842285156 457.194580078125 364.3408508300781 456.8104553222656 C 363.67645263671875 461.9559326171875 359.77569580078125 464.1698913574219 356.19873046875 464.72430419921875 C 353.0302734375 464.8389587402344 349.5478820800781 464.6980895996094 344.6007385253906 464.76507568359375M 315.3537902832031 381.11492919921875 C 314.6046142578125 378.8876953125 313.8719177246094 376.61895751953125 312.7462463378906 373.733154296875 C 311.7107849121094 370.8902587890625 310.78717041015625 368.2697448730469 310.02496337890625 365.709228515625 C 309.08782958984375 362.9295959472656 308.310791015625 360.4472351074219 307.6285705566406 357.0882263183594 C 307.5501708984375 360.4899597167969 307.1256103515625 362.9891052246094 306.475830078125 365.8321228027344 C 305.6884765625 368.7848815917969 305.2320861816406 371.3816833496094 304.6927795410156 374.0899353027344 C 304.08074951171875 377.1634521484375 303.4192810058594 379.6463317871094 302.86614990234375 381.38958740234375 C 301.647216796875 384.74700927734375 300.9370422363281 386.82574462890625 299.8591003417969 391.0213928222656 C 298.6844177246094 394.51959228515625 297.398193359375 398.2218933105469 296.3699035644531 401.4989013671875 C 300.5159912109375 401.428466796875 304.83795166015625 401.3951110839844 309.6670227050781 401.3459167480469 C 314.42401123046875 401.3410949707031 319.2644958496094 401.38385009765625 323.3592529296875 401.36334228515625 C 321.9136047363281 397.7247009277344 320.4532165527344 394.59588623046875 318.9114990234375 390.3892517089844 C 317.7759704589844 387.33685302734375 316.1708068847656 384.04595947265625 315.3537902832031 381.11492919921875"/>
    <path stroke-width="0" fill="rgb(0, 0, 0)" opacity="1.0" d="M 427.3113708496094 353.8033447265625 C 422.1988525390625 352.6846008300781 417.4034423828125 352.79852294921875 414.97528076171875 353.4757080078125 C 409.36688232421875 355.7882385253906 405.7909240722656 358.4261474609375 402.5668029785156 361.8694152832031 C 399.9267272949219 365.1391296386719 397.76580810546875 369.5779113769531 396.31842041015625 374.0666809082031 C 396.65093994140625 380.0509033203125 397.3873596191406 385.6479187011719 397.84661865234375 392.38714599609375 C 398.27178955078125 394.83197021484375 399.88653564453125 400.7028503417969 401.26116943359375 404.2861633300781 C 402.8365173339844 408.0572204589844 404.95037841796875 411.81695556640625 406.8175048828125 415.17279052734375 C 409.92120361328125 420.76641845703125 414.2056579589844 426.4104309082031 418.9420166015625 431.0429992675781 C 420.30487060546875 432.76519775390625 422.5789794921875 434.5719909667969 425.28399658203125 436.1174011230469 C 428.1592102050781 438.1827392578125 431.4156188964844 439.8433532714844 433.804443359375 440.57733154296875 C 438.0894470214844 441.31365966796875 442.10382080078125 440.8320617675781 448.8198547363281 437.4698181152344 C 453.4564514160156 434.9693298339844 456.6123046875 434.2727355957031 460.44317626953125 432.89019775390625 C 465.52734375 432.27880859375 469.154541015625 432.0385437011719 472.6092529296875 431.4541015625 C 471.74072265625 436.2137145996094 470.75421142578125 440.5416564941406 470.322021484375 445.03741455078125 C 470.3429260253906 446.8246765136719 470.52777099609375 451.2362976074219 470.8996276855469 455.45147705078125 C 467.99798583984375 456.6524658203125 464.4605712890625 457.5736999511719 462.6831970214844 458.3559875488281 C 458.1803894042969 460.8329772949219 455.17529296875 462.5127868652344 449.4097900390625 463.3659362792969 C 445.2078857421875 464.8594970703125 441.7155456542969 465.41192626953125 436.31378173828125 464.1774597167969 C 431.9577941894531 463.5389709472656 428.05328369140625 462.2666931152344 424.5391540527344 460.7074279785156 C 420.7519836425781 459.4335632324219 418.68853759765625 458.4025573730469 415.792724609375 456.4549560546875 C 413.49591064453125 455.31524658203125 410.6324462890625 453.9007263183594 408.4439392089844 452.22784423828125 C 404.4789123535156 449.8421630859375 401.13885498046875 447.0540771484375 398.51922607421875 443.9702453613281 C 395.9618225097656 441.4383239746094 394.0518493652344 438.64984130859375 392.2958679199219 435.8414306640625 C 390.04205322265625 433.2971496582031 388.45745849609375 430.9261169433594 386.1219177246094 426.71929931640625 C 383.75726318359375 423.53875732421875 381.8518981933594 419.6250305175781 380.0406188964844 415.00030517578125 C 378.58099365234375 412.10809326171875 377.5043029785156 409.2796325683594 376.4371643066406 406.08221435546875 C 374.8939514160156 403.1293029785156 374.083251953125 398.8088684082031 373.6123046875 396.180908203125 C 372.8846130371094 389.8719177246094 372.5331115722656 386.1317443847656 372.60107421875 383.1457214355469 C 373.03509521484375 380.35479736328125 372.842529296875 377.8597717285156 372.57049560546875 369.96868896484375 C 373.2392883300781 364.5960388183594 374.8051452636719 360.2192077636719 377.2711486816406 357.0624084472656 C 379.14752197265625 353.72760009765625 380.7621765136719 350.9847412109375 383.449951171875 347.9656982421875 C 386.5983581542969 344.5895690917969 388.5570068359375 342.83837890625 390.9920654296875 341.13555908203125 C 394.5221252441406 337.8700256347656 397.3238220214844 336.1373291015625 401.7380065917969 334.1796569824219 C 405.69073486328125 331.9726257324219 411.8406066894531 329.6513977050781 416.5824890136719 329.2405700683594 C 422.2646179199219 329.6405334472656 428.1106872558594 329.63702392578125 434.0551452636719 330.8950500488281 C 438.93603515625 332.33502197265625 442.672607421875 333.7238464355469 447.502685546875 336.217529296875 C 451.78851318359375 339.03369140625 455.496826171875 342.4500732421875 458.4613037109375 345.8835754394531 C 462.3559875488281 350.9136962890625 465.6305847167969 355.09014892578125 466.5691833496094 356.4296875 C 468.61572265625 358.6231689453125 470.7944030761719 360.8492431640625 472.7696228027344 363.1741943359375 C 469.99871826171875 365.7449645996094 466.6573181152344 369.0201110839844 462.5910339355469 372.5846252441406 C 458.9551086425781 374.7935791015625 455.0577087402344 377.037109375 451.8860168457031 379.2395324707031 C 449.3007507324219 374.635498046875 446.12237548828125 369.4419250488281 441.7714538574219 362.8507080078125 C 437.66339111328125 358.5184631347656 432.2947692871094 355.4648132324219 427.3113708496094 353.8033447265625"/>
    <path stroke-width="0" fill="rgb(0, 0, 0)" opacity="1.0" d="M 548.699951171875 454.7174377441406 C 545.5634765625 456.2767028808594 542.3325805664062 457.85272216796875 538.82373046875 458.8935852050781 C 534.325927734375 458.3503112792969 528.925537109375 457.2950439453125 533.88232421875 459.1839904785156 C 530.935791015625 458.5372009277344 528.7435302734375 457.98614501953125 530.84521484375 458.3911437988281 C 524.9423217773438 458.292724609375 520.0709838867188 456.93243408203125 524.5263061523438 457.4734191894531 C 520.3177490234375 458.0245361328125 516.775146484375 457.6122131347656 513.8809814453125 457.672119140625 C 514.1243896484375 457.8295593261719 507.1250915527344 457.05059814453125 505.09368896484375 456.804931640625 C 503.37518310546875 456.65618896484375 503.95599365234375 453.58404541015625 503.8359375 450.8487243652344 C 502.4894104003906 446.369873046875 499.5056457519531 446.80108642578125 496.3038330078125 447.39715576171875 C 495.6895751953125 444.8125915527344 495.2368469238281 442.3470153808594 493.46661376953125 442.8543701171875 C 493.1771545410156 442.38623046875 493.3486328125 440.39495849609375 490.5652160644531 440.0732727050781 C 490.5297546386719 439.28619384765625 490.181884765625 435.348876953125 489.9786376953125 432.0303039550781 C 490.795166015625 436.4109802246094 489.2515563964844 431.62750244140625 490.14697265625 433.4225158691406 C 489.48388671875 431.28607177734375 490.83489990234375 433.829833984375 489.2551574707031 431.4771728515625 C 488.9532470703125 425.4716491699219 488.8097839355469 422.4710998535156 488.6154479980469 418.91143798828125 C 488.6582336425781 425.4045104980469 486.57940673828125 418.45281982421875 486.5151672363281 416.84210205078125 C 488.5908203125 408.5805358886719 487.1377868652344 412.5249938964844 487.174560546875 406.127685546875 C 487.161865234375 404.4131774902344 486.4989929199219 399.04974365234375 487.6637268066406 400.947998046875 C 487.4590148925781 397.38726806640625 487.1907958984375 393.9297790527344 487.2103576660156 388.4432067871094 C 487.6476745605469 382.54132080078125 487.8914794921875 378.45489501953125 487.2822570800781 376.50616455078125 C 487.5847473144531 372.6171875 487.2642517089844 367.7688903808594 486.8875732421875 362.54632568359375 C 487.48907470703125 358.41375732421875 487.2361755371094 362.7325134277344 487.1798400878906 359.5887145996094 C 486.80902099609375 353.5386047363281 487.9482727050781 349.2072448730469 488.5938415527344 345.91375732421875 C 490.3250427246094 341.58978271484375 490.75384521484375 341.23651123046875 491.8250732421875 339.43609619140625 C 493.306884765625 337.4010314941406 494.9255065917969 335.4312438964844 495.7825927734375 333.94970703125 C 497.9620056152344 334.9417419433594 500.0411376953125 335.9326477050781 502.7892150878906 336.81231689453125 C 504.7852478027344 337.7294921875 506.1697082519531 334.78643798828125 507.8040771484375 335.47723388671875 C 509.6039123535156 336.0368347167969 511.08538818359375 336.1979064941406 515.2901611328125 336.1175842285156 C 518.906982421875 336.60211181640625 522.1549682617188 336.9676513671875 525.2633666992188 337.1539001464844 C 529.4260864257812 337.7064208984375 525.7096557617188 337.81671142578125 529.3609008789062 337.7635498046875 C 532.6678466796875 336.7308654785156 535.3405151367188 336.1997985839844 539.3699340820312 335.9490051269531 C 541.5938720703125 335.5473327636719 543.9835205078125 335.6663513183594 546.474365234375 335.6510314941406 C 548.8619995117188 337.1540832519531 549.5623779296875 338.2600402832031 550.7756958007812 339.8316345214844 C 549.8317260742188 340.6636047363281 548.8816528320312 341.5069885253906 547.554443359375 342.300537109375 C 549.1170043945312 344.84649658203125 551.8300170898438 346.3306579589844 554.9358520507812 347.3324279785156 C 550.5706176757812 347.4154357910156 551.3781127929688 349.3481750488281 551.8970947265625 350.5556335449219 C 550.1475830078125 352.66436767578125 551.1513671875 353.4923095703125 552.3819580078125 354.6530456542969 C 550.5036010742188 356.7562561035156 547.7720336914062 357.9749755859375 543.5103759765625 359.754150390625 C 540.231689453125 359.308837890625 542.8445434570312 359.2741394042969 539.0126953125 359.8290100097656 C 534.08740234375 360.866943359375 528.6664428710938 361.041259765625 525.6494750976562 361.1551818847656 C 529.7303466796875 360.9853820800781 526.62255859375 361.1994323730469 522.7445678710938 361.0263977050781 C 519.4576416015625 360.75634765625 516.2167358398438 360.37835693359375 512.769775390625 359.9002990722656 C 512.6399536132812 361.1912536621094 512.7066650390625 363.28790283203125 513.023193359375 360.2507019042969 C 513.2377319335938 363.6910095214844 513.2256469726562 365.56268310546875 512.5155029296875 370.59130859375 C 513.0057373046875 374.0994873046875 512.6749267578125 370.7167053222656 513.2220458984375 375.8148498535156 C 513.1728515625 381.8964538574219 513.1972045898438 385.7712707519531 513.488037109375 391.8864440917969 C 519.0714111328125 392.61273193359375 522.29345703125 393.48944091796875 526.0692749023438 394.2785949707031 C 529.2020263671875 394.6112060546875 531.7427978515625 394.7805480957031 535.2188110351562 394.76910400390625 C 538.640625 394.82293701171875 542.1943969726562 394.8695373535156 542.8521118164062 396.5962219238281 C 545.1730346679688 399.4139709472656 546.4884643554688 397.2602233886719 547.95263671875 395.0948486328125 C 548.9784545898438 395.6229248046875 550.5882568359375 396.342041015625 552.240966796875 397.2748107910156 C 554.3712158203125 398.7547302246094 554.964599609375 399.6354675292969 555.4359130859375 400.30322265625 C 555.089111328125 400.6387634277344 555.3846435546875 401.1605224609375 555.596923828125 402.1388244628906 C 553.5359497070312 402.4394226074219 555.06201171875 404.0924987792969 556.7564697265625 405.86175537109375 C 553.7158203125 409.1803894042969 549.4984741210938 412.4290771484375 550.7559204101562 415.6180114746094 C 545.69287109375 418.43634033203125 540.1694946289062 419.3503723144531 535.9081420898438 419.64923095703125 C 532.2127685546875 419.67535400390625 526.5594482421875 419.1409912109375 521.8818969726562 418.08172607421875 C 516.713134765625 417.33807373046875 512.8422241210938 416.2167053222656 511.82122802734375 415.9708557128906 C 511.8277893066406 416.8705749511719 512.837646484375 419.4085388183594 512.74267578125 420.53961181640625 C 512.88427734375 421.9565734863281 513.1903686523438 424.76910400390625 511.4609069824219 418.3192443847656 C 513.787841796875 421.26934814453125 514.703125 423.63421630859375 514.232421875 422.4648742675781 C 514.8712158203125 424.1227111816406 517.3286743164062 430.1114501953125 517.3843383789062 433.3244323730469 C 520.1119384765625 433.5011901855469 516.5747680664062 433.94671630859375 519.9205322265625 433.547607421875 C 522.5454711914062 433.4368896484375 524.7892456054688 433.32977294921875 527.1679077148438 433.9701843261719 C 530.724365234375 434.572998046875 534.1929321289062 434.8058776855469 537.1452026367188 435.58154296875 C 540.1325073242188 436.2830810546875 536.0997924804688 434.5224914550781 538.1524658203125 434.8172302246094 C 542.9623413085938 435.8670959472656 546.5459594726562 438.8509826660156 548.6376953125 441.3494873046875 C 547.4669189453125 442.4217529296875 546.4969482421875 443.3643493652344 545.2923583984375 444.5753479003906 C 547.2960205078125 445.4026184082031 547.0504760742188 446.3737487792969 549.036376953125 446.6097106933594 C 545.6770629882812 447.44970703125 545.7540893554688 448.02880859375 546.2884521484375 449.6819152832031 C 546.9314575195312 451.16864013671875 547.6832885742188 452.6421813964844 548.699951171875 454.7174377441406"/>
    <path stroke-width="0" fill="rgb(0, 0, 0)" opacity="1.0" d="M 66.92737579345703 266.3902893066406 C 65.2765121459961 265.51678466796875 63.74385452270508 264.4084167480469 61.97039794921875 262.8857727050781 C 60.14006423950195 261.1058654785156 58.207889556884766 258.6451416015625 57.03998947143555 256.51885986328125 C 55.5400390625 253.8824005126953 54.086795806884766 249.39730834960938 53.78990936279297 247.19956970214844 C 53.5971794128418 245.80918884277344 53.52559280395508 246.6221160888672 53.911956787109375 241.75909423828125 C 55.54487609863281 234.75489807128906 57.14224624633789 230.2113037109375 60.89051818847656 225.8694610595703 C 63.137054443359375 221.3954315185547 66.26319885253906 217.3897705078125 70.38284301757812 213.91940307617188 C 75.12515258789062 209.32162475585938 81.33663940429688 206.2272491455078 88.23285675048828 204.63629150390625 C 94.21229553222656 204.42466735839844 101.06581115722656 205.26214599609375 103.93006134033203 206.1309814453125 C 107.22041320800781 207.40655517578125 110.55589294433594 208.63583374023438 113.86405181884766 210.44558715820312 C 110.35858917236328 217.6760711669922 108.26482391357422 223.69827270507812 100.78594207763672 228.3377227783203 C 99.68504333496094 226.34100341796875 98.63838195800781 224.73345947265625 97.83949279785156 223.67906188964844 C 96.13383483886719 226.03662109375 94.48217010498047 228.59144592285156 93.21939849853516 228.29322814941406 C 91.85149383544922 228.33541870117188 91.19285583496094 228.4421844482422 88.4291763305664 230.72055053710938 C 85.98783111572266 232.7880401611328 83.70626068115234 235.51593017578125 82.02023315429688 238.65509033203125 C 79.62602996826172 241.70130920410156 78.44488525390625 244.49522399902344 78.73373413085938 246.15000915527344 C 78.56426239013672 247.0511932373047 79.23783111572266 250.04954528808594 79.97266387939453 251.67491149902344 C 80.90193939208984 253.77684020996094 82.21532440185547 255.2903289794922 84.02970123291016 256.5306091308594 C 86.00245666503906 257.9046630859375 88.69761657714844 258.77349853515625 91.12950897216797 259.1004638671875 C 84.0009765625 261.8288879394531 75.49054718017578 264.0107116699219 66.92737579345703 266.3902893066406M 65.40631103515625 264.50897216796875 C 65.40863800048828 278.7291564941406 61.348140716552734 270.8553466796875 66.33203887939453 276.6540222167969 C 67.4473876953125 269.1828918457031 54.27164077758789 272.46282958984375 55.664939880371094 249.6342315673828 C 71.19684600830078 263.5511474609375 78.3135986328125 261.4662170410156 85.51104736328125 259.2376403808594 C 81.05094909667969 263.38555908203125 92.71314239501953 270.5547790527344 98.23392486572266 275.3450012207031 C 108.8509750366211 278.4179382324219 132.5532684326172 273.1780700683594 125.4317855834961 283.5191955566406 C 125.43135070800781 286.6021728515625 122.71371459960938 291.2086181640625 118.87068939208984 292.559814453125 C 95.53104400634766 297.2230529785156 78.85861206054688 289.5544128417969 80.54942321777344 281.76336669921875 C 91.65882873535156 291.6598205566406 81.52788543701172 294.2474670410156 66.01280212402344 273.5415344238281 C 64.7761001586914 269.3594970703125 63.537841796875 270.5316162109375 65.40631103515625 264.50897216796875"/>
    <path stroke-width="0" fill="rgb(0, 0, 0)" opacity="1.0" d="M 173.28990173339844 277.5068359375 C 165.34197998046875 275.05810546875 161.7872772216797 275.16912841796875 158.4600830078125 275.4591369628906 C 152.92068481445312 276.9159240722656 147.88619995117188 276.00469970703125 143.67868041992188 273.8372802734375 C 139.4400177001953 271.7155456542969 135.06268310546875 268.24530029296875 129.7310791015625 262.02117919921875 C 105.79679107666016 231.39466857910156 108.6344985961914 190.88743591308594 149.85572814941406 168.8720703125 C 150.06869506835938 169.0131072998047 154.90219116210938 171.247314453125 176.66921997070312 178.34710693359375 C 149.42457580566406 209.15777587890625 144.4188995361328 222.47525024414062 148.62677001953125 240.52011108398438 C 149.42388916015625 241.83738708496094 150.87269592285156 243.3517303466797 152.6679229736328 244.498779296875 C 155.469970703125 246.5800018310547 161.7002410888672 248.61590576171875 166.89447021484375 248.93446350097656 C 173.37847900390625 251.09141540527344 177.75515747070312 252.7382049560547 182.09536743164062 253.8622589111328 C 186.948486328125 254.78738403320312 190.01589965820312 256.64111328125 191.37916564941406 259.4736328125 C 192.96263122558594 262.4474792480469 193.23301696777344 265.8018493652344 192.0625 269.6144104003906 C 190.95851135253906 273.3824157714844 188.7567901611328 276.1999206542969 185.41445922851562 277.8778991699219 C 182.0463409423828 279.5226745605469 178.13063049316406 279.3497009277344 173.28990173339844 277.5068359375"/>
    <path stroke-width="0" fill="rgb(0, 0, 0)" opacity="1.0" d="M 354.19281005859375 286.4420166015625 C 345.4390869140625 286.51617431640625 336.8379211425781 285.5022277832031 328.5744323730469 282.6903991699219 C 322.1640319824219 279.1005859375 317.7135009765625 275.5754089355469 314.16845703125 272.0849304199219 C 309.9796142578125 265.2837829589844 314.2821960449219 261.59197998046875 311.2950439453125 261.891845703125 C 317.7867126464844 262.6888732910156 317.50787353515625 252.65777587890625 315.9844665527344 249.2950439453125 C 333.2484130859375 258.0283203125 339.19354248046875 263.3721923828125 334.46405029296875 253.52151489257812 C 339.4538269042969 254.14450073242188 345.65289306640625 254.11183166503906 353.1121826171875 253.2390594482422 C 358.9375 252.6922149658203 363.0119934082031 253.47215270996094 365.8494567871094 255.9097900390625 C 368.7445068359375 258.432861328125 370.4063720703125 261.7613525390625 371.0542297363281 266.7067565917969 C 371.74517822265625 270.80926513671875 371.2389831542969 274.4554748535156 368.89459228515625 278.2612609863281 C 366.82293701171875 281.9675598144531 361.9667663574219 285.3028259277344 354.19281005859375 286.4420166015625M 272.53753662109375 286.7859191894531 C 264.6868896484375 284.85760498046875 239.93235778808594 285.1229553222656 230.8359832763672 270.5697021484375 C 231.59364318847656 274.2648620605469 221.88990783691406 283.6676025390625 212.96615600585938 281.201416015625 C 207.94259643554688 288.58941650390625 193.6849365234375 286.4548645019531 190.76109313964844 280.4446716308594 C 204.27142333984375 283.3409729003906 200.8474884033203 279.3143615722656 205.19400024414062 273.6845703125 C 215.48228454589844 268.2108459472656 217.02886962890625 267.3186950683594 225.53744506835938 273.7209167480469 C 223.58416748046875 279.8170166015625 220.0387420654297 284.1025695800781 224.99295043945312 278.4702453613281 C 213.82455444335938 291.1577453613281 187.0598602294922 292.4089660644531 197.3052978515625 273.4776916503906 C 207.39840698242188 292.24688720703125 181.62692260742188 290.9013671875 177.25970458984375 279.05694580078125 C 180.4222869873047 271.11639404296875 182.9940185546875 262.55426025390625 184.85186767578125 254.42095947265625 C 185.72305297851562 266.31658935546875 188.60301208496094 259.3746643066406 177.70159912109375 256.934326171875 C 202.1504669189453 252.5417022705078 200.84854125976562 252.4947052001953 205.68319702148438 248.0064239501953 C 204.42457580566406 243.1138916015625 199.87368774414062 246.7290802001953 200.1341094970703 246.3431854248047 C 199.2255859375 247.22357177734375 211.22972106933594 243.25048828125 200.37513732910156 245.972412109375 C 207.74964904785156 253.91944885253906 217.69166564941406 244.67213439941406 229.97216796875 243.78121948242188 C 232.76312255859375 247.86915588378906 227.6431884765625 250.55772399902344 232.65887451171875 251.91464233398438 C 242.993896484375 243.5719451904297 246.24232482910156 247.99566650390625 243.33262634277344 245.73776245117188 C 234.34872436523438 251.02622985839844 233.82879638671875 259.2756652832031 203.83822631835938 244.55477905273438 C 203.38232421875 248.61402893066406 217.08010864257812 255.0787811279297 222.69766235351562 231.4600372314453 C 224.8526611328125 232.73504638671875 238.63336181640625 246.84266662597656 255.58680725097656 251.072998046875 C 245.31826782226562 247.548095703125 259.853759765625 248.5447540283203 267.2724609375 255.2115020751953 C 258.4029846191406 266.42352294921875 265.9298095703125 262.5228576660156 250.26443481445312 254.37896728515625 C 276.01202392578125 255.10470581054688 282.68719482421875 256.3880615234375 311.96661376953125 246.73486328125 C 308.0552062988281 251.55479431152344 307.0077209472656 248.8893280029297 313.56768798828125 248.66830444335938 C 324.1556396484375 256.012451171875 328.83660888671875 263.14544677734375 327.37347412109375 266.81463623046875 C 322.0959777832031 255.85401916503906 330.13250732421875 265.7325744628906 318.1148376464844 258.6511535644531 C 313.1092529296875 250.29742431640625 298.46478271484375 245.22726440429688 314.54608154296875 242.39881896972656 C 314.47857666015625 258.871826171875 295.8837585449219 262.9293518066406 287.0789489746094 252.8989715576172 C 305.9158630371094 240.0376434326172 318.03924560546875 242.27261352539062 311.6093444824219 252.5063934326172 C 310.7855224609375 250.53732299804688 303.2381286621094 251.35984802246094 300.2573547363281 256.03521728515625 C 298.7828063964844 244.69300842285156 302.16888427734375 242.49095153808594 305.3054504394531 255.7036590576172 C 286.97882080078125 256.9028015136719 282.26385498046875 260.75885009765625 281.1639404296875 266.0384826660156 C 273.1778564453125 264.7737121582031 267.43853759765625 263.28997802734375 262.7886047363281 265.9834289550781 C 253.51626586914062 264.21044921875 246.73268127441406 266.7071533203125 234.0973358154297 263.1003723144531 C 243.6048583984375 261.63623046875 247.87904357910156 254.66265869140625 257.13079833984375 260.4079895019531 C 268.3963928222656 253.87094116210938 283.61737060546875 254.6213836669922 289.9047546386719 250.06834411621094 C 301.9946594238281 248.6059112548828 303.884033203125 235.38180541992188 295.0121154785156 235.25430297851562 C 296.479736328125 238.26251220703125 302.5854797363281 241.15061950683594 316.0170593261719 238.06338500976562 C 311.76495361328125 235.4887237548828 315.5738525390625 239.20382690429688 313.91705322265625 235.4381561279297 C 311.2389221191406 241.1632080078125 327.4806213378906 249.3149871826172 316.0500793457031 244.2894287109375 C 325.7541809082031 247.97662353515625 336.06396484375 251.4064483642578 342.90673828125 253.95034790039062 C 349.9522399902344 281.00408935546875 335.0664367675781 257.2195129394531 329.9980773925781 265.3506774902344 C 324.00830078125 270.8267822265625 316.892333984375 264.3774108886719 299.34765625 279.89453125 C 287.80096435546875 284.06427001953125 271.09625244140625 285.4710693359375 272.53753662109375 286.7859191894531M 313.3233337402344 162.51373291015625 C 322.111083984375 174.12136840820312 325.0760192871094 177.10829162597656 333.6500549316406 178.9412384033203 C 329.5540771484375 178.31289672851562 315.5588684082031 181.36158752441406 312.0921936035156 176.5336456298828 C 295.01507568359375 179.0426788330078 299.586181640625 169.9619140625 278.37603759765625 188.2783203125 C 259.8937072753906 161.71734619140625 267.24163818359375 163.61245727539062 296.5169982910156 145.1457977294922 C 328.150146484375 140.82388305664062 330.0989074707031 145.6492462158203 344.31085205078125 154.3565216064453 C 362.8293151855469 164.78135681152344 384.9004821777344 206.8411407470703 346.4404602050781 208.7401885986328 C 326.6110534667969 168.1638946533203 320.5247802734375 182.4445343017578 304.3818359375 177.23023986816406 C 313.6078796386719 170.8268280029297 301.5520324707031 160.71966552734375 313.3233337402344 162.51373291015625"/>
    <path stroke-width="0" fill="rgb(0, 0, 0)" opacity="1.0" d="M 358.06695556640625 285.8648681640625 C 356.47076416015625 274.82598876953125 355.3779602050781 263.4770202636719 354.52459716796875 253.09996032714844 C 363.15283203125 252.10682678222656 370.7812805175781 250.83436584472656 377.2537536621094 249.31646728515625 C 383.8052062988281 249.26962280273438 390.4364929199219 251.3951873779297 393.6275329589844 252.2358856201172 C 397.2491149902344 253.26548767089844 398.6239929199219 253.69468688964844 400.79583740234375 253.8993377685547 C 401.9286193847656 254.027099609375 397.74114990234375 255.21701049804688 399.1427307128906 254.4580078125 C 400.69586181640625 253.5687713623047 405.0661926269531 250.12696838378906 408.0246887207031 248.0399169921875 C 409.9185791015625 247.9936981201172 410.8872985839844 246.37306213378906 411.2679443359375 244.608154296875 C 411.4305114746094 242.97305297851562 411.4337158203125 240.63238525390625 410.7977600097656 237.61387634277344 C 410.0621643066406 233.1360626220703 409.000244140625 229.48695373535156 407.4948425292969 226.60177612304688 C 405.6639099121094 223.15147399902344 403.753173828125 220.33840942382812 400.35418701171875 216.84849548339844 C 399.4991149902344 215.48123168945312 395.4227600097656 212.8280029296875 392.3048095703125 211.99583435058594 C 388.1867980957031 210.55038452148438 387.6542053222656 210.7113494873047 387.183837890625 211.14266967773438 C 398.04083251953125 191.29644775390625 398.7650451660156 194.42906188964844 404.17584228515625 199.49180603027344 C 408.35223388671875 207.8321990966797 411.51641845703125 215.76229858398438 413.8981018066406 225.14173889160156 C 413.7424011230469 233.28965759277344 413.8218078613281 241.2789764404297 395.47955322265625 230.9610595703125 C 395.8764953613281 231.20416259765625 396.5085754394531 231.2973175048828 397.3492431640625 231.46510314941406 C 398.9349060058594 231.50914001464844 400.87774658203125 231.4684295654297 400.95025634765625 233.0313262939453 C 403.38494873046875 232.6478271484375 405.28314208984375 232.21192932128906 407.36041259765625 231.6562957763672 C 409.33819580078125 230.98631286621094 411.2949523925781 230.04721069335938 413.2002868652344 228.7605743408203 C 413.879638671875 234.80450439453125 414.5603332519531 240.2382354736328 414.8064270019531 245.3568115234375 C 413.4171447753906 246.33750915527344 412.0348815917969 247.13441467285156 410.25152587890625 247.92323303222656 C 406.1554870605469 249.20103454589844 404.48297119140625 252.09292602539062 404.2840270996094 256.2683410644531 C 403.0138854980469 256.6365661621094 402.23406982421875 256.8511962890625 401.1955261230469 257.1365966796875 C 396.5566711425781 258.47723388671875 393.2737121582031 258.9731140136719 392.04833984375 258.9158935546875 C 389.06561279296875 259.0661926269531 386.33404541015625 257.9241638183594 383.5289306640625 257.1172790527344 C 382.7067565917969 255.27195739746094 382.2386169433594 248.51687622070312 389.0498046875 234.97972106933594 C 389.40777587890625 230.00538635253906 389.3757019042969 224.3693389892578 388.179931640625 220.25958251953125 C 386.1975402832031 215.9966278076172 384.08038330078125 213.20718383789062 361.8676452636719 201.4647674560547 C 360.3133544921875 192.99868774414062 360.2971496582031 187.03504943847656 376.0789489746094 181.3566436767578 C 386.6902160644531 180.15476989746094 394.40411376953125 181.39263916015625 402.9931640625 185.25320434570312 C 409.97955322265625 187.84910583496094 415.04229736328125 191.8155975341797 420.0628662109375 197.616943359375 C 423.0464782714844 200.70242309570312 426.43328857421875 206.19662475585938 428.7811584472656 212.41928100585938 C 431.4377746582031 219.71588134765625 432.9682922363281 228.47662353515625 433.1737060546875 236.29966735839844 C 431.73358154296875 244.5944366455078 430.0646667480469 252.1242218017578 428.0124206542969 255.7465057373047 C 424.8710021972656 260.92437744140625 419.0702819824219 266.54986572265625 417.0865478515625 267.85272216796875 C 414.2249755859375 271.2500915527344 412.4131774902344 272.6484069824219 409.66949462890625 274.9264221191406 C 404.8953857421875 278.390380859375 399.22564697265625 278.6726989746094 393.36285400390625 278.44537353515625 C 389.2594299316406 278.7125244140625 383.8623352050781 276.77587890625 382.80023193359375 276.6498107910156 C 378.5846252441406 278.05224609375 369.99737548828125 281.9804382324219 358.06695556640625 285.8648681640625M 393.6499938964844 155.39114379882812 C 394.2131042480469 158.09854125976562 398.2174377441406 157.5813751220703 392.7017517089844 152.90960693359375 C 384.84014892578125 151.85589599609375 387.697998046875 147.06285095214844 390.5221252441406 157.7081756591797 C 401.0832824707031 161.1077880859375 394.772216796875 159.69944763183594 387.4849853515625 153.28335571289062 C 392.0076904296875 157.37258911132812 387.8543395996094 154.1248321533203 394.50054931640625 153.40872192382812 C 388.18646240234375 151.96449279785156 392.287109375 156.17337036132812 398.7682189941406 151.81289672851562 C 405.6402893066406 148.18199157714844 398.6635437011719 152.45578002929688 402.7288513183594 151.4682159423828 C 396.609130859375 150.96656799316406 393.61224365234375 155.7333526611328 399.3227233886719 152.69337463378906 C 393.6258850097656 156.08575439453125 396.5035095214844 160.73956298828125 393.6499938964844 155.39114379882812"/>
  </g>
</svg>
