<?xml version="1.0" ?>
<svg xmlns="http://www.w3.org/2000/svg" version="1.1" width="600" height="600">
  <defs/>
  <g>
    <path stroke-width="0" fill="rgb(0, 0, 0)" opacity="1.0" d="M 134.7696990966797 411.6046447753906 C 133.23492431640625 414.3504638671875 135.07713317871094 407.1834716796875 134.99412536621094 408.1500244140625 C 134.0558624267578 404.4241027832031 134.19203186035156 409.81134033203125 134.635986328125 415.14215087890625 C 134.87152099609375 419.6463317871094 134.86216735839844 432.6510925292969 133.2400360107422 437.174560546875 C 131.25473022460938 441.1802978515625 130.6927032470703 441.7867126464844 125.61493682861328 447.7554931640625 C 121.9945297241211 450.4434509277344 116.47303771972656 453.6856994628906 110.75701141357422 455.676513671875 C 103.547607421875 455.7464904785156 99.02700805664062 455.6084289550781 92.35267639160156 453.1089782714844 C 89.90336608886719 451.9058837890625 94.85673522949219 451.8831481933594 88.94636535644531 451.334228515625 C 81.20987701416016 450.2196044921875 85.14515686035156 451.14117431640625 82.6689224243164 451.1661071777344 C 78.62217712402344 451.0614929199219 76.31504821777344 451.18560791015625 79.15238952636719 450.4640808105469 C 72.65202331542969 451.5326843261719 66.94773864746094 452.7857360839844 52.4405403137207 457.4344177246094 C 42.765533447265625 459.17578125 38.2376594543457 458.6387939453125 32.12854766845703 458.3983154296875 C 29.4316463470459 450.80780029296875 27.60594940185547 443.154541015625 30.61454963684082 434.95465087890625 C 31.478240966796875 429.02154541015625 32.10257339477539 424.7435302734375 32.52061080932617 420.906005859375 C 35.12998580932617 422.8408203125 38.12081527709961 424.59417724609375 42.04302978515625 427.0426025390625 C 47.01982879638672 431.7022399902344 46.69778823852539 427.2752685546875 56.7836799621582 425.8001708984375 C 65.52387237548828 424.16925048828125 72.59204864501953 423.4413757324219 78.47525024414062 423.5943603515625 C 82.81871795654297 423.21453857421875 88.72785949707031 423.2358093261719 95.04031372070312 423.7596435546875 C 104.69379425048828 427.6928405761719 101.19924926757812 427.2758483886719 103.8033218383789 426.4239501953125 C 105.6665267944336 425.56634521484375 106.14485931396484 424.950439453125 106.92674255371094 422.3624267578125 C 107.40155029296875 421.2505798339844 106.9003677368164 411.1895751953125 107.87471008300781 402.18212890625 C 111.21466064453125 396.5615234375 111.75059509277344 393.9872131347656 110.62857055664062 392.18511962890625 C 110.15265655517578 391.5289306640625 108.52127838134766 390.4590759277344 107.1850814819336 389.7384338378906 C 103.6439208984375 389.30255126953125 108.53311157226562 389.921630859375 105.42134857177734 390.5077819824219 C 100.7433090209961 391.00653076171875 95.27342224121094 390.820556640625 89.95537567138672 389.4416198730469 C 84.37574005126953 386.1805419921875 80.3634033203125 381.50909423828125 77.36996459960938 375.84002685546875 C 75.65702056884766 373.56658935546875 73.3736801147461 369.4494323730469 72.4649887084961 368.6097412109375 C 68.4499740600586 365.8060302734375 65.9699935913086 363.1661071777344 63.549842834472656 360.2483825683594 C 61.85481643676758 357.275634765625 61.28106689453125 356.0103759765625 64.45974731445312 361.44281005859375 C 62.02751159667969 357.9075927734375 61.2359619140625 356.3380432128906 60.67133712768555 355.1670227050781 C 54.12766647338867 345.4429016113281 53.63727951049805 342.5553283691406 53.404239654541016 337.8778076171875 C 54.35793685913086 333.679443359375 55.374942779541016 329.4634094238281 57.80112075805664 326.48016357421875 C 61.55646896362305 322.20672607421875 66.92407989501953 318.04669189453125 71.53973388671875 316.17767333984375 C 73.85889434814453 315.129150390625 78.2296371459961 313.98004150390625 82.75809478759766 313.9052734375 C 86.77865600585938 313.822998046875 91.01927947998047 314.3616638183594 95.32414245605469 315.2216491699219 C 99.08846282958984 316.02093505859375 102.51447296142578 316.7546081542969 106.33946990966797 317.70330810546875 C 108.62434387207031 317.7892761230469 111.00321197509766 317.82647705078125 113.54096221923828 317.7350158691406 C 116.25906372070312 317.6072082519531 118.73017120361328 317.58935546875 121.38704681396484 317.3437805175781 C 124.72801971435547 317.05206298828125 127.58272552490234 317.1275939941406 130.7620391845703 317.2820129394531 C 134.0712890625 317.5422668457031 137.2848663330078 318.0650634765625 140.69329833984375 319.0869140625 C 139.54014587402344 323.2366943359375 138.04115295410156 327.05645751953125 137.0890350341797 330.7177734375 C 136.00572204589844 333.5743713378906 135.58912658691406 335.45330810546875 132.4365692138672 338.92584228515625 C 130.0301971435547 336.59942626953125 128.89425659179688 339.0076904296875 128.11654663085938 338.8303527832031 C 126.12789916992188 338.9093017578125 123.86054229736328 338.85406494140625 120.63682556152344 338.74908447265625 C 116.80847930908203 339.125732421875 114.49948120117188 338.89581298828125 112.21348571777344 338.6586608886719 C 110.51579284667969 338.84332275390625 106.33013153076172 339.7955017089844 102.34656524658203 339.42120361328125 C 98.20161437988281 338.50537109375 95.31702423095703 338.2967834472656 92.54145050048828 338.77264404296875 C 88.90254211425781 339.23956298828125 87.63580322265625 339.698486328125 86.8122329711914 340.3974304199219 C 84.25634002685547 342.0411376953125 86.2907485961914 338.5901184082031 86.67073059082031 340.7137145996094 C 86.69729614257812 341.31903076171875 87.9825668334961 342.7969055175781 95.74105834960938 350.64617919921875 C 100.27445983886719 358.626708984375 102.77613830566406 363.2891845703125 104.01689147949219 364.5472412109375 C 96.7686996459961 362.3072509765625 99.02978515625 362.90576171875 99.9220962524414 363.0229797363281 C 100.69631958007812 363.0111389160156 104.16850280761719 362.8601379394531 109.48283386230469 362.34051513671875 C 119.08435821533203 362.2939758300781 120.96226501464844 363.1792907714844 125.16767883300781 364.2692565917969 C 128.69676208496094 366.92913818359375 131.5234832763672 368.71697998046875 133.30523681640625 370.5443420410156 C 134.50830078125 371.9455261230469 136.6272430419922 374.47576904296875 138.2497100830078 377.14752197265625 C 138.85775756835938 378.3431701660156 139.35751342773438 384.4822082519531 139.72119140625 386.193603515625 C 140.66307067871094 392.1289978027344 140.0079803466797 396.3587951660156 138.79550170898438 400.9669189453125 C 138.00343322753906 404.3506164550781 136.6929473876953 408.0441589355469 134.7696990966797 411.6046447753906"/>
    <path stroke-width="0" fill="rgb(0, 0, 0)" opacity="1.0" d="M 284.1908874511719 382.8041687011719 C 284.9856262207031 387.10687255859375 285.8714904785156 391.2734375 285.95159912109375 396.2393798828125 C 286.55914306640625 399.66387939453125 286.3774108886719 403.74847412109375 285.9823913574219 408.7355041503906 C 286.3509521484375 410.4254455566406 287.102783203125 415.4390869140625 286.9430847167969 419.0356750488281 C 290.0165710449219 434.1603088378906 289.643310546875 435.5606994628906 286.4219055175781 448.14453125 C 293.6415100097656 438.6412658691406 288.52606201171875 447.8968811035156 286.24853515625 450.4100341796875 C 279.7808837890625 457.72418212890625 276.5062255859375 459.700439453125 267.7554016113281 463.0806579589844 C 260.3757629394531 464.9152526855469 246.2330322265625 462.14959716796875 241.8043975830078 461.1146240234375 C 235.6905059814453 460.00665283203125 229.15618896484375 458.7118225097656 223.21224975585938 457.5201721191406 C 218.37269592285156 458.0998840332031 211.9948272705078 458.7903137207031 208.09463500976562 458.808349609375 C 201.44375610351562 459.7377014160156 193.3511199951172 459.8218078613281 189.58193969726562 459.0767822265625 C 183.25216674804688 458.4411926269531 178.3782501220703 457.7253723144531 172.4091796875 454.0685119628906 C 170.3963623046875 452.9128723144531 169.04812622070312 451.82525634765625 164.24386596679688 445.65386962890625 C 162.4319610595703 437.1638488769531 161.8466033935547 434.7560729980469 163.80665588378906 422.16436767578125 C 164.6996307373047 420.79412841796875 164.92137145996094 417.7220764160156 171.06292724609375 405.6978454589844 C 171.2032012939453 399.83294677734375 171.74252319335938 395.2367858886719 173.5694122314453 391.23663330078125 C 174.30111694335938 387.21820068359375 174.08192443847656 391.0574035644531 174.03582763671875 382.4451904296875 C 174.6748504638672 379.0675048828125 174.81434631347656 378.0708312988281 175.7490692138672 373.5867004394531 C 176.67356872558594 367.54791259765625 177.42196655273438 364.246337890625 178.388671875 361.28997802734375 C 179.3316192626953 355.49896240234375 179.83499145507812 351.9639587402344 181.15586853027344 347.70379638671875 C 179.7928466796875 338.00604248046875 179.91534423828125 336.60675048828125 181.63912963867188 330.2207946777344 C 183.41798400878906 326.1504821777344 185.40682983398438 322.4732971191406 192.3114776611328 314.51959228515625 C 198.62965393066406 310.9901428222656 205.4539337158203 309.1524963378906 213.6630096435547 308.88201904296875 C 218.5770263671875 308.7937316894531 226.55709838867188 310.7535400390625 231.59963989257812 311.57000732421875 C 227.58255004882812 310.7842712402344 229.24696350097656 310.5093078613281 232.73509216308594 309.2235412597656 C 237.18707275390625 307.84716796875 238.1892547607422 307.73968505859375 240.6084442138672 307.4700622558594 C 246.01734924316406 306.3135070800781 247.295654296875 306.1294860839844 256.9385681152344 303.14703369140625 C 264.50714111328125 305.01202392578125 267.37420654296875 306.6371154785156 272.9608459472656 311.4652404785156 C 277.73175048828125 315.8489990234375 279.9048767089844 318.4115295410156 279.7265930175781 337.2341003417969 C 280.7103576660156 341.52789306640625 281.0128479003906 345.708984375 280.7106018066406 348.9507141113281 C 279.521484375 356.2396545410156 279.74945068359375 358.0624694824219 280.3134765625 364.00799560546875 C 281.125 367.8830261230469 281.2028503417969 368.7974548339844 281.22198486328125 373.2040100097656 C 281.63055419921875 375.8228454589844 283.40948486328125 379.8353271484375 284.1908874511719 382.8041687011719M 200.0908966064453 384.916015625 C 197.7528533935547 392.5825500488281 197.89382934570312 390.3816833496094 196.31597900390625 398.17144775390625 C 195.87554931640625 402.2603759765625 195.36663818359375 410.0144958496094 195.9672088623047 417.47503662109375 C 197.37681579589844 423.0370178222656 198.6371612548828 424.64971923828125 200.23692321777344 426.2993469238281 C 201.55682373046875 426.9422302246094 204.00196838378906 428.08685302734375 207.7869110107422 428.5574035644531 C 210.36676025390625 429.13299560546875 215.20570373535156 429.0904541015625 221.46395874023438 429.20477294921875 C 232.47767639160156 427.7317199707031 240.21112060546875 428.3830871582031 245.13565063476562 428.1108703613281 C 252.50904846191406 426.2956848144531 253.912353515625 425.94183349609375 255.7185821533203 424.740478515625 C 257.9573059082031 423.1732482910156 259.5588073730469 420.7723083496094 259.7195739746094 415.11785888671875 C 260.552734375 403.33758544921875 260.72625732421875 400.87213134765625 260.6025390625 406.0175476074219 C 259.335693359375 397.0223083496094 259.1023254394531 389.37017822265625 258.3898620605469 384.1953430175781 C 256.7502136230469 374.9873046875 255.87802124023438 365.8247375488281 253.0566864013672 356.9870300292969 C 254.7228240966797 347.07928466796875 255.05999755859375 342.5888977050781 254.74159240722656 339.6275634765625 C 253.60879516601562 337.35723876953125 251.92071533203125 334.94317626953125 250.30462646484375 334.0256652832031 C 247.53305053710938 333.2194519042969 242.0545654296875 332.99560546875 239.27899169921875 333.1810607910156 C 232.0695343017578 334.95880126953125 226.52435302734375 335.9656677246094 220.611572265625 335.4631042480469 C 217.7644805908203 336.2130432128906 214.47579956054688 337.3874206542969 212.72389221191406 338.34100341796875 C 211.19720458984375 339.7590637207031 209.3842315673828 342.9224853515625 208.2985076904297 347.654541015625 C 206.34580993652344 357.2604675292969 205.16390991210938 362.25140380859375 204.57972717285156 367.11395263671875 C 201.38677978515625 377.02752685546875 200.7869110107422 381.2098388671875 200.0908966064453 384.916015625"/>
    <path stroke-width="0" fill="rgb(0, 0, 0)" opacity="1.0" d="M 450.7096862792969 390.3175048828125 C 449.2266845703125 400.8417053222656 445.3313903808594 408.67578125 442.9350280761719 413.9995422363281 C 441.6080322265625 417.4228515625 439.48193359375 420.83331298828125 437.6421203613281 424.7703857421875 C 437.1483459472656 430.8515319824219 435.4236145019531 435.1807861328125 432.7480773925781 439.4142761230469 C 428.9465637207031 444.708251953125 423.87615966796875 447.32830810546875 419.8924255371094 448.6668395996094 C 413.3352355957031 451.17010498046875 404.6178283691406 451.3489990234375 399.78338623046875 450.1603698730469 C 392.9320373535156 447.8453063964844 386.8861389160156 444.65777587890625 381.254638671875 440.4324951171875 C 376.9684143066406 436.5387878417969 375.1956787109375 435.2330627441406 371.9674377441406 432.8779602050781 C 369.8480529785156 430.5828857421875 368.1261901855469 429.2275390625 367.220458984375 428.69781494140625 C 362.8575439453125 427.0189208984375 360.9178771972656 425.81463623046875 357.4599304199219 423.7091369628906 C 351.59820556640625 423.1579284667969 346.2892150878906 422.44696044921875 338.3832702636719 420.1590270996094 C 333.3149719238281 416.4414367675781 330.2194519042969 413.2996520996094 327.3233337402344 408.6166076660156 C 325.07965087890625 404.6434326171875 323.6808776855469 400.5207824707031 323.244140625 394.9663391113281 C 322.8677978515625 390.8038635253906 322.89044189453125 387.3623962402344 322.45574951171875 383.3180236816406 C 322.5106201171875 379.4170227050781 322.42877197265625 377.9715576171875 322.2966003417969 375.3016662597656 C 321.64837646484375 372.5096435546875 321.5307312011719 371.644775390625 320.74151611328125 367.2897033691406 C 320.1237487792969 366.29754638671875 317.5798034667969 362.4194030761719 315.4117126464844 358.6781311035156 C 313.6306457519531 354.28271484375 311.5964050292969 348.387451171875 310.70745849609375 341.9292297363281 C 310.6864318847656 334.6362609863281 309.7914123535156 326.2981262207031 313.1454772949219 318.3514099121094 C 317.488525390625 311.3526916503906 327.213134765625 315.6536560058594 328.0623474121094 313.4897155761719 C 328.62445068359375 311.2020263671875 329.66229248046875 307.51861572265625 330.7916564941406 304.1311950683594 C 336.1775817871094 305.8307800292969 340.1819763183594 306.84735107421875 341.8115234375 307.1669006347656 C 345.264892578125 311.79083251953125 347.9594421386719 315.9215393066406 350.0874328613281 318.9082946777344 C 346.56951904296875 321.64556884765625 342.45068359375 324.899169921875 335.2537536621094 330.0392150878906 C 334.1273498535156 333.5517578125 334.7837219238281 340.4304504394531 336.180908203125 345.9241638183594 C 338.8736877441406 351.8171081542969 342.2100524902344 360.3821716308594 345.0098876953125 368.1580505371094 C 346.4012451171875 374.93408203125 347.7232666015625 382.1354675292969 348.30926513671875 387.5906066894531 C 348.9585876464844 391.5092468261719 349.5294189453125 392.876220703125 350.2897644042969 393.8980712890625 C 352.755859375 394.9676513671875 360.9319763183594 396.2505798339844 370.55035400390625 396.8869934082031 C 382.95526123046875 403.3376770019531 391.4333190917969 413.08868408203125 398.1019287109375 420.7947692871094 C 402.2779846191406 424.60650634765625 407.4727783203125 427.59161376953125 409.0020446777344 427.552490234375 C 413.0749816894531 426.2239990234375 414.040283203125 425.3183288574219 415.7056884765625 413.3689270019531 C 420.9854431152344 403.1357116699219 426.2060241699219 393.9651184082031 426.0350646972656 391.48516845703125 C 425.378662109375 390.2393493652344 422.79583740234375 387.7114562988281 417.6271057128906 384.43206787109375 C 407.9057312011719 379.1700439453125 398.04705810546875 370.7262878417969 392.0966796875 358.26593017578125 C 393.8479309082031 343.0959777832031 399.4249572753906 328.8528747558594 405.0983581542969 315.4777526855469 C 405.5064392089844 307.7856140136719 403.36602783203125 299.3631286621094 399.2511901855469 290.68609619140625 C 406.9410705566406 288.3507995605469 415.37628173828125 286.10296630859375 427.08502197265625 284.918701171875 C 432.1924133300781 291.9305419921875 435.4840393066406 301.85052490234375 437.61627197265625 308.63970947265625 C 433.9239501953125 310.189208984375 430.6502990722656 311.72564697265625 429.0114440917969 312.5384521484375 C 425.01043701171875 315.6156005859375 431.92315673828125 321.3434753417969 425.68475341796875 331.2115478515625 C 422.22149658203125 341.2866516113281 420.4159851074219 350.6225891113281 420.9227600097656 354.803955078125 C 421.70343017578125 356.2061462402344 422.554443359375 357.44818115234375 424.3774108886719 359.0348205566406 C 427.0570373535156 361.176025390625 430.6140441894531 362.8906555175781 434.47784423828125 365.7659912109375 C 442.2832946777344 371.3829345703125 448.9464416503906 379.3642883300781 450.7096862792969 390.3175048828125"/>
    <path stroke-width="0" fill="rgb(0, 0, 0)" opacity="1.0" d="M 476.1747741699219 445.4243469238281 C 476.87347412109375 443.1774597167969 477.1487731933594 440.3468017578125 477.69207763671875 438.10150146484375 C 478.1581726074219 435.98699951171875 474.6476135253906 434.33880615234375 465.4736633300781 436.4169616699219 C 464.991455078125 430.8101501464844 465.1363525390625 426.1935119628906 466.0753479003906 421.58447265625 C 467.9708557128906 415.3509216308594 470.5818176269531 410.4798278808594 472.16265869140625 407.3731689453125 C 470.7847595214844 412.44921875 470.71026611328125 406.5887145996094 472.2065124511719 400.1148986816406 C 474.6473693847656 393.38726806640625 476.8688049316406 388.2319030761719 479.08294677734375 383.0245361328125 C 481.265380859375 374.466796875 484.657470703125 370.3891296386719 474.6832580566406 375.7297668457031 C 469.7040710449219 385.8341369628906 470.2257995605469 383.3297119140625 471.3477783203125 375.8883361816406 C 472.5262756347656 383.8791809082031 472.05157470703125 381.8891906738281 471.6039123535156 378.3365173339844 C 471.0090026855469 376.4599609375 470.57659912109375 373.84710693359375 470.2002868652344 371.7818603515625 C 472.9095153808594 376.65972900390625 469.77685546875 371.599365234375 465.9566345214844 364.744873046875 C 462.99505615234375 358.2410888671875 462.2042541503906 351.71630859375 462.98187255859375 344.53662109375 C 465.6181640625 335.8010559082031 468.3409423828125 327.8326721191406 470.6766052246094 323.5556335449219 C 469.195068359375 327.47637939453125 469.802001953125 324.8736572265625 469.2576904296875 332.1525573730469 C 469.30999755859375 331.5863342285156 479.05126953125 330.0296325683594 478.9948425292969 329.2012939453125 C 482.92266845703125 328.34820556640625 481.6028747558594 325.0340881347656 480.2469787597656 321.62677001953125 C 483.4420166015625 320.373779296875 486.10784912109375 319.1717834472656 487.3161926269531 318.45245361328125 C 487.2886962890625 316.5924072265625 485.7467346191406 311.6628112792969 488.6900329589844 311.23956298828125 C 488.2208251953125 315.9145202636719 488.57366943359375 316.6814270019531 489.4664611816406 316.8511962890625 C 491.2925109863281 316.66278076171875 493.7721862792969 316.3453063964844 496.1960754394531 316.0281982421875 C 496.597900390625 318.1061096191406 496.908203125 320.2142333984375 497.21142578125 322.398681640625 C 497.59991455078125 324.810546875 501.6607360839844 324.1042175292969 501.96954345703125 325.59832763671875 C 502.2610778808594 326.9143371582031 502.62603759765625 330.6847229003906 501.99920654296875 334.55291748046875 C 499.6464538574219 338.4462585449219 500.47735595703125 336.8664245605469 497.2028503417969 342.4285888671875 C 495.7070617675781 346.21746826171875 494.6649169921875 351.2054138183594 494.7917175292969 352.48028564453125 C 495.22125244140625 353.45294189453125 497.1425476074219 356.0408630371094 501.57647705078125 361.0426330566406 C 501.776611328125 362.3744201660156 502.7683410644531 364.8539123535156 502.977294921875 365.8170471191406 C 505.6747741699219 372.04095458984375 506.65960693359375 377.21673583984375 505.38238525390625 385.489013671875 C 504.4540100097656 390.6705017089844 503.2093505859375 394.67718505859375 502.5726318359375 397.08892822265625 C 504.6818542480469 393.6560974121094 502.175048828125 395.42010498046875 505.7491149902344 391.1712951660156 C 502.40740966796875 397.3310241699219 500.2035217285156 400.8895568847656 498.6172790527344 403.4949035644531 C 497.2494201660156 406.3018493652344 496.8157958984375 407.3741760253906 496.24932861328125 411.68109130859375 C 496.1096496582031 413.3569030761719 496.35247802734375 415.9733581542969 494.97369384765625 419.4566650390625 C 493.3620300292969 422.7087707519531 493.0031433105469 424.0992736816406 492.8271179199219 425.98187255859375 C 500.7054138183594 423.3074035644531 506.90667724609375 424.9848327636719 513.6694946289062 427.0032043457031 C 517.8353271484375 428.8211975097656 523.8328857421875 429.947021484375 530.9199829101562 430.8802795410156 C 535.516357421875 431.8294982910156 540.004150390625 433.4304504394531 544.2259521484375 434.7480773925781 C 548.8980712890625 435.2311706542969 552.0062255859375 435.76800537109375 555.9610595703125 436.4977111816406 C 555.577880859375 439.77593994140625 555.4775390625 443.43719482421875 554.7926635742188 447.89630126953125 C 554.5739135742188 450.2294921875 554.4681396484375 454.6802978515625 554.6249389648438 459.5008850097656 C 550.0130615234375 459.7310791015625 545.5556640625 459.61639404296875 541.8114013671875 459.0042419433594 C 535.2247314453125 456.98529052734375 531.8142700195312 455.5018615722656 527.947021484375 453.33642578125 C 529.5262451171875 453.7919006347656 523.8837890625 452.63934326171875 519.0252075195312 452.43548583984375 C 515.7916870117188 452.262939453125 509.3193359375 451.48748779296875 501.9219970703125 449.4992980957031 C 496.7906188964844 448.1654357910156 502.4331359863281 447.84393310546875 500.27154541015625 448.4704895019531 C 497.0285339355469 449.4190673828125 494.6387023925781 450.1117858886719 491.85406494140625 451.0954895019531 C 489.0212097167969 452.080810546875 488.1212158203125 448.2024841308594 484.1432189941406 448.2649230957031 C 482.35931396484375 447.5784606933594 479.6020202636719 446.6153869628906 476.1747741699219 445.4243469238281"/>
    <path stroke-width="0" fill="rgb(0, 0, 0)" opacity="1.0" d="M 116.22105407714844 330.4402160644531 C 106.83744812011719 331.3638000488281 97.9906997680664 329.0912780761719 90.52440643310547 324.3405456542969 C 83.18628692626953 319.1912841796875 76.71666717529297 312.8636779785156 73.00617980957031 305.2685546875 C 69.42522430419922 296.01763916015625 67.13615417480469 290.2585144042969 65.69075775146484 283.3063659667969 C 61.67584991455078 279.8951721191406 59.61380386352539 277.389892578125 52.809104919433594 272.1363525390625 C 41.824462890625 263.7665710449219 38.930877685546875 253.40032958984375 41.19570541381836 241.41104125976562 C 46.60818099975586 230.46446228027344 55.6679801940918 221.640625 57.14745330810547 219.4114532470703 C 60.76532745361328 213.34841918945312 66.11425018310547 203.70632934570312 74.21702575683594 196.82293701171875 C 84.62326049804688 191.52484130859375 97.29051208496094 192.1365966796875 105.79806518554688 194.61691284179688 C 111.84383392333984 194.2866668701172 118.51002502441406 193.8213348388672 126.98318481445312 193.3670654296875 C 127.33911895751953 194.45700073242188 127.7452621459961 195.58570861816406 128.02664184570312 196.56565856933594 C 125.22802734375 195.91993713378906 121.46173095703125 194.79937744140625 117.14019775390625 192.60955810546875 C 114.43307495117188 191.3068084716797 110.38945770263672 190.13943481445312 105.110107421875 188.85284423828125 C 102.47791290283203 187.59469604492188 99.17613983154297 186.85000610351562 95.9909896850586 186.60621643066406 C 89.42659759521484 185.63722229003906 86.82430267333984 185.29530334472656 78.05120086669922 183.58334350585938 C 71.43611145019531 180.05648803710938 69.34223937988281 179.28514099121094 66.48751831054688 178.80593872070312 C 63.96369171142578 178.3818359375 60.25611114501953 178.2464141845703 57.659061431884766 178.59707641601562 C 57.67325210571289 169.15589904785156 59.38090896606445 159.4261016845703 61.65694046020508 151.22142028808594 C 65.15650177001953 151.41127014160156 68.34211730957031 151.64077758789062 73.67578125 152.58224487304688 C 76.68090057373047 153.4808807373047 81.10205078125 154.61883544921875 84.21285247802734 155.99407958984375 C 89.38253021240234 158.1068878173828 90.27838897705078 158.3986053466797 92.39261627197266 158.80775451660156 C 99.36811828613281 158.68321228027344 107.3336410522461 160.58905029296875 112.83699035644531 162.29603576660156 C 118.51338958740234 165.5839385986328 122.93106842041016 168.26419067382812 127.52713012695312 171.09178161621094 C 134.13455200195312 176.0236053466797 138.97509765625 178.75564575195312 140.09254455566406 179.3841094970703 C 140.97433471679688 179.91668701171875 140.30198669433594 178.2121124267578 143.01504516601562 178.34031677246094 C 147.1562957763672 179.08885192871094 148.31175231933594 179.05694580078125 152.24160766601562 180.0350341796875 C 151.65553283691406 187.4073944091797 152.55007934570312 195.2763214111328 152.24813842773438 202.16659545898438 C 150.26071166992188 201.97409057617188 146.90501403808594 202.45840454101562 144.4353790283203 203.43328857421875 C 143.2088623046875 204.07400512695312 139.2707061767578 209.6065216064453 132.65859985351562 215.8043670654297 C 122.3345947265625 220.28070068359375 112.78804016113281 222.7489013671875 99.65320587158203 222.63389587402344 C 90.90215301513672 221.21035766601562 89.40716552734375 221.4656524658203 87.60733795166016 222.72769165039062 C 82.77066802978516 226.5992431640625 75.71146392822266 234.99789428710938 68.9271240234375 241.6563720703125 C 67.12679290771484 245.20870971679688 67.36075592041016 248.9266815185547 68.91665649414062 251.0950164794922 C 73.52877044677734 255.4405059814453 81.45850372314453 261.1763610839844 89.408447265625 270.1031188964844 C 93.72505187988281 283.4981689453125 95.85435485839844 294.1643371582031 99.84893798828125 300.6015930175781 C 101.65020751953125 304.63995361328125 104.22370910644531 307.3558044433594 107.13292694091797 309.2543029785156 C 108.4897689819336 309.74993896484375 110.9857406616211 309.9897155761719 114.82137298583984 309.98358154296875 C 118.69683074951172 309.3192443847656 124.14205932617188 305.3038635253906 130.24844360351562 301.3710632324219 C 141.44410705566406 293.6203918457031 152.32382202148438 286.92230224609375 161.58734130859375 280.69793701171875 C 165.90321350097656 290.8253173828125 168.6894989013672 294.47137451171875 174.5492401123047 303.2879943847656 C 163.59263610839844 312.62945556640625 147.65872192382812 320.4905090332031 137.80421447753906 323.320068359375 C 129.99732971191406 325.8514404296875 123.32463836669922 328.5442810058594 116.22105407714844 330.4402160644531"/>
    <path stroke-width="0" fill="rgb(0, 0, 0)" opacity="1.0" d="M 169.2610626220703 305.6028747558594 C 167.36962890625 297.063232421875 165.77194213867188 291.0353088378906 161.6856689453125 282.57391357421875 C 173.72137451171875 278.401611328125 185.33338928222656 276.51483154296875 195.46446228027344 274.1312561035156 C 201.7638397216797 270.31951904296875 207.4147491455078 264.2900085449219 214.0022430419922 257.7986755371094 C 221.60508728027344 253.83187866210938 227.1334991455078 249.07688903808594 228.84059143066406 245.93572998046875 C 229.40664672851562 240.99705505371094 228.9619598388672 234.089111328125 226.67245483398438 224.83663940429688 C 227.07693481445312 218.74496459960938 228.1166534423828 214.10629272460938 228.50392150878906 210.46170043945312 C 228.41976928710938 208.38156127929688 228.19851684570312 207.5564727783203 227.44100952148438 205.16485595703125 C 227.1121368408203 203.2338409423828 236.02215576171875 212.49087524414062 230.09181213378906 209.39581298828125 C 227.10470581054688 206.27842712402344 224.15530395507812 204.6431121826172 223.777099609375 204.46194458007812 C 221.41090393066406 204.00633239746094 220.43780517578125 204.34693908691406 218.67201232910156 206.611083984375 C 217.91238403320312 207.65951538085938 217.24647521972656 209.21798706054688 216.31553649902344 213.27801513671875 C 216.8302459716797 205.75209045410156 217.41677856445312 212.35755920410156 217.79644775390625 213.95745849609375 C 218.5743865966797 217.154296875 220.3670196533203 221.6837615966797 221.9737091064453 223.91287231445312 C 222.75848388671875 225.62783813476562 223.787841796875 227.2743377685547 224.70518493652344 228.01388549804688 C 225.71571350097656 228.97531127929688 207.43667602539062 229.17752075195312 210.52102661132812 228.03033447265625 C 212.78810119628906 227.12940979003906 216.36474609375 225.12374877929688 220.8126678466797 222.73094177246094 C 225.91217041015625 220.86050415039062 229.81468200683594 219.7874298095703 233.43994140625 218.2078857421875 C 233.26498413085938 226.59268188476562 235.02737426757812 234.8905487060547 235.91815185546875 242.67294311523438 C 232.96807861328125 245.41180419921875 230.0260009765625 247.16163635253906 227.0745086669922 247.68313598632812 C 223.78704833984375 258.7046813964844 214.13790893554688 265.01544189453125 208.76991271972656 263.46405029296875 C 206.37924194335938 262.7776794433594 202.79905700683594 260.99066162109375 196.30780029296875 256.9103698730469 C 195.09768676757812 256.379150390625 192.46841430664062 254.4676055908203 190.88818359375 252.28985595703125 C 187.7076416015625 246.1988983154297 183.98463439941406 242.48924255371094 182.9939422607422 239.67909240722656 C 181.31541442871094 233.4208984375 181.14532470703125 231.42724609375 181.5651092529297 223.02838134765625 C 182.0387420654297 218.04812622070312 182.94418334960938 211.22793579101562 184.55242919921875 204.29043579101562 C 186.1993408203125 199.25828552246094 189.04660034179688 193.88218688964844 193.30020141601562 189.37867736816406 C 196.52947998046875 183.4441375732422 201.49008178710938 177.65689086914062 206.60755920410156 173.65966796875 C 213.65574645996094 168.09164428710938 220.27694702148438 166.42422485351562 229.06622314453125 165.93185424804688 C 236.26492309570312 167.1923370361328 243.7991943359375 168.17230224609375 248.03424072265625 170.78970336914062 C 254.21017456054688 173.76864624023438 258.0780334472656 177.39739990234375 263.8888854980469 184.0717315673828 C 266.79742431640625 189.44227600097656 269.0406799316406 195.301025390625 271.48114013671875 202.12388610839844 C 272.650634765625 207.95262145996094 274.0172424316406 216.50001525878906 274.40234375 221.95750427246094 C 273.038818359375 236.8041229248047 261.5151062011719 253.08831787109375 250.46279907226562 263.4002685546875 C 241.87677001953125 271.8747253417969 232.88514709472656 277.67132568359375 223.36000061035156 283.79425048828125 C 209.9604949951172 295.8670349121094 189.81924438476562 303.71771240234375 169.2610626220703 305.6028747558594"/>
    <path stroke-width="0" fill="rgb(0, 0, 0)" opacity="1.0" d="M 276.5147705078125 307.2983093261719 C 272.0457763671875 300.275390625 268.7452392578125 293.429443359375 265.1469421386719 287.498779296875 C 274.5101623535156 281.94122314453125 285.57464599609375 273.41766357421875 296.228271484375 265.1138916015625 C 306.9212341308594 259.4645690917969 315.7816162109375 255.032470703125 317.9893798828125 251.40655517578125 C 319.8143615722656 247.4718780517578 319.4923095703125 243.39993286132812 316.73468017578125 238.59815979003906 C 314.63592529296875 233.3948211669922 312.5396423339844 229.27334594726562 310.1330871582031 224.43690490722656 C 309.0539245605469 217.94004821777344 307.4176025390625 212.63522338867188 306.23406982421875 209.73585510253906 C 304.6012268066406 205.50372314453125 303.087646484375 201.6717987060547 301.5581359863281 198.2989044189453 C 308.2502136230469 195.2112274169922 314.2568664550781 192.5608367919922 321.55010986328125 189.6549530029297 C 325.5044860839844 196.0396270751953 328.7161560058594 202.73638916015625 330.5379943847656 209.82855224609375 C 333.1047058105469 215.314453125 336.0118408203125 220.8679962158203 337.9195251464844 226.0696563720703 C 340.40167236328125 230.57687377929688 342.80572509765625 235.7396240234375 344.0270080566406 242.98106384277344 C 344.5306091308594 250.6925506591797 342.6694641113281 258.8970947265625 339.1011047363281 265.74810791015625 C 334.3253173828125 271.5113525390625 328.1213684082031 276.4230041503906 319.98431396484375 279.75830078125 C 314.53521728515625 283.0337829589844 308.6611328125 286.81817626953125 301.8644714355469 290.48822021484375 C 294.731689453125 296.73114013671875 285.3074035644531 303.47613525390625 276.5147705078125 307.2983093261719"/>
  </g>
</svg>
