<?xml version="1.0" ?>
<svg xmlns="http://www.w3.org/2000/svg" version="1.1" width="600" height="600">
  <defs/>
  <g>
    <path stroke-width="0" fill="rgb(0, 0, 0)" opacity="1.0" d="M 136.6345672607422 415.26953125 C 133.0282440185547 419.2664489746094 134.0271453857422 415.55059814453125 133.0181427001953 418.8841247558594 C 133.676513671875 414.5542907714844 133.149658203125 416.7640075683594 132.50364685058594 418.954833984375 C 132.0911865234375 422.887451171875 131.3628692626953 426.3421630859375 130.67193603515625 427.51434326171875 C 129.5312042236328 434.1528625488281 126.76250457763672 439.2940673828125 123.04151916503906 443.4252014160156 C 118.10406494140625 447.30035400390625 114.14228820800781 449.71893310546875 108.8633804321289 452.7815246582031 C 103.8414077758789 453.42529296875 100.0899887084961 453.61077880859375 95.88133239746094 451.9231262207031 C 90.61161804199219 449.8433837890625 93.333251953125 450.5823974609375 87.47661590576172 448.07720947265625 C 82.41563415527344 446.1275634765625 83.41461181640625 446.6268310546875 79.89608764648438 445.9537658691406 C 75.46178436279297 445.2737121582031 71.72865295410156 445.18084716796875 73.32276153564453 444.3407897949219 C 68.45169830322266 446.12274169921875 63.37347412109375 448.9388122558594 54.582759857177734 452.76226806640625 C 45.034244537353516 454.1324462890625 38.291526794433594 452.9864501953125 32.46903991699219 450.7137756347656 C 31.869327545166016 445.1979064941406 30.986366271972656 439.9908752441406 31.72369956970215 435.3612976074219 C 32.24443817138672 429.41790771484375 33.1920280456543 424.1496276855469 34.204864501953125 419.6304626464844 C 37.257080078125 421.48504638671875 40.933753967285156 423.6147766113281 43.78880310058594 425.1785888671875 C 48.52692413330078 427.1761474609375 48.35434341430664 425.13043212890625 51.954490661621094 424.8003845214844 C 57.593963623046875 422.8858947753906 66.40729522705078 419.9324951171875 74.77037048339844 420.044189453125 C 84.64344787597656 421.14788818359375 93.0873031616211 423.1774597167969 100.4949722290039 425.7244567871094 C 104.63250732421875 428.54974365234375 100.36720275878906 428.2669677734375 101.43389129638672 427.66656494140625 C 101.9338150024414 427.25091552734375 102.6947250366211 426.22222900390625 103.96107482910156 420.7148132324219 C 104.60621643066406 417.3944091796875 105.1123046875 411.8899230957031 106.89529418945312 405.932373046875 C 113.06588745117188 397.6622619628906 115.10591125488281 392.23480224609375 114.49337005615234 391.32275390625 C 114.1216049194336 391.00555419921875 111.94903564453125 390.2557678222656 105.45530700683594 390.37359619140625 C 102.93194580078125 390.2067565917969 107.4559097290039 390.75048828125 103.64265441894531 391.03253173828125 C 99.60885620117188 390.69073486328125 95.46199798583984 389.2267761230469 91.11446380615234 387.4367980957031 C 86.79449462890625 384.96533203125 82.69081115722656 381.36968994140625 78.9249038696289 377.2850341796875 C 75.02735137939453 373.897705078125 71.76769256591797 370.57305908203125 69.36083221435547 368.20721435546875 C 66.7030029296875 365.0907287597656 65.3655014038086 363.3271789550781 63.231719970703125 359.91705322265625 C 62.17978286743164 357.5133361816406 61.956634521484375 356.73419189453125 63.89606475830078 359.9739685058594 C 62.928138732910156 358.63726806640625 61.510597229003906 356.1662902832031 59.674598693847656 352.18353271484375 C 57.12955856323242 346.4385070800781 56.42794418334961 341.9521789550781 56.27485275268555 335.7915344238281 C 55.980499267578125 332.89825439453125 56.57992935180664 329.01239013671875 58.810543060302734 326.28125 C 63.34332275390625 321.58538818359375 68.44316101074219 317.36077880859375 71.0092544555664 316.0164489746094 C 74.90847778320312 314.38568115234375 79.75849151611328 313.1365966796875 84.03162384033203 313.0655212402344 C 88.56855010986328 313.1323547363281 93.0015640258789 313.939453125 97.7868881225586 315.7713623046875 C 101.30028533935547 317.0750427246094 104.94178009033203 318.3187255859375 108.28729248046875 319.4486999511719 C 110.85169982910156 319.8992919921875 113.80496978759766 320.3827819824219 116.56041717529297 320.59033203125 C 119.3814697265625 320.63751220703125 122.4530029296875 320.73809814453125 125.14464569091797 320.7553405761719 C 128.45571899414062 320.68499755859375 131.73275756835938 320.5281066894531 135.3531494140625 320.5149841308594 C 139.0171356201172 320.5717468261719 142.81072998046875 320.8564453125 146.5415802001953 321.83636474609375 C 145.2296905517578 325.7379150390625 144.31246948242188 329.8565979003906 143.6997833251953 334.08538818359375 C 143.12850952148438 336.8567199707031 143.0369110107422 339.9196472167969 140.41770935058594 342.6607360839844 C 138.5808868408203 340.8674011230469 136.85557556152344 344.6062316894531 133.593994140625 344.52960205078125 C 130.57443237304688 344.9278259277344 127.36551666259766 345.3418884277344 123.15531921386719 345.7686767578125 C 119.28719329833984 345.4283142089844 116.50129699707031 345.5254821777344 111.18487548828125 345.4392395019531 C 107.1791763305664 343.978515625 102.79902648925781 342.3182373046875 100.32300567626953 341.178466796875 C 97.42432403564453 339.42608642578125 94.09408569335938 338.5242614746094 92.92987823486328 338.5290832519531 C 89.68836212158203 338.8325500488281 85.66986083984375 339.98663330078125 83.18612670898438 341.3723449707031 C 82.12030792236328 341.9674377441406 84.54039764404297 336.718994140625 84.96542358398438 338.47491455078125 C 87.02081298828125 344.07647705078125 88.78877258300781 347.9228210449219 93.0250244140625 353.2110900878906 C 95.70271301269531 356.8873291015625 98.54998779296875 359.69677734375 102.43364715576172 362.2908935546875 C 98.60826873779297 361.11785888671875 101.30628204345703 361.983154296875 105.322021484375 363.2246398925781 C 102.03010559082031 362.7969970703125 103.31597137451172 362.77984619140625 105.28277587890625 362.4891052246094 C 108.30342864990234 362.60455322265625 115.92623901367188 362.0011291503906 120.87367248535156 363.4070739746094 C 127.66223907470703 365.44549560546875 129.70941162109375 366.4632873535156 133.52761840820312 368.48284912109375 C 136.6078338623047 370.812744140625 139.40187072753906 373.4704895019531 140.8371124267578 375.3047180175781 C 143.48101806640625 378.8605651855469 145.2676239013672 382.5367126464844 146.78811645507812 388.3677978515625 C 147.01223754882812 394.0686340332031 145.3056182861328 400.7301025390625 140.87149047851562 408.09765625 C 139.6103057861328 411.0270690917969 138.76095581054688 412.3237609863281 136.6345672607422 415.26953125"/>
    <path stroke-width="0" fill="rgb(0, 0, 0)" opacity="1.0" d="M 280.3924560546875 383.2481384277344 C 281.97088623046875 387.7490234375 282.76171875 389.9309997558594 284.47357177734375 395.4532470703125 C 287.4404602050781 400.5287170410156 287.55413818359375 402.16510009765625 287.9727478027344 405.1341247558594 C 292.1567077636719 413.6014709472656 292.95013427734375 420.51220703125 291.5487365722656 425.8695983886719 C 290.56683349609375 431.1384582519531 288.4271545410156 437.1645812988281 285.3939514160156 442.1148681640625 C 286.811279296875 439.4277648925781 283.8441162109375 444.4548645019531 280.554443359375 448.4892883300781 C 275.4888610839844 453.34307861328125 268.9854736328125 456.55877685546875 261.0712585449219 459.5212707519531 C 254.78192138671875 459.9407653808594 245.37203979492188 457.9699401855469 238.4278106689453 455.95068359375 C 234.8982391357422 455.6318359375 227.7187957763672 455.7662048339844 221.20382690429688 454.53155517578125 C 216.79034423828125 454.3321228027344 214.72039794921875 454.76953125 209.07447814941406 455.7557373046875 C 204.5167694091797 456.74810791015625 196.9713897705078 457.9231872558594 192.22525024414062 457.5622863769531 C 182.5854949951172 455.8106384277344 177.88006591796875 452.9664306640625 175.70291137695312 451.08392333984375 C 172.07199096679688 448.6899108886719 168.68856811523438 445.0556335449219 165.8993377685547 441.0804443359375 C 163.46829223632812 435.31121826171875 161.69580078125 431.88861083984375 159.79327392578125 427.3185119628906 C 158.9396209716797 422.34796142578125 159.1194610595703 416.33148193359375 165.50125122070312 404.3369445800781 C 171.1526336669922 397.4739074707031 171.23016357421875 397.2020568847656 171.9134979248047 394.7457275390625 C 171.92930603027344 392.7415466308594 172.56582641601562 401.4084167480469 179.0985870361328 388.6177062988281 C 181.168701171875 383.15545654296875 182.14918518066406 379.4876708984375 182.4510498046875 378.5035705566406 C 182.67222595214844 376.0793762207031 182.9489288330078 371.656005859375 184.0330047607422 362.8858642578125 C 184.3419647216797 357.5110168457031 184.38763427734375 355.4427185058594 183.486572265625 346.0720520019531 C 184.53488159179688 341.1116943359375 185.7350616455078 338.23394775390625 188.06813049316406 333.9643859863281 C 191.2067108154297 329.7489013671875 195.21583557128906 326.4224548339844 200.290283203125 322.7507629394531 C 205.92547607421875 318.5560607910156 209.42172241210938 316.8689880371094 214.3030548095703 313.9227294921875 C 216.7650604248047 312.6697082519531 221.74151611328125 311.2530517578125 223.66590881347656 310.9093017578125 C 217.74169921875 311.63916015625 222.10171508789062 309.74371337890625 227.0382843017578 308.3069152832031 C 233.44125366210938 306.3910827636719 236.2728729248047 306.4510192871094 240.5282440185547 306.7181091308594 C 244.64683532714844 308.0634765625 248.02835083007812 309.1452941894531 251.16477966308594 310.0207824707031 C 257.1788024902344 312.34039306640625 262.7980651855469 316.9139099121094 266.6783142089844 321.7497863769531 C 269.4327087402344 324.84149169921875 271.4394836425781 327.1647033691406 274.1563720703125 333.20147705078125 C 276.9636535644531 339.7166442871094 277.86309814453125 343.3935241699219 277.2583923339844 352.3932189941406 C 277.39276123046875 355.1203918457031 277.33941650390625 359.5469665527344 277.3421936035156 367.07513427734375 C 277.4200439453125 369.3619384765625 277.2786560058594 370.93267822265625 277.8584289550781 373.6021423339844 C 278.4441833496094 375.6122741699219 279.88037109375 379.9113464355469 280.3924560546875 383.2481384277344M 205.949462890625 391.4778137207031 C 204.07228088378906 402.0960693359375 202.518798828125 393.97003173828125 201.23611450195312 401.338623046875 C 201.1010284423828 402.095703125 191.6165771484375 417.0931396484375 192.0316619873047 419.7175598144531 C 192.25848388671875 424.9456787109375 194.05072021484375 428.6267395019531 196.75466918945312 431.3365783691406 C 199.439208984375 433.7247619628906 202.2864227294922 434.7317199707031 207.4958038330078 435.2776794433594 C 212.09033203125 435.6604919433594 215.87786865234375 435.0798034667969 220.4775848388672 434.3725891113281 C 227.0734100341797 433.62548828125 234.25430297851562 432.8941345214844 240.4713897705078 432.87164306640625 C 248.78994750976562 432.4697265625 252.43814086914062 431.9333190917969 255.01553344726562 430.3156433105469 C 258.4944763183594 427.1820983886719 261.29339599609375 422.6395568847656 261.85888671875 416.430419921875 C 261.1839904785156 407.26629638671875 261.15277099609375 403.04083251953125 261.2896728515625 406.5318603515625 C 260.069091796875 398.3752136230469 258.674072265625 393.2869567871094 256.5960388183594 387.5444030761719 C 254.26658630371094 377.0139465332031 253.06626892089844 367.0460205078125 250.91746520996094 358.2890930175781 C 251.09117126464844 352.2298889160156 250.20518493652344 347.2727355957031 248.68312072753906 344.12603759765625 C 246.67550659179688 341.664794921875 244.79330444335938 339.09918212890625 242.10499572753906 337.55767822265625 C 238.6636199951172 336.27099609375 235.6726531982422 335.95263671875 233.48898315429688 335.93048095703125 C 230.94888305664062 336.5324401855469 228.75167846679688 337.6656188964844 226.62625122070312 338.19024658203125 C 224.31211853027344 338.73077392578125 222.164794921875 339.8102111816406 218.84661865234375 342.00653076171875 C 214.06417846679688 345.2961730957031 210.9163055419922 350.4674987792969 209.77725219726562 354.3065490722656 C 209.4085693359375 355.45574951171875 208.24734497070312 361.32550048828125 207.66824340820312 369.72015380859375 C 206.91639709472656 376.2010498046875 206.60116577148438 384.6500244140625 205.949462890625 391.4778137207031"/>
    <path stroke-width="0" fill="rgb(0, 0, 0)" opacity="1.0" d="M 448.12109375 391.3926086425781 C 447.6273498535156 400.029541015625 443.9091491699219 407.73333740234375 442.2643737792969 411.4721984863281 C 440.9169006347656 414.8641052246094 439.47357177734375 417.33380126953125 439.034423828125 419.85821533203125 C 440.25482177734375 427.2715759277344 438.8353576660156 433.5450439453125 436.33038330078125 438.07696533203125 C 432.58349609375 444.1591491699219 427.3949279785156 447.8828430175781 420.9369201660156 449.8571472167969 C 414.99517822265625 451.852294921875 408.34088134765625 452.0304870605469 400.7999572753906 451.1565246582031 C 393.4749450683594 448.3600769042969 386.42645263671875 443.88916015625 380.9851379394531 438.628173828125 C 377.58868408203125 435.12933349609375 375.1665344238281 433.68414306640625 373.9556579589844 432.98809814453125 C 373.3066711425781 432.5684509277344 371.61724853515625 432.0873107910156 370.732421875 431.8532409667969 C 366.6210021972656 431.06365966796875 365.3586120605469 430.8058776855469 358.8423767089844 430.1519470214844 C 350.84765625 429.3153991699219 343.3712463378906 426.7269287109375 337.3506774902344 421.72723388671875 C 333.36981201171875 417.9567565917969 329.8119201660156 413.3749694824219 327.0840148925781 409.06201171875 C 325.16827392578125 404.9076232910156 324.0694885253906 399.97467041015625 324.1519470214844 394.50286865234375 C 324.4441223144531 389.9962158203125 324.50872802734375 386.8159484863281 324.6098327636719 381.9413757324219 C 325.0710754394531 376.2632751464844 324.961669921875 374.2320556640625 324.7768249511719 371.7482604980469 C 324.672607421875 371.1819152832031 323.5686340332031 368.10467529296875 322.50555419921875 366.86199951171875 C 320.6460266113281 364.21209716796875 318.8648986816406 362.4354248046875 315.8313903808594 359.5502624511719 C 311.05242919921875 355.24322509765625 306.159423828125 349.2829895019531 303.652099609375 341.03369140625 C 301.7821044921875 332.4671325683594 302.7554931640625 322.4738464355469 306.5975341796875 314.8158874511719 C 309.03643798828125 312.2068786621094 315.2326965332031 319.1711730957031 316.53472900390625 318.5874938964844 C 318.45672607421875 317.4552001953125 320.9436950683594 316.40606689453125 322.9974670410156 315.4359436035156 C 324.59466552734375 318.75048828125 325.8785400390625 321.00439453125 328.82171630859375 317.5279235839844 C 330.2408447265625 319.6839599609375 331.5402526855469 321.6903381347656 332.8040771484375 323.5046081542969 C 330.7538757324219 324.9746398925781 328.44671630859375 327.05682373046875 325.4574279785156 329.39422607421875 C 325.09381103515625 330.42852783203125 326.7213134765625 335.930419921875 329.0859069824219 339.7256774902344 C 334.9884033203125 345.581298828125 342.3129577636719 353.86029052734375 347.2539978027344 363.5990295410156 C 349.0780944824219 372.80145263671875 347.74224853515625 381.91046142578125 347.50152587890625 388.2620849609375 C 348.2631530761719 394.02008056640625 349.8186340332031 397.9844665527344 352.2684631347656 401.6731262207031 C 355.83489990234375 405.2409973144531 359.3392028808594 406.6749572753906 366.33526611328125 406.9927673339844 C 376.83740234375 408.4173278808594 387.42266845703125 413.4992980957031 396.8204040527344 422.9447937011719 C 402.0716857910156 429.16021728515625 405.4134216308594 431.0715026855469 409.16485595703125 430.20330810546875 C 415.40777587890625 428.2741394042969 416.74114990234375 426.5358581542969 417.0802307128906 416.14849853515625 C 421.5461730957031 403.5749206542969 427.57366943359375 394.5027770996094 427.12066650390625 392.9259948730469 C 425.4162292480469 390.1881103515625 422.1606140136719 386.678955078125 416.4073486328125 382.1845397949219 C 405.4834899902344 376.6506042480469 396.47540283203125 366.6752014160156 390.0751647949219 354.2162170410156 C 386.7644348144531 338.62957763671875 389.8497314453125 322.5753173828125 398.0946350097656 309.94561767578125 C 401.349365234375 302.1128845214844 404.8053283691406 292.4730224609375 408.278564453125 283.8426818847656 C 415.5166015625 286.63433837890625 420.985107421875 289.1538391113281 423.915771484375 289.9869384765625 C 424.23046875 290.787353515625 428.7183837890625 294.0465393066406 434.7165222167969 297.802978515625 C 432.1714172363281 301.82891845703125 429.021240234375 306.1225280761719 424.8546142578125 311.04278564453125 C 418.7531433105469 316.5843505859375 420.8994445800781 319.3869323730469 413.552734375 327.2005920410156 C 410.5599060058594 334.1336975097656 410.5557556152344 340.89794921875 413.0277099609375 348.7365417480469 C 415.91461181640625 353.94158935546875 417.86383056640625 357.1982727050781 420.9915771484375 360.03179931640625 C 422.6790771484375 361.730224609375 427.429443359375 364.32049560546875 431.7893371582031 367.6425476074219 C 439.20928955078125 373.3390197753906 445.1792297363281 381.7765197753906 448.12109375 391.3926086425781"/>
    <path stroke-width="0" fill="rgb(0, 0, 0)" opacity="1.0" d="M 473.1654968261719 444.98687744140625 C 474.0490417480469 442.6670227050781 474.73175048828125 440.4195556640625 475.18060302734375 438.9483947753906 C 472.4757385253906 438.5632629394531 469.91571044921875 438.33599853515625 467.2082824707031 438.75823974609375 C 466.72650146484375 433.629638671875 466.80926513671875 428.3558044433594 467.54010009765625 423.4959716796875 C 468.7510986328125 417.7710266113281 470.8638000488281 411.4197082519531 474.2229309082031 405.6630859375 C 473.69757080078125 406.7292785644531 476.1367492675781 401.5132141113281 479.25439453125 397.5614318847656 C 482.2074890136719 393.62457275390625 485.5291442871094 389.6819763183594 487.9915466308594 385.18487548828125 C 491.7995300292969 373.7088928222656 495.47857666015625 371.7222900390625 483.679931640625 375.8243408203125 C 473.92340087890625 382.6741027832031 474.9263916015625 380.06561279296875 475.2344055175781 379.1516418457031 C 475.5298156738281 388.0296630859375 474.9209289550781 385.0681457519531 474.2184143066406 383.17181396484375 C 472.25079345703125 377.3087158203125 474.69696044921875 387.421630859375 466.5322265625 377.7189025878906 C 469.5774841308594 382.1703186035156 464.66693115234375 376.6370849609375 459.9926452636719 367.46075439453125 C 454.5613098144531 357.3172912597656 452.5378723144531 349.94635009765625 452.1868896484375 336.7271423339844 C 457.0484313964844 318.5636291503906 462.734130859375 311.7108154296875 484.30877685546875 306.5412902832031 C 471.13507080078125 330.742431640625 471.94317626953125 328.41351318359375 469.26617431640625 335.7822265625 C 471.280029296875 334.9985656738281 475.8650817871094 332.0598449707031 479.8666687011719 328.6169128417969 C 482.1644592285156 325.73748779296875 479.4763488769531 325.7384948730469 476.5248718261719 325.8766174316406 C 476.1352233886719 322.6335754394531 475.9770202636719 319.82269287109375 476.195068359375 314.5868835449219 C 478.3385314941406 311.74664306640625 479.6668395996094 310.6985168457031 482.599609375 309.5861511230469 C 491.91668701171875 310.96502685546875 490.4176330566406 315.55157470703125 493.7977600097656 316.2699279785156 C 495.0353088378906 316.8148193359375 496.5774841308594 317.2208557128906 498.5382080078125 317.3780517578125 C 498.21563720703125 318.9881896972656 497.9253234863281 320.8680725097656 497.42724609375 322.8980712890625 C 497.3221130371094 323.1280822753906 496.8056640625 326.8228454589844 500.8865661621094 328.4826965332031 C 505.42315673828125 329.6519470214844 505.4288635253906 340.4392395019531 504.0455017089844 343.67169189453125 C 502.793701171875 346.4890441894531 504.44622802734375 345.5823974609375 502.5020446777344 346.6128234863281 C 501.7269592285156 347.6703796386719 501.33184814453125 349.2273254394531 501.4507141113281 350.4000549316406 C 502.3506164550781 352.3870544433594 503.0781555175781 353.9349365234375 504.181884765625 355.5633544921875 C 506.05059814453125 360.77081298828125 506.7615661621094 362.5477294921875 510.0716247558594 370.4736328125 C 510.5804748535156 372.42095947265625 511.576171875 380.99053955078125 509.70562744140625 388.23126220703125 C 508.2977294921875 392.9704284667969 505.0502014160156 398.59722900390625 501.8350830078125 403.328857421875 C 506.21405029296875 399.33343505859375 505.3667297363281 399.6488342285156 509.680908203125 395.5120849609375 C 505.45172119140625 400.0211181640625 502.35040283203125 404.11138916015625 499.5576477050781 407.0476989746094 C 496.8773193359375 409.9998779296875 495.1166687011719 412.2176513671875 493.6842956542969 414.4258728027344 C 493.12969970703125 415.73046875 492.43353271484375 417.5105285644531 491.5049133300781 418.8355407714844 C 490.6080627441406 421.2211608886719 490.3634338378906 423.3037414550781 490.22467041015625 428.4505920410156 C 497.3874816894531 424.106201171875 506.0444641113281 422.5650634765625 513.2603759765625 422.5977783203125 C 522.9567260742188 424.7469787597656 529.595458984375 429.6780090332031 534.5571899414062 434.44769287109375 C 538.3004150390625 437.192138671875 540.7365112304688 440.2147216796875 544.2034301757812 441.5604553222656 C 548.0433959960938 440.8343200683594 552.128662109375 439.8644714355469 556.709228515625 438.8482360839844 C 557.6004638671875 442.49334716796875 558.9530029296875 447.276123046875 560.0803833007812 452.13568115234375 C 555.7835083007812 451.9515686035156 556.8477172851562 457.0861511230469 557.947265625 461.65643310546875 C 554.048095703125 462.42523193359375 548.9083251953125 463.4806823730469 545.7476196289062 464.43115234375 C 536.7095336914062 462.92132568359375 528.728515625 458.5848693847656 523.3976440429688 452.1740417480469 C 524.1093139648438 452.9085693359375 518.6253662109375 447.9172668457031 514.9052124023438 444.3926086425781 C 512.6983032226562 443.16314697265625 510.8533020019531 442.3884582519531 507.8456726074219 441.8888244628906 C 503.7572326660156 441.55206298828125 504.4612121582031 441.2301330566406 500.15447998046875 444.1704406738281 C 495.4430847167969 445.954345703125 492.0355529785156 447.2087097167969 487.4062194824219 447.9952697753906 C 483.56695556640625 448.81689453125 483.19415283203125 447.46551513671875 481.2694091796875 447.92822265625 C 478.7568664550781 446.92156982421875 476.2637939453125 446.11737060546875 473.1654968261719 444.98687744140625"/>
    <path stroke-width="0" fill="rgb(0, 0, 0)" opacity="1.0" d="M 118.16315460205078 334.6702575683594 C 107.48448181152344 334.27606201171875 98.63348388671875 330.4857177734375 91.2808609008789 324.88702392578125 C 84.29525756835938 318.751220703125 77.8538818359375 311.5645446777344 74.66764068603516 303.7301025390625 C 71.13711547851562 292.9184875488281 70.51458740234375 291.6241760253906 69.3190689086914 289.2470397949219 C 63.77662658691406 286.1581726074219 57.64604187011719 282.711181640625 47.9013671875 275.54913330078125 C 37.696136474609375 265.9080810546875 33.416812896728516 253.8044891357422 34.43750762939453 239.33045959472656 C 36.146636962890625 227.09384155273438 45.08021545410156 216.56434631347656 53.77484893798828 211.63409423828125 C 61.52353286743164 206.39022827148438 69.28397369384766 203.6117706298828 79.71875 200.91653442382812 C 88.98709869384766 199.3742218017578 99.04574584960938 200.46246337890625 105.96202850341797 201.7173614501953 C 111.64917755126953 200.373046875 118.97830963134766 197.20263671875 127.64822387695312 195.7830810546875 C 127.83837890625 196.49949645996094 128.0461883544922 197.31617736816406 128.23184204101562 197.97410583496094 C 126.2244873046875 197.4758758544922 123.36302947998047 196.42576599121094 118.9793701171875 193.3997802734375 C 114.62349700927734 189.5307159423828 113.35791778564453 188.841796875 108.93247985839844 187.3617401123047 C 104.8211669921875 186.0869903564453 100.41948699951172 184.322021484375 96.5624008178711 182.7293243408203 C 90.85262298583984 181.01385498046875 86.3786392211914 178.79502868652344 82.21212005615234 176.03416442871094 C 79.55362701416016 174.55789184570312 76.6922378540039 172.72769165039062 75.40660095214844 172.14918518066406 C 72.53205108642578 171.466064453125 69.57232666015625 170.8880615234375 66.90673065185547 170.5878448486328 C 68.12550354003906 163.3462677001953 71.15808868408203 151.5063934326172 75.68850708007812 144.56887817382812 C 78.6502914428711 145.86131286621094 81.26834106445312 147.0161590576172 84.60491180419922 148.82789611816406 C 87.85978698730469 150.3155517578125 89.26017761230469 151.00161743164062 92.22998809814453 152.46200561523438 C 97.90364837646484 155.80667114257812 100.67433166503906 157.42982482910156 103.2791748046875 158.9990234375 C 107.9308853149414 161.6182403564453 111.81792449951172 164.0675811767578 115.4786605834961 166.0455322265625 C 120.34613800048828 168.76547241210938 125.68861389160156 171.61004638671875 130.67425537109375 175.75094604492188 C 134.3720703125 178.31857299804688 137.96298217773438 180.26329040527344 139.5461883544922 180.9790802001953 C 141.65200805664062 181.98204040527344 143.80328369140625 182.54124450683594 145.43138122558594 182.333740234375 C 146.39707946777344 182.30862426757812 147.47100830078125 182.08697509765625 148.76296997070312 181.6519317626953 C 151.1710968017578 186.87741088867188 152.80792236328125 194.82040405273438 154.3331298828125 200.3159942626953 C 152.46875 200.85154724121094 150.8556365966797 201.78724670410156 145.10638427734375 206.58267211914062 C 144.5066375732422 206.82553100585938 140.56541442871094 210.19338989257812 133.25308227539062 218.4228515625 C 123.98197937011719 223.48069763183594 115.88990020751953 226.79930114746094 102.79399871826172 227.9795379638672 C 93.88001251220703 227.4950408935547 87.05706024169922 227.92752075195312 82.13809967041016 229.68881225585938 C 74.61190032958984 233.03628540039062 68.68711853027344 237.1973419189453 66.06100463867188 240.4410858154297 C 64.73552703857422 243.2063751220703 64.95223236083984 247.75997924804688 67.8195571899414 251.60946655273438 C 71.12145233154297 255.14675903320312 79.57090759277344 259.50323486328125 92.77587127685547 266.4920959472656 C 101.63204956054688 276.267333984375 104.53697967529297 290.39544677734375 106.7713851928711 295.6113586425781 C 106.92074584960938 306.64544677734375 108.30352783203125 308.9308166503906 110.31481170654297 310.7314453125 C 112.43084716796875 311.93939208984375 114.7481460571289 312.72540283203125 118.02010345458984 312.63543701171875 C 122.30648040771484 311.313232421875 127.5108871459961 308.6390380859375 133.56216430664062 302.81219482421875 C 146.29026794433594 293.2535095214844 162.73324584960938 291.141357421875 173.10775756835938 290.4333801269531 C 173.6868438720703 300.4545593261719 174.5484161376953 302.22052001953125 179.50318908691406 313.83209228515625 C 168.39129638671875 317.9505615234375 152.22677612304688 323.3596496582031 143.72959899902344 326.131103515625 C 134.8919219970703 329.9646911621094 126.349609375 333.1731262207031 118.16315460205078 334.6702575683594"/>
    <path stroke-width="0" fill="rgb(0, 0, 0)" opacity="1.0" d="M 178.0128936767578 315.83587646484375 C 176.0768585205078 309.7825622558594 171.09828186035156 300.5103454589844 166.20095825195312 291.71417236328125 C 176.62554931640625 287.9880676269531 183.12022399902344 284.05218505859375 187.07518005371094 280.4156799316406 C 191.21755981445312 275.90625 196.36537170410156 266.65301513671875 203.0015869140625 256.1931457519531 C 219.18983459472656 250.3726348876953 222.89122009277344 247.67495727539062 225.2026824951172 244.59828186035156 C 226.4778289794922 239.52081298828125 226.2535858154297 232.08517456054688 224.47171020507812 221.58969116210938 C 224.76199340820312 214.7522735595703 225.44883728027344 209.82086181640625 225.33164978027344 204.57656860351562 C 225.95118713378906 198.90911865234375 228.6492919921875 208.39573669433594 228.05650329589844 206.85174560546875 C 227.2888641357422 203.23468017578125 231.4847412109375 209.88638305664062 230.34437561035156 209.03932189941406 C 228.67422485351562 207.5750732421875 225.10153198242188 205.82952880859375 222.1077423095703 205.25643920898438 C 219.91342163085938 204.7857666015625 218.30958557128906 205.22882080078125 216.5458984375 207.22491455078125 C 215.43145751953125 208.50262451171875 214.79429626464844 209.80580139160156 212.85498046875 218.1548309326172 C 219.05821228027344 205.82443237304688 219.48077392578125 208.825927734375 221.27857971191406 215.79998779296875 C 221.43112182617188 220.90432739257812 222.0576934814453 226.03150939941406 222.37071228027344 226.54319763183594 C 222.63763427734375 226.98695373535156 222.8329315185547 227.33322143554688 223.13836669921875 227.6656036376953 C 223.5472869873047 228.00955200195312 204.9173583984375 225.77401733398438 206.6565399169922 225.24337768554688 C 210.0230712890625 223.99720764160156 213.47923278808594 222.2570343017578 218.2606658935547 219.4767608642578 C 223.4845428466797 217.3031768798828 228.09854125976562 215.6920166015625 231.9940643310547 213.91514587402344 C 231.83265686035156 224.02491760253906 232.63157653808594 233.49343872070312 233.23658752441406 241.79989624023438 C 230.00515747070312 244.36720275878906 226.25704956054688 245.9934844970703 223.1676025390625 246.68997192382812 C 217.3933563232422 260.8780822753906 205.29412841796875 265.2234191894531 204.15457153320312 264.7427062988281 C 200.9694366455078 263.7337646484375 199.3443603515625 263.0015869140625 195.46983337402344 260.26806640625 C 192.46336364746094 258.9645690917969 191.35015869140625 258.2513427734375 188.8206024169922 255.7764892578125 C 186.59164428710938 252.99879455566406 184.30455017089844 250.44961547851562 182.80154418945312 247.07200622558594 C 182.15304565429688 245.60125732421875 183.95135498046875 229.77548217773438 185.8700408935547 222.2117156982422 C 185.85585021972656 216.8175506591797 186.35440063476562 210.2084503173828 187.3640594482422 204.4886932373047 C 188.95814514160156 201.1558837890625 192.0748291015625 196.41217041015625 196.298095703125 191.82015991210938 C 200.34568786621094 185.8056640625 205.34889221191406 182.112548828125 210.13192749023438 180.00267028808594 C 217.5355224609375 175.41680908203125 223.22055053710938 174.71485900878906 227.8383026123047 176.0266876220703 C 235.13282775878906 175.33984375 239.81007385253906 176.64968872070312 242.58447265625 178.0853729248047 C 248.93666076660156 180.9414825439453 254.05848693847656 184.8716583251953 256.7027893066406 187.6006317138672 C 259.21563720703125 192.75364685058594 260.0622253417969 194.4294891357422 260.7865905761719 195.96322631835938 C 262.2245178222656 200.31983947753906 264.2890625 207.21591186523438 265.72760009765625 217.11122131347656 C 267.7554016113281 235.98001098632812 261.70172119140625 254.30303955078125 251.48585510253906 267.23486328125 C 242.9796600341797 280.2208557128906 232.50234985351562 286.6282958984375 227.7794952392578 290.412841796875 C 218.2865753173828 302.9986877441406 202.9150390625 315.09222412109375 178.0128936767578 315.83587646484375"/>
    <path stroke-width="0" fill="rgb(0, 0, 0)" opacity="1.0" d="M 282.1687316894531 308.86932373046875 C 275.8451843261719 301.3205261230469 270.2431335449219 293.7841491699219 265.17901611328125 286.95050048828125 C 274.6102600097656 280.771484375 284.6525573730469 272.7382507324219 294.2381591796875 264.8890686035156 C 305.568359375 260.6265869140625 313.1717834472656 256.93939208984375 317.00067138671875 252.5716094970703 C 319.4165344238281 248.94085693359375 319.71502685546875 245.1576385498047 318.5403137207031 242.3202362060547 C 316.78131103515625 239.00857543945312 314.04168701171875 234.77955627441406 310.61541748046875 230.41769409179688 C 307.7969055175781 225.32411193847656 305.6024169921875 221.31121826171875 303.3150634765625 216.4267578125 C 301.8260498046875 212.28506469726562 300.43017578125 208.30357360839844 298.96307373046875 204.63035583496094 C 305.97198486328125 202.19569396972656 311.1967468261719 199.82321166992188 317.1676330566406 196.5928497314453 C 321.2489929199219 202.4066162109375 324.3691711425781 208.64883422851562 326.54815673828125 213.364990234375 C 330.904052734375 218.34230041503906 334.69189453125 223.14730834960938 338.0283203125 228.6470184326172 C 341.6815490722656 235.15248107910156 343.32293701171875 241.08473205566406 343.9133605957031 248.9250030517578 C 342.7922668457031 256.39886474609375 340.00433349609375 263.4912109375 335.44464111328125 269.264892578125 C 330.8145446777344 274.4410095214844 324.7777099609375 278.7034606933594 317.6273193359375 281.6360778808594 C 312.76470947265625 284.324462890625 308.0299072265625 287.4745788574219 302.6875915527344 290.95794677734375 C 297.6592712402344 296.1028747558594 290.4394836425781 303.2415771484375 282.1687316894531 308.86932373046875"/>
  </g>
</svg>
