<?xml version="1.0" ?>
<svg xmlns="http://www.w3.org/2000/svg" version="1.1" width="600" height="600">
  <defs/>
  <g>
    <path stroke-width="0" fill="rgb(0, 0, 0)" opacity="1.0" d="M 52.127559661865234 452.0065002441406 C 53.55236053466797 449.23126220703125 54.754364013671875 446.3404235839844 56.00242233276367 442.7842712402344 C 52.25442886352539 441.970703125 52.3230094909668 440.9203796386719 52.437225341796875 438.3356628417969 C 52.50232696533203 432.6842041015625 52.908809661865234 434.8078308105469 52.483619689941406 430.4974060058594 C 52.272621154785156 425.7165832519531 51.89495849609375 421.6772766113281 51.56675338745117 417.4476318359375 C 51.6010627746582 411.8260498046875 51.47770309448242 409.3433837890625 52.19892883300781 405.6795654296875 C 52.51806640625 402.5760192871094 52.87268829345703 399.1626281738281 52.839141845703125 395.6216125488281 C 52.9553337097168 392.7823791503906 53.04763412475586 391.41424560546875 53.276947021484375 389.4828186035156 C 52.9261474609375 385.8017578125 52.657012939453125 383.0412292480469 52.08409118652344 377.6977233886719 C 51.816566467285156 373.917236328125 51.82147216796875 371.6513366699219 51.77016830444336 367.8645935058594 C 51.78105926513672 362.3944091796875 52.064208984375 361.1620178222656 53.422523498535156 355.76531982421875 C 55.05582046508789 362.7679443359375 54.187686920166016 357.856689453125 54.14730453491211 357.0138244628906 C 53.785770416259766 355.7602844238281 54.74601745605469 349.3791198730469 55.20107650756836 345.4988708496094 C 55.45109176635742 341.3207092285156 55.53251266479492 337.8686218261719 56.33349609375 333.1009216308594 C 56.433258056640625 330.61614990234375 56.60539245605469 327.7810974121094 56.80731201171875 327.3831481933594 C 56.358341217041016 323.140869140625 55.961971282958984 321.18115234375 55.74375915527344 319.9475402832031 C 55.80742263793945 316.5304870605469 56.92084503173828 311.89190673828125 58.07143020629883 308.66839599609375 C 60.569068908691406 309.6945495605469 64.27051544189453 310.585205078125 65.8366928100586 310.7198486328125 C 65.98944091796875 308.0805358886719 68.22077178955078 307.75128173828125 70.09413146972656 307.3917541503906 C 73.4283676147461 307.517333984375 73.52393341064453 308.3709716796875 77.12181854248047 307.3277282714844 C 79.96991729736328 307.744384765625 82.27325439453125 308.0322570800781 83.96485137939453 310.1178894042969 C 82.54536437988281 311.3374938964844 84.68650817871094 312.8414611816406 84.41639709472656 314.9974060058594 C 87.40821075439453 314.8948059082031 88.57946014404297 321.61572265625 88.12090301513672 324.3125305175781 C 88.10751342773438 325.0516357421875 87.45011138916016 330.5500793457031 86.7219009399414 325.4267883300781 C 86.49140167236328 331.5643005371094 85.80563354492188 335.9361877441406 85.39739227294922 338.7293701171875 C 85.04203033447266 344.81231689453125 83.85845947265625 352.96392822265625 83.24651336669922 347.83892822265625 C 84.22731018066406 351.060546875 84.86019897460938 354.8575134277344 84.7021713256836 355.52996826171875 C 84.74532318115234 358.3589172363281 84.53998565673828 360.587158203125 84.41645050048828 364.625244140625 C 83.77205657958984 368.4166564941406 84.09576416015625 373.90106201171875 84.1165771484375 376.9693908691406 C 85.07267761230469 382.36505126953125 85.36140441894531 384.89141845703125 85.7398452758789 388.52984619140625 C 86.20930480957031 394.0059814453125 86.18140411376953 396.67816162109375 86.49903869628906 392.0587158203125 C 86.29279327392578 394.8871154785156 84.89802551269531 399.0919189453125 86.6993637084961 404.7894287109375 C 85.35120391845703 407.712158203125 84.34757232666016 409.822021484375 83.41473388671875 405.2283935546875 C 83.14508056640625 411.2427062988281 83.71160125732422 415.41986083984375 84.33879089355469 418.5582275390625 C 83.58255767822266 422.4223327636719 83.66348266601562 426.42132568359375 84.02867889404297 430.1443176269531 C 87.68978118896484 430.1932373046875 93.81846618652344 430.79425048828125 101.52830505371094 431.1064758300781 C 106.76590728759766 430.8130187988281 111.46466827392578 430.6622009277344 117.21469116210938 429.41705322265625 C 123.81690979003906 429.1044006347656 117.86961364746094 427.52801513671875 122.35877990722656 426.951904296875 C 129.9202117919922 426.8067626953125 133.83453369140625 426.5483093261719 137.76231384277344 426.5069885253906 C 137.89337158203125 430.2855529785156 137.839111328125 433.5478210449219 137.5630340576172 438.9619140625 C 137.90293884277344 440.882568359375 139.0670166015625 444.4867248535156 140.68734741210938 448.1398010253906 C 137.63157653808594 449.3052978515625 135.02374267578125 450.4241638183594 130.41648864746094 452.66021728515625 C 124.42155456542969 453.8081359863281 119.2526626586914 453.9715270996094 114.26412963867188 454.0510559082031 C 120.93500518798828 455.523193359375 118.05279541015625 455.79107666015625 113.01638793945312 457.16815185546875 C 107.28579711914062 457.8086242675781 103.35310363769531 457.9037780761719 98.17577362060547 457.4457702636719 C 92.48252868652344 457.56781005859375 88.99556732177734 457.69586181640625 83.3181381225586 457.8903503417969 C 77.5518569946289 456.819580078125 73.06951141357422 456.1122741699219 69.3165283203125 455.7477722167969 C 70.75274658203125 457.9693908691406 67.71694946289062 457.4936218261719 62.54080581665039 457.33197021484375 C 60.120079040527344 455.886962890625 56.21844482421875 453.95172119140625 52.127559661865234 452.0065002441406"/>
    <path stroke-width="0" fill="rgb(0, 0, 0)" opacity="1.0" d="M 319.05548095703125 383.8291015625 C 316.54083251953125 390.74578857421875 313.0643310546875 398.6495361328125 309.345703125 404.2362060546875 C 305.9457092285156 409.2380065917969 303.85589599609375 412.75848388671875 301.5193176269531 416.1087951660156 C 299.4284362792969 419.75628662109375 296.3888854980469 423.299560546875 295.4894104003906 424.2494812011719 C 294.004638671875 426.63800048828125 292.3968811035156 428.79547119140625 288.18316650390625 432.2994384765625 C 287.54034423828125 433.1243591308594 286.1700439453125 434.8509521484375 284.1045227050781 437.2245178222656 C 278.8952941894531 444.0169372558594 276.70147705078125 445.6053466796875 274.8639221191406 447.0316467285156 C 273.7951354980469 447.9456481933594 262.9276428222656 458.4929504394531 258.0893859863281 460.6131286621094 C 252.6441650390625 461.81585693359375 245.7115936279297 461.3850402832031 238.09471130371094 461.40496826171875 C 226.49305725097656 451.19476318359375 223.9945831298828 449.5677795410156 220.98887634277344 446.1832275390625 C 216.2203826904297 442.2671203613281 212.67626953125 438.10736083984375 210.20437622070312 434.1343688964844 C 207.55874633789062 431.31988525390625 205.17092895507812 429.4712219238281 202.4403076171875 427.1862487792969 C 200.43150329589844 425.21209716796875 198.54055786132812 423.7763366699219 195.3335418701172 420.34075927734375 C 192.2213897705078 417.9821472167969 188.99725341796875 415.5665283203125 186.15707397460938 413.4245910644531 C 185.87083435058594 412.8719177246094 182.00257873535156 408.4407043457031 178.92051696777344 404.6959533691406 C 176.81195068359375 401.4527282714844 175.35914611816406 398.6413879394531 172.82666015625 393.86041259765625 C 170.7892303466797 389.8288269042969 168.6549530029297 384.1096496582031 166.41783142089844 379.587158203125 C 165.86917114257812 377.4504699707031 164.96536254882812 372.784423828125 163.6092529296875 368.6439514160156 C 164.06338500976562 365.200927734375 164.70877075195312 359.23309326171875 165.1050262451172 354.7516174316406 C 163.16310119628906 345.0531311035156 163.9767303466797 340.248779296875 166.86070251464844 332.99420166015625 C 170.07696533203125 326.4367370605469 172.70469665527344 322.36376953125 176.96096801757812 318.630859375 C 181.1341094970703 315.0193786621094 185.7340545654297 312.3995361328125 190.32565307617188 308.71221923828125 C 198.6161346435547 305.28607177734375 204.22366333007812 304.8451843261719 211.44842529296875 305.38494873046875 C 218.42254638671875 307.2002868652344 224.17430114746094 309.4764099121094 228.15391540527344 310.83380126953125 C 231.88900756835938 312.5379638671875 232.84234619140625 312.8526611328125 235.26162719726562 312.3115539550781 C 239.28858947753906 310.7990417480469 242.8224639892578 309.7989807128906 245.0326385498047 308.8291320800781 C 250.9839630126953 305.7821044921875 254.74349975585938 304.2796936035156 258.517333984375 302.8785095214844 C 268.8963928222656 299.8034973144531 274.0001220703125 300.01214599609375 282.1970520019531 302.5467834472656 C 289.4122314453125 305.0641174316406 293.94036865234375 307.0143127441406 300.95892333984375 312.4920654296875 C 305.8675537109375 316.8858642578125 308.8781433105469 320.8717041015625 313.4332275390625 327.5058898925781 C 316.9250793457031 333.9944152832031 320.66363525390625 341.53509521484375 321.6792297363281 352.42547607421875 C 322.6057434082031 356.1599426269531 323.0538635253906 359.61846923828125 323.07586669921875 366.72894287109375 C 322.32958984375 372.622314453125 320.7633361816406 379.3104553222656 319.05548095703125 383.8291015625M 194.6869354248047 369.4435729980469 C 195.5359344482422 373.5570373535156 197.4290008544922 378.6502990722656 198.857177734375 382.6849670410156 C 201.1854248046875 389.4727478027344 201.6652069091797 390.2389221191406 202.3274383544922 391.0843200683594 C 209.12478637695312 394.9107360839844 220.9930877685547 401.5444641113281 229.760498046875 409.76171875 C 234.02943420410156 417.52752685546875 236.593994140625 421.5417785644531 238.83543395996094 423.5460205078125 C 240.48165893554688 424.7006530761719 243.12083435058594 426.04345703125 244.23394775390625 426.3291320800781 C 246.25523376464844 426.4525451660156 248.59219360351562 426.58270263671875 249.80776977539062 426.3250427246094 C 252.581787109375 425.5926208496094 255.1593475341797 424.07958984375 258.8299255371094 421.0545654296875 C 263.6410217285156 418.3231201171875 271.26910400390625 409.1501770019531 273.82122802734375 405.1253967285156 C 275.99176025390625 400.9153747558594 278.2467346191406 397.02093505859375 280.9503173828125 389.3194885253906 C 285.50616455078125 380.92047119140625 287.0269775390625 376.88043212890625 289.064453125 369.4151611328125 C 289.9420471191406 363.5201110839844 288.9543762207031 355.4966125488281 288.3503112792969 351.99603271484375 C 285.916015625 344.2614440917969 281.2679748535156 337.05126953125 278.2825927734375 334.0628967285156 C 274.76849365234375 332.38238525390625 270.462646484375 331.4863586425781 268.88116455078125 331.48944091796875 C 264.9068908691406 332.4620361328125 254.11915588378906 340.03155517578125 242.61126708984375 343.1005859375 C 228.58041381835938 342.35406494140625 218.4158477783203 338.5179748535156 211.85897827148438 334.3888244628906 C 208.9464111328125 333.81732177734375 206.30560302734375 334.0347595214844 204.02549743652344 334.6242980957031 C 199.5594024658203 336.6270446777344 195.58932495117188 339.7503967285156 192.56600952148438 345.264404296875 C 192.17030334472656 346.3503723144531 191.5167999267578 349.496337890625 191.82859802246094 359.2471923828125 C 191.37173461914062 367.7155456542969 191.19534301757812 361.0517578125 194.6869354248047 369.4435729980469"/>
    <path stroke-width="0" fill="rgb(0, 0, 0)" opacity="1.0" d="M 441.9516906738281 311.0222473144531 C 439.5851745605469 312.7583312988281 436.86383056640625 315.19879150390625 440.5432434082031 317.5818786621094 C 442.44921875 316.9925231933594 442.03082275390625 322.916015625 440.5327453613281 326.4814147949219 C 439.258544921875 328.5500183105469 442.6440734863281 328.71258544921875 442.1525573730469 330.5052185058594 C 442.0627136230469 332.718017578125 441.63580322265625 335.74658203125 441.3141784667969 339.6376037597656 C 441.04876708984375 343.1163330078125 440.8940124511719 345.30230712890625 440.3720397949219 349.0293273925781 C 440.2781982421875 353.2386474609375 440.09136962890625 355.1226806640625 439.3104248046875 359.9660949707031 C 438.95391845703125 362.7537536621094 438.85406494140625 366.5892333984375 438.0284729003906 370.91015625 C 437.0818786621094 374.4490051269531 436.5033874511719 377.4495849609375 435.49566650390625 381.87249755859375 C 434.767578125 384.7091369628906 433.6393737792969 387.7903747558594 432.4855041503906 391.4053649902344 C 431.72064208984375 394.98223876953125 430.7054748535156 397.86956787109375 429.8195495605469 400.9147033691406 C 428.35467529296875 405.47125244140625 427.5865173339844 407.771484375 426.5408935546875 410.7910461425781 C 425.3285827636719 412.8265380859375 424.1318664550781 416.05474853515625 422.82470703125 419.6951599121094 C 420.51593017578125 424.1726989746094 418.3123474121094 427.9283447265625 416.8511962890625 430.8253479003906 C 415.6097717285156 433.2998352050781 414.7311706542969 435.5542907714844 414.0962219238281 437.8874816894531 C 413.73724365234375 438.275390625 413.482421875 439.8619384765625 411.044189453125 444.2835693359375 C 408.9000244140625 445.8550109863281 406.92645263671875 447.19512939453125 404.9960632324219 448.49505615234375 C 402.6744689941406 446.9555969238281 400.96221923828125 445.6046447753906 396.2965393066406 450.3523864746094 C 395.5384521484375 459.017822265625 391.1788330078125 459.41455078125 389.1426086425781 459.4775695800781 C 386.7726745605469 459.7344665527344 384.0684814453125 460.0826721191406 383.7351989746094 458.86785888671875 C 378.99896240234375 451.7936096191406 377.1327209472656 453.1186218261719 374.74920654296875 455.13616943359375 C 372.1933288574219 453.6569519042969 368.8977966308594 451.45416259765625 365.35430908203125 447.9814758300781 C 364.07684326171875 445.755859375 362.3174743652344 441.55853271484375 360.807861328125 438.3993225097656 C 359.44232177734375 435.41265869140625 358.4403076171875 432.3190002441406 356.6924743652344 429.66973876953125 C 354.9407958984375 427.0173645019531 353.47149658203125 424.0499572753906 351.8202819824219 420.4854431152344 C 349.88262939453125 417.0871276855469 348.6850891113281 412.8562927246094 347.3875732421875 409.54010009765625 C 346.5911865234375 406.76904296875 349.2381896972656 411.604248046875 346.83367919921875 408.37640380859375 C 343.94049072265625 403.6342468261719 342.4634094238281 400.3170471191406 340.36907958984375 395.24188232421875 C 339.208251953125 390.4734802246094 338.5334167480469 388.14178466796875 337.3785400390625 384.7196960449219 C 334.2861633300781 377.2274475097656 332.6156921386719 371.4152526855469 331.1464538574219 365.19366455078125 C 330.7505798339844 362.95501708984375 330.462890625 359.00958251953125 330.76361083984375 353.457275390625 C 330.3699035644531 347.7386474609375 329.7847595214844 343.56207275390625 329.9631652832031 338.21820068359375 C 330.5110168457031 334.25653076171875 330.36669921875 331.0596618652344 330.0568542480469 329.9443664550781 C 329.16473388671875 327.1571044921875 328.7420654296875 325.0201721191406 332.3418273925781 325.2181091308594 C 334.8874816894531 325.3044128417969 332.9234619140625 318.927490234375 332.0980529785156 314.9855651855469 C 331.0452880859375 310.75946044921875 330.4232482910156 308.0454406738281 329.7059020996094 305.52508544921875 C 336.37677001953125 305.44805908203125 343.8285827636719 305.4837341308594 347.8710632324219 305.1586608886719 C 351.029296875 305.4432373046875 352.2018737792969 309.18426513671875 357.3915710449219 307.7936706542969 C 358.7449951171875 309.9093017578125 359.9232177734375 311.6097106933594 362.2673034667969 314.5521240234375 C 362.7467041015625 318.9510498046875 363.81072998046875 323.61541748046875 362.94384765625 331.8478088378906 C 362.3648986816406 337.3016357421875 361.99542236328125 339.5256652832031 361.4162292480469 343.61383056640625 C 361.6126403808594 349.10430908203125 362.1583251953125 353.6121520996094 362.1731872558594 356.58734130859375 C 362.8766174316406 359.8972473144531 363.22320556640625 363.32574462890625 363.4640197753906 364.9345703125 C 363.946044921875 366.8800964355469 364.5633239746094 370.64801025390625 365.3462219238281 373.84991455078125 C 366.1539611816406 377.3138122558594 367.3362731933594 380.40936279296875 367.9762878417969 382.678955078125 C 368.747802734375 385.0956726074219 370.3106689453125 388.0539245605469 371.51080322265625 390.3533630371094 C 373.1883850097656 392.6173095703125 375.4405212402344 395.54742431640625 377.7235412597656 400.27520751953125 C 377.76959228515625 401.7609558105469 379.4021911621094 405.4130859375 380.9322814941406 409.3062438964844 C 382.70806884765625 413.50909423828125 384.0906066894531 417.89031982421875 385.2420349121094 422.568603515625 C 388.2124938964844 416.6076965332031 390.4480285644531 412.4342346191406 391.6030578613281 408.83026123046875 C 393.1461486816406 405.36541748046875 393.86102294921875 401.4617614746094 394.83154296875 398.8951721191406 C 396.0072937011719 395.8648681640625 396.4349060058594 394.26812744140625 398.08062744140625 390.228759765625 C 398.90728759765625 387.6207275390625 399.99493408203125 384.35577392578125 401.54083251953125 379.8592224121094 C 402.658447265625 376.9888000488281 403.4518127441406 374.4522399902344 404.7666015625 370.55474853515625 C 405.4383544921875 367.6378173828125 405.97100830078125 364.6399841308594 406.13275146484375 361.9388732910156 C 406.5286865234375 359.8909912109375 406.7875061035156 354.564453125 407.4481506347656 350.8160095214844 C 407.5925598144531 346.64990234375 407.88873291015625 343.975830078125 407.93609619140625 343.12786865234375 C 408.44366455078125 338.3570251464844 408.4609069824219 335.5964050292969 408.2445373535156 327.84454345703125 C 408.1338806152344 324.146728515625 408.50006103515625 320.1260070800781 409.5091857910156 317.3785095214844 C 409.6999206542969 313.2266540527344 410.25115966796875 308.7363586425781 411.8721008300781 304.4040222167969 C 417.2402038574219 304.47711181640625 425.5134582519531 303.3530578613281 431.9228210449219 304.68438720703125 C 430.8694152832031 307.4499816894531 436.9327392578125 307.4360046386719 441.9516906738281 311.0222473144531"/>
    <path stroke-width="0" fill="rgb(0, 0, 0)" opacity="1.0" d="M 554.7112426757812 453.6228332519531 C 550.7810668945312 454.7630310058594 546.5402221679688 456.39208984375 543.157958984375 456.27410888671875 C 541.99560546875 456.36798095703125 537.2533569335938 455.2770080566406 532.69287109375 454.9720764160156 C 530.2948608398438 455.2117004394531 528.6636352539062 455.2176513671875 524.738525390625 455.2281188964844 C 518.5396118164062 454.4578857421875 513.6707763671875 453.9769287109375 506.23291015625 453.3476257324219 C 510.5892333984375 453.07763671875 508.612548828125 453.20965576171875 504.7518310546875 453.6687927246094 C 499.6666564941406 453.33929443359375 498.7582702636719 453.20806884765625 493.7712097167969 451.7962646484375 C 490.7048645019531 450.9736328125 487.1073303222656 451.1206970214844 481.53717041015625 448.5003356933594 C 478.98651123046875 448.42694091796875 477.697998046875 447.9677429199219 475.32666015625 447.6051940917969 C 475.40911865234375 445.5318298339844 475.5212707519531 442.4105529785156 475.7767639160156 441.5087890625 C 476.422119140625 437.6924743652344 473.51995849609375 437.58099365234375 473.6866760253906 435.6985168457031 C 474.4869079589844 430.6204528808594 474.8735656738281 428.0643615722656 474.25146484375 423.1241455078125 C 474.1416015625 420.19244384765625 474.8231506347656 416.1650695800781 475.27813720703125 413.31927490234375 C 474.83319091796875 407.859619140625 475.0505676269531 409.79547119140625 473.1692199707031 404.9002380371094 C 472.59100341796875 398.6619567871094 473.1622619628906 402.7783203125 473.831787109375 395.9958190917969 C 473.7962646484375 401.390869140625 473.960205078125 393.34814453125 475.20513916015625 387.0496520996094 C 474.8915710449219 390.0260314941406 474.6490783691406 385.1221618652344 474.5128479003906 381.31494140625 C 474.13067626953125 378.153564453125 473.60394287109375 374.64520263671875 473.174072265625 369.1259460449219 C 473.0923156738281 362.4062194824219 473.8665466308594 368.64447021484375 472.9084777832031 357.2841796875 C 473.6940612792969 353.1841125488281 474.44091796875 347.8360900878906 474.04754638671875 353.6424255371094 C 473.0862121582031 349.4833679199219 472.989501953125 343.32513427734375 472.8743591308594 338.26849365234375 C 475.3964538574219 333.00958251953125 474.40966796875 342.7811279296875 474.26361083984375 341.60308837890625 C 473.8898620605469 338.9751892089844 473.2054138183594 335.7958068847656 471.97943115234375 329.1646728515625 C 472.1796875 321.763916015625 474.9906311035156 321.7016296386719 474.96771240234375 315.5489501953125 C 474.5782470703125 311.01678466796875 477.5700378417969 308.09259033203125 476.1298522949219 307.0285339355469 C 477.5382080078125 305.274169921875 481.2237854003906 305.5881042480469 484.71234130859375 305.3974304199219 C 486.5508728027344 305.12359619140625 490.2054748535156 304.8963928222656 495.3357849121094 305.9321594238281 C 498.683837890625 306.5456848144531 500.3742980957031 307.06402587890625 505.7681884765625 307.8551940917969 C 510.9936828613281 308.5472717285156 513.1371459960938 308.7799987792969 516.2860107421875 308.8451843261719 C 519.7039184570312 308.79229736328125 523.5938110351562 308.1839904785156 527.8405151367188 307.3396911621094 C 531.131103515625 307.02508544921875 533.1294555664062 307.1601257324219 535.3472290039062 307.33740234375 C 538.1644287109375 307.0417785644531 543.537841796875 307.3375244140625 543.511962890625 308.5301208496094 C 545.2880249023438 308.1422424316406 549.530029296875 307.20654296875 552.84033203125 306.9147644042969 C 553.2250366210938 309.02685546875 554.0834350585938 311.19757080078125 555.1522216796875 313.58221435546875 C 556.1190795898438 316.2123107910156 556.8623657226562 319.5173645019531 557.424560546875 322.37677001953125 C 557.1046142578125 326.3307189941406 555.35302734375 326.6296081542969 555.4913330078125 329.0356140136719 C 555.5960083007812 330.3867492675781 552.26025390625 330.7792663574219 554.0582275390625 332.5105285644531 C 550.9295654296875 336.3237609863281 546.7305297851562 336.6481018066406 543.3042602539062 336.5704345703125 C 542.1226806640625 336.4272155761719 538.5235595703125 336.96014404296875 534.4970703125 336.4960021972656 C 529.3557739257812 335.9101867675781 533.5791625976562 336.35693359375 530.9053955078125 336.09173583984375 C 535.3377685546875 335.4583740234375 530.41552734375 336.139404296875 524.4061889648438 336.9662780761719 C 521.2399291992188 337.7370910644531 516.5310668945312 337.3036804199219 513.301025390625 336.9573059082031 C 509.3905029296875 336.5906982421875 507.85723876953125 336.4351806640625 504.6937561035156 335.7977600097656 C 505.21044921875 337.3575134277344 506.0428466796875 341.4953308105469 505.14654541015625 344.4074401855469 C 504.7857360839844 346.46453857421875 505.6951904296875 342.064453125 505.5433654785156 345.6343078613281 C 505.734375 347.0588684082031 506.4685974121094 349.826171875 505.66900634765625 353.3920593261719 C 505.4210205078125 356.5401916503906 504.5739440917969 360.6990661621094 504.2857666015625 361.1253967285156 C 510.21551513671875 361.1929626464844 513.4411010742188 361.0009460449219 515.8009033203125 361.0257873535156 C 521.513427734375 361.402587890625 528.2423706054688 362.1775207519531 530.6264038085938 362.8189697265625 C 534.639404296875 363.67401123046875 538.5184936523438 363.9824523925781 541.5817260742188 363.8745422363281 C 544.2395629882812 363.29278564453125 548.0476684570312 363.5921325683594 551.4149169921875 363.63336181640625 C 551.3112182617188 365.848388671875 551.1405639648438 367.47314453125 552.4638671875 366.82928466796875 C 553.4894409179688 369.68023681640625 554.021484375 372.34783935546875 554.7601928710938 377.1259460449219 C 554.9219360351562 379.6730651855469 554.958984375 381.2176818847656 554.1993408203125 385.8713073730469 C 553.7676391601562 387.63818359375 553.5244750976562 389.4962158203125 553.3390502929688 391.8783874511719 C 549.1211547851562 391.6175231933594 544.8614501953125 391.6119689941406 541.44091796875 391.8082580566406 C 537.658935546875 391.48406982421875 530.68896484375 391.6597900390625 525.1376342773438 390.5747375488281 C 522.3203125 390.1441345214844 520.3841552734375 390.05865478515625 516.8704833984375 389.6610412597656 C 514.4447631835938 389.61236572265625 510.0912170410156 389.5625915527344 507.8110046386719 389.7955322265625 C 507.74090576171875 393.0030822753906 507.9199523925781 394.6898498535156 507.58331298828125 399.8642578125 C 508.090576171875 401.3924255371094 506.88275146484375 393.7696533203125 507.366943359375 399.42529296875 C 509.2130432128906 406.4768981933594 509.19415283203125 410.76275634765625 508.8883056640625 416.65802001953125 C 508.24224853515625 419.2292175292969 508.3245849609375 422.1060485839844 508.7171325683594 425.0315246582031 C 510.0520324707031 424.88763427734375 512.2901611328125 425.12445068359375 518.6892700195312 425.1428527832031 C 522.866943359375 425.8475036621094 524.671875 425.57696533203125 529.9812622070312 424.5494384765625 C 535.6212768554688 424.490966796875 543.7374267578125 425.7168273925781 538.7020263671875 425.8432312011719 C 540.4924926757812 425.5382080078125 544.2387084960938 426.2642517089844 549.0144653320312 426.6175842285156 C 548.8837280273438 429.1374816894531 548.7659301757812 431.4267272949219 548.52099609375 434.3160095214844 C 555.0983276367188 433.9368896484375 555.7874145507812 437.2093811035156 556.1332397460938 440.85595703125 C 556.0523071289062 442.53460693359375 555.7332763671875 446.6064147949219 552.8208618164062 447.0754699707031 C 553.3267211914062 448.7429504394531 554.1110229492188 451.3441467285156 554.7112426757812 453.6228332519531"/>
    <path stroke-width="0" fill="rgb(0, 0, 0)" opacity="1.0" d="M 128.4316864013672 243.8450927734375 C 132.33677673339844 237.43540954589844 132.6299285888672 227.80746459960938 129.40673828125 215.42555236816406 C 150.58966064453125 214.52789306640625 165.32115173339844 223.2404327392578 172.9713592529297 225.84568786621094 C 177.8809814453125 225.26193237304688 185.42861938476562 221.5560302734375 193.24400329589844 215.60275268554688 C 201.2642822265625 210.70486450195312 208.72569274902344 205.04107666015625 214.02073669433594 199.8607940673828 C 220.0416259765625 194.91580200195312 226.9867401123047 181.18785095214844 230.4475860595703 170.3103485107422 C 240.41677856445312 171.94393920898438 245.30799865722656 174.13499450683594 252.81396484375 177.76824951171875 C 252.03443908691406 180.0111083984375 251.48922729492188 182.34683227539062 251.3740234375 183.73757934570312 C 251.02247619628906 187.46343994140625 251.02220153808594 195.7452850341797 244.51211547851562 197.0797882080078 C 245.35739135742188 199.35374450683594 246.72573852539062 201.3052978515625 249.66934204101562 203.61712646484375 C 252.16929626464844 205.77532958984375 255.82467651367188 207.61489868164062 260.72796630859375 208.81727600097656 C 266.2593688964844 210.7497100830078 270.6335144042969 211.97276306152344 276.9922790527344 212.25462341308594 C 283.0621337890625 212.81512451171875 287.507568359375 215.18357849121094 289.3031311035156 218.61328125 C 291.28875732421875 222.19850158691406 291.7335205078125 225.93186950683594 290.85748291015625 229.9788818359375 C 289.9826965332031 234.035888671875 287.6047668457031 237.5213165283203 284.13775634765625 239.6443328857422 C 281.2115478515625 241.5981903076172 276.82244873046875 242.27699279785156 270.1740417480469 241.5948028564453 C 260.48785400390625 240.0868682861328 254.6855926513672 238.81988525390625 249.5226287841797 236.5064697265625 C 244.56764221191406 235.4430389404297 239.60763549804688 232.78968811035156 235.0491180419922 228.9483642578125 C 231.5022430419922 226.2108612060547 228.5618438720703 221.897216796875 227.19277954101562 215.80953979492188 C 230.23611450195312 215.1153106689453 233.33653259277344 214.2041778564453 236.26473999023438 213.27902221679688 C 232.00364685058594 219.78448486328125 227.4443817138672 224.844970703125 221.759033203125 229.7533721923828 C 216.40554809570312 236.14944458007812 210.30844116210938 241.96385192871094 201.5929412841797 247.5651092529297 C 191.03575134277344 252.63526916503906 177.0304718017578 254.91091918945312 161.959716796875 249.10867309570312 C 148.35252380371094 243.06369018554688 140.99777221679688 243.04867553710938 133.44073486328125 246.10861206054688 C 118.42973327636719 251.3681182861328 102.91871643066406 253.9128875732422 87.9453353881836 246.89256286621094 C 75.75262451171875 240.84674072265625 67.5273208618164 234.38755798339844 63.30644607543945 229.75741577148438 C 57.07455825805664 224.0955352783203 54.007999420166016 219.5982666015625 52.10272216796875 215.85720825195312 C 49.153751373291016 210.96466064453125 47.358333587646484 206.12466430664062 46.04717254638672 201.66049194335938 C 45.21991729736328 197.59942626953125 44.94797134399414 191.47769165039062 44.00901794433594 184.79261779785156 C 44.603477478027344 178.8513641357422 45.41790008544922 174.57127380371094 46.57556915283203 168.78616333007812 C 47.50157928466797 165.1163330078125 48.23893356323242 162.3934326171875 48.775081634521484 160.1196746826172 C 57.00339889526367 160.66917419433594 64.91836547851562 161.62310791015625 73.55596923828125 162.90670776367188 C 73.09742736816406 166.5887451171875 72.68470764160156 168.54454040527344 72.13346862792969 171.072265625 C 71.50062561035156 173.54727172851562 71.31388854980469 175.53758239746094 71.2704086303711 177.62942504882812 C 71.27046966552734 180.3992462158203 71.2907943725586 183.3224639892578 71.90155792236328 185.66847229003906 C 73.95660400390625 192.0912322998047 76.59707641601562 196.69088745117188 83.01045227050781 203.55747985839844 C 88.96314239501953 211.27084350585938 96.27655029296875 219.31614685058594 102.80936431884766 223.16551208496094 C 107.65506744384766 223.94020080566406 118.9835433959961 220.08201599121094 133.2794647216797 215.75640869140625 C 135.6814422607422 225.01394653320312 137.47109985351562 232.69956970214844 138.8372039794922 239.17202758789062 C 137.0372772216797 241.08250427246094 135.44317626953125 243.31668090820312 128.4316864013672 243.8450927734375M 128.38656616210938 300.3183288574219 C 131.98435974121094 299.15875244140625 132.83526611328125 299.22747802734375 129.8865966796875 301.0946044921875 C 122.15633392333984 292.7147216796875 118.89920806884766 289.16900634765625 110.63407897949219 276.46270751953125 C 110.34607696533203 262.13702392578125 116.80854797363281 253.48573303222656 129.48953247070312 265.2835388183594 C 134.71543884277344 281.19097900390625 135.33387756347656 283.52972412109375 143.99046325683594 262.3563232421875 C 165.8624725341797 260.5892333984375 155.69346618652344 261.8580627441406 156.92384338378906 260.894775390625 C 164.3712158203125 264.7410888671875 163.1888885498047 271.5148620605469 162.38632202148438 278.0660400390625 C 155.87547302246094 282.5408630371094 154.9389190673828 284.6734313964844 151.31253051757812 285.38739013671875 C 140.49673461914062 294.8601379394531 137.60618591308594 307.0621337890625 128.38656616210938 300.3183288574219"/>
    <path stroke-width="0" fill="rgb(0, 0, 0)" opacity="1.0" d="M 271.49481201171875 241.8883514404297 C 273.068115234375 231.2673797607422 274.51763916015625 222.1333770751953 275.3471374511719 211.98265075683594 C 284.1377868652344 213.07534790039062 293.0471496582031 213.9524688720703 303.1640319824219 214.8253936767578 C 312.4656982421875 217.83935546875 321.1567687988281 219.61184692382812 326.2367248535156 219.15267944335938 C 334.1881408691406 216.0815887451172 340.29815673828125 212.96315002441406 343.319091796875 209.86865234375 C 347.3353271484375 205.97024536132812 350.45684814453125 199.86221313476562 356.3233337402344 188.5170440673828 C 350.9606018066406 179.9091796875 347.9289855957031 176.21707153320312 345.6091003417969 174.34300231933594 C 342.2056884765625 172.20767211914062 338.0950927734375 170.56997680664062 334.7496643066406 169.92022705078125 C 328.23760986328125 169.72572326660156 322.3918762207031 170.88748168945312 316.35693359375 173.16015625 C 313.5553283691406 174.42095947265625 312.5727233886719 174.8948974609375 308.1819763183594 176.1509246826172 C 302.3209533691406 179.40603637695312 299.59832763671875 180.1248779296875 296.6082458496094 181.28732299804688 C 293.4873962402344 182.33523559570312 289.6623840332031 183.7955322265625 286.1044616699219 185.58985900878906 C 284.9874267578125 174.31488037109375 282.996337890625 168.62889099121094 280.9972229003906 159.77450561523438 C 283.1079406738281 158.86984252929688 285.9266357421875 157.3995819091797 288.9572448730469 155.8799591064453 C 293.79925537109375 153.3451385498047 298.8450927734375 149.88160705566406 304.1830749511719 146.10629272460938 C 312.1183166503906 141.59373474121094 322.56280517578125 139.47299194335938 332.7444763183594 139.84617614746094 C 342.7686767578125 141.0387725830078 351.3011474609375 143.889404296875 357.9886474609375 148.3336944580078 C 363.8213806152344 153.099365234375 368.8474426269531 158.4810028076172 372.99102783203125 164.7810821533203 C 376.0344543457031 171.28965759277344 376.7405700683594 172.03829956054688 377.6417236328125 172.5393524169922 C 378.5455627441406 173.1055145263672 379.21099853515625 173.02569580078125 379.81494140625 176.18954467773438 C 381.30303955078125 175.8051300048828 382.7154235839844 175.34002685546875 384.01904296875 174.70907592773438 C 387.7938537597656 180.72940063476562 389.1497497558594 195.12657165527344 390.562744140625 202.34207153320312 C 386.39599609375 202.69187927246094 382.6889953613281 204.2333984375 381.81622314453125 204.66909790039062 C 380.7909851074219 205.0105743408203 379.9601745605469 205.63174438476562 378.6607360839844 207.17129516601562 C 376.4081115722656 213.75022888183594 373.00799560546875 221.51458740234375 367.3038024902344 229.39114379882812 C 360.204345703125 237.2230987548828 351.8432312011719 242.44728088378906 342.6475830078125 245.98069763183594 C 329.9123229980469 249.08677673339844 316.8070373535156 249.71044921875 306.392822265625 247.7290802001953 C 294.370361328125 245.50070190429688 284.1459655761719 243.27993774414062 271.49481201171875 241.8883514404297"/>
  </g>
</svg>
