<?xml version="1.0" ?>
<svg xmlns="http://www.w3.org/2000/svg" version="1.1" width="600" height="600">
  <defs/>
  <g>
    <path stroke-width="0" fill="rgb(0, 0, 0)" opacity="1.0" d="M 57.477516174316406 443.58221435546875 C 59.1292839050293 440.8382263183594 60.56660079956055 438.41729736328125 57.24538040161133 438.0350341796875 C 54.8726692199707 438.5379638671875 54.3547477722168 436.39422607421875 54.25164794921875 434.6604919433594 C 54.40617752075195 432.8081359863281 55.968360900878906 438.0505676269531 55.6178092956543 436.4354248046875 C 53.89160919189453 431.87127685546875 51.87708282470703 425.6948547363281 50.741024017333984 419.5630798339844 C 50.53527069091797 413.5791320800781 50.73875045776367 410.08160400390625 52.69333267211914 403.674560546875 C 54.17044448852539 399.7347412109375 55.35823059082031 396.60992431640625 55.6599235534668 394.7255859375 C 56.15547180175781 389.7167663574219 56.96125411987305 386.1380615234375 57.111515045166016 384.774658203125 C 57.12364196777344 383.7908935546875 56.1725959777832 380.712646484375 54.951637268066406 376.91680908203125 C 54.67444610595703 374.28570556640625 54.53608322143555 371.0946960449219 54.38056945800781 367.2907409667969 C 54.14847183227539 363.790283203125 54.17973327636719 358.83331298828125 54.37997055053711 355.2673034667969 C 54.71686935424805 358.5099792480469 54.246517181396484 355.19061279296875 54.204750061035156 354.6607971191406 C 53.227508544921875 349.9754943847656 53.69840621948242 347.2220153808594 54.82840347290039 343.437744140625 C 55.301666259765625 340.12811279296875 55.68708419799805 337.5333557128906 56.11907196044922 333.5454406738281 C 55.98617172241211 329.4319763183594 55.93766403198242 325.77587890625 56.81256103515625 321.5958557128906 C 56.9281120300293 320.2582092285156 58.1283073425293 320.3416442871094 58.083656311035156 317.8987731933594 C 58.6118278503418 315.6785888671875 58.97203063964844 313.02978515625 59.381927490234375 310.46954345703125 C 61.89341735839844 310.8343505859375 64.53945922851562 311.28973388671875 67.3092269897461 311.70855712890625 C 67.78506469726562 309.830322265625 71.80027770996094 309.8633728027344 72.2290267944336 306.5063171386719 C 72.22216796875 307.3735046386719 72.53570556640625 309.4521179199219 77.43019104003906 309.2966003417969 C 79.94294738769531 309.47003173828125 82.12700653076172 309.3240966796875 84.70543670654297 311.1996154785156 C 83.26853942871094 313.1098937988281 86.00221252441406 314.08990478515625 86.06838989257812 316.3093566894531 C 86.0347900390625 318.7790222167969 86.12667083740234 319.3898010253906 86.08872985839844 322.1484375 C 86.15043640136719 324.6017761230469 85.11579895019531 329.0799255371094 85.32218170166016 327.0473937988281 C 85.13397216796875 331.8299255371094 84.89735412597656 336.5494384765625 84.39868927001953 340.0928039550781 C 83.76998901367188 345.8170166015625 82.91885375976562 351.0938415527344 82.84259033203125 348.1328430175781 C 82.99143981933594 348.894287109375 83.4460220336914 352.2746276855469 83.87629699707031 355.92425537109375 C 83.75379943847656 358.2113037109375 83.62256622314453 359.5704650878906 83.52623748779297 362.8048095703125 C 83.47537231445312 366.4421081542969 83.87808227539062 371.5432434082031 83.25251770019531 369.2644348144531 C 84.63343048095703 373.4996032714844 85.61946868896484 379.36199951171875 86.0903091430664 383.8832702636719 C 85.83692169189453 388.8544616699219 84.402099609375 395.0733642578125 84.63992309570312 393.18170166015625 C 84.0086669921875 397.8768310546875 82.87613677978516 402.62371826171875 81.68899536132812 407.57501220703125 C 80.52814483642578 410.9416198730469 79.47110748291016 414.3230895996094 79.70369720458984 411.9145202636719 C 79.69550323486328 413.2928771972656 79.78158569335938 415.1187744140625 80.29150390625 417.9004211425781 C 80.83953094482422 420.5824890136719 81.68543243408203 423.6996765136719 83.8885726928711 429.7691345214844 C 91.60492706298828 432.6964416503906 97.09729766845703 434.7048034667969 99.2778091430664 435.2185363769531 C 101.59432220458984 435.0506896972656 103.70195770263672 434.599365234375 110.21175384521484 431.1734924316406 C 116.95756530761719 427.2246398925781 111.0165023803711 427.77410888671875 118.07664489746094 427.2735290527344 C 125.07897186279297 427.8677062988281 131.29922485351562 429.0245666503906 136.2637481689453 430.1733703613281 C 135.33163452148438 434.2896423339844 134.91622924804688 438.1253662109375 134.76885986328125 442.2479248046875 C 135.53573608398438 445.6178283691406 136.17555236816406 450.1414794921875 136.7862548828125 452.9935302734375 C 133.93052673339844 453.71728515625 129.4105224609375 454.9950256347656 125.31083679199219 455.6317138671875 C 121.97853088378906 456.4365539550781 120.24541473388672 456.8529052734375 118.01786041259766 457.7060852050781 C 125.50184631347656 457.3229675292969 121.19567108154297 459.4444580078125 112.7016372680664 463.06756591796875 C 105.50502014160156 463.7278747558594 98.4034652709961 463.76898193359375 91.99022674560547 462.6818542480469 C 84.21419525146484 459.6261291503906 78.60639190673828 456.78204345703125 73.91796112060547 455.1151123046875 C 70.94017791748047 453.73699951171875 68.9295654296875 452.9458923339844 68.2444076538086 452.80133056640625 C 68.81255340576172 453.8724365234375 69.11648559570312 450.85516357421875 69.16661834716797 447.6968078613281 C 65.17788696289062 447.9894714355469 61.26429748535156 445.9418640136719 57.477516174316406 443.58221435546875"/>
    <path stroke-width="0" fill="rgb(0, 0, 0)" opacity="1.0" d="M 320.0489196777344 379.66827392578125 C 318.6968688964844 386.2750244140625 316.7070007324219 393.4239501953125 313.18792724609375 400.9907531738281 C 309.14373779296875 408.46734619140625 300.4223937988281 416.535888671875 292.87188720703125 420.03057861328125 C 289.99835205078125 421.7080078125 288.587646484375 422.42620849609375 287.7759094238281 423.09027099609375 C 287.2488098144531 423.70257568359375 286.3390197753906 424.660400390625 284.9180908203125 425.9524230957031 C 283.6166687011719 428.08636474609375 281.75738525390625 430.4728088378906 279.38336181640625 432.86370849609375 C 276.01934814453125 436.4007873535156 273.16937255859375 439.18896484375 270.6917724609375 441.2973937988281 C 265.8033447265625 445.4541931152344 261.9259948730469 448.54034423828125 255.68389892578125 452.8866882324219 C 250.72976684570312 455.7496643066406 244.52557373046875 458.192626953125 234.66204833984375 459.3627624511719 C 225.8135528564453 457.6359558105469 221.33984375 455.63787841796875 216.14968872070312 449.9685974121094 C 210.7185516357422 442.35040283203125 207.43817138671875 436.65032958984375 205.4733123779297 432.8635559082031 C 203.69129943847656 429.3890380859375 202.3832244873047 427.7350158691406 200.8126220703125 426.4659423828125 C 199.62167358398438 425.4866638183594 198.13092041015625 424.1770935058594 196.08901977539062 422.520751953125 C 192.497314453125 420.3373107910156 189.7705841064453 418.0794982910156 186.66709899902344 414.62286376953125 C 184.10733032226562 412.4914855957031 183.02525329589844 411.515380859375 176.09556579589844 405.4914245605469 C 172.3103485107422 400.78179931640625 170.11166381835938 395.4754333496094 168.30572509765625 391.94805908203125 C 166.08363342285156 387.8549499511719 161.59228515625 379.49237060546875 160.9114990234375 376.96148681640625 C 159.46902465820312 371.1741638183594 158.4098663330078 368.3063049316406 156.28936767578125 362.69659423828125 C 156.70556640625 356.80023193359375 156.92996215820312 355.7621154785156 158.20523071289062 349.9754333496094 C 159.31686401367188 343.3078308105469 161.8470001220703 337.05120849609375 165.5902557373047 332.0014343261719 C 170.99742126464844 326.2217712402344 174.79913330078125 323.31982421875 179.734619140625 321.0138244628906 C 184.19322204589844 318.6925354003906 188.78536987304688 317.2826843261719 194.6145782470703 315.3402404785156 C 200.3862762451172 314.7198181152344 205.9604949951172 315.0242919921875 213.41566467285156 317.0826110839844 C 220.93064880371094 317.89801025390625 227.14085388183594 321.3196105957031 228.6838836669922 322.0872497558594 C 231.51644897460938 322.75567626953125 236.04751586914062 323.3393859863281 241.13870239257812 323.5714416503906 C 245.69654846191406 323.3287353515625 251.53224182128906 320.70709228515625 254.95703125 319.0289611816406 C 259.5408935546875 316.62542724609375 261.9786682128906 314.8597717285156 264.4007568359375 313.652587890625 C 268.3748779296875 311.5167541503906 274.31103515625 309.5002136230469 280.0903015136719 308.29254150390625 C 287.01287841796875 308.142822265625 290.9713439941406 308.5791320800781 299.58758544921875 312.6332702636719 C 304.82501220703125 316.2516174316406 308.8221435546875 319.7609558105469 313.769775390625 326.755859375 C 316.1044921875 329.74420166015625 319.43817138671875 340.00579833984375 321.7855224609375 347.7950134277344 C 322.135986328125 354.44384765625 321.90594482421875 359.80572509765625 322.17376708984375 364.47625732421875 C 321.41650390625 369.8694763183594 320.8056640625 375.3292541503906 320.0489196777344 379.66827392578125M 188.6251678466797 367.11395263671875 C 190.23446655273438 373.0595703125 190.47076416015625 374.15380859375 194.18714904785156 383.5662841796875 C 195.12741088867188 386.6646423339844 195.7026824951172 388.0401916503906 201.5388946533203 390.1974792480469 C 207.91412353515625 398.7695007324219 217.96487426757812 403.9150390625 226.5019989013672 412.10894775390625 C 230.0784454345703 420.8337097167969 231.80154418945312 424.3520812988281 233.06724548339844 425.52264404296875 C 234.46339416503906 426.479736328125 236.01824951171875 427.1037292480469 237.4097900390625 427.23895263671875 C 238.76034545898438 427.13775634765625 241.07667541503906 426.3752136230469 244.20433044433594 425.6514892578125 C 247.569580078125 423.9007873535156 250.75486755371094 420.87884521484375 252.9883575439453 418.5458984375 C 259.0513610839844 412.1898193359375 264.6260070800781 403.7265625 276.3085021972656 395.93914794921875 C 286.1512451171875 394.4072570800781 287.0866394042969 393.8406982421875 288.23388671875 391.45703125 C 289.89166259765625 385.9179382324219 291.25323486328125 378.2514953613281 291.8266296386719 371.84503173828125 C 293.7937316894531 362.91571044921875 293.24151611328125 354.510498046875 290.6856994628906 346.57769775390625 C 289.0733642578125 344.7555847167969 286.1352233886719 342.66424560546875 283.47357177734375 340.9601135253906 C 282.1216125488281 340.4044494628906 279.8956604003906 340.2214050292969 276.4827575683594 341.3241882324219 C 273.79376220703125 342.0994873046875 265.7834777832031 348.1889343261719 250.0831298828125 361.0431823730469 C 230.95570373535156 358.63775634765625 219.83013916015625 353.92840576171875 208.72703552246094 343.3094787597656 C 206.56942749023438 342.2907409667969 203.17979431152344 341.63824462890625 199.87814331054688 341.47772216796875 C 196.71205139160156 341.9229431152344 191.05474853515625 344.9247131347656 189.96145629882812 346.13616943359375 C 188.84901428222656 349.0296325683594 188.3284454345703 351.72601318359375 187.96055603027344 355.5260009765625 C 187.9904022216797 364.6802062988281 188.32644653320312 359.25396728515625 188.6251678466797 367.11395263671875"/>
    <path stroke-width="0" fill="rgb(0, 0, 0)" opacity="1.0" d="M 435.11444091796875 314.12628173828125 C 432.2232666015625 314.9254150390625 429.28216552734375 315.7673645019531 431.59521484375 319.45526123046875 C 434.53240966796875 319.2480773925781 434.4713439941406 319.9888916015625 433.1853332519531 321.3599548339844 C 432.3812255859375 322.54541015625 435.2686462402344 322.6292419433594 434.7253112792969 325.1433410644531 C 434.4985656738281 328.28033447265625 434.4283752441406 332.2809143066406 433.9388427734375 335.0942687988281 C 434.3164978027344 339.7536315917969 434.41943359375 343.9362487792969 434.6200256347656 349.0552673339844 C 434.8619079589844 352.13037109375 434.91766357421875 353.60284423828125 435.05322265625 359.0528259277344 C 435.6178894042969 362.8934020996094 435.4803466796875 367.4615173339844 435.12847900390625 369.3316345214844 C 435.2427062988281 371.4414367675781 435.0180969238281 375.36993408203125 434.0993957519531 380.16595458984375 C 433.2804260253906 384.73193359375 431.18927001953125 389.4693908691406 430.7919006347656 390.6708679199219 C 430.09320068359375 394.09600830078125 428.52630615234375 399.1804504394531 427.1032409667969 402.47467041015625 C 424.55816650390625 407.0668640136719 423.3577575683594 409.6084899902344 421.9964294433594 412.5205993652344 C 420.72882080078125 415.53472900390625 419.16790771484375 419.1772155761719 417.578857421875 422.265869140625 C 416.11138916015625 424.9961853027344 415.0555725097656 427.410400390625 414.2989196777344 429.2206726074219 C 413.7589416503906 431.2038879394531 413.46649169921875 432.6075744628906 413.24969482421875 433.95941162109375 C 413.1131286621094 435.0314636230469 412.623291015625 439.8258056640625 409.35565185546875 441.31658935546875 C 408.68389892578125 443.89923095703125 407.9922790527344 446.96661376953125 407.3451843261719 449.7204284667969 C 404.3223876953125 450.11212158203125 400.6627197265625 450.4888916015625 400.770751953125 454.5501403808594 C 400.6580505371094 456.286865234375 397.5529479980469 457.23095703125 390.4191589355469 459.9642639160156 C 385.098876953125 459.46185302734375 383.6400146484375 459.58111572265625 382.2799072265625 459.3503723144531 C 382.10498046875 453.02557373046875 378.1439208984375 452.7264404296875 376.0554504394531 452.9749450683594 C 375.0489501953125 450.4974060058594 373.84368896484375 446.68890380859375 373.093505859375 444.4406433105469 C 365.3128662109375 442.4382019042969 364.45928955078125 438.0923156738281 363.9934997558594 435.9111328125 C 363.44757080078125 434.2564392089844 362.5157470703125 431.9737548828125 361.78118896484375 429.10943603515625 C 359.9905700683594 424.0341796875 358.85198974609375 419.4785461425781 357.8415832519531 415.9964599609375 C 357.0106506347656 411.4093933105469 356.42059326171875 408.5098571777344 355.3064880371094 405.3501281738281 C 354.3265686035156 403.0218811035156 355.7920227050781 406.2655944824219 353.7678527832031 402.18450927734375 C 352.0391845703125 398.8545837402344 350.15667724609375 395.83782958984375 347.8421936035156 393.127197265625 C 345.232421875 388.7081298828125 343.2261962890625 384.43194580078125 341.4776916503906 379.5690002441406 C 339.4851989746094 374.0393371582031 337.853759765625 369.6434020996094 335.6488342285156 362.152587890625 C 335.5702819824219 361.4263610839844 336.30224609375 353.8553161621094 334.49188232421875 347.46868896484375 C 334.2005920410156 349.92041015625 336.96807861328125 339.5229797363281 336.8453063964844 338.71966552734375 C 336.18841552734375 335.0091857910156 335.884521484375 330.4949035644531 335.1731872558594 326.328857421875 C 334.8588562011719 322.5495910644531 334.080078125 318.5796203613281 337.9798583984375 318.54815673828125 C 340.7445068359375 318.3370056152344 342.32470703125 317.21112060546875 340.9813537597656 316.5306396484375 C 338.72186279296875 315.4493713378906 336.7558898925781 314.8102722167969 334.393798828125 314.2593078613281 C 336.9543151855469 309.59442138671875 340.5754699707031 304.6362609863281 347.2819519042969 301.5427551269531 C 351.8909912109375 302.3313293457031 357.2759094238281 303.77630615234375 362.8346252441406 306.0221862792969 C 362.7737731933594 308.89984130859375 362.4540100097656 312.2453308105469 362.24957275390625 315.21282958984375 C 362.4032897949219 319.25079345703125 362.0813903808594 325.7317199707031 362.2386474609375 328.671142578125 C 362.9425048828125 332.9566955566406 362.863525390625 337.5885925292969 361.23834228515625 343.9508056640625 C 363.1757507324219 348.8523864746094 362.91485595703125 346.42462158203125 361.5707092285156 354.5052185058594 C 362.05474853515625 357.4363708496094 363.0961608886719 359.90478515625 363.8905944824219 362.4830627441406 C 364.1711120605469 363.498046875 365.3855895996094 368.1359558105469 365.77008056640625 370.2502746582031 C 366.8642272949219 373.687255859375 367.5081481933594 375.18536376953125 369.0843811035156 377.7445983886719 C 370.92803955078125 379.8735656738281 373.5705261230469 383.20159912109375 376.0480651855469 387.48150634765625 C 377.7452392578125 390.4427185058594 378.70147705078125 392.0128479003906 379.9517517089844 396.1741027832031 C 381.2342529296875 401.6595458984375 382.1252136230469 405.9373779296875 383.4949035644531 412.5897521972656 C 384.5591735839844 417.9299621582031 384.99676513671875 419.7696228027344 385.9537658691406 425.8592834472656 C 387.23797607421875 420.2540588378906 389.0126953125 415.67822265625 391.0730895996094 411.2099304199219 C 393.2689208984375 407.50006103515625 394.7497253417969 404.796875 396.6153869628906 400.2174072265625 C 398.25909423828125 396.4866638183594 399.09619140625 393.87060546875 400.39111328125 390.14080810546875 C 400.66925048828125 389.48919677734375 402.1190185546875 385.9654541015625 403.0874328613281 383.6072082519531 C 404.52081298828125 378.038818359375 405.2337646484375 375.5669250488281 405.3346862792969 374.5216064453125 C 405.3494567871094 370.2951354980469 405.3240966796875 369.70086669921875 405.3856506347656 368.1568603515625 C 405.5132141113281 361.72674560546875 405.3858642578125 360.8880920410156 404.9427795410156 356.1313171386719 C 405.02325439453125 352.3450012207031 404.45977783203125 347.02996826171875 404.78814697265625 341.871826171875 C 404.3578186035156 338.3360290527344 404.3868408203125 332.3489074707031 403.91204833984375 328.163330078125 C 403.9105224609375 324.5672302246094 404.7515563964844 318.679931640625 404.0632629394531 316.20135498046875 C 404.9250183105469 312.8052978515625 404.8763732910156 308.5657958984375 404.1071472167969 303.5160827636719 C 412.67803955078125 299.9459228515625 419.0985107421875 298.817138671875 427.60162353515625 300.64697265625 C 424.5332336425781 306.2475280761719 431.71612548828125 308.680419921875 435.11444091796875 314.12628173828125"/>
    <path stroke-width="0" fill="rgb(0, 0, 0)" opacity="1.0" d="M 551.7664184570312 453.4775695800781 C 547.3798828125 454.86785888671875 542.465087890625 456.19647216796875 538.6722412109375 457.0003967285156 C 534.753662109375 457.2791442871094 538.7890625 457.2864685058594 535.3004760742188 456.8631286621094 C 530.0525512695312 455.8594055175781 528.4183959960938 455.5486145019531 524.5179443359375 455.0593566894531 C 520.5430297851562 454.5418395996094 516.23779296875 453.8184509277344 511.50079345703125 453.39971923828125 C 518.1035766601562 452.7470703125 512.229248046875 452.5994873046875 506.79010009765625 452.67364501953125 C 501.4712219238281 452.7322692871094 498.5065612792969 452.8559265136719 494.55694580078125 452.6649169921875 C 491.9453430175781 452.8374328613281 487.9025573730469 452.1230163574219 484.4634704589844 450.467529296875 C 481.68890380859375 448.72247314453125 478.32305908203125 446.52520751953125 475.3739013671875 444.806884765625 C 476.7032165527344 442.534423828125 478.1606140136719 439.14910888671875 479.3936767578125 436.98291015625 C 480.4912414550781 435.12738037109375 478.2952880859375 434.3711853027344 478.32135009765625 433.6130065917969 C 477.6084289550781 430.5470886230469 477.4580383300781 429.4672546386719 477.9383544921875 424.77056884765625 C 476.536376953125 419.6046447753906 476.5874938964844 413.306884765625 476.6698913574219 409.6799011230469 C 476.2942199707031 406.8282165527344 476.73406982421875 409.43505859375 476.1109924316406 403.1687316894531 C 476.5385437011719 394.44781494140625 475.8587341308594 400.89288330078125 475.98541259765625 397.66143798828125 C 476.3248596191406 401.3299865722656 475.2220153808594 396.820068359375 474.4442138671875 391.2562255859375 C 474.6444091796875 394.3054504394531 473.8824157714844 391.051025390625 473.04827880859375 387.72320556640625 C 472.309814453125 379.4611511230469 472.2231750488281 377.3701477050781 473.02685546875 369.5413818359375 C 473.121337890625 369.07293701171875 474.21612548828125 374.99041748046875 470.79443359375 368.5001220703125 C 470.64581298828125 362.7864685058594 471.8385009765625 354.5875244140625 473.7255554199219 362.2409362792969 C 471.7798767089844 355.6121826171875 471.30108642578125 348.6785583496094 470.7846374511719 345.60009765625 C 472.0886535644531 338.4776916503906 471.0659484863281 344.74359130859375 470.44122314453125 336.8685607910156 C 470.763916015625 331.8643798828125 470.9643859863281 327.8864440917969 471.8697204589844 321.03436279296875 C 472.826171875 320.4219055175781 472.8924865722656 317.7355651855469 473.0364074707031 314.75408935546875 C 473.3369445800781 310.2927551269531 476.1390380859375 308.5345764160156 474.0372619628906 305.7566223144531 C 476.77880859375 304.150390625 480.67999267578125 304.7342224121094 485.4674072265625 305.0256652832031 C 489.52313232421875 305.4383544921875 493.1983947753906 305.5513000488281 490.4387512207031 308.55023193359375 C 495.804443359375 308.90240478515625 498.2379455566406 309.11700439453125 503.44586181640625 310.1021423339844 C 506.3344421386719 310.3611145019531 511.50018310546875 310.2314758300781 516.1353149414062 310.6123352050781 C 521.6240844726562 310.3865661621094 518.247314453125 310.5184631347656 522.8783569335938 309.2168884277344 C 525.832763671875 308.391357421875 530.6547241210938 308.30645751953125 533.3292236328125 307.9494323730469 C 536.1862182617188 308.1717834472656 539.8225708007812 308.2750244140625 540.034423828125 309.629150390625 C 541.5469360351562 308.8538513183594 545.075927734375 307.0650634765625 547.9305419921875 305.34832763671875 C 548.9068603515625 307.2253112792969 549.8546752929688 309.3118591308594 550.8114624023438 311.1106262207031 C 552.1898803710938 313.6217956542969 553.2195434570312 315.9727783203125 554.2178344726562 319.7557067871094 C 554.2543334960938 321.9137878417969 554.4727783203125 325.1352233886719 553.3871459960938 325.1443176269531 C 553.7112426757812 326.8766784667969 550.6927490234375 327.7961120605469 552.3880615234375 328.8989562988281 C 550.1923217773438 332.65814208984375 546.4017944335938 333.409423828125 542.7059936523438 333.5225830078125 C 539.2781372070312 333.82904052734375 536.7638549804688 333.8865966796875 533.7066040039062 333.91229248046875 C 530.0555419921875 333.6849670410156 534.4375610351562 334.0046081542969 530.2681884765625 334.25738525390625 C 532.8491821289062 333.7719421386719 528.330810546875 335.39044189453125 522.822509765625 336.6423645019531 C 519.1849365234375 336.4551086425781 514.7971801757812 335.9879455566406 511.3683166503906 335.40118408203125 C 512.4443359375 335.43145751953125 508.3176574707031 335.86688232421875 503.1612854003906 335.5378723144531 C 503.1362609863281 337.9875793457031 504.1079406738281 343.696044921875 503.01171875 347.9223327636719 C 502.7720947265625 350.3049011230469 503.26739501953125 344.6455993652344 503.5234375 346.92718505859375 C 504.2476806640625 350.2210998535156 504.6869812011719 351.32275390625 504.4850158691406 356.25262451171875 C 503.7978515625 361.89385986328125 503.86309814453125 362.6634216308594 503.9362487792969 363.28350830078125 C 510.0955810546875 363.27032470703125 513.9381713867188 364.08294677734375 519.0865478515625 364.77191162109375 C 523.2481689453125 365.4218444824219 524.6900024414062 365.73748779296875 529.3265991210938 366.3059387207031 C 532.0385131835938 366.7261047363281 535.7374267578125 366.45159912109375 538.9247436523438 366.41033935546875 C 543.6172485351562 366.21405029296875 545.7921142578125 367.34429931640625 549.8373413085938 368.7015380859375 C 548.6682739257812 371.4593811035156 547.87158203125 373.2095642089844 550.9607543945312 373.0240783691406 C 551.005615234375 374.1584167480469 551.3002319335938 378.05023193359375 551.3857421875 380.5494689941406 C 551.4580688476562 381.59844970703125 551.7083740234375 382.6866455078125 550.1453247070312 383.1988525390625 C 551.2854614257812 385.1539611816406 552.44287109375 387.0784606933594 553.4617309570312 389.0939025878906 C 550.1931762695312 390.8111267089844 545.818603515625 393.2393493652344 542.755859375 393.9519958496094 C 535.8163452148438 394.9096374511719 530.8744506835938 394.8050537109375 526.4339599609375 394.5701599121094 C 519.8533325195312 393.5187683105469 516.2899169921875 392.4714050292969 512.1537475585938 391.1491394042969 C 509.2439270019531 390.0650634765625 507.5619812011719 389.6946105957031 504.0314025878906 389.7340393066406 C 504.2919616699219 391.4833068847656 505.7076416015625 396.3035888671875 505.6534423828125 399.3168640136719 C 505.65631103515625 401.91949462890625 506.4137268066406 395.4900207519531 507.00921630859375 399.47186279296875 C 508.37261962890625 403.33447265625 508.4749450683594 406.5445556640625 508.568359375 409.9397888183594 C 507.19036865234375 417.8575134277344 507.200927734375 419.4899597167969 507.7767333984375 425.16363525390625 C 513.2716064453125 424.545166015625 515.8385009765625 425.09283447265625 519.5850830078125 425.49420166015625 C 525.1937255859375 425.7035827636719 528.044921875 425.9129333496094 535.7530517578125 424.8072204589844 C 539.1322631835938 425.65460205078125 540.9620971679688 426.0503845214844 533.2056274414062 426.9334716796875 C 538.0386352539062 426.8491516113281 543.6762084960938 427.45037841796875 547.2467041015625 428.71917724609375 C 546.9219360351562 430.2008056640625 546.734130859375 431.7341003417969 546.8998413085938 432.6153869628906 C 548.0489501953125 432.31201171875 549.45654296875 437.3620300292969 549.5429077148438 439.6680603027344 C 549.9755859375 442.29901123046875 550.1627807617188 445.3705139160156 549.6044921875 445.5772399902344 C 550.180908203125 447.7895812988281 551.1149291992188 451.0359191894531 551.7664184570312 453.4775695800781"/>
    <path stroke-width="0" fill="rgb(0, 0, 0)" opacity="1.0" d="M 124.57425689697266 240.26893615722656 C 128.61000061035156 232.94081115722656 129.12705993652344 225.30287170410156 127.3978500366211 216.32412719726562 C 147.9015655517578 212.88868713378906 162.2125701904297 221.53085327148438 170.4962158203125 225.77044677734375 C 173.7037811279297 226.30502319335938 180.89501953125 223.917236328125 187.47491455078125 216.71376037597656 C 194.3940887451172 208.788330078125 199.70870971679688 202.774658203125 205.40322875976562 195.1598358154297 C 212.24119567871094 187.0067901611328 218.8679656982422 175.66299438476562 221.0260467529297 165.42127990722656 C 231.03514099121094 165.95765686035156 236.58676147460938 166.18592834472656 246.3245849609375 164.55625915527344 C 247.05287170410156 169.02798461914062 247.32933044433594 172.4458770751953 247.29710388183594 176.2798309326172 C 247.7283172607422 179.17262268066406 247.5897674560547 188.79664611816406 238.30491638183594 192.02227783203125 C 239.98178100585938 197.2633819580078 241.93817138671875 200.5010223388672 244.82205200195312 203.36007690429688 C 247.6476593017578 206.3976593017578 252.59239196777344 210.26063537597656 260.8475036621094 212.33628845214844 C 267.9082946777344 214.9349822998047 273.1704406738281 216.3232879638672 279.6551513671875 217.2043914794922 C 285.28985595703125 218.35787963867188 289.30145263671875 221.2766571044922 290.6755065917969 224.51937866210938 C 292.0972595214844 227.57260131835938 292.3381042480469 230.97964477539062 291.356201171875 235.2266387939453 C 290.30859375 239.70872497558594 287.7978515625 243.0858154296875 284.1128845214844 245.0169219970703 C 280.79925537109375 246.80068969726562 276.56280517578125 247.0036163330078 271.33624267578125 245.45126342773438 C 262.4830017089844 243.0443572998047 257.2637939453125 240.4398956298828 248.75607299804688 236.78839111328125 C 240.59437561035156 234.16075134277344 233.7541046142578 229.14312744140625 229.45578002929688 225.0252227783203 C 225.8549041748047 221.77880859375 223.48489379882812 217.7408905029297 222.34646606445312 212.02133178710938 C 225.10923767089844 211.18716430664062 228.19332885742188 210.2866668701172 231.26438903808594 209.4518585205078 C 226.93104553222656 215.8205108642578 222.63616943359375 219.54592895507812 216.95733642578125 224.74810791015625 C 212.32066345214844 230.17083740234375 204.58006286621094 237.751708984375 195.41110229492188 244.8916778564453 C 181.6417999267578 255.33448791503906 165.65333557128906 257.8135070800781 150.8182830810547 248.96417236328125 C 141.4288787841797 239.91490173339844 135.0827178955078 238.74623107910156 129.2459716796875 238.81654357910156 C 115.70296478271484 246.8940887451172 103.61785125732422 253.58529663085938 91.35404968261719 247.0541229248047 C 80.39403533935547 237.87826538085938 73.44351959228516 232.0652313232422 69.36209869384766 226.57582092285156 C 63.90958023071289 223.71481323242188 59.76910400390625 219.67340087890625 56.73514175415039 216.0016326904297 C 53.22893142700195 212.11180114746094 51.022369384765625 208.43951416015625 48.49205780029297 203.9187469482422 C 45.87828063964844 199.0917205810547 44.2159538269043 194.65988159179688 42.96003723144531 189.21548461914062 C 41.007232666015625 183.26873779296875 39.538700103759766 177.32896423339844 40.397010803222656 171.7249298095703 C 40.57561492919922 167.6503448486328 40.851104736328125 163.04933166503906 41.55422592163086 159.28359985351562 C 49.95729446411133 160.6361846923828 59.098594665527344 162.41270446777344 67.1207275390625 162.518310546875 C 67.12599182128906 165.1103973388672 67.13468170166016 167.86834716796875 67.00972747802734 171.0239715576172 C 66.71525573730469 173.9755859375 66.55715942382812 175.76097106933594 66.61390686035156 176.7208251953125 C 66.79680633544922 178.11605834960938 67.851318359375 181.60812377929688 68.68878936767578 183.83447265625 C 70.89205932617188 189.0520782470703 76.62411499023438 194.43011474609375 86.57439422607422 202.78378295898438 C 93.84693145751953 213.23133850097656 100.54399108886719 220.3113555908203 106.533935546875 223.83973693847656 C 97.79729461669922 224.75833129882812 114.64559173583984 216.2766571044922 129.861328125 213.87786865234375 C 132.00625610351562 222.90982055664062 133.07293701171875 229.3508758544922 133.69020080566406 235.02084350585938 C 131.8953399658203 236.3827362060547 130.22296142578125 237.77137756347656 124.57425689697266 240.26893615722656M 127.47777557373047 298.1523742675781 C 130.9314727783203 293.93365478515625 124.80469512939453 295.72332763671875 127.27893829345703 300.3211364746094 C 124.29507446289062 289.9127197265625 119.09589385986328 288.79888916015625 111.44049072265625 271.1126708984375 C 107.78934478759766 258.0834045410156 122.19723510742188 250.02685546875 128.7935028076172 262.52227783203125 C 127.37100219726562 282.0444641113281 131.51797485351562 281.585693359375 142.44235229492188 261.7688903808594 C 165.56137084960938 256.0900573730469 158.15122985839844 278.73291015625 154.3350372314453 277.2538757324219 C 157.4906463623047 265.4537658691406 156.5406036376953 273.16796875 156.0908966064453 275.0276184082031 C 156.80899047851562 282.0087585449219 154.43557739257812 282.24517822265625 151.24729919433594 281.4496765136719 C 138.7472686767578 292.26776123046875 134.51133728027344 303.93798828125 127.47777557373047 298.1523742675781"/>
    <path stroke-width="0" fill="rgb(0, 0, 0)" opacity="1.0" d="M 272.0675964355469 245.65606689453125 C 274.4261474609375 236.6207275390625 276.4971923828125 226.67648315429688 278.0857849121094 216.83282470703125 C 286.5618591308594 218.7027130126953 294.005859375 221.0086669921875 300.850830078125 222.01666259765625 C 306.68255615234375 222.78521728515625 310.738037109375 221.8038787841797 315.5318603515625 219.299560546875 C 321.2019348144531 215.05047607421875 328.23065185546875 209.54449462890625 335.47235107421875 203.4269561767578 C 342.4002380371094 198.430419921875 350.06134033203125 192.2582550048828 358.443115234375 185.2280731201172 C 355.19183349609375 179.23179626464844 352.5348815917969 175.3002471923828 348.92706298828125 173.0218505859375 C 345.1910400390625 171.1812744140625 339.96588134765625 170.48760986328125 333.39727783203125 170.0231170654297 C 328.80657958984375 170.31423950195312 324.1283874511719 171.1959686279297 320.86444091796875 172.6519317626953 C 318.0362243652344 174.46656799316406 314.25921630859375 176.43695068359375 310.4368896484375 179.24574279785156 C 304.50909423828125 184.43814086914062 302.448486328125 185.53721618652344 297.537109375 187.8097686767578 C 292.7410888671875 189.990478515625 289.33837890625 191.3667449951172 286.4197998046875 192.68087768554688 C 283.8701477050781 182.3705291748047 280.579833984375 176.05885314941406 280.3309631347656 167.30209350585938 C 284.6536560058594 166.6135711669922 288.5317687988281 166.7227020263672 287.3069152832031 161.57821655273438 C 291.4122619628906 158.90365600585938 297.4335632324219 155.0079803466797 304.5988464355469 151.107177734375 C 312.9702453613281 145.07449340820312 322.55426025390625 142.04379272460938 331.4016418457031 141.96240234375 C 341.8810119628906 143.83494567871094 348.60589599609375 145.6904296875 356.34954833984375 148.56578063964844 C 364.3543395996094 152.8221893310547 370.8064880371094 157.71212768554688 376.8631591796875 164.50833129882812 C 380.5824279785156 170.84872436523438 381.9512939453125 173.0016632080078 381.5454406738281 171.08236694335938 C 381.456298828125 169.4319610595703 382.1357727050781 169.6820526123047 381.82403564453125 176.14173889160156 C 381.9676818847656 181.02902221679688 383.43524169921875 180.20706176757812 386.0615234375 178.422607421875 C 394.0034484863281 187.60391235351562 390.3141174316406 198.65809631347656 387.464599609375 204.80503845214844 C 384.69219970703125 203.6202850341797 382.2532043457031 203.3267822265625 380.48681640625 203.88414001464844 C 379.555419921875 204.19879150390625 377.2825012207031 205.48812866210938 372.62213134765625 209.2152862548828 C 367.4588317871094 213.75042724609375 362.1895446777344 218.06985473632812 356.009033203125 223.5460205078125 C 350.25421142578125 228.86619567871094 344.6034851074219 234.35227966308594 337.701904296875 240.30410766601562 C 329.701416015625 246.77027893066406 319.8546142578125 251.2433319091797 308.03424072265625 252.52159118652344 C 296.3155822753906 252.405517578125 283.60888671875 248.9336700439453 272.0675964355469 245.65606689453125"/>
  </g>
</svg>
