<?xml version="1.0" ?>
<svg xmlns="http://www.w3.org/2000/svg" version="1.1" width="600" height="600">
  <defs/>
  <g>
    <path stroke-width="0" fill="rgb(0, 0, 0)" opacity="1.0" d="M 95.5866470336914 331.2603454589844 C 100.12159729003906 331.7098388671875 102.66474151611328 332.05987548828125 100.14729309082031 331.72662353515625 C 103.8438491821289 331.8393249511719 102.0873794555664 331.56005859375 104.6266860961914 331.7787170410156 C 107.90860748291016 332.30633544921875 112.45259094238281 333.82708740234375 115.60289001464844 335.11602783203125 C 117.2242660522461 335.6665954589844 118.42729187011719 336.11163330078125 121.60417938232422 338.2453308105469 C 122.89971923828125 338.8640441894531 124.4522933959961 339.92462158203125 127.03938293457031 343.11260986328125 C 127.9522476196289 344.0157775878906 128.7886505126953 345.1573181152344 130.54241943359375 348.5947570800781 C 131.11245727539062 349.4153137207031 131.5516357421875 350.0763244628906 132.4500732421875 354.990966796875 C 133.79330444335938 357.7845458984375 134.87664794921875 361.31591796875 134.9249267578125 364.3479309082031 C 135.53009033203125 367.7411193847656 135.41220092773438 365.0946960449219 135.93617248535156 368.2355041503906 C 135.99993896484375 372.9547424316406 135.7511444091797 370.2750549316406 135.89842224121094 375.4654541015625 C 135.81634521484375 378.7120361328125 135.36151123046875 382.5935974121094 134.95880126953125 384.3477478027344 C 133.699462890625 388.4432678222656 132.89056396484375 390.1047668457031 132.0494384765625 391.74786376953125 C 131.09815979003906 393.8318786621094 130.2921142578125 395.1705322265625 129.64202880859375 396.0924072265625 C 126.73960876464844 401.2437744140625 126.05984497070312 401.6856384277344 124.97205352783203 402.4736022949219 C 122.12036895751953 404.9617919921875 120.12122344970703 405.8620300292969 119.06736755371094 406.4643249511719 C 115.7575912475586 408.64093017578125 111.39326477050781 409.914794921875 109.0591049194336 410.2234802246094 C 104.72547149658203 411.2594909667969 101.2936782836914 412.3851318359375 100.52916717529297 412.3494567871094 C 94.35948944091797 411.0747985839844 93.77083587646484 411.0579528808594 90.90412902832031 410.9197082519531 C 84.39501953125 410.9947204589844 83.38080596923828 410.9959716796875 82.58096313476562 410.7674255371094 C 82.38186645507812 411.5251159667969 83.70911407470703 406.2063293457031 84.28025817871094 409.09039306640625 C 85.09419250488281 411.7806701660156 85.91033172607422 414.9781188964844 86.09268951416016 417.1704406738281 C 85.68669128417969 415.3997802734375 86.25098419189453 420.4662170410156 87.20307159423828 423.4985656738281 C 87.97713470458984 428.1895751953125 88.71198272705078 432.1390075683594 88.0693588256836 429.7017517089844 C 89.04462432861328 434.49285888671875 89.9574203491211 439.28302001953125 90.02497863769531 437.07159423828125 C 89.96110534667969 442.0111389160156 88.99160766601562 445.69464111328125 88.54669952392578 446.9784240722656 C 87.49832153320312 448.891845703125 85.43214416503906 450.4521179199219 83.00364685058594 451.95880126953125 C 82.26082611083984 452.3492736816406 81.37832641601562 451.2828369140625 79.5068588256836 453.00970458984375 C 77.73876953125 451.0350341796875 76.95218658447266 448.7462158203125 74.92618560791016 449.3763732910156 C 73.86271667480469 450.6614685058594 72.68093872070312 453.1654357910156 72.41553497314453 455.34393310546875 C 72.48007202148438 452.7825927734375 71.13839721679688 452.9230041503906 69.12024688720703 452.9058532714844 C 67.24515533447266 452.89825439453125 64.84321594238281 453.11956787109375 62.34981155395508 453.52197265625 C 62.14971160888672 450.80755615234375 61.847103118896484 447.85028076171875 61.95769500732422 445.075439453125 C 60.971492767333984 445.1733703613281 60.82951736450195 442.1395263671875 61.7576904296875 438.01849365234375 C 62.22414016723633 441.4057312011719 61.63140106201172 438.0522766113281 61.288021087646484 435.6317443847656 C 60.70894241333008 431.66143798828125 59.930580139160156 429.079833984375 58.907073974609375 423.7160949707031 C 58.490867614746094 420.283447265625 57.89935302734375 417.01678466796875 57.196495056152344 413.20880126953125 C 56.175567626953125 407.1794128417969 56.61613082885742 404.4638366699219 57.37028121948242 399.42169189453125 C 53.975868225097656 405.6685485839844 54.34373092651367 401.6479797363281 54.53230285644531 399.4525451660156 C 55.782901763916016 400.5314025878906 58.33135986328125 403.0067138671875 56.85664749145508 399.3260192871094 C 55.448062896728516 394.2859191894531 54.110740661621094 387.7152099609375 53.15011978149414 382.9697570800781 C 52.82971954345703 379.3724670410156 53.02838897705078 373.48095703125 52.4744873046875 378.9567565917969 C 52.48676681518555 375.61163330078125 52.46097183227539 373.1745300292969 52.879791259765625 368.9228210449219 C 52.66962814331055 372.81036376953125 52.19104766845703 369.09332275390625 52.419498443603516 366.0758361816406 C 53.02668380737305 360.7626037597656 52.862388610839844 354.4438171386719 53.51750564575195 349.3614807128906 C 53.92406463623047 354.4400939941406 54.049827575683594 350.9994201660156 54.41837692260742 345.8336181640625 C 53.963375091552734 343.2925720214844 54.19926071166992 342.2091064453125 54.46002960205078 339.2471008300781 C 54.51762390136719 336.7281494140625 54.819087982177734 333.9804992675781 55.496891021728516 331.09381103515625 C 58.71275329589844 331.98388671875 61.24351119995117 332.0364990234375 64.486572265625 331.87371826171875 C 67.94439697265625 331.713134765625 71.5398178100586 331.51654052734375 75.24977111816406 331.35247802734375 C 78.8944320678711 331.4454040527344 82.29337310791016 331.4156494140625 86.6817398071289 330.9824523925781 C 89.92819213867188 331.278076171875 91.58636474609375 331.3968200683594 95.5866470336914 331.2603454589844M 95.7286605834961 355.48089599609375 C 93.50863647460938 355.6774597167969 91.77893829345703 355.7900390625 89.59832000732422 355.90106201171875 C 87.52758026123047 355.8636169433594 85.4378662109375 355.7791442871094 83.68733215332031 355.6174011230469 C 82.8182601928711 359.14495849609375 82.49464416503906 363.7145080566406 82.41224670410156 367.220947265625 C 82.3987045288086 369.0066223144531 82.3883056640625 369.7606201171875 82.30032348632812 372.2033996582031 C 82.28939819335938 373.31585693359375 82.21669006347656 376.41510009765625 82.32203674316406 377.7115478515625 C 82.14376068115234 378.6911315917969 81.88729095458984 382.5482482910156 82.00540924072266 385.6643371582031 C 83.73494720458984 385.82965087890625 86.76226806640625 386.4854736328125 90.33506774902344 387.7114562988281 C 90.75839233398438 387.8066711425781 91.94428253173828 387.7671203613281 97.35234069824219 386.83673095703125 C 98.44868469238281 386.6662902832031 102.60709381103516 386.2895812988281 103.94596099853516 385.802490234375 C 105.52008056640625 385.1304931640625 106.54215240478516 384.1863098144531 107.92959594726562 382.4734191894531 C 109.4170150756836 380.85552978515625 109.99777221679688 379.6767272949219 110.44412994384766 377.84710693359375 C 110.86064910888672 374.6446533203125 110.92871856689453 373.2099914550781 110.8957748413086 371.19232177734375 C 110.8033218383789 369.1382751464844 110.40101623535156 366.3857421875 108.86397552490234 362.6463928222656 C 107.9576416015625 360.7727355957031 107.09923553466797 359.6560974121094 105.60613250732422 358.26007080078125 C 104.27950286865234 357.3143005371094 102.84528350830078 356.5027160644531 100.7684326171875 355.73895263671875 C 99.87992095947266 355.5045471191406 97.85931396484375 355.299560546875 95.7286605834961 355.48089599609375"/>
    <path stroke-width="0" fill="rgb(0, 0, 0)" opacity="1.0" d="M 226.96585083007812 449.6300354003906 C 224.27874755859375 451.09686279296875 221.9157257080078 452.1918640136719 218.24215698242188 452.7817077636719 C 215.40048217773438 452.55059814453125 219.37628173828125 451.84759521484375 215.14451599121094 453.4015808105469 C 209.81410217285156 453.4120178222656 205.47265625 453.3408203125 203.0131378173828 453.57080078125 C 200.12852478027344 452.9232177734375 198.8751220703125 452.78778076171875 195.605712890625 452.4505310058594 C 191.096923828125 452.06561279296875 189.1665496826172 451.98406982421875 185.6959991455078 451.74237060546875 C 188.61102294921875 452.235107421875 184.72434997558594 452.681396484375 180.48558044433594 453.10882568359375 C 176.94004821777344 453.7326965332031 173.85540771484375 453.7593688964844 171.0978546142578 453.66259765625 C 171.47433471679688 451.525146484375 168.4373779296875 451.7060546875 165.0413055419922 452.0225524902344 C 165.06443786621094 449.0723876953125 165.284912109375 446.453369140625 165.29327392578125 443.7025146484375 C 161.52291870117188 442.94073486328125 161.6106414794922 440.6283264160156 161.6592559814453 437.80963134765625 C 161.2964324951172 434.0015563964844 162.9086456298828 437.5133972167969 162.3728790283203 434.7506408691406 C 161.86141967773438 430.4331359863281 161.61830139160156 426.8130798339844 161.44174194335938 424.1769104003906 C 161.0821075439453 420.39874267578125 160.84913635253906 418.3074645996094 162.11703491210938 422.0327453613281 C 161.5238494873047 419.3647155761719 160.81541442871094 415.62030029296875 161.05416870117188 412.1906433105469 C 161.1255645751953 410.62628173828125 161.30606079101562 408.3021240234375 162.0487060546875 404.82476806640625 C 162.84738159179688 401.5272216796875 163.5387725830078 398.9619140625 164.2716522216797 396.2525329589844 C 160.6728515625 399.81231689453125 160.34776306152344 395.87237548828125 162.09849548339844 398.0517883300781 C 161.59718322753906 395.3404846191406 161.16732788085938 393.6201477050781 159.5679168701172 385.73370361328125 C 158.86502075195312 382.879150390625 158.54031372070312 381.1907958984375 161.8297882080078 371.7099304199219 C 161.7342529296875 370.2430725097656 159.87342834472656 360.239013671875 159.16250610351562 363.29901123046875 C 160.06094360351562 358.07037353515625 161.1790771484375 353.2621765136719 161.51516723632812 351.52838134765625 C 161.79672241210938 349.0084228515625 162.11500549316406 346.5271301269531 162.40994262695312 342.7180480957031 C 166.21324157714844 342.6073913574219 165.84947204589844 340.9633483886719 165.24978637695312 338.8828125 C 164.36082458496094 337.0312805175781 163.55079650878906 335.0306091308594 162.83355712890625 332.9050598144531 C 165.42503356933594 331.9421081542969 167.90504455566406 330.892333984375 170.6813201904297 329.8625183105469 C 174.2469024658203 329.39520263671875 177.58016967773438 328.5455627441406 176.71681213378906 329.83184814453125 C 180.43954467773438 329.4289855957031 178.62518310546875 330.7593994140625 182.53929138183594 329.47857666015625 C 187.3203125 328.8336181640625 191.53036499023438 328.4178466796875 197.24815368652344 328.3332824707031 C 202.52340698242188 328.65802001953125 206.96229553222656 328.8359069824219 211.23414611816406 328.5731201171875 C 216.54600524902344 328.09649658203125 214.18536376953125 328.34149169921875 218.7686309814453 328.1739501953125 C 225.24058532714844 328.45159912109375 230.70106506347656 328.9609680175781 233.474853515625 329.8227233886719 C 237.9979705810547 330.85888671875 242.49224853515625 332.3317565917969 245.82041931152344 333.80596923828125 C 245.14022827148438 335.62567138671875 244.30296325683594 338.15386962890625 243.88565063476562 340.3035583496094 C 243.4761962890625 343.2074279785156 243.21456909179688 345.61895751953125 242.91806030273438 347.19549560546875 C 241.03323364257812 346.7177734375 240.333984375 346.6547546386719 240.5341339111328 350.6164855957031 C 239.90931701660156 353.5291748046875 238.81283569335938 356.09039306640625 237.67166137695312 358.4670715332031 C 235.59963989257812 357.5108337402344 233.26971435546875 356.60626220703125 230.8043975830078 355.60284423828125 C 230.31285095214844 357.0218811035156 226.7578887939453 356.6876525878906 226.5731201171875 356.8820495605469 C 222.35540771484375 356.3135070800781 219.27281188964844 355.8341979980469 217.18368530273438 355.8039855957031 C 212.97972106933594 355.1210021972656 207.95932006835938 354.69879150390625 203.7540283203125 354.3030700683594 C 202.2516326904297 354.3472900390625 198.9298858642578 354.5691833496094 196.1949920654297 354.69403076171875 C 192.75010681152344 354.70989990234375 191.07843017578125 354.8321838378906 189.89796447753906 354.926513671875 C 189.00804138183594 358.8006286621094 188.3479766845703 361.28961181640625 187.89547729492188 363.7163391113281 C 187.8869171142578 364.72833251953125 187.8620147705078 365.1964416503906 187.65478515625 365.9262390136719 C 187.66842651367188 370.5673828125 187.1316375732422 374.8277893066406 187.14913940429688 375.4375305175781 C 187.71043395996094 379.3643798828125 187.81301879882812 381.0309143066406 188.3672637939453 385.3146057128906 C 193.53900146484375 384.9902648925781 198.84085083007812 385.8274230957031 202.8812255859375 386.6651611328125 C 207.41552734375 387.6214294433594 210.94854736328125 388.15570068359375 205.77308654785156 387.4867858886719 C 209.91241455078125 386.4584045410156 213.9927215576172 385.46142578125 219.17129516601562 384.150390625 C 222.35116577148438 382.88616943359375 224.96327209472656 382.29486083984375 228.177978515625 381.567138671875 C 228.54437255859375 383.3605651855469 229.0605010986328 385.519775390625 229.45631408691406 387.8067626953125 C 231.1381072998047 387.3757019042969 232.06546020507812 390.489990234375 233.010986328125 394.6125793457031 C 233.5602264404297 398.37591552734375 233.88812255859375 401.8298645019531 234.02345275878906 403.96868896484375 C 234.32717895507812 406.4665222167969 234.30921936035156 409.3703308105469 234.15127563476562 411.77239990234375 C 230.15621948242188 411.5991516113281 226.8432159423828 411.55126953125 223.06507873535156 411.7377014160156 C 220.4392852783203 412.51226806640625 216.32684326171875 413.40765380859375 211.6930389404297 413.9544372558594 C 206.61863708496094 415.13311767578125 202.21026611328125 414.3824157714844 197.3492889404297 413.2590026855469 C 193.19747924804688 412.0840759277344 191.2981719970703 411.76129150390625 188.3252410888672 411.3385009765625 C 188.0485382080078 413.1226806640625 187.8922882080078 413.88116455078125 187.85989379882812 414.6639404296875 C 187.5027313232422 411.4661865234375 187.94900512695312 414.3784484863281 187.10923767089844 412.02716064453125 C 187.77590942382812 415.30999755859375 188.19802856445312 418.92059326171875 188.47625732421875 422.2100830078125 C 188.79281616210938 425.0955810546875 189.1471710205078 427.8153076171875 189.3448944091797 428.5138244628906 C 193.54351806640625 429.0362548828125 197.43775939941406 429.393798828125 202.60159301757812 429.0307922363281 C 207.2311248779297 429.6199035644531 203.5196075439453 429.11688232421875 208.3533935546875 429.2828369140625 C 211.27322387695312 429.2083740234375 208.07130432128906 430.05322265625 210.97088623046875 429.175537109375 C 213.98291015625 428.0003662109375 218.2747344970703 428.34088134765625 220.78517150878906 428.821533203125 C 220.14080810546875 431.56298828125 220.1610107421875 433.3959655761719 221.3940887451172 433.2662048339844 C 222.71876525878906 433.08099365234375 224.35906982421875 432.74676513671875 225.9911651611328 432.36962890625 C 226.3670196533203 434.0602111816406 226.85166931152344 436.0365905761719 227.2699737548828 437.9249267578125 C 227.54977416992188 439.9346618652344 227.3612060546875 441.69171142578125 229.53286743164062 442.2052307128906 C 226.20054626464844 442.58331298828125 226.31802368164062 444.3080139160156 224.66091918945312 444.9333801269531 C 225.49742126464844 446.5647888183594 226.3167266845703 448.31781005859375 226.96585083007812 449.6300354003906"/>
    <path stroke-width="0" fill="rgb(0, 0, 0)" opacity="1.0" d="M 338.0710144042969 449.699951171875 C 335.0517578125 445.0944519042969 332.4276123046875 440.84271240234375 331.7066650390625 437.8674011230469 C 330.5724792480469 434.5059814453125 329.88433837890625 431.627197265625 329.03204345703125 429.6413269042969 C 326.8302001953125 430.08465576171875 321.20806884765625 432.0754699707031 313.0538330078125 433.1714782714844 C 318.4049072265625 431.29620361328125 311.11737060546875 431.2960510253906 306.8071594238281 431.59039306640625 C 298.2905578613281 430.4278259277344 295.88043212890625 430.4367370605469 289.17535400390625 431.94171142578125 C 284.50360107421875 430.70172119140625 281.19940185546875 430.465087890625 279.3895568847656 430.005615234375 C 278.90252685546875 431.1622009277344 278.5064697265625 434.92205810546875 277.87579345703125 438.3896789550781 C 277.15130615234375 442.41387939453125 275.8154602050781 447.31298828125 273.9711608886719 451.89154052734375 C 269.0265197753906 451.3271179199219 265.2202453613281 451.312255859375 263.1119384765625 451.3829345703125 C 260.20758056640625 451.8674011230469 255.9612579345703 453.18072509765625 252.6580352783203 454.60400390625 C 252.49649047851562 453.03082275390625 252.2667999267578 451.2078857421875 252.0281524658203 448.7991638183594 C 251.82789611816406 446.97320556640625 251.28533935546875 442.8946533203125 251.45367431640625 439.99591064453125 C 252.1996612548828 437.2358093261719 252.85011291503906 435.61322021484375 253.0486297607422 433.2354736328125 C 253.33502197265625 431.1982421875 253.50057983398438 429.9455261230469 254.12599182128906 427.1927490234375 C 254.85592651367188 423.980712890625 255.2132568359375 423.08966064453125 255.72744750976562 421.3735046386719 C 256.1783142089844 419.4709777832031 256.7615966796875 417.3380126953125 257.01348876953125 416.2900695800781 C 257.5025939941406 411.66534423828125 258.0888366699219 405.37109375 259.0262451171875 398.2481689453125 C 259.80938720703125 393.13543701171875 260.66131591796875 389.3664245605469 262.0576477050781 385.1603088378906 C 262.78070068359375 382.7179870605469 263.8302917480469 378.54833984375 264.12957763671875 377.5478820800781 C 263.60791015625 380.42340087890625 264.60186767578125 375.48681640625 265.6772766113281 372.5032043457031 C 267.2558288574219 369.1606750488281 268.1391296386719 365.9058532714844 268.6797180175781 361.5439758300781 C 270.6279602050781 357.03399658203125 272.6374816894531 352.264404296875 274.51171875 348.2882080078125 C 275.5374450683594 345.25238037109375 276.6161804199219 342.6252136230469 278.80364990234375 338.90216064453125 C 280.480224609375 336.79583740234375 282.51715087890625 334.962646484375 283.9797668457031 333.446533203125 C 286.4267272949219 334.3799743652344 288.955078125 335.4324951171875 291.03741455078125 332.1627197265625 C 294.2281799316406 332.8597717285156 296.7716979980469 333.25347900390625 299.8949279785156 333.5943298339844 C 302.9661865234375 333.80743408203125 305.5420227050781 334.0238952636719 310.5423889160156 335.27880859375 C 311.49676513671875 337.90679931640625 314.3903503417969 338.4450988769531 317.0428466796875 338.7062072753906 C 317.5663757324219 340.8390808105469 318.1423034667969 343.6307067871094 321.1855163574219 343.6026611328125 C 321.5182800292969 344.7181701660156 321.9988098144531 346.00677490234375 322.4683837890625 347.2039794921875 C 322.8818054199219 348.2894592285156 323.540283203125 349.73028564453125 324.3017272949219 351.41375732421875 C 325.1808776855469 353.11749267578125 326.1178894042969 354.89599609375 327.4717102050781 357.8919677734375 C 328.8020935058594 360.5637512207031 330.2015380859375 363.0112609863281 331.57666015625 365.6318054199219 C 332.398193359375 368.3477478027344 334.176025390625 371.94287109375 335.36151123046875 375.0717468261719 C 336.0672607421875 378.43157958984375 337.5090026855469 381.7101135253906 338.63226318359375 384.1029968261719 C 340.19140625 388.3797912597656 340.93853759765625 390.8791809082031 342.1545104980469 394.1302185058594 C 343.6843566894531 398.4557800292969 343.9722900390625 401.5659484863281 343.9599304199219 404.84832763671875 C 344.85406494140625 406.90179443359375 345.23291015625 408.2912292480469 347.3254699707031 411.7509460449219 C 348.358154296875 415.4579162597656 349.12750244140625 417.519775390625 349.79461669921875 419.3465881347656 C 350.4187316894531 421.027587890625 350.94049072265625 422.28509521484375 351.5999755859375 424.3591003417969 C 352.48858642578125 426.7802429199219 353.02252197265625 428.2704772949219 353.91265869140625 430.617431640625 C 354.5885009765625 432.6866149902344 355.7080993652344 436.4712829589844 355.92523193359375 439.4931640625 C 355.89581298828125 443.28839111328125 352.8237609863281 442.964111328125 353.2989196777344 444.8852233886719 C 353.5004577636719 446.8875427246094 353.82659912109375 448.52032470703125 354.0903015136719 449.83612060546875 C 350.8227844238281 449.6398620605469 347.59033203125 449.3195495605469 344.810302734375 447.8828430175781 C 343.6766662597656 447.737060546875 343.1885986328125 447.7806396484375 338.0710144042969 449.699951171875M 307.5193786621094 377.4279479980469 C 306.8407287597656 375.6683349609375 305.75079345703125 373.3683166503906 304.35693359375 369.83026123046875 C 302.74932861328125 366.6070861816406 301.2095642089844 363.3622131347656 299.96136474609375 360.2788391113281 C 298.7074279785156 357.1539001464844 298.0961608886719 354.9458923339844 297.8059387207031 353.30816650390625 C 297.4737854003906 354.93670654296875 296.9160461425781 357.1905517578125 296.1878662109375 360.70953369140625 C 295.23663330078125 364.09130859375 294.2679748535156 367.768798828125 293.7706298828125 370.989501953125 C 292.646484375 374.9322509765625 292.416015625 377.19903564453125 292.01422119140625 380.3599853515625 C 291.3085021972656 383.7618103027344 290.1643371582031 387.1471252441406 289.4759826660156 389.4449462890625 C 288.1426696777344 395.4557189941406 286.5441589355469 400.5464172363281 285.2922058105469 405.7808532714844 C 291.1537780761719 405.8418273925781 297.6493225097656 405.90863037109375 303.1817321777344 405.94342041015625 C 309.0108947753906 405.2889404296875 312.6416320800781 404.6723327636719 318.3507385253906 404.6165771484375 C 316.8468933105469 399.6910705566406 315.5325927734375 395.04949951171875 313.8061828613281 390.72369384765625 C 311.8364562988281 386.6732482910156 309.7336730957031 382.2666931152344 307.5193786621094 377.4279479980469"/>
    <path stroke-width="0" fill="rgb(0, 0, 0)" opacity="1.0" d="M 431.95220947265625 348.5928649902344 C 425.47320556640625 348.9253845214844 418.99798583984375 350.18133544921875 415.8565979003906 351.7444152832031 C 411.8557434082031 353.77203369140625 408.2349853515625 356.8202819824219 404.2938537597656 360.2392272949219 C 401.06976318359375 363.2629089355469 396.61822509765625 369.27093505859375 394.44964599609375 373.4794006347656 C 391.9151306152344 378.52410888671875 390.3165283203125 383.9073486328125 390.366455078125 389.72991943359375 C 391.1316833496094 393.2166748046875 391.75787353515625 397.95330810546875 392.9540100097656 401.861083984375 C 394.4935607910156 406.3285827636719 396.54364013671875 410.7871398925781 398.5036926269531 414.3982238769531 C 401.8913879394531 419.5418395996094 406.31573486328125 424.6298828125 412.79791259765625 429.0028381347656 C 414.6134338378906 430.5898742675781 417.12457275390625 432.2793273925781 420.4528503417969 433.69134521484375 C 424.1767883300781 435.3973388671875 426.3984680175781 436.087158203125 428.9802551269531 436.2882995605469 C 434.4411926269531 435.6362609863281 437.96697998046875 434.1435546875 442.45947265625 430.46051025390625 C 446.86419677734375 425.98370361328125 447.5600891113281 426.84539794921875 450.4136962890625 423.4740295410156 C 452.6024475097656 420.6429443359375 455.32098388671875 417.8299865722656 457.65704345703125 415.63623046875 C 459.3575134277344 419.46868896484375 461.7807922363281 423.1380920410156 464.3260803222656 427.27667236328125 C 465.8571472167969 431.28704833984375 466.4209289550781 435.13134765625 467.4708251953125 439.1425476074219 C 465.0005187988281 441.0426025390625 461.7423095703125 443.6885681152344 461.3963317871094 444.17645263671875 C 457.5228576660156 448.09710693359375 454.90118408203125 450.1836853027344 451.578369140625 452.4344482421875 C 447.89044189453125 454.7284240722656 444.3420715332031 456.6865234375 439.7262878417969 458.05755615234375 C 435.660888671875 458.6121826171875 429.6316833496094 458.7476806640625 425.28790283203125 458.4801025390625 C 420.8692321777344 457.4308166503906 416.80523681640625 455.976318359375 413.9817810058594 454.8012390136719 C 411.3133850097656 453.9017639160156 408.0813293457031 452.5456848144531 405.7059631347656 451.4742126464844 C 401.0924377441406 449.10150146484375 396.8972473144531 445.90972900390625 393.9722900390625 443.4184875488281 C 390.178955078125 441.09619140625 387.8283996582031 438.564208984375 385.9743957519531 436.2014465332031 C 383.4935607910156 433.6598815917969 381.31182861328125 430.96466064453125 379.0214538574219 425.9040222167969 C 376.3036193847656 421.9945373535156 374.4669494628906 416.91448974609375 372.2008361816406 411.3008728027344 C 370.615966796875 407.397705078125 369.4694519042969 403.0904541015625 368.57611083984375 398.6123962402344 C 368.0511779785156 392.403564453125 367.8388977050781 396.6103820800781 367.4598083496094 391.0421142578125 C 367.31927490234375 385.30694580078125 367.98291015625 379.2038879394531 369.02117919921875 374.5184326171875 C 370.0088806152344 370.05377197265625 371.6838073730469 366.41265869140625 373.24786376953125 363.31756591796875 C 375.6338806152344 358.68267822265625 376.96722412109375 356.6152648925781 379.4647521972656 352.8907775878906 C 381.2941589355469 350.12713623046875 383.5765380859375 347.5252990722656 386.307373046875 344.4574890136719 C 389.24871826171875 341.3141174316406 390.2149353027344 340.5516052246094 392.7042236328125 338.9024658203125 C 396.0568542480469 335.7887878417969 397.595947265625 334.7166748046875 402.24114990234375 332.5335998535156 C 406.3590087890625 330.3327331542969 410.27008056640625 328.56903076171875 414.6321716308594 326.7792663574219 C 419.59808349609375 325.8876953125 424.6185607910156 324.9620666503906 430.845947265625 324.21844482421875 C 435.9769592285156 324.406982421875 441.8631286621094 324.73394775390625 448.0112609863281 325.9045104980469 C 453.1551208496094 327.8092956542969 458.2398376464844 330.39227294921875 462.9306335449219 333.92864990234375 C 467.713623046875 338.1294250488281 471.66961669921875 341.75140380859375 474.3285217285156 344.2574768066406 C 477.4256591796875 348.0788269042969 479.9490966796875 351.8857116699219 482.1421203613281 355.5643005371094 C 477.673828125 358.3155822753906 474.05303955078125 360.7388916015625 472.0639343261719 362.4525146484375 C 469.014404296875 364.39239501953125 464.7633361816406 367.22821044921875 460.98760986328125 369.7405700683594 C 457.78118896484375 364.42901611328125 454.1429138183594 359.21746826171875 448.7478332519531 353.5889892578125 C 444.2783203125 349.6329040527344 439.4162292480469 348.1649169921875 431.95220947265625 348.5928649902344"/>
    <path stroke-width="0" fill="rgb(0, 0, 0)" opacity="1.0" d="M 539.8321533203125 438.20208740234375 C 544.0390625 447.56756591796875 551.5047607421875 449.2103576660156 532.5895385742188 460.3619079589844 C 535.5464477539062 470.5086975097656 539.5631713867188 457.2185974121094 539.7786254882812 438.98675537109375 C 555.8069458007812 450.101806640625 555.3070068359375 449.9451599121094 525.4165649414062 462.45709228515625 C 514.6480102539062 458.98663330078125 518.0223999023438 459.09588623046875 537.3294677734375 456.9190368652344 C 552.8357543945312 455.19256591796875 525.4228515625 458.2405090332031 500.85711669921875 460.1392517089844 C 508.1300048828125 450.5702209472656 504.0106506347656 451.5441589355469 498.17584228515625 447.76007080078125 C 510.1971130371094 444.0587158203125 524.4673461914062 435.82196044921875 534.9136352539062 461.2701416015625 C 523.9699096679688 462.15179443359375 507.21966552734375 458.0064392089844 519.2999267578125 459.0237731933594 C 499.9749755859375 459.09088134765625 487.6458435058594 459.8506164550781 484.9776611328125 458.25250244140625 C 487.12109375 440.9027404785156 482.930419921875 431.6275939941406 483.2904357910156 430.73223876953125 C 501.93804931640625 435.28729248046875 514.731689453125 451.5101623535156 481.0506286621094 454.3746337890625 C 477.4659729003906 437.6839294433594 483.3008728027344 426.89288330078125 485.4643859863281 409.1163024902344 C 487.18914794921875 402.59429931640625 496.14654541015625 409.89910888671875 497.83575439453125 421.5782775878906 C 483.3438720703125 419.4340515136719 487.8877258300781 409.4009704589844 483.9089660644531 405.96502685546875 C 486.58837890625 397.75189208984375 488.3652648925781 388.99761962890625 490.9635925292969 403.8893737792969 C 478.5516662597656 402.8418273925781 486.65509033203125 398.9378356933594 485.6896057128906 412.9322509765625 C 487.4574279785156 395.44183349609375 491.0875244140625 388.9624328613281 491.4957275390625 379.0567932128906 C 493.960205078125 371.7152099609375 490.8823547363281 357.6824645996094 496.9989929199219 355.9947509765625 C 503.4708251953125 366.5696716308594 501.65106201171875 373.7248840332031 495.2403259277344 380.26708984375 C 495.9352111816406 372.53753662109375 497.0680236816406 367.3301696777344 491.1847229003906 361.2191467285156 C 493.9101867675781 369.3197937011719 490.7468566894531 381.7070617675781 492.61279296875 347.8231506347656 C 499.697021484375 334.323974609375 492.1154479980469 334.07415771484375 493.4355773925781 355.4122619628906 C 500.04766845703125 333.9579162597656 497.76226806640625 337.23028564453125 503.026611328125 327.8389587402344 C 499.45709228515625 328.7932434082031 504.2376708984375 338.80963134765625 509.5584411621094 328.84759521484375 C 497.35760498046875 336.0904235839844 498.10504150390625 330.65911865234375 498.1119689941406 339.0758361816406 C 502.1091613769531 317.1746520996094 500.2535400390625 323.9306335449219 505.3298034667969 335.40966796875 C 488.83184814453125 326.1174011230469 499.8886413574219 328.864501953125 500.5438232421875 329.6416015625 C 521.08544921875 327.0316162109375 523.9654541015625 321.5140380859375 520.5853271484375 328.45867919921875 C 525.6981201171875 327.93133544921875 533.549560546875 323.364990234375 508.1680603027344 327.67120361328125 C 528.3606567382812 332.0216979980469 556.6757202148438 328.4384460449219 543.5066528320312 336.7572326660156 C 547.3958129882812 328.54827880859375 550.60107421875 328.9747619628906 552.989013671875 333.9212951660156 C 535.7117919921875 338.7599792480469 547.982177734375 331.7681884765625 549.115966796875 332.6642150878906 C 569.1300659179688 336.42926025390625 560.5170288085938 338.69561767578125 548.067138671875 337.42340087890625 C 557.7125854492188 338.5152893066406 564.092529296875 344.2394714355469 556.76171875 341.6225280761719 C 563.3793334960938 340.1012878417969 556.568115234375 340.9382629394531 557.6581420898438 352.4215393066406 C 524.70654296875 354.02166748046875 534.4306030273438 347.4662780761719 544.6036376953125 338.5364074707031 C 540.2286987304688 339.4275207519531 528.5977172851562 340.2428894042969 550.6079711914062 329.6900939941406 C 546.583984375 339.7275390625 535.7626342773438 349.4100036621094 548.6162719726562 353.1594543457031 C 537.4100341796875 353.9538269042969 527.1349487304688 354.1490173339844 519.82958984375 347.9142150878906 C 528.25 348.2533264160156 518.4464111328125 354.4361877441406 523.9046020507812 357.6591796875 C 541.730224609375 346.2320556640625 530.9384155273438 349.3763122558594 547.9496459960938 356.83740234375 C 543.2388305664062 353.831787109375 516.2127685546875 349.7926330566406 514.70751953125 354.1387023925781 C 510.5379638671875 353.990478515625 513.4382934570312 352.6421813964844 515.6146240234375 350.8524475097656 C 517.468505859375 351.4207458496094 514.1602783203125 362.6969909667969 514.2066040039062 381.07696533203125 C 500.8919372558594 369.59417724609375 501.9580078125 372.6023864746094 511.0343322753906 377.9918518066406 C 511.0920715332031 375.2543029785156 515.942626953125 383.4500732421875 507.6846618652344 380.41064453125 C 494.24127197265625 366.8778991699219 498.9892578125 363.07952880859375 507.3462829589844 368.862548828125 C 529.002685546875 368.0937194824219 526.4983520507812 362.3099365234375 505.2543029785156 374.7343444824219 C 521.7626342773438 383.6627197265625 523.8058471679688 380.9022216796875 532.6146850585938 381.7586669921875 C 543.6021118164062 386.6720275878906 547.54443359375 375.8265380859375 561.3109741210938 384.9039306640625 C 546.7159423828125 381.82037353515625 556.6630249023438 380.992431640625 561.3871459960938 383.7906494140625 C 558.7839965820312 381.3353576660156 559.1831665039062 391.20111083984375 547.1665649414062 388.3501892089844 C 555.0380249023438 377.24884033203125 560.3193359375 389.64459228515625 559.749267578125 395.5252990722656 C 551.273681640625 395.4491271972656 549.007080078125 398.3062438964844 546.4830932617188 389.942138671875 C 550.189697265625 388.0692138671875 550.2715454101562 384.51446533203125 561.5631713867188 394.04833984375 C 553.2286376953125 405.41534423828125 550.3080444335938 406.86737060546875 529.0253295898438 403.32080078125 C 536.4019775390625 402.2817077636719 512.2794799804688 404.4423522949219 504.0470275878906 397.012939453125 C 536.5018310546875 392.2303771972656 523.8789672851562 397.4551086425781 508.9576721191406 397.5531311035156 C 512.497802734375 391.3293151855469 508.0828552246094 408.6968994140625 506.9056091308594 415.058349609375 C 504.974365234375 413.017822265625 504.7581481933594 414.8179931640625 504.722900390625 411.5869140625 C 510.0150146484375 408.6319580078125 505.5896911621094 421.9539794921875 504.7696228027344 435.6238708496094 C 505.8896484375 441.5569763183594 504.2246398925781 438.6871032714844 500.88958740234375 438.00567626953125 C 500.922607421875 430.42376708984375 497.4183044433594 440.00567626953125 519.4757080078125 438.71441650390625 C 536.9540405273438 439.7153015136719 534.8101196289062 430.80120849609375 527.5308837890625 439.005859375 C 525.0825805664062 436.2764587402344 540.0043334960938 438.2322082519531 529.839599609375 440.4765625 C 532.4196166992188 440.5210266113281 523.2410888671875 448.7113952636719 524.4490966796875 438.7228698730469 C 539.087158203125 440.1346130371094 532.6522827148438 433.9932556152344 529.1264038085938 436.1701965332031 C 532.1530151367188 438.6802673339844 543.1589965820312 431.6804504394531 542.6685791015625 441.58245849609375 C 547.762451171875 445.3177185058594 547.5907592773438 443.9970703125 540.3051147460938 443.2779235839844 C 543.5411987304688 443.8789978027344 540.9555053710938 440.21771240234375 545.2734375 456.53961181640625 C 545.1300048828125 464.23016357421875 550.902587890625 451.10797119140625 547.4425048828125 441.3424987792969 C 544.1047973632812 447.6412048339844 555.12060546875 444.056396484375 539.8321533203125 438.20208740234375"/>
    <path stroke-width="0" fill="rgb(0, 0, 0)" opacity="1.0" d="M 53.132965087890625 341.8427734375 C 50.891883850097656 332.4908752441406 51.69110107421875 320.2469482421875 46.82585144042969 317.78076171875 C 44.83613204956055 308.271240234375 44.980892181396484 313.4841613769531 42.163761138916016 308.5058288574219 C 41.23394775390625 301.40179443359375 41.30340576171875 296.6372375488281 41.253456115722656 291.84173583984375 C 42.526161193847656 281.7628479003906 44.23966598510742 274.7939758300781 47.75084686279297 269.2769775390625 C 50.44327163696289 263.3631286621094 54.719032287597656 258.2911682128906 61.54000473022461 254.33172607421875 C 67.51657104492188 250.71961975097656 73.69823455810547 248.45639038085938 79.14847564697266 247.5845489501953 C 85.04362487792969 246.44761657714844 89.14005279541016 246.86961364746094 95.90131378173828 247.7330322265625 C 100.3205337524414 248.6769256591797 103.5282211303711 249.63963317871094 105.65278625488281 250.1029815673828 C 105.01063537597656 248.7784881591797 103.82725524902344 246.62939453125 101.66642761230469 242.87393188476562 C 99.50186157226562 237.96482849121094 97.91825866699219 233.4431610107422 96.62348175048828 229.5443572998047 C 95.13748931884766 224.78228759765625 93.9336929321289 222.1021270751953 93.45439147949219 221.69146728515625 C 92.44786834716797 220.31829833984375 91.75773620605469 220.02256774902344 91.42700958251953 219.91000366210938 C 90.50405883789062 220.1041259765625 100.24028015136719 216.62693786621094 99.55695343017578 217.99234008789062 C 97.91178894042969 224.38555908203125 96.73185729980469 232.4004669189453 94.01921844482422 242.5834503173828 C 91.29055786132812 246.5449981689453 89.66716003417969 249.59266662597656 88.08216857910156 253.06710815429688 C 79.96331024169922 249.9944610595703 70.23867797851562 246.01522827148438 63.03372573852539 243.45840454101562 C 64.70035552978516 236.5611572265625 67.87925720214844 230.16062927246094 69.22734069824219 227.16001892089844 C 70.01480102539062 218.5350799560547 72.52547454833984 211.85726928710938 77.77652740478516 203.3104248046875 C 83.36860656738281 195.48385620117188 87.18196105957031 194.33877563476562 91.92076873779297 193.98793029785156 C 100.69068145751953 195.29928588867188 107.20550537109375 198.3073272705078 113.52317810058594 204.17172241210938 C 118.02156829833984 209.71934509277344 120.49054718017578 214.14964294433594 122.6739273071289 219.67262268066406 C 124.68570709228516 222.6589813232422 126.75952911376953 227.2146453857422 127.68236541748047 229.51026916503906 C 129.24856567382812 232.1861572265625 131.65261840820312 236.62794494628906 133.04664611816406 241.22349548339844 C 134.2626953125 245.44544982910156 134.49827575683594 250.40365600585938 134.6355438232422 256.40460205078125 C 134.1542205810547 264.6677551269531 133.942626953125 266.64984130859375 133.25596618652344 270.76202392578125 C 132.64198303222656 275.4005432128906 131.9161376953125 278.5529479980469 131.46240234375 280.162353515625 C 121.44879913330078 280.13818359375 113.5543441772461 280.2691650390625 106.29877471923828 279.4519348144531 C 98.8252182006836 278.08831787109375 93.67049407958984 276.3559265136719 88.80613708496094 274.6658935546875 C 85.43260955810547 273.5999450683594 83.80842590332031 273.6817321777344 82.69676971435547 274.08782958984375 C 80.82913208007812 274.7847900390625 79.3939208984375 276.2530822753906 76.531982421875 281.3330078125 C 73.73052215576172 285.2848815917969 71.91709899902344 291.0435791015625 71.33324432373047 296.50408935546875 C 70.7848129272461 301.4259338378906 70.49138641357422 305.1231689453125 69.51477813720703 299.8163757324219 C 71.71210479736328 304.6687927246094 72.89859771728516 310.61669921875 74.63243103027344 316.1872863769531 C 76.3559799194336 322.37738037109375 78.13483428955078 329.2880554199219 79.75706481933594 335.43365478515625 C 70.6304702758789 337.46746826171875 61.94606018066406 339.83294677734375 53.132965087890625 341.8427734375"/>
    <path stroke-width="0" fill="rgb(0, 0, 0)" opacity="1.0" d="M 253.61447143554688 276.6866455078125 C 246.99972534179688 275.587890625 242.6959686279297 274.84979248046875 238.17178344726562 274.6006774902344 C 231.95370483398438 274.3865966796875 225.76148986816406 272.8406677246094 220.7891082763672 269.50909423828125 C 217.7718963623047 267.4246826171875 214.6279754638672 264.07928466796875 212.25132751464844 259.9233093261719 C 208.1078338623047 274.5246276855469 200.7998046875 254.0238037109375 212.52749633789062 247.75924682617188 C 212.98336791992188 206.9745635986328 217.6475830078125 182.15530395507812 235.9998321533203 146.23291015625 C 236.74392700195312 146.4866485595703 237.7514190673828 146.53195190429688 241.06741333007812 146.2097930908203 C 248.70057678222656 178.84918212890625 247.96542358398438 210.59031677246094 232.18765258789062 239.20492553710938 C 231.52420043945312 242.73040771484375 231.85877990722656 245.92117309570312 232.518798828125 247.44857788085938 C 233.6375732421875 249.5171661376953 236.96832275390625 251.63922119140625 242.6681365966797 251.65284729003906 C 247.01947021484375 252.2137451171875 251.33560180664062 252.1458282470703 257.0136413574219 251.88414001464844 C 263.12945556640625 252.84808349609375 266.52484130859375 255.1055908203125 268.2696228027344 257.9936828613281 C 269.9931945800781 260.6052551269531 270.481689453125 263.2785339355469 270.0733642578125 266.45574951171875 C 269.4407653808594 270.29791259765625 267.3129577636719 273.4869689941406 264.31549072265625 275.276123046875 C 261.4483642578125 277.0422058105469 257.9332275390625 277.4445495605469 253.61447143554688 276.6866455078125M 160.20936584472656 270.7188415527344 C 166.49017333984375 296.16754150390625 159.0192413330078 302.56915283203125 142.18470764160156 294.2066650390625 C 161.36343383789062 275.3770751953125 146.1777801513672 278.8041076660156 122.0213623046875 255.74241638183594 C 171.6692352294922 259.4900207519531 173.67401123046875 257.0377197265625 165.271728515625 272.8789978027344 C 149.7644805908203 268.1477355957031 157.11631774902344 259.5815124511719 186.21681213378906 258.72686767578125 C 209.82125854492188 254.7195281982422 209.04783630371094 261.0597839355469 198.75877380371094 243.32984924316406 C 192.44692993164062 231.46804809570312 197.96302795410156 232.54476928710938 223.3903350830078 252.4146270751953 C 229.13377380371094 245.56605529785156 216.57696533203125 239.46998596191406 216.72760009765625 210.73390197753906 C 218.2859344482422 220.97499084472656 219.16436767578125 228.94955444335938 219.9471435546875 238.3699951171875 C 217.0240020751953 246.12649536132812 214.05776977539062 254.04391479492188 210.73301696777344 259.1625671386719 C 249.40411376953125 272.466064453125 237.02096557617188 270.09869384765625 221.68386840820312 268.83441162109375 C 202.40484619140625 272.4239501953125 192.67654418945312 270.2547302246094 184.25637817382812 268.5646057128906 C 197.59072875976562 269.1012878417969 183.92503356933594 273.6268310546875 172.68521118164062 274.6219787597656 C 145.5448455810547 273.0309143066406 145.27352905273438 279.0099182128906 160.20936584472656 270.7188415527344M 210.38174438476562 257.9205017089844 C 206.4932403564453 252.71302795410156 200.36460876464844 253.5438690185547 207.03298950195312 245.3719940185547 C 191.55918884277344 239.30722045898438 181.57077026367188 236.33889770507812 176.58270263671875 227.70115661621094 C 173.1720733642578 225.54515075683594 166.65570068359375 218.04002380371094 161.0475311279297 211.90628051757812 C 156.30166625976562 208.20359802246094 153.7320098876953 195.26046752929688 144.54501342773438 155.28485107421875 C 156.00328063964844 154.7388153076172 166.81076049804688 167.28807067871094 182.32223510742188 172.78004455566406 C 180.64886474609375 171.3002166748047 185.83087158203125 172.7813720703125 193.00125122070312 183.9158477783203 C 200.0705108642578 194.66030883789062 201.73223876953125 203.34085083007812 200.9422149658203 214.70384216308594 C 200.96810913085938 240.8985137939453 201.70106506347656 242.6067352294922 212.95278930664062 244.48056030273438 C 224.68289184570312 234.84893798828125 224.70481872558594 230.7970733642578 209.7767791748047 223.0048370361328 C 207.7542266845703 238.37042236328125 206.40553283691406 247.0740203857422 210.38174438476562 257.9205017089844"/>
    <path stroke-width="0" fill="rgb(0, 0, 0)" opacity="1.0" d="M 254.50942993164062 276.74725341796875 C 255.3832244873047 268.94683837890625 255.53614807128906 260.7937927246094 255.129638671875 251.8218231201172 C 260.8778076171875 252.321533203125 265.5309753417969 253.1058349609375 268.37408447265625 253.165283203125 C 270.6337890625 253.18264770507812 271.7616271972656 252.49000549316406 272.94781494140625 250.82528686523438 C 273.3988342285156 250.21974182128906 275.1665954589844 245.72434997558594 278.2406921386719 236.59120178222656 C 281.3792419433594 228.40045166015625 294.47283935546875 218.69508361816406 291.9390869140625 215.3953857421875 C 295.368408203125 211.70425415039062 295.4502258300781 212.11032104492188 302.7654113769531 209.4573211669922 C 303.70538330078125 211.5977020263672 304.30120849609375 213.6539306640625 304.814208984375 216.40713500976562 C 305.1929931640625 219.19410705566406 306.20330810546875 225.5834503173828 305.345947265625 232.1777801513672 C 303.3912353515625 237.81494140625 302.635498046875 243.17149353027344 300.7471923828125 249.89019775390625 C 300.517333984375 251.79490661621094 294.8487243652344 254.2506103515625 297.4893493652344 255.1306610107422 C 300.921630859375 256.4845886230469 304.4013366699219 256.90093994140625 315.7723693847656 254.82717895507812 C 322.1237487792969 255.98146057128906 325.350341796875 256.7152404785156 329.49151611328125 256.35845947265625 C 326.64251708984375 256.8004455566406 327.3307800292969 258.2174377441406 328.33935546875 255.95823669433594 C 329.1853942871094 253.1619110107422 331.159912109375 247.13299560546875 335.5711364746094 235.0034942626953 C 338.70538330078125 225.27383422851562 350.467041015625 221.65896606445312 348.5489501953125 216.5959014892578 C 354.56170654296875 213.63645935058594 356.25592041015625 214.2725372314453 366.2839660644531 210.9141082763672 C 366.8348693847656 217.28138732910156 365.93670654296875 222.6415252685547 364.686279296875 226.79193115234375 C 363.5047607421875 230.76707458496094 360.35565185546875 235.17051696777344 358.5955505371094 238.970703125 C 357.88525390625 242.1563262939453 357.3921203613281 244.02101135253906 349.9988098144531 248.07376098632812 C 346.5782470703125 250.96615600585938 348.432861328125 252.28106689453125 350.7008972167969 253.3233642578125 C 352.42828369140625 254.2869110107422 355.33123779296875 254.90638732910156 355.1923522949219 250.0480194091797 C 357.6104736328125 249.30227661132812 358.3298645019531 248.97830200195312 360.9704895019531 246.94430541992188 C 362.35601806640625 245.98312377929688 365.3147888183594 239.2257843017578 365.87969970703125 238.9335174560547 C 370.270751953125 234.25718688964844 372.2789001464844 231.5535125732422 375.2215576171875 227.04237365722656 C 379.9949951171875 223.6403350830078 382.70904541015625 221.22750854492188 385.1210632324219 218.62391662597656 C 391.6447448730469 213.90957641601562 405.7394714355469 210.92703247070312 407.8226318359375 209.56561279296875 C 408.38641357421875 208.9272003173828 409.4994812011719 208.45639038085938 409.1885070800781 207.37779235839844 C 410.435546875 206.70989990234375 433.204833984375 203.4031219482422 439.8465270996094 207.43446350097656 C 438.1371154785156 211.6815643310547 435.0915222167969 217.2327880859375 431.0430603027344 223.28158569335938 C 426.7476501464844 230.7061767578125 420.5713806152344 236.4395751953125 419.3287658691406 236.92132568359375 C 418.5770568847656 237.7291259765625 414.4119873046875 243.3155517578125 412.879638671875 244.7331085205078 C 410.8575744628906 247.5792694091797 408.4370422363281 250.3213348388672 405.1484069824219 252.5816192626953 C 403.65484619140625 254.32464599609375 400.55255126953125 258.0018005371094 398.12548828125 259.7636413574219 C 396.90936279296875 260.9393005371094 395.1143493652344 262.0692443847656 389.8775939941406 264.1214904785156 C 384.5664367675781 267.7419128417969 384.1360168457031 267.9298095703125 373.8357849121094 268.7110900878906 C 369.7044372558594 270.1061096191406 368.05712890625 270.75262451171875 364.2438659667969 270.46185302734375 C 362.4568176269531 270.9411926269531 358.5721435546875 268.5642395019531 353.0848693847656 268.55419921875 C 350.49871826171875 267.74786376953125 347.2502136230469 265.3026123046875 346.642333984375 262.1720275878906 C 347.8815612792969 261.9775390625 346.94757080078125 261.417724609375 347.6987609863281 260.73553466796875 C 349.38665771484375 265.00677490234375 349.7740478515625 271.02471923828125 347.4990539550781 278.4393310546875 C 344.2768859863281 281.9181213378906 340.0061950683594 284.28472900390625 333.0695495605469 284.06890869140625 C 324.685791015625 282.22613525390625 316.8133239746094 279.48779296875 311.9125061035156 277.4062194824219 C 311.2093505859375 277.3320617675781 307.5594177246094 277.9249572753906 304.35406494140625 277.7318115234375 C 300.0371398925781 277.2560119628906 296.8645324707031 275.8509826660156 294.24951171875 274.1083679199219 C 290.62725830078125 272.12249755859375 287.6822509765625 267.08282470703125 286.6543884277344 260.7140808105469 C 288.9265441894531 260.80426025390625 292.1555480957031 260.9122009277344 294.29339599609375 260.8975524902344 C 293.17828369140625 266.2769470214844 291.1937255859375 271.49322509765625 286.47216796875 275.11138916015625 C 281.4716796875 278.0932922363281 276.19970703125 279.14129638671875 269.94500732421875 278.60601806640625 C 265.0972595214844 278.52996826171875 259.76953125 277.91326904296875 254.50942993164062 276.74725341796875"/>
  </g>
</svg>
