<?xml version="1.0" ?>
<svg xmlns="http://www.w3.org/2000/svg" version="1.1" width="600" height="600">
  <defs/>
  <g>
    <path stroke-width="0" fill="rgb(0, 0, 0)" opacity="1.0" d="M 92.45880889892578 331.4043273925781 C 96.35916137695312 330.6439514160156 101.4591064453125 330.61529541015625 98.06294250488281 330.5642395019531 C 101.84176635742188 331.0960388183594 104.3615951538086 331.1458435058594 107.22384643554688 331.05523681640625 C 111.2633056640625 331.93524169921875 114.54334259033203 333.3213195800781 116.69947814941406 334.0675964355469 C 117.97413635253906 334.4913024902344 120.55909729003906 335.54327392578125 123.46429443359375 337.5652770996094 C 124.71917724609375 338.2510986328125 125.77355194091797 338.9589538574219 128.6468963623047 342.57781982421875 C 129.60977172851562 343.4263000488281 131.27752685546875 345.8326110839844 132.09410095214844 347.2942810058594 C 132.80343627929688 348.510986328125 133.3972625732422 349.7048645019531 134.57540893554688 353.65692138671875 C 135.29200744628906 355.2443542480469 136.29898071289062 357.4880065917969 137.01100158691406 360.87445068359375 C 137.76544189453125 363.4248046875 138.348388671875 365.8524169921875 138.27833557128906 368.906494140625 C 137.69017028808594 373.85113525390625 137.1974334716797 370.1080627441406 137.5157012939453 373.9075012207031 C 137.91815185546875 378.13714599609375 137.94334411621094 382.4091796875 137.00653076171875 385.2816162109375 C 136.2417449951172 389.29248046875 135.1761016845703 391.3540954589844 134.6050262451172 392.97589111328125 C 133.69102478027344 395.44659423828125 132.95907592773438 396.6409912109375 131.79176330566406 398.0751953125 C 128.78623962402344 402.3140869140625 127.86080169677734 403.2434387207031 126.40166473388672 404.2153015136719 C 123.46525573730469 406.47259521484375 121.17279815673828 408.0119934082031 119.99527740478516 408.4915466308594 C 115.90646362304688 410.0676574707031 113.07136535644531 410.9996643066406 109.18033599853516 411.67486572265625 C 106.30198669433594 412.2400207519531 101.6757583618164 412.18701171875 98.79549407958984 411.4764099121094 C 94.11274719238281 410.7838134765625 91.79563903808594 410.0438232421875 89.63031005859375 409.44317626953125 C 88.50715637207031 409.31036376953125 86.9758071899414 408.8332214355469 82.79546356201172 408.99383544921875 C 82.69873809814453 409.9979248046875 83.169921875 401.5625915527344 84.85638427734375 405.8454895019531 C 86.16232299804688 409.77734375 87.06539154052734 414.1131286621094 88.03809356689453 417.7814636230469 C 87.346923828125 414.5060729980469 87.91165924072266 416.5523681640625 88.57941436767578 421.2395935058594 C 89.14141082763672 425.82135009765625 88.33720397949219 432.1026611328125 89.0292739868164 428.5062255859375 C 88.91217803955078 434.3058166503906 88.48358154296875 439.1578674316406 88.65846252441406 437.102294921875 C 88.49362182617188 441.3340759277344 88.15495300292969 442.3667297363281 87.49665069580078 444.4558410644531 C 86.81959533691406 446.0619812011719 85.46690368652344 447.60125732421875 84.07077026367188 449.32940673828125 C 81.2647705078125 450.5821838378906 79.58536529541016 448.95001220703125 78.53015899658203 451.4832763671875 C 75.5528793334961 449.7777099609375 74.28331756591797 446.8375549316406 71.98889923095703 448.4243469238281 C 70.9178237915039 449.9833984375 70.1291732788086 452.1463928222656 69.70458221435547 455.72882080078125 C 68.9388427734375 455.471923828125 66.96502685546875 455.2075500488281 65.46186828613281 454.5216979980469 C 63.823143005371094 453.7273864746094 62.18402099609375 453.16326904296875 60.3913459777832 452.41790771484375 C 61.07709884643555 450.70220947265625 61.65534973144531 448.8700866699219 62.250972747802734 446.9390869140625 C 58.78818893432617 446.5605163574219 59.21699523925781 443.33843994140625 60.325199127197266 440.19354248046875 C 60.02328109741211 437.115234375 60.03836441040039 432.1758728027344 59.676246643066406 428.3071594238281 C 60.0191535949707 425.7713928222656 59.747867584228516 424.25775146484375 58.98115539550781 421.9775695800781 C 58.68773651123047 420.31988525390625 57.96695327758789 414.6424865722656 57.17454528808594 411.5816955566406 C 56.058013916015625 407.7311096191406 56.607364654541016 404.5042724609375 56.96355056762695 401.6849060058594 C 56.27341842651367 403.3150939941406 56.15113830566406 401.4819030761719 56.038185119628906 399.76043701171875 C 57.32756423950195 400.8108215332031 58.3616828918457 401.8918762207031 56.52980041503906 397.2122802734375 C 55.6865234375 393.53753662109375 55.0888671875 389.174072265625 54.23456573486328 384.7926940917969 C 54.09080505371094 380.2418212890625 54.3015022277832 374.715087890625 53.71183395385742 378.9562072753906 C 53.079654693603516 373.8741760253906 53.02105712890625 371.5792236328125 52.92742156982422 367.6466979980469 C 53.017845153808594 371.91583251953125 52.936981201171875 368.388671875 52.9381217956543 365.0989074707031 C 52.90373992919922 362.67706298828125 53.524662017822266 357.6453552246094 54.18012237548828 352.9165954589844 C 53.93172836303711 354.03314208984375 54.25680923461914 349.30596923828125 54.40089797973633 346.81658935546875 C 54.5341796875 343.6735534667969 54.59135437011719 341.9275817871094 54.66453170776367 339.19903564453125 C 54.86106872558594 336.5853271484375 55.33161544799805 333.96026611328125 55.946434020996094 331.34716796875 C 58.958316802978516 332.2405090332031 61.448753356933594 332.3177185058594 64.55818176269531 332.332275390625 C 68.09188842773438 332.3232116699219 71.24103546142578 332.340087890625 74.29092407226562 332.4174499511719 C 77.75756072998047 332.4268493652344 81.36907958984375 332.3346252441406 84.4357681274414 332.2251281738281 C 86.85609436035156 332.545166015625 89.41999053955078 332.2386779785156 92.45880889892578 331.4043273925781M 94.37590026855469 355.69305419921875 C 92.36097717285156 355.7648620605469 90.80367279052734 355.8646545410156 89.11127471923828 355.95355224609375 C 87.27640533447266 356.1312561035156 85.27654266357422 356.0412292480469 83.48287963867188 355.96612548828125 C 83.42877197265625 359.047607421875 83.5985107421875 362.23773193359375 83.73023223876953 365.5118103027344 C 83.86902618408203 368.5291748046875 83.88622283935547 370.2691955566406 83.74887084960938 372.10589599609375 C 83.82085418701172 372.7166442871094 83.75005340576172 374.6324462890625 83.77613830566406 376.91143798828125 C 83.22547149658203 380.9808349609375 83.2366714477539 384.098876953125 83.42459106445312 386.8249816894531 C 85.91283416748047 386.9658508300781 88.18167877197266 386.9756774902344 90.93537139892578 387.36016845703125 C 93.1730728149414 387.74090576171875 98.40487670898438 388.05206298828125 99.49142456054688 388.0965881347656 C 100.4852294921875 388.017822265625 103.39298248291016 387.3751525878906 105.35792541503906 386.4849853515625 C 106.80803680419922 385.89617919921875 108.6139907836914 384.6024475097656 109.64833068847656 383.0326232910156 C 110.45453643798828 381.713623046875 111.14930725097656 380.3852233886719 111.87357330322266 378.26959228515625 C 112.32678985595703 376.6407775878906 112.44197082519531 374.48046875 112.4383773803711 371.7469787597656 C 112.32678985595703 369.4273376464844 111.20829010009766 365.20269775390625 110.02725219726562 362.71295166015625 C 108.86090850830078 360.797607421875 107.75904846191406 359.3995056152344 106.68131256103516 358.3270263671875 C 105.41357421875 357.2989196777344 103.61688995361328 356.2191467285156 101.480712890625 355.66705322265625 C 99.6907730102539 354.9629821777344 98.97561645507812 355.1178894042969 94.37590026855469 355.69305419921875"/>
    <path stroke-width="0" fill="rgb(0, 0, 0)" opacity="1.0" d="M 226.2340087890625 450.85955810546875 C 221.6890106201172 451.0186462402344 218.15663146972656 450.2185974121094 217.0999298095703 450.1163330078125 C 215.62216186523438 449.58038330078125 223.32264709472656 448.3380432128906 217.96617126464844 451.3193054199219 C 215.85108947753906 451.69781494140625 211.4253387451172 452.7759094238281 206.90101623535156 452.9440002441406 C 203.7067108154297 453.17059326171875 198.9623260498047 453.1702880859375 194.6867218017578 453.0462646484375 C 191.1267852783203 452.81951904296875 187.0998992919922 452.2532653808594 183.09085083007812 451.3763732910156 C 186.78952026367188 452.9980163574219 183.4164581298828 453.16729736328125 178.96884155273438 453.51763916015625 C 177.864501953125 453.6759338378906 173.57763671875 454.0186462402344 168.53038024902344 454.2665100097656 C 168.77334594726562 449.3328857421875 166.8946075439453 450.0073547363281 164.66136169433594 451.1012878417969 C 163.79373168945312 449.0333557128906 163.03346252441406 446.92681884765625 162.4144287109375 444.63311767578125 C 161.71621704101562 444.5604553222656 161.74899291992188 440.6642150878906 161.78050231933594 437.41522216796875 C 162.10208129882812 432.66302490234375 162.2964630126953 433.8170471191406 162.45489501953125 430.5464172363281 C 161.60499572753906 426.82867431640625 161.27618408203125 424.0562438964844 161.1584930419922 421.4875793457031 C 161.41490173339844 418.6039123535156 161.3566131591797 416.361328125 162.63433837890625 420.20574951171875 C 162.23228454589844 416.52484130859375 161.1192626953125 413.0201110839844 160.9820098876953 411.75927734375 C 161.47869873046875 407.6424865722656 161.69236755371094 404.9888000488281 162.0127716064453 401.50067138671875 C 162.64837646484375 397.4773254394531 163.36105346679688 394.1828918457031 163.82635498046875 392.1850280761719 C 160.88661193847656 395.458740234375 160.94918823242188 390.481201171875 162.275390625 392.6864929199219 C 161.79852294921875 388.74591064453125 161.0471649169922 385.5120849609375 160.79827880859375 382.6761169433594 C 160.50515747070312 378.54608154296875 160.08740234375 373.8780822753906 159.9075164794922 369.63653564453125 C 160.5238494873047 364.1784973144531 161.3484649658203 359.8810119628906 161.000244140625 363.61016845703125 C 160.8096466064453 360.9285888671875 161.1922149658203 356.915771484375 161.09190368652344 356.0010986328125 C 160.8171844482422 351.5638427734375 160.95132446289062 347.2501220703125 161.4911346435547 343.5025634765625 C 165.36109924316406 343.6106872558594 164.9610137939453 341.55364990234375 164.47793579101562 339.9556884765625 C 163.94183349609375 338.2044677734375 163.19439697265625 336.3627624511719 162.43460083007812 334.45294189453125 C 164.6736602783203 333.4820861816406 166.7847900390625 332.6610412597656 169.37789916992188 331.6862487792969 C 172.4165802001953 330.50201416015625 176.45782470703125 329.4836730957031 177.51766967773438 329.6184387207031 C 181.00579833984375 329.8737487792969 179.20509338378906 331.2869873046875 183.9507293701172 330.4692077636719 C 188.90634155273438 330.1005554199219 191.4072723388672 330.13812255859375 196.03701782226562 330.2760925292969 C 200.5988006591797 329.5682678222656 205.99192810058594 328.8220520019531 212.0440673828125 329.3087463378906 C 216.36769104003906 329.5050964355469 213.02256774902344 330.0248718261719 218.9005584716797 329.6782531738281 C 225.52313232421875 330.1854553222656 231.2063751220703 331.5306396484375 233.3003692626953 332.14654541015625 C 236.50164794921875 332.52056884765625 239.4479217529297 332.8480529785156 242.39877319335938 333.1881103515625 C 242.23133850097656 334.9473571777344 242.0450897216797 337.109130859375 241.8885955810547 339.0830383300781 C 241.7146759033203 341.69683837890625 241.17578125 344.4386291503906 240.72035217285156 347.1208801269531 C 239.62808227539062 346.79144287109375 238.81964111328125 346.44732666015625 238.18130493164062 348.7056579589844 C 237.05935668945312 350.3168029785156 235.71258544921875 351.9029846191406 234.60879516601562 353.3459777832031 C 233.14834594726562 352.2818298339844 231.77159118652344 351.2445068359375 230.3880157470703 350.1807556152344 C 229.17953491210938 351.9369812011719 227.37161254882812 351.33154296875 226.34173583984375 354.0718078613281 C 223.00946044921875 352.91851806640625 219.13392639160156 352.1585998535156 216.83665466308594 352.46661376953125 C 212.33053588867188 351.7054443359375 209.54782104492188 351.6328125 204.8934326171875 351.8935852050781 C 202.3446044921875 351.9617919921875 198.64382934570312 352.446533203125 195.66445922851562 352.61358642578125 C 192.7404022216797 353.0774230957031 190.47853088378906 353.2915344238281 188.31459045410156 353.30145263671875 C 188.5807342529297 355.03155517578125 188.58677673339844 357.0604248046875 188.9058074951172 360.59295654296875 C 188.93235778808594 362.21905517578125 189.1345672607422 364.31488037109375 188.49493408203125 367.3258361816406 C 188.21990966796875 368.76947021484375 188.11163330078125 370.7506103515625 188.2207489013672 372.15447998046875 C 188.3645782470703 374.5088195800781 188.6085662841797 377.50567626953125 188.97059631347656 382.2434387207031 C 193.24656677246094 382.5207824707031 197.06558227539062 382.7439270019531 201.5237579345703 383.0032958984375 C 206.1687774658203 383.3599853515625 210.28958129882812 383.980712890625 207.17083740234375 383.1295166015625 C 212.42080688476562 382.43927001953125 216.0988006591797 382.2538146972656 220.07852172851562 381.76531982421875 C 223.27267456054688 381.3448181152344 226.06417846679688 380.6485595703125 229.44192504882812 379.7396240234375 C 229.93675231933594 381.613037109375 230.37057495117188 383.831298828125 230.591552734375 386.5904541015625 C 230.699462890625 387.8006591796875 230.94532775878906 390.638671875 231.06039428710938 392.8058166503906 C 231.30731201171875 394.91571044921875 231.4867706298828 396.24249267578125 231.58639526367188 398.9524841308594 C 231.73513793945312 400.9332275390625 231.98550415039062 402.7810974121094 232.36624145507812 404.8598937988281 C 228.84120178222656 405.2435302734375 225.13668823242188 405.6537780761719 221.35523986816406 406.40625 C 217.46075439453125 406.5028381347656 213.457275390625 406.7266540527344 211.23179626464844 406.8521728515625 C 206.24891662597656 407.25677490234375 202.19117736816406 406.6692810058594 199.19606018066406 406.2754821777344 C 196.59793090820312 405.83843994140625 192.9592742919922 405.7723693847656 189.19664001464844 405.6448059082031 C 189.11691284179688 406.4565124511719 189.0 409.4501953125 189.03704833984375 411.28155517578125 C 188.5506134033203 408.24652099609375 189.6032257080078 412.38250732421875 188.9466094970703 410.5187683105469 C 189.3243865966797 413.1658020019531 189.61550903320312 417.16790771484375 189.6861114501953 419.7289733886719 C 189.9921112060547 422.900634765625 190.32138061523438 426.7301025390625 190.5850372314453 430.58538818359375 C 193.53302001953125 431.1316223144531 197.0924530029297 431.3026428222656 199.86447143554688 431.2446594238281 C 203.86888122558594 430.8785400390625 206.68202209472656 430.6797180175781 209.144287109375 430.09918212890625 C 212.15843200683594 429.4193420410156 208.67311096191406 430.7248229980469 210.7643585205078 429.84912109375 C 215.58358764648438 426.91094970703125 217.41835021972656 426.9297180175781 218.7473907470703 427.05914306640625 C 217.99490356445312 429.67706298828125 219.67343139648438 432.9091796875 221.49929809570312 433.05767822265625 C 223.6240692138672 433.3746337890625 225.36721801757812 433.7011413574219 226.9326629638672 434.048828125 C 226.51800537109375 435.66278076171875 226.0615692138672 437.4508972167969 225.96559143066406 438.4803771972656 C 225.90464782714844 440.046875 225.56735229492188 442.1531982421875 228.7431640625 442.97430419921875 C 226.99462890625 442.77691650390625 226.8992462158203 443.6208801269531 226.468505859375 446.184814453125 C 225.8013153076172 446.94268798828125 225.789794921875 448.23443603515625 226.2340087890625 450.85955810546875"/>
    <path stroke-width="0" fill="rgb(0, 0, 0)" opacity="1.0" d="M 337.218017578125 448.20806884765625 C 334.26416015625 445.7832336425781 330.818603515625 442.46905517578125 330.5635681152344 439.989013671875 C 329.65887451171875 437.48272705078125 327.46533203125 433.5545654296875 324.48492431640625 428.81842041015625 C 319.4721984863281 429.0040588378906 315.4062194824219 428.8047790527344 311.1328125 428.2573547363281 C 313.8339538574219 428.3056945800781 310.8316345214844 428.7138977050781 309.55035400390625 428.8264465332031 C 303.7735595703125 429.23004150390625 301.8783264160156 429.5550842285156 296.3327941894531 429.44781494140625 C 289.6712951660156 429.3795471191406 283.67669677734375 428.44146728515625 280.48828125 428.2170104980469 C 278.53497314453125 432.7095031738281 277.68731689453125 435.8702697753906 276.75762939453125 439.2923278808594 C 275.8367919921875 442.70330810546875 274.2641296386719 447.233154296875 272.9326477050781 451.22259521484375 C 268.5666809082031 450.2124938964844 266.71746826171875 450.4029235839844 263.07025146484375 451.4986267089844 C 259.7077941894531 452.3522033691406 255.30857849121094 454.5135803222656 250.04745483398438 456.6196594238281 C 250.08592224121094 453.42919921875 250.44000244140625 450.31884765625 250.4770965576172 449.3489990234375 C 249.83335876464844 446.38165283203125 249.358154296875 444.23828125 250.25767517089844 440.8016662597656 C 250.54452514648438 437.60565185546875 251.2016143798828 434.38140869140625 251.8656005859375 432.16412353515625 C 252.69515991210938 429.54217529296875 253.15953063964844 427.9419250488281 253.76687622070312 425.258056640625 C 255.0980987548828 421.8603515625 255.6233673095703 420.1294250488281 255.85801696777344 419.0909729003906 C 258.2900390625 413.80706787109375 259.2437744140625 411.9021301269531 261.2790832519531 409.1155700683594 C 261.77899169921875 406.4389343261719 262.4850158691406 399.9040222167969 263.94403076171875 395.67205810546875 C 264.3003845214844 394.08270263671875 264.5279541015625 392.7145690917969 265.1493835449219 388.69268798828125 C 265.6981506347656 386.03607177734375 266.72344970703125 380.0597229003906 267.4158020019531 374.4353332519531 C 267.0461120605469 382.7624206542969 266.75048828125 376.09942626953125 268.56915283203125 371.3285827636719 C 269.4602966308594 367.5940246582031 269.8133239746094 365.3830871582031 270.67816162109375 361.81201171875 C 272.660888671875 357.0290832519531 274.6203918457031 352.4595947265625 275.7143859863281 348.7325744628906 C 277.0043640136719 345.1136474609375 277.2818908691406 344.4230651855469 278.4519348144531 340.8595275878906 C 279.0548095703125 338.8748474121094 279.53369140625 336.55670166015625 280.1142883300781 333.8007507324219 C 282.8844299316406 333.5368957519531 286.8851318359375 333.04541015625 290.8371276855469 333.4768371582031 C 293.8788146972656 333.826416015625 298.2261962890625 333.81854248046875 301.6851501464844 333.93975830078125 C 304.6490783691406 334.6313781738281 308.15057373046875 335.24456787109375 308.89337158203125 335.1634826660156 C 311.2751159667969 339.36871337890625 313.8955078125 338.6733093261719 316.5743408203125 337.83258056640625 C 318.23516845703125 339.5630798339844 319.5382080078125 341.16473388671875 320.3301086425781 340.9143981933594 C 321.6107177734375 344.13543701171875 322.0684509277344 345.6470031738281 322.4771423339844 346.6548767089844 C 322.8272399902344 347.1924133300781 323.49554443359375 348.6750183105469 324.4175720214844 350.1146240234375 C 325.4226989746094 351.912353515625 326.7499694824219 354.6720275878906 327.9082336425781 356.6543273925781 C 329.3033447265625 358.8145446777344 331.6678771972656 361.5613098144531 332.9872741699219 363.7024841308594 C 334.3326721191406 366.61187744140625 335.7098693847656 369.51385498046875 337.02484130859375 373.2003479003906 C 338.37249755859375 376.2277526855469 339.41339111328125 380.0403137207031 340.1133728027344 382.3306579589844 C 342.16107177734375 385.9018249511719 343.6751708984375 389.4352111816406 344.6716003417969 391.8441162109375 C 343.38397216796875 397.8258361816406 343.93524169921875 399.2750244140625 345.5522155761719 402.8742370605469 C 345.62158203125 405.62603759765625 345.5821228027344 408.68292236328125 346.03961181640625 411.20703125 C 347.0632629394531 413.8412780761719 347.6308898925781 415.4256896972656 348.279296875 416.85272216796875 C 349.05419921875 418.3150939941406 349.7227478027344 419.6471862792969 350.93927001953125 421.99432373046875 C 352.66363525390625 425.39471435546875 353.7807312011719 428.0354309082031 355.1270446777344 431.753173828125 C 356.75836181640625 435.6622009277344 357.5099182128906 438.1533508300781 357.7375183105469 440.16009521484375 C 358.01226806640625 443.3340759277344 351.9864807128906 443.8001708984375 352.9456787109375 445.5121154785156 C 354.1728820800781 447.691650390625 355.6253662109375 450.1538391113281 356.8146667480469 452.90533447265625 C 351.4070129394531 453.4768981933594 346.8312072753906 454.32080078125 343.4678649902344 452.7896728515625 C 342.1265869140625 452.7359619140625 340.95806884765625 446.10943603515625 337.218017578125 448.20806884765625M 310.0850830078125 376.6603698730469 C 309.54150390625 374.84588623046875 307.9546203613281 372.2942199707031 306.4107360839844 369.3988952636719 C 305.05279541015625 366.4735412597656 303.4830627441406 363.1960754394531 302.1047668457031 359.8870544433594 C 300.8316345214844 356.90386962890625 299.9844970703125 354.3738708496094 299.4754333496094 352.6958923339844 C 299.3006896972656 354.3900146484375 298.8828125 357.01458740234375 298.15032958984375 360.17950439453125 C 297.56256103515625 363.7068786621094 296.88641357421875 367.181396484375 296.1854248046875 370.61322021484375 C 295.19549560546875 374.0857849121094 294.83544921875 375.9822692871094 294.33099365234375 378.535400390625 C 293.7600402832031 382.1922302246094 292.723388671875 385.09881591796875 291.97930908203125 389.3153381347656 C 291.1392517089844 394.4903259277344 290.43048095703125 398.8938293457031 289.5538330078125 402.7124938964844 C 294.5986022949219 402.6531066894531 300.0052490234375 402.13189697265625 304.8477478027344 401.8066711425781 C 310.5372619628906 401.2694091796875 314.36151123046875 401.06756591796875 318.1951904296875 401.5574645996094 C 317.7306823730469 398.3005676269531 317.26806640625 393.0771789550781 315.84063720703125 388.2242736816406 C 313.864013671875 384.0063171386719 312.0005187988281 379.99041748046875 310.0850830078125 376.6603698730469"/>
    <path stroke-width="0" fill="rgb(0, 0, 0)" opacity="1.0" d="M 431.4969787597656 348.3691711425781 C 426.3551330566406 348.9106750488281 420.3719482421875 350.1556091308594 416.82415771484375 352.099853515625 C 412.1240539550781 354.5982971191406 408.2767028808594 357.40911865234375 405.163330078125 361.06982421875 C 402.3458557128906 364.075927734375 399.927490234375 368.08587646484375 398.6059875488281 372.6472473144531 C 396.80072021484375 378.2314453125 396.114013671875 383.57366943359375 395.5654296875 389.9517822265625 C 394.7891845703125 396.3955383300781 394.84161376953125 397.659912109375 396.1157531738281 401.64971923828125 C 398.131103515625 405.6917724609375 399.551513671875 408.35552978515625 401.9965515136719 412.66632080078125 C 404.9014892578125 418.0624084472656 408.9455261230469 424.18133544921875 413.19781494140625 428.04510498046875 C 416.2242126464844 430.5543212890625 418.9729309082031 432.740478515625 422.4870910644531 434.8992004394531 C 424.1709899902344 435.9231872558594 428.1369323730469 437.0079345703125 429.22540283203125 437.0998840332031 C 433.67828369140625 436.7281494140625 437.2799987792969 435.54693603515625 441.7697448730469 431.93048095703125 C 445.8751525878906 428.8962707519531 448.8343811035156 426.9964294433594 451.60516357421875 425.3150329589844 C 454.5757141113281 423.7239074707031 457.339599609375 422.2760009765625 460.68939208984375 420.79608154296875 C 460.95355224609375 425.37677001953125 461.26068115234375 429.37353515625 461.669677734375 432.3677978515625 C 462.1825256347656 434.0899658203125 462.71636962890625 437.83038330078125 463.6235046386719 441.3625183105469 C 461.52117919921875 442.8044128417969 459.3899841308594 444.0191955566406 457.47723388671875 445.3264465332031 C 455.1526794433594 447.62603759765625 452.30731201171875 450.00579833984375 449.1239929199219 452.2962646484375 C 444.88763427734375 454.1844177246094 441.24017333984375 455.99200439453125 438.11956787109375 456.8697204589844 C 434.4239807128906 457.8204345703125 429.1716003417969 458.1918029785156 427.5223388671875 458.1405334472656 C 421.24298095703125 456.5643005371094 418.0269775390625 455.5745544433594 414.33038330078125 454.02197265625 C 411.3842468261719 452.6026916503906 408.58221435546875 451.2626647949219 406.2913513183594 449.72314453125 C 401.8412170410156 447.8310241699219 397.9859924316406 444.7159423828125 395.7001647949219 442.45867919921875 C 391.2843322753906 439.588623046875 389.5436706542969 437.8295593261719 387.2110900878906 434.4326171875 C 383.70672607421875 431.33782958984375 382.34637451171875 429.5965881347656 380.0075378417969 424.07012939453125 C 377.19989013671875 420.3601989746094 374.8844299316406 416.98834228515625 374.6790771484375 410.4997863769531 C 373.69512939453125 407.9626770019531 372.0668029785156 404.6612854003906 369.6017150878906 402.35662841796875 C 370.4880065917969 396.83489990234375 370.32708740234375 391.76007080078125 368.8175964355469 387.180419921875 C 369.2678527832031 385.05877685546875 370.0478210449219 380.0941162109375 370.3804016113281 375.5373229980469 C 371.2383117675781 371.3070983886719 372.2077941894531 368.1881408691406 373.537109375 363.9380187988281 C 374.76904296875 359.588623046875 376.6737976074219 356.339111328125 378.81622314453125 353.23858642578125 C 381.2320556640625 350.0123291015625 383.3667297363281 347.4283752441406 386.0863037109375 344.640625 C 389.1994323730469 342.0149230957031 391.6352233886719 340.1136474609375 393.8994445800781 338.5697326660156 C 396.7779235839844 336.62493896484375 398.8894348144531 335.3004455566406 402.9300231933594 333.36639404296875 C 406.028076171875 331.0994567871094 410.6298522949219 329.1138000488281 415.68145751953125 328.062255859375 C 420.2362976074219 326.83685302734375 425.4694519042969 325.7316589355469 431.2284851074219 325.26348876953125 C 435.77557373046875 325.5180969238281 440.2375183105469 326.284912109375 445.15716552734375 327.6494140625 C 449.7088623046875 329.3863525390625 454.1820983886719 331.7573547363281 458.48504638671875 334.61090087890625 C 462.2127380371094 337.27197265625 466.1246337890625 340.3689880371094 468.791015625 342.7466125488281 C 471.2055358886719 344.7018737792969 473.44805908203125 346.7720642089844 475.46038818359375 348.75390625 C 473.05474853515625 351.4454650878906 470.457275390625 354.2728271484375 467.9722900390625 357.16925048828125 C 467.1834716796875 358.0981140136719 465.1120910644531 361.65093994140625 462.5662841796875 366.0411376953125 C 457.0895080566406 362.7607421875 450.7734069824219 358.9710388183594 445.28619384765625 354.13006591796875 C 440.6382751464844 350.5664978027344 435.6770935058594 348.6117858886719 431.4969787597656 348.3691711425781"/>
    <path stroke-width="0" fill="rgb(0, 0, 0)" opacity="1.0" d="M 543.7440795898438 449.0777282714844 C 546.4308471679688 447.043701171875 554.3748779296875 450.9178466796875 535.5408325195312 460.40045166015625 C 529.8671875 461.0113525390625 535.8247680664062 453.1119079589844 539.590087890625 441.4757080078125 C 550.7362670898438 452.1094970703125 553.4535522460938 453.9662780761719 532.585693359375 466.57855224609375 C 508.1925354003906 461.1434020996094 516.4135131835938 462.0502624511719 534.8634033203125 464.08294677734375 C 541.4071044921875 461.15814208984375 516.2210693359375 462.3358459472656 508.49530029296875 458.9848327636719 C 506.229736328125 451.74005126953125 500.34246826171875 449.9930419921875 499.0672302246094 450.74163818359375 C 509.5256042480469 447.5923767089844 520.2034301757812 439.6115417480469 528.8106689453125 458.6296081542969 C 521.7800903320312 462.6453552246094 504.05810546875 460.4141845703125 509.668701171875 458.36724853515625 C 499.0452880859375 459.6053466796875 483.93597412109375 457.70672607421875 489.7486572265625 460.2156066894531 C 493.7352600097656 445.84429931640625 483.01080322265625 438.66204833984375 484.21978759765625 433.179931640625 C 501.0258483886719 433.2239074707031 504.6483459472656 438.647216796875 486.18487548828125 444.28424072265625 C 483.4769287109375 431.66912841796875 485.9545593261719 423.7014465332031 488.7601013183594 409.7480163574219 C 488.9554443359375 404.519775390625 496.9026184082031 410.7841491699219 489.6919860839844 426.6970520019531 C 477.9522399902344 423.6170654296875 482.8884582519531 412.7459716796875 481.9417419433594 398.8400573730469 C 485.8525390625 393.1866760253906 490.0812072753906 387.8143615722656 488.7957458496094 400.93896484375 C 481.91802978515625 405.4234924316406 487.177734375 407.4839172363281 475.9153747558594 410.8951416015625 C 482.76190185546875 390.4158630371094 488.0121154785156 385.352294921875 489.06549072265625 376.4099426269531 C 489.3901062011719 366.9092102050781 490.7065734863281 362.6781921386719 491.8330078125 357.0567626953125 C 503.41552734375 366.671142578125 501.68389892578125 373.6971740722656 493.0699768066406 380.8166809082031 C 493.3512268066406 373.8953857421875 496.0079650878906 367.48431396484375 491.4180908203125 361.7026672363281 C 495.05377197265625 367.5335693359375 489.0946960449219 379.2801513671875 492.5367431640625 348.4366760253906 C 493.15032958984375 329.8027038574219 494.2520446777344 330.04510498046875 498.13653564453125 353.2640686035156 C 492.2298889160156 338.6261291503906 495.2298278808594 343.04498291015625 497.99249267578125 334.9310302734375 C 491.3719787597656 325.32208251953125 500.7398986816406 332.5878601074219 514.13037109375 330.1970520019531 C 496.60736083984375 339.175048828125 495.1783752441406 331.8399963378906 494.89788818359375 337.1532897949219 C 496.56390380859375 320.09649658203125 497.1772766113281 326.8007507324219 503.96533203125 331.3191833496094 C 494.3636169433594 326.61309814453125 503.8634033203125 327.3758239746094 499.89434814453125 329.5015563964844 C 520.6906127929688 326.24151611328125 525.0071411132812 317.7968444824219 529.1110229492188 320.9519958496094 C 526.8807983398438 319.50396728515625 531.2691650390625 319.9843444824219 509.666259765625 329.0626525878906 C 526.0150756835938 335.207763671875 549.4617309570312 332.06048583984375 536.2066650390625 335.81292724609375 C 548.6055297851562 326.541748046875 555.7680053710938 318.6921691894531 551.3469848632812 331.9278564453125 C 534.0330810546875 338.0003356933594 551.7505493164062 331.8220520019531 554.9075927734375 336.63153076171875 C 562.6016235351562 343.26409912109375 556.3655395507812 342.8065185546875 546.87255859375 339.74664306640625 C 550.968017578125 343.6016540527344 562.56787109375 348.8188171386719 563.8822021484375 336.3956604003906 C 557.7640991210938 340.1977844238281 552.051025390625 339.5838317871094 548.9261474609375 348.2387390136719 C 533.5549926757812 346.5442810058594 541.3920288085938 344.3682861328125 548.131103515625 339.062255859375 C 540.4478149414062 340.0132751464844 529.51806640625 346.6296081542969 547.955078125 334.9431457519531 C 549.8070068359375 347.2136535644531 539.8277587890625 352.2150573730469 546.9976196289062 352.84210205078125 C 535.1859130859375 353.4918212890625 532.1644897460938 351.30279541015625 527.28076171875 350.7072448730469 C 533.5382690429688 351.2887878417969 526.5971069335938 354.7425842285156 526.212646484375 353.48553466796875 C 536.3768310546875 349.1514892578125 526.5036010742188 356.09576416015625 541.0188598632812 354.6165466308594 C 531.8812255859375 354.5716857910156 514.1685791015625 354.89471435546875 518.0049438476562 356.390625 C 510.15716552734375 351.46240234375 511.002197265625 352.0919494628906 513.52978515625 354.15350341796875 C 512.4387817382812 349.5487060546875 512.3349609375 362.0161437988281 509.988525390625 376.834716796875 C 500.904052734375 370.1523132324219 502.48687744140625 371.6508483886719 513.3633422851562 374.63189697265625 C 511.1427001953125 375.26239013671875 515.9347534179688 383.429931640625 509.4004821777344 378.6372985839844 C 495.34661865234375 365.9869384765625 501.4051208496094 361.52288818359375 511.08587646484375 370.1824645996094 C 530.3696899414062 370.1516418457031 531.094482421875 366.0059509277344 517.4700927734375 368.9377746582031 C 530.8534545898438 373.6879577636719 525.1527099609375 370.54364013671875 528.6469116210938 373.4903259277344 C 543.5343017578125 378.5541076660156 546.6609497070312 371.0242004394531 561.0843505859375 381.7113342285156 C 556.589111328125 376.2096862792969 554.2802734375 387.2643737792969 555.3348388671875 380.7403259277344 C 558.2116088867188 377.8674621582031 560.8509521484375 386.4637145996094 559.6460571289062 384.65447998046875 C 554.8665161132812 383.96881103515625 560.7405395507812 389.9579772949219 562.242919921875 392.585693359375 C 549.9696044921875 393.0899658203125 549.983642578125 396.8813171386719 547.1157836914062 392.562744140625 C 549.2525634765625 393.5628967285156 550.0595703125 388.9755554199219 567.4190673828125 393.9036560058594 C 548.9003295898438 404.80340576171875 543.8209228515625 407.08428955078125 530.939697265625 399.3563232421875 C 535.5556640625 402.2392883300781 516.7550048828125 403.2801818847656 512.3551635742188 396.1752014160156 C 531.6224975585938 397.06365966796875 520.965087890625 398.207275390625 510.6630554199219 394.1686096191406 C 507.06329345703125 390.8598327636719 504.8893737792969 404.6231689453125 505.34503173828125 413.69818115234375 C 509.22650146484375 419.215087890625 506.0478210449219 420.1937561035156 510.8966064453125 423.0566101074219 C 508.50177001953125 418.1589050292969 498.8273620605469 423.86407470703125 508.2770690917969 433.9984130859375 C 511.4131774902344 441.8256530761719 504.08172607421875 437.3014221191406 505.93896484375 433.5537109375 C 505.2497253417969 429.3015441894531 505.008544921875 437.7705078125 516.7850952148438 439.17333984375 C 539.955078125 442.1340026855469 537.6336669921875 430.97149658203125 528.2208251953125 435.76959228515625 C 529.6654663085938 436.7038879394531 540.9751586914062 435.2106628417969 526.3516235351562 439.3066101074219 C 530.2407836914062 442.3636474609375 528.2167358398438 449.2711486816406 526.2467041015625 438.5662841796875 C 537.73876953125 439.0328674316406 538.7307739257812 437.3201599121094 537.7122802734375 433.63909912109375 C 539.5286865234375 437.8139953613281 547.91064453125 434.89111328125 551.6022338867188 439.8402404785156 C 547.6327514648438 445.8782043457031 545.8269653320312 445.3741760253906 547.3029174804688 437.7589416503906 C 550.3029174804688 438.9291076660156 545.5025024414062 438.830810546875 544.9222412109375 449.4580383300781 C 544.1130981445312 455.3360595703125 549.4124755859375 446.73175048828125 553.7901611328125 449.72393798828125 C 549.7958374023438 452.42572021484375 561.6610107421875 449.3243713378906 543.7440795898438 449.0777282714844"/>
    <path stroke-width="0" fill="rgb(0, 0, 0)" opacity="1.0" d="M 53.107601165771484 341.5838928222656 C 51.71084213256836 332.3856506347656 51.6618766784668 321.149658203125 48.77497100830078 320.2245178222656 C 47.11513137817383 310.8620910644531 47.57710266113281 313.2345275878906 43.339473724365234 306.4044189453125 C 42.223262786865234 300.0971984863281 41.313758850097656 294.2401428222656 41.02243423461914 287.65789794921875 C 40.54294967651367 278.22833251953125 42.874000549316406 270.8434753417969 47.383949279785156 265.62005615234375 C 52.01516342163086 259.6667175292969 56.48933029174805 255.88475036621094 61.04913330078125 253.41064453125 C 65.80299377441406 250.325927734375 72.51886749267578 248.92236328125 75.44083404541016 248.750244140625 C 79.89183807373047 247.62156677246094 87.55992126464844 247.9965362548828 95.37451171875 249.55596923828125 C 99.77679443359375 250.79307556152344 103.6012191772461 252.6744384765625 107.82945251464844 254.4827880859375 C 106.17506408691406 249.89414978027344 104.24861907958984 245.00347900390625 102.45185852050781 240.9748992919922 C 101.27701568603516 236.383056640625 99.95012664794922 232.25440979003906 98.10565185546875 228.29718017578125 C 96.41377258300781 224.63653564453125 95.34777069091797 222.43455505371094 94.61155700683594 221.9550323486328 C 93.43003845214844 220.8871612548828 92.7408447265625 220.77273559570312 91.24347686767578 220.4267120361328 C 88.96376037597656 220.90760803222656 94.510009765625 218.6468505859375 91.8847427368164 221.8196258544922 C 90.38426208496094 224.08920288085938 88.09732055664062 229.09642028808594 85.66481018066406 234.18460083007812 C 84.13629150390625 235.96246337890625 82.5771484375 238.8231658935547 80.95118713378906 242.47511291503906 C 70.8861083984375 239.1544189453125 63.58909225463867 235.13107299804688 58.01079559326172 231.471923828125 C 61.41054916381836 226.52725219726562 64.3416519165039 222.75076293945312 66.20243072509766 220.14918518066406 C 67.81498718261719 213.25830078125 70.27910614013672 207.77330017089844 74.70455169677734 202.32875061035156 C 79.75801849365234 196.90966796875 84.7785873413086 195.06857299804688 94.3038330078125 194.8959503173828 C 101.45645904541016 195.5570831298828 106.37240600585938 198.18649291992188 112.16334533691406 203.34405517578125 C 117.91075134277344 208.6775665283203 120.97884368896484 213.62820434570312 122.45979309082031 219.80032348632812 C 124.46158599853516 224.25274658203125 125.7041015625 228.3720703125 126.25033569335938 232.86813354492188 C 128.0489959716797 237.04763793945312 129.5144500732422 240.013916015625 130.84246826171875 244.76174926757812 C 132.15997314453125 248.47799682617188 133.5862579345703 252.9315643310547 134.8239288330078 259.7536315917969 C 135.10748291015625 267.77880859375 133.87440490722656 272.1396484375 132.56060791015625 275.95672607421875 C 131.05882263183594 279.2741394042969 129.42230224609375 281.6748046875 127.77589416503906 283.4488830566406 C 121.5522232055664 280.0863342285156 113.49890899658203 277.91546630859375 105.63766479492188 275.2182922363281 C 98.65972137451172 273.36346435546875 92.79008483886719 271.4161682128906 89.35223388671875 270.50048828125 C 86.06279754638672 270.1306457519531 85.22919464111328 270.03863525390625 81.47835540771484 272.6824035644531 C 75.96824645996094 274.6286926269531 73.26818084716797 276.2144470214844 69.851318359375 279.64373779296875 C 67.97417449951172 282.1949768066406 65.62001037597656 287.15789794921875 65.22322845458984 291.76531982421875 C 65.48287200927734 296.1202087402344 65.4456558227539 301.9256286621094 65.0162582397461 300.282958984375 C 69.06119537353516 306.24273681640625 70.75514221191406 313.36981201171875 73.23541259765625 320.4510803222656 C 74.9745864868164 325.2466735839844 76.97509765625 330.40777587890625 78.5420150756836 335.9640808105469 C 70.26284790039062 337.7883605957031 61.93642807006836 339.8226623535156 53.107601165771484 341.5838928222656"/>
    <path stroke-width="0" fill="rgb(0, 0, 0)" opacity="1.0" d="M 255.30569458007812 276.72991943359375 C 247.78187561035156 275.3273620605469 243.5604248046875 274.3115539550781 238.0447540283203 272.7917785644531 C 232.2141571044922 272.7323913574219 225.9833221435547 270.7022705078125 222.19358825683594 268.0289611816406 C 218.48699951171875 266.27972412109375 215.10133361816406 263.70477294921875 212.0076141357422 259.851806640625 C 206.707275390625 272.3764953613281 204.9575958251953 256.4289855957031 204.9170684814453 239.18482971191406 C 223.6591339111328 214.1932373046875 218.4640350341797 178.06512451171875 225.25076293945312 145.75631713867188 C 231.16493225097656 147.09181213378906 236.09710693359375 147.630859375 240.09725952148438 147.4523162841797 C 244.6472625732422 177.8395233154297 243.9699249267578 208.4691925048828 235.3079833984375 237.27459716796875 C 234.02310180664062 241.39451599121094 234.0569610595703 243.9865264892578 234.52920532226562 245.07110595703125 C 235.57037353515625 246.63682556152344 238.8935089111328 248.6570281982422 246.44732666015625 249.40518188476562 C 250.93917846679688 250.83349609375 254.59632873535156 251.20542907714844 258.9009094238281 251.37985229492188 C 263.3699951171875 251.6745147705078 267.2067565917969 253.212158203125 269.4817810058594 256.0948791503906 C 271.5309753417969 258.54693603515625 272.3271179199219 261.55804443359375 271.9831237792969 265.08154296875 C 271.7258605957031 268.6303405761719 270.25714111328125 271.4485168457031 267.74078369140625 273.55706787109375 C 265.4808044433594 275.5555114746094 261.6435546875 277.0980224609375 255.30569458007812 276.72991943359375M 148.67562866210938 278.8978271484375 C 146.18484497070312 281.4609680175781 141.2958984375 288.0063781738281 146.6227264404297 286.2813415527344 C 167.1138458251953 281.5479431152344 157.97500610351562 269.4018859863281 145.90936279296875 258.0660095214844 C 159.72303771972656 267.48486328125 162.0707550048828 260.7967834472656 160.56756591796875 274.9741516113281 C 156.4564666748047 273.8367919921875 162.45030212402344 262.3736572265625 181.85427856445312 256.3811340332031 C 198.25314331054688 254.88742065429688 200.05538940429688 260.8609313964844 194.07763671875 245.44976806640625 C 192.7247772216797 236.50537109375 200.3129425048828 232.48370361328125 209.97518920898438 239.04872131347656 C 214.38485717773438 229.33470153808594 216.11715698242188 229.30296325683594 215.14956665039062 204.25332641601562 C 216.62034606933594 214.24267578125 217.15451049804688 224.5367431640625 218.16842651367188 235.69778442382812 C 215.1690673828125 244.5306854248047 212.44625854492188 252.81362915039062 210.69049072265625 259.5398254394531 C 232.13568115234375 268.318115234375 221.77857971191406 272.6170959472656 213.21408081054688 266.8456726074219 C 198.5575714111328 269.6109619140625 195.49485778808594 266.0774230957031 197.76060485839844 273.25885009765625 C 195.12962341308594 269.9498291015625 184.74545288085938 270.2974853515625 185.49977111816406 277.4031677246094 C 158.74278259277344 285.84051513671875 148.40728759765625 290.6817321777344 148.67562866210938 278.8978271484375M 205.85133361816406 256.31756591796875 C 202.7198486328125 255.68701171875 194.97122192382812 255.05892944335938 199.88731384277344 248.20339965820312 C 185.20809936523438 242.60879516601562 176.75241088867188 241.2222900390625 171.93661499023438 232.86434936523438 C 171.87416076660156 228.68133544921875 165.14088439941406 221.5964813232422 165.25718688964844 211.67034912109375 C 161.4720916748047 201.8516082763672 157.76962280273438 190.7422332763672 155.08737182617188 162.39703369140625 C 167.4578399658203 155.39573669433594 160.91464233398438 176.05221557617188 178.53097534179688 178.89315795898438 C 175.89694213867188 166.85816955566406 175.4615936279297 182.2814178466797 188.2637176513672 190.03924560546875 C 197.18540954589844 197.08486938476562 200.78805541992188 204.70437622070312 204.10882568359375 214.30767822265625 C 204.93125915527344 236.98924255371094 205.618896484375 236.23272705078125 218.43382263183594 234.9288330078125 C 218.09991455078125 234.3421630859375 218.72457885742188 236.78567504882812 217.81149291992188 237.40463256835938 C 211.8505859375 241.88055419921875 206.31494140625 247.28961181640625 205.85133361816406 256.31756591796875"/>
    <path stroke-width="0" fill="rgb(0, 0, 0)" opacity="1.0" d="M 256.9828796386719 277.0189514160156 C 257.07000732421875 268.160400390625 257.6950988769531 259.8921203613281 257.65936279296875 251.22592163085938 C 261.724609375 251.59036254882812 265.6355285644531 251.43695068359375 268.77825927734375 250.53314208984375 C 272.27117919921875 250.25242614746094 273.2187194824219 249.74407958984375 275.1294860839844 247.5277862548828 C 276.18988037109375 246.01483154296875 277.3546142578125 241.87042236328125 279.5970458984375 234.87908935546875 C 282.2640686035156 225.62586975097656 283.45245361328125 217.75355529785156 285.4638671875 208.8394012451172 C 293.4210205078125 209.51751708984375 295.8191833496094 210.01905822753906 304.6331481933594 211.51255798339844 C 304.21136474609375 214.17929077148438 303.1444091796875 217.2638702392578 301.6937561035156 221.05194091796875 C 306.35772705078125 221.28965759277344 305.7119140625 225.22219848632812 306.0880126953125 231.04954528808594 C 305.458251953125 234.1484375 304.82098388671875 239.91998291015625 303.02825927734375 245.88864135742188 C 301.3193054199219 252.26243591308594 298.1592102050781 252.9113311767578 300.2921447753906 254.11199951171875 C 302.0874938964844 254.95591735839844 309.8086853027344 254.0436553955078 317.10260009765625 252.79537963867188 C 323.03778076171875 253.7866668701172 325.00830078125 253.86599731445312 325.71917724609375 253.50343322753906 C 327.89990234375 252.74794006347656 330.0545349121094 251.44345092773438 332.7614440917969 248.34373474121094 C 335.0950927734375 245.5541534423828 337.3736877441406 241.60260009765625 341.489013671875 235.54864501953125 C 345.8140563964844 230.29832458496094 346.09979248046875 227.38218688964844 345.9082946777344 220.8947296142578 C 353.8018493652344 218.6063232421875 357.9764099121094 218.00347900390625 369.9734802246094 213.6044158935547 C 371.1369323730469 221.56581115722656 370.2490234375 227.1709747314453 368.3786926269531 232.82040405273438 C 370.8507385253906 234.60939025878906 367.2148742675781 240.21823120117188 364.4798583984375 245.47366333007812 C 363.1442565917969 247.79718017578125 362.09942626953125 249.8694610595703 358.60894775390625 249.49374389648438 C 355.191650390625 249.7060546875 355.91925048828125 251.60279846191406 356.590087890625 252.8582305908203 C 357.386474609375 253.99456787109375 358.2325744628906 254.34315490722656 358.41180419921875 254.16552734375 C 360.650634765625 253.93580627441406 361.8457336425781 253.11917114257812 367.48486328125 249.27499389648438 C 369.7655944824219 248.49813842773438 372.3339538574219 247.0034942626953 374.245361328125 245.38455200195312 C 376.5432434082031 243.55189514160156 379.87158203125 240.0907440185547 383.1009521484375 235.20729064941406 C 388.669921875 231.6001434326172 390.54193115234375 229.6649169921875 393.1517639160156 226.1728057861328 C 395.6432189941406 223.61752319335938 398.0619201660156 219.53858947753906 398.38641357421875 217.26394653320312 C 400.3111572265625 210.785400390625 402.1001281738281 203.22442626953125 403.5281982421875 196.83587646484375 C 409.3692626953125 196.9341278076172 415.1981201171875 195.66876220703125 424.04718017578125 193.26547241210938 C 425.6426696777344 199.67478942871094 426.55413818359375 206.73895263671875 425.60357666015625 213.73934936523438 C 424.658447265625 220.64382934570312 422.963134765625 226.57350158691406 420.6180419921875 231.20420837402344 C 419.4692077636719 235.40850830078125 417.24456787109375 239.81594848632812 415.63604736328125 242.498779296875 C 413.2420654296875 247.4307861328125 410.1781005859375 251.39901733398438 406.6793212890625 254.1717071533203 C 405.74725341796875 255.4920196533203 403.0395812988281 258.18719482421875 400.5005798339844 260.3945007324219 C 397.6256103515625 263.095703125 394.3352355957031 265.6266784667969 390.151611328125 267.3640441894531 C 386.3700256347656 270.034912109375 381.8431091308594 271.5727233886719 377.6850280761719 273.1938171386719 C 371.2294616699219 274.4009094238281 368.36517333984375 274.98138427734375 363.0787658691406 275.3526306152344 C 358.1492004394531 276.02557373046875 355.0169677734375 275.4989318847656 352.39599609375 273.8792419433594 C 349.5975036621094 270.4905090332031 347.2409973144531 266.0778503417969 346.8280029296875 258.92724609375 C 348.2510681152344 259.212646484375 348.8757019042969 259.0235900878906 350.019775390625 258.7691955566406 C 349.8305358886719 266.62628173828125 348.10467529296875 272.70245361328125 345.5987548828125 276.05499267578125 C 344.06439208984375 278.1646728515625 339.6763000488281 280.4824523925781 333.7119140625 280.8421325683594 C 330.1820983886719 281.4842224121094 322.3551940917969 280.1357727050781 315.8812561035156 278.67431640625 C 313.77142333984375 278.316650390625 309.20166015625 278.3524169921875 307.84442138671875 278.2017517089844 C 301.98321533203125 276.36676025390625 299.7818603515625 275.4825439453125 295.83331298828125 272.3038024902344 C 292.4534606933594 269.7714538574219 289.81536865234375 264.4137878417969 288.90191650390625 257.66583251953125 C 291.6152038574219 257.8975830078125 294.931396484375 258.2149353027344 296.8062438964844 258.28704833984375 C 295.7698669433594 264.343994140625 292.97021484375 269.2763366699219 288.0936279296875 272.1418151855469 C 284.5001525878906 274.782958984375 279.1398620605469 276.684326171875 273.42724609375 276.448486328125 C 268.83477783203125 276.3297424316406 263.843994140625 276.8399658203125 256.9828796386719 277.0189514160156"/>
  </g>
</svg>
