<?xml version="1.0" ?>
<svg xmlns="http://www.w3.org/2000/svg" version="1.1" width="600" height="600">
  <defs/>
  <g>
    <path stroke-width="0" fill="rgb(0, 0, 0)" opacity="1.0" d="M 170.93882751464844 469.76287841796875 C 164.1456298828125 468.49951171875 157.75811767578125 467.1602783203125 152.15457153320312 466.2204895019531 C 147.82269287109375 465.41448974609375 142.54837036132812 464.3447265625 138.23606872558594 464.4747314453125 C 136.4700927734375 461.46539306640625 134.22262573242188 458.2909851074219 132.95777893066406 456.9500427246094 C 130.9539031982422 454.63525390625 128.91387939453125 452.6087646484375 127.46896362304688 451.52313232421875 C 124.64044952392578 449.5836486816406 123.20124816894531 448.7806701660156 120.46210479736328 447.97857666015625 C 113.20328521728516 445.4855651855469 107.70603942871094 442.3179016113281 105.05728912353516 439.8468322753906 C 94.07241821289062 442.6487121582031 86.49576568603516 443.8541259765625 85.28640747070312 444.0559997558594 C 81.67979431152344 449.757568359375 79.68907928466797 454.2981262207031 79.31507873535156 456.4296569824219 C 79.85860443115234 461.6139831542969 80.85293579101562 466.45697021484375 82.16242218017578 471.84161376953125 C 78.57904815673828 473.00531005859375 74.10140991210938 474.6100769042969 69.50463104248047 475.8197937011719 C 66.48208618164062 476.78472900390625 62.061702728271484 478.0623779296875 57.71035385131836 479.6698303222656 C 55.73764419555664 474.8580627441406 53.922454833984375 469.9271545410156 52.22844314575195 463.9544982910156 C 51.955501556396484 457.6002502441406 51.979820251464844 450.7123107910156 53.672210693359375 443.2898864746094 C 56.22414016723633 436.953857421875 59.89447021484375 430.5570983886719 62.3851432800293 426.0179443359375 C 64.45487213134766 422.67083740234375 66.15312194824219 419.376220703125 66.12952423095703 415.7754821777344 C 66.09352111816406 409.81463623046875 65.91828155517578 403.25115966796875 64.5073471069336 397.7026062011719 C 62.9287223815918 390.80157470703125 60.52275848388672 384.81927490234375 57.47696304321289 375.2416687011719 C 55.98554229736328 369.3008728027344 54.68056106567383 362.6884765625 55.550045013427734 353.4585266113281 C 55.089637756347656 347.98797607421875 54.684139251708984 341.84344482421875 54.82329177856445 335.7380676269531 C 60.54228591918945 335.9185791015625 66.13218688964844 335.9781494140625 71.74388122558594 336.0013122558594 C 76.96438598632812 335.853759765625 82.06180572509766 335.58294677734375 87.05352020263672 335.3046569824219 C 87.89813232421875 344.5418701171875 89.66048431396484 355.2525634765625 91.69215393066406 364.7353515625 C 93.88218688964844 376.8542175292969 96.58858489990234 391.6737976074219 96.27176666259766 408.2108154296875 C 98.4989242553711 406.1579284667969 95.70790100097656 404.9560241699219 96.95576477050781 403.975341796875 C 97.9994125366211 402.978515625 98.73925018310547 402.16107177734375 100.08776092529297 400.3086242675781 C 104.4060287475586 388.944580078125 109.73252868652344 375.66241455078125 116.24942016601562 362.9947814941406 C 122.25019836425781 349.73626708984375 129.29476928710938 337.88165283203125 136.8921661376953 328.1449890136719 C 142.66754150390625 327.9094543457031 150.0172882080078 327.64337158203125 157.1088104248047 327.7677001953125 C 163.48239135742188 327.9919128417969 169.78602600097656 328.11627197265625 177.66452026367188 328.52081298828125 C 171.8726043701172 334.1847229003906 166.68380737304688 338.8354187011719 161.63925170898438 343.5353698730469 C 157.87120056152344 347.822265625 153.73782348632812 353.4229431152344 148.31802368164062 361.0037841796875 C 143.98085021972656 368.7648620605469 141.01205444335938 376.0762939453125 137.69839477539062 383.862548828125 C 135.2553253173828 392.0645751953125 132.18011474609375 402.51495361328125 125.77599334716797 416.03265380859375 C 126.83892822265625 417.1674499511719 128.04563903808594 418.1202087402344 130.1267852783203 419.1655578613281 C 137.90353393554688 422.9952392578125 144.24114990234375 427.0596923828125 150.26695251464844 432.2413635253906 C 154.9626922607422 436.7424621582031 159.6519317626953 442.1859436035156 162.74876403808594 448.818115234375 C 165.71429443359375 455.1712951660156 168.2463836669922 462.019775390625 170.93882751464844 469.76287841796875"/>
    <path stroke-width="0" fill="rgb(0, 0, 0)" opacity="1.0" d="M 244.3904571533203 486.3975524902344 C 215.5958251953125 484.77044677734375 190.07257080078125 483.9794616699219 162.05239868164062 477.5550842285156 C 163.20826721191406 470.815185546875 164.59657287597656 463.152099609375 166.42283630371094 455.51739501953125 C 173.35159301757812 453.8620910644531 178.90957641601562 452.81915283203125 181.88833618164062 451.7347412109375 C 183.5949249267578 418.7293701171875 190.13873291015625 384.8182678222656 204.2103271484375 354.4742736816406 C 201.1729736328125 351.3280334472656 197.10768127441406 347.4436950683594 192.57435607910156 343.451904296875 C 194.95980834960938 336.9802551269531 196.91954040527344 331.40399169921875 198.74693298339844 325.6897277832031 C 222.1151885986328 331.8095703125 245.17372131347656 340.1314697265625 267.40826416015625 349.65313720703125 C 265.2604675292969 355.5373229980469 262.6081848144531 362.2811584472656 260.55645751953125 367.8556213378906 C 253.5133514404297 367.9114685058594 248.16433715820312 368.3017578125 240.96286010742188 368.91326904296875 C 229.37400817871094 399.292724609375 220.2158966064453 424.42132568359375 220.19873046875 451.6205139160156 C 228.001220703125 454.12860107421875 236.68466186523438 456.85284423828125 245.5654754638672 459.962158203125 C 245.43682861328125 468.6966552734375 244.9163818359375 478.18304443359375 244.3904571533203 486.3975524902344"/>
    <path stroke-width="0" fill="rgb(0, 0, 0)" opacity="1.0" d="M 385.6611022949219 504.48358154296875 C 374.7823791503906 500.3440856933594 364.4060363769531 496.67156982421875 356.5412292480469 494.27978515625 C 372.1857604980469 493.99298095703125 366.23504638671875 493.5829772949219 355.6697998046875 493.51605224609375 C 349.3102111816406 480.7872009277344 344.2085266113281 463.4702453613281 342.407470703125 449.5563659667969 C 340.8082275390625 440.40716552734375 338.1171569824219 432.559326171875 335.274169921875 423.83026123046875 C 332.28399658203125 416.4226989746094 328.4853820800781 409.76458740234375 323.85498046875 403.5204772949219 C 318.03131103515625 397.231689453125 310.1356506347656 390.43389892578125 280.48046875 392.54913330078125 C 305.4935607910156 372.6772766113281 307.0771484375 369.03582763671875 300.7973327636719 383.1845703125 C 298.5353698730469 385.2604064941406 296.4312438964844 387.260498046875 293.7545166015625 390.0999450683594 C 291.8465881347656 392.5036926269531 290.2178039550781 394.83636474609375 288.2322692871094 398.0152587890625 C 286.46875 401.7341003417969 286.2344055175781 403.3693542480469 286.416015625 406.5806884765625 C 285.9872131347656 417.37860107421875 288.2679138183594 426.171630859375 292.69476318359375 433.5558776855469 C 297.56439208984375 440.563232421875 302.1389465332031 446.6805419921875 306.0932312011719 456.1617126464844 C 298.4642333984375 460.1046142578125 291.8668518066406 464.174560546875 287.104248046875 467.2489929199219 C 285.18115234375 464.66387939453125 282.64794921875 461.3102722167969 280.48883056640625 459.07952880859375 C 277.5854797363281 456.1646728515625 272.01788330078125 450.98046875 267.3902282714844 445.4959716796875 C 263.92388916015625 439.1670227050781 260.72412109375 431.8714904785156 258.67047119140625 425.5790710449219 C 256.1950378417969 414.57757568359375 255.49037170410156 406.8463134765625 255.72938537597656 398.3568115234375 C 260.0643310546875 385.98638916015625 264.1014099121094 378.5443420410156 268.23614501953125 373.1845703125 C 273.1700134277344 368.2257080078125 277.74859619140625 363.2967834472656 280.9056091308594 360.0076599121094 C 283.03497314453125 358.0010681152344 283.6399841308594 357.2140808105469 283.8711853027344 356.78533935546875 C 284.848876953125 353.4715576171875 285.8285827636719 350.270751953125 286.6753845214844 347.1228332519531 C 290.707275390625 348.0184631347656 295.5186462402344 349.0382080078125 302.018310546875 350.57977294921875 C 295.015625 351.7397766113281 303.29345703125 358.17694091796875 307.0870666503906 355.7294616699219 C 313.313720703125 358.19610595703125 315.9655456542969 361.3150939941406 320.9935302734375 366.3701477050781 C 329.9584655761719 372.5367736816406 339.0171813964844 380.2421569824219 346.6446533203125 388.69610595703125 C 353.4407043457031 397.3863830566406 358.8244323730469 406.6103820800781 363.43865966796875 416.2158203125 C 366.6925048828125 425.9466857910156 368.60577392578125 437.85589599609375 369.3449401855469 445.3031311035156 C 374.48809814453125 435.63861083984375 368.8237609863281 447.5890197753906 369.6236877441406 454.26806640625 C 369.099609375 441.97686767578125 369.8955078125 437.1869812011719 372.1874084472656 430.17730712890625 C 372.4595947265625 422.855224609375 373.2333984375 420.06756591796875 375.3592224121094 415.6585998535156 C 375.1891174316406 410.8077087402344 375.8000793457031 404.04278564453125 375.7074890136719 400.0223693847656 C 377.7310791015625 392.5049743652344 378.0790100097656 389.1176452636719 377.5212097167969 383.2142333984375 C 377.1238708496094 375.8662109375 376.5560607910156 370.2157287597656 375.5871276855469 364.7152099609375 C 374.5419616699219 360.22161865234375 372.4599914550781 354.4034423828125 370.0281066894531 347.2959289550781 C 368.15380859375 341.7664489746094 366.142822265625 334.25311279296875 365.09576416015625 326.8648681640625 C 376.1047668457031 326.27783203125 386.36907958984375 325.759033203125 395.0882873535156 325.3939208984375 C 395.5396728515625 330.2420959472656 396.4513854980469 335.8539123535156 397.9286193847656 341.652587890625 C 399.74664306640625 347.3101501464844 402.4329528808594 354.7391357421875 404.64703369140625 362.2615966796875 C 406.54833984375 369.35784912109375 408.17303466796875 377.9776611328125 409.2656555175781 385.6353454589844 C 408.5315246582031 395.1435852050781 407.72100830078125 402.92156982421875 406.1336669921875 409.70855712890625 C 405.5396728515625 417.33465576171875 404.0579528808594 428.037841796875 401.412841796875 434.1424560546875 C 400.5384826660156 442.45709228515625 399.45806884765625 448.4051513671875 398.79986572265625 455.6424255371094 C 397.87579345703125 461.68865966796875 396.6249084472656 469.2771911621094 394.5133361816406 481.1988830566406 C 392.1141357421875 487.0694580078125 389.21771240234375 495.3055725097656 385.6611022949219 504.48358154296875"/>
    <path stroke-width="0" fill="rgb(0, 0, 0)" opacity="1.0" d="M 554.76171875 401.6207275390625 C 555.6885986328125 408.0299987792969 554.8375244140625 414.9891662597656 554.1673583984375 421.1994934082031 C 552.8379516601562 426.3088684082031 550.8255615234375 432.3208923339844 546.8142700195312 438.7624206542969 C 542.671630859375 444.63311767578125 538.3097534179688 450.11993408203125 533.0324096679688 454.07421875 C 528.4960327148438 457.5783996582031 525.60546875 459.9051513671875 522.7533569335938 461.83612060546875 C 519.1377563476562 465.6571044921875 514.0115966796875 469.6353454589844 507.8976135253906 473.3559265136719 C 500.31024169921875 479.7402038574219 491.40374755859375 485.01739501953125 480.9254150390625 487.55126953125 C 470.57196044921875 487.1525573730469 461.11053466796875 485.5745544433594 456.1043701171875 485.0588073730469 C 454.76373291015625 470.1623840332031 448.9097900390625 471.158935546875 443.7616882324219 472.12457275390625 C 442.7073974609375 468.3642883300781 441.4447937011719 464.3021545410156 440.5411071777344 462.2249450683594 C 441.08209228515625 459.61602783203125 441.1885681152344 455.37811279296875 441.4198303222656 450.8193054199219 C 441.15216064453125 445.07763671875 440.8836669921875 440.6634521484375 440.8341369628906 435.83416748046875 C 438.5918273925781 431.0465393066406 437.7460632324219 427.794189453125 436.8211975097656 423.3542175292969 C 434.7783203125 418.3895568847656 433.5743103027344 414.0947265625 431.88671875 405.5233459472656 C 429.93817138671875 395.9798278808594 429.5744323730469 386.22216796875 430.641845703125 376.4981994628906 C 433.80865478515625 367.426025390625 436.1334533691406 358.9702453613281 438.362548828125 352.5038757324219 C 442.21270751953125 346.8132629394531 446.5202331542969 343.0966491699219 449.2183837890625 340.72076416015625 C 450.7631530761719 342.3465270996094 452.2524108886719 343.78961181640625 453.290771484375 344.48809814453125 C 454.683349609375 345.3248291015625 456.5475769042969 337.9958801269531 457.15740966796875 338.30670166015625 C 461.51605224609375 339.0433349609375 469.12982177734375 339.3511657714844 478.0890808105469 340.6549072265625 C 485.6512451171875 342.132080078125 493.2027282714844 343.9753112792969 499.9959411621094 346.400390625 C 505.7474365234375 348.9377136230469 510.3680419921875 351.26171875 515.9124755859375 353.90545654296875 C 521.79052734375 357.28570556640625 526.3956909179688 360.5861511230469 529.27197265625 363.2161865234375 C 532.888427734375 365.7923889160156 535.7638549804688 368.52252197265625 539.75927734375 372.5201416015625 C 543.3150634765625 376.4590148925781 545.9266967773438 380.09149169921875 548.5186157226562 384.9371337890625 C 551.2220458984375 390.3981018066406 553.0664672851562 394.6045227050781 554.76171875 401.6207275390625M 527.481201171875 406.7351379394531 C 526.9510498046875 403.62109375 525.4895629882812 399.21234130859375 524.881103515625 397.5650329589844 C 523.7247924804688 395.100341796875 522.0238037109375 391.85003662109375 518.9611206054688 387.9481201171875 C 514.8885498046875 383.5533447265625 507.5867614746094 378.0981140136719 499.7711181640625 374.7776794433594 C 493.2106628417969 371.1652526855469 485.876708984375 368.7724304199219 477.4516296386719 368.4632873535156 C 472.50048828125 368.26177978515625 467.0867004394531 368.0610656738281 461.70428466796875 367.2572326660156 C 459.4636535644531 376.7513732910156 457.4864807128906 387.76031494140625 457.0940856933594 398.00030517578125 C 458.2763366699219 406.80859375 460.003173828125 413.0203552246094 460.6573486328125 416.1944274902344 C 462.1593017578125 421.059814453125 463.25860595703125 425.149658203125 467.0370178222656 435.27618408203125 C 468.42138671875 445.5555419921875 469.2438049316406 453.8594665527344 469.5355529785156 460.95599365234375 C 473.6726379394531 461.2090759277344 477.509521484375 460.640380859375 481.0098876953125 459.73236083984375 C 487.3644714355469 459.116455078125 494.3054504394531 455.8877258300781 500.0033264160156 451.6610107421875 C 504.99627685546875 448.298583984375 509.76519775390625 442.6546936035156 514.9815673828125 437.3687438964844 C 521.1488037109375 432.290771484375 526.48828125 425.3313293457031 527.2486572265625 422.30706787109375 C 528.0760498046875 417.3970642089844 528.4166870117188 411.3131408691406 527.481201171875 406.7351379394531"/>
    <path stroke-width="0" fill="rgb(0, 0, 0)" opacity="1.0" d="M 53.21513748168945 347.7079162597656 C 50.68418502807617 337.850830078125 49.1170654296875 329.1733093261719 48.03082275390625 322.4126281738281 C 47.10530471801758 313.2091064453125 46.04048156738281 305.20623779296875 45.27925491333008 298.008544921875 C 44.744327545166016 290.6372375488281 44.81047821044922 285.47930908203125 44.96516418457031 280.5194396972656 C 44.905216217041016 272.5967712402344 45.30665588378906 265.9855651855469 47.66824722290039 258.9365234375 C 50.10074996948242 251.8108673095703 54.08280563354492 245.60133361816406 58.7037239074707 241.50196838378906 C 64.0530014038086 236.8387451171875 69.8609390258789 233.75357055664062 77.5882339477539 232.33518981933594 C 85.7210922241211 232.4724884033203 92.21456909179688 232.71380615234375 99.11503601074219 234.8401641845703 C 105.01019287109375 238.03799438476562 110.53718566894531 241.37286376953125 112.72259521484375 242.82618713378906 C 112.51700592041016 242.0321044921875 110.98153686523438 239.00057983398438 108.6489028930664 235.11744689941406 C 106.70658874511719 231.59303283691406 104.00692749023438 227.85821533203125 101.27828979492188 224.48202514648438 C 98.2872543334961 220.61456298828125 95.35624694824219 217.41017150878906 91.96385192871094 214.70187377929688 C 88.64440155029297 211.58673095703125 86.02289581298828 210.1598663330078 91.56875610351562 210.6900177001953 C 90.40947723388672 210.66061401367188 89.59283447265625 210.8002471923828 97.53755950927734 207.13319396972656 C 97.12716674804688 207.61878967285156 96.62969970703125 208.4906005859375 96.315673828125 209.56568908691406 C 95.50296783447266 212.74473571777344 95.31600952148438 215.65281677246094 95.3297119140625 219.50946044921875 C 87.0479507446289 220.18350219726562 80.02932739257812 220.7473907470703 70.7971420288086 221.88201904296875 C 69.14881134033203 213.35140991210938 68.80866241455078 204.7690887451172 70.7123031616211 198.91839599609375 C 72.76461791992188 193.21119689941406 75.75851440429688 188.78968811035156 79.83625030517578 184.8072509765625 C 84.3332290649414 183.48439025878906 88.78521728515625 182.98272705078125 91.1106185913086 182.67686462402344 C 100.15249633789062 184.94390869140625 107.34374237060547 188.3593292236328 112.43299865722656 193.26596069335938 C 117.81104278564453 196.9816436767578 121.70309448242188 200.5699462890625 125.1170883178711 205.39932250976562 C 128.5810089111328 209.24618530273438 131.5960693359375 213.73248291015625 133.91073608398438 218.2953338623047 C 137.48831176757812 223.2752227783203 140.5147247314453 228.905029296875 142.85250854492188 235.14805603027344 C 144.33078002929688 241.21536254882812 144.80364990234375 247.02227783203125 144.2943115234375 252.67727661132812 C 143.1063690185547 260.8781433105469 142.74539184570312 262.1925354003906 141.63478088378906 267.3495788574219 C 140.55126953125 271.3643798828125 139.86497497558594 274.68182373046875 138.92831420898438 276.6441345214844 C 128.58941650390625 275.8974609375 118.27488708496094 275.3990783691406 108.16009521484375 272.1488952636719 C 97.9415054321289 266.5746154785156 91.95866394042969 262.1200256347656 89.59439086914062 260.8687744140625 C 86.21997833251953 259.50457763671875 82.11265563964844 259.2305603027344 80.88232421875 259.60784912109375 C 77.88479614257812 260.8395080566406 76.31514739990234 262.4739990234375 74.87203979492188 265.673095703125 C 72.84966278076172 270.1983337402344 72.02655029296875 276.6059265136719 72.2698974609375 282.6664123535156 C 72.27207946777344 288.40167236328125 72.24424743652344 295.01507568359375 72.65665435791016 301.5083923339844 C 74.21300506591797 307.65728759765625 75.38813781738281 314.2528076171875 76.7452163696289 321.7175598144531 C 78.56151580810547 327.36529541015625 80.39766693115234 333.7751770019531 82.325439453125 339.40338134765625 C 73.21002960205078 342.3414306640625 63.51829147338867 344.9785461425781 53.21513748168945 347.7079162597656"/>
    <path stroke-width="0" fill="rgb(0, 0, 0)" opacity="1.0" d="M 159.2626495361328 343.1021423339844 C 153.0969696044922 334.9446716308594 147.77915954589844 327.8060302734375 141.6722412109375 321.0809326171875 C 148.16964721679688 315.7350158691406 155.53614807128906 309.509521484375 162.87774658203125 301.58740234375 C 170.3954620361328 293.23077392578125 177.7767333984375 284.93878173828125 184.32241821289062 277.08111572265625 C 190.6071319580078 270.27264404296875 196.40090942382812 263.897705078125 198.10362243652344 260.93365478515625 C 200.4839324951172 256.69610595703125 201.8243408203125 252.2767333984375 201.92178344726562 250.10028076171875 C 202.06134033203125 246.0466766357422 198.89248657226562 238.5354766845703 194.91709899902344 232.6807861328125 C 190.37518310546875 228.61849975585938 183.3909454345703 224.68922424316406 177.04530334472656 220.74697875976562 C 181.3135986328125 213.30874633789062 185.49510192871094 205.89703369140625 188.70223999023438 196.44786071777344 C 192.64402770996094 197.2312774658203 197.6420135498047 198.32400512695312 203.47946166992188 200.36373901367188 C 209.68006896972656 204.82723999023438 214.83302307128906 209.57875061035156 218.8751678466797 214.6526641845703 C 222.90699768066406 220.59567260742188 225.53846740722656 225.49850463867188 227.26588439941406 230.24754333496094 C 229.8369598388672 238.09368896484375 232.22166442871094 241.65228271484375 235.0529327392578 243.23410034179688 C 238.10409545898438 244.85455322265625 242.75668334960938 245.59556579589844 249.704833984375 245.4658203125 C 256.62493896484375 246.06900024414062 260.7781066894531 248.38377380371094 262.67071533203125 251.507568359375 C 264.3836364746094 254.23228454589844 265.02899169921875 257.57568359375 264.62030029296875 261.48876953125 C 264.1726379394531 265.64959716796875 262.5018005371094 268.96490478515625 259.40631103515625 271.4288024902344 C 256.66375732421875 273.7165832519531 252.88328552246094 274.6731872558594 247.18240356445312 274.6728515625 C 242.33657836914062 274.3135070800781 237.923828125 273.5132141113281 235.3804168701172 272.5957946777344 C 231.4265899658203 271.1432800292969 228.3435821533203 268.6832275390625 226.32522583007812 265.5621032714844 C 224.55584716796875 262.8361511230469 223.3730010986328 259.7007141113281 222.8636932373047 256.207763671875 C 225.40811157226562 255.6577911376953 228.00155639648438 255.0749053955078 230.51719665527344 254.56727600097656 C 230.6575927734375 260.8433837890625 228.80958557128906 267.1094055175781 225.25363159179688 273.3059387207031 C 220.86961364746094 280.12677001953125 213.97581481933594 287.19580078125 208.10397338867188 292.51611328125 C 202.16636657714844 300.423828125 196.20663452148438 307.6059265136719 188.8101043701172 316.0628662109375 C 181.0519561767578 326.3607482910156 170.67088317871094 336.5332946777344 159.2626495361328 343.1021423339844"/>
    <path stroke-width="0" fill="rgb(0, 0, 0)" opacity="1.0" d="M 250.47201538085938 274.72021484375 C 250.43643188476562 265.3948974609375 250.77926635742188 255.5817108154297 251.47618103027344 245.44764709472656 C 262.4214782714844 247.0646514892578 270.8815612792969 248.98948669433594 278.7026062011719 250.0565948486328 C 281.55029296875 249.96359252929688 284.3421325683594 249.93795776367188 286.7078857421875 249.59043884277344 C 283.6248474121094 250.27951049804688 284.9873962402344 249.3447723388672 286.69696044921875 247.2774200439453 C 287.9132385253906 245.88990783691406 288.93927001953125 243.20816040039062 289.6964111328125 239.50030517578125 C 290.3001708984375 236.3317108154297 290.80450439453125 231.21694946289062 290.7562561035156 228.36314392089844 C 290.9790344238281 225.3805389404297 289.96051025390625 220.864501953125 287.8825988769531 216.2144317626953 C 286.9976501464844 212.78228759765625 286.04095458984375 211.0228271484375 283.85400390625 209.17884826660156 C 282.7592468261719 208.68814086914062 281.79541015625 208.26327514648438 280.1547546386719 207.68199157714844 C 278.47381591796875 206.99151611328125 274.3617858886719 206.62510681152344 269.0368957519531 205.73623657226562 C 263.24053955078125 203.95571899414062 257.4782409667969 201.4927520751953 253.1985321044922 198.80514526367188 C 250.43434143066406 196.4728240966797 249.9154510498047 194.6170654296875 249.3533935546875 193.84413146972656 C 249.37318420410156 190.69314575195312 249.23252868652344 187.00308227539062 249.74888610839844 182.6931610107422 C 250.50994873046875 177.72459411621094 251.26339721679688 174.18423461914062 251.8432159423828 172.10658264160156 C 252.9308319091797 168.3065948486328 255.24476623535156 167.2302703857422 256.3291931152344 165.65679931640625 C 257.8287658691406 164.3935546875 259.84033203125 162.6737823486328 263.4560852050781 159.74168395996094 C 267.71099853515625 155.6666259765625 272.375 150.11721801757812 278.5341491699219 143.60630798339844 C 284.9023132324219 139.28103637695312 292.8001708984375 134.48597717285156 302.5335388183594 130.59666442871094 C 313.2312316894531 126.53491973876953 327.2220458984375 124.93698120117188 332.7458190917969 124.07566833496094 C 334.1185607910156 129.87646484375 335.8034973144531 132.69024658203125 345.12567138671875 142.50018310546875 C 336.1530456542969 150.83682250976562 326.46539306640625 158.8006134033203 318.2307434082031 162.46212768554688 C 312.0720520019531 164.46653747558594 306.8331604003906 166.89785766601562 303.3671875 169.3731689453125 C 298.80792236328125 172.1558074951172 292.7508544921875 176.93453979492188 287.8809509277344 180.5097198486328 C 283.6198425292969 183.78338623046875 280.3017272949219 187.0022735595703 277.80364990234375 189.95855712890625 C 276.4351501464844 184.4729766845703 275.87567138671875 178.3072967529297 275.84722900390625 173.0571746826172 C 285.739501953125 179.14138793945312 293.6784362792969 184.61839294433594 300.5523376464844 189.0620880126953 C 306.6902160644531 195.1675262451172 310.50543212890625 201.06808471679688 313.1549377441406 207.4858856201172 C 315.4678649902344 213.0606689453125 317.3174133300781 217.67872619628906 318.1845703125 221.05337524414062 C 319.2100830078125 225.80096435546875 320.0460510253906 229.24330139160156 320.41668701171875 234.00379943847656 C 320.4090881347656 235.8607177734375 320.54052734375 240.29307556152344 319.8457336425781 244.0274658203125 C 318.9850158691406 248.6853485107422 317.3075256347656 253.52288818359375 314.3009948730469 257.64031982421875 C 311.43902587890625 263.0635070800781 306.5456848144531 268.25555419921875 299.6529235839844 273.1336975097656 C 292.4579772949219 277.478271484375 281.76849365234375 278.830078125 272.1351013183594 277.7563171386719 C 264.364501953125 276.3413391113281 257.0168151855469 274.6613464355469 250.47201538085938 274.72021484375"/>
  </g>
</svg>
