<?xml version="1.0" ?>
<svg xmlns="http://www.w3.org/2000/svg" version="1.1" width="600" height="600">
  <defs/>
  <g>
    <path stroke-width="0" fill="rgb(0, 0, 0)" opacity="1.0" d="M 162.49453735351562 470.7808837890625 C 159.53501892089844 468.7301025390625 156.47705078125 466.6629943847656 153.38401794433594 464.6949462890625 C 149.6845703125 462.8128662109375 146.81398010253906 461.9183044433594 142.4890899658203 461.0633239746094 C 141.33192443847656 457.06842041015625 140.4374237060547 454.0639953613281 138.98834228515625 450.5187683105469 C 137.4147491455078 447.07257080078125 135.1011962890625 444.3312072753906 133.43507385253906 442.2866516113281 C 131.75112915039062 440.74908447265625 128.83021545410156 439.2119445800781 125.83373260498047 438.71734619140625 C 117.33293914794922 437.9628601074219 109.87335205078125 435.55462646484375 107.2721176147461 433.71826171875 C 99.94105529785156 436.45709228515625 93.71221160888672 438.56280517578125 85.46465301513672 440.1856384277344 C 81.80597686767578 444.826171875 79.41670989990234 449.3670349121094 76.20369720458984 456.6783447265625 C 76.47744750976562 459.6560974121094 77.13646697998047 466.0256042480469 77.96691131591797 470.7607727050781 C 74.80045318603516 471.2963562011719 71.5525894165039 472.0234375 68.75159454345703 472.7419738769531 C 67.39099884033203 473.3956298828125 63.65332794189453 476.24517822265625 58.474361419677734 480.6346740722656 C 53.58723449707031 475.3176574707031 49.64110565185547 469.8236083984375 45.975826263427734 462.5628356933594 C 46.93999481201172 451.706298828125 48.58294677734375 442.60546875 51.30513000488281 435.8373107910156 C 54.3912353515625 429.3835144042969 59.173309326171875 423.3817138671875 61.85132598876953 420.35321044921875 C 64.81424713134766 415.52783203125 66.87516784667969 411.95281982421875 67.19619750976562 408.92218017578125 C 67.16111755371094 404.2343444824219 66.94891357421875 396.90924072265625 65.90505981445312 393.2263488769531 C 64.10752868652344 384.97747802734375 62.388004302978516 377.5665283203125 60.92799377441406 371.8359069824219 C 59.51909255981445 365.8912048339844 57.829071044921875 360.4031982421875 57.1067008972168 353.4761657714844 C 56.73505783081055 347.38446044921875 56.700469970703125 341.88336181640625 56.64852523803711 336.7417297363281 C 61.769493103027344 336.6512451171875 67.13420867919922 336.601806640625 72.56432342529297 336.5922546386719 C 77.5809326171875 336.5993347167969 82.29137420654297 336.6466369628906 86.07474517822266 336.5791320800781 C 86.41168975830078 343.75665283203125 88.07188415527344 352.4583435058594 90.20879364013672 360.63385009765625 C 93.35572814941406 373.0307312011719 95.6619873046875 387.0333557128906 94.43167114257812 403.1121826171875 C 94.9933853149414 401.8249206542969 95.26338958740234 401.09552001953125 97.0857162475586 398.00933837890625 C 99.44404602050781 394.3200988769531 101.76420593261719 391.27398681640625 104.26322937011719 388.27374267578125 C 110.2799301147461 379.2054748535156 117.06810760498047 369.61279296875 124.99911499023438 360.51116943359375 C 131.411376953125 353.7823181152344 137.6401824951172 347.206298828125 144.2972412109375 339.9153747558594 C 147.69834899902344 340.13104248046875 148.6381072998047 339.9963073730469 152.6943817138672 338.2727355957031 C 158.27947998046875 335.972900390625 163.7198944091797 333.9965515136719 170.20909118652344 332.2730407714844 C 167.8603057861328 338.80322265625 164.9925079345703 344.283447265625 161.82855224609375 349.68310546875 C 158.8273162841797 355.3045654296875 154.50750732421875 360.6865234375 150.11972045898438 366.6119689941406 C 146.0577392578125 371.9841613769531 143.1243896484375 376.4595947265625 138.51280212402344 382.906494140625 C 135.0701446533203 388.3710632324219 130.69412231445312 396.7257385253906 123.01416778564453 406.2461242675781 C 126.2135238647461 409.3323059082031 128.40719604492188 410.83984375 133.01817321777344 412.9770812988281 C 142.55470275878906 416.69415283203125 151.49415588378906 422.3930358886719 158.0023193359375 431.0875244140625 C 161.71990966796875 438.44549560546875 163.85006713867188 446.33197021484375 163.96934509277344 455.79180908203125 C 163.3944549560547 461.98394775390625 162.8268280029297 466.58941650390625 162.49453735351562 470.7808837890625"/>
    <path stroke-width="0" fill="rgb(0, 0, 0)" opacity="1.0" d="M 250.29818725585938 475.29974365234375 C 221.24899291992188 477.74932861328125 196.8148193359375 479.9866638183594 171.41445922851562 472.50421142578125 C 172.6206817626953 467.5819396972656 173.99188232421875 460.99212646484375 175.59109497070312 454.9927673339844 C 180.74363708496094 454.01385498046875 183.9862060546875 453.027099609375 186.3354949951172 451.9483642578125 C 181.64706420898438 421.2961120605469 186.12411499023438 387.43646240234375 200.07420349121094 354.21075439453125 C 193.9850616455078 349.5744323730469 189.28033447265625 345.83782958984375 185.0530242919922 342.5742492675781 C 186.4995880126953 337.1825866699219 187.15631103515625 333.7029113769531 187.7947235107422 328.8489990234375 C 211.40899658203125 330.84222412109375 237.3212890625 336.5129089355469 265.5102844238281 336.9287109375 C 265.47442626953125 342.92254638671875 265.4408874511719 347.5263671875 266.0594482421875 355.4415283203125 C 257.3420104980469 359.3843994140625 245.0175323486328 362.9356994628906 233.54666137695312 364.1305847167969 C 218.53675842285156 396.60638427734375 212.50877380371094 420.7129821777344 217.51551818847656 448.42315673828125 C 227.2696075439453 449.5935974121094 237.31446838378906 450.962158203125 245.96273803710938 451.906005859375 C 247.81646728515625 459.6517333984375 249.2664794921875 466.6499328613281 250.29818725585938 475.29974365234375"/>
    <path stroke-width="0" fill="rgb(0, 0, 0)" opacity="1.0" d="M 389.5954284667969 484.3932189941406 C 384.1810302734375 484.7311706542969 377.9392395019531 486.4344482421875 372.7289123535156 487.3391418457031 C 368.7484436035156 488.197509765625 364.1006774902344 488.3624267578125 356.72357177734375 489.4179992675781 C 348.9590759277344 478.7701416015625 342.32574462890625 464.7798767089844 337.2767333984375 453.3525390625 C 334.3651428222656 442.2785949707031 332.5543518066406 432.1808776855469 329.65655517578125 422.8152160644531 C 326.8036193847656 412.2184753417969 324.6999816894531 403.3725891113281 322.9083251953125 397.1753845214844 C 317.7677001953125 389.4833068847656 312.2548828125 383.4902648925781 302.8329162597656 376.90789794921875 C 305.70928955078125 372.4804992675781 307.0254211425781 368.93768310546875 306.5519714355469 378.16534423828125 C 305.76055908203125 380.06390380859375 304.1513671875 384.30523681640625 303.19317626953125 386.7685241699219 C 301.65264892578125 391.2103576660156 300.87152099609375 394.11236572265625 300.1921691894531 397.361083984375 C 298.8877258300781 402.4542541503906 296.97320556640625 409.5802001953125 295.2923278808594 413.761962890625 C 294.1553955078125 421.24578857421875 295.5086364746094 430.7118225097656 295.8741760253906 444.0275573730469 C 297.5489196777344 447.6650085449219 301.56121826171875 455.1971435546875 306.60479736328125 461.9151306152344 C 299.41363525390625 467.4879455566406 293.6662902832031 471.7200012207031 287.5093688964844 476.33673095703125 C 284.8479309082031 472.7193603515625 281.73291015625 468.51318359375 278.11724853515625 463.69610595703125 C 275.3664245605469 459.72705078125 270.7113952636719 453.94622802734375 268.2125549316406 444.7746276855469 C 266.54833984375 440.7393493652344 265.1591491699219 433.3506774902344 263.81890869140625 423.7213439941406 C 263.2181701660156 412.8429870605469 266.144775390625 404.0891418457031 268.3753356933594 397.2705078125 C 269.78314208984375 392.7233581542969 270.953369140625 387.6025390625 272.78143310546875 380.49566650390625 C 275.38616943359375 374.2559509277344 278.1575927734375 368.3051452636719 280.67333984375 363.45025634765625 C 283.3536071777344 358.9439697265625 284.783447265625 355.50323486328125 285.16583251953125 353.9854736328125 C 285.64190673828125 351.0900573730469 286.0718078613281 346.6287841796875 285.7355651855469 343.74853515625 C 290.1679382324219 343.0787048339844 296.14794921875 343.0272521972656 300.9812927246094 343.36688232421875 C 304.5773010253906 342.9102478027344 307.3655700683594 345.8407897949219 310.7803649902344 343.772705078125 C 317.8930969238281 347.9200134277344 321.463623046875 351.97564697265625 328.29669189453125 357.7939147949219 C 337.4356689453125 365.6990051269531 344.8316345214844 376.2370910644531 351.1025390625 388.56378173828125 C 354.21881103515625 398.1463623046875 356.43310546875 408.59979248046875 357.9189758300781 417.6954650878906 C 359.6282958984375 430.3534240722656 361.14111328125 440.25341796875 364.6985778808594 437.907958984375 C 376.5028076171875 438.3282775878906 362.6619567871094 445.0694580078125 354.006591796875 436.8699951171875 C 361.3369445800781 437.22601318359375 361.99517822265625 430.4139709472656 364.4847106933594 422.5069274902344 C 368.04217529296875 415.3082275390625 371.6224670410156 410.474609375 374.29290771484375 407.14337158203125 C 376.355224609375 403.4393310546875 378.4416198730469 399.7562561035156 379.5374755859375 397.10955810546875 C 380.5301818847656 393.0537414550781 381.23895263671875 388.5851745605469 381.7984313964844 383.34600830078125 C 381.494384765625 378.40667724609375 381.6417541503906 369.99383544921875 380.8627624511719 365.1091003417969 C 380.2812805175781 358.7474670410156 378.4892272949219 352.28924560546875 374.7780456542969 342.2745361328125 C 374.9342346191406 336.70196533203125 374.92926025390625 330.38897705078125 375.2328186035156 325.2083435058594 C 383.83587646484375 326.6153869628906 394.3992919921875 328.09002685546875 401.72412109375 329.6018371582031 C 400.9923400878906 333.8433532714844 400.47174072265625 337.55145263671875 400.5781555175781 339.1123352050781 C 403.71832275390625 348.2444763183594 405.9578857421875 357.5672302246094 408.0305480957031 365.2823181152344 C 409.26214599609375 372.2351989746094 409.3196105957031 380.4650573730469 409.37725830078125 388.28253173828125 C 408.894775390625 396.15594482421875 407.9178161621094 405.65869140625 404.8128967285156 414.10784912109375 C 401.3067626953125 422.0993347167969 397.0793151855469 429.60467529296875 393.75286865234375 434.8199768066406 C 393.13397216796875 436.4194030761719 392.7285461425781 440.74505615234375 392.5117492675781 451.05938720703125 C 391.6009216308594 456.85546875 390.7777404785156 462.1963806152344 389.4707336425781 468.0352783203125 C 389.4422912597656 473.6327819824219 389.57635498046875 479.4091491699219 389.5954284667969 484.3932189941406"/>
    <path stroke-width="0" fill="rgb(0, 0, 0)" opacity="1.0" d="M 557.7714233398438 403.0934143066406 C 558.4994506835938 412.08282470703125 558.5350952148438 419.6631164550781 557.047119140625 426.8716125488281 C 555.2728271484375 432.8025817871094 552.7896728515625 438.3800354003906 549.946533203125 442.664306640625 C 546.6539916992188 448.778564453125 543.6246337890625 452.8096618652344 539.330810546875 456.56854248046875 C 535.1898193359375 461.58843994140625 532.2136840820312 464.83551025390625 527.4976806640625 468.8141174316406 C 522.5419311523438 474.1829528808594 514.0969848632812 480.5286560058594 506.7197265625 484.302001953125 C 495.5591735839844 486.6319274902344 482.72381591796875 487.7620849609375 470.39105224609375 484.3113708496094 C 460.4554748535156 479.8018493652344 454.4864807128906 476.934326171875 453.77001953125 476.8810729980469 C 453.3076171875 467.9013977050781 449.97381591796875 469.153564453125 446.56707763671875 470.4639892578125 C 445.4247741699219 467.86383056640625 443.9697265625 465.0017395019531 441.1573791503906 459.48443603515625 C 441.13232421875 456.7214660644531 440.8149719238281 452.20697021484375 439.1481018066406 445.6705017089844 C 439.17828369140625 440.9372253417969 438.97509765625 434.37030029296875 438.7142028808594 431.26129150390625 C 438.1726989746094 424.3299865722656 438.2663879394531 419.0225524902344 438.4301452636719 417.04046630859375 C 439.0614318847656 412.0948791503906 438.9122009277344 410.2310485839844 436.71453857421875 405.3608093261719 C 433.05712890625 397.1598205566406 429.9329528808594 387.26251220703125 428.5438537597656 374.7080383300781 C 431.0535583496094 363.0684509277344 434.316650390625 354.0444030761719 436.26580810546875 348.982177734375 C 439.0267333984375 343.4168395996094 442.9326171875 339.1922302246094 446.6682434082031 335.496337890625 C 448.6839599609375 337.3694152832031 451.3264465332031 339.1845703125 453.1345520019531 340.32928466796875 C 453.7562255859375 339.86431884765625 454.9994201660156 335.20404052734375 456.23175048828125 335.6330261230469 C 461.250244140625 335.9910583496094 472.5771789550781 335.2978820800781 481.1493835449219 337.13189697265625 C 489.1094055175781 338.3778076171875 496.2752380371094 342.3082275390625 502.35150146484375 345.0194396972656 C 509.0205383300781 348.2818908691406 512.4658203125 349.9936828613281 517.769287109375 353.1966552734375 C 522.5977172851562 355.93035888671875 526.187255859375 358.3682556152344 528.6132202148438 360.31402587890625 C 531.9430541992188 362.2604064941406 535.3582763671875 364.5391540527344 539.8633422851562 370.00311279296875 C 543.7876586914062 372.8960876464844 547.75 378.3134460449219 552.0155029296875 384.8320007324219 C 554.5136108398438 390.2552490234375 556.6596069335938 396.1019287109375 557.7714233398438 403.0934143066406M 525.0103759765625 409.46063232421875 C 524.3506469726562 405.35906982421875 523.1983032226562 402.074951171875 522.1805419921875 398.8741455078125 C 521.5692749023438 397.3748474121094 519.0021362304688 392.0437316894531 517.3262939453125 389.58465576171875 C 513.3242797851562 385.341552734375 505.3322448730469 379.6023864746094 496.4451904296875 376.2342529296875 C 491.59222412109375 373.2211608886719 483.3163757324219 370.1674499511719 477.01055908203125 368.94451904296875 C 472.6002502441406 367.8043518066406 468.4433898925781 366.8064880371094 463.67864990234375 365.93365478515625 C 462.0379943847656 374.1583251953125 461.6712951660156 381.0600280761719 464.0132141113281 392.848388671875 C 466.0875549316406 402.96234130859375 467.4266052246094 409.7301330566406 467.71234130859375 415.7867126464844 C 468.048583984375 418.4526062011719 468.2728576660156 424.4666748046875 469.6899719238281 433.1252136230469 C 470.04034423828125 439.8874816894531 470.2256774902344 445.37445068359375 470.0487976074219 452.75433349609375 C 472.42901611328125 453.34521484375 475.540771484375 454.03680419921875 480.75048828125 454.95794677734375 C 488.8793640136719 456.4454345703125 496.7229309082031 455.65771484375 501.6098327636719 453.6808166503906 C 508.1996154785156 450.7356872558594 513.41796875 446.76373291015625 516.4121704101562 441.7140808105469 C 521.585693359375 436.20709228515625 524.0485229492188 430.6120910644531 525.182373046875 426.5520935058594 C 526.4434814453125 421.09442138671875 526.4019165039062 417.0055847167969 525.0103759765625 409.46063232421875"/>
    <path stroke-width="0" fill="rgb(0, 0, 0)" opacity="1.0" d="M 55.85349655151367 347.3552551269531 C 53.302371978759766 338.7250671386719 51.078346252441406 330.5984802246094 49.36029815673828 322.301025390625 C 48.159088134765625 313.8702697753906 47.43458938598633 307.28521728515625 46.447322845458984 301.6936340332031 C 45.53252410888672 294.5644226074219 45.36711883544922 288.8023376464844 45.70036697387695 283.0857238769531 C 45.96754455566406 274.8028869628906 47.469642639160156 267.8115539550781 51.02322769165039 260.9166259765625 C 52.842926025390625 254.44517517089844 55.7703857421875 249.4105987548828 60.714900970458984 245.0850830078125 C 64.96421813964844 238.97628784179688 70.75724792480469 234.18580627441406 76.364990234375 231.87416076660156 C 86.4982681274414 227.8629608154297 94.10679626464844 227.96075439453125 103.3145751953125 229.91856384277344 C 108.90970611572266 234.07557678222656 113.91777038574219 238.24139404296875 115.89039611816406 240.01455688476562 C 114.48855590820312 236.09909057617188 113.77165985107422 234.5692901611328 111.396484375 231.63099670410156 C 109.4013442993164 229.0538330078125 106.57527160644531 226.33624267578125 103.40795135498047 223.51910400390625 C 101.01399230957031 221.0365447998047 97.12911224365234 216.947021484375 94.34407043457031 214.05894470214844 C 91.6563720703125 210.45260620117188 90.81795501708984 209.96841430664062 100.89529418945312 208.52784729003906 C 97.30490112304688 209.01824951171875 96.35539245605469 209.3883514404297 95.4858627319336 209.8088836669922 C 95.2867660522461 210.40045166015625 94.759765625 211.36236572265625 93.84432220458984 215.8201446533203 C 92.83511352539062 217.86953735351562 91.24344635009766 222.31536865234375 89.58565521240234 227.44664001464844 C 78.927978515625 223.80926513671875 70.51104736328125 219.8652801513672 63.45996856689453 217.33175659179688 C 64.31727600097656 210.55621337890625 66.67247009277344 204.44479370117188 68.49146270751953 200.49253845214844 C 71.74308776855469 192.91867065429688 75.56485748291016 187.9455108642578 80.91862487792969 184.50540161132812 C 85.68087768554688 182.05740356445312 91.71774291992188 180.7172393798828 95.44784545898438 180.19496154785156 C 106.1738510131836 182.68795776367188 112.29022216796875 186.93724060058594 117.01675415039062 191.61416625976562 C 120.95867156982422 194.82745361328125 124.47236633300781 198.20814514160156 127.6613998413086 202.53115844726562 C 131.66127014160156 206.42445373535156 134.84432983398438 210.2913055419922 138.06922912597656 214.89578247070312 C 141.32272338867188 219.44590759277344 143.87364196777344 224.97088623046875 145.59056091308594 231.90455627441406 C 146.3356170654297 237.033203125 146.39903259277344 242.72271728515625 145.36419677734375 248.2790069580078 C 143.37213134765625 256.1559143066406 143.50726318359375 258.26739501953125 143.5028839111328 265.1153564453125 C 142.66522216796875 271.0819091796875 141.39251708984375 275.8166809082031 140.64913940429688 278.287353515625 C 124.52098083496094 279.0642395019531 116.05510711669922 278.4018249511719 105.18165588378906 272.5393371582031 C 97.80784606933594 263.7856140136719 93.29590606689453 258.1266174316406 92.25687408447266 257.6307067871094 C 88.92288970947266 256.4396667480469 86.11177825927734 256.5273742675781 84.04139709472656 257.36614990234375 C 83.2552261352539 257.9130859375 80.09906005859375 262.9332580566406 77.79757690429688 269.9151916503906 C 75.02305603027344 276.3241882324219 74.55143737792969 279.31622314453125 74.70381927490234 285.8503723144531 C 74.66464233398438 290.4840393066406 75.35488891601562 296.72320556640625 75.6213150024414 301.96478271484375 C 75.8640365600586 310.463134765625 76.6040267944336 316.7582702636719 77.68806457519531 322.93609619140625 C 79.373291015625 329.09661865234375 80.85147094726562 334.81982421875 82.36292266845703 339.8624572753906 C 73.90330505371094 342.5035400390625 64.5853271484375 344.9812316894531 55.85349655151367 347.3552551269531"/>
    <path stroke-width="0" fill="rgb(0, 0, 0)" opacity="1.0" d="M 147.23031616210938 338.02166748046875 C 148.04808044433594 323.184326171875 151.20863342285156 310.1246643066406 152.2610321044922 304.353515625 C 157.08087158203125 305.55352783203125 160.75221252441406 305.9717712402344 168.46002197265625 298.95379638671875 C 175.8230438232422 289.7342224121094 182.2541961669922 282.6153564453125 188.23452758789062 274.8499450683594 C 193.4400634765625 269.08544921875 198.20059204101562 262.2413330078125 199.86912536621094 258.1725158691406 C 201.25070190429688 254.6099853515625 201.7149658203125 250.4076690673828 201.6044158935547 245.1531524658203 C 201.5184326171875 241.19151306152344 200.36199951171875 238.2716522216797 197.69906616210938 234.42091369628906 C 194.78260803222656 231.3438262939453 189.0569305419922 226.93170166015625 182.03024291992188 221.3485565185547 C 189.35638427734375 213.73878479003906 194.79685974121094 207.6351776123047 201.83172607421875 199.29238891601562 C 206.80625915527344 203.7451629638672 210.12625122070312 207.80496215820312 212.4420928955078 210.75881958007812 C 214.62680053710938 213.04759216308594 216.95565795898438 215.90206909179688 218.58155822753906 218.16148376464844 C 220.88394165039062 221.24005126953125 222.8222198486328 224.36785888671875 224.05361938476562 226.43675231933594 C 226.51075744628906 231.96713256835938 228.0126953125 234.23110961914062 231.42425537109375 236.12570190429688 C 235.65481567382812 238.34507751464844 241.07032775878906 239.6824951171875 248.79888916015625 239.37167358398438 C 257.0246276855469 240.33685302734375 261.30078125 243.00595092773438 263.0074157714844 246.19032287597656 C 264.6806640625 248.9724578857422 265.4609680175781 252.4746856689453 265.0765686035156 256.9336242675781 C 264.7880554199219 261.9496154785156 262.9773254394531 265.56011962890625 259.3049621582031 268.47137451171875 C 255.8482208251953 271.1713562011719 251.09092712402344 272.14404296875 243.0220489501953 272.0008850097656 C 239.41273498535156 270.988037109375 235.24928283691406 269.79974365234375 232.3727264404297 268.73681640625 C 228.1704559326172 266.5420227050781 225.19430541992188 263.6028747558594 223.1337890625 260.6903991699219 C 221.06463623046875 258.0342102050781 219.699951171875 255.12049865722656 218.75686645507812 251.06607055664062 C 221.81326293945312 250.34251403808594 224.34759521484375 249.60643005371094 227.135986328125 248.83056640625 C 227.54417419433594 255.51609802246094 225.5342559814453 262.22271728515625 222.1205291748047 269.67755126953125 C 219.60421752929688 275.2347106933594 214.37208557128906 280.99774169921875 208.61253356933594 286.38702392578125 C 202.65982055664062 292.9900817871094 195.9474334716797 300.2906188964844 188.91180419921875 307.4479675292969 C 180.39610290527344 320.7955322265625 165.7374267578125 335.4170227050781 147.23031616210938 338.02166748046875"/>
    <path stroke-width="0" fill="rgb(0, 0, 0)" opacity="1.0" d="M 247.8916015625 271.72088623046875 C 249.27633666992188 261.31573486328125 250.2701416015625 250.2376708984375 251.60704040527344 239.5580291748047 C 262.6565246582031 242.04173278808594 271.8161926269531 243.47412109375 278.2677917480469 244.5400848388672 C 282.3780517578125 244.8625946044922 284.7807922363281 244.64910888671875 286.7301025390625 244.31703186035156 C 282.0517272949219 246.17190551757812 283.5206298828125 244.79519653320312 285.9154357910156 241.63308715820312 C 287.7333984375 239.7706756591797 289.3592529296875 237.57894897460938 289.7579040527344 236.49520874023438 C 290.6192321777344 233.7994384765625 290.857421875 232.2784881591797 291.3100891113281 228.07493591308594 C 292.0657958984375 223.34671020507812 291.3258361816406 220.05210876464844 290.26641845703125 217.4706573486328 C 289.484130859375 215.63693237304688 287.51214599609375 212.9426727294922 283.6346435546875 210.06784057617188 C 281.9381408691406 208.50457763671875 280.56414794921875 207.82688903808594 279.7168884277344 207.40359497070312 C 277.9732360839844 207.00772094726562 273.64556884765625 206.8599853515625 268.98858642578125 206.32293701171875 C 260.4517822265625 204.63661193847656 253.5748291015625 201.51902770996094 250.01388549804688 198.8753662109375 C 249.031982421875 195.5470428466797 246.83155822753906 194.30126953125 246.11666870117188 192.7070770263672 C 247.22462463378906 186.3920440673828 248.33018493652344 183.06809997558594 250.8216552734375 177.6859588623047 C 252.45179748535156 174.31179809570312 253.02650451660156 172.61911010742188 254.3048553466797 169.5611114501953 C 256.1580810546875 167.34547424316406 256.78875732421875 166.2517852783203 257.40155029296875 164.99818420410156 C 259.0741271972656 163.73985290527344 261.4845275878906 161.04945373535156 266.16510009765625 157.7889862060547 C 272.0388488769531 153.1165008544922 279.6485595703125 146.66551208496094 287.9046630859375 140.615478515625 C 291.7170715332031 139.10589599609375 296.6642150878906 137.3417510986328 302.1002502441406 135.3224334716797 C 312.6116027832031 132.16897583007812 323.9182434082031 128.68606567382812 330.40264892578125 126.09855651855469 C 333.3256530761719 133.4121856689453 333.9361267089844 134.423828125 341.2503356933594 139.0301971435547 C 338.18768310546875 145.2395477294922 325.0384216308594 166.54905700683594 318.7869567871094 170.1962127685547 C 314.8672790527344 172.91543579101562 310.7253723144531 175.47763061523438 307.6236267089844 176.73001098632812 C 303.0711669921875 179.13796997070312 295.8747253417969 181.44906616210938 289.44622802734375 183.97442626953125 C 284.2498474121094 186.4442138671875 280.3581237792969 188.93475341796875 277.8692932128906 190.89825439453125 C 277.3321838378906 185.74935913085938 278.20751953125 179.51698303222656 279.14117431640625 173.26663208007812 C 287.64422607421875 181.91525268554688 295.22857666015625 189.30023193359375 299.00787353515625 192.40391540527344 C 304.995849609375 197.30767822265625 308.9371032714844 201.94692993164062 312.3371276855469 207.12884521484375 C 314.32379150390625 212.5547332763672 315.73712158203125 217.80831909179688 316.1724853515625 221.50782775878906 C 316.7260437011719 226.78150939941406 317.75347900390625 230.12632751464844 317.9779052734375 232.71817016601562 C 318.39849853515625 235.86160278320312 318.0909423828125 239.9240264892578 316.6607360839844 244.60470581054688 C 315.80377197265625 248.0127410888672 313.5725402832031 251.96023559570312 310.539794921875 255.3810577392578 C 308.18768310546875 258.7332458496094 304.620361328125 262.06256103515625 300.3341064453125 265.9049072265625 C 293.7370910644531 271.95184326171875 284.53009033203125 274.18798828125 274.4265441894531 274.3914794921875 C 265.080810546875 273.9682922363281 256.4894714355469 273.11053466796875 247.8916015625 271.72088623046875"/>
  </g>
</svg>
