<?xml version="1.0" ?>
<svg xmlns="http://www.w3.org/2000/svg" version="1.1" width="600" height="600">
  <defs/>
  <g>
    <path stroke-width="0" fill="rgb(0, 0, 0)" opacity="1.0" d="M 110.84980010986328 364.1898193359375 C 110.26519775390625 367.2828674316406 109.46434783935547 369.8623962402344 108.45538330078125 373.0462646484375 C 107.49928283691406 376.5789489746094 106.34413146972656 379.16748046875 105.20118713378906 380.72821044921875 C 103.55072784423828 383.5200500488281 102.24995422363281 385.2357177734375 100.54216766357422 387.1910705566406 C 98.9290542602539 389.1152648925781 96.61048126220703 390.8329162597656 94.50494384765625 392.71002197265625 C 91.86409759521484 395.7024841308594 87.70313262939453 398.1991271972656 81.7600326538086 400.33734130859375 C 77.2803726196289 401.58807373046875 72.47889709472656 401.8521423339844 65.99635314941406 402.5985107421875 C 63.725223541259766 402.6685485839844 63.01434326171875 402.7452392578125 54.68906021118164 398.7551574707031 C 49.697052001953125 400.2156982421875 44.675086975097656 400.1156005859375 40.10904312133789 398.5431823730469 C 41.879756927490234 394.41436767578125 42.429832458496094 391.99658203125 42.98674774169922 390.00787353515625 C 44.403846740722656 383.1325378417969 45.800106048583984 378.5921936035156 46.84761047363281 374.403564453125 C 47.93777847290039 370.33258056640625 48.37992477416992 368.7529296875 50.44211196899414 364.08917236328125 C 50.79791259765625 362.91351318359375 51.48088073730469 359.62091064453125 52.200233459472656 355.9588317871094 C 52.42497253417969 354.1807861328125 52.01604461669922 351.88037109375 53.72444152832031 349.15081787109375 C 54.95469665527344 346.02496337890625 55.810909271240234 342.5240478515625 56.64658737182617 339.5593566894531 C 57.07304382324219 337.4811706542969 57.2896842956543 334.78338623046875 57.5603141784668 332.9282531738281 C 57.58607864379883 330.9923095703125 58.41941452026367 329.45404052734375 58.67752456665039 326.44573974609375 C 60.93039321899414 326.8666076660156 64.23932647705078 327.43792724609375 63.894935607910156 325.1048278808594 C 64.56224060058594 324.7206726074219 66.00592041015625 324.7530212402344 68.28981018066406 325.21771240234375 C 66.44349670410156 326.00128173828125 68.33873748779297 325.9487609863281 70.72290802001953 326.2052307128906 C 73.36670684814453 326.5410461425781 75.09587860107422 326.75396728515625 78.25820922851562 327.0264892578125 C 81.88832092285156 327.31622314453125 85.41989135742188 327.48431396484375 88.7671127319336 328.3475341796875 C 91.73368835449219 329.0773620605469 94.20053100585938 330.2229309082031 96.4603042602539 331.41961669921875 C 98.99848175048828 332.6488037109375 100.9636001586914 334.0150146484375 102.69621276855469 335.7690734863281 C 105.09251403808594 337.4666442871094 107.14219665527344 339.4575500488281 108.93923950195312 342.439208984375 C 110.43544006347656 344.8978271484375 111.90968322753906 347.59832763671875 112.90157318115234 351.96038818359375 C 112.90959167480469 356.3697509765625 112.0582046508789 360.5739440917969 110.84980010986328 364.1898193359375M 93.71479797363281 360.51153564453125 C 94.55142211914062 357.300537109375 94.82830047607422 355.49627685546875 94.90662384033203 353.51983642578125 C 94.87173461914062 353.06451416015625 94.40571594238281 351.43939208984375 93.75669860839844 349.9831237792969 C 92.67971801757812 346.9427185058594 90.13370513916016 343.4063720703125 87.55641174316406 341.5622253417969 C 85.24642944335938 339.9605712890625 82.79010772705078 339.1354064941406 77.8410415649414 338.6546325683594 C 74.81596374511719 338.2652282714844 71.6756362915039 337.9322509765625 69.81368255615234 337.6632995605469 C 68.7655258178711 341.1341552734375 67.53277587890625 345.8063659667969 66.85359191894531 349.76910400390625 C 65.50675964355469 356.4753112792969 66.27627563476562 350.2748107910156 66.01129913330078 358.8331604003906 C 65.20491027832031 361.9358825683594 64.87963104248047 364.7460632324219 63.01125717163086 370.51953125 C 62.66100311279297 374.16717529296875 62.38554382324219 378.8453369140625 62.35494613647461 383.7244873046875 C 64.35943603515625 383.9785461425781 65.73324584960938 384.3162841796875 67.9747085571289 384.7336730957031 C 74.65696716308594 385.361083984375 78.18524169921875 384.99969482421875 80.24939727783203 384.4398193359375 C 83.21090698242188 382.9008483886719 86.08143615722656 380.1123046875 87.018798828125 378.0776672363281 C 88.8431625366211 375.87030029296875 90.5136947631836 373.17425537109375 91.54293823242188 370.8823547363281 C 92.10924530029297 369.0873107910156 92.74451446533203 365.7637634277344 93.71479797363281 360.51153564453125"/>
    <path stroke-width="0" fill="rgb(0, 0, 0)" opacity="1.0" d="M 170.22203063964844 399.5163879394531 C 167.7662811279297 400.42657470703125 164.54774475097656 399.8279724121094 162.37574768066406 398.3634948730469 C 161.4092254638672 400.30364990234375 158.31552124023438 399.7120361328125 156.00343322753906 399.3519287109375 C 153.5054931640625 398.448486328125 152.1956787109375 398.5202331542969 155.9154815673828 397.0430603027344 C 154.57888793945312 396.62030029296875 152.64540100097656 397.907958984375 149.25091552734375 399.4568176269531 C 145.98373413085938 400.3279113769531 142.49365234375 400.4439392089844 138.60450744628906 399.8070373535156 C 140.13548278808594 400.482421875 139.81776428222656 400.344482421875 136.675537109375 400.7524108886719 C 131.98138427734375 402.2374267578125 132.4318084716797 401.3844909667969 129.4076385498047 400.5370788574219 C 127.47782135009766 399.8144226074219 128.0556640625 397.8860168457031 125.17096710205078 397.3970031738281 C 125.78878784179688 394.40948486328125 124.07992553710938 394.1458435058594 125.83030700683594 390.9654846191406 C 125.45295715332031 390.75433349609375 124.08879089355469 389.5671081542969 121.96974182128906 389.6497802734375 C 122.99689483642578 386.7782897949219 123.90543365478516 384.25439453125 124.8028335571289 382.1725158691406 C 125.47217559814453 380.4759521484375 125.48216247558594 382.8388977050781 125.64849090576172 381.2567443847656 C 125.71617889404297 379.47381591796875 126.35983276367188 376.086181640625 127.10337829589844 371.2132263183594 C 128.09608459472656 368.4931945800781 128.19638061523438 367.8121643066406 128.70343017578125 365.2821350097656 C 130.14425659179688 372.36065673828125 129.54849243164062 371.5663757324219 128.21499633789062 367.88897705078125 C 127.65569305419922 366.8046875 126.1653060913086 363.3114013671875 124.52049255371094 358.9785461425781 C 124.21572875976562 356.47222900390625 128.1055908203125 360.9596252441406 127.16104125976562 356.8559875488281 C 126.73214721679688 353.02935791015625 127.09841918945312 354.39471435546875 127.10525512695312 353.009521484375 C 126.8836441040039 351.75457763671875 127.4179458618164 347.39666748046875 128.00608825683594 345.13763427734375 C 128.70098876953125 342.6282043457031 128.40548706054688 345.4972229003906 128.0045166015625 343.864013671875 C 127.50682830810547 341.9642639160156 127.03519439697266 340.0964050292969 126.62657165527344 336.6636962890625 C 126.84236907958984 335.2422180175781 126.76535034179688 334.10711669921875 127.3178482055664 331.8067321777344 C 127.74403381347656 331.7599182128906 127.61455535888672 329.9015808105469 130.2744903564453 328.6810302734375 C 130.0070037841797 327.6807556152344 129.52239990234375 325.489501953125 129.16085815429688 323.36175537109375 C 131.71884155273438 322.72015380859375 133.46041870117188 321.9857177734375 133.1782989501953 321.1384582519531 C 137.1143035888672 320.9206237792969 136.97760009765625 319.42333984375 140.39712524414062 320.7886047363281 C 144.18722534179688 321.9678955078125 145.8119354248047 322.5202941894531 146.40286254882812 322.871337890625 C 141.9506072998047 323.1452941894531 142.49484252929688 323.13958740234375 145.94944763183594 322.392578125 C 147.91561889648438 322.4923400878906 150.40374755859375 321.8669738769531 152.84518432617188 322.0023193359375 C 156.63055419921875 323.53204345703125 158.48155212402344 323.791748046875 159.0870361328125 323.9483642578125 C 161.20654296875 324.15753173828125 164.32643127441406 324.93768310546875 164.00863647460938 326.8762512207031 C 165.62701416015625 331.79327392578125 167.07662963867188 330.15869140625 168.10653686523438 328.57421875 C 169.38803100585938 329.6296081542969 170.24807739257812 330.66534423828125 171.49595642089844 332.5256652832031 C 172.13674926757812 333.8730773925781 174.2665557861328 333.38714599609375 174.4233856201172 334.2222595214844 C 173.22695922851562 334.08087158203125 173.15687561035156 334.84283447265625 172.54953002929688 336.8000183105469 C 172.01524353027344 337.77984619140625 170.4761962890625 337.1997375488281 169.1156005859375 337.5941467285156 C 169.59881591796875 339.18560791015625 168.40402221679688 339.6046447753906 166.1749725341797 338.2662353515625 C 165.28565979003906 339.9843444824219 165.6143798828125 345.25921630859375 161.016845703125 345.0950927734375 C 157.2727813720703 344.24365234375 154.4332733154297 343.0490417480469 152.4974365234375 342.68731689453125 C 151.36837768554688 342.36199951171875 147.8972625732422 340.6853942871094 144.13424682617188 337.7418212890625 C 148.96360778808594 339.5443115234375 146.57801818847656 339.05999755859375 153.58384704589844 338.7969665527344 C 147.57174682617188 338.9216613769531 144.15330505371094 338.4716491699219 143.46585083007812 338.484375 C 143.14454650878906 334.3565979003906 143.5161590576172 336.4950866699219 143.9981231689453 338.3047180175781 C 144.36318969726562 339.8282775878906 144.68234252929688 341.6274719238281 145.0175323486328 344.2055969238281 C 144.53042602539062 347.05560302734375 143.48475646972656 350.7939758300781 143.1907958984375 352.1177978515625 C 142.97850036621094 352.94732666015625 143.0587615966797 349.259765625 143.08056640625 350.13616943359375 C 144.44174194335938 349.95458984375 145.68276977539062 349.4050598144531 147.63070678710938 348.9086608886719 C 149.30764770507812 347.9191589355469 151.4044189453125 346.96099853515625 154.80633544921875 346.4581298828125 C 158.10487365722656 346.7655334472656 163.68223571777344 348.3486328125 163.6588134765625 349.71875 C 165.8949737548828 349.0487976074219 166.48040771484375 350.07171630859375 168.26515197753906 348.52703857421875 C 169.2874755859375 349.72650146484375 170.2807159423828 351.12445068359375 170.359130859375 353.60980224609375 C 172.34820556640625 353.3096923828125 172.62542724609375 354.5792236328125 173.15272521972656 357.539306640625 C 171.9768524169922 357.1681823730469 171.58627319335938 359.7357482910156 170.4506378173828 360.9906921386719 C 169.24813842773438 362.24554443359375 166.20785522460938 359.60650634765625 166.1297607421875 360.5581970214844 C 163.7212677001953 360.2632751464844 163.61532592773438 360.0497131347656 160.64739990234375 363.39190673828125 C 158.58370971679688 361.8602294921875 156.1058807373047 359.5132141113281 154.64486694335938 359.5886535644531 C 153.13876342773438 359.5856018066406 154.5908203125 359.40411376953125 152.1416778564453 360.6077880859375 C 149.2666015625 361.00238037109375 146.00343322753906 361.13427734375 142.4580535888672 361.2811584472656 C 143.19830322265625 362.1326904296875 145.3875274658203 365.45733642578125 145.179443359375 367.6580810546875 C 145.00021362304688 371.5124816894531 143.62783813476562 374.4334716796875 142.6314239501953 377.5653381347656 C 142.14337158203125 379.48504638671875 142.08197021484375 380.2074890136719 142.2691192626953 382.0503845214844 C 142.47401428222656 385.1606750488281 141.97007751464844 387.0209655761719 140.99008178710938 389.1343688964844 C 143.95684814453125 388.838134765625 146.55886840820312 388.2646789550781 149.33250427246094 386.8505859375 C 152.40884399414062 385.3008117675781 155.23916625976562 384.4820556640625 143.721435546875 382.1981201171875 C 147.06808471679688 379.35357666015625 152.5811004638672 378.1513366699219 157.88429260253906 378.6601257324219 C 160.05551147460938 378.7560729980469 160.65374755859375 378.8935852050781 163.2462615966797 379.0947265625 C 162.3023223876953 381.32049560546875 165.15931701660156 384.26513671875 164.1180419921875 384.8048400878906 C 164.33314514160156 385.4010009765625 164.2191619873047 386.6681823730469 164.9951934814453 386.72113037109375 C 164.8843536376953 387.74017333984375 164.10504150390625 388.4309387207031 162.83090209960938 389.2347412109375 C 164.91763305664062 392.0452880859375 168.21133422851562 392.8907470703125 173.5352783203125 394.38055419921875 C 172.90391540527344 395.2676086425781 171.7117462158203 397.2901611328125 170.99635314941406 396.9663391113281 C 170.7413787841797 397.7711181640625 169.16793823242188 397.7626037597656 170.22203063964844 399.5163879394531"/>
    <path stroke-width="0" fill="rgb(0, 0, 0)" opacity="1.0" d="M 218.72032165527344 338.5101013183594 C 214.0132293701172 338.6094055175781 211.72195434570312 338.7014465332031 209.6421356201172 339.4005432128906 C 207.823974609375 339.9772644042969 206.38397216796875 341.07867431640625 205.074951171875 342.66363525390625 C 204.0360107421875 344.14581298828125 203.35549926757812 345.8244323730469 202.5242156982422 349.29974365234375 C 201.83743286132812 353.0875244140625 200.43325805664062 357.5809631347656 199.8479766845703 361.9672546386719 C 199.5908966064453 364.1788024902344 199.02267456054688 367.7954406738281 198.8112335205078 366.22491455078125 C 199.47515869140625 368.1722106933594 201.84286499023438 371.3077087402344 203.2158203125 374.3155517578125 C 204.1217803955078 377.19024658203125 205.35562133789062 379.13092041015625 208.35836791992188 380.9737243652344 C 209.103759765625 381.6033630371094 211.53326416015625 382.98980712890625 213.85211181640625 383.6533203125 C 214.95465087890625 384.2413330078125 216.64102172851562 384.5867004394531 218.54830932617188 384.5029602050781 C 221.45140075683594 384.68988037109375 222.62484741210938 384.3494567871094 226.14898681640625 383.8959045410156 C 229.200439453125 384.197509765625 230.63919067382812 384.2729187011719 232.19993591308594 384.03399658203125 C 233.7291259765625 383.778076171875 235.6394500732422 383.4067077636719 237.29933166503906 383.1212463378906 C 237.082763671875 385.27734375 236.85983276367188 387.77606201171875 236.49993896484375 389.91961669921875 C 236.00486755371094 392.7340393066406 235.49317932128906 394.7704772949219 235.11744689941406 396.76690673828125 C 233.46983337402344 397.18450927734375 230.81227111816406 397.6350402832031 229.435546875 397.7313537597656 C 227.68045043945312 397.8848571777344 225.59140014648438 397.9344787597656 225.07000732421875 398.1051025390625 C 228.71299743652344 396.33203125 226.48855590820312 397.66717529296875 222.6706085205078 398.3775329589844 C 221.77381896972656 398.5179443359375 217.97665405273438 398.0740966796875 216.67514038085938 398.10040283203125 C 214.01834106445312 398.0904541015625 211.74313354492188 397.2790222167969 209.90423583984375 396.4417724609375 C 209.14292907714844 396.3704833984375 206.87533569335938 395.5143127441406 204.60487365722656 394.7074890136719 C 202.55543518066406 394.04913330078125 199.64862060546875 392.14300537109375 197.8925323486328 390.7205810546875 C 195.24024963378906 388.87738037109375 194.11981201171875 387.9114074707031 192.5442352294922 386.1838684082031 C 190.88119506835938 383.69354248046875 189.916259765625 382.0321044921875 189.0811767578125 380.0697021484375 C 188.19000244140625 378.674072265625 187.53224182128906 377.4444885253906 184.86981201171875 372.1124267578125 C 184.2982635498047 369.8815612792969 184.2486114501953 367.4573669433594 184.45584106445312 365.1072692871094 C 184.33250427246094 364.2780456542969 184.32289123535156 362.2571716308594 184.60665893554688 360.2253723144531 C 185.10398864746094 357.1418762207031 185.602294921875 353.081787109375 186.07774353027344 351.4709777832031 C 186.24024963378906 350.2145690917969 186.6383514404297 348.6030578613281 187.00723266601562 346.597900390625 C 187.7718963623047 343.4681091308594 188.29498291015625 341.2034606933594 189.0168914794922 339.6203918457031 C 190.18362426757812 337.253173828125 191.38710021972656 335.18353271484375 192.8900146484375 333.3047180175781 C 194.5885009765625 331.4658508300781 196.1251678466797 330.2477111816406 197.83270263671875 329.4362487792969 C 200.43490600585938 327.94061279296875 201.60411071777344 327.66375732421875 203.9619598388672 326.7054443359375 C 206.29458618164062 325.6885681152344 207.65383911132812 325.4375305175781 209.99386596679688 325.19744873046875 C 211.417236328125 324.7267761230469 214.84039306640625 324.4449157714844 215.63548278808594 324.2781982421875 C 218.4339599609375 324.09930419921875 221.0847625732422 323.6811218261719 223.95069885253906 323.7830810546875 C 225.24069213867188 323.92755126953125 229.5572052001953 325.3114318847656 225.3009033203125 323.78192138671875 C 226.0189971923828 323.97845458984375 227.18927001953125 323.4300231933594 229.65927124023438 323.6585998535156 C 232.16552734375 324.1083068847656 234.43838500976562 324.8429260253906 236.13058471679688 325.36932373046875 C 235.29443359375 327.5208740234375 234.7086944580078 329.613037109375 234.61270141601562 330.4471130371094 C 234.76441955566406 332.7655334472656 234.44091796875 335.1499938964844 234.26116943359375 336.7454528808594 C 232.2174530029297 336.3840026855469 230.0719757080078 336.52154541015625 227.61192321777344 337.1288757324219 C 224.16246032714844 337.6928405761719 221.47268676757812 337.4671630859375 218.72032165527344 338.5101013183594"/>
    <path stroke-width="0" fill="rgb(0, 0, 0)" opacity="1.0" d="M 278.6346740722656 396.0627746582031 C 267.0564880371094 395.9607238769531 255.88192749023438 395.33203125 243.7899932861328 393.1095275878906 C 244.14501953125 390.7224426269531 244.59048461914062 387.51312255859375 244.75518798828125 384.4002380371094 C 247.66720581054688 383.508056640625 250.32057189941406 382.6944580078125 253.22943115234375 381.65289306640625 C 254.52371215820312 367.7178955078125 256.17138671875 353.3087158203125 257.8453369140625 339.6814270019531 C 256.21795654296875 338.81658935546875 253.58920288085938 337.7479553222656 251.4031982421875 336.6385192871094 C 251.31883239746094 333.77734375 251.1475830078125 330.57135009765625 250.9273223876953 327.2940673828125 C 261.8681335449219 327.427978515625 272.84716796875 328.0623779296875 284.4870910644531 328.4472961425781 C 284.3685607910156 331.2391662597656 284.3110046386719 334.10137939453125 284.4455871582031 337.146728515625 C 281.2601013183594 338.31170654296875 277.37799072265625 339.57855224609375 273.82012939453125 340.6205139160156 C 272.5823974609375 355.1705627441406 270.95849609375 369.46917724609375 269.430419921875 383.3968505859375 C 272.60430908203125 384.54559326171875 275.7495422363281 385.8194885253906 278.5767517089844 386.7100830078125 C 278.609130859375 389.4414978027344 278.72723388671875 393.0902099609375 278.6346740722656 396.0627746582031"/>
    <path stroke-width="0" fill="rgb(0, 0, 0)" opacity="1.0" d="M 344.6808776855469 376.9176330566406 C 344.1868591308594 379.58441162109375 344.0278625488281 380.5227966308594 343.531494140625 383.4263610839844 C 343.27508544921875 384.63818359375 342.80487060546875 385.92828369140625 342.3294372558594 386.68072509765625 C 340.9798278808594 388.5096740722656 339.4932861328125 389.67041015625 338.7491760253906 390.0150146484375 C 337.5090026855469 391.74761962890625 336.1869201660156 392.8962097167969 334.41314697265625 394.1361389160156 C 332.1046142578125 395.8456726074219 330.1125183105469 397.2518615722656 327.457275390625 398.3898010253906 C 324.3973388671875 398.89093017578125 322.7336730957031 399.13873291015625 318.2188720703125 398.0397644042969 C 316.7420959472656 397.55523681640625 315.8631591796875 397.58905029296875 314.6692810058594 397.45660400390625 C 317.1146240234375 397.26275634765625 314.8133850097656 397.9044494628906 312.90765380859375 398.2806701660156 C 311.6919250488281 398.4486083984375 309.5846862792969 397.7374267578125 307.9539489746094 397.17230224609375 C 305.8070373535156 396.087158203125 303.8340759277344 395.4249572753906 302.3528747558594 395.2413024902344 C 301.5784606933594 395.0257568359375 300.8242492675781 391.86572265625 298.892578125 391.63616943359375 C 298.2781066894531 389.39959716796875 295.0802307128906 388.3640441894531 294.6134338378906 386.6546630859375 C 293.2062072753906 384.552734375 291.85491943359375 381.83575439453125 290.82208251953125 377.97283935546875 C 293.7954406738281 378.52630615234375 296.2525329589844 378.8902587890625 298.4057922363281 379.0104064941406 C 301.5467834472656 379.5346984863281 303.4704284667969 379.8204040527344 307.2220153808594 380.5928649902344 C 310.2073059082031 381.60540771484375 313.5948791503906 383.1448974609375 315.7263488769531 384.1994934082031 C 312.4447937011719 383.71795654296875 314.9981689453125 383.4625549316406 317.46453857421875 383.9217529296875 C 321.3092041015625 384.4338073730469 322.33929443359375 384.4566345214844 323.21014404296875 383.966796875 C 324.8991394042969 383.2360534667969 325.6313171386719 382.52679443359375 327.45416259765625 379.6831359863281 C 330.232177734375 377.2201232910156 327.0904541015625 381.6473388671875 326.9131164550781 379.72265625 C 327.4693298339844 376.31317138671875 327.15374755859375 374.0103759765625 326.4474792480469 373.2453308105469 C 324.91253662109375 372.1712341308594 323.79302978515625 371.6138610839844 322.5403747558594 371.1844177246094 C 321.3003845214844 370.7071228027344 318.24798583984375 369.4723815917969 317.2355651855469 368.7315673828125 C 316.3564758300781 368.47198486328125 314.1172790527344 367.1002502441406 312.7191467285156 366.17413330078125 C 311.3118591308594 365.3779602050781 309.51513671875 364.51080322265625 307.39471435546875 363.1151428222656 C 305.57977294921875 361.92633056640625 303.8203430175781 360.9330749511719 301.8077392578125 359.0244140625 C 299.501953125 357.3356018066406 298.2073974609375 355.69390869140625 297.1257019042969 353.5429992675781 C 296.0722351074219 351.4580993652344 295.3921203613281 349.48095703125 295.24072265625 347.9602966308594 C 294.9862976074219 346.16644287109375 295.08349609375 344.9310302734375 295.0317077636719 346.4735107421875 C 295.15411376953125 343.2319641113281 295.2940979003906 341.7232971191406 296.2022705078125 338.50390625 C 297.0050354003906 336.16827392578125 298.1483459472656 334.6177673339844 299.8599548339844 332.86517333984375 C 301.1363220214844 331.303955078125 302.68890380859375 329.76611328125 304.328857421875 328.786865234375 C 305.6755676269531 328.22601318359375 307.66534423828125 327.407958984375 310.2303161621094 326.7341613769531 C 311.92138671875 325.7794189453125 312.937744140625 325.265625 314.268310546875 324.9288330078125 C 316.7007141113281 324.84033203125 317.83441162109375 324.810302734375 321.009033203125 324.79339599609375 C 324.1387939453125 324.891357421875 325.1170654296875 325.04638671875 326.1241455078125 325.19891357421875 C 329.2590637207031 324.669677734375 331.36810302734375 324.32122802734375 334.8457946777344 324.6570129394531 C 337.6468811035156 324.54827880859375 340.82275390625 325.19158935546875 341.5849304199219 325.2261047363281 C 343.34197998046875 325.5413513183594 346.3074645996094 325.4831237792969 349.3985595703125 325.7232360839844 C 349.06964111328125 329.3860778808594 348.7142333984375 333.6764221191406 347.8519287109375 337.3085021972656 C 345.39404296875 340.7473449707031 343.8146057128906 342.7778625488281 341.7268981933594 345.6610107421875 C 339.7662658691406 343.7079162597656 337.8878479003906 342.2123718261719 336.7799072265625 341.10931396484375 C 335.6488037109375 340.75341796875 334.5913391113281 340.4212646484375 331.5404052734375 339.8638000488281 C 330.38623046875 339.6598815917969 328.532470703125 339.4674072265625 324.3516540527344 339.38031005859375 C 320.92901611328125 338.7429504394531 321.63189697265625 338.7216796875 320.15338134765625 338.87225341796875 C 316.78472900390625 338.7723388671875 315.4493408203125 338.6950988769531 317.5187072753906 338.3174743652344 C 315.7551574707031 338.9914245605469 314.8670349121094 339.6679992675781 314.17999267578125 340.3719787597656 C 313.2781066894531 341.5281677246094 312.80194091796875 342.757080078125 312.83233642578125 343.4706115722656 C 312.8042297363281 345.9526062011719 312.951171875 346.3819580078125 314.4716796875 347.88836669921875 C 315.89593505859375 349.5569763183594 317.2300109863281 350.6376037597656 318.5079650878906 351.50225830078125 C 320.18603515625 352.68829345703125 321.0078430175781 353.1239013671875 322.12945556640625 353.7289733886719 C 323.3159484863281 354.11834716796875 324.5542907714844 354.6900939941406 326.19622802734375 355.1497497558594 C 328.3700256347656 355.9627380371094 330.150146484375 356.7178039550781 332.34759521484375 357.6522521972656 C 333.63995361328125 358.43115234375 334.90679931640625 359.1568298339844 336.4011535644531 359.9925842285156 C 337.46380615234375 360.7320251464844 338.6344909667969 361.3883972167969 339.4293212890625 362.5597839355469 C 341.1170654296875 364.0360107421875 342.1890869140625 365.35736083984375 342.56146240234375 366.4256591796875 C 343.2808837890625 367.7243957519531 344.4771728515625 371.71868896484375 344.5623474121094 372.3980407714844 C 344.6983947753906 373.4576721191406 344.73382568359375 375.2032470703125 344.6808776855469 376.9176330566406"/>
    <path stroke-width="0" fill="rgb(0, 0, 0)" opacity="1.0" d="M 402.3080139160156 410.9677429199219 C 377.0507507324219 409.339599609375 375.31207275390625 397.1123352050781 369.15533447265625 390.33056640625 C 369.9403991699219 383.57391357421875 372.6869812011719 384.7816467285156 357.484130859375 388.9364013671875 C 357.9515075683594 383.1369323730469 375.035888671875 384.6107177734375 359.9850158691406 396.1245422363281 C 361.4464111328125 366.3835754394531 362.440673828125 343.8904113769531 361.6230163574219 330.49078369140625 C 359.3885803222656 337.28387451171875 358.21966552734375 339.89068603515625 360.1478576660156 331.48150634765625 C 367.8001708984375 327.528076171875 361.9844055175781 338.86627197265625 355.1473083496094 333.8133544921875 C 375.462158203125 323.4810791015625 385.71710205078125 319.7458190917969 399.2247619628906 318.33758544921875 C 391.08935546875 325.8190002441406 391.6643371582031 324.4459228515625 394.23089599609375 324.1025390625 C 385.1519775390625 335.6571960449219 380.3857116699219 337.50640869140625 376.88702392578125 343.2294006347656 C 371.0223388671875 355.09063720703125 369.34686279296875 376.8977966308594 367.2647705078125 386.4597473144531 C 366.25140380859375 385.228271484375 382.6396484375 391.39617919921875 378.9610290527344 392.69500732421875 C 383.34185791015625 397.9740295410156 389.3011474609375 395.79949951171875 402.3080139160156 410.9677429199219"/>
    <path stroke-width="0" fill="rgb(0, 0, 0)" opacity="1.0" d="M 476.0160827636719 361.49566650390625 C 476.36444091796875 363.2651062011719 475.35968017578125 366.4358825683594 475.0534362792969 367.5557556152344 C 474.4825439453125 369.8158874511719 473.6759033203125 372.21258544921875 472.1411437988281 375.3506774902344 C 470.8907470703125 377.6773986816406 469.3829345703125 380.3329772949219 468.2087707519531 382.07373046875 C 467.14263916015625 383.5935363769531 465.8220520019531 385.30047607421875 464.9071350097656 386.23944091796875 C 463.22332763671875 388.00091552734375 462.1706237792969 389.0429382324219 460.4740905761719 390.6796569824219 C 459.17938232421875 391.5668640136719 456.04461669921875 393.8900146484375 453.9588928222656 394.81231689453125 C 452.6668701171875 395.5354919433594 450.1694641113281 396.293701171875 448.5757751464844 396.3789367675781 C 442.9866027832031 399.0728759765625 445.5384216308594 398.3283386230469 439.9056701660156 396.8151550292969 C 437.84661865234375 397.6574401855469 435.94793701171875 397.7376403808594 430.11724853515625 396.84796142578125 C 425.74114990234375 396.8213195800781 423.01934814453125 396.8590393066406 419.98675537109375 396.877685546875 C 416.6254577636719 395.5781555175781 415.4255065917969 394.9905700683594 411.873291015625 393.9014587402344 C 410.9651184082031 393.3110656738281 409.1622619628906 391.99566650390625 407.86572265625 390.7330322265625 C 406.5896301269531 389.62548828125 405.12579345703125 387.71051025390625 404.16595458984375 386.22845458984375 C 403.1470031738281 385.08587646484375 401.5790710449219 383.24102783203125 400.5458068847656 380.8824462890625 C 398.9649963378906 378.2037658691406 397.7908630371094 375.39208984375 396.9920654296875 373.4111022949219 C 395.8282775878906 369.4849548339844 395.5867614746094 365.7476501464844 394.815185546875 361.50091552734375 C 394.53790283203125 358.0534362792969 395.52142333984375 354.3557434082031 396.73944091796875 351.6766662597656 C 398.42529296875 347.90655517578125 398.87347412109375 346.8587341308594 398.45782470703125 349.9989013671875 C 399.58636474609375 344.76934814453125 401.0039367675781 342.5055236816406 402.8380126953125 338.97991943359375 C 406.49639892578125 335.4275817871094 408.3681640625 333.9306335449219 411.7084045410156 331.5560302734375 C 413.33349609375 330.355712890625 414.98785400390625 329.32073974609375 417.6485595703125 328.13409423828125 C 421.6894836425781 326.445556640625 423.5626525878906 325.5570373535156 426.6182556152344 324.31903076171875 C 430.43310546875 323.9643859863281 427.2018737792969 324.96368408203125 430.34320068359375 323.5012512207031 C 432.39013671875 323.0338439941406 435.8679504394531 322.9248046875 438.3177795410156 322.82989501953125 C 441.79400634765625 323.0595397949219 442.9814453125 323.1754150390625 447.3399353027344 323.5682373046875 C 448.1564025878906 323.7725524902344 450.8050537109375 324.8482666015625 451.9879455566406 325.30108642578125 C 456.2386474609375 326.74822998046875 458.31549072265625 327.80322265625 460.0718994140625 330.22711181640625 C 461.6455078125 331.5424499511719 462.49072265625 332.1842346191406 464.91046142578125 335.75213623046875 C 466.3365783691406 337.4478759765625 467.69488525390625 339.3663330078125 469.5177307128906 342.2481689453125 C 470.4245910644531 343.7574768066406 471.9717102050781 346.5973815917969 472.7960510253906 348.8506164550781 C 473.3651123046875 350.8462829589844 474.0088195800781 353.3647766113281 473.63507080078125 353.71490478515625 C 474.91748046875 356.296630859375 475.4556579589844 358.7492370605469 476.0160827636719 361.49566650390625M 412.0586242675781 359.75970458984375 C 411.5600280761719 364.1098937988281 411.85009765625 366.6827392578125 412.5859069824219 368.57940673828125 C 413.160400390625 370.1424255371094 414.4812316894531 372.17633056640625 415.5227966308594 373.6510314941406 C 418.0992126464844 378.522705078125 419.4894714355469 380.1946716308594 423.4002685546875 382.6066589355469 C 425.0361328125 383.6374206542969 427.7275085449219 384.5541687011719 430.9320068359375 384.5097351074219 C 433.77130126953125 384.8079528808594 435.5234069824219 384.6912536621094 439.0967712402344 383.24566650390625 C 441.0480041503906 382.8583984375 443.1180725097656 382.8224792480469 445.26409912109375 382.3904113769531 C 446.7173767089844 382.01776123046875 447.51202392578125 381.62664794921875 449.2769470214844 380.06390380859375 C 452.1820373535156 378.08612060546875 454.7398986816406 374.6791076660156 456.8506164550781 371.178955078125 C 457.5653991699219 369.4548034667969 458.48822021484375 366.9898681640625 458.9482421875 364.92431640625 C 459.4161376953125 362.25372314453125 460.27978515625 365.473388671875 460.24383544921875 361.4579772949219 C 460.27294921875 357.8428649902344 459.4924621582031 353.44403076171875 458.7732849121094 351.2680358886719 C 457.1268005371094 348.5234680175781 455.7845153808594 345.8338928222656 454.15289306640625 343.6412658691406 C 452.4993896484375 341.29595947265625 450.1008605957031 339.1522521972656 447.4752502441406 338.11175537109375 C 446.1814880371094 337.4812316894531 442.2359313964844 335.7737121582031 439.09832763671875 335.9629211425781 C 436.2381591796875 336.10296630859375 434.9670104980469 336.6330261230469 430.87744140625 337.863525390625 C 429.94183349609375 337.988037109375 427.5281677246094 338.64654541015625 425.0155029296875 339.4848327636719 C 422.3639221191406 340.3456726074219 417.0854187011719 343.9538269042969 415.4248962402344 346.3162536621094 C 414.33587646484375 348.3695983886719 413.7884521484375 349.855712890625 413.42449951171875 351.1558837890625 C 412.47784423828125 354.14764404296875 411.99853515625 357.99359130859375 412.0586242675781 359.75970458984375"/>
    <path stroke-width="0" fill="rgb(0, 0, 0)" opacity="1.0" d="M 550.4554443359375 397.16229248046875 C 547.9144897460938 396.12640380859375 544.6897583007812 394.78265380859375 543.5180053710938 404.5403137207031 C 540.05322265625 404.4665832519531 536.09814453125 405.03118896484375 528.81396484375 406.07598876953125 C 524.651611328125 399.19085693359375 522.681640625 394.88995361328125 520.1075439453125 390.28509521484375 C 516.184326171875 387.0477600097656 512.1323852539062 382.3121337890625 509.78265380859375 378.2077331542969 C 507.0721130371094 370.3424072265625 505.4744873046875 364.5224304199219 504.1845703125 358.43310546875 C 503.2104797363281 353.9418640136719 502.09820556640625 348.3072509765625 495.7568664550781 352.1161193847656 C 501.5967712402344 342.5355224609375 500.3708190917969 343.5382385253906 501.49609375 341.6174621582031 C 502.2234802246094 347.6258239746094 501.3316650390625 343.5309753417969 502.4901428222656 347.6536560058594 C 502.88580322265625 348.8591613769531 504.2349853515625 351.93218994140625 504.9497985839844 352.85589599609375 C 506.6154479980469 355.0146179199219 508.12689208984375 357.65386962890625 508.6559143066406 358.3222961425781 C 511.95819091796875 363.9267883300781 514.8972778320312 370.5137634277344 517.6543579101562 379.0876770019531 C 519.1033325195312 387.38629150390625 518.892333984375 394.5062255859375 515.7198486328125 402.5286560058594 C 510.7300720214844 401.4396667480469 505.1557922363281 402.0709228515625 497.97857666015625 401.6983337402344 C 498.4048767089844 397.74566650390625 498.637939453125 394.11260986328125 498.5148620605469 392.70556640625 C 497.54437255859375 387.7961120605469 497.25970458984375 386.1142883300781 496.7825012207031 381.72210693359375 C 495.03497314453125 377.6819152832031 494.1746826171875 375.1995849609375 493.1618957519531 372.7684631347656 C 491.8149719238281 370.95147705078125 490.7567138671875 368.6368408203125 489.5812072753906 366.59979248046875 C 488.5831298828125 365.03741455078125 486.5202941894531 361.8987121582031 484.19793701171875 357.1048583984375 C 482.29718017578125 353.07293701171875 481.3175048828125 346.20941162109375 481.8507385253906 340.6292419433594 C 482.5892333984375 335.83984375 482.9935302734375 332.1122131347656 482.8489074707031 330.82867431640625 C 483.69775390625 326.9661560058594 484.8273010253906 323.60455322265625 485.74267578125 321.18292236328125 C 488.72760009765625 322.2522888183594 491.9836120605469 323.0898132324219 496.9668273925781 324.1189880371094 C 503.6278076171875 324.20562744140625 507.924560546875 324.7583312988281 511.60491943359375 325.1756896972656 C 513.8963623046875 329.7933349609375 515.4267578125 333.93310546875 518.728271484375 340.51031494140625 C 520.130126953125 344.289794921875 522.3138427734375 348.984130859375 524.062255859375 353.2597961425781 C 526.2589111328125 357.91937255859375 527.8651733398438 361.52423095703125 530.017822265625 364.74462890625 C 530.9310302734375 366.0517883300781 533.6966552734375 368.4427185058594 542.70556640625 346.7413330078125 C 541.1577758789062 377.6982116699219 539.0152587890625 376.82403564453125 539.340087890625 378.2259521484375 C 539.1697998046875 374.6079406738281 539.4139404296875 372.9017028808594 539.7177734375 371.5080261230469 C 539.6884765625 370.0026550292969 539.6146240234375 367.9909973144531 539.431640625 366.85223388671875 C 539.1290283203125 364.37115478515625 539.5143432617188 358.3899230957031 539.7620239257812 357.2707214355469 C 540.1802978515625 353.3446960449219 540.0358276367188 351.5638427734375 541.2431030273438 347.10748291015625 C 541.9692993164062 345.1741638183594 543.2340698242188 342.0486755371094 544.57568359375 338.8275451660156 C 544.9705810546875 337.5246887207031 546.0751953125 333.4927978515625 546.4789428710938 330.8705749511719 C 547.3433227539062 326.33453369140625 548.0343627929688 322.9070739746094 548.5210571289062 320.2470397949219 C 553.9967041015625 321.4547119140625 559.0302734375 321.7754211425781 565.7452392578125 320.9989013671875 C 566.0270385742188 325.9354553222656 565.8692016601562 330.38153076171875 565.49853515625 332.6011962890625 C 565.5883178710938 337.9985046386719 564.0681762695312 343.59686279296875 561.251708984375 348.9496765136719 C 559.5322265625 352.5565185546875 558.818115234375 354.23577880859375 558.4242553710938 355.4918518066406 C 557.801025390625 357.2645568847656 556.3128051757812 360.8979187011719 555.5712280273438 362.9612121582031 C 555.6255493164062 363.989501953125 556.1027221679688 367.0430603027344 556.1800537109375 370.6322021484375 C 555.75390625 375.3804931640625 555.1279296875 378.4439697265625 553.8191528320312 382.4996032714844 C 552.8097534179688 386.8619689941406 555.0387573242188 385.3048095703125 555.3131713867188 386.9136962890625 C 553.2588500976562 391.9034729003906 551.26953125 395.2296447753906 550.4554443359375 397.16229248046875"/>
    <path stroke-width="0" fill="rgb(0, 0, 0)" opacity="1.0" d="M 103.01083374023438 291.3937072753906 C 93.50933837890625 292.7042541503906 89.86774444580078 291.6502685546875 86.01347351074219 289.7057800292969 C 82.87515258789062 286.5531311035156 80.41866302490234 283.2771911621094 78.23729705810547 278.99798583984375 C 82.93305969238281 271.96636962890625 84.5998764038086 275.4410705566406 77.06288146972656 275.7699890136719 C 73.16091918945312 254.350341796875 61.021644592285156 243.79925537109375 61.91120910644531 225.91978454589844 C 67.48482513427734 223.64132690429688 73.4166488647461 221.21127319335938 78.96556854248047 218.99147033691406 C 84.05665588378906 232.34732055664062 88.61106872558594 246.0262451171875 93.41801452636719 258.746337890625 C 94.7903823852539 262.7440185546875 96.09436798095703 266.7902526855469 97.07379150390625 269.7494812011719 C 97.53728485107422 271.87432861328125 98.3708267211914 272.8716735839844 99.0453872680664 273.27392578125 C 100.29057312011719 274.0263671875 100.72594451904297 276.9306945800781 102.6849136352539 276.4969482421875 C 106.2695083618164 275.81622314453125 108.69867706298828 276.19464111328125 110.42648315429688 277.683349609375 C 111.8778076171875 278.9689636230469 112.6435775756836 280.5971374511719 112.88215637207031 283.17510986328125 C 113.14659881591797 285.1097412109375 112.55412292480469 287.15460205078125 110.7859115600586 289.0687561035156 C 109.1756591796875 290.95703125 106.57564544677734 291.90289306640625 103.01083374023438 291.3937072753906M 81.45489501953125 277.6293029785156 C 73.9432601928711 278.75775146484375 62.63251876831055 282.56201171875 51.43937301635742 278.2552185058594 C 58.398651123046875 272.56866455078125 63.85749053955078 282.66229248046875 55.70352554321289 278.8403625488281 C 57.34630584716797 296.9677429199219 47.67667007446289 297.8448791503906 26.69839859008789 300.36383056640625 C 38.08230972290039 272.8381042480469 40.874603271484375 265.72900390625 50.15800857543945 259.20751953125 C 48.09437942504883 264.3146057128906 52.376102447509766 261.42626953125 54.871246337890625 249.27345275878906 C 44.00447082519531 255.00164794921875 49.997894287109375 253.19264221191406 52.92626190185547 245.1776885986328 C 57.32440185546875 240.6248321533203 64.35895538330078 238.05914306640625 66.67109680175781 232.3771514892578 C 69.40723419189453 231.08787536621094 64.95182037353516 234.4540252685547 68.89354705810547 231.57969665527344 C 71.28558349609375 236.77218627929688 73.83722686767578 242.08221435546875 75.72111511230469 246.94642639160156 C 72.62205505371094 247.88568115234375 69.93267822265625 249.22906494140625 73.3743667602539 242.29647827148438 C 70.85751342773438 244.37762451171875 72.17938232421875 255.47024536132812 74.97119903564453 259.0003356933594 C 72.22467041015625 260.2734069824219 68.63615417480469 260.3914794921875 64.32289123535156 263.77984619140625 C 65.99034881591797 270.5173645019531 63.9041748046875 265.6221618652344 70.31114196777344 271.5262451171875 C 72.47655487060547 273.8809509277344 66.74031829833984 271.6675109863281 59.761844635009766 277.4958801269531 C 54.13646697998047 262.1109924316406 56.405391693115234 258.21624755859375 57.283058166503906 262.2917175292969 C 59.18982696533203 267.5430603027344 64.77069854736328 265.6576843261719 78.17169189453125 267.2176513671875 C 79.38410949707031 270.2303771972656 84.990234375 270.8995056152344 76.19929504394531 266.4466552734375 C 78.45099639892578 265.4117126464844 80.44711303710938 264.2631530761719 82.71862030029297 262.54852294921875 C 83.5427474975586 267.15643310546875 83.09856414794922 271.3321838378906 81.45489501953125 277.6293029785156M 76.79812622070312 227.4549102783203 C 65.46231842041016 231.26849365234375 62.4382438659668 224.2011260986328 68.60665130615234 211.9629669189453 C 87.5376968383789 208.9822998046875 83.87593841552734 204.611328125 82.38106536865234 206.09458923339844 C 84.4521713256836 207.02976989746094 81.05506896972656 207.18331909179688 76.2291259765625 200.6990509033203 C 86.94541931152344 199.61265563964844 91.59141540527344 204.83680725097656 94.47684478759766 175.6501007080078 C 78.41732025146484 190.642578125 76.7306900024414 203.63812255859375 82.16014862060547 214.02731323242188 C 99.2764892578125 205.66139221191406 101.9993896484375 211.29327392578125 91.217041015625 211.15284729003906 C 87.87683868408203 212.2110137939453 84.56382751464844 213.03466796875 81.09600067138672 219.04129028320312 C 80.7264404296875 215.88597106933594 77.42172241210938 220.1372833251953 76.79812622070312 227.4549102783203M 63.891605377197266 229.9523162841797 C 65.32767486572266 222.21214294433594 57.08268737792969 211.94468688964844 52.30194091796875 216.03231811523438 C 65.22648620605469 215.06692504882812 63.243534088134766 218.92449951171875 59.329349517822266 197.79763793945312 C 72.68634796142578 204.649658203125 64.26521301269531 205.73683166503906 62.83462905883789 207.3645782470703 C 60.8278694152832 211.2842559814453 58.32300567626953 199.033447265625 56.993900299072266 191.74249267578125 C 71.14022064208984 203.7471466064453 67.1329116821289 208.89015197753906 62.67375946044922 211.8562774658203 C 66.38121795654297 207.76832580566406 73.14743041992188 199.6952362060547 81.10011291503906 207.21218872070312 C 75.82734680175781 206.55149841308594 73.05533599853516 205.8316650390625 66.81062316894531 210.89688110351562 C 63.1373405456543 210.92803955078125 59.75065231323242 213.8718719482422 63.891605377197266 229.9523162841797"/>
    <path stroke-width="0" fill="rgb(0, 0, 0)" opacity="1.0" d="M 105.88834381103516 291.8009948730469 C 106.09212493896484 286.2939453125 106.30205535888672 281.01898193359375 105.08158111572266 275.98614501953125 C 107.45533752441406 275.75555419921875 108.95670318603516 275.1472473144531 110.00917053222656 273.915771484375 C 110.76570129394531 273.184326171875 111.9292221069336 271.9697265625 113.45829772949219 269.259033203125 C 114.87310028076172 266.74200439453125 117.30799865722656 264.37738037109375 118.81717681884766 262.162353515625 C 120.5956802368164 259.1858825683594 121.72702026367188 257.5176086425781 123.44989776611328 255.01487731933594 C 124.38384246826172 253.7951202392578 126.26850891113281 251.85894775390625 129.39210510253906 250.0225067138672 C 130.59042358398438 249.42967224121094 133.42626953125 248.3253631591797 134.8719024658203 248.0105438232422 C 136.1986083984375 247.46331787109375 138.2720184326172 247.1789093017578 141.9724884033203 247.39309692382812 C 144.36607360839844 247.9144287109375 146.90121459960938 248.92831420898438 149.3189239501953 250.79954528808594 C 150.9589080810547 251.838134765625 152.56161499023438 253.7987823486328 153.4102020263672 255.28175354003906 C 155.0125732421875 257.2698059082031 156.58929443359375 259.4931945800781 158.7517852783203 262.828857421875 C 160.5795440673828 265.0693664550781 162.37442016601562 267.4093933105469 163.90582275390625 269.2492980957031 C 165.3815460205078 270.84375 166.96437072753906 271.97161865234375 168.94834899902344 272.94122314453125 C 171.8976287841797 274.2872009277344 171.67575073242188 276.24530029296875 173.95721435546875 275.42523193359375 C 177.1944122314453 275.05145263671875 179.71182250976562 275.71160888671875 181.11630249023438 277.0836486816406 C 182.4930877685547 278.43011474609375 183.0492706298828 280.18756103515625 183.14500427246094 282.1759948730469 C 183.322021484375 284.3411865234375 182.73672485351562 286.0807189941406 181.20175170898438 287.91778564453125 C 179.87289428710938 289.5263977050781 177.68243408203125 290.4107666015625 173.69610595703125 290.384521484375 C 170.05178833007812 290.2524108886719 167.02178955078125 289.3235168457031 164.1942596435547 287.75445556640625 C 161.51231384277344 286.893310546875 159.05198669433594 285.64251708984375 157.2407989501953 282.8521423339844 C 157.9749298095703 282.2561950683594 158.8282012939453 281.61456298828125 159.82521057128906 280.6066589355469 C 159.18431091308594 282.6863708496094 158.074951171875 284.27044677734375 156.00184631347656 285.4057312011719 C 154.27774047851562 286.714111328125 154.67453002929688 289.00994873046875 152.10317993164062 289.6199645996094 C 148.06321716308594 291.3672790527344 151.04168701171875 290.5715637207031 146.3351593017578 289.49029541015625 C 143.7437286376953 289.88848876953125 140.1120147705078 289.938232421875 139.40463256835938 289.2255554199219 C 136.3430633544922 288.536376953125 133.3065948486328 287.52490234375 131.751953125 286.5984191894531 C 129.65419006347656 284.14312744140625 127.73670196533203 282.0674743652344 126.49946594238281 280.595703125 C 124.22457122802734 284.3382568359375 122.99200439453125 285.4915771484375 120.96363067626953 287.0725402832031 C 119.10245513916016 288.4581604003906 117.58565521240234 289.436767578125 115.36431884765625 290.20513916015625 C 112.72757720947266 290.924560546875 109.66614532470703 292.1588439941406 105.88834381103516 291.8009948730469M 130.96266174316406 269.1287536621094 C 131.9278564453125 270.28997802734375 132.75823974609375 270.98602294921875 133.72000122070312 271.82244873046875 C 134.6856689453125 272.7267150878906 136.10562133789062 273.9718017578125 137.38803100585938 274.91162109375 C 139.18092346191406 276.3329772949219 140.45382690429688 277.0780944824219 141.8223114013672 277.567626953125 C 142.63189697265625 277.92144775390625 143.7030487060547 278.41583251953125 145.81053161621094 278.1531677246094 C 147.7160186767578 278.2773132324219 148.8135223388672 277.8323974609375 149.36154174804688 276.5506286621094 C 149.86135864257812 275.33551025390625 149.68875122070312 273.8741149902344 148.8827667236328 272.458251953125 C 147.5714569091797 270.41259765625 146.71839904785156 269.1522216796875 145.50892639160156 267.6723327636719 C 144.675048828125 266.1238708496094 144.10403442382812 265.00384521484375 143.6995086669922 264.3343200683594 C 142.83438110351562 263.0986328125 142.0936737060547 262.4710388183594 141.534423828125 261.8968811035156 C 140.82681274414062 261.47625732421875 140.19847106933594 261.2038879394531 139.1927032470703 261.1944885253906 C 138.37136840820312 261.09454345703125 137.09170532226562 261.68902587890625 136.43121337890625 261.90679931640625 C 135.56011962890625 262.4665222167969 134.2478485107422 263.8065490722656 133.42881774902344 264.6846008300781 C 132.61172485351562 265.8044128417969 131.80099487304688 267.0640563964844 130.96266174316406 269.1287536621094"/>
    <path stroke-width="0" fill="rgb(0, 0, 0)" opacity="1.0" d="M 176.3565216064453 290.58282470703125 C 175.98284912109375 285.4740295410156 175.67320251464844 280.1131286621094 175.1309356689453 275.1564636230469 C 179.84593200683594 274.599853515625 183.2022247314453 274.5359802246094 185.98846435546875 273.75506591796875 C 188.20713806152344 273.06591796875 186.7921142578125 273.7420654296875 187.8642120361328 271.802001953125 C 188.8280792236328 269.8665466308594 189.76573181152344 266.70428466796875 189.9696502685547 264.2478942871094 C 190.0644989013672 261.64788818359375 190.07301330566406 259.3150939941406 189.59881591796875 256.3937683105469 C 190.06640625 252.8268280029297 189.96783447265625 249.4847412109375 189.69342041015625 247.04959106445312 C 189.03868103027344 244.7208251953125 188.39334106445312 242.501220703125 187.7042694091797 240.1677703857422 C 191.75286865234375 238.9578094482422 197.11524963378906 237.61463928222656 202.33255004882812 237.5956573486328 C 202.5399932861328 239.72476196289062 202.93807983398438 241.9114532470703 203.770263671875 245.13314819335938 C 204.45339965820312 249.00474548339844 204.54383850097656 252.69393920898438 204.38035583496094 255.86582946777344 C 204.7738800048828 259.9698486328125 204.5167999267578 262.4978942871094 203.92025756835938 265.9019470214844 C 203.6988525390625 270.1877746582031 203.09793090820312 273.4032287597656 201.99171447753906 276.3721008300781 C 200.77813720703125 280.1793518066406 199.223876953125 282.88043212890625 196.93731689453125 284.78021240234375 C 194.545166015625 286.8448181152344 191.58180236816406 287.7626037597656 188.59768676757812 288.3826904296875 C 184.8195343017578 289.31463623046875 180.8985595703125 290.0891418457031 176.3565216064453 290.58282470703125M 202.7962188720703 323.5111083984375 C 195.35862731933594 329.03594970703125 199.40550231933594 325.24163818359375 199.8247528076172 316.4905090332031 C 201.29367065429688 317.18695068359375 198.5006103515625 322.2430114746094 197.17803955078125 296.1890869140625 C 196.3899688720703 304.2997131347656 199.87635803222656 304.274658203125 193.5103302001953 302.4446716308594 C 185.30929565429688 298.51837158203125 183.54344177246094 306.5441589355469 191.62454223632812 305.0345764160156 C 200.2111358642578 303.0392150878906 199.24838256835938 313.85015869140625 207.42112731933594 312.8030700683594 C 210.10740661621094 300.31640625 206.7585906982422 303.1851806640625 217.61520385742188 305.42474365234375 C 215.42161560058594 315.8133544921875 210.06564331054688 315.616455078125 202.8032684326172 307.3924560546875 C 191.8143768310547 305.1033935546875 180.72280883789062 323.2268981933594 202.7962188720703 323.5111083984375M 189.2378387451172 330.0278015136719 C 172.8385467529297 323.91058349609375 184.12413024902344 326.6897888183594 191.31640625 304.150390625 C 165.6409912109375 306.87548828125 162.937744140625 309.0646057128906 158.9541015625 305.319580078125 C 178.7729034423828 314.00457763671875 178.11630249023438 309.4024963378906 182.29440307617188 310.45867919921875 C 179.37802124023438 301.1868896484375 175.50559997558594 298.14910888671875 177.75634765625 286.12457275390625 C 189.25137329101562 288.8828125 188.94967651367188 299.5682067871094 189.88970947265625 314.9474792480469 C 201.3125 309.1988525390625 197.58343505859375 305.78826904296875 187.7117919921875 307.64471435546875 C 195.20957946777344 316.37677001953125 194.53692626953125 315.4862365722656 184.9614715576172 313.1932678222656 C 183.048583984375 313.9001770019531 184.69955444335938 311.58642578125 189.2378387451172 330.0278015136719"/>
    <path stroke-width="0" fill="rgb(0, 0, 0)" opacity="1.0" d="M 218.78213500976562 310.3706359863281 C 216.2629852294922 307.0233154296875 213.92327880859375 303.9017028808594 212.0465087890625 301.08697509765625 C 214.3168182373047 299.59136962890625 217.1723175048828 297.3139953613281 219.9757537841797 294.6001281738281 C 223.2421112060547 292.2310485839844 226.42051696777344 290.4129943847656 229.6348876953125 288.4274597167969 C 232.6133575439453 286.6470947265625 235.28176879882812 284.4659423828125 237.9091339111328 281.1449279785156 C 239.70074462890625 279.1459045410156 240.5062255859375 277.452392578125 240.8833770751953 276.07568359375 C 241.31988525390625 274.380126953125 240.57447814941406 271.9694519042969 238.99258422851562 269.1831970214844 C 237.80760192871094 267.1181335449219 236.294921875 264.459716796875 234.93017578125 262.34771728515625 C 237.38075256347656 260.8478698730469 239.73236083984375 259.1224060058594 242.41561889648438 257.08203125 C 243.29592895507812 258.11102294921875 244.11666870117188 259.00921630859375 245.001953125 260.1780700683594 C 246.10739135742188 261.3689270019531 247.22811889648438 263.04046630859375 247.72946166992188 264.0812072753906 C 248.89732360839844 265.9128723144531 249.74354553222656 267.6416931152344 250.52081298828125 269.57147216796875 C 251.5084228515625 272.1924743652344 252.43771362304688 273.7669372558594 253.55703735351562 274.5208740234375 C 254.71282958984375 275.24530029296875 257.7043762207031 275.6925964355469 261.40411376953125 275.72479248046875 C 264.0849304199219 275.77264404296875 267.0613708496094 277.19097900390625 268.1819152832031 278.9477844238281 C 269.42578125 280.7436218261719 269.7544860839844 282.36614990234375 269.509521484375 284.3612060546875 C 269.3207702636719 286.9046325683594 267.9845275878906 289.15496826171875 266.1638488769531 290.4076232910156 C 264.24774169921875 291.7241516113281 261.7777099609375 292.0752868652344 257.7792053222656 291.1158447265625 C 254.96597290039062 290.28729248046875 253.06283569335938 289.2891540527344 251.98561096191406 288.4254455566406 C 250.77737426757812 287.6690979003906 249.36903381347656 286.6133728027344 248.43011474609375 284.481689453125 C 247.68125915527344 283.1509094238281 247.23448181152344 281.6710205078125 247.3040313720703 279.8366394042969 C 248.53268432617188 279.6960144042969 249.56166076660156 279.5633544921875 250.759033203125 279.396240234375 C 250.58670043945312 282.4179992675781 249.31326293945312 285.4155578613281 246.6337127685547 289.0540466308594 C 244.07952880859375 292.12213134765625 240.7948455810547 294.3748779296875 237.4706268310547 296.6423034667969 C 235.0620574951172 298.5413818359375 231.7378692626953 300.8546142578125 228.2593994140625 303.003662109375 C 225.5222930908203 305.3480529785156 222.16339111328125 308.5514831542969 218.78213500976562 310.3706359863281M 228.74867248535156 227.75205993652344 C 231.9440460205078 248.02853393554688 230.01181030273438 244.24510192871094 232.60337829589844 234.50697326660156 C 227.058349609375 230.86920166015625 222.45150756835938 236.28103637695312 214.25180053710938 234.08856201171875 C 224.1390838623047 231.0562744140625 230.49664306640625 231.73635864257812 235.1685333251953 231.1965789794922 C 232.0126495361328 228.2828826904297 232.5638885498047 227.47938537597656 234.54188537597656 228.67373657226562 C 228.2794189453125 228.63290405273438 225.99440002441406 230.48580932617188 227.71917724609375 224.07077026367188 C 229.29617309570312 231.89002990722656 226.49037170410156 234.69528198242188 224.34385681152344 233.41372680664062 C 232.6309051513672 234.51206970214844 231.23948669433594 229.6815185546875 232.54551696777344 235.36898803710938 C 231.60116577148438 228.1837158203125 226.58892822265625 227.37017822265625 228.74867248535156 227.75205993652344"/>
    <path stroke-width="0" fill="rgb(0, 0, 0)" opacity="1.0" d="M 259.8128662109375 291.67510986328125 C 261.2057800292969 286.3851623535156 261.8509216308594 281.1580810546875 262.08447265625 275.73687744140625 C 265.6048583984375 275.9341125488281 268.65087890625 276.6676940917969 270.0958557128906 277.3036193847656 C 271.4040832519531 277.1095886230469 273.5745849609375 277.41766357421875 275.91375732421875 277.70916748046875 C 277.1192626953125 278.1598815917969 278.4842834472656 278.66033935546875 279.3968505859375 275.3042907714844 C 278.1290588378906 274.0537109375 276.3463134765625 272.3662109375 275.0397644042969 270.734619140625 C 273.1391296386719 268.8599548339844 272.35162353515625 267.4210510253906 271.86572265625 266.4440002441406 C 270.269775390625 264.3341064453125 268.7256774902344 261.9102478027344 267.70562744140625 258.694091796875 C 268.24810791015625 254.779296875 269.18756103515625 250.05186462402344 271.3332214355469 247.06028747558594 C 273.9888610839844 242.84182739257812 277.7705078125 240.3210906982422 281.6918029785156 238.99777221679688 C 285.8184509277344 237.48944091796875 288.7525634765625 236.90887451171875 292.919677734375 236.5124053955078 C 296.2757263183594 235.85818481445312 299.8583068847656 236.05540466308594 300.510009765625 238.9359588623047 C 301.50872802734375 241.3434295654297 302.6439208984375 240.4288330078125 304.32440185546875 239.33914184570312 C 307.08233642578125 242.49444580078125 307.07293701171875 246.13258361816406 306.3452453613281 251.36395263671875 C 304.3818054199219 250.93663024902344 303.1719665527344 250.6748809814453 301.0213623046875 250.2122344970703 C 300.70556640625 251.5415496826172 298.3296203613281 251.74896240234375 296.4620361328125 251.7340545654297 C 293.24688720703125 251.9384765625 291.25640869140625 252.33633422851562 289.7944641113281 252.89059448242188 C 287.531982421875 253.52252197265625 286.1959533691406 254.428466796875 285.63946533203125 255.31004333496094 C 284.4069519042969 257.4290771484375 284.0747985839844 258.5591735839844 283.97802734375 257.4390869140625 C 284.1995544433594 258.0158996582031 285.345703125 261.1422119140625 285.7704162597656 262.197265625 C 286.7831726074219 264.6535949707031 287.92779541015625 266.28533935546875 288.9603576660156 267.36566162109375 C 290.04669189453125 268.8756408691406 290.7853698730469 269.4747009277344 291.6922912597656 270.0260314941406 C 292.20318603515625 270.353515625 293.1142883300781 270.7137451171875 294.140869140625 270.8638916015625 C 297.5885314941406 271.4153137207031 293.79718017578125 273.5075378417969 294.5679626464844 273.20965576171875 C 296.1631774902344 271.61077880859375 297.939453125 270.2799987792969 296.4747314453125 270.90765380859375 C 298.30926513671875 269.9952697753906 299.48199462890625 269.5427551269531 302.5201110839844 267.7048645019531 C 308.1645202636719 266.24810791015625 302.1376953125 268.40301513671875 305.3775329589844 267.8998718261719 C 307.3495178222656 268.15252685546875 307.7123718261719 268.4617614746094 310.04449462890625 267.5795593261719 C 310.0007019042969 271.62847900390625 309.82049560546875 274.7406921386719 310.88946533203125 277.7680358886719 C 307.0028381347656 279.49957275390625 305.13763427734375 279.3208923339844 303.1522521972656 281.828369140625 C 299.2170104980469 285.8520812988281 291.9992370605469 290.9855651855469 284.4787292480469 291.93707275390625 C 275.5904541015625 292.9327087402344 268.1126708984375 293.09271240234375 259.8128662109375 291.67510986328125"/>
  </g>
</svg>
