<?xml version="1.0" ?>
<svg xmlns="http://www.w3.org/2000/svg" version="1.1" width="600" height="600">
  <defs/>
  <g>
    <path stroke-width="0" fill="rgb(0, 0, 0)" opacity="1.0" d="M 110.11766052246094 365.6902160644531 C 109.84762573242188 368.8514099121094 109.27466583251953 371.8371276855469 108.16902160644531 374.3109130859375 C 107.1711196899414 377.0514831542969 105.99798583984375 380.0726623535156 105.15155029296875 381.1124267578125 C 103.21611022949219 384.2735900878906 102.18036651611328 385.5219421386719 100.21656036376953 387.7698059082031 C 98.4829330444336 390.03887939453125 97.23291015625 391.4812316894531 94.83936309814453 393.37896728515625 C 92.0055160522461 396.0857238769531 86.6486587524414 399.2865905761719 81.15919494628906 402.37017822265625 C 75.64581298828125 404.2099304199219 73.26319885253906 404.36090087890625 67.93132781982422 403.77032470703125 C 59.23479461669922 401.8065185546875 53.93304443359375 400.30914306640625 52.75535202026367 400.1192321777344 C 50.03935241699219 399.80377197265625 45.03736114501953 399.8380432128906 39.15982437133789 399.4890441894531 C 41.174686431884766 394.5402526855469 41.54917526245117 392.2569885253906 41.99958801269531 390.0823669433594 C 42.43050003051758 384.339599609375 42.79846954345703 381.413330078125 43.075355529785156 375.733642578125 C 44.22983169555664 370.35174560546875 45.517181396484375 365.5964660644531 47.121707916259766 361.32598876953125 C 48.65443801879883 356.2815856933594 49.96403121948242 353.24322509765625 51.22406005859375 350.3152770996094 C 52.05527877807617 348.1644592285156 52.51099395751953 354.7726135253906 53.32697296142578 350.3777160644531 C 54.74104309082031 347.44281005859375 56.23845291137695 343.3463439941406 57.373104095458984 340.2084655761719 C 58.061832427978516 338.272216796875 58.612281799316406 336.3643798828125 59.01378631591797 334.57122802734375 C 59.49835205078125 333.0307312011719 60.48719024658203 330.4156494140625 61.403316497802734 327.6688537597656 C 62.81161880493164 328.1315002441406 64.74372863769531 328.6268615722656 64.76274108886719 327.5469970703125 C 68.04411315917969 327.5635986328125 68.0480728149414 324.3951110839844 69.07778930664062 324.65338134765625 C 67.81005096435547 325.74700927734375 70.55783081054688 325.6762390136719 73.9342269897461 325.25079345703125 C 75.6853256225586 325.25579833984375 78.26979064941406 325.2833557128906 79.71419525146484 325.34735107421875 C 83.33477020263672 325.8699951171875 86.45525360107422 326.5862731933594 89.28363037109375 327.3882751464844 C 92.66559600830078 328.61212158203125 94.36420440673828 329.3539123535156 96.4881362915039 330.89019775390625 C 99.28282165527344 332.70458984375 101.58724212646484 334.5423889160156 103.02780151367188 336.09637451171875 C 104.93318176269531 338.2510986328125 105.90831756591797 339.4156188964844 107.70343780517578 341.93603515625 C 108.56527709960938 343.99664306640625 109.18561553955078 347.5312805175781 109.79434967041016 351.9036560058594 C 111.76097869873047 356.5181884765625 111.53101348876953 361.9540100097656 110.11766052246094 365.6902160644531M 93.50651550292969 363.26544189453125 C 94.38059997558594 360.5382385253906 94.92031860351562 358.6739807128906 95.16224670410156 353.8092346191406 C 95.08419799804688 352.7229919433594 94.49276733398438 351.0793762207031 94.00308990478516 350.0721435546875 C 92.26406860351562 346.78631591796875 89.8692398071289 344.26123046875 87.40406036376953 342.5708923339844 C 85.25883483886719 341.2368469238281 82.69693756103516 340.40936279296875 79.67877197265625 340.5164489746094 C 76.93121337890625 340.31268310546875 75.12435150146484 340.18463134765625 73.15758514404297 340.1289367675781 C 72.37541961669922 343.5721435546875 71.24443817138672 348.17138671875 70.3912124633789 352.09423828125 C 70.13489532470703 355.39117431640625 69.5301742553711 350.74267578125 67.36846160888672 356.6463317871094 C 65.79254913330078 360.0730895996094 64.03164672851562 364.3304748535156 63.053653717041016 368.9022216796875 C 62.15510940551758 373.5921630859375 61.517940521240234 377.8810119628906 61.08086013793945 384.8707580566406 C 64.92024993896484 385.2209777832031 68.33516693115234 385.4623107910156 70.61627960205078 385.6341552734375 C 74.07923126220703 385.64019775390625 76.63021087646484 385.25433349609375 79.46173858642578 384.59344482421875 C 82.1762466430664 383.2375183105469 85.00907135009766 380.37188720703125 86.70489501953125 378.12188720703125 C 89.44979095458984 375.327880859375 90.55243682861328 372.89141845703125 91.10971069335938 371.1954040527344 C 92.24695587158203 368.1661682128906 92.84855651855469 366.2331237792969 93.50651550292969 363.26544189453125"/>
    <path stroke-width="0" fill="rgb(0, 0, 0)" opacity="1.0" d="M 168.2991180419922 400.90191650390625 C 165.9571533203125 401.40740966796875 164.6917724609375 399.96795654296875 161.37588500976562 396.5255126953125 C 159.2875213623047 400.78692626953125 154.04689025878906 400.2278747558594 155.16506958007812 400.4064025878906 C 153.22265625 400.2781982421875 151.76332092285156 400.3840637207031 159.60787963867188 398.8603210449219 C 154.44873046875 398.5714416503906 150.61920166015625 399.0448303222656 148.0674285888672 398.90765380859375 C 145.1805877685547 399.3260192871094 141.53042602539062 399.1979675292969 138.30860900878906 399.77667236328125 C 141.05770874023438 400.70184326171875 139.23367309570312 401.5387268066406 137.07748413085938 402.5667724609375 C 133.58477783203125 402.6861877441406 129.5248260498047 400.5930480957031 128.31417846679688 399.8251647949219 C 126.57107543945312 398.91204833984375 126.3813247680664 398.6094665527344 124.18403625488281 397.1153259277344 C 125.87499237060547 395.1086730957031 124.41093444824219 394.0345764160156 125.38814544677734 392.3873291015625 C 127.13493347167969 389.54901123046875 124.16860961914062 388.9572448730469 124.33285522460938 388.4167785644531 C 124.51150512695312 387.2723388671875 125.17302703857422 381.3265686035156 124.60880279541016 383.20343017578125 C 126.43577575683594 378.94049072265625 125.74595642089844 382.0720520019531 126.10050201416016 379.9297180175781 C 126.23189544677734 376.94903564453125 127.03852844238281 373.6379699707031 127.55984497070312 371.8977355957031 C 127.97784423828125 370.47198486328125 128.4968719482422 369.0307922363281 129.0836181640625 366.67279052734375 C 129.770263671875 369.4358215332031 128.91709899902344 367.3953552246094 128.08961486816406 366.07366943359375 C 126.73040771484375 363.6810607910156 125.94170379638672 361.6601257324219 125.81539154052734 358.0435791015625 C 125.82955932617188 355.5975341796875 127.8685531616211 357.4158935546875 127.37672424316406 355.87274169921875 C 127.0124282836914 354.6732177734375 128.18492126464844 357.04266357421875 126.82779693603516 354.2607727050781 C 125.9503402709961 352.1573181152344 126.52483367919922 348.75213623046875 127.2582015991211 344.644775390625 C 128.41436767578125 342.2556457519531 127.84244537353516 343.97308349609375 127.76905059814453 342.7684020996094 C 127.61473083496094 340.6039123535156 127.41596221923828 339.0868225097656 127.18084716796875 337.3640441894531 C 127.25514221191406 336.177490234375 127.78348541259766 334.1430358886719 128.35855102539062 332.0146789550781 C 130.19688415527344 332.0351867675781 130.03564453125 329.52984619140625 130.5394287109375 329.4870910644531 C 130.1861114501953 327.4926452636719 129.72781372070312 325.6648254394531 129.10894775390625 322.7488098144531 C 132.48825073242188 322.96905517578125 134.8611297607422 323.1506652832031 136.94602966308594 322.9382629394531 C 139.24240112304688 323.1663818359375 139.2627410888672 321.314208984375 139.95529174804688 321.5655517578125 C 141.9947967529297 321.736083984375 143.6866912841797 322.0245666503906 145.8919677734375 322.404296875 C 140.99172973632812 322.3677978515625 143.4614715576172 322.010498046875 145.27279663085938 321.7250061035156 C 148.7546844482422 321.82830810546875 150.8099365234375 321.7530212402344 152.83493041992188 322.3915710449219 C 155.3476104736328 324.0742492675781 157.5648956298828 324.9974365234375 159.552734375 325.8007507324219 C 161.14596557617188 326.1055908203125 162.54649353027344 326.5404052734375 164.6079559326172 329.8341369628906 C 164.9420166015625 333.9382629394531 166.35989379882812 333.4515686035156 167.3579864501953 333.0921325683594 C 167.78363037109375 333.9010314941406 168.2292938232422 334.673583984375 168.76234436035156 336.23870849609375 C 171.06112670898438 335.2331848144531 172.66409301757812 334.7839660644531 177.11880493164062 332.41204833984375 C 172.06298828125 333.0626220703125 174.27247619628906 334.98248291015625 173.77235412597656 335.08123779296875 C 169.4617462158203 336.4209289550781 169.38150024414062 336.86993408203125 168.9888153076172 338.21746826171875 C 170.4405517578125 338.3860778808594 170.65704345703125 339.2237548828125 169.63299560546875 340.7581787109375 C 171.16867065429688 342.7784729003906 172.9877166748047 345.4283447265625 167.7786865234375 349.0528869628906 C 156.1713104248047 347.4137268066406 153.9061279296875 346.5242919921875 149.96151733398438 341.8708801269531 C 148.1938934326172 340.66278076171875 146.5967559814453 339.2203369140625 145.47039794921875 338.73382568359375 C 148.25558471679688 339.8484802246094 146.23634338378906 339.28253173828125 148.4495086669922 339.71282958984375 C 146.27761840820312 339.3447570800781 144.887939453125 339.6273498535156 143.451171875 339.6168518066406 C 143.72381591796875 337.5548095703125 143.8249969482422 338.91705322265625 144.15176391601562 340.89532470703125 C 143.91082763671875 343.2823486328125 143.87596130371094 344.3257141113281 144.02207946777344 346.087890625 C 143.578125 348.0037841796875 143.4192352294922 348.529052734375 142.9777374267578 351.33453369140625 C 142.69676208496094 352.3162536621094 141.82147216796875 346.90911865234375 142.5298309326172 348.6058044433594 C 144.3151092529297 348.2525634765625 146.32186889648438 347.8449401855469 148.23777770996094 347.30633544921875 C 149.41598510742188 346.7601013183594 154.06422424316406 343.75531005859375 157.38912963867188 344.2650451660156 C 159.0686798095703 344.6280517578125 161.79698181152344 345.389892578125 167.34622192382812 346.2087707519531 C 169.384521484375 346.5834045410156 169.67410278320312 346.5685119628906 173.5781707763672 345.5174865722656 C 173.9164581298828 347.86737060546875 174.07122802734375 350.28155517578125 173.50453186035156 352.3352355957031 C 173.81382751464844 352.5629577636719 173.5726776123047 354.91064453125 172.9633026123047 357.3043212890625 C 172.0006103515625 358.48553466796875 171.0697021484375 359.7442932128906 170.24375915527344 360.2156066894531 C 169.33985900878906 360.5279541015625 168.31175231933594 359.09161376953125 168.16517639160156 359.9619140625 C 164.88238525390625 360.12908935546875 163.16409301757812 356.57025146484375 159.88485717773438 359.2134704589844 C 158.60562133789062 361.9751281738281 157.10025024414062 361.65545654296875 152.91351318359375 359.2600402832031 C 149.75331115722656 358.0706481933594 154.83502197265625 358.4153747558594 151.748046875 359.1827392578125 C 147.49176025390625 359.14007568359375 145.9136199951172 359.33990478515625 143.9721221923828 359.44842529296875 C 145.6285858154297 361.6824035644531 146.6046142578125 364.4956359863281 146.62838745117188 369.1754455566406 C 146.2158660888672 372.4411926269531 145.65646362304688 373.62469482421875 144.32516479492188 376.252685546875 C 142.66676330566406 379.46112060546875 142.48768615722656 380.0164489746094 142.81378173828125 383.1630859375 C 142.7999267578125 383.8905944824219 142.0419158935547 385.7840270996094 139.60708618164062 389.4524841308594 C 142.26194763183594 389.431640625 145.34307861328125 388.373779296875 148.82872009277344 387.0587158203125 C 149.84774780273438 386.5627136230469 155.17776489257812 383.6763000488281 142.9013671875 382.1380920410156 C 146.5782470703125 377.4064636230469 151.7995147705078 375.90423583984375 154.92507934570312 375.01947021484375 C 159.26597595214844 376.0163879394531 162.22109985351562 377.10552978515625 163.54248046875 377.4500427246094 C 161.3900909423828 382.08544921875 161.8837127685547 382.3167724609375 161.51541137695312 383.0048522949219 C 162.11439514160156 383.7158508300781 161.57827758789062 386.6129150390625 163.50112915039062 386.56939697265625 C 163.68319702148438 387.59130859375 162.1566162109375 388.3667907714844 165.7747039794922 391.46142578125 C 166.2501983642578 391.85302734375 168.1495361328125 392.20477294921875 175.1722412109375 394.0223693847656 C 173.6905517578125 393.63751220703125 172.0111083984375 397.109375 171.08334350585938 399.3462829589844 C 170.24790954589844 400.8680725097656 168.1719970703125 399.598876953125 168.2991180419922 400.90191650390625"/>
    <path stroke-width="0" fill="rgb(0, 0, 0)" opacity="1.0" d="M 218.23953247070312 337.06561279296875 C 215.70101928710938 337.2256774902344 213.3610382080078 338.004150390625 211.72882080078125 338.95758056640625 C 209.98358154296875 340.046630859375 208.58103942871094 341.5601806640625 206.4484405517578 344.32305908203125 C 203.92919921875 346.8710632324219 202.6179656982422 348.6490478515625 201.48345947265625 351.2061462402344 C 199.57635498046875 355.03094482421875 198.79910278320312 357.8316650390625 198.7947540283203 358.5965881347656 C 198.93312072753906 362.0613098144531 199.25244140625 364.869140625 198.6359405517578 363.5601806640625 C 200.13909912109375 366.0841064453125 202.12417602539062 368.95245361328125 203.23497009277344 371.3120422363281 C 205.2364959716797 374.390380859375 207.8331298828125 377.5016784667969 210.40383911132812 380.0291748046875 C 211.59378051757812 381.16632080078125 213.055419921875 382.3417663574219 214.43862915039062 383.07598876953125 C 215.65821838378906 383.5394287109375 218.22921752929688 384.0176086425781 222.16119384765625 384.9675598144531 C 223.4954376220703 385.1793212890625 225.98934936523438 385.13616943359375 229.26559448242188 385.2412109375 C 230.10472106933594 385.1522521972656 231.89108276367188 385.0005187988281 233.77134704589844 385.2353210449219 C 235.34683227539062 385.0447692871094 236.6868133544922 384.884765625 238.15367126464844 384.6944580078125 C 237.9615478515625 386.6146240234375 237.73878479003906 388.6358337402344 237.51060485839844 391.1168518066406 C 237.08924865722656 393.4554138183594 237.02862548828125 395.09063720703125 236.90292358398438 398.2756652832031 C 234.768310546875 398.6942138671875 233.04591369628906 399.1720275878906 230.87673950195312 399.80755615234375 C 228.72068786621094 399.9725341796875 226.16705322265625 399.55743408203125 223.63922119140625 399.0384826660156 C 226.55612182617188 399.1811218261719 225.11175537109375 399.3138427734375 222.84490966796875 399.3877868652344 C 220.358642578125 399.0201721191406 218.36695861816406 398.34637451171875 216.30197143554688 397.60394287109375 C 214.02963256835938 397.0855407714844 211.5621795654297 396.65277099609375 210.23651123046875 396.22216796875 C 208.59112548828125 395.52679443359375 206.67323303222656 394.7243957519531 205.27484130859375 394.0448303222656 C 203.36087036132812 392.8477783203125 200.3209991455078 390.4646911621094 198.53683471679688 388.9277038574219 C 197.10537719726562 387.6837463378906 195.58360290527344 385.7748107910156 194.65286254882812 384.3380126953125 C 192.6376495361328 382.43853759765625 191.8522186279297 381.3770751953125 190.5920867919922 378.28216552734375 C 189.01812744140625 375.98345947265625 187.98818969726562 374.4492492675781 186.4516143798828 371.887939453125 C 185.0166473388672 369.8267822265625 184.70309448242188 368.2547302246094 184.55003356933594 366.3429260253906 C 184.4098663330078 363.57708740234375 184.00054931640625 360.6710205078125 183.9503173828125 358.973876953125 C 184.04405212402344 355.6493835449219 184.51693725585938 354.0129089355469 185.239990234375 351.80657958984375 C 185.77320861816406 350.0571594238281 186.68402099609375 347.2547607421875 187.3911895751953 345.4796447753906 C 188.3582305908203 343.0924072265625 189.43008422851562 341.4368591308594 190.6513671875 339.8600769042969 C 191.7976837158203 338.07232666015625 192.84683227539062 336.75970458984375 194.4661407470703 334.8962707519531 C 195.7527618408203 333.4770812988281 197.00643920898438 332.3940124511719 198.92372131347656 331.0201416015625 C 200.45953369140625 329.8650817871094 202.40394592285156 328.8739318847656 203.87501525878906 328.2644348144531 C 205.41357421875 327.3843078613281 207.95767211914062 325.86370849609375 209.56491088867188 325.4514465332031 C 212.02032470703125 324.8251037597656 214.22930908203125 324.4483642578125 217.2821807861328 324.2258605957031 C 219.63735961914062 324.10833740234375 222.2947235107422 323.98773193359375 224.71546936035156 324.288818359375 C 226.9012908935547 325.0526123046875 225.69659423828125 324.75689697265625 222.76417541503906 323.89483642578125 C 224.76385498046875 323.3651123046875 227.31100463867188 323.3894958496094 229.55801391601562 323.7318115234375 C 231.32957458496094 324.0085144042969 233.2199249267578 324.2890625 235.06910705566406 324.62359619140625 C 234.83358764648438 327.015625 234.43028259277344 329.1777648925781 234.27072143554688 330.90753173828125 C 233.94773864746094 332.2002868652344 233.95040893554688 334.18255615234375 234.2486572265625 336.8183288574219 C 230.5338592529297 337.01776123046875 226.76942443847656 337.24969482421875 224.48109436035156 337.22137451171875 C 222.78857421875 337.3210144042969 220.74630737304688 336.76092529296875 218.23953247070312 337.06561279296875"/>
    <path stroke-width="0" fill="rgb(0, 0, 0)" opacity="1.0" d="M 276.8458557128906 394.67352294921875 C 266.20794677734375 395.5419921875 254.8603515625 395.2136535644531 242.45132446289062 396.1443786621094 C 242.2928009033203 391.4839172363281 242.7640838623047 387.2139892578125 243.15975952148438 383.6345520019531 C 246.30755615234375 382.6485900878906 249.50338745117188 381.620361328125 252.69552612304688 380.55987548828125 C 255.91334533691406 367.1999816894531 257.40472412109375 354.4193115234375 258.2972717285156 340.712646484375 C 255.66725158691406 339.2713928222656 253.52108764648438 338.1405334472656 250.26254272460938 336.7734375 C 250.311767578125 332.9444580078125 250.6796417236328 329.29364013671875 251.17420959472656 325.51513671875 C 262.83148193359375 327.5389099121094 274.7297058105469 328.9095153808594 286.08837890625 330.8230285644531 C 285.67327880859375 333.8399658203125 285.2845153808594 336.7365417480469 284.8396911621094 339.9861145019531 C 281.38604736328125 340.6738586425781 278.0937194824219 341.4129333496094 275.37347412109375 342.03631591796875 C 274.05926513671875 356.0428161621094 271.43658447265625 370.3098449707031 268.402587890625 384.0215759277344 C 270.66229248046875 384.9210510253906 272.9253845214844 385.5541687011719 276.0582580566406 386.4448547363281 C 276.2944030761719 389.3912353515625 276.69390869140625 392.02301025390625 276.8458557128906 394.67352294921875"/>
    <path stroke-width="0" fill="rgb(0, 0, 0)" opacity="1.0" d="M 344.4287109375 376.6357116699219 C 344.2619934082031 379.8490905761719 344.13409423828125 380.94757080078125 343.227783203125 383.6616516113281 C 343.0030517578125 384.58843994140625 342.6885986328125 385.58099365234375 341.84393310546875 387.2159423828125 C 340.81591796875 388.6758117675781 339.9227600097656 389.6787109375 338.9471740722656 390.5154724121094 C 337.64044189453125 391.7445068359375 336.25921630859375 393.15240478515625 334.51422119140625 394.4034118652344 C 332.1485595703125 395.6083984375 329.6771240234375 396.56494140625 326.5349426269531 397.2324523925781 C 324.55352783203125 398.1264953613281 321.2603454589844 399.0143127441406 319.8013000488281 398.8861389160156 C 316.45806884765625 398.6273193359375 315.18408203125 398.4388732910156 312.3399353027344 397.6792297363281 C 315.5106506347656 397.6719665527344 314.60162353515625 397.8269958496094 313.2061767578125 397.8731689453125 C 312.3326416015625 397.944091796875 309.9534912109375 397.40228271484375 307.8994140625 397.0687561035156 C 306.2108154296875 396.5162353515625 303.8575439453125 395.69793701171875 301.55859375 395.1343994140625 C 300.2891845703125 394.82855224609375 299.6423645019531 392.9316711425781 297.05535888671875 392.94390869140625 C 295.8559265136719 390.56109619140625 293.4922790527344 390.3540954589844 292.8363342285156 388.89593505859375 C 290.9844970703125 385.6378173828125 289.12591552734375 382.485107421875 287.8287658691406 377.8300476074219 C 291.6549072265625 378.83038330078125 293.53631591796875 379.0711975097656 296.41290283203125 379.1959533691406 C 300.4114990234375 378.1294860839844 302.2969970703125 377.8370361328125 307.1951904296875 378.9176940917969 C 310.7135009765625 380.3285827636719 313.96673583984375 381.9554443359375 316.65533447265625 383.4073181152344 C 312.6766052246094 382.6695556640625 314.0445251464844 382.5052490234375 317.67138671875 383.4447021484375 C 319.8619384765625 384.1153259277344 321.3788757324219 384.11883544921875 324.1972351074219 383.2886962890625 C 325.4057922363281 382.73431396484375 326.1905517578125 382.0249938964844 327.4000244140625 380.52691650390625 C 328.4178161621094 378.9534606933594 327.1842346191406 380.7749938964844 327.0827331542969 377.8271484375 C 327.3923034667969 376.052978515625 327.1221618652344 374.6860046386719 325.9832763671875 373.57098388671875 C 324.8964538574219 372.2471923828125 323.7034606933594 371.5668640136719 321.97528076171875 370.8729248046875 C 321.0959167480469 370.5003967285156 319.4595947265625 369.8517761230469 317.84442138671875 369.41552734375 C 315.8581237792969 368.75897216796875 313.6560363769531 367.7226257324219 312.3800964355469 367.0185546875 C 310.3998107910156 366.0281677246094 308.7760925292969 365.2670593261719 306.51776123046875 363.7701721191406 C 304.8810729980469 362.6085510253906 303.3069152832031 361.08489990234375 301.2394714355469 358.9256896972656 C 299.99884033203125 357.7626953125 298.2151184082031 355.3841552734375 297.11029052734375 353.18408203125 C 296.0862731933594 350.9915771484375 295.71978759765625 349.36981201171875 295.7212829589844 347.6541748046875 C 295.6956481933594 345.462158203125 296.2412109375 341.1598815917969 295.6502685546875 343.83734130859375 C 295.9310607910156 342.166259765625 296.045166015625 340.79461669921875 296.303466796875 339.4903564453125 C 297.35711669921875 336.2680358886719 298.1518859863281 334.85479736328125 299.7380676269531 333.38140869140625 C 301.64556884765625 331.1483154296875 302.6533508300781 330.3078308105469 303.9792785644531 329.49603271484375 C 305.32757568359375 327.9179992675781 307.1368103027344 327.25628662109375 309.468505859375 326.8358459472656 C 310.9399108886719 326.3022155761719 311.38751220703125 326.0058898925781 313.2406005859375 325.1335754394531 C 317.40423583984375 325.1570129394531 319.5798034667969 325.1821594238281 320.8786926269531 325.01007080078125 C 322.9561767578125 324.4563293457031 324.4916076660156 324.478515625 326.66290283203125 324.8412780761719 C 330.0173645019531 324.7967834472656 331.4837951660156 324.9383239746094 335.2835998535156 325.0652770996094 C 339.8513488769531 325.5333557128906 343.5448303222656 325.9806823730469 346.03466796875 326.5513610839844 C 348.3850402832031 327.081298828125 349.9679870605469 327.5135498046875 351.96295166015625 328.2178039550781 C 351.4443054199219 330.5777282714844 350.8244934082031 333.4791564941406 350.08026123046875 337.0099792480469 C 347.5079650878906 340.9052429199219 345.78369140625 342.7978210449219 344.0801086425781 344.43768310546875 C 342.7283020019531 343.0123291015625 341.4915466308594 341.72955322265625 339.2240905761719 339.416748046875 C 337.70458984375 342.80035400390625 333.722412109375 341.5028991699219 332.31610107421875 341.2493896484375 C 329.1058349609375 340.3653564453125 326.3934020996094 339.8749694824219 324.9972229003906 339.845703125 C 322.0756530761719 339.7723083496094 325.3351745605469 339.32989501953125 323.9950866699219 339.7355651855469 C 319.6777648925781 340.1162414550781 315.1620178222656 339.8430480957031 318.92974853515625 338.89764404296875 C 316.74432373046875 339.8992919921875 314.4380187988281 340.6218566894531 313.8117980957031 341.84991455078125 C 313.0722961425781 342.4720458984375 313.0709228515625 342.9551086425781 312.5390625 345.4833679199219 C 312.57513427734375 345.8045654296875 312.85467529296875 346.95733642578125 314.09466552734375 347.9277038574219 C 315.43377685546875 349.39141845703125 316.7258605957031 350.5158996582031 318.1889953613281 351.523681640625 C 319.6697082519531 352.1941223144531 320.9573974609375 352.9187316894531 322.0003967285156 353.4826965332031 C 323.1373596191406 353.98846435546875 324.395751953125 354.5335998535156 326.35443115234375 355.3851623535156 C 328.42041015625 355.96197509765625 329.84735107421875 356.52447509765625 331.25628662109375 357.38824462890625 C 332.8303527832031 358.4308776855469 334.17291259765625 359.2125549316406 335.7900390625 359.98968505859375 C 336.7901306152344 360.525390625 338.6296081542969 362.3064270019531 339.5411682128906 363.1427001953125 C 340.9010009765625 364.3695983886719 341.6986999511719 365.4853515625 342.6582336425781 367.3499450683594 C 343.51397705078125 368.9653625488281 344.0574035644531 370.9384765625 344.3450622558594 372.4740905761719 C 344.329833984375 374.30108642578125 344.6112976074219 375.6509094238281 344.4287109375 376.6357116699219"/>
    <path stroke-width="0" fill="rgb(0, 0, 0)" opacity="1.0" d="M 414.9302673339844 410.03057861328125 C 381.4200439453125 406.5924072265625 380.1938171386719 390.95281982421875 374.1094970703125 384.5020446777344 C 370.4742431640625 375.7589111328125 366.53509521484375 374.85882568359375 353.4989318847656 385.3869934082031 C 354.2741394042969 384.7243957519531 377.1870422363281 388.1590881347656 366.48931884765625 404.5433349609375 C 361.9936828613281 367.7032470703125 359.76068115234375 344.48577880859375 360.09246826171875 329.5258483886719 C 354.1253356933594 332.7444152832031 361.0508117675781 334.1159362792969 357.44146728515625 330.793701171875 C 365.96875 333.8197326660156 363.3305358886719 345.4731750488281 352.2137451171875 340.94378662109375 C 371.40283203125 321.62005615234375 387.5831298828125 322.92987060546875 401.0679626464844 314.9312438964844 C 390.8074035644531 326.1944885253906 390.4391174316406 326.22418212890625 398.1875305175781 331.1533508300781 C 391.9779357910156 342.0778503417969 381.445068359375 339.1318664550781 380.2022705078125 345.3830871582031 C 375.7052307128906 360.289794921875 371.6085205078125 379.5455627441406 369.0233459472656 386.3860778808594 C 362.7665710449219 390.8143615722656 373.5780944824219 399.67333984375 376.89410400390625 390.6591491699219 C 388.7021789550781 391.41265869140625 395.94146728515625 389.7078857421875 414.9302673339844 410.03057861328125"/>
    <path stroke-width="0" fill="rgb(0, 0, 0)" opacity="1.0" d="M 475.1038513183594 362.2227783203125 C 475.2344970703125 363.10858154296875 474.6973571777344 364.32196044921875 473.6863708496094 366.64892578125 C 473.17626953125 368.5487365722656 472.4925231933594 372.0526123046875 470.6175537109375 375.24920654296875 C 469.9324645996094 376.9505615234375 469.0216369628906 379.1139831542969 468.30133056640625 381.21124267578125 C 467.4830017089844 383.11773681640625 466.4862976074219 384.427001953125 464.4466247558594 385.7958068847656 C 463.4512939453125 386.9606628417969 462.3014831542969 388.6247863769531 461.17718505859375 389.7183837890625 C 458.98602294921875 391.4578857421875 457.212646484375 392.4472961425781 454.68487548828125 393.8435974121094 C 451.851806640625 395.11431884765625 449.531494140625 396.0493469238281 447.2127685546875 396.44281005859375 C 444.4875183105469 396.8730773925781 445.2418518066406 396.6798095703125 440.7186584472656 397.5311279296875 C 436.7056884765625 398.88629150390625 433.0688781738281 399.3199157714844 427.82086181640625 398.14862060546875 C 425.57818603515625 397.9430847167969 423.2738342285156 397.6952209472656 419.71270751953125 397.5478515625 C 416.93804931640625 396.4898376464844 415.3851623535156 395.76123046875 413.31317138671875 394.95562744140625 C 410.1553955078125 393.5325012207031 408.8171691894531 392.6593017578125 407.32763671875 391.5163269042969 C 406.1592712402344 390.76422119140625 404.8622741699219 389.6381530761719 402.72772216796875 387.0252685546875 C 401.7272033691406 385.906494140625 400.1849670410156 383.34197998046875 398.2542419433594 380.6785888671875 C 397.37786865234375 379.0748596191406 395.88653564453125 375.5052795410156 395.9029235839844 371.1327819824219 C 394.6143493652344 368.2735595703125 394.0207824707031 365.9517517089844 393.9176025390625 361.8401794433594 C 394.6394348144531 356.8672180175781 395.4258728027344 353.9215087890625 396.4077453613281 351.8919677734375 C 397.1374206542969 350.47198486328125 397.9620666503906 347.83013916015625 397.03668212890625 349.772705078125 C 397.5467529296875 345.1387939453125 399.8886413574219 341.40771484375 401.913818359375 338.04779052734375 C 405.1101379394531 334.07757568359375 407.4012756347656 332.56866455078125 410.62957763671875 331.3218688964844 C 412.719482421875 329.9555969238281 414.181396484375 329.1333312988281 416.7628479003906 328.3286437988281 C 420.96685791015625 326.4675598144531 424.090087890625 325.6144714355469 428.5414123535156 324.8719787597656 C 431.2998962402344 324.8821716308594 428.9903869628906 324.99066162109375 431.0533142089844 324.74261474609375 C 433.78729248046875 323.92095947265625 435.6816711425781 323.68951416015625 438.1421203613281 323.0695495605469 C 441.4516906738281 322.97406005859375 444.34521484375 323.1531677246094 446.3025817871094 323.92730712890625 C 448.0843811035156 324.3724670410156 450.70111083984375 324.87652587890625 452.3740539550781 325.4560852050781 C 454.7107849121094 326.0799560546875 458.3472900390625 328.4132080078125 460.0089111328125 330.0496520996094 C 462.2012939453125 331.99676513671875 463.1743469238281 332.9412841796875 465.5027770996094 335.41143798828125 C 467.16815185546875 337.4703063964844 468.3184814453125 339.7499084472656 469.9798278808594 342.9473571777344 C 471.0223083496094 344.7801818847656 472.031982421875 347.07354736328125 472.412353515625 348.1541442871094 C 473.58526611328125 350.5997314453125 474.2637023925781 353.75457763671875 474.2845764160156 355.6360778808594 C 474.4796447753906 357.649169921875 474.9159240722656 360.03839111328125 475.1038513183594 362.2227783203125M 409.9306335449219 362.27166748046875 C 409.753173828125 364.8842468261719 409.8077392578125 366.04852294921875 410.3974304199219 369.06646728515625 C 411.3011474609375 371.08404541015625 412.4800720214844 373.3772277832031 413.2135009765625 374.37158203125 C 415.3560791015625 377.38671875 418.61297607421875 379.9165344238281 422.5125427246094 381.4400939941406 C 424.3650817871094 382.29620361328125 428.5706787109375 383.07659912109375 430.574462890625 383.6219787597656 C 433.2389221191406 384.5965576171875 434.7256164550781 384.4407653808594 438.0971374511719 383.9666442871094 C 440.6556701660156 383.64312744140625 443.0643005371094 383.40399169921875 444.41168212890625 382.9352722167969 C 445.38275146484375 382.7019958496094 448.5332336425781 381.74420166015625 450.254150390625 380.3377685546875 C 452.775146484375 378.7858581542969 455.5347595214844 375.9027404785156 457.0795593261719 371.15869140625 C 458.6453857421875 368.04071044921875 459.39208984375 366.313232421875 460.06146240234375 362.9472961425781 C 460.36944580078125 360.1667175292969 460.792724609375 365.8330078125 460.4999694824219 362.59185791015625 C 460.3812561035156 357.60321044921875 459.7455139160156 353.48590087890625 458.52496337890625 351.6759338378906 C 456.4674072265625 348.4893493652344 455.26776123046875 345.6798095703125 453.7204284667969 343.5565490722656 C 452.70794677734375 341.5575256347656 450.9476318359375 339.9107666015625 448.2383728027344 338.5626525878906 C 446.06329345703125 337.0735168457031 442.6927795410156 336.6566162109375 440.29058837890625 336.5873718261719 C 435.9396667480469 336.8742370605469 433.26019287109375 337.0469970703125 432.02520751953125 337.6265869140625 C 429.6631774902344 337.40557861328125 428.29156494140625 337.71844482421875 423.8542175292969 340.20989990234375 C 420.326171875 341.5450744628906 417.39654541015625 343.30926513671875 415.1622314453125 346.43182373046875 C 413.86480712890625 348.3639831542969 412.855712890625 351.253662109375 412.762451171875 351.8030700683594 C 411.1297607421875 355.65625 410.33697509765625 358.4299621582031 409.9306335449219 362.27166748046875"/>
    <path stroke-width="0" fill="rgb(0, 0, 0)" opacity="1.0" d="M 548.2492065429688 393.35845947265625 C 545.7572631835938 392.10333251953125 543.9605102539062 391.4493713378906 543.8809814453125 403.24267578125 C 540.79150390625 403.4325256347656 536.5972290039062 403.7981262207031 531.511474609375 403.8275146484375 C 527.8219604492188 397.5821228027344 523.9253540039062 389.7694091796875 521.2251586914062 385.17938232421875 C 518.2772216796875 380.6123046875 515.5388793945312 375.78851318359375 513.1268310546875 370.71240234375 C 511.2861022949219 365.7445373535156 509.6605529785156 361.7461853027344 508.36151123046875 359.1755676269531 C 506.5548400878906 356.1739807128906 503.6169128417969 351.8154296875 495.83428955078125 352.1763916015625 C 501.7637634277344 342.6761169433594 500.5141906738281 343.7767028808594 501.0823669433594 346.5733337402344 C 501.0233459472656 347.7862548828125 500.93463134765625 342.74359130859375 502.02423095703125 345.1163024902344 C 503.3042907714844 347.2674560546875 504.92218017578125 350.2308044433594 505.885498046875 352.09759521484375 C 506.9591064453125 354.0100402832031 508.0627746582031 356.3163757324219 508.99359130859375 357.8913879394531 C 512.2902221679688 363.90472412109375 514.844970703125 369.6920166015625 518.41748046875 378.6042785644531 C 519.1068725585938 387.8192443847656 516.6402587890625 396.76092529296875 517.3008422851562 402.7235107421875 C 512.6707763671875 404.1155090332031 507.857177734375 404.8409729003906 501.2397766113281 407.1289367675781 C 500.6665954589844 402.11126708984375 500.4584655761719 398.5244140625 499.7720947265625 391.8059387207031 C 499.0389099121094 389.6664123535156 498.2795715332031 384.9858093261719 497.4162902832031 383.0283203125 C 495.9354248046875 379.27227783203125 494.7413024902344 376.3475341796875 493.76751708984375 372.9969177246094 C 492.8462219238281 371.23126220703125 491.6614074707031 369.2478942871094 490.0062561035156 364.67254638671875 C 488.76483154296875 361.7525634765625 487.19769287109375 358.84710693359375 485.5409851074219 355.8217468261719 C 483.2641906738281 351.7119445800781 480.669677734375 347.02105712890625 480.9507141113281 343.8139953613281 C 481.0218200683594 340.2749328613281 481.00811767578125 337.8481750488281 480.715087890625 335.1324157714844 C 479.7618103027344 330.8682861328125 479.56146240234375 327.6194152832031 479.4774169921875 323.77301025390625 C 484.0076599121094 324.375732421875 488.0298156738281 324.89031982421875 494.7158508300781 325.1002197265625 C 501.6461181640625 325.8489990234375 503.4691467285156 325.928955078125 509.1624755859375 325.2135314941406 C 512.3181762695312 330.6865234375 514.7857055664062 335.8829345703125 516.9134521484375 340.6660461425781 C 519.1896362304688 343.6016540527344 521.7178344726562 346.85589599609375 524.0939331054688 351.1659240722656 C 525.9091796875 355.84796142578125 528.1394653320312 360.00225830078125 529.5345458984375 363.5924072265625 C 531.2462158203125 366.8349304199219 533.790283203125 372.276123046875 541.5525512695312 343.1470947265625 C 545.5281982421875 376.9112548828125 536.3756713867188 377.27301025390625 535.6063232421875 376.20916748046875 C 536.4909057617188 376.41290283203125 537.1834106445312 374.197265625 537.8656005859375 371.1147155761719 C 538.4561767578125 369.1963195800781 538.94091796875 366.98187255859375 539.4619750976562 364.5590515136719 C 540.039794921875 362.10003662109375 540.3786010742188 360.8572998046875 540.7566528320312 358.587158203125 C 541.129638671875 355.07208251953125 541.6234741210938 351.15606689453125 542.7883911132812 346.8531188964844 C 544.7568969726562 344.0157470703125 546.1463623046875 341.93389892578125 547.8230590820312 339.01531982421875 C 548.9190063476562 337.0241394042969 549.9631958007812 334.88690185546875 550.5162963867188 333.0825500488281 C 550.8892211914062 329.70062255859375 551.411376953125 326.8447570800781 551.958251953125 323.8604431152344 C 557.7909545898438 324.4991149902344 564.1266479492188 325.1127014160156 571.39892578125 325.7274169921875 C 570.6112060546875 330.80078125 569.9022216796875 334.814453125 568.6293334960938 339.1075439453125 C 566.9719848632812 342.43402099609375 565.0502319335938 345.89910888671875 562.9624633789062 349.4123840332031 C 561.3628540039062 352.5082092285156 559.8626098632812 355.0257263183594 558.6287231445312 357.4342041015625 C 558.0314331054688 358.9847106933594 557.65283203125 360.7518005371094 556.5919189453125 365.28948974609375 C 555.7595825195312 367.5245056152344 554.7769775390625 371.11907958984375 553.41015625 375.10791015625 C 552.3143310546875 378.2207946777344 550.78515625 382.5427551269531 548.806640625 385.7196044921875 C 547.9541625976562 388.0299377441406 552.1819458007812 384.6246337890625 552.5712890625 386.2471923828125 C 550.7098999023438 389.5318603515625 549.3704833984375 391.3440246582031 548.2492065429688 393.35845947265625"/>
    <path stroke-width="0" fill="rgb(0, 0, 0)" opacity="1.0" d="M 103.83440399169922 293.09368896484375 C 95.48387145996094 293.8652648925781 90.3637924194336 292.319580078125 87.30870056152344 290.3538513183594 C 83.45557403564453 287.0672607421875 80.26048278808594 283.0377197265625 78.5943832397461 278.1329040527344 C 83.46479034423828 270.2510681152344 81.39169311523438 274.65447998046875 77.17167663574219 275.9644775390625 C 73.6236343383789 253.9425506591797 60.766014099121094 245.8943634033203 62.733951568603516 225.60801696777344 C 67.4966812133789 224.08384704589844 73.26325225830078 222.52671813964844 78.76887512207031 220.9581298828125 C 81.70560455322266 233.2305145263672 86.80290222167969 244.3853759765625 93.0577392578125 256.6017150878906 C 94.88591766357422 261.0901794433594 96.07128143310547 265.4986267089844 97.56327056884766 269.3218688964844 C 98.69578552246094 272.51629638671875 99.44501495361328 273.47979736328125 100.24622344970703 273.93487548828125 C 100.79247283935547 274.2195739746094 101.36429595947266 277.5914001464844 103.41957092285156 277.1448669433594 C 107.00801086425781 276.34759521484375 109.7268295288086 276.814453125 111.37992095947266 278.4504089355469 C 112.76778411865234 279.641357421875 113.58039093017578 281.3077087402344 113.86547088623047 283.9191589355469 C 113.71882629394531 286.5517272949219 112.73628997802734 288.649169921875 110.67703247070312 290.36700439453125 C 108.40757751464844 292.096435546875 105.60981750488281 292.4204406738281 103.83440399169922 293.09368896484375M 81.54495239257812 276.9734191894531 C 74.602783203125 277.4384765625 61.76393127441406 278.53875732421875 49.760494232177734 274.8865661621094 C 55.60054397583008 266.5675964355469 59.197933197021484 275.66339111328125 55.39839172363281 273.5208740234375 C 53.24972915649414 294.2936706542969 45.599891662597656 293.89434814453125 22.649410247802734 294.4383850097656 C 35.98606872558594 271.2147216796875 40.78095245361328 264.3457336425781 51.20364761352539 255.45155334472656 C 45.52605056762695 261.2127380371094 46.07949447631836 254.02346801757812 51.64895248413086 244.6829833984375 C 46.68280792236328 255.0251007080078 51.06863021850586 254.50621032714844 51.14443588256836 242.26364135742188 C 57.61561965942383 239.70535278320312 60.67853546142578 233.32403564453125 62.62358474731445 226.26991271972656 C 69.81204986572266 231.56466674804688 64.7448959350586 232.86878967285156 68.09527587890625 231.0084686279297 C 70.55728149414062 236.98526000976562 73.19330596923828 242.27745056152344 75.54310607910156 246.68701171875 C 72.64734649658203 247.8583221435547 70.1499252319336 249.24395751953125 71.22624206542969 244.26365661621094 C 74.06305694580078 246.58583068847656 73.5208511352539 254.9751434326172 71.3252944946289 250.96376037597656 C 68.7629623413086 253.41360473632812 67.65921020507812 256.7108459472656 66.03034973144531 263.7875671386719 C 70.88325500488281 267.6429443359375 67.80451202392578 263.24774169921875 73.47803497314453 269.5224304199219 C 73.43475341796875 275.5826416015625 62.677467346191406 269.11968994140625 52.805450439453125 276.3893127441406 C 49.39518737792969 265.4846496582031 54.990997314453125 258.3360595703125 55.93470764160156 260.9316711425781 C 57.933773040771484 266.2970886230469 63.75802230834961 264.8627014160156 79.39337158203125 265.00018310546875 C 79.90247344970703 270.25091552734375 86.75910949707031 269.5516662597656 77.3172836303711 265.31219482421875 C 79.1711196899414 264.1833190917969 80.99395751953125 262.9491271972656 82.94435119628906 261.4382019042969 C 83.93852996826172 266.2532958984375 83.60555267333984 271.3045349121094 81.54495239257812 276.9734191894531M 74.41499328613281 226.8299560546875 C 68.53430938720703 236.6236572265625 67.87165832519531 227.7144775390625 71.51113891601562 215.61268615722656 C 86.80288696289062 209.58319091796875 83.05999755859375 200.78073120117188 86.05830383300781 198.79039001464844 C 90.08671569824219 207.1473388671875 90.31484985351562 203.1728057861328 88.32589721679688 197.88597106933594 C 82.18022918701172 200.36282348632812 90.1298828125 204.2350616455078 100.01808166503906 163.6785888671875 C 76.33041381835938 186.98866271972656 76.576904296875 204.01040649414062 76.65264129638672 214.31019592285156 C 93.7614974975586 205.73912048339844 93.31051635742188 208.8439483642578 88.8674087524414 209.753662109375 C 88.58576202392578 212.81202697753906 87.09193420410156 216.01126098632812 83.92720794677734 217.80227661132812 C 77.18864440917969 206.67501831054688 74.29086303710938 213.44818115234375 74.41499328613281 226.8299560546875M 60.422210693359375 226.3614044189453 C 64.76691436767578 218.89329528808594 61.227970123291016 208.88145446777344 58.011451721191406 215.45864868164062 C 65.1559066772461 218.55755615234375 65.24859619140625 215.4517364501953 60.280643463134766 196.546630859375 C 68.5835189819336 209.18161010742188 63.8101692199707 212.90118408203125 66.79391479492188 206.07196044921875 C 61.438045501708984 208.58154296875 56.29286193847656 198.16790771484375 53.81482696533203 183.58551025390625 C 69.38597869873047 205.53713989257812 65.8379898071289 212.59547424316406 67.87054443359375 219.2974853515625 C 69.7282943725586 211.58143615722656 72.88916015625 202.18936157226562 80.69438171386719 205.1042938232422 C 76.39641571044922 199.58522033691406 71.09423828125 199.87408447265625 65.51184844970703 212.95741271972656 C 58.66745376586914 209.51498413085938 57.18606948852539 209.63597106933594 60.422210693359375 226.3614044189453"/>
    <path stroke-width="0" fill="rgb(0, 0, 0)" opacity="1.0" d="M 107.7734146118164 292.56744384765625 C 106.94076538085938 286.67279052734375 106.98654174804688 281.8477783203125 105.62725830078125 276.6214599609375 C 108.7078857421875 276.1187438964844 110.30305480957031 275.7384033203125 111.39999389648438 274.8722229003906 C 112.40681457519531 274.1545104980469 114.0472412109375 272.5985412597656 114.86271667480469 271.16656494140625 C 114.9941635131836 270.50567626953125 117.60337829589844 266.4337463378906 119.00008392333984 262.8670349121094 C 120.75007629394531 260.6270446777344 121.94190979003906 259.2222595214844 124.40072631835938 256.8542175292969 C 125.40023040771484 254.4031524658203 127.54261016845703 251.33663940429688 128.61878967285156 250.4513397216797 C 131.17677307128906 248.22447204589844 132.20501708984375 247.7114715576172 134.32473754882812 247.32041931152344 C 136.72830200195312 247.15899658203125 139.02902221679688 247.17721557617188 143.26669311523438 246.8213348388672 C 145.49505615234375 247.02792358398438 146.8925323486328 247.82176208496094 148.6985626220703 249.93148803710938 C 150.72532653808594 251.4952392578125 152.4378662109375 253.85968017578125 153.30810546875 255.38882446289062 C 154.18106079101562 257.4986572265625 155.1518096923828 259.2696533203125 157.0857391357422 261.98321533203125 C 159.6919403076172 263.9438171386719 162.7504119873047 266.1331787109375 164.40426635742188 267.772705078125 C 165.9182586669922 269.779541015625 167.7572021484375 271.146484375 170.95411682128906 272.9372863769531 C 172.45050048828125 274.1175842285156 172.4919891357422 276.0877990722656 173.54806518554688 275.7432556152344 C 177.45469665527344 274.7676696777344 179.87672424316406 275.30352783203125 181.30963134765625 276.9017028808594 C 182.67164611816406 278.2264099121094 183.2445831298828 279.670654296875 183.46725463867188 282.2332458496094 C 183.49765014648438 284.23309326171875 182.8218994140625 286.01190185546875 181.5775146484375 287.3335876464844 C 180.15274047851562 288.9713134765625 177.4989013671875 289.96728515625 174.2001495361328 290.7272033691406 C 170.36529541015625 291.1202087402344 165.75433349609375 290.780517578125 163.74241638183594 289.6319885253906 C 161.6595001220703 288.4670715332031 158.51832580566406 285.97442626953125 156.85484313964844 282.787841796875 C 157.80398559570312 282.1265869140625 158.8345489501953 281.2829895019531 160.21417236328125 280.19720458984375 C 159.2094268798828 282.6598205566406 157.65223693847656 284.4564208984375 155.5894775390625 285.51019287109375 C 153.9596405029297 286.1875915527344 153.79942321777344 287.7032470703125 150.4335174560547 288.54022216796875 C 148.7088165283203 288.91900634765625 151.8378448486328 288.5652770996094 147.87432861328125 288.1658935546875 C 146.0243682861328 288.0756530761719 144.12847900390625 287.8970642089844 141.52081298828125 287.17108154296875 C 139.61729431152344 286.5137939453125 136.377197265625 286.0787353515625 134.3004913330078 284.9833068847656 C 131.33518981933594 283.78460693359375 129.2654266357422 281.8128356933594 127.9927749633789 280.8304748535156 C 127.21344757080078 282.89813232421875 124.68001556396484 285.8586120605469 122.28043365478516 287.8786926269531 C 120.53779602050781 289.66607666015625 117.32794952392578 291.6904602050781 115.1878433227539 291.99737548828125 C 112.25162506103516 292.78045654296875 108.90767669677734 293.8619384765625 107.7734146118164 292.56744384765625M 131.45413208007812 270.5495300292969 C 132.25125122070312 271.4913635253906 133.3053436279297 272.32293701171875 133.9537353515625 273.1763916015625 C 134.67803955078125 273.7267761230469 135.9262237548828 274.7594299316406 137.14810180664062 275.5050048828125 C 138.93563842773438 276.4544677734375 139.82383728027344 276.8448486328125 142.35055541992188 277.6987609863281 C 144.2148895263672 278.3727722167969 145.72508239746094 278.5452880859375 147.28115844726562 278.462158203125 C 148.92095947265625 278.2688903808594 149.65985107421875 277.6956481933594 150.1869659423828 276.4396667480469 C 150.70413208007812 274.87847900390625 150.30300903320312 273.4940185546875 149.28700256347656 272.2056579589844 C 147.34100341796875 270.2220153808594 146.44215393066406 268.7432556152344 145.08709716796875 267.14306640625 C 144.4091796875 266.1380615234375 143.85955810546875 265.20758056640625 143.14459228515625 264.34747314453125 C 142.72915649414062 263.6645812988281 141.90602111816406 262.8814697265625 141.27606201171875 262.4931640625 C 140.7744903564453 262.13726806640625 140.00303649902344 261.7288818359375 139.4545135498047 261.6153259277344 C 138.3697052001953 261.6217346191406 137.4640655517578 261.9111328125 136.8796844482422 262.52880859375 C 136.07980346679688 262.958984375 134.85494995117188 264.0040283203125 133.8133544921875 265.346435546875 C 133.04660034179688 266.5831604003906 132.2322998046875 268.20880126953125 131.45413208007812 270.5495300292969"/>
    <path stroke-width="0" fill="rgb(0, 0, 0)" opacity="1.0" d="M 176.53219604492188 290.07965087890625 C 176.23373413085938 284.9005432128906 176.22848510742188 280.11639404296875 175.1350555419922 275.3343505859375 C 179.78549194335938 274.71270751953125 183.0731964111328 274.2678527832031 185.78187561035156 273.5237121582031 C 187.4761505126953 273.095947265625 185.27279663085938 274.43670654296875 186.63955688476562 271.8619689941406 C 187.82940673828125 269.27813720703125 188.6918487548828 265.61700439453125 189.0458221435547 262.66754150390625 C 189.6866455078125 259.95281982421875 189.91726684570312 257.6771240234375 189.92298889160156 255.18783569335938 C 189.92335510253906 253.25210571289062 189.7913818359375 250.2567138671875 189.63221740722656 246.48623657226562 C 189.53790283203125 243.8812255859375 189.41110229492188 241.0205841064453 189.2604522705078 238.8135528564453 C 193.4214630126953 238.62144470214844 199.05972290039062 238.28045654296875 203.57762145996094 238.4437255859375 C 203.79881286621094 240.75819396972656 203.9456024169922 243.0585479736328 204.04360961914062 245.46714782714844 C 204.6242218017578 248.6054229736328 204.95388793945312 252.4576873779297 204.93881225585938 255.63705444335938 C 204.93820190429688 259.0352783203125 204.3968048095703 262.1291198730469 203.35443115234375 265.38848876953125 C 203.0001678466797 269.47900390625 202.91127014160156 273.3360900878906 201.83587646484375 275.9674987792969 C 200.66319274902344 279.4058532714844 199.0425262451172 282.1658630371094 197.02073669433594 284.0346374511719 C 194.8096160888672 286.4222106933594 191.75306701660156 287.4519958496094 188.0279083251953 288.068115234375 C 184.760009765625 288.7974548339844 181.1801300048828 289.51092529296875 176.53219604492188 290.07965087890625M 205.13462829589844 325.591552734375 C 199.97378540039062 336.38958740234375 198.81153869628906 333.2865295410156 197.92120361328125 325.0551452636719 C 202.48004150390625 315.606689453125 197.78622436523438 320.242919921875 198.00955200195312 298.980712890625 C 198.2399139404297 303.4209289550781 195.3090362548828 299.428955078125 193.53456115722656 298.8113098144531 C 190.36073303222656 295.6566162109375 191.44024658203125 304.848388671875 198.48043823242188 302.3196716308594 C 201.8465576171875 296.614013671875 199.64163208007812 314.31951904296875 216.03269958496094 315.1019287109375 C 217.38624572753906 304.8636779785156 213.7534942626953 303.97686767578125 222.00936889648438 300.0350646972656 C 213.04710388183594 309.53570556640625 211.27410888671875 309.7926940917969 206.01321411132812 310.8001403808594 C 197.45162963867188 309.7562561035156 184.58135986328125 322.8310241699219 205.13462829589844 325.591552734375M 192.0165252685547 326.5699768066406 C 163.9799041748047 323.82745361328125 177.49327087402344 322.4747314453125 194.92942810058594 310.72125244140625 C 157.11001586914062 308.8140563964844 152.99771118164062 308.2374572753906 156.5292205810547 303.500244140625 C 181.25074768066406 313.2457275390625 182.39305114746094 308.52471923828125 190.08909606933594 313.4913024902344 C 177.8712615966797 300.8143310546875 169.05433654785156 299.34228515625 169.383056640625 287.7398986816406 C 188.61915588378906 290.0572509765625 189.858154296875 300.4148254394531 193.2894287109375 315.6065979003906 C 201.7574462890625 309.08258056640625 195.50074768066406 309.0378723144531 180.2819061279297 317.18310546875 C 189.0476531982422 318.6580505371094 192.42337036132812 308.78265380859375 190.91433715820312 310.3484802246094 C 189.23629760742188 307.2005615234375 192.9630889892578 302.3002014160156 192.0165252685547 326.5699768066406"/>
    <path stroke-width="0" fill="rgb(0, 0, 0)" opacity="1.0" d="M 216.37632751464844 312.6005554199219 C 213.65541076660156 308.3790588378906 211.85189819335938 305.0115051269531 209.57476806640625 301.3971252441406 C 212.76744079589844 299.16357421875 215.7371368408203 297.0408935546875 218.79351806640625 293.87872314453125 C 222.15550231933594 291.10748291015625 226.5990447998047 288.6435241699219 230.14894104003906 286.21185302734375 C 233.30836486816406 284.07904052734375 235.40277099609375 282.0196838378906 236.93109130859375 280.482421875 C 239.14532470703125 278.4593200683594 240.15455627441406 276.85369873046875 240.7530059814453 275.6571044921875 C 240.91322326660156 274.525390625 240.80152893066406 273.00311279296875 239.77557373046875 271.01800537109375 C 238.48622131347656 269.4556579589844 236.61123657226562 267.2927551269531 234.9735565185547 265.4917907714844 C 237.44235229492188 263.4952087402344 239.5345001220703 261.1087646484375 242.38467407226562 258.7960205078125 C 243.28651428222656 259.6719665527344 244.2987823486328 260.5230407714844 245.2470245361328 261.33184814453125 C 246.4387664794922 262.8673400878906 247.5510711669922 264.1096496582031 248.62046813964844 265.5978088378906 C 249.69876098632812 267.3789978027344 250.45068359375 269.1373596191406 250.79959106445312 270.7456970214844 C 251.4021453857422 273.4695739746094 252.06105041503906 274.60064697265625 253.20372009277344 275.1513977050781 C 254.48095703125 275.7472839355469 257.19720458984375 275.8308410644531 261.2711181640625 276.0224914550781 C 265.143798828125 276.3706359863281 267.2049560546875 277.60504150390625 268.1875915527344 279.1666259765625 C 269.3410339355469 281.1473388671875 269.5582580566406 282.6769104003906 269.3771667480469 284.19622802734375 C 269.029296875 286.4480285644531 267.8860778808594 288.28302001953125 266.11175537109375 289.46685791015625 C 264.0157470703125 290.53070068359375 261.9877624511719 290.70977783203125 258.4120178222656 290.3660888671875 C 256.2032165527344 289.8587646484375 254.98049926757812 289.3187255859375 252.9386749267578 288.3395690917969 C 251.54415893554688 287.6659240722656 250.047607421875 286.2877502441406 248.8290252685547 284.7825927734375 C 247.97471618652344 283.4310302734375 247.5386199951172 281.7445373535156 247.51715087890625 279.87213134765625 C 248.64637756347656 279.834228515625 249.82147216796875 279.6697692871094 251.02659606933594 279.60906982421875 C 250.7187042236328 282.5871276855469 249.83230590820312 285.673828125 247.70079040527344 289.59228515625 C 245.1348114013672 292.40966796875 242.11070251464844 294.62774658203125 239.00125122070312 296.546630859375 C 235.85888671875 298.7743225097656 232.70040893554688 300.7056579589844 229.33807373046875 303.2682189941406 C 226.2778778076172 306.7120361328125 222.16175842285156 309.96368408203125 216.37632751464844 312.6005554199219M 227.49534606933594 228.3704833984375 C 233.18495178222656 251.40914916992188 232.86111450195312 247.38516235351562 229.64942932128906 233.20059204101562 C 230.6690216064453 230.76499938964844 227.07879638671875 242.3331756591797 210.19415283203125 243.0050506591797 C 227.6510772705078 235.61424255371094 235.36300659179688 236.40576171875 239.0574951171875 228.54798889160156 C 230.34738159179688 227.1356964111328 229.53855895996094 227.2592010498047 228.99102783203125 233.77122497558594 C 224.6608123779297 229.04498291015625 223.47817993164062 229.62799072265625 225.02833557128906 221.81289672851562 C 227.1815643310547 222.98214721679688 219.9792022705078 228.9952392578125 220.06283569335938 226.5759735107422 C 231.90032958984375 228.99468994140625 224.8746795654297 231.18017578125 226.79092407226562 241.34719848632812 C 232.4275665283203 224.7433624267578 232.1229705810547 221.45974731445312 227.49534606933594 228.3704833984375"/>
    <path stroke-width="0" fill="rgb(0, 0, 0)" opacity="1.0" d="M 260.28948974609375 290.4911804199219 C 261.55694580078125 285.6148681640625 262.03265380859375 281.03558349609375 263.0605773925781 275.9116516113281 C 266.09234619140625 276.6213684082031 268.678955078125 277.0377197265625 270.3601989746094 277.3189697265625 C 272.4859313964844 277.5508117675781 274.1077880859375 277.7619323730469 275.9665222167969 278.1483154296875 C 277.5872497558594 278.6794738769531 277.8782653808594 277.17279052734375 278.2225646972656 274.2926025390625 C 277.07281494140625 272.71551513671875 276.16143798828125 271.54376220703125 275.26251220703125 270.2325439453125 C 274.0271911621094 269.1821594238281 272.6592102050781 267.6070556640625 271.571044921875 265.4297180175781 C 269.9819030761719 263.422607421875 268.94866943359375 261.52435302734375 267.899169921875 259.1130676269531 C 268.2597961425781 255.36875915527344 269.5493469238281 250.96311950683594 272.1736145019531 247.3312225341797 C 274.4469299316406 244.01068115234375 277.7608337402344 240.6448211669922 280.8148498535156 238.59918212890625 C 285.611083984375 237.28231811523438 289.3621520996094 237.23448181152344 293.49151611328125 236.0273895263672 C 296.5108947753906 235.41932678222656 298.9006042480469 235.3631591796875 301.0835266113281 239.97732543945312 C 301.6292419433594 240.59622192382812 302.6842956542969 239.2877197265625 304.0266418457031 237.73239135742188 C 307.74127197265625 240.38783264160156 307.6201477050781 245.7206268310547 306.6015625 251.59503173828125 C 304.88299560546875 251.2106170654297 303.0527038574219 250.66995239257812 301.8216247558594 250.4944610595703 C 301.4080810546875 250.73728942871094 300.17767333984375 250.8440399169922 297.8700256347656 251.14747619628906 C 296.4234619140625 251.6127166748047 289.8974914550781 252.40420532226562 288.99432373046875 252.69882202148438 C 287.4176330566406 253.19215393066406 285.6718444824219 254.47286987304688 284.3122253417969 256.2220764160156 C 283.0332336425781 257.5171203613281 282.76910400390625 258.7341003417969 282.4073791503906 254.98779296875 C 283.27960205078125 257.7207336425781 284.264892578125 260.21490478515625 285.5462341308594 262.50213623046875 C 286.94024658203125 264.85711669921875 287.9657287597656 266.4043273925781 289.435791015625 268.0460205078125 C 290.178466796875 269.5075988769531 290.8512268066406 270.1827392578125 291.1965026855469 267.5251770019531 C 293.6387023925781 269.41839599609375 296.3075866699219 270.9299011230469 297.0409851074219 271.217041015625 C 298.0364685058594 271.71710205078125 292.9703369140625 273.8092041015625 293.82086181640625 273.7342224121094 C 295.9580383300781 272.0005187988281 296.8995056152344 271.2584533691406 295.46185302734375 271.8647766113281 C 297.2366943359375 270.22998046875 299.6161193847656 268.7936706542969 301.65399169921875 267.79962158203125 C 303.04730224609375 267.1823425292969 300.6284484863281 269.43609619140625 304.00299072265625 268.7429504394531 C 305.767822265625 268.4710693359375 305.9380798339844 270.01708984375 307.2218933105469 268.7909240722656 C 309.5547180175781 271.53924560546875 310.2191467285156 274.93341064453125 311.1150817871094 277.4924011230469 C 308.2057800292969 278.99896240234375 306.39984130859375 279.69036865234375 303.3488464355469 283.5043029785156 C 296.7041931152344 290.302490234375 290.2907409667969 293.0621337890625 285.860595703125 293.4378662109375 C 274.5057067871094 292.7259216308594 267.6749267578125 292.5651550292969 260.28948974609375 290.4911804199219"/>
  </g>
</svg>
