<?xml version="1.0" ?>
<svg xmlns="http://www.w3.org/2000/svg" version="1.1" width="600" height="600">
  <defs/>
  <g>
    <path stroke-width="0" fill="rgb(0, 0, 0)" opacity="1.0" d="M 91.6690444946289 345.4735107421875 C 98.09102630615234 340.4820251464844 106.23590850830078 336.9575500488281 114.79078674316406 336.1161804199219 C 122.78766632080078 336.7049865722656 129.3158721923828 339.4387512207031 134.8331298828125 342.8981018066406 C 136.40301513671875 343.9254455566406 140.77781677246094 347.6557312011719 143.4876708984375 353.97607421875 C 147.22720336914062 363.13226318359375 146.98080444335938 368.1963195800781 143.9485626220703 375.1278381347656 C 142.41162109375 381.3457336425781 140.37147521972656 384.47607421875 137.26815795898438 387.04156494140625 C 136.56678771972656 388.2416687011719 135.47610473632812 389.55291748046875 134.5676727294922 390.1993408203125 C 132.22239685058594 392.6502380371094 131.26849365234375 393.25799560546875 130.6085205078125 393.50994873046875 C 130.8755340576172 399.7489318847656 131.96360778808594 399.0424499511719 127.99432373046875 411.25714111328125 C 128.5224151611328 403.7972717285156 130.51707458496094 406.2831115722656 132.5630645751953 410.3980407714844 C 133.86685180664062 413.927734375 134.83053588867188 415.9834899902344 133.59593200683594 422.8243713378906 C 133.8426513671875 423.8616027832031 134.25990295410156 428.6754455566406 135.09165954589844 434.25665283203125 C 135.55628967285156 436.95196533203125 136.13409423828125 444.0079040527344 134.9173583984375 449.8121032714844 C 132.4194793701172 461.609375 131.19288635253906 462.910400390625 126.989013671875 466.47906494140625 C 124.28251647949219 468.53759765625 119.0654296875 471.30145263671875 112.48573303222656 474.1600646972656 C 106.78820037841797 475.041748046875 99.89529418945312 474.06365966796875 90.80239868164062 471.13885498046875 C 88.40624237060547 469.9710388183594 84.56111145019531 467.92108154296875 81.80010223388672 466.3151550292969 C 77.65963745117188 464.8160095214844 71.7195816040039 462.6264953613281 69.0408935546875 461.66009521484375 C 66.36892700195312 460.5386962890625 68.94287872314453 464.6018371582031 63.5131950378418 463.4857177734375 C 61.01053237915039 463.17608642578125 57.695640563964844 462.6941833496094 54.946815490722656 461.94036865234375 C 55.76875305175781 458.9078674316406 56.22932052612305 455.3129577636719 56.630950927734375 450.92236328125 C 56.46699905395508 443.93951416015625 57.120418548583984 436.686767578125 57.693729400634766 431.312255859375 C 57.852081298828125 426.80450439453125 56.79714584350586 420.54052734375 56.51996994018555 414.081787109375 C 57.75350570678711 406.7340087890625 59.59858322143555 400.9444580078125 60.25087356567383 394.655029296875 C 61.676456451416016 389.9896545410156 62.27600860595703 386.623291015625 62.4610481262207 383.24163818359375 C 62.895137786865234 379.47540283203125 64.0283203125 374.553955078125 68.28311157226562 366.1714172363281 C 69.76702117919922 363.08343505859375 70.48107147216797 361.56756591796875 70.96263885498047 359.8199768066406 C 75.98375701904297 358.1131591796875 75.23102569580078 355.5517272949219 74.42508697509766 352.9100646972656 C 77.69169616699219 351.7393798828125 79.08556365966797 351.1939392089844 83.24407196044922 350.83197021484375 C 83.87645721435547 350.5592041015625 87.08216857910156 348.7508239746094 91.6690444946289 345.4735107421875M 99.75873565673828 387.4309387207031 C 102.9480209350586 387.8624267578125 109.1536636352539 387.3564147949219 110.5713882446289 385.2041320800781 C 112.66050720214844 381.5519104003906 113.14581298828125 377.890625 115.92012023925781 369.9627685546875 C 116.3612289428711 367.78363037109375 114.67678833007812 364.2483825683594 113.062255859375 363.69952392578125 C 112.52136993408203 363.4808044433594 111.35862731933594 363.8921203613281 105.90813446044922 368.0891418457031 C 103.52605438232422 369.42431640625 98.26136779785156 371.89154052734375 94.67623901367188 373.373779296875 C 91.9674072265625 376.7760925292969 90.19732666015625 379.11083984375 88.3062515258789 381.676513671875 C 87.99642944335938 382.3558044433594 87.97420501708984 383.7496337890625 87.86164093017578 385.31793212890625 C 91.44539642333984 385.9971618652344 94.41669464111328 386.76080322265625 99.75873565673828 387.4309387207031M 83.18162536621094 408.7786560058594 C 82.46598815917969 413.35943603515625 81.86966705322266 419.157470703125 81.25643157958984 422.413818359375 C 81.07237243652344 428.2079772949219 80.8226547241211 437.5119323730469 80.43314361572266 442.7716369628906 C 86.06758117675781 443.7580261230469 93.5597152709961 445.38409423828125 95.40401458740234 445.8783264160156 C 103.19806671142578 447.8119812011719 107.41889953613281 446.69158935546875 109.10982513427734 444.89532470703125 C 111.35559844970703 442.38128662109375 112.12169647216797 439.5538024902344 111.51154327392578 435.7322998046875 C 108.12139129638672 426.2831115722656 107.52120971679688 420.97479248046875 106.25997924804688 416.208984375 C 106.07470703125 414.5611572265625 105.8692855834961 413.47052001953125 105.46710968017578 412.3705139160156 C 104.37889862060547 411.72039794921875 101.60286712646484 410.8316955566406 97.00354766845703 411.0052185058594 C 91.44783782958984 410.126708984375 87.28659057617188 409.4673767089844 83.18162536621094 408.7786560058594"/>
    <path stroke-width="0" fill="rgb(0, 0, 0)" opacity="1.0" d="M 285.6287536621094 400.03851318359375 C 285.2259216308594 403.4177551269531 284.1275634765625 408.45477294921875 283.2168884277344 411.7751159667969 C 282.7239990234375 417.1097106933594 282.7823486328125 421.1610107421875 282.2956237792969 425.4847717285156 C 282.48480224609375 429.30841064453125 281.4646301269531 438.8927001953125 279.67047119140625 442.68890380859375 C 278.7449951171875 444.75909423828125 277.6336669921875 447.1947937011719 274.4975891113281 450.8488464355469 C 272.9734802246094 452.444091796875 271.1256408691406 454.2922668457031 267.3443603515625 456.33526611328125 C 264.0321350097656 458.66815185546875 260.01031494140625 461.16131591796875 256.23193359375 462.0176696777344 C 253.49154663085938 463.1315612792969 248.3861541748047 463.7073669433594 245.6042022705078 463.8083190917969 C 236.4324951171875 461.5625915527344 233.5662384033203 460.4454040527344 228.79867553710938 458.5566101074219 C 225.00184631347656 456.223388671875 221.01454162597656 453.4023132324219 219.23997497558594 451.56561279296875 C 217.338623046875 451.01422119140625 216.51502990722656 451.0392761230469 211.60498046875 449.45440673828125 C 209.49766540527344 448.6742248535156 201.0870819091797 447.6147155761719 197.53085327148438 444.7598571777344 C 194.76123046875 442.3580322265625 192.72271728515625 440.4114074707031 189.8736572265625 437.48736572265625 C 188.29225158691406 435.0051574707031 186.5574951171875 431.63189697265625 184.75250244140625 429.2016906738281 C 183.65472412109375 427.4727478027344 182.20526123046875 422.4756774902344 183.15835571289062 414.7602233886719 C 182.4287872314453 412.387939453125 182.19027709960938 405.9991455078125 181.81605529785156 400.5097961425781 C 181.09671020507812 409.7733154296875 180.4310302734375 407.3652648925781 179.6581268310547 405.0306091308594 C 179.2200927734375 403.99774169921875 176.8119659423828 400.1795349121094 175.8773651123047 397.8517150878906 C 172.90814208984375 394.2734680175781 169.79345703125 386.4029541015625 169.14456176757812 383.6551208496094 C 166.79428100585938 377.079833984375 166.0766143798828 372.1474914550781 167.56288146972656 365.5927429199219 C 169.67660522460938 357.2047424316406 172.07823181152344 353.14727783203125 176.4024200439453 348.718994140625 C 180.3585968017578 344.8636474609375 186.0441436767578 341.6460266113281 193.03549194335938 338.8543395996094 C 197.54515075683594 337.6795349121094 203.2832489013672 337.1318054199219 209.58216857910156 337.7825012207031 C 215.1151123046875 339.3503723144531 218.75233459472656 340.8651123046875 223.42440795898438 342.27777099609375 C 220.47732543945312 341.359375 223.25552368164062 341.1168212890625 230.02992248535156 339.50531005859375 C 233.9496307373047 339.177978515625 235.94705200195312 338.82171630859375 238.6924591064453 338.5014953613281 C 241.98464965820312 337.59454345703125 245.92996215820312 336.6637878417969 250.77810668945312 336.8036193847656 C 257.31414794921875 336.93994140625 261.7911682128906 337.5911865234375 267.0140380859375 339.24853515625 C 270.31915283203125 340.0303649902344 274.9467468261719 342.1003112792969 281.15240478515625 346.6856689453125 C 285.0577697753906 349.8470458984375 288.4249572753906 353.7557067871094 291.4759826660156 360.0079650878906 C 293.41571044921875 364.9620361328125 294.4150390625 372.61285400390625 293.79095458984375 380.18597412109375 C 291.9496765136719 385.80584716796875 291.45196533203125 387.7476501464844 289.3948974609375 391.5968322753906 C 287.2860412597656 395.31463623046875 286.2633056640625 398.33740234375 285.6287536621094 400.03851318359375M 203.8064727783203 398.7200012207031 C 204.21170043945312 401.309326171875 204.83477783203125 404.1876525878906 204.7752227783203 399.49151611328125 C 202.84706115722656 410.364990234375 203.08087158203125 411.352783203125 203.4461669921875 412.0390319824219 C 210.1302947998047 417.9290466308594 214.54762268066406 421.1349792480469 215.67922973632812 421.676513671875 C 222.9427032470703 423.9423522949219 228.0555877685547 424.9417724609375 232.09031677246094 427.33953857421875 C 237.759033203125 434.23992919921875 239.27748107910156 435.39544677734375 240.94766235351562 436.47564697265625 C 242.40463256835938 436.9643859863281 244.43310546875 437.614013671875 246.35223388671875 437.5755615234375 C 247.6629638671875 437.36370849609375 249.44764709472656 436.9363098144531 251.71890258789062 435.6723327636719 C 254.33078002929688 434.5230407714844 256.3432922363281 432.4341125488281 258.1302185058594 428.437255859375 C 259.6119689941406 420.56280517578125 259.86297607421875 416.70574951171875 260.7704162597656 411.05218505859375 C 261.8079528808594 404.26873779296875 262.5596618652344 399.3744812011719 264.4830322265625 391.50469970703125 C 268.652099609375 381.4605407714844 269.4851989746094 377.3193054199219 269.1168212890625 374.7413024902344 C 267.4801940917969 368.8791198730469 265.81683349609375 366.0274658203125 263.59796142578125 363.4383239746094 C 260.9356689453125 361.3571472167969 258.1641540527344 360.3814392089844 254.0117645263672 360.5868835449219 C 247.52734375 360.2421875 241.6936798095703 361.7494812011719 233.81182861328125 363.2050476074219 C 225.63284301757812 364.8066711425781 217.23440551757812 365.4098205566406 208.2357940673828 362.8138122558594 C 206.63795471191406 362.4606628417969 202.9100799560547 362.4977111816406 200.60203552246094 362.97869873046875 C 197.450927734375 363.9329528808594 193.21957397460938 367.6846618652344 192.0320587158203 370.2101745605469 C 191.9259796142578 371.397216796875 192.16966247558594 374.14263916015625 192.98953247070312 378.5992431640625 C 193.36007690429688 381.4678039550781 198.70407104492188 390.58673095703125 203.8064727783203 398.7200012207031"/>
    <path stroke-width="0" fill="rgb(0, 0, 0)" opacity="1.0" d="M 422.3159484863281 466.8359069824219 C 417.8280029296875 467.480712890625 411.11065673828125 469.005615234375 405.7773742675781 469.97882080078125 C 400.24139404296875 470.2998962402344 396.9179992675781 470.4080505371094 390.2817077636719 471.3058166503906 C 384.50146484375 462.4564208984375 378.4409484863281 452.57940673828125 374.6530456542969 442.6065979003906 C 369.62548828125 433.5198974609375 366.3797607421875 422.52764892578125 365.198974609375 412.06292724609375 C 364.8180236816406 404.36236572265625 363.2160949707031 399.06292724609375 359.5200500488281 393.1322326660156 C 353.3646545410156 388.9717712402344 348.1381530761719 385.69622802734375 330.8388977050781 375.71173095703125 C 344.10003662109375 373.1680603027344 345.7233581542969 374.6092224121094 340.0633850097656 381.2312316894531 C 336.1849060058594 384.9397277832031 332.068603515625 389.1060791015625 330.4613037109375 390.9158935546875 C 329.2491760253906 393.14410400390625 328.4102783203125 395.3960876464844 327.7759704589844 397.84442138671875 C 327.7201843261719 399.80426025390625 328.671630859375 404.14093017578125 329.39678955078125 407.1670227050781 C 332.12689208984375 413.7889404296875 338.81011962890625 426.88018798828125 341.8231506347656 444.40472412109375 C 340.3590393066406 458.3685302734375 341.05841064453125 472.31585693359375 341.67877197265625 483.68255615234375 C 333.079833984375 483.5296936035156 329.37847900390625 483.96173095703125 321.9388732910156 486.308837890625 C 320.002197265625 481.3009338378906 318.5612487792969 474.9723205566406 317.3890380859375 464.731201171875 C 317.3348388671875 457.0309143066406 318.7845153808594 448.3350830078125 318.873779296875 443.5384216308594 C 316.4586486816406 438.5783386230469 314.4128723144531 432.9750061035156 310.40399169921875 426.5733947753906 C 305.6587219238281 418.9517822265625 304.2205505371094 413.70257568359375 302.9366149902344 407.3251647949219 C 302.4842224121094 396.7671813964844 304.6228942871094 387.2965087890625 307.2158203125 381.39141845703125 C 311.1767578125 374.2002868652344 316.77020263671875 368.21527099609375 318.78436279296875 365.691162109375 C 320.3157043457031 362.70611572265625 320.79559326171875 361.8871765136719 317.4486999511719 362.9229431152344 C 317.5621643066406 360.5403137207031 317.7044372558594 358.1462097167969 317.63409423828125 356.117431640625 C 320.1762390136719 355.7259826660156 323.2318420410156 355.3674011230469 325.5075378417969 355.12188720703125 C 332.19635009765625 353.79193115234375 337.1330261230469 357.3646240234375 340.1609191894531 353.32470703125 C 347.7078857421875 355.7943420410156 348.62908935546875 356.50994873046875 355.5665588378906 358.7276916503906 C 365.58697509765625 363.20037841796875 375.41729736328125 371.2904968261719 383.423828125 380.6856994628906 C 388.92431640625 392.1317138671875 390.41375732421875 404.6513977050781 390.2330322265625 413.8570556640625 C 391.0317687988281 421.3221435546875 393.20404052734375 427.7500915527344 396.3860778808594 435.8297424316406 C 403.1813049316406 455.9093933105469 403.5819091796875 446.943115234375 400.3430480957031 437.7937316894531 C 397.866943359375 432.1815185546875 400.4797668457031 426.7229919433594 403.1239929199219 422.2957763671875 C 405.0762634277344 418.2664489746094 406.4456481933594 414.7247009277344 407.1062927246094 412.703125 C 408.9176025390625 408.1494140625 409.26318359375 405.09344482421875 409.05706787109375 401.7480773925781 C 409.1769104003906 398.06048583984375 408.65594482421875 392.8854675292969 407.99072265625 390.2767333984375 C 404.65692138671875 384.59271240234375 401.16754150390625 377.226318359375 399.3014221191406 367.79876708984375 C 398.3912658691406 355.5951232910156 399.5103759765625 346.1997375488281 403.07696533203125 337.5478820800781 C 406.0993347167969 329.6452941894531 407.9728088378906 325.78546142578125 409.9725646972656 321.2881164550781 C 417.7245178222656 324.2060852050781 422.85699462890625 325.2697448730469 432.033447265625 325.78790283203125 C 431.4954528808594 332.11376953125 429.91632080078125 338.4339294433594 426.12872314453125 347.2306213378906 C 424.2527770996094 353.77716064453125 423.4970397949219 360.6495056152344 424.4772033691406 366.7171936035156 C 426.17529296875 371.84228515625 429.0377197265625 377.24493408203125 432.8176574707031 384.4790954589844 C 435.73162841796875 392.3685607910156 436.7314453125 399.76983642578125 436.5191955566406 409.99017333984375 C 434.8225402832031 419.14398193359375 433.0432434082031 424.94140625 428.6955261230469 433.3890686035156 C 424.5845031738281 440.34051513671875 422.93548583984375 444.93756103515625 422.2344970703125 446.78277587890625 C 421.5457458496094 450.53863525390625 421.09271240234375 453.577392578125 420.8365783691406 456.52099609375 C 420.86578369140625 458.76947021484375 421.82879638671875 463.0244445800781 422.3159484863281 466.8359069824219"/>
    <path stroke-width="0" fill="rgb(0, 0, 0)" opacity="1.0" d="M 564.8399658203125 401.37451171875 C 565.0524291992188 409.6985168457031 563.7174072265625 415.9228515625 560.7117919921875 421.98663330078125 C 558.0782470703125 427.138671875 553.7347412109375 433.02593994140625 545.033935546875 437.66717529296875 C 537.2717895507812 441.6549987792969 533.3745727539062 442.9282531738281 527.6577758789062 444.0382385253906 C 526.254150390625 444.9185791015625 525.2528076171875 445.74072265625 522.3945922851562 447.3773498535156 C 519.5889892578125 449.7738342285156 516.172607421875 451.9722900390625 513.8233032226562 453.43450927734375 C 510.0554504394531 456.812255859375 506.3424377441406 460.2090148925781 499.1470031738281 464.4783630371094 C 492.5531311035156 467.357421875 486.5155334472656 470.375 481.3590393066406 472.592041015625 C 475.90179443359375 473.07708740234375 471.3118591308594 474.0588684082031 465.08245849609375 476.2471923828125 C 463.1961975097656 471.6076354980469 458.8251953125 463.30621337890625 457.0453796386719 458.65032958984375 C 454.8304443359375 448.676513671875 453.3408508300781 441.90374755859375 453.6510009765625 434.2012023925781 C 456.4346923828125 425.8341369628906 458.189453125 419.6561584472656 459.4626770019531 413.4140319824219 C 458.7286682128906 407.8210144042969 458.1182861328125 404.584716796875 456.19329833984375 396.5078430175781 C 457.0583801269531 387.651123046875 455.3724670410156 394.6988830566406 455.96484375 386.3402404785156 C 456.22064208984375 378.3322448730469 457.330078125 370.8484802246094 459.24365234375 364.3113098144531 C 465.68145751953125 354.9600524902344 468.0001220703125 350.37384033203125 469.67059326171875 346.3906555175781 C 470.2930908203125 344.2120056152344 477.23175048828125 336.5855407714844 478.45697021484375 334.9404602050781 C 480.63214111328125 335.9764709472656 481.43310546875 336.0929260253906 480.6465759277344 336.7157897949219 C 484.2657775878906 335.9088439941406 492.7163391113281 334.4603271484375 502.1300354003906 333.6698913574219 C 510.0580749511719 335.1923828125 517.007080078125 337.9800109863281 521.5300903320312 339.7810363769531 C 525.717529296875 341.61395263671875 528.8978881835938 343.4736328125 532.7284545898438 346.44317626953125 C 537.0101928710938 349.5285339355469 540.429931640625 352.3544006347656 543.146484375 355.7980041503906 C 545.6500854492188 358.1558532714844 548.2041625976562 361.3052978515625 551.5877685546875 366.0034484863281 C 555.0471801757812 370.0820007324219 557.0746459960938 374.4051208496094 560.3705444335938 381.0797424316406 C 563.2991943359375 386.9967041015625 564.8020629882812 392.881591796875 564.8399658203125 401.37451171875M 537.213134765625 401.8878479003906 C 537.0314331054688 397.7932434082031 536.7235717773438 393.4258117675781 536.2100830078125 390.6695861816406 C 535.3892822265625 387.39617919921875 532.3922119140625 381.2799377441406 530.5939331054688 378.5797119140625 C 527.554931640625 373.8597412109375 521.3452758789062 369.15203857421875 516.0548706054688 366.3254089355469 C 511.19171142578125 363.6327209472656 506.82696533203125 361.9932861328125 499.7771301269531 361.2596130371094 C 498.19976806640625 361.0606994628906 491.3807373046875 360.6908264160156 488.2283020019531 360.3862609863281 C 484.2369689941406 369.8748779296875 482.3395080566406 376.16094970703125 481.2452087402344 382.90631103515625 C 480.9885559082031 391.4026794433594 481.3690490722656 395.3745422363281 480.665771484375 398.1678466796875 C 480.47467041015625 402.17626953125 480.2845764160156 408.2726745605469 479.5822448730469 419.5233459472656 C 479.5748291015625 429.9517822265625 479.7510986328125 436.23345947265625 481.5990905761719 443.74517822265625 C 484.8874816894531 441.8399658203125 487.6347351074219 440.7679443359375 490.0768127441406 439.4566650390625 C 495.0964660644531 437.5837707519531 498.40850830078125 435.45538330078125 503.69903564453125 431.6088562011719 C 506.5858154296875 430.03515625 510.0029602050781 426.6188049316406 513.1404418945312 423.85260009765625 C 524.1537475585938 417.58477783203125 533.2125854492188 415.49212646484375 533.447265625 414.8472900390625 C 535.1577758789062 411.0273132324219 536.5908203125 406.5194396972656 537.213134765625 401.8878479003906"/>
    <path stroke-width="0" fill="rgb(0, 0, 0)" opacity="1.0" d="M 141.49591064453125 281.658203125 C 132.6337432861328 281.1237487792969 128.7533721923828 280.4852600097656 123.10452270507812 279.5264892578125 C 115.9486312866211 277.4405517578125 110.7713623046875 274.21160888671875 106.97613525390625 269.0975646972656 C 101.01875305175781 261.3633728027344 98.87333679199219 255.2087860107422 103.87970733642578 251.16368103027344 C 99.31632232666016 229.47300720214844 96.60414123535156 198.18955993652344 87.70228576660156 185.63330078125 C 95.73541259765625 183.5115966796875 103.42166900634766 181.05758666992188 112.06855773925781 177.7054901123047 C 120.6201171875 197.5482635498047 125.2029037475586 220.16250610351562 123.73699951171875 241.29608154296875 C 123.58746337890625 245.34811401367188 124.03527069091797 248.84011840820312 124.60407257080078 249.89881896972656 C 125.62910461425781 250.81365966796875 128.29434204101562 252.1737518310547 132.3933563232422 252.6453399658203 C 136.10316467285156 253.4221954345703 140.24888610839844 254.140625 145.47023010253906 254.5500946044922 C 151.5482940673828 255.37808227539062 155.09959411621094 257.38037109375 156.95668029785156 260.3902893066406 C 158.72207641601562 263.0693359375 159.4716339111328 266.26483154296875 159.0009307861328 269.8209533691406 C 158.57054138183594 274.1043701171875 157.1746826171875 276.7910461425781 154.6836700439453 278.9233093261719 C 152.36534118652344 281.32958984375 149.43348693847656 282.64093017578125 141.49591064453125 281.658203125M 109.4319839477539 266.5894775390625 C 109.01598358154297 267.09967041015625 104.35829162597656 259.8525695800781 92.88056945800781 267.4517822265625 C 83.46161651611328 265.4576721191406 77.7930908203125 262.2534484863281 72.37838745117188 259.25372314453125 C 58.9293327331543 251.82290649414062 50.25077438354492 250.86306762695312 50.33596420288086 250.39273071289062 C 51.53775405883789 238.81814575195312 51.935211181640625 229.66885375976562 50.067832946777344 224.8663330078125 C 51.108097076416016 234.49691772460938 54.6934700012207 223.31822204589844 45.65058898925781 223.1370086669922 C 42.11994171142578 211.7167205810547 47.80330276489258 195.2017364501953 49.30156707763672 207.6957244873047 C 57.82550811767578 206.36126708984375 74.71062469482422 201.04502868652344 92.47277069091797 203.8312530517578 C 103.00865936279297 213.53602600097656 90.00452423095703 197.66549682617188 96.27611541748047 194.60980224609375 C 99.42035675048828 202.60873413085938 102.33015441894531 211.4049835205078 104.96388244628906 220.7494354248047 C 101.39107513427734 220.89915466308594 97.86914825439453 221.37867736816406 93.63220977783203 230.16542053222656 C 94.43281555175781 228.12265014648438 79.15013122558594 227.03623962402344 70.197998046875 222.0312042236328 C 77.8045883178711 218.14198303222656 75.75009155273438 228.62681579589844 77.1283950805664 233.23631286621094 C 73.58061218261719 233.9655303955078 65.58794403076172 227.63400268554688 75.9142837524414 225.7081298828125 C 73.67593383789062 234.47900390625 78.4690933227539 234.4106903076172 74.67756652832031 236.25006103515625 C 73.36199188232422 235.83087158203125 74.79973602294922 239.7333221435547 66.51274108886719 227.18069458007812 C 81.03614044189453 226.1529998779297 94.33140563964844 235.54852294921875 97.9702377319336 234.58865356445312 C 100.9547348022461 237.97494506835938 112.27008819580078 246.3357696533203 100.57538604736328 244.38742065429688 C 102.89087677001953 243.78536987304688 105.62922668457031 242.84573364257812 108.61769104003906 241.54273986816406 C 108.5301284790039 249.1654510498047 108.03247833251953 257.7923583984375 109.4319839477539 266.5894775390625M 116.82097625732422 136.9925079345703 C 104.68826293945312 151.6556396484375 98.7967300415039 150.06484985351562 110.57776641845703 145.01028442382812 C 104.63640594482422 160.5388641357422 96.81377410888672 159.9413604736328 89.59252166748047 152.90113830566406 C 99.69398498535156 148.54891967773438 113.00054931640625 137.9845733642578 115.11589050292969 149.70455932617188 C 113.50471496582031 146.11781311035156 106.96553802490234 119.98303985595703 111.25262451171875 115.32180786132812 C 115.4169921875 136.70558166503906 115.97175598144531 138.4010009765625 114.02574157714844 146.07980346679688 C 113.48786926269531 150.17098999023438 111.35026550292969 147.32887268066406 148.35464477539062 158.5778350830078 C 136.7206268310547 144.4635009765625 124.64639282226562 148.14637756347656 116.25251007080078 142.3974609375 C 102.97210693359375 143.01565551757812 95.87223052978516 138.90322875976562 116.82097625732422 136.9925079345703M 73.76107025146484 157.87339782714844 C 84.25468444824219 167.52076721191406 75.9571762084961 163.02626037597656 71.90151977539062 166.46914672851562 C 71.87406158447266 156.4925994873047 63.54939651489258 146.85577392578125 64.35626983642578 142.95904541015625 C 63.75760269165039 138.86328125 63.959712982177734 129.84739685058594 72.15565490722656 124.55226135253906 C 83.10111999511719 125.57071685791016 104.46101379394531 126.67134094238281 101.75703430175781 131.0132293701172 C 67.87782287597656 129.45327758789062 65.68688201904297 130.36746215820312 72.16185760498047 147.35580444335938 C 91.6595458984375 155.62594604492188 94.09851837158203 148.5064239501953 97.97172546386719 153.6822967529297 C 95.08538055419922 151.2657470703125 88.98387145996094 160.51182556152344 72.39022064208984 154.258544921875 C 72.00870513916016 145.6993408203125 68.74431610107422 151.9568328857422 73.76107025146484 157.87339782714844"/>
    <path stroke-width="0" fill="rgb(0, 0, 0)" opacity="1.0" d="M 145.43301391601562 282.35943603515625 C 147.4645233154297 273.4479064941406 148.32382202148438 264.3181457519531 149.35240173339844 255.14874267578125 C 154.87026977539062 256.195068359375 158.5894317626953 256.29071044921875 160.94952392578125 255.854736328125 C 162.6181182861328 255.20147705078125 164.3162841796875 252.97801208496094 165.3070068359375 249.66111755371094 C 167.0640869140625 246.4157257080078 168.88641357421875 240.5873260498047 170.79249572753906 235.18655395507812 C 169.8136749267578 216.01138305664062 161.46456909179688 198.5060272216797 144.62425231933594 177.54962158203125 C 152.21194458007812 170.92062377929688 158.9147186279297 166.1092987060547 169.25527954101562 161.05471801757812 C 182.9021759033203 184.6118927001953 194.43360900878906 207.68499755859375 196.06996154785156 235.03097534179688 C 192.12152099609375 247.86703491210938 190.73736572265625 253.27581787109375 190.90919494628906 255.0059051513672 C 186.69358825683594 254.79788208007812 190.23321533203125 257.0147705078125 194.48825073242188 257.75897216796875 C 195.69647216796875 258.10906982421875 200.03118896484375 258.2639465332031 205.95680236816406 257.98370361328125 C 213.0513916015625 258.45513916015625 216.91038513183594 260.7738037109375 218.93563842773438 264.2043762207031 C 220.4115753173828 266.73858642578125 220.82489013671875 269.45306396484375 220.2593994140625 272.6257629394531 C 219.78668212890625 276.32476806640625 218.6992645263672 278.3009033203125 216.265380859375 280.4743347167969 C 213.96356201171875 282.694580078125 210.8960418701172 283.96624755859375 204.2844696044922 283.6361083984375 C 199.4534912109375 282.9844665527344 197.20770263671875 282.4833679199219 192.38214111328125 282.07318115234375 C 189.34832763671875 281.7220764160156 184.50587463378906 279.9343566894531 180.21591186523438 277.2792053222656 C 176.68865966796875 274.0218200683594 174.78427124023438 269.1243896484375 174.50576782226562 263.01922607421875 C 177.26425170898438 263.6024475097656 179.703125 264.0330505371094 181.8776397705078 264.3092041015625 C 179.9072723388672 269.1562805175781 177.65115356445312 273.40570068359375 173.63009643554688 277.0716857910156 C 171.00161743164062 279.3020324707031 168.1773223876953 280.74676513671875 163.76039123535156 281.77435302734375 C 158.77578735351562 282.07562255859375 154.19650268554688 282.24615478515625 145.43301391601562 282.35943603515625"/>
    <path stroke-width="0" fill="rgb(0, 0, 0)" opacity="1.0" d="M 302.1788635253906 297.4030456542969 C 290.7726745605469 297.7857666015625 282.13775634765625 298.27459716796875 276.84368896484375 297.89227294921875 C 269.0439453125 297.2128601074219 261.35595703125 295.4786682128906 256.0361328125 293.42340087890625 C 251.11758422851562 290.6557922363281 245.67822265625 286.71728515625 241.0832061767578 282.5985412597656 C 237.84422302246094 279.7328796386719 235.4515380859375 275.69384765625 234.28713989257812 272.96844482421875 C 235.83033752441406 272.9713439941406 237.545654296875 272.88427734375 239.8035125732422 272.848388671875 C 235.97482299804688 277.43719482421875 232.3251190185547 279.1220397949219 229.95599365234375 279.9649963378906 C 227.66441345214844 281.34600830078125 224.6832733154297 282.6914367675781 220.47171020507812 282.74029541015625 C 217.43408203125 283.19342041015625 214.2357635498047 283.775146484375 208.876953125 284.0566101074219 C 209.86476135253906 275.7953186035156 210.55809020996094 267.1186218261719 211.22816467285156 258.4281311035156 C 215.70297241210938 259.09033203125 219.3911590576172 258.825927734375 221.99586486816406 258.672607421875 C 224.0740203857422 258.146240234375 223.92855834960938 257.1398010253906 225.26620483398438 255.4481658935547 C 226.29344177246094 253.96824645996094 226.97642517089844 252.162841796875 227.67889404296875 250.1348876953125 C 229.32154846191406 244.9229736328125 229.63206481933594 241.4097137451172 230.3032989501953 236.9360809326172 C 234.85800170898438 237.35235595703125 245.5017547607422 239.6959991455078 250.51141357421875 240.26393127441406 C 250.2510528564453 242.18228149414062 250.3536376953125 244.13998413085938 250.26589965820312 245.74020385742188 C 250.23594665527344 246.8169403076172 250.2658233642578 247.71571350097656 249.69700622558594 252.3692169189453 C 249.55929565429688 253.07443237304688 249.49411010742188 258.0223388671875 248.81146240234375 262.9647521972656 C 251.72561645507812 258.455810546875 251.16769409179688 259.8557434082031 251.3256378173828 260.4534606933594 C 251.97972106933594 261.3227844238281 255.1682586669922 263.1965026855469 259.193603515625 265.1763610839844 C 262.50482177734375 266.82989501953125 267.0379333496094 267.78460693359375 273.2144775390625 268.4281921386719 C 278.5157470703125 268.7173156738281 285.0442810058594 268.574951171875 293.81243896484375 269.1396179199219 C 308.21826171875 269.1511535644531 319.78460693359375 268.1236572265625 325.3596496582031 267.4624938964844 C 337.8139953613281 268.57098388671875 341.6370544433594 268.5269775390625 345.0912170410156 267.19287109375 C 349.1380310058594 265.78509521484375 351.79840087890625 263.82623291015625 354.1746826171875 259.47998046875 C 355.7571716308594 257.11749267578125 356.79541015625 252.3164520263672 355.8152770996094 248.73841857910156 C 355.0546875 245.8823699951172 353.61474609375 241.35678100585938 351.58782958984375 238.9911346435547 C 350.1890869140625 237.35885620117188 346.65252685546875 232.9008026123047 344.0406494140625 231.1808624267578 C 341.2615966796875 229.67054748535156 336.9123840332031 229.06875610351562 335.174072265625 229.0072784423828 C 331.0906066894531 229.02899169921875 328.73114013671875 229.82151794433594 322.23187255859375 233.80499267578125 C 317.5690002441406 235.89291381835938 315.7828369140625 237.05075073242188 312.7838439941406 241.39111328125 C 307.3329162597656 246.56214904785156 303.8940734863281 250.43923950195312 299.9452819824219 256.5625305175781 C 295.09991455078125 263.544921875 291.08905029296875 268.670654296875 288.4432067871094 272.5812072753906 C 279.86669921875 271.35125732421875 270.61932373046875 271.0025634765625 259.7779846191406 269.65594482421875 C 265.8748779296875 260.74102783203125 270.7882995605469 254.2539825439453 275.2602844238281 247.66917419433594 C 280.4447937011719 237.77606201171875 287.1194763183594 229.64404296875 294.3545227050781 224.50343322753906 C 300.019775390625 216.88307189941406 307.489990234375 212.9307098388672 314.5506896972656 211.18722534179688 C 322.313232421875 206.9766387939453 330.6346740722656 204.56423950195312 339.31573486328125 205.2919921875 C 345.3768310546875 205.79605102539062 353.13043212890625 206.91497802734375 360.2578430175781 210.6236572265625 C 364.8433532714844 213.54466247558594 369.794677734375 218.92422485351562 372.89422607421875 224.03280639648438 C 376.1315612792969 228.61978149414062 377.8470458984375 234.83621215820312 378.1029968261719 243.83335876464844 C 380.01025390625 253.253662109375 378.88970947265625 260.8038024902344 375.3628234863281 268.7923583984375 C 371.5419006347656 277.6788635253906 363.1238098144531 285.393310546875 350.97406005859375 292.81707763671875 C 337.2186279296875 298.324462890625 323.2706604003906 300.1952819824219 302.1788635253906 297.4030456542969"/>
  </g>
</svg>
