<?xml version="1.0" ?>
<svg xmlns="http://www.w3.org/2000/svg" version="1.1" width="600" height="600">
  <defs/>
  <g>
    <path stroke-width="0" fill="rgb(0, 0, 0)" opacity="1.0" d="M 96.10769653320312 349.7597351074219 C 101.06722259521484 345.71270751953125 107.04134368896484 340.3533020019531 115.10150146484375 333.1193542480469 C 126.97803497314453 328.0423889160156 133.08705139160156 328.6146545410156 140.77947998046875 331.444580078125 C 147.52703857421875 334.77972412109375 150.5613555908203 337.4657287597656 155.9498748779297 347.3322448730469 C 156.2991180419922 362.16094970703125 154.24502563476562 369.9304504394531 141.0371551513672 381.57293701171875 C 140.59561157226562 382.2407531738281 138.41111755371094 385.3594970703125 135.34307861328125 387.9633483886719 C 134.90611267089844 388.4900817871094 133.96449279785156 389.3946838378906 132.52938842773438 390.5335693359375 C 131.71502685546875 391.2143859863281 130.3795623779297 392.0155334472656 127.21324157714844 393.44970703125 C 127.21842956542969 400.78424072265625 128.6949462890625 399.9066467285156 125.95027160644531 408.41485595703125 C 126.09459686279297 408.3030700683594 128.07937622070312 411.4388427734375 129.34425354003906 413.9410400390625 C 130.93600463867188 417.1715393066406 132.92820739746094 419.4176330566406 133.8599090576172 422.0697021484375 C 134.55587768554688 423.3671569824219 135.1069793701172 424.8673400878906 138.29721069335938 435.1642150878906 C 141.0780487060547 443.16455078125 139.85037231445312 453.3320007324219 138.91229248046875 456.1081237792969 C 135.28578186035156 467.1142272949219 131.58407592773438 470.890625 125.22638702392578 474.58721923828125 C 121.15707397460938 476.2459716796875 114.9830322265625 478.39501953125 108.6900405883789 478.84326171875 C 98.0373306274414 476.51019287109375 91.82183074951172 473.23583984375 86.15215301513672 469.8693542480469 C 84.05908966064453 469.1013488769531 79.14659881591797 465.6763916015625 76.75508880615234 464.2624206542969 C 74.68038177490234 463.5442810058594 69.77494049072266 460.8717041015625 68.80803680419922 460.6470031738281 C 68.47437286376953 460.6466064453125 68.8074951171875 461.35064697265625 66.936767578125 461.3074645996094 C 64.34822845458984 459.74383544921875 61.738826751708984 457.8079528808594 59.2025146484375 456.2743835449219 C 61.10740280151367 452.96319580078125 62.79734802246094 450.1416320800781 57.186405181884766 448.3937683105469 C 57.026458740234375 444.5556335449219 56.78640365600586 441.6004943847656 56.35828399658203 437.2308654785156 C 53.46921920776367 431.66412353515625 49.95649337768555 421.91986083984375 48.830928802490234 411.1343078613281 C 52.27138137817383 399.6483154296875 54.39802932739258 392.8515625 55.93337631225586 385.5021057128906 C 59.149208068847656 379.533447265625 59.493045806884766 377.5833740234375 59.782737731933594 375.6318664550781 C 62.85590362548828 370.734375 66.12480926513672 366.408203125 67.55374908447266 364.2640686035156 C 69.1486587524414 361.9930419921875 69.84000396728516 361.01837158203125 71.24343872070312 359.2367858886719 C 77.52120208740234 359.4842529296875 76.8584976196289 356.9002685546875 75.94441223144531 354.4911804199219 C 79.50566101074219 352.75140380859375 83.94700622558594 351.1784973144531 82.30001831054688 353.2270812988281 C 88.5601806640625 352.5299987792969 90.4624252319336 352.2018737792969 96.10769653320312 349.7597351074219M 101.28899383544922 385.30316162109375 C 102.8959732055664 385.68194580078125 105.96988677978516 385.75830078125 107.1756820678711 384.16290283203125 C 108.95462799072266 381.7316589355469 110.07141876220703 373.260498046875 112.68414306640625 368.1706848144531 C 116.9128646850586 362.9880065917969 116.65691375732422 362.2554016113281 115.90580749511719 361.9898376464844 C 121.49714660644531 359.7847595214844 115.50524139404297 363.4222717285156 109.62604522705078 368.4013671875 C 104.9179916381836 372.5295715332031 100.28441619873047 375.2929382324219 93.41458129882812 377.5016174316406 C 91.24987030029297 380.42529296875 90.02973175048828 381.8311462402344 87.13551330566406 385.00146484375 C 86.17474365234375 386.1285095214844 85.38471984863281 387.1805419921875 87.84851837158203 378.36407470703125 C 92.51263427734375 380.3909606933594 97.18988037109375 382.84271240234375 101.28899383544922 385.30316162109375M 78.8394546508789 401.72943115234375 C 77.07440185546875 408.9317321777344 76.08368682861328 416.046875 76.06761169433594 421.3870544433594 C 77.46419525146484 427.638916015625 79.18826293945312 437.2080383300781 79.54439544677734 441.06298828125 C 84.03890991210938 441.7943420410156 91.10505676269531 443.2998962402344 92.4915542602539 443.7647399902344 C 104.71241760253906 450.3727722167969 107.83845520019531 450.0906066894531 110.01087188720703 448.0611877441406 C 111.81604766845703 446.0237731933594 112.4614028930664 443.6016540527344 112.22843933105469 441.1515808105469 C 105.15640258789062 431.42266845703125 103.69600677490234 426.58209228515625 102.77422332763672 418.4229431152344 C 104.01435089111328 411.6539001464844 103.88665771484375 410.4164733886719 103.310791015625 409.0070495605469 C 102.6568603515625 408.533203125 99.73049926757812 407.57257080078125 95.38172912597656 406.8136291503906 C 90.08556365966797 405.2549743652344 85.24783325195312 403.6878662109375 78.8394546508789 401.72943115234375"/>
    <path stroke-width="0" fill="rgb(0, 0, 0)" opacity="1.0" d="M 287.40087890625 403.4034729003906 C 286.5272216796875 406.70306396484375 285.8463439941406 410.3011474609375 284.7461242675781 414.7357177734375 C 284.231201171875 417.7434387207031 283.9801330566406 420.8660583496094 283.6403503417969 426.1194152832031 C 283.74652099609375 432.0979919433594 283.3157653808594 437.6519775390625 282.7704772949219 440.0311584472656 C 282.08538818359375 444.789306640625 280.4956359863281 449.27862548828125 278.4467468261719 452.5988464355469 C 276.6782531738281 455.1230773925781 275.6549377441406 456.34796142578125 272.8039855957031 459.2419128417969 C 269.51531982421875 461.9628601074219 265.6034240722656 464.271728515625 261.080078125 465.68963623046875 C 258.2054748535156 466.538330078125 253.72695922851562 467.0881652832031 247.80026245117188 466.621337890625 C 242.60098266601562 466.6871337890625 236.29995727539062 465.0960998535156 229.86117553710938 461.9638671875 C 224.37518310546875 457.80230712890625 220.703857421875 452.4018859863281 218.264404296875 449.7855529785156 C 215.80673217773438 448.7650451660156 213.72036743164062 447.7734069824219 211.24996948242188 446.9104919433594 C 209.8106231689453 446.4629821777344 204.23681640625 446.1343078613281 201.06671142578125 444.43060302734375 C 198.29913330078125 443.3026428222656 195.27171325683594 441.52764892578125 192.45785522460938 439.96759033203125 C 188.77354431152344 437.0296630859375 186.18792724609375 434.37957763671875 185.1685028076172 432.7943420410156 C 183.74436950683594 431.166015625 181.53665161132812 427.7525634765625 181.0673828125 421.0595397949219 C 180.05162048339844 419.0048522949219 179.63262939453125 415.2013854980469 178.9840850830078 409.9137878417969 C 178.56007385253906 414.5108337402344 178.46112060546875 413.1786193847656 177.22511291503906 407.974609375 C 176.32009887695312 404.5909118652344 174.57249450683594 401.9330749511719 172.59375 397.9354248046875 C 167.82469177246094 393.3970031738281 163.08445739746094 384.8870544433594 160.2178192138672 377.77679443359375 C 158.77943420410156 373.7024841308594 159.52334594726562 366.1540222167969 162.0499725341797 358.66033935546875 C 166.60841369628906 352.4100341796875 170.4636688232422 348.77972412109375 175.8022003173828 346.56451416015625 C 183.90457153320312 342.5767517089844 187.6546630859375 342.0718994140625 194.7193145751953 343.688720703125 C 199.8114776611328 343.6497497558594 202.99307250976562 343.88702392578125 207.8229522705078 344.3099060058594 C 209.7586212158203 344.45831298828125 214.60365295410156 344.6800537109375 218.04212951660156 345.03350830078125 C 213.0980987548828 344.83868408203125 219.51158142089844 342.18621826171875 226.11302185058594 341.2134094238281 C 234.95726013183594 342.4708557128906 235.66799926757812 342.5406494140625 238.47654724121094 342.63336181640625 C 241.64947509765625 342.13262939453125 244.3630828857422 341.6261901855469 248.07687377929688 341.8180847167969 C 255.45510864257812 339.6221618652344 260.46875 338.5569152832031 266.1401062011719 338.26123046875 C 270.965087890625 338.3348083496094 275.8133850097656 339.56329345703125 281.7976379394531 343.5485534667969 C 286.1344299316406 347.0303649902344 288.881103515625 349.8187255859375 292.3879699707031 356.48638916015625 C 293.89013671875 359.2714538574219 295.6884460449219 366.23846435546875 295.64263916015625 373.4288024902344 C 295.2125549316406 378.6944885253906 294.3592529296875 382.10638427734375 292.00823974609375 389.1760559082031 C 289.6271667480469 395.2226257324219 288.70233154296875 399.9528503417969 287.40087890625 403.4034729003906M 197.5983123779297 401.4115295410156 C 198.7849884033203 405.6587829589844 200.85757446289062 413.6233825683594 201.19708251953125 407.98870849609375 C 202.0334930419922 412.5585021972656 202.84657287597656 415.07391357421875 203.25286865234375 415.6425476074219 C 205.5513153076172 418.23052978515625 209.14703369140625 420.4200134277344 213.10018920898438 421.7877502441406 C 219.90846252441406 422.4533996582031 227.1968231201172 425.3296813964844 234.0839385986328 429.7518615722656 C 239.0133514404297 435.5869140625 242.0546875 440.1793212890625 243.66310119628906 441.6056823730469 C 244.78225708007812 442.3114013671875 246.8990478515625 442.9026794433594 250.58370971679688 442.9577941894531 C 252.37811279296875 442.8954772949219 253.9980010986328 442.2774963378906 256.045166015625 441.0970458984375 C 257.7017822265625 439.8885192871094 259.30438232421875 437.13726806640625 260.49798583984375 432.5072326660156 C 259.81890869140625 424.5073547363281 259.187255859375 416.8744201660156 260.88397216796875 412.4861755371094 C 261.60546875 405.5396728515625 262.0458068847656 400.9131774902344 264.49383544921875 393.4457092285156 C 270.37579345703125 378.6764831542969 270.77960205078125 373.6523132324219 270.3443908691406 370.8709411621094 C 269.16363525390625 368.5098571777344 267.4964599609375 366.3517761230469 265.5534362792969 364.6183776855469 C 263.1527099609375 363.28875732421875 260.92132568359375 362.6280212402344 256.80706787109375 362.8728332519531 C 246.9507598876953 365.260498046875 238.435302734375 365.9871826171875 226.76365661621094 363.2317810058594 C 222.0574493408203 363.56463623046875 216.6103515625 366.0220031738281 211.07159423828125 364.9799499511719 C 207.05862426757812 365.4178771972656 203.20802307128906 365.6375427246094 198.69911193847656 365.65142822265625 C 192.26524353027344 366.61822509765625 190.10528564453125 368.06982421875 186.89187622070312 372.1067810058594 C 186.67787170410156 372.8369445800781 185.78431701660156 368.0491638183594 185.8529052734375 373.6552429199219 C 187.06455993652344 379.88067626953125 193.71656799316406 390.97308349609375 197.5983123779297 401.4115295410156"/>
    <path stroke-width="0" fill="rgb(0, 0, 0)" opacity="1.0" d="M 420.0726318359375 460.62261962890625 C 416.10400390625 462.06402587890625 411.5845642089844 463.8082275390625 405.0647277832031 465.48516845703125 C 399.6935729980469 466.312744140625 396.864501953125 463.154296875 393.0873718261719 464.9368591308594 C 383.37921142578125 459.692626953125 378.2826232910156 450.7635803222656 373.9586486816406 439.7408447265625 C 373.1278381347656 428.6765441894531 374.7560729980469 418.0389709472656 375.2829284667969 411.08416748046875 C 373.6396484375 405.0654602050781 370.9471740722656 400.56011962890625 365.90087890625 396.3050537109375 C 355.3815612792969 393.201171875 342.50970458984375 388.03338623046875 331.28485107421875 374.2040710449219 C 346.1775207519531 375.55975341796875 347.42340087890625 375.3226318359375 330.79730224609375 379.4200134277344 C 329.10858154296875 381.0811462402344 326.619384765625 383.4437561035156 326.09521484375 384.3740234375 C 325.7308349609375 385.5136413574219 325.8138122558594 386.065185546875 326.0110778808594 386.88543701171875 C 327.2496337890625 388.6770324707031 330.81414794921875 392.0142822265625 336.6788024902344 396.71356201171875 C 348.2481384277344 407.20355224609375 354.77606201171875 424.7400817871094 350.2713317871094 442.50079345703125 C 345.6695861816406 457.71484375 343.5299377441406 476.5881652832031 343.3636779785156 487.5939025878906 C 333.297607421875 486.5874938964844 328.2636413574219 485.6368408203125 318.75701904296875 485.9438171386719 C 318.24383544921875 479.50567626953125 317.7040710449219 472.07855224609375 323.28955078125 459.54266357421875 C 324.1854553222656 450.2004699707031 327.7226257324219 441.6557312011719 330.5606384277344 433.5400390625 C 330.0055236816406 429.0078430175781 329.6615295410156 426.1088562011719 327.56884765625 421.33966064453125 C 324.7825622558594 417.3562316894531 319.1943664550781 411.8160095214844 312.298095703125 406.2806396484375 C 306.2226257324219 399.2312316894531 302.20281982421875 388.54949951171875 304.0500183105469 378.40289306640625 C 307.37982177734375 370.3428955078125 313.28704833984375 364.7129211425781 317.23101806640625 361.63604736328125 C 318.0342102050781 360.7846984863281 318.1626281738281 360.4081726074219 317.3628234863281 360.40594482421875 C 317.8667907714844 358.54425048828125 318.4891052246094 356.346435546875 319.16815185546875 354.1141357421875 C 321.88092041015625 354.65771484375 324.86810302734375 354.967041015625 327.59429931640625 355.5362548828125 C 330.1083068847656 355.5252990722656 333.8215637207031 358.1155700683594 337.2294006347656 355.8671569824219 C 342.03350830078125 358.1798400878906 343.5042724609375 359.9202880859375 348.79681396484375 365.28997802734375 C 356.7434997558594 370.4653625488281 367.3495788574219 375.03021240234375 381.3548583984375 380.7613525390625 C 390.12591552734375 388.9404296875 395.0173645019531 400.34033203125 396.1371765136719 412.3963623046875 C 394.6460876464844 423.48529052734375 394.2593078613281 430.8091735839844 395.78851318359375 436.72869873046875 C 397.6285400390625 453.4731750488281 403.4696044921875 439.2100830078125 403.9029541015625 436.4874572753906 C 403.85662841796875 429.02569580078125 409.9053039550781 424.9938659667969 414.3374328613281 422.5008239746094 C 417.78643798828125 420.15765380859375 419.7421569824219 417.6205139160156 420.62359619140625 416.2790222167969 C 421.3221740722656 413.61761474609375 421.0917663574219 410.2689208984375 420.04547119140625 407.7063903808594 C 418.1171875 403.31634521484375 414.7650451660156 398.9216003417969 409.0616760253906 392.46337890625 C 403.3623046875 384.9423828125 400.5384216308594 377.0995178222656 400.9885559082031 367.8224182128906 C 401.8556823730469 358.03692626953125 405.5699157714844 347.87103271484375 410.28045654296875 338.795654296875 C 411.52142333984375 329.9176330566406 412.3514404296875 323.13360595703125 414.4751281738281 316.44757080078125 C 424.0137634277344 320.86468505859375 425.8484191894531 321.94342041015625 436.45611572265625 324.6834411621094 C 434.2625732421875 331.1278076171875 431.53082275390625 341.8118896484375 425.0426025390625 351.8289794921875 C 420.6423034667969 359.1352844238281 419.8351745605469 363.9753723144531 420.0804443359375 369.9684753417969 C 421.0328369140625 374.2921142578125 422.8265686035156 378.2872314453125 426.5339050292969 384.0499267578125 C 432.5928649902344 390.9772033691406 438.1643371582031 400.0987243652344 440.1127014160156 410.39697265625 C 439.363037109375 420.7583923339844 435.45147705078125 430.0616760253906 428.9069519042969 436.4490661621094 C 422.2487487792969 441.6329040527344 418.6889953613281 445.22674560546875 418.4745178222656 445.86968994140625 C 418.00433349609375 448.07354736328125 418.048583984375 448.7547607421875 418.0794982910156 451.5898132324219 C 418.6571044921875 453.8251953125 419.3660888671875 457.6822814941406 420.0726318359375 460.62261962890625"/>
    <path stroke-width="0" fill="rgb(0, 0, 0)" opacity="1.0" d="M 566.7623291015625 403.7464294433594 C 567.057373046875 412.16876220703125 566.5796508789062 416.0939636230469 564.9368286132812 420.5738525390625 C 563.7454223632812 424.6315612792969 559.6207275390625 431.14111328125 548.1424560546875 437.1234130859375 C 539.49560546875 440.5166015625 535.2706298828125 442.3257141113281 530.8719482421875 443.24224853515625 C 527.7669677734375 446.3139343261719 525.6665649414062 447.9047546386719 523.732666015625 449.0146484375 C 521.5665283203125 451.1065368652344 518.4298706054688 453.6221618652344 513.1004028320312 456.3627014160156 C 508.8175048828125 459.3214416503906 505.4032287597656 461.2943420410156 498.937744140625 464.3563537597656 C 492.809814453125 467.8079833984375 487.42987060546875 470.80059814453125 483.14007568359375 473.55279541015625 C 476.46856689453125 476.5372009277344 471.9488525390625 478.95751953125 466.32098388671875 481.8067321777344 C 464.06439208984375 477.51080322265625 461.321533203125 471.5252990722656 458.6145324707031 466.077392578125 C 454.3881530761719 460.0417175292969 450.46661376953125 451.5448913574219 445.7861633300781 439.205810546875 C 441.9339904785156 425.5662841796875 443.86248779296875 412.8048095703125 454.8352355957031 398.7711486816406 C 454.9746398925781 397.7200927734375 455.59222412109375 394.5703430175781 459.1858215332031 387.4690246582031 C 462.631103515625 382.0643615722656 461.50628662109375 385.3823547363281 465.4327087402344 378.55322265625 C 465.6032409667969 374.40447998046875 465.42791748046875 370.5063781738281 465.6738586425781 363.7328796386719 C 465.3548889160156 357.8474426269531 465.5088195800781 352.8296203613281 466.0911560058594 345.9166259765625 C 471.7579040527344 345.64111328125 473.4529113769531 340.3706359863281 475.4295654296875 334.2869873046875 C 483.3885192871094 336.8116760253906 482.7773742675781 329.53240966796875 484.35321044921875 329.96466064453125 C 479.9987487792969 332.27301025390625 491.4916687011719 327.7735290527344 501.24871826171875 328.0732421875 C 510.69879150390625 328.48712158203125 520.9819946289062 332.8565368652344 526.2077026367188 336.0401306152344 C 532.3648071289062 343.7068786621094 534.1309814453125 345.5380554199219 538.5098266601562 351.8516845703125 C 540.7100219726562 355.2698669433594 542.1688232421875 357.5907897949219 543.6732177734375 360.2862548828125 C 544.6767578125 361.1482238769531 545.1541748046875 361.60784912109375 550.6669311523438 365.7523193359375 C 554.62744140625 369.29241943359375 557.6409301757812 374.6768798828125 560.3190307617188 380.58489990234375 C 565.0717163085938 390.00347900390625 566.2772216796875 397.1250915527344 566.7623291015625 403.7464294433594M 538.0635986328125 406.8336181640625 C 537.4232788085938 402.62188720703125 537.504638671875 396.3581237792969 537.28564453125 394.0519104003906 C 534.5986938476562 387.5345458984375 532.8165283203125 383.1889343261719 531.5673217773438 380.9141845703125 C 524.5780639648438 374.9817199707031 521.1388549804688 368.0563659667969 517.5731811523438 363.5787048339844 C 512.9678955078125 359.6526794433594 508.2342224121094 357.5283203125 501.82763671875 356.59637451171875 C 498.2021789550781 356.36676025390625 493.6930236816406 356.7001037597656 490.4743347167969 356.9556884765625 C 490.2212219238281 363.2958068847656 490.0514831542969 369.2327880859375 489.58477783203125 377.04150390625 C 487.643310546875 389.5619201660156 486.83331298828125 393.6591491699219 483.8544616699219 400.3254089355469 C 483.3141784667969 402.2774658203125 483.2318115234375 403.42144775390625 473.5186462402344 419.46990966796875 C 472.8768310546875 426.56640625 474.7071228027344 434.5006103515625 478.8745422363281 444.4855041503906 C 483.3098449707031 442.2518615722656 487.08734130859375 440.390380859375 490.5096130371094 438.8607177734375 C 495.9225158691406 437.0357360839844 498.3309326171875 436.00634765625 503.17205810546875 432.75408935546875 C 505.9953918457031 431.6219787597656 509.97711181640625 428.4041442871094 511.6160888671875 426.6715087890625 C 523.389892578125 418.16473388671875 536.2498779296875 413.67718505859375 536.8250732421875 412.7057800292969 C 537.2875366210938 411.6485290527344 537.8351440429688 409.86932373046875 538.0635986328125 406.8336181640625"/>
    <path stroke-width="0" fill="rgb(0, 0, 0)" opacity="1.0" d="M 139.4374237060547 281.2765197753906 C 131.47654724121094 278.0740966796875 126.53843688964844 275.7320251464844 122.64575958251953 273.4969787597656 C 118.36233520507812 271.2453308105469 114.40276336669922 267.6034851074219 111.48906707763672 262.65069580078125 C 96.82270050048828 262.493896484375 93.94996643066406 257.0902099609375 105.41136169433594 251.35150146484375 C 99.9927978515625 229.1792449951172 86.16481018066406 211.95091247558594 87.3431167602539 204.32533264160156 C 91.68038177490234 200.3010711669922 96.01555633544922 196.4111785888672 99.04180908203125 193.09976196289062 C 111.18155670166016 202.2096405029297 120.14789581298828 216.6696014404297 125.86571502685547 234.2310791015625 C 127.13036346435547 239.23712158203125 128.77090454101562 243.1626739501953 130.24026489257812 245.4021453857422 C 132.19993591308594 248.04344177246094 134.51556396484375 250.05162048339844 137.5450439453125 251.4364013671875 C 139.69369506835938 252.57044982910156 141.759521484375 253.35044860839844 145.98440551757812 254.0493621826172 C 151.83619689941406 254.55844116210938 155.63848876953125 257.13299560546875 157.00311279296875 260.16632080078125 C 158.39698791503906 262.5345764160156 159.01190185546875 265.8565673828125 158.36727905273438 269.7752380371094 C 157.8292236328125 273.5191345214844 156.3411407470703 276.3474426269531 153.45855712890625 278.5373840332031 C 150.72344970703125 280.91656494140625 146.71835327148438 281.9749450683594 139.4374237060547 281.2765197753906M 113.97857666015625 260.7275695800781 C 110.79410552978516 266.81402587890625 111.09551239013672 264.431396484375 101.20252227783203 266.3401794433594 C 85.27832794189453 265.0716247558594 80.23003387451172 258.8410949707031 69.77530670166016 256.95831298828125 C 58.49134826660156 252.5374755859375 51.36023712158203 246.1403045654297 51.142974853515625 254.4890594482422 C 53.8865852355957 249.12939453125 58.27884292602539 240.7266082763672 54.42589569091797 232.5399627685547 C 50.371639251708984 232.14990234375 55.25960922241211 228.0847930908203 42.58372497558594 231.7611083984375 C 35.310176849365234 207.58506774902344 34.42509078979492 199.79876708984375 36.778038024902344 211.19293212890625 C 58.35714340209961 206.1947021484375 72.27671813964844 191.91830444335938 89.32176208496094 191.21490478515625 C 112.93798828125 202.82003784179688 92.53496551513672 211.25294494628906 95.4737319946289 207.18930053710938 C 98.29083251953125 210.4228057861328 101.49607849121094 215.03225708007812 103.32441711425781 218.88876342773438 C 99.0330810546875 220.47157287597656 95.50440979003906 222.43138122558594 82.30953979492188 215.72802734375 C 84.1513442993164 214.8582763671875 71.9363021850586 227.01760864257812 51.88066864013672 232.72023010253906 C 57.67869567871094 231.91226196289062 58.54768371582031 242.2857666015625 61.77523422241211 231.76171875 C 74.1482162475586 224.24168395996094 68.6374740600586 224.70809936523438 69.5193862915039 225.44546508789062 C 78.9744644165039 230.3637237548828 85.30677795410156 234.25599670410156 79.98616027832031 243.47853088378906 C 67.01744842529297 242.7960968017578 67.04370880126953 248.3871307373047 52.74586486816406 232.60169982910156 C 77.39306640625 228.5638427734375 92.45195770263672 238.70066833496094 95.29077911376953 240.78067016601562 C 97.60315704345703 243.35198974609375 112.95226287841797 247.7487335205078 103.62663269042969 242.63275146484375 C 105.8663558959961 241.57069396972656 108.2469482421875 240.2395782470703 110.90647888183594 238.4005889892578 C 112.55289459228516 246.14389038085938 113.64360046386719 254.35321044921875 113.97857666015625 260.7275695800781M 114.53970336914062 142.4932403564453 C 98.83147430419922 153.8769073486328 91.36936950683594 148.21292114257812 108.63488006591797 131.59591674804688 C 108.99760437011719 156.4125213623047 95.2108154296875 157.20797729492188 93.23291778564453 155.1311492919922 C 98.29835510253906 147.01409912109375 100.34857940673828 141.47764587402344 114.7889633178711 150.33010864257812 C 115.6551513671875 141.95037841796875 99.55067443847656 126.46514129638672 105.374267578125 124.95121765136719 C 109.94023895263672 143.22776794433594 115.61900329589844 144.04083251953125 119.71916198730469 144.10667419433594 C 121.45164489746094 143.18666076660156 111.07395935058594 150.85923767089844 158.4707489013672 175.04771423339844 C 146.7252960205078 140.27871704101562 127.3857192993164 146.143310546875 120.70308685302734 130.9634246826172 C 102.38240814208984 141.6097412109375 100.54598999023438 138.78781127929688 114.53970336914062 142.4932403564453M 75.45712280273438 153.70899963378906 C 83.07356262207031 161.76849365234375 73.31248474121094 156.42111206054688 72.91055297851562 161.41220092773438 C 70.2440414428711 161.18447875976562 62.08118438720703 150.34085083007812 66.30387115478516 138.9855194091797 C 67.82830047607422 136.17318725585938 67.08348846435547 132.76736450195312 80.25438690185547 122.6683578491211 C 95.27591705322266 114.43391418457031 122.50794982910156 116.04447937011719 120.27690124511719 131.95401000976562 C 85.86687469482422 119.52385711669922 73.84623718261719 129.3380126953125 73.24900817871094 153.7216033935547 C 84.42788696289062 162.0902557373047 91.07634735107422 149.3348388671875 95.79923248291016 149.58387756347656 C 97.90213775634766 155.32888793945312 88.98796844482422 169.441650390625 71.71932983398438 161.55604553222656 C 67.14752960205078 144.75660705566406 71.74701690673828 141.15438842773438 75.45712280273438 153.70899963378906"/>
    <path stroke-width="0" fill="rgb(0, 0, 0)" opacity="1.0" d="M 145.15809631347656 281.8534240722656 C 146.45883178710938 272.7848815917969 148.33494567871094 263.53558349609375 149.41258239746094 254.21533203125 C 155.4839630126953 255.41905212402344 159.10488891601562 256.36444091796875 160.3142547607422 256.2336730957031 C 160.97329711914062 255.92086791992188 162.61032104492188 253.92523193359375 163.6039581298828 251.30126953125 C 164.63412475585938 246.92367553710938 166.58106994628906 240.2036895751953 168.93173217773438 231.83184814453125 C 173.23861694335938 210.9128875732422 168.0396270751953 194.91665649414062 141.80067443847656 177.7027130126953 C 150.2427215576172 166.28738403320312 153.00680541992188 164.17355346679688 161.9472198486328 155.5382843017578 C 183.53289794921875 183.60816955566406 195.48512268066406 207.24026489257812 191.72898864746094 237.13612365722656 C 188.20616149902344 245.78367614746094 186.7354278564453 253.38536071777344 187.1398468017578 256.7122497558594 C 184.45217895507812 256.5987243652344 186.0554962158203 257.45648193359375 190.71844482421875 257.86083984375 C 194.1174774169922 259.0634460449219 198.39027404785156 258.6924133300781 204.29754638671875 258.1414794921875 C 210.80284118652344 258.2933654785156 214.93212890625 260.5246276855469 216.8146514892578 263.5462951660156 C 218.40692138671875 266.14898681640625 218.9590606689453 268.9300842285156 218.6258544921875 271.6724853515625 C 218.34811401367188 274.7803955078125 216.92181396484375 277.59954833984375 214.2071990966797 279.6331787109375 C 211.95184326171875 281.4237976074219 207.54608154296875 282.2828369140625 204.17356872558594 282.7460632324219 C 199.83670043945312 282.5465087890625 196.3367919921875 282.09710693359375 190.65733337402344 282.3908386230469 C 185.88050842285156 281.6839294433594 181.98699951171875 279.7814025878906 178.96937561035156 276.7170715332031 C 175.71031188964844 273.618896484375 174.0991973876953 268.66009521484375 174.0675506591797 262.858154296875 C 176.34469604492188 263.1319274902344 178.58319091796875 263.4354553222656 180.62852478027344 263.6383056640625 C 178.96669006347656 268.733154296875 176.33853149414062 273.2602233886719 173.41098022460938 275.7157897949219 C 170.3715362548828 278.04046630859375 167.22923278808594 279.8670654296875 162.78890991210938 281.2322998046875 C 158.1204376220703 282.0047607421875 152.7651824951172 282.2005615234375 145.15809631347656 281.8534240722656"/>
    <path stroke-width="0" fill="rgb(0, 0, 0)" opacity="1.0" d="M 293.8136901855469 291.40936279296875 C 286.85308837890625 291.8606872558594 276.81927490234375 291.0576171875 270.7320556640625 289.80853271484375 C 264.5252990722656 289.28564453125 257.76348876953125 289.37664794921875 252.47244262695312 287.851318359375 C 247.62701416015625 286.16302490234375 242.684814453125 283.9855651855469 239.42202758789062 281.430419921875 C 236.14146423339844 278.45379638671875 234.36976623535156 275.7533874511719 233.25665283203125 271.9755554199219 C 235.02755737304688 271.86895751953125 237.1133575439453 271.51568603515625 238.00621032714844 271.48443603515625 C 234.6637725830078 276.47698974609375 231.6724395751953 278.71160888671875 229.20281982421875 279.92169189453125 C 226.14718627929688 281.2794189453125 223.1835174560547 282.2081604003906 218.8332977294922 282.4918212890625 C 215.2013397216797 282.1310729980469 212.01345825195312 282.2626037597656 208.30909729003906 282.45001220703125 C 208.27127075195312 274.8096923828125 208.4946746826172 266.9937438964844 208.55516052246094 258.30780029296875 C 213.6743621826172 258.7685241699219 217.1274871826172 258.86260986328125 219.51998901367188 258.38189697265625 C 221.9718017578125 258.262451171875 223.644287109375 257.12286376953125 224.34820556640625 256.3736877441406 C 224.75901794433594 255.73133850097656 224.97833251953125 253.42825317382812 225.4759979248047 251.5376739501953 C 225.38673400878906 254.5902099609375 225.59323120117188 251.31019592285156 225.46231079101562 247.6813507080078 C 231.4200897216797 246.8340301513672 239.94483947753906 247.85398864746094 247.22796630859375 248.56703186035156 C 247.17559814453125 250.23191833496094 247.27496337890625 252.12388610839844 247.54710388183594 254.0696258544922 C 247.9973907470703 257.5267333984375 247.93881225585938 258.664794921875 248.93362426757812 253.9404754638672 C 248.14593505859375 257.9679870605469 247.57456970214844 260.6646728515625 247.3620147705078 261.8935241699219 C 248.9131317138672 256.28240966796875 248.9091339111328 256.7709655761719 249.11505126953125 257.3362731933594 C 250.1311798095703 259.1097412109375 251.91481018066406 260.1890563964844 255.04046630859375 261.1061706542969 C 258.6338195800781 262.3156433105469 263.0859680175781 263.3782043457031 268.43292236328125 264.28466796875 C 274.7576904296875 265.4121398925781 281.8106689453125 266.1803283691406 289.3846435546875 267.13299560546875 C 300.9961853027344 268.09735107421875 310.4208984375 268.25860595703125 321.5682373046875 267.54119873046875 C 329.60247802734375 266.9436950683594 338.11669921875 266.74261474609375 343.2671813964844 265.3851318359375 C 344.87811279296875 264.89752197265625 347.7932434082031 263.4161376953125 349.92327880859375 258.7376403808594 C 352.0417175292969 256.136962890625 353.1267395019531 252.74542236328125 352.3928527832031 249.0421600341797 C 352.3099670410156 246.47763061523438 351.5762939453125 244.26492309570312 349.8095397949219 240.62014770507812 C 348.5517578125 238.3751678466797 346.3600769042969 236.68666076660156 343.7233581542969 235.5152587890625 C 341.38720703125 234.59341430664062 338.1693115234375 234.1173553466797 336.2414855957031 234.17079162597656 C 332.965087890625 234.43060302734375 327.7784423828125 235.58143615722656 321.9748229980469 237.66989135742188 C 317.26373291015625 239.6758575439453 315.2498474121094 240.64187622070312 310.5412902832031 244.65318298339844 C 307.0775146484375 248.13360595703125 302.59832763671875 253.04798889160156 296.9992980957031 259.470458984375 C 290.6179504394531 264.0197448730469 287.4608154296875 266.6608581542969 284.59417724609375 269.88262939453125 C 275.9521484375 268.4325256347656 265.9695739746094 266.3083190917969 256.1296691894531 264.9864501953125 C 262.3193664550781 257.5580139160156 269.0758056640625 251.06166076660156 275.88006591796875 245.78294372558594 C 281.303955078125 240.03390502929688 286.9595947265625 233.25657653808594 293.39654541015625 224.9649200439453 C 301.44036865234375 218.26063537597656 310.0226745605469 214.40313720703125 317.5455322265625 211.51341247558594 C 324.47808837890625 208.7238311767578 330.4931335449219 207.25315856933594 337.84906005859375 206.90957641601562 C 344.2312927246094 207.5765838623047 351.1734924316406 209.10293579101562 358.2234191894531 213.00643920898438 C 363.5369567871094 216.28106689453125 368.37060546875 220.88150024414062 371.4949645996094 226.3474578857422 C 375.1793518066406 231.78945922851562 376.8822021484375 237.3542938232422 377.1316833496094 245.6834259033203 C 378.8746643066406 255.0843963623047 376.5021057128906 262.9709167480469 371.9899597167969 269.6293029785156 C 367.6365966796875 278.4034729003906 359.77239990234375 286.64459228515625 347.2661437988281 294.39715576171875 C 330.9373779296875 297.08917236328125 312.8078308105469 295.027587890625 293.8136901855469 291.40936279296875"/>
  </g>
</svg>
